<?xml version="1.0" encoding="UTF-8"?>
<svg width="465px" height="341px" viewBox="0 0 465 341" version="1.1" xmlns="http://www.w3.org/2000/svg" xmlns:xlink="http://www.w3.org/1999/xlink">
    <!-- Generator: Sketch 55.2 (78181) - https://sketchapp.com -->
    <title>1</title>
    <desc>Created with Sketch.</desc>
    <defs>
        <linearGradient x1="35.9218931%" y1="57.7630057%" x2="53.3233655%" y2="39.3553493%" id="linearGradient-1">
            <stop stop-color="#ECF1FF" offset="0%"></stop>
            <stop stop-color="#FFFFFF" offset="100%"></stop>
        </linearGradient>
        <linearGradient x1="35.9218931%" y1="76.1029865%" x2="53.3233655%" y2="14.2075267%" id="linearGradient-2">
            <stop stop-color="#ECF1FF" offset="0%"></stop>
            <stop stop-color="#FFFFFF" offset="100%"></stop>
        </linearGradient>
        <linearGradient x1="35.9218931%" y1="58.4938546%" x2="53.3233655%" y2="38.3532076%" id="linearGradient-3">
            <stop stop-color="#ECF1FF" offset="0%"></stop>
            <stop stop-color="#FFFFFF" offset="100%"></stop>
        </linearGradient>
        <linearGradient x1="35.9218931%" y1="76.1029865%" x2="53.3233655%" y2="14.2075267%" id="linearGradient-4">
            <stop stop-color="#ECF1FF" offset="0%"></stop>
            <stop stop-color="#FFFFFF" offset="100%"></stop>
        </linearGradient>
        <linearGradient x1="31.669258%" y1="-9.21335019%" x2="100%" y2="50%" id="linearGradient-5">
            <stop stop-color="#CFDDF3" offset="0%"></stop>
            <stop stop-color="#A1B8E3" offset="100%"></stop>
        </linearGradient>
        <linearGradient x1="50%" y1="0%" x2="50%" y2="100%" id="linearGradient-6">
            <stop stop-color="#CFDDF3" offset="0%"></stop>
            <stop stop-color="#A1B8E3" offset="100%"></stop>
        </linearGradient>
        <linearGradient x1="50%" y1="0%" x2="50%" y2="100%" id="linearGradient-7">
            <stop stop-color="#CFDDF3" offset="0%"></stop>
            <stop stop-color="#A1B8E3" offset="100%"></stop>
        </linearGradient>
        <linearGradient x1="50%" y1="0%" x2="50%" y2="100%" id="linearGradient-8">
            <stop stop-color="#CFDDF3" offset="0%"></stop>
            <stop stop-color="#A1B8E3" offset="100%"></stop>
        </linearGradient>
        <linearGradient x1="50%" y1="0%" x2="50%" y2="100%" id="linearGradient-9">
            <stop stop-color="#CFDDF3" offset="0%"></stop>
            <stop stop-color="#A1B8E3" offset="100%"></stop>
        </linearGradient>
        <linearGradient x1="227.604499%" y1="-30.2653238%" x2="50%" y2="100%" id="linearGradient-10">
            <stop stop-color="#CFDDF3" offset="0%"></stop>
            <stop stop-color="#A1B8E3" offset="100%"></stop>
        </linearGradient>
        <linearGradient x1="227.604499%" y1="-30.2653238%" x2="50%" y2="100%" id="linearGradient-11">
            <stop stop-color="#CFDDF3" offset="0%"></stop>
            <stop stop-color="#A1B8E3" offset="100%"></stop>
        </linearGradient>
        <linearGradient x1="12.0299736%" y1="-13.8706909%" x2="20.148299%" y2="104.636122%" id="linearGradient-12">
            <stop stop-color="#FFFFFF" offset="0%"></stop>
            <stop stop-color="#D6E3FA" offset="100%"></stop>
        </linearGradient>
        <linearGradient x1="50%" y1="100%" x2="50%" y2="-97.5239132%" id="linearGradient-13">
            <stop stop-color="#FFFFFF" offset="0%"></stop>
            <stop stop-color="#D6E3FA" offset="100%"></stop>
        </linearGradient>
        <linearGradient x1="31.669258%" y1="-9.21335019%" x2="100%" y2="50%" id="linearGradient-14">
            <stop stop-color="#CFDDF3" offset="0%"></stop>
            <stop stop-color="#A1B8E3" offset="100%"></stop>
        </linearGradient>
        <linearGradient x1="50%" y1="0%" x2="50%" y2="100%" id="linearGradient-15">
            <stop stop-color="#CFDDF3" offset="0%"></stop>
            <stop stop-color="#A1B8E3" offset="100%"></stop>
        </linearGradient>
        <linearGradient x1="50%" y1="0%" x2="50%" y2="100%" id="linearGradient-16">
            <stop stop-color="#CFDDF3" offset="0%"></stop>
            <stop stop-color="#A1B8E3" offset="100%"></stop>
        </linearGradient>
        <linearGradient x1="50%" y1="0%" x2="50%" y2="100%" id="linearGradient-17">
            <stop stop-color="#CFDDF3" offset="0%"></stop>
            <stop stop-color="#A1B8E3" offset="100%"></stop>
        </linearGradient>
        <linearGradient x1="92.0924801%" y1="16.0556086%" x2="-46.0292161%" y2="16.0556093%" id="linearGradient-18">
            <stop stop-color="#D0DCF1" offset="0%"></stop>
            <stop stop-color="#FFFFFF" stop-opacity="0" offset="100%"></stop>
        </linearGradient>
        <linearGradient x1="92.0924801%" y1="16.0556086%" x2="-46.0292161%" y2="16.0556093%" id="linearGradient-19">
            <stop stop-color="#D0DCF1" offset="0%"></stop>
            <stop stop-color="#FFFFFF" stop-opacity="0" offset="100%"></stop>
        </linearGradient>
        <linearGradient x1="31.669258%" y1="-9.21335019%" x2="100%" y2="50%" id="linearGradient-20">
            <stop stop-color="#CFDDF3" offset="0%"></stop>
            <stop stop-color="#A1B8E3" offset="100%"></stop>
        </linearGradient>
        <linearGradient x1="31.669258%" y1="-9.21335019%" x2="100%" y2="50%" id="linearGradient-21">
            <stop stop-color="#CFDDF3" offset="0%"></stop>
            <stop stop-color="#A1B8E3" offset="100%"></stop>
        </linearGradient>
        <path d="M0.205824349,7.02111238 C0.205824349,8.51131443 2.47908298,14.9707927 3.18276246,22.8603946 C3.67825765,28.4158498 2.58057825,34.6803971 2.90948276,40.4183938 C3.44014913,49.6762843 4.92577811,74.2303458 7.36636969,114.080578 C9.03058615,115.295848 10.8008009,116.043123 12.6770139,116.322401 C14.5532269,116.60168 17.028028,116.338398 20.1014173,115.532558 C23.6348777,88.2886454 26.2554693,71.3378767 27.9631921,64.6802515 C29.196389,59.8725841 28.1396611,49.3860509 32.6684816,41.4095412 C33.9822127,39.095696 35.1393762,36.4944839 36.1399721,33.6059047 L36.1399718,33.6059046 C38.5788118,26.5653173 38.5107062,18.8984017 35.947177,11.9022507 L31.6017732,0.0431692652 C10.6711406,3.00211381 0.205824349,5.32809485 0.205824349,7.02111238 Z" id="path-22"></path>
        <linearGradient x1="89.2651436%" y1="83.2202103%" x2="79.8543348%" y2="25.681003%" id="linearGradient-24">
            <stop stop-color="#CFDDF3" stop-opacity="0.477723053" offset="0%"></stop>
            <stop stop-color="#A1B8E3" offset="100%"></stop>
        </linearGradient>
        <path d="M0.205824349,7.02111238 C0.205824349,8.51131443 2.47908298,14.9707927 3.18276246,22.8603946 C3.67825765,28.4158498 2.58057825,34.6803971 2.90948276,40.4183938 C3.44014913,49.6762843 4.92577811,74.2303458 7.36636969,114.080578 C9.03058615,115.295848 10.8008009,116.043123 12.6770139,116.322401 C14.5532269,116.60168 17.028028,116.338398 20.1014173,115.532558 C23.6348777,88.2886454 26.2554693,71.3378767 27.9631921,64.6802515 C29.196389,59.8725841 28.1396611,49.3860509 32.6684816,41.4095412 C33.9822127,39.095696 35.1393762,36.4944839 36.1399721,33.6059047 L36.1399718,33.6059046 C38.5788118,26.5653173 38.5107062,18.8984017 35.947177,11.9022507 L31.6017732,0.0431692652 C10.6711406,3.00211381 0.205824349,5.32809485 0.205824349,7.02111238 Z" id="path-25"></path>
        <linearGradient x1="112.999777%" y1="45.115866%" x2="50%" y2="88.6153495%" id="linearGradient-27">
            <stop stop-color="#CFDDF3" stop-opacity="0.174422554" offset="0%"></stop>
            <stop stop-color="#5477B8" offset="100%"></stop>
        </linearGradient>
        <radialGradient cx="100%" cy="50%" fx="100%" fy="50%" r="74.6544449%" gradientTransform="translate(1.000000,0.500000),scale(0.513950,1.000000),rotate(119.317433),translate(-1.000000,-0.500000)" id="radialGradient-28">
            <stop stop-color="#47689B" offset="0%"></stop>
            <stop stop-color="#223762" offset="100%"></stop>
        </radialGradient>
        <radialGradient cx="100%" cy="50%" fx="100%" fy="50%" r="75.1592302%" gradientTransform="translate(1.000000,0.500000),scale(0.499995,1.000000),rotate(119.995539),translate(-1.000000,-0.500000)" id="radialGradient-29">
            <stop stop-color="#47689B" offset="0%"></stop>
            <stop stop-color="#223762" offset="100%"></stop>
        </radialGradient>
        <linearGradient x1="32.6213395%" y1="-14.250597%" x2="97.4030471%" y2="50%" id="linearGradient-30">
            <stop stop-color="#CFDDF3" offset="0%"></stop>
            <stop stop-color="#A1B8E3" offset="100%"></stop>
        </linearGradient>
        <linearGradient x1="31.669258%" y1="-9.21335019%" x2="100%" y2="50%" id="linearGradient-31">
            <stop stop-color="#CFDDF3" offset="0%"></stop>
            <stop stop-color="#A1B8E3" offset="100%"></stop>
        </linearGradient>
        <path d="M0.28382364,10.171013 C0.617398438,11.2148284 3.59116625,14.0073234 4.31607688,17.1361096 C4.74719438,18.9968554 4.4223986,20.8622046 4.4223986,22.299068 C4.4223986,26.1519723 5.69705834,26.0051578 8.4072222,25.4220786 C10.9449357,26.9249806 11.3861951,30.2921517 14.2206084,32.043651 C17.0550218,33.7951503 21.9512093,27.4593934 23.5664853,29.2646544 C24.0940113,29.8542267 24.396855,30.9814913 25.4538696,32.043651 C26.1876653,32.7810184 26.3546554,34.7443378 25.9548401,37.9336093 C32.3558803,36.9951256 35.9207402,34.8162889 36.64942,31.3970993 C35.4690881,29.0178413 32.7363793,21.6250827 32.7363793,19.6080087 C32.7363793,17.5909347 37.2512514,9.89654542 24.9471003,2.43054222 C12.6429491,-5.03546098 -0.248134141,8.5064217 0.28382364,10.171013 Z" id="path-32"></path>
        <path d="M0.28382364,10.171013 C0.617398438,11.2148284 3.59116625,14.0073234 4.31607688,17.1361096 C4.74719438,18.9968554 4.4223986,20.8622046 4.4223986,22.299068 C4.4223986,26.1519723 5.69705834,26.0051578 8.4072222,25.4220786 C10.9449357,26.9249806 11.3861951,30.2921517 14.2206084,32.043651 C17.0550218,33.7951503 21.9512093,27.4593934 23.5664853,29.2646544 C24.0940113,29.8542267 24.396855,30.9814913 25.4538696,32.043651 C26.1876653,32.7810184 26.3546554,34.7443378 25.9548401,37.9336093 C32.3558803,36.9951256 35.9207402,34.8162889 36.64942,31.3970993 C35.4690881,29.0178413 32.7363793,21.6250827 32.7363793,19.6080087 C32.7363793,17.5909347 37.2512514,9.89654542 24.9471003,2.43054222 C12.6429491,-5.03546098 -0.248134141,8.5064217 0.28382364,10.171013 Z" id="path-34"></path>
        <linearGradient x1="31.669258%" y1="-9.21335019%" x2="179.79561%" y2="165.534383%" id="linearGradient-36">
            <stop stop-color="#CFDDF3" offset="0%"></stop>
            <stop stop-color="#A1B8E3" offset="100%"></stop>
        </linearGradient>
        <linearGradient x1="50%" y1="100%" x2="50%" y2="3.061617e-15%" id="linearGradient-37">
            <stop stop-color="#EDF3FD" offset="0%"></stop>
            <stop stop-color="#FFFFFF" offset="100%"></stop>
        </linearGradient>
        <linearGradient x1="36.9690342%" y1="-14.250597%" x2="85.5440215%" y2="50%" id="linearGradient-38">
            <stop stop-color="#CFDDF3" offset="0%"></stop>
            <stop stop-color="#A1B8E3" offset="100%"></stop>
        </linearGradient>
        <linearGradient x1="31.669258%" y1="-9.21335019%" x2="100%" y2="50%" id="linearGradient-39">
            <stop stop-color="#CFDDF3" offset="0%"></stop>
            <stop stop-color="#A1B8E3" offset="100%"></stop>
        </linearGradient>
        <path d="M34.659356,24.4974346 C27.2456533,33.8320216 23.3539692,38.4993151 22.9843035,38.4993151 C22.4298051,38.4993151 9.65871599,20.3002165 9.65871599,19.4692632 C9.65871599,18.6383099 10.5696059,15.3798351 8.04233668,11.9038924 C5.51506751,8.42794974 3.97207667,2.33959228 2.64223366,1.2556193 C1.31239065,0.171646306 1.30285773,-0.30088037 0.634361376,0.285791709 C-0.0341349746,0.872463788 0.0091603921,1.37492837 0.634361376,2.65512072 C1.25956236,3.93531308 2.64223366,7.61462484 2.64223366,8.56156204 C2.64223366,9.50849923 2.00273329,12.881963 2.64223366,14.1665246 C3.28173403,15.4510862 2.67058658,20.4491192 3.46459978,22.9956018 C4.25861297,25.5420843 18.6550657,51.3764541 22.879343,50.8215585 C25.6955279,50.451628 32.0776886,45.1588688 42.0258252,34.9432806 C43.5665174,30.4409963 43.0725593,27.3479115 40.543951,25.6640263 C38.0153427,23.9801411 36.053811,23.5912772 34.659356,24.4974346 Z" id="path-40"></path>
        <path d="M34.659356,24.4974346 C27.2456533,33.8320216 23.3539692,38.4993151 22.9843035,38.4993151 C22.4298051,38.4993151 9.65871599,20.3002165 9.65871599,19.4692632 C9.65871599,18.6383099 10.5696059,15.3798351 8.04233668,11.9038924 C5.51506751,8.42794974 3.97207667,2.33959228 2.64223366,1.2556193 C1.31239065,0.171646306 1.30285773,-0.30088037 0.634361376,0.285791709 C-0.0341349746,0.872463788 0.0091603921,1.37492837 0.634361376,2.65512072 C1.25956236,3.93531308 2.64223366,7.61462484 2.64223366,8.56156204 C2.64223366,9.50849923 2.00273329,12.881963 2.64223366,14.1665246 C3.28173403,15.4510862 2.67058658,20.4491192 3.46459978,22.9956018 C4.25861297,25.5420843 18.6550657,51.3764541 22.879343,50.8215585 C25.6955279,50.451628 32.0776886,45.1588688 42.0258252,34.9432806 C43.5665174,30.4409963 43.0725593,27.3479115 40.543951,25.6640263 C38.0153427,23.9801411 36.053811,23.5912772 34.659356,24.4974346 Z" id="path-42"></path>
        <linearGradient x1="9.9185699%" y1="45.3163473%" x2="74.1415029%" y2="16.9566555%" id="linearGradient-44">
            <stop stop-color="#CFDDF3" offset="0%"></stop>
            <stop stop-color="#A1B8E3" offset="100%"></stop>
        </linearGradient>
        <linearGradient x1="10.7192514%" y1="73.2649196%" x2="71.2589909%" y2="21.6075892%" id="linearGradient-45">
            <stop stop-color="#EDF3FD" offset="0%"></stop>
            <stop stop-color="#D6E3FA" offset="100%"></stop>
        </linearGradient>
        <linearGradient x1="-8.95546568%" y1="107.033068%" x2="116.823877%" y2="58.2519775%" id="linearGradient-46">
            <stop stop-color="#D1DEF3" stop-opacity="0.126387002" offset="0%"></stop>
            <stop stop-color="#A4BAE4" offset="100%"></stop>
        </linearGradient>
        <radialGradient cx="50%" cy="0%" fx="50%" fy="0%" r="40.9162231%" gradientTransform="translate(0.500000,0.000000),scale(0.924218,1.000000),rotate(90.000000),translate(-0.500000,-0.000000)" id="radialGradient-47">
            <stop stop-color="#47689B" offset="0%"></stop>
            <stop stop-color="#223762" offset="100%"></stop>
        </radialGradient>
        <path d="M3.51469799,0.384972666 C3.51469799,1.40419405 5.78191985,4.46689553 9.84285382,4.46689553 C13.9037878,4.46689553 26.0580447,1.30722529 30.0870756,11.1841857 C34.1161064,21.0611461 28.5544655,21.5258406 35.1176971,28.6599705 C41.6809287,35.7941004 41.9315362,55.1085135 25.887195,50.4896943 C9.84285382,45.8708752 12.3715975,24.8760901 12.3715975,19.2745703 C12.3715975,13.6730505 6.3416994,11.6708453 0.930758866,10.4077328 C-2.01801678,4.46689553 3.51469799,-0.634248717 3.51469799,0.384972666 Z" id="path-48"></path>
        <path d="M3.51469799,0.384972666 C3.51469799,1.40419405 5.78191985,4.46689553 9.84285382,4.46689553 C13.9037878,4.46689553 26.0580447,1.30722529 30.0870756,11.1841857 C34.1161064,21.0611461 28.5544655,21.5258406 35.1176971,28.6599705 C41.6809287,35.7941004 41.9315362,55.1085135 25.887195,50.4896943 C9.84285382,45.8708752 12.3715975,24.8760901 12.3715975,19.2745703 C12.3715975,13.6730505 6.3416994,11.6708453 0.930758866,10.4077328 C-2.01801678,4.46689553 3.51469799,-0.634248717 3.51469799,0.384972666 Z" id="path-50"></path>
        <linearGradient x1="48.5454678%" y1="-14.250597%" x2="53.9674668%" y2="50%" id="linearGradient-52">
            <stop stop-color="#CFDDF3" offset="0%"></stop>
            <stop stop-color="#A1B8E3" offset="100%"></stop>
        </linearGradient>
        <linearGradient x1="31.669258%" y1="-9.21335019%" x2="100%" y2="50%" id="linearGradient-53">
            <stop stop-color="#CFDDF3" offset="0%"></stop>
            <stop stop-color="#A1B8E3" offset="100%"></stop>
        </linearGradient>
        <path d="M7.50595009,38.8352265 C6.50732,34.5621865 0.726954664,11.7113077 2.04739763,5.98000797 C3.36784059,0.248708271 13.5309221,-2.5343237 14.5937704,4.24395018 C15.2672573,8.53908666 16.7149588,20.21349 18.936875,39.2671601 L18.9368743,39.2671602 C19.1682531,41.2513109 18.8378956,43.2605656 17.9834111,45.066181 L9.2221417,63.5796622 L5.50703378,70.8930548 C3.20060968,70.508355 1.50998808,68.8407571 0.435168981,65.8902609 C-0.0906147188,64.4469271 0.234957068,62.7731238 0.986593912,61.0443076 C4.21864051,53.6103792 8.3161598,42.3020342 7.50595009,38.8352265 Z" id="path-54"></path>
        <linearGradient x1="34.8039008%" y1="108.715988%" x2="112.133184%" y2="50%" id="linearGradient-56">
            <stop stop-color="#E3EDFE" offset="0%"></stop>
            <stop stop-color="#B8C8E6" offset="100%"></stop>
        </linearGradient>
        <linearGradient x1="169.483856%" y1="30.4263167%" x2="50%" y2="100%" id="linearGradient-57">
            <stop stop-color="#D2DFF5" stop-opacity="0.542713995" offset="0%"></stop>
            <stop stop-color="#C5D5F5" offset="100%"></stop>
        </linearGradient>
    </defs>
    <g id="Page-1" stroke="none" stroke-width="1" fill="none" fill-rule="evenodd">
        <g id="1">
            <g id="cloud" opacity="0.300000012" transform="translate(135.879311, 44.775862) scale(-1, 1) translate(-135.879311, -44.775862) translate(50.879311, 0.275862)" fill="url(#linearGradient-2)">
                <g id="path-2-link">
                    <path d="M55.293329,46.6762522 C54.868532,34.4955901 23.1314846,37.2412703 10.8889262,38.4163509 C-1.3538058,39.5914315 -2.4653611,22.9049013 8.0976256,20.424553 C18.6604388,17.9442047 37.8153677,19.2242246 47.74003,16.9346582 C57.664693,14.6450918 45.1103506,2.3659172 58.633203,0.8858427 C72.156055,-0.5941401 100.117841,0.7761293 108.453725,0.4754504 C121.547266,0.003178 128.265032,15.7660043 105.325816,16.4812987 C98.999863,16.6785073 97.730853,30.681972 119.083721,26.835394 C132.483491,24.4215164 158.774386,24.3657875 164.243627,30.5286487 C167.381605,34.0646323 166.29418,43.5644323 160.899413,48.8102 C156.891877,52.7070901 144.147096,53.4669125 139.154559,54.3676638 C127.441651,56.4811379 129.757117,67.8221944 133.750938,70.1573905 C143.202023,75.6831797 169.140512,65.2544427 169.835776,80.4282138 C170.143047,87.133307 146.542244,88.215843 136.865133,88.133948 C113.131006,87.933159 97.53677,90.047734 96.442401,81.951531 C95.343865,73.8237448 111.190862,79.3096884 110.409493,69.3176013 C110.001188,64.0961634 111.095557,53.0010668 100.928549,53.5834198 C114.848249,52.786047 55.867074,63.1274724 55.293329,46.6762522 Z" id="path-2"></path>
                </g>
            </g>
            <g id="cloud" opacity="0.200000003" transform="translate(311.249999, 118.275862) scale(-1, 1) translate(-311.249999, -118.275862) translate(227.249999, 72.275862)" fill="url(#linearGradient-4)">
                <g id="path-4-link">
                    <path d="M53.817736,46.391824 C53.849203,34.203786 22.031734,35.759281 9.75369,36.475083 C-2.524526,37.190976 -3.010374,20.474492 7.637918,18.391438 C18.28638,16.308292 37.379973,18.304621 47.383204,16.388267 C57.386605,14.471913 45.30095,1.7312601 58.8698,0.7586136 C72.438479,-0.214033 100.32932,2.2022356 108.670647,2.2138851 C121.772632,2.2321916 127.895579,18.235556 104.945643,18.091416 C98.616797,18.051659 96.824239,31.997672 118.3062,28.953344 C131.787149,27.042907 158.061576,27.971544 163.296111,34.33489 C166.29944,37.985921 164.857117,47.438252 159.269782,52.478354 C155.119127,56.222581 142.354893,56.504575 137.332072,57.21788 C125.548255,58.891165 127.437435,70.311071 131.341147,72.794093 C140.578582,78.669914 166.889434,69.219709 167.016254,84.408806 C167.072076,91.120807 143.447153,91.318849 133.779963,90.874686 C110.070046,89.785359 94.407485,91.314596 93.617063,83.183105 C92.823563,75.019808 108.454145,81.095336 108.047476,71.080959 C107.834907,65.847899 109.343925,54.801519 99.162157,55.002797 C113.102105,54.727276 53.775154,62.852943 53.817736,46.391824 Z" id="path-4"></path>
                </g>
            </g>
            <g id="tree" opacity="0.205803571" transform="translate(282.990504, 200.572383) rotate(-1.000000) translate(-282.990504, -200.572383) translate(262.490504, 149.072383)">
                <path d="M31.1648395,87.805415 C28.8875092,89.8200046 20.2268356,85.7908254 16.7930727,79.5368014 C13.3593097,73.2827774 19.7289458,71.0566696 11.0651096,61.0541772 C2.40127346,51.0516847 -3.15794357,47.2209413 2.09980504,30.7335986 C7.35755365,14.246256 0.0940223808,5.08335939 9.69139516,0.78189867 C19.2887679,-3.51956205 24.8158624,10.7565024 23.7149938,23.313744 C22.6141251,35.8709856 24.8657685,38.4734391 34.2532423,37.1722124 C43.6407161,35.8709856 35.7262045,54.3061318 35.7262045,58.3301737 C35.7262045,62.3542155 41.4184293,69.8283796 40.2375642,75.4516166 C39.0566991,81.0748536 33.4421697,85.7908254 31.1648395,87.805415 Z" id="leaves" fill="url(#linearGradient-5)" fill-rule="nonzero"></path>
                <path d="M25.6818706,70.2751349 C25.6818706,67.1865788 26.4622027,57.563429 30.707127,51.7028738" id="branch" stroke="url(#linearGradient-6)" stroke-width="1.93965517" stroke-linecap="round"></path>
                <path d="M6.1289247,52.2533096 C6.1289247,49.1647534 14.800553,46.9964216 19.0454773,41.1358665" id="branch" stroke="url(#linearGradient-7)" stroke-width="1.93965517" stroke-linecap="round" transform="translate(12.587201, 46.694588) scale(-1, 1) translate(-12.587201, -46.694588) "></path>
                <path d="M36.2793579,102.271628 C36.2793579,100.957561 34.0162483,95.0339591 31.8537032,88.1708273 C25.0817482,66.6791042 14.1657674,40.2143548 14.1657674,21.875367" id="stem" stroke="url(#linearGradient-8)" stroke-width="1.93965517" stroke-linecap="round"></path>
            </g>
            <g id="plant" transform="translate(123.462897, 196.357018) rotate(-7.000000) translate(-123.462897, -196.357018) translate(85.462897, 133.857018)">
                <path d="M18.4165049,124.111019 C18.4165049,107.947226 31.9279953,57.9254765 50.1659123,30.5547609" id="stem" stroke="url(#linearGradient-9)" stroke-width="1.93965517" stroke-linecap="round"></path>
                <path d="M34.3666061,40.1360417 C37.4916061,35.7457305 39.0541061,30.8427132 39.0541061,25.4269899 C39.0541061,17.303405 36.9554409,10.7179382 34.3666061,10.7179382 C31.7777714,10.7179382 29.6791061,17.303405 29.6791061,25.4269899 C29.6791061,30.8427132 31.2416061,35.7457305 34.3666061,40.1360417 Z" id="leaf" fill="url(#linearGradient-10)" fill-rule="nonzero" transform="translate(34.366606, 25.426990) rotate(-30.000000) translate(-34.366606, -25.426990) "></path>
                <path d="M61.092131,55.1441037 C64.217131,50.7537925 65.779631,45.8507753 65.779631,40.435052 C65.779631,32.311467 63.6809658,25.7260002 61.092131,25.7260002 C58.5032963,25.7260002 56.404631,32.311467 56.404631,40.435052 C56.404631,45.8507753 57.967131,50.7537925 61.092131,55.1441037 Z" id="leaf" fill="url(#linearGradient-10)" fill-rule="nonzero" transform="translate(61.092131, 40.435052) rotate(88.000000) translate(-61.092131, -40.435052) "></path>
                <path d="M52.3636832,76.4803106 C55.4886832,72.0899994 57.0511832,67.1869822 57.0511832,61.7712589 C57.0511832,53.6476739 54.9525179,47.0622071 52.3636832,47.0622071 C49.7748484,47.0622071 47.6761832,53.6476739 47.6761832,61.7712589 C47.6761832,67.1869822 49.2386832,72.0899994 52.3636832,76.4803106 Z" id="leaf" fill="url(#linearGradient-10)" fill-rule="nonzero" transform="translate(52.363683, 61.771259) rotate(91.000000) translate(-52.363683, -61.771259) "></path>
                <path d="M45.2508977,97.1708575 C48.3758977,92.7805463 49.9383977,87.8775291 49.9383977,82.4618058 C49.9383977,74.3382208 47.8397325,67.7527541 45.2508977,67.7527541 C42.6620629,67.7527541 40.5633977,74.3382208 40.5633977,82.4618058 C40.5633977,87.8775291 42.1258977,92.7805463 45.2508977,97.1708575 Z" id="leaf" fill="url(#linearGradient-11)" fill-rule="nonzero" transform="translate(45.250898, 82.461806) rotate(91.000000) translate(-45.250898, -82.461806) "></path>
                <path d="M59.7222492,29.8464234 C62.8472492,25.4561122 64.4097492,20.553095 64.4097492,15.1373717 C64.4097492,7.01378672 62.3110839,0.428319948 59.7222492,0.428319948 C57.1334144,0.428319948 55.0347492,7.01378672 55.0347492,15.1373717 C55.0347492,20.553095 56.5972492,25.4561122 59.7222492,29.8464234 Z" id="leaf" fill="url(#linearGradient-11)" fill-rule="nonzero" transform="translate(59.722249, 15.137372) rotate(33.000000) translate(-59.722249, -15.137372) "></path>
                <path d="M22.7370125,62.7074277 C25.8620125,58.3171165 27.4245125,53.4140993 27.4245125,47.998376 C27.4245125,39.874791 25.3258473,33.2893242 22.7370125,33.2893242 C20.1481778,33.2893242 18.0495125,39.874791 18.0495125,47.998376 C18.0495125,53.4140993 19.6120125,58.3171165 22.7370125,62.7074277 Z" id="leaf" fill="url(#linearGradient-10)" fill-rule="nonzero" transform="translate(22.737013, 47.998376) rotate(-41.000000) translate(-22.737013, -47.998376) "></path>
                <path d="M14.0085643,85.3367373 C17.1335643,80.9464262 18.6960643,76.0434089 18.6960643,70.6276856 C18.6960643,62.5041007 16.597399,55.9186339 14.0085643,55.9186339 C11.4197295,55.9186339 9.32106431,62.5041007 9.32106431,70.6276856 C9.32106431,76.0434089 10.8835643,80.9464262 14.0085643,85.3367373 Z" id="leaf" fill="url(#linearGradient-11)" fill-rule="nonzero" transform="translate(14.008564, 70.627686) rotate(-47.000000) translate(-14.008564, -70.627686) "></path>
            </g>
            <g id="plant" opacity="0.200000003" transform="translate(84.594669, 216.688567) rotate(-38.000000) translate(-84.594669, -216.688567) translate(53.594669, 166.188567)">
                <path d="M14.8899402,100.345079 C14.8899402,87.2764806 25.8141239,46.833364 40.5596738,24.7038492" id="stem" stroke="#A1B8E3" stroke-width="1.93965517" stroke-linecap="round"></path>
                <path d="M27.7857667,32.4504169 C30.3123624,28.9008037 31.5756603,24.9366621 31.5756603,20.5579922 C31.5756603,13.9899873 29.8788671,8.66556731 27.7857667,8.66556731 C25.6926662,8.66556731 23.9958731,13.9899873 23.9958731,20.5579922 C23.9958731,24.9366621 25.2591709,28.9008037 27.7857667,32.4504169 Z" id="leaf" fill="#A1B8E3" fill-rule="nonzero" transform="translate(27.785767, 20.557992) rotate(-30.000000) translate(-27.785767, -20.557992) "></path>
                <path d="M49.3936383,44.5845946 C51.920234,41.0349813 53.1835319,37.0708397 53.1835319,32.6921698 C53.1835319,26.1241649 51.4867387,20.799745 49.3936383,20.799745 C47.3005378,20.799745 45.6037446,26.1241649 45.6037446,32.6921698 C45.6037446,37.0708397 46.8670425,41.0349813 49.3936383,44.5845946 Z" id="leaf" fill="#A1B8E3" fill-rule="nonzero" transform="translate(49.393638, 32.692170) rotate(88.000000) translate(-49.393638, -32.692170) "></path>
                <path d="M42.3365951,61.8351444 C44.8631908,58.2855311 46.1264887,54.3213895 46.1264887,49.9427196 C46.1264887,43.3747148 44.4296955,38.0502948 42.3365951,38.0502948 C40.2434946,38.0502948 38.5467015,43.3747148 38.5467015,49.9427196 C38.5467015,54.3213895 39.8099993,58.2855311 42.3365951,61.8351444 Z" id="leaf" fill="#A1B8E3" fill-rule="nonzero" transform="translate(42.336595, 49.942720) rotate(91.000000) translate(-42.336595, -49.942720) "></path>
                <path d="M36.5858324,78.5636731 C39.1124281,75.0140598 40.375726,71.0499182 40.375726,66.6712483 C40.375726,60.1032435 38.6789328,54.7788235 36.5858324,54.7788235 C34.4927319,54.7788235 32.7959387,60.1032435 32.7959387,66.6712483 C32.7959387,71.0499182 34.0592366,75.0140598 36.5858324,78.5636731 Z" id="leaf" fill="#A1B8E3" fill-rule="nonzero" transform="translate(36.585832, 66.671248) rotate(91.000000) translate(-36.585832, -66.671248) "></path>
                <path d="M48.2860737,24.1311506 C50.8126695,20.5815373 52.0759674,16.6173957 52.0759674,12.2387258 C52.0759674,5.67072094 50.3791742,0.346300992 48.2860737,0.346300992 C46.1929733,0.346300992 44.4961801,5.67072094 44.4961801,12.2387258 C44.4961801,16.6173957 45.759478,20.5815373 48.2860737,24.1311506 Z" id="leaf" fill="#A1B8E3" fill-rule="nonzero" transform="translate(48.286074, 12.238726) rotate(33.000000) translate(-48.286074, -12.238726) "></path>
                <path d="M18.383117,50.6996222 C20.9097127,47.150009 22.1730106,43.1858674 22.1730106,38.8071974 C22.1730106,32.2391926 20.4762174,26.9147726 18.383117,26.9147726 C16.2900165,26.9147726 14.5932234,32.2391926 14.5932234,38.8071974 C14.5932234,43.1858674 15.8565212,47.150009 18.383117,50.6996222 Z" id="leaf" fill="#A1B8E3" fill-rule="nonzero" transform="translate(18.383117, 38.807197) rotate(-41.000000) translate(-18.383117, -38.807197) "></path>
                <path d="M11.3260736,68.9956599 C13.8526693,65.4460466 15.1159672,61.481905 15.1159672,57.1032351 C15.1159672,50.5352302 13.419174,45.2108103 11.3260736,45.2108103 C9.23297319,45.2108103 7.53618002,50.5352302 7.53618002,57.1032351 C7.53618002,61.481905 8.79947789,65.4460466 11.3260736,68.9956599 Z" id="leaf" fill="#A1B8E3" fill-rule="nonzero" transform="translate(11.326074, 57.103235) rotate(-47.000000) translate(-11.326074, -57.103235) "></path>
            </g>
            <path d="M0.064655,270.628321 C24.5343328,261.341473 86.8666359,239.25 141.68024,239.25 C196.493844,239.25 264.441861,275.008071 308.291049,279.065905 C337.523841,281.771127 389.738606,284.060542 464.935345,285.934148 L464.935345,340.435345 L0.064655,340.435345 C0.064655,317.628738 0.064655,294.35973 0.064655,270.628321 Z" id="ground" fill="url(#linearGradient-12)" fill-rule="nonzero" transform="translate(232.500000, 289.842672) scale(-1, 1) translate(-232.500000, -289.842672) "></path>
            <path d="M0.064655,270.628321 C24.5343328,261.341473 86.8666359,239.25 141.68024,239.25 C196.493844,239.25 264.441861,275.008071 308.291049,279.065905 C337.523841,281.771127 389.738606,284.060542 464.935345,285.934148 L464.935345,340.435345 L0.064655,340.435345 C0.064655,317.628738 0.064655,294.35973 0.064655,270.628321 Z" id="ground" fill="url(#linearGradient-13)" fill-rule="nonzero"></path>
            <ellipse id="shadow" fill="#8699BF" fill-rule="nonzero" opacity="0.200000003" cx="328.028017" cy="262.525862" rx="28.6099138" ry="1.61637931"></ellipse>
            <g id="tree" opacity="0.821875" transform="translate(326.488052, 184.746246) rotate(18.000000) translate(-326.488052, -184.746246) translate(296.488052, 109.746246)">
                <path d="M45.625325,128.547128 C42.2913135,131.496487 29.6120874,125.597768 24.5850584,116.441877 C19.5580294,107.285986 28.8831767,104.026964 16.1993205,89.3833154 C3.51546434,74.7396664 -4.62322939,69.131458 3.07411458,44.9939884 C10.7714585,20.8565188 0.137648765,7.44203815 14.1882025,1.14469965 C28.2387563,-5.15263884 36.3304226,15.7475196 34.7187509,34.1313213 C33.1070792,52.515123 36.403485,56.3251148 50.1467467,54.4201189 C63.8900084,52.515123 52.3031634,79.504177 52.3031634,85.3953742 C52.3031634,91.2865715 60.6365805,102.228748 58.907794,110.461167 C57.1790075,118.693586 48.9593365,125.597768 45.625325,128.547128 Z" id="leaves" fill="url(#linearGradient-14)" fill-rule="nonzero"></path>
                <path d="M37.5982585,102.882798 C37.5982585,98.3611513 38.7406647,84.2728601 44.9552339,75.6930073" id="branch" stroke="url(#linearGradient-15)" stroke-width="1.93965517" stroke-linecap="round"></path>
                <path d="M8.9727453,76.4988452 C8.9727453,71.977199 21.6680092,68.8027613 27.8825783,60.2229085" id="branch" stroke="url(#linearGradient-16)" stroke-width="1.93965517" stroke-linecap="round" transform="translate(18.427662, 68.360877) scale(-1, 1) translate(-18.427662, -68.360877) "></path>
                <path d="M53.1129799,149.725664 C53.1129799,147.801869 49.7997874,139.129716 46.6338215,129.082091 C36.7196794,97.6182085 20.7386835,58.8738155 20.7386835,32.0255373" id="stem" stroke="url(#linearGradient-17)" stroke-width="1.93965517" stroke-linecap="round"></path>
            </g>
            <path d="M153.966597,304.832017 L281.651576,317.415147 L281.651576,317.415147 C280.605056,320.276705 277.832803,322.137073 274.788095,322.021006 L153.966597,317.415147" id="shadow" fill="url(#linearGradient-18)" fill-rule="nonzero" opacity="0.5"></path>
            <polyline id="shadow" fill="url(#linearGradient-19)" fill-rule="nonzero" opacity="0.5" points="105.475218 321.320041 227.525234 326.318524 227.525234 333.208057 105.151942 336.46475"></polyline>
            <g id="person" transform="translate(154.913793, 89.250000)">
                <polygon id="ankle" fill="url(#linearGradient-20)" fill-rule="nonzero" points="64.3318966 231.634703 64.3318966 225.969828 73.3836207 225.969828 73.3836207 232.911339 67.317133 233.728448"></polygon>
                <polygon id="ankle" fill="url(#linearGradient-21)" fill-rule="nonzero" points="112.72615 212.715517 107.974138 208.974178 113.93917 201.077586 118.318966 206.325011"></polygon>
                <path d="M92.0957424,143.211207 C93.5069595,160.121264 94.7127987,169.831279 95.71326,172.34125 C96.7137212,174.851222 103.279129,184.468949 115.409483,201.194431 C114.783322,203.173306 113.820645,204.884903 112.521449,206.329222 C110.689102,208.366247 108.784964,209.542619 107.317592,210.452586 C104.940939,208.560847 96.0042917,199.678654 80.5076499,183.806008 C79.1985995,175.124472 79.1985995,168.406519 80.5076499,163.652149 C81.8167003,158.89778 85.6793978,152.084132 92.0957424,143.211207 Z" id="leg" fill="#F46885" fill-rule="nonzero"></path>
                <g id="leg" transform="translate(56.250000, 113.469828)">
                    <g id="Mask" fill="#F46885" fill-rule="nonzero">
                        <path d="M0.205824349,7.02111238 C0.205824349,8.51131443 2.47908298,14.9707927 3.18276246,22.8603946 C3.67825765,28.4158498 2.58057825,34.6803971 2.90948276,40.4183938 C3.44014913,49.6762843 4.92577811,74.2303458 7.36636969,114.080578 C9.03058615,115.295848 10.8008009,116.043123 12.6770139,116.322401 C14.5532269,116.60168 17.028028,116.338398 20.1014173,115.532558 C23.6348777,88.2886454 26.2554693,71.3378767 27.9631921,64.6802515 C29.196389,59.8725841 28.1396611,49.3860509 32.6684816,41.4095412 C33.9822127,39.095696 35.1393762,36.4944839 36.1399721,33.6059047 L36.1399718,33.6059046 C38.5788118,26.5653173 38.5107062,18.8984017 35.947177,11.9022507 L31.6017732,0.0431692652 C10.6711406,3.00211381 0.205824349,5.32809485 0.205824349,7.02111238 Z" id="path-19"></path>
                    </g>
                    <g id="Path-98-Clipped">
                        <mask id="mask-23" fill="white">
                            <use xlink:href="#path-22"></use>
                        </mask>
                        <g id="path-19"></g>
                        <path d="M1.95698247,8.5810942 C7.10825617,10.1321394 26.3526471,11.0990519 34.8183753,5.72230509 C40.4621941,2.13780723 33.4865109,0.928991778 13.8913259,2.09585874 C2.50091447,5.38531895 -1.4772,7.5470641 1.95698247,8.5810942 Z" id="Path-98" fill="url(#linearGradient-24)" fill-rule="nonzero" opacity="0.5" style="mix-blend-mode: multiply;" mask="url(#mask-23)"></path>
                    </g>
                    <g id="Path-3-Clipped">
                        <mask id="mask-26" fill="white">
                            <use xlink:href="#path-25"></use>
                        </mask>
                        <g id="path-19"></g>
                        <path d="M20.7547749,28.1086237 C18.8848431,27.6646759 17.1649815,27.4914889 15.6290673,25.8942284 C14.4450769,24.6629481 13.2817564,22.6568206 13.2817564,20.0230779 C13.2817564,15.9895265 13.900635,13.0574294 15.1383922,11.2267867" id="Path-3" fill="url(#linearGradient-27)" fill-rule="nonzero" opacity="0.5" style="mix-blend-mode: multiply;" mask="url(#mask-26)"></path>
                    </g>
                </g>
                <path d="M98.6050427,225.956357 C98.0167978,222.143319 97.7226754,219.255614 97.7226754,217.293243 C97.7226754,215.330871 97.7226754,213.568214 97.7226754,212.005271 C99.197585,213.088679 100.664242,213.645918 102.122648,213.676988 C104.050219,213.718054 104.634194,213.676988 107.099235,212.005271 C110.760915,213.653893 116.40593,218.481809 123.427048,221.35775 C124.531308,222.229488 125.000682,223.363897 124.835169,224.760976 L124.8352,224.76098 C124.758411,225.40915 124.210629,225.898484 123.557935,225.901962 L113.348789,225.956357 L105.81879,222.487806 L105.077251,225.956357 L98.6050427,225.956357 Z" id="shoe" fill="url(#radialGradient-28)" fill-rule="nonzero" transform="translate(111.295103, 218.980814) scale(-1, 1) rotate(40.000000) translate(-111.295103, -218.980814) "></path>
                <path d="M46.1409887,244.446776 C45.5527438,240.633738 45.2586214,237.746033 45.2586214,235.783661 C45.2586214,233.82129 45.2586214,232.058633 45.2586214,230.49569 C46.7335309,231.579098 48.2001884,232.136337 49.6585938,232.167407 C51.5861657,232.208472 52.17014,232.167407 54.6351815,230.49569 C58.2968614,232.144312 66.6857795,237.286879 73.7068973,240.16282 C73.7068973,241.119589 73.4431529,242.350135 72.9156641,243.854457 L72.9156734,243.85446 C72.7299576,244.384095 72.2237938,244.73346 71.6627215,244.719274 L60.8847353,244.446776 L53.3547361,240.978225 L52.613197,244.446776 L46.1409887,244.446776 Z" id="shoe" fill="url(#radialGradient-29)" fill-rule="nonzero" transform="translate(59.482759, 237.607690) scale(-1, 1) translate(-59.482759, -237.607690) "></path>
                <g id="face" transform="translate(35.560345, 13.254310)">
                    <g id="Mask" fill="url(#linearGradient-31)" fill-rule="nonzero">
                        <path d="M0.28382364,10.171013 C0.617398438,11.2148284 3.59116625,14.0073234 4.31607688,17.1361096 C4.74719438,18.9968554 4.4223986,20.8622046 4.4223986,22.299068 C4.4223986,26.1519723 5.69705834,26.0051578 8.4072222,25.4220786 C10.9449357,26.9249806 11.3861951,30.2921517 14.2206084,32.043651 C17.0550218,33.7951503 21.9512093,27.4593934 23.5664853,29.2646544 C24.0940113,29.8542267 24.396855,30.9814913 25.4538696,32.043651 C26.1876653,32.7810184 26.3546554,34.7443378 25.9548401,37.9336093 C32.3558803,36.9951256 35.9207402,34.8162889 36.64942,31.3970993 C35.4690881,29.0178413 32.7363793,21.6250827 32.7363793,19.6080087 C32.7363793,17.5909347 37.2512514,9.89654542 24.9471003,2.43054222 C12.6429491,-5.03546098 -0.248134141,8.5064217 0.28382364,10.171013 Z" id="path-25"></path>
                    </g>
                    <g id="Path-95-Clipped">
                        <mask id="mask-33" fill="white">
                            <use xlink:href="#path-32"></use>
                        </mask>
                        <g id="path-25"></g>
                        <path d="M20.4474747,29.98974 C22.3607375,28.5356432 24.9200613,23.6968597 24.9200613,23.3236797 C24.9200613,23.0748931 25.3684662,27.0040061 26.2652761,35.1110189 C21.1112333,32.6662309 19.1719662,30.9591379 20.4474747,29.98974 Z" id="Path-95" fill="#3D82F0" fill-rule="nonzero" opacity="0.5" style="mix-blend-mode: multiply;" mask="url(#mask-33)"></path>
                    </g>
                    <g id="Path-5-Clipped">
                        <mask id="mask-35" fill="white">
                            <use xlink:href="#path-34"></use>
                        </mask>
                        <g id="path-25"></g>
                        <path d="M8.83754133,28.4289084 C9.33005978,27.2934779 10.1738773,26.6211631 11.5416455,26.227244" id="Path-5" stroke="#223762" stroke-width="0.646551724" stroke-linecap="round" mask="url(#mask-35)"></path>
                    </g>
                </g>
                <path d="M17.07673,81.076933 C14.5859565,78.8805458 11.5029259,78.1278113 9.56758797,75.1279653 C7.63225003,72.1281193 2.0107046,62.04641 3.47250769,60.7434769 C4.93431078,59.4405438 8.59384401,55.9267241 9.97397499,55.9267241 C11.354106,55.9267241 13.891538,61.2554506 15.1533049,63.6798261 C16.4150718,66.1042017 18.5400222,71.2714364 18.5400222,73.4043269 C18.5400222,75.5372174 19.5675035,83.2733203 17.07673,81.076933 Z" id="palm" fill="url(#linearGradient-36)" fill-rule="nonzero"></path>
                <g id="phone" transform="translate(0.000000, 48.491379)" fill-rule="nonzero">
                    <path d="M1.02572869,4.2259203 L6.59870794,0.666201024 C7.651963,-0.00656163059 9.05117681,0.301888403 9.72393946,1.35514346 C9.74520141,1.38843047 9.76558821,1.42226844 9.78507891,1.4566226 L18.779247,17.3096788 C19.2912459,18.2121243 19.0023857,19.3576861 18.1236965,19.9094613 L12.128874,23.6739263 C11.2216686,24.2436084 10.0244147,23.9699917 9.45473258,23.0627862 C9.43700545,23.0345562 9.42000899,23.0058739 9.40376015,22.9767678 L0.37623943,6.80604851 C-0.124187843,5.90964858 0.160539059,4.77855688 1.02572869,4.2259203 Z" id="Rectangle-18" fill="#223762"></path>
                    <path d="M2.22600795,4.0794598 L8.0781597,0.544615841 C8.53663484,0.26768555 9.13279873,0.41485673 9.40972902,0.873331871 C9.41436146,0.881001151 9.41888739,0.888734258 9.42330552,0.896528965 L18.2553588,16.4785284 C18.5159988,16.938364 18.360423,17.5222291 17.9055316,17.7914053 L11.9028784,21.3433999 C11.4419154,21.616169 10.847108,21.4636076 10.574339,21.0026446 C10.5699809,20.9952798 10.5657205,20.9878575 10.5615589,20.9803799 L1.88000718,5.38122978 C1.62605351,4.92492179 1.77900716,4.3494593 2.22600795,4.0794598 Z" id="Rectangle-18-Copy" fill="url(#linearGradient-37)"></path>
                </g>
                <g id="arm" transform="translate(13.900862, 57.543103)">
                    <g id="Mask" fill="url(#linearGradient-39)" fill-rule="nonzero">
                        <path d="M34.659356,24.4974346 C27.2456533,33.8320216 23.3539692,38.4993151 22.9843035,38.4993151 C22.4298051,38.4993151 9.65871599,20.3002165 9.65871599,19.4692632 C9.65871599,18.6383099 10.5696059,15.3798351 8.04233668,11.9038924 C5.51506751,8.42794974 3.97207667,2.33959228 2.64223366,1.2556193 C1.31239065,0.171646306 1.30285773,-0.30088037 0.634361376,0.285791709 C-0.0341349746,0.872463788 0.0091603921,1.37492837 0.634361376,2.65512072 C1.25956236,3.93531308 2.64223366,7.61462484 2.64223366,8.56156204 C2.64223366,9.50849923 2.00273329,12.881963 2.64223366,14.1665246 C3.28173403,15.4510862 2.67058658,20.4491192 3.46459978,22.9956018 C4.25861297,25.5420843 18.6550657,51.3764541 22.879343,50.8215585 C25.6955279,50.451628 32.0776886,45.1588688 42.0258252,34.9432806 C43.5665174,30.4409963 43.0725593,27.3479115 40.543951,25.6640263 C38.0153427,23.9801411 36.053811,23.5912772 34.659356,24.4974346 Z" id="path-29"></path>
                    </g>
                    <g id="Path-96-Clipped">
                        <mask id="mask-41" fill="white">
                            <use xlink:href="#path-40"></use>
                        </mask>
                        <g id="path-29"></g>
                        <path d="M31.6897474,25.3832136 C33.9596367,28.1982274 36.0536924,30.5820275 37.9719146,32.5346138 C39.6124327,36.7718595 38.3586632,39.9090863 39.6124327,39.4715518 C40.8662021,39.0340174 43.2689221,27.2111202 42.0675621,25.3832136 C41.5606678,24.6119582 37.8946111,21.5012898 35.0945814,22.0068215 C34.0118528,22.2023028 32.8769081,23.3277668 31.6897474,25.3832136 Z" id="Path-96" fill="#3D82F0" fill-rule="nonzero" opacity="0.5" style="mix-blend-mode: multiply;" mask="url(#mask-41)"></path>
                    </g>
                    <g id="Path-6-Clipped">
                        <mask id="mask-43" fill="white">
                            <use xlink:href="#path-42"></use>
                        </mask>
                        <g id="path-29"></g>
                        <path d="M23.0561986,38.1169878 C23.4457761,38.453193 24.0200834,39.7042033 24.4916196,40.724105" id="Path-6" stroke="#739AE5" stroke-width="0.646551724" stroke-linecap="round" mask="url(#mask-43)"></path>
                    </g>
                </g>
                <path d="M53.4977253,87.6077586 C48.5618767,84.0493844 42.8404858,77.5114514 45.7011813,74.6180991 C48.5618767,71.7247467 59.369906,57.586874 61.6015931,54.6283235 C63.8332802,51.6697729 66.7198254,70.2172189 63.6307913,74.6180991 C60.5417571,79.0189792 57.7090654,83.9595558 53.4977253,87.6077586 Z" id="sleeve" fill="url(#linearGradient-44)" fill-rule="nonzero"></path>
                <path d="M55.1415311,119.253491 C54.4949794,114.645053 58.4385249,100.681135 54.8280821,92.3815433 C53.2731486,88.8071029 50.913188,85.9202927 50.7565599,81.922863 C50.5400688,76.3976233 53.0613145,69.9279105 54.4949794,67.1806501 C60.002002,56.6278178 59.8740016,50.762788 61.4682919,49.0923014 C63.7732818,49.0923014 69.9599028,47.3468648 72.2328143,43.9655172 C74.7822862,45.3911023 83.6168852,55.5471732 86.293067,61.201017 C88.9692487,66.8548607 88.1164552,84.2532996 88.1164552,94.6713106 C88.1164552,105.089322 89.5474138,111.942859 89.5474138,114.645053 C89.5474138,117.347247 56.0822253,125.958493 55.1415311,119.253491 Z" id="shirt" fill="url(#linearGradient-45)" fill-rule="nonzero"></path>
                <path d="M71.8729481,120.592299 C73.790392,115.288346 74.749114,111.584064 74.749114,109.479456 C74.749114,106.322544 70.4348652,83.163926 71.8729481,80.5797365 C72.8316701,78.8569436 76.4320519,86.7352423 82.6740936,104.214633 C80.0186151,111.559925 78.2497498,116.086041 77.3674979,117.79298 C76.4852459,119.499919 74.6537294,120.433026 71.8729481,120.592299 Z" id="hadow" fill="url(#linearGradient-46)" fill-rule="nonzero" style="mix-blend-mode: multiply;"></path>
                <path d="M48.0324903,21.4058648 C39.379642,16.6487069 36.6379388,25.3109407 35.3728041,24.2101516 C32.0315413,19.9988223 33.7959915,15.210972 35.3728041,11.2109721 C38.0246858,4.48377649 54.2418995,-6.61654628 67.0246694,5.24459346 C75.546516,13.1520199 76.2935601,23.9038221 69.2658017,37.5 C67.1200398,36.6960723 65.774899,35.1938235 65.2303795,32.9932537 C64.6858599,30.7926839 61.8911574,29.1893902 56.8462721,28.1833726 C58.2602566,26.0109294 58.2602566,24.2655128 56.8462721,22.9471227 C54.7252952,20.9695375 53.8051093,21.6107853 53.1513253,22.2704964 C52.7011978,22.4861063 52.4506051,23.5636925 52.3995471,25.503255 C50.6026274,23.3480826 49.1469418,21.9822859 48.0324903,21.4058648 Z" id="hair" fill="url(#radialGradient-47)" fill-rule="nonzero"></path>
                <g id="hair" transform="translate(68.211207, 27.155172)">
                    <g id="Mask" fill="#223762" fill-rule="nonzero">
                        <path d="M3.51469799,0.384972666 C3.51469799,1.40419405 5.78191985,4.46689553 9.84285382,4.46689553 C13.9037878,4.46689553 26.0580447,1.30722529 30.0870756,11.1841857 C34.1161064,21.0611461 28.5544655,21.5258406 35.1176971,28.6599705 C41.6809287,35.7941004 41.9315362,55.1085135 25.887195,50.4896943 C9.84285382,45.8708752 12.3715975,24.8760901 12.3715975,19.2745703 C12.3715975,13.6730505 6.3416994,11.6708453 0.930758866,10.4077328 C-2.01801678,4.46689553 3.51469799,-0.634248717 3.51469799,0.384972666 Z" id="path-35"></path>
                    </g>
                    <g id="Path-2-Clipped">
                        <mask id="mask-49" fill="white">
                            <use xlink:href="#path-48"></use>
                        </mask>
                        <g id="path-35"></g>
                        <path d="M1.17809043,9.94636303 C5.50051302,8.74830299 14.9509764,8.80241546 17.7243666,14.154492 C20.4977567,19.5065685 25.0841672,43.6700588 14.876635,44.7088158 C4.66910285,45.7475727 -3.14433215,11.1444231 1.17809043,9.94636303 Z" id="Path-2" fill="#223762" fill-rule="nonzero" opacity="0.300000012" style="mix-blend-mode: multiply;" mask="url(#mask-49)"></path>
                    </g>
                    <g id="Path-93-Clipped">
                        <mask id="mask-51" fill="white">
                            <use xlink:href="#path-50"></use>
                        </mask>
                        <g id="path-35"></g>
                        <path d="M1.73504096,10.8294021 C1.73504096,8.46993203 1.85463775,4.41890263 5.625683,2.43875702" id="Path-93" stroke="#D6E3FA" stroke-width="1.93965517" stroke-linecap="round" stroke-linejoin="round" mask="url(#mask-51)"></path>
                    </g>
                </g>
                <g id="arm" transform="translate(69.504310, 70.150862)">
                    <g id="Mask" fill="url(#linearGradient-53)" fill-rule="nonzero">
                        <path d="M7.50595009,38.8352265 C6.50732,34.5621865 0.726954664,11.7113077 2.04739763,5.98000797 C3.36784059,0.248708271 13.5309221,-2.5343237 14.5937704,4.24395018 C15.2672573,8.53908666 16.7149588,20.21349 18.936875,39.2671601 L18.9368743,39.2671602 C19.1682531,41.2513109 18.8378956,43.2605656 17.9834111,45.066181 L9.2221417,63.5796622 L5.50703378,70.8930548 C3.20060968,70.508355 1.50998808,68.8407571 0.435168981,65.8902609 C-0.0906147188,64.4469271 0.234957068,62.7731238 0.986593912,61.0443076 C4.21864051,53.6103792 8.3161598,42.3020342 7.50595009,38.8352265 Z" id="path-37"></path>
                    </g>
                    <g id="Path-94-Clipped">
                        <mask id="mask-55" fill="white">
                            <use xlink:href="#path-54"></use>
                        </mask>
                        <g id="path-37"></g>
                        <path d="M2.71223637,13.5890584 C6.64507693,14.4816217 13.6701429,14.9307893 16.7413791,13.5890584 C18.78887,12.6945711 18.4652874,10.862219 15.7706313,8.09200201 C4.44314098,11.1616641 0.090342671,12.9940162 2.71223637,13.5890584 Z" id="Path-94" fill="#3D82F0" fill-rule="nonzero" opacity="0.5" style="mix-blend-mode: multiply;" mask="url(#mask-55)"></path>
                    </g>
                </g>
                <path d="M69.2570073,81.6012176 C67.5386754,76.5641609 64.3387755,56.067585 73.068906,53.8144484 C81.7990365,51.5613118 86.9612069,75.2914296 86.9612069,77.52661 C86.9612069,79.7617905 70.9753392,86.6382743 69.2570073,81.6012176 Z" id="sleeve" fill="url(#linearGradient-56)" fill-rule="nonzero"></path>
                <path d="M58.3025278,69.5104012 L63.1516657,70.0788261 C63.6402616,70.1361003 64.0085814,70.5501171 64.0085814,71.0420584 L64.0085814,82.0812288 C64.0085814,82.5295302 63.7013199,82.9194089 63.2654363,83.0241925 L60.4436729,83.7025264 C60.1620282,83.770232 59.8648631,83.7084988 59.6334887,83.5342182 L57.6061141,82.007118 C57.36285,81.8238817 57.2197883,81.5370162 57.2197883,81.2324625 L57.2197883,70.4736334 C57.2197883,69.9380125 57.6539949,69.5038059 58.1896159,69.5038059 C58.2273494,69.5038059 58.2650508,69.506008 58.3025278,69.5104012 Z" id="pocket" fill="url(#linearGradient-57)" fill-rule="nonzero" transform="translate(60.614185, 76.616602) rotate(10.000000) translate(-60.614185, -76.616602) "></path>
            </g>
        </g>
    </g>
</svg>