<?xml version="1.0" encoding="UTF-8"?>
<svg width="452px" height="311px" viewBox="0 0 452 311" version="1.1" xmlns="http://www.w3.org/2000/svg" xmlns:xlink="http://www.w3.org/1999/xlink">
    <!-- Generator: Sketch 55.2 (78181) - https://sketchapp.com -->
    <title>2</title>
    <desc>Created with Sketch.</desc>
    <defs>
        <linearGradient x1="35.9218931%" y1="59.9631169%" x2="53.3233655%" y2="36.3385519%" id="linearGradient-1">
            <stop stop-color="#ECF1FF" offset="0%"></stop>
            <stop stop-color="#FFFFFF" offset="100%"></stop>
        </linearGradient>
        <linearGradient x1="35.9218931%" y1="76.1029865%" x2="53.3233655%" y2="14.2075267%" id="linearGradient-2">
            <stop stop-color="#ECF1FF" offset="0%"></stop>
            <stop stop-color="#FFFFFF" offset="100%"></stop>
        </linearGradient>
        <linearGradient x1="35.9218931%" y1="60.6796493%" x2="53.3233655%" y2="35.3560411%" id="linearGradient-3">
            <stop stop-color="#ECF1FF" offset="0%"></stop>
            <stop stop-color="#FFFFFF" offset="100%"></stop>
        </linearGradient>
        <linearGradient x1="35.9218931%" y1="76.1029865%" x2="53.3233655%" y2="14.2075267%" id="linearGradient-4">
            <stop stop-color="#ECF1FF" offset="0%"></stop>
            <stop stop-color="#FFFFFF" offset="100%"></stop>
        </linearGradient>
        <linearGradient x1="12.0299736%" y1="-14.0587638%" x2="20.148299%" y2="104.797003%" id="linearGradient-5">
            <stop stop-color="#FFFFFF" offset="0%"></stop>
            <stop stop-color="#D6E3FA" offset="100%"></stop>
        </linearGradient>
        <linearGradient x1="50%" y1="0%" x2="50%" y2="100%" id="linearGradient-6">
            <stop stop-color="#CFDDF3" offset="0%"></stop>
            <stop stop-color="#A1B8E3" offset="100%"></stop>
        </linearGradient>
        <linearGradient x1="227.604499%" y1="-30.2653238%" x2="50%" y2="100%" id="linearGradient-7">
            <stop stop-color="#CFDDF3" offset="0%"></stop>
            <stop stop-color="#A1B8E3" offset="100%"></stop>
        </linearGradient>
        <linearGradient x1="227.604499%" y1="-30.2653238%" x2="50%" y2="100%" id="linearGradient-8">
            <stop stop-color="#CFDDF3" offset="0%"></stop>
            <stop stop-color="#A1B8E3" offset="100%"></stop>
        </linearGradient>
        <linearGradient x1="31.669258%" y1="-9.21335019%" x2="111.326431%" y2="74.9736608%" id="linearGradient-9">
            <stop stop-color="#CFDDF3" offset="0%"></stop>
            <stop stop-color="#7FA1E0" offset="100%"></stop>
        </linearGradient>
        <linearGradient x1="50%" y1="0%" x2="50%" y2="100%" id="linearGradient-10">
            <stop stop-color="#CFDDF3" offset="0%"></stop>
            <stop stop-color="#A1B8E3" offset="100%"></stop>
        </linearGradient>
        <linearGradient x1="50%" y1="0%" x2="50%" y2="100%" id="linearGradient-11">
            <stop stop-color="#CFDDF3" offset="0%"></stop>
            <stop stop-color="#A1B8E3" offset="100%"></stop>
        </linearGradient>
        <linearGradient x1="50%" y1="0%" x2="50%" y2="100%" id="linearGradient-12">
            <stop stop-color="#CFDDF3" offset="0%"></stop>
            <stop stop-color="#A1B8E3" offset="100%"></stop>
        </linearGradient>
        <linearGradient x1="50.7450365%" y1="74.7806469%" x2="50%" y2="-62.7132711%" id="linearGradient-13">
            <stop stop-color="#FFFFFF" offset="0%"></stop>
            <stop stop-color="#D6E3FA" offset="100%"></stop>
        </linearGradient>
        <linearGradient x1="50%" y1="0%" x2="50%" y2="100%" id="linearGradient-14">
            <stop stop-color="#CFDDF3" offset="0%"></stop>
            <stop stop-color="#A1B8E3" offset="100%"></stop>
        </linearGradient>
        <linearGradient x1="227.604499%" y1="-30.2653238%" x2="50%" y2="100%" id="linearGradient-15">
            <stop stop-color="#CFDDF3" offset="0%"></stop>
            <stop stop-color="#A1B8E3" offset="100%"></stop>
        </linearGradient>
        <linearGradient x1="227.604499%" y1="-30.2653238%" x2="50%" y2="100%" id="linearGradient-16">
            <stop stop-color="#CFDDF3" offset="0%"></stop>
            <stop stop-color="#A1B8E3" offset="100%"></stop>
        </linearGradient>
        <linearGradient x1="50%" y1="-13.7050775%" x2="100%" y2="91.3638256%" id="linearGradient-17">
            <stop stop-color="#EDF3FD" stop-opacity="0" offset="0%"></stop>
            <stop stop-color="#D6E3FA" offset="100%"></stop>
        </linearGradient>
        <linearGradient x1="31.669258%" y1="-9.21335019%" x2="100%" y2="50%" id="linearGradient-18">
            <stop stop-color="#CFDDF3" offset="0%"></stop>
            <stop stop-color="#A1B8E3" offset="100%"></stop>
        </linearGradient>
        <linearGradient x1="50%" y1="0%" x2="50%" y2="100%" id="linearGradient-19">
            <stop stop-color="#CFDDF3" offset="0%"></stop>
            <stop stop-color="#A1B8E3" offset="100%"></stop>
        </linearGradient>
        <linearGradient x1="50%" y1="0%" x2="50%" y2="100%" id="linearGradient-20">
            <stop stop-color="#CFDDF3" offset="0%"></stop>
            <stop stop-color="#A1B8E3" offset="100%"></stop>
        </linearGradient>
        <linearGradient x1="50%" y1="0%" x2="50%" y2="100%" id="linearGradient-21">
            <stop stop-color="#CFDDF3" offset="0%"></stop>
            <stop stop-color="#A1B8E3" offset="100%"></stop>
        </linearGradient>
        <linearGradient x1="50%" y1="0%" x2="50%" y2="100%" id="linearGradient-22">
            <stop stop-color="#CFDDF3" offset="0%"></stop>
            <stop stop-color="#A1B8E3" offset="100%"></stop>
        </linearGradient>
        <linearGradient x1="50%" y1="0%" x2="50%" y2="100%" id="linearGradient-23">
            <stop stop-color="#CFDDF3" offset="0%"></stop>
            <stop stop-color="#A1B8E3" offset="100%"></stop>
        </linearGradient>
        <linearGradient x1="62.5723088%" y1="6.85063844%" x2="60.1290094%" y2="78.9477907%" id="linearGradient-24">
            <stop stop-color="#D0DCF1" offset="0%"></stop>
            <stop stop-color="#FFFFFF" offset="100%"></stop>
        </linearGradient>
        <linearGradient x1="154.2902%" y1="35.5906696%" x2="57.6239868%" y2="78.8475359%" id="linearGradient-25">
            <stop stop-color="#47689B" offset="0%"></stop>
            <stop stop-color="#223762" offset="100%"></stop>
        </linearGradient>
        <linearGradient x1="104.045238%" y1="16.8405933%" x2="6.07416571%" y2="100%" id="linearGradient-26">
            <stop stop-color="#47689B" offset="0%"></stop>
            <stop stop-color="#223762" offset="100%"></stop>
        </linearGradient>
        <linearGradient x1="15.7963008%" y1="121.63627%" x2="148.737665%" y2="121.636271%" id="linearGradient-27">
            <stop stop-color="#365383" offset="0%"></stop>
            <stop stop-color="#1C2C4C" offset="100%"></stop>
        </linearGradient>
        <linearGradient x1="15.7963008%" y1="121.63627%" x2="88.7370862%" y2="18.4978525%" id="linearGradient-28">
            <stop stop-color="#365383" offset="0%"></stop>
            <stop stop-color="#1C2C4C" offset="100%"></stop>
        </linearGradient>
        <rect id="path-29" x="0" y="0" width="108.333333" height="155.208333" rx="3.125"></rect>
        <linearGradient x1="55.1148219%" y1="227.006388%" x2="23.1723395%" y2="81.0265899%" id="linearGradient-31">
            <stop stop-color="#EDF3FD" offset="0%"></stop>
            <stop stop-color="#D6E3FA" offset="100%"></stop>
        </linearGradient>
        <rect id="path-32" x="0" y="0" width="108.333333" height="155.208333" rx="3.125"></rect>
        <rect id="path-34" x="0" y="0" width="108.333333" height="155.208333" rx="3.125"></rect>
        <linearGradient x1="92.0924801%" y1="16.0556086%" x2="-46.0292161%" y2="16.0556093%" id="linearGradient-36">
            <stop stop-color="#D0DCF1" offset="0%"></stop>
            <stop stop-color="#FFFFFF" stop-opacity="0" offset="100%"></stop>
        </linearGradient>
        <linearGradient x1="92.0924801%" y1="16.0556086%" x2="-46.0292161%" y2="16.0556093%" id="linearGradient-37">
            <stop stop-color="#D0DCF1" offset="0%"></stop>
            <stop stop-color="#FFFFFF" stop-opacity="0" offset="100%"></stop>
        </linearGradient>
        <linearGradient x1="42.2552615%" y1="-31.8277864%" x2="71.125%" y2="50%" id="linearGradient-38">
            <stop stop-color="#CFDDF3" offset="0%"></stop>
            <stop stop-color="#A1B8E3" offset="100%"></stop>
        </linearGradient>
        <linearGradient x1="31.669258%" y1="-9.21335019%" x2="100%" y2="50%" id="linearGradient-39">
            <stop stop-color="#CFDDF3" offset="0%"></stop>
            <stop stop-color="#A1B8E3" offset="100%"></stop>
        </linearGradient>
        <path d="M1.58933354,3.26019867 C1.58933354,7.91389772 -2.2437645,17.0331897 2.7546131,19.3974833 C6.08686483,20.973679 9.22636298,17.668503 12.1731075,9.48195534 C11.9191112,3.47049328 10.285863,0.464762246 7.27336305,0.464762246 C2.7546131,0.464762246 1.58933354,-1.39350039 1.58933354,3.26019867 Z" id="path-40"></path>
        <linearGradient x1="-25.8029357%" y1="100%" x2="42.445841%" y2="30.4265738%" id="linearGradient-42">
            <stop stop-color="#47689B" offset="0%"></stop>
            <stop stop-color="#223762" offset="100%"></stop>
        </linearGradient>
        <linearGradient x1="41.2814545%" y1="-31.8277864%" x2="73.7812128%" y2="50%" id="linearGradient-43">
            <stop stop-color="#CFDDF3" offset="0%"></stop>
            <stop stop-color="#A1B8E3" offset="100%"></stop>
        </linearGradient>
        <linearGradient x1="31.669258%" y1="-9.21335019%" x2="100%" y2="50%" id="linearGradient-44">
            <stop stop-color="#CFDDF3" offset="0%"></stop>
            <stop stop-color="#A1B8E3" offset="100%"></stop>
        </linearGradient>
        <path d="M12.0569593,0.251800871 C12.9412682,1.96498241 14.1323859,3.18518426 15.6303125,3.91247702 C17.128239,4.63976979 18.2514939,5.18134247 19.0000769,5.53719508 L18.0448636,9.24228219 C19.2317993,12.8745405 19.5502038,15.3029683 19.0000769,16.5275658 C18.1748867,18.3644621 15.6303125,19.5848289 14.1493041,21.2226531 C13.1619652,22.314536 12.2118844,24.7125491 11.2990616,28.4166925 L1.53766861,28.4166925 L1.0956726,21.2226531 C-0.639869207,14.3021564 -0.0353760033,9.07367041 2.90915221,5.53719508 C5.85368042,2.00071975 8.90294944,0.238945214 12.0569593,0.251800871 Z" id="path-45"></path>
        <linearGradient x1="50%" y1="0%" x2="81.4402452%" y2="56.408967%" id="linearGradient-47">
            <stop stop-color="#164898" offset="0%"></stop>
            <stop stop-color="#223762" offset="100%"></stop>
        </linearGradient>
        <linearGradient x1="1.11022302e-14%" y1="50%" x2="75.5130009%" y2="33.4689142%" id="linearGradient-48">
            <stop stop-color="#EDF3FD" offset="0%"></stop>
            <stop stop-color="#D6E3FA" offset="100%"></stop>
        </linearGradient>
        <path d="M21.7573875,0.42562069 C26.3834713,1.64639281 30.0594743,3.86971121 32.7853965,7.09557588 C36.8742798,11.9343729 35.9630758,26.4920229 37.1212095,35.15625 C38.2793433,43.8204771 43.3185563,50.1183837 35.5348509,55.0079353 C27.7511455,59.8974869 5.74345006,58.7871584 3.94365709,55.0079353 C2.74379511,52.4884532 1.46005697,43.4862047 0.0924426608,28.0011898 C0.0924426608,14.0641138 0.911881171,6.5081528 2.55075819,5.33330663 C4.18963521,4.15846046 6.92203162,2.43575959 10.7479474,0.165204024 C10.6621624,0.510682874 11.5420501,0.854599626 13.3876106,1.19695428 C15.233171,1.53930893 18.0230966,1.28219773 21.7573875,0.42562069 Z" id="path-49"></path>
        <linearGradient x1="44.7356789%" y1="57.7816012%" x2="67.4239091%" y2="23.7180568%" id="linearGradient-51">
            <stop stop-color="#CFDDF3" offset="0%"></stop>
            <stop stop-color="#A1B8E3" offset="100%"></stop>
        </linearGradient>
        <path d="M21.7573875,0.42562069 C26.3834713,1.64639281 30.0594743,3.86971121 32.7853965,7.09557588 C36.8742798,11.9343729 35.9630758,26.4920229 37.1212095,35.15625 C38.2793433,43.8204771 43.3185563,50.1183837 35.5348509,55.0079353 C27.7511455,59.8974869 5.74345006,58.7871584 3.94365709,55.0079353 C2.74379511,52.4884532 1.46005697,43.4862047 0.0924426608,28.0011898 C0.0924426608,14.0641138 0.911881171,6.5081528 2.55075819,5.33330663 C4.18963521,4.15846046 6.92203162,2.43575959 10.7479474,0.165204024 C10.6621624,0.510682874 11.5420501,0.854599626 13.3876106,1.19695428 C15.233171,1.53930893 18.0230966,1.28219773 21.7573875,0.42562069 Z" id="path-52"></path>
        <linearGradient x1="86.2225509%" y1="231.608002%" x2="56.9641755%" y2="-57.1406441%" id="linearGradient-54">
            <stop stop-color="#CFDDF3" offset="0%"></stop>
            <stop stop-color="#A1B8E3" offset="100%"></stop>
        </linearGradient>
        <linearGradient x1="38.8475766%" y1="-31.8277864%" x2="80.42%" y2="50%" id="linearGradient-55">
            <stop stop-color="#CFDDF3" offset="0%"></stop>
            <stop stop-color="#A1B8E3" offset="100%"></stop>
        </linearGradient>
        <linearGradient x1="31.669258%" y1="-9.21335019%" x2="100%" y2="50%" id="linearGradient-56">
            <stop stop-color="#CFDDF3" offset="0%"></stop>
            <stop stop-color="#A1B8E3" offset="100%"></stop>
        </linearGradient>
        <path d="M7.9640322,32.5790912 L14.2925863,37.2405071 C21.2364483,27.1538886 25.0148872,21.4201407 25.627903,20.0392634 C26.5474267,17.9679474 25.627903,14.4919415 25.627903,13.334419 C25.627903,12.1768964 26.3113379,9.6234704 27.3045916,8.8743279 C28.2978453,8.1251854 28.4146507,8.5103236 29.0170973,8.5103236 C29.6195439,8.5103236 34.7848325,2.13117386 35.3926606,1.3194136 C36.0004887,0.50765334 36.8228905,0.10835024 37.4397023,0.58307933 C38.056514,1.05780842 37.7908961,1.84844234 37.3395691,2.49373357 C36.8882421,3.13902479 34.3547827,6.76022561 34.3547827,7.5005816 C34.3547827,8.2409376 36.8340967,9.8167728 37.4732172,10.467736 C38.1123378,11.1186992 39.0179121,12.9609491 37.8267016,15.0024933 C36.635491,17.0440374 32.6761839,20.2959812 32.6761839,21.19755 C32.6761839,22.0991187 26.0968005,35.7368739 23.7099354,41.252106 C21.3230704,46.7673381 19.0720466,50.4912754 14.2925863,48.9460018 C11.1062794,47.9158195 6.6035293,44.7609656 0.78433611,39.4814403 C1.92166221,36.7909991 3.04161941,35.0222435 4.14420772,34.1751734 C5.24679603,33.3281034 6.5200709,32.796076 7.9640322,32.5790912 Z" id="path-57"></path>
        <path d="M7.9640322,32.5790912 L14.2925863,37.2405071 C21.2364483,27.1538886 25.0148872,21.4201407 25.627903,20.0392634 C26.5474267,17.9679474 25.627903,14.4919415 25.627903,13.334419 C25.627903,12.1768964 26.3113379,9.6234704 27.3045916,8.8743279 C28.2978453,8.1251854 28.4146507,8.5103236 29.0170973,8.5103236 C29.6195439,8.5103236 34.7848325,2.13117386 35.3926606,1.3194136 C36.0004887,0.50765334 36.8228905,0.10835024 37.4397023,0.58307933 C38.056514,1.05780842 37.7908961,1.84844234 37.3395691,2.49373357 C36.8882421,3.13902479 34.3547827,6.76022561 34.3547827,7.5005816 C34.3547827,8.2409376 36.8340967,9.8167728 37.4732172,10.467736 C38.1123378,11.1186992 39.0179121,12.9609491 37.8267016,15.0024933 C36.635491,17.0440374 32.6761839,20.2959812 32.6761839,21.19755 C32.6761839,22.0991187 26.0968005,35.7368739 23.7099354,41.252106 C21.3230704,46.7673381 19.0720466,50.4912754 14.2925863,48.9460018 C11.1062794,47.9158195 6.6035293,44.7609656 0.78433611,39.4814403 C1.92166221,36.7909991 3.04161941,35.0222435 4.14420772,34.1751734 C5.24679603,33.3281034 6.5200709,32.796076 7.9640322,32.5790912 Z" id="path-59"></path>
        <linearGradient x1="22.1069515%" y1="11.2137508%" x2="22.1069515%" y2="79.6109734%" id="linearGradient-61">
            <stop stop-color="#D6E3FA" offset="0%"></stop>
            <stop stop-color="#E3EDFE" offset="100%"></stop>
        </linearGradient>
        <path d="M13.0608887,0 L99.9858715,0 C102.843451,0 105.890868,1.92851965 106.792467,4.30746921 L112.832677,20.2451053 C113.734276,22.6240548 111.705441,24.5525745 108.301147,24.5525745 L4.74561363,24.5525745 C1.34131948,24.5525745 -0.687515852,22.6240548 0.214083075,20.2451053 L6.25429336,4.30746921 C7.15589229,1.92851965 10.2033088,0 13.0608887,0 Z" id="path-62"></path>
        <path d="M13.0608887,0 L99.9858715,0 C102.843451,0 105.890868,1.92851965 106.792467,4.30746921 L112.832677,20.2451053 C113.734276,22.6240548 111.705441,24.5525745 108.301147,24.5525745 L4.74561363,24.5525745 C1.34131948,24.5525745 -0.687515852,22.6240548 0.214083075,20.2451053 L6.25429336,4.30746921 C7.15589229,1.92851965 10.2033088,0 13.0608887,0 Z" id="path-64"></path>
        <path d="M13.0608887,0 L99.9858715,0 C102.843451,0 105.890868,1.92851965 106.792467,4.30746921 L112.832677,20.2451053 C113.734276,22.6240548 111.705441,24.5525745 108.301147,24.5525745 L4.74561363,24.5525745 C1.34131948,24.5525745 -0.687515852,22.6240548 0.214083075,20.2451053 L6.25429336,4.30746921 C7.15589229,1.92851965 10.2033088,0 13.0608887,0 Z" id="path-66"></path>
        <path d="M13.0608887,0 L99.9858715,0 C102.843451,0 105.890868,1.92851965 106.792467,4.30746921 L112.832677,20.2451053 C113.734276,22.6240548 111.705441,24.5525745 108.301147,24.5525745 L4.74561363,24.5525745 C1.34131948,24.5525745 -0.687515852,22.6240548 0.214083075,20.2451053 L6.25429336,4.30746921 C7.15589229,1.92851965 10.2033088,0 13.0608887,0 Z" id="path-68"></path>
        <path d="M13.0608887,0 L99.9858715,0 C102.843451,0 105.890868,1.92851965 106.792467,4.30746921 L112.832677,20.2451053 C113.734276,22.6240548 111.705441,24.5525745 108.301147,24.5525745 L4.74561363,24.5525745 C1.34131948,24.5525745 -0.687515852,22.6240548 0.214083075,20.2451053 L6.25429336,4.30746921 C7.15589229,1.92851965 10.2033088,0 13.0608887,0 Z" id="path-70"></path>
        <path d="M13.0608887,0 L99.9858715,0 C102.843451,0 105.890868,1.92851965 106.792467,4.30746921 L112.832677,20.2451053 C113.734276,22.6240548 111.705441,24.5525745 108.301147,24.5525745 L4.74561363,24.5525745 C1.34131948,24.5525745 -0.687515852,22.6240548 0.214083075,20.2451053 L6.25429336,4.30746921 C7.15589229,1.92851965 10.2033088,0 13.0608887,0 Z" id="path-72"></path>
        <path d="M13.0608887,0 L99.9858715,0 C102.843451,0 105.890868,1.92851965 106.792467,4.30746921 L112.832677,20.2451053 C113.734276,22.6240548 111.705441,24.5525745 108.301147,24.5525745 L4.74561363,24.5525745 C1.34131948,24.5525745 -0.687515852,22.6240548 0.214083075,20.2451053 L6.25429336,4.30746921 C7.15589229,1.92851965 10.2033088,0 13.0608887,0 Z" id="path-74"></path>
        <path d="M13.0608887,0 L99.9858715,0 C102.843451,0 105.890868,1.92851965 106.792467,4.30746921 L112.832677,20.2451053 C113.734276,22.6240548 111.705441,24.5525745 108.301147,24.5525745 L4.74561363,24.5525745 C1.34131948,24.5525745 -0.687515852,22.6240548 0.214083075,20.2451053 L6.25429336,4.30746921 C7.15589229,1.92851965 10.2033088,0 13.0608887,0 Z" id="path-76"></path>
        <path d="M13.0608887,0 L99.9858715,0 C102.843451,0 105.890868,1.92851965 106.792467,4.30746921 L112.832677,20.2451053 C113.734276,22.6240548 111.705441,24.5525745 108.301147,24.5525745 L4.74561363,24.5525745 C1.34131948,24.5525745 -0.687515852,22.6240548 0.214083075,20.2451053 L6.25429336,4.30746921 C7.15589229,1.92851965 10.2033088,0 13.0608887,0 Z" id="path-78"></path>
        <path d="M13.0608887,0 L99.9858715,0 C102.843451,0 105.890868,1.92851965 106.792467,4.30746921 L112.832677,20.2451053 C113.734276,22.6240548 111.705441,24.5525745 108.301147,24.5525745 L4.74561363,24.5525745 C1.34131948,24.5525745 -0.687515852,22.6240548 0.214083075,20.2451053 L6.25429336,4.30746921 C7.15589229,1.92851965 10.2033088,0 13.0608887,0 Z" id="path-80"></path>
        <path d="M13.0608887,0 L99.9858715,0 C102.843451,0 105.890868,1.92851965 106.792467,4.30746921 L112.832677,20.2451053 C113.734276,22.6240548 111.705441,24.5525745 108.301147,24.5525745 L4.74561363,24.5525745 C1.34131948,24.5525745 -0.687515852,22.6240548 0.214083075,20.2451053 L6.25429336,4.30746921 C7.15589229,1.92851965 10.2033088,0 13.0608887,0 Z" id="path-82"></path>
        <path d="M13.0608887,0 L99.9858715,0 C102.843451,0 105.890868,1.92851965 106.792467,4.30746921 L112.832677,20.2451053 C113.734276,22.6240548 111.705441,24.5525745 108.301147,24.5525745 L4.74561363,24.5525745 C1.34131948,24.5525745 -0.687515852,22.6240548 0.214083075,20.2451053 L6.25429336,4.30746921 C7.15589229,1.92851965 10.2033088,0 13.0608887,0 Z" id="path-84"></path>
        <path d="M13.0557948,0 L99.9468753,0 C102.803341,0 105.849569,1.94125617 106.750816,4.33591701 L112.78867,20.37881 C113.689918,22.7734708 111.661874,24.714727 108.258907,24.714727 L4.74376276,24.714727 C1.34079635,24.714727 -0.687247709,22.7734708 0.213999579,20.37881 L6.25185408,4.33591701 C7.15310137,1.94125617 10.1993294,0 13.0557948,0 Z" id="path-86"></path>
        <path d="M13.0557948,0 L99.9468753,0 C102.803341,0 105.849569,1.94125617 106.750816,4.33591701 L112.78867,20.37881 C113.689918,22.7734708 111.661874,24.714727 108.258907,24.714727 L4.74376276,24.714727 C1.34079635,24.714727 -0.687247709,22.7734708 0.213999579,20.37881 L6.25185408,4.33591701 C7.15310137,1.94125617 10.1993294,0 13.0557948,0 Z" id="path-88"></path>
        <path d="M13.0557948,0 L99.9468753,0 C102.803341,0 105.849569,1.94125617 106.750816,4.33591701 L112.78867,20.37881 C113.689918,22.7734708 111.661874,24.714727 108.258907,24.714727 L4.74376276,24.714727 C1.34079635,24.714727 -0.687247709,22.7734708 0.213999579,20.37881 L6.25185408,4.33591701 C7.15310137,1.94125617 10.1993294,0 13.0557948,0 Z" id="path-90"></path>
        <path d="M13.0557948,0 L99.9468753,0 C102.803341,0 105.849569,1.94125617 106.750816,4.33591701 L112.78867,20.37881 C113.689918,22.7734708 111.661874,24.714727 108.258907,24.714727 L4.74376276,24.714727 C1.34079635,24.714727 -0.687247709,22.7734708 0.213999579,20.37881 L6.25185408,4.33591701 C7.15310137,1.94125617 10.1993294,0 13.0557948,0 Z" id="path-92"></path>
    </defs>
    <g id="Page-1" stroke="none" stroke-width="1" fill="none" fill-rule="evenodd">
        <g id="2">
            <g id="cloud" opacity="0.5" transform="translate(64.552083, 38.000000)" fill="url(#linearGradient-2)">
                <g id="path-2-link">
                    <path d="M44.111293,38.24962 C43.769095,28.4374198 18.2031404,30.6492177 8.3410794,31.5958104 C-1.5211214,32.5424031 -2.4165409,19.100476 6.0925318,17.1024177 C14.6014646,15.1043594 30.031824,16.1354865 38.026691,14.2911135 C46.021558,12.4467406 35.908338,2.5551833 46.801747,1.362901 C57.695155,0.1706927 80.219928,1.2745208 86.934945,1.0323073 C97.48252,0.6518656 102.894054,13.3496979 84.41524,13.9259073 C79.319334,14.0847698 78.297076,25.3653385 95.497997,22.2667063 C106.292257,20.3221938 127.471033,20.277301 131.876811,25.2418281 C134.404626,28.0902594 133.528645,35.742876 129.182861,39.968633 C125.954568,43.107795 115.687939,43.719874 111.666172,44.445479 C102.230775,46.148 104.096011,55.283851 107.313256,57.164981 C114.926629,61.616311 135.821523,53.215384 136.381597,65.4387 C136.629121,70.840025 117.617363,71.712068 109.821913,71.646097 C90.702755,71.48435 78.140731,73.187758 77.259156,66.665817 C76.374225,60.118433 89.139861,64.537666 88.510425,56.488484 C88.181512,52.282326 89.063087,43.344609 80.872998,43.813727 C92.08609,43.171399 44.573476,51.501992 44.111293,38.24962 Z" id="path-2"></path>
                </g>
            </g>
            <g id="cloud" opacity="0.5" transform="translate(180.552083, 0.000000)" fill="url(#linearGradient-4)">
                <g id="path-4-link">
                    <path d="M44.269843,37.9267474 C44.295191,28.1086057 18.664452,29.3616432 8.773805,29.9382609 C-1.116979,30.5149531 -1.508357,17.0488964 7.069434,15.3708807 C15.647361,13.6927906 31.028312,15.3009448 39.08647,13.7572151 C47.144765,12.2134854 37.409099,1.9501818 48.339561,1.1666609 C59.269886,0.3831401 81.737508,2.3295786 88.45691,2.338963 C99.011287,2.3537099 103.943661,15.2453089 85.456213,15.1291958 C80.357975,15.0971698 78.913971,26.3314583 96.218883,23.8790828 C107.078537,22.3401198 128.244047,23.0881885 132.460756,28.2142172 C134.880104,31.155325 133.718233,38.7697026 129.217324,42.8297854 C125.873741,45.8459682 115.591442,46.0731297 111.54528,46.6477365 C102.052761,47.9956604 103.574601,57.1950292 106.719258,59.1952417 C114.160524,63.9285417 135.355378,56.3158771 135.457538,68.551538 C135.502506,73.958428 116.471317,74.117962 108.683859,73.760164 C89.584204,72.882651 76.96714,74.114536 76.330412,67.5641677 C75.691203,60.9881786 88.282505,65.8823536 87.954911,57.8152172 C87.783675,53.5996964 88.999273,44.7012234 80.797293,44.8633646 C92.026696,44.6414167 44.235541,51.1870927 44.269843,37.9267474 Z" id="path-4"></path>
                </g>
            </g>
            <path d="M84.4,210.391924 C103.718,203.049478 152.927287,185.583333 196.20081,185.583333 C239.474334,185.583333 293.11704,213.854677 327.734521,217.062916 C350.812841,219.201741 392.034667,221.011817 451.4,222.493143 L451.4,265.583333 L84.4,265.583333 C84.4,247.551783 84.4,229.154647 84.4,210.391924 Z" id="ground" fill="url(#linearGradient-5)" fill-rule="nonzero" transform="translate(267.900000, 225.583333) scale(-1, 1) translate(-267.900000, -225.583333) "></path>
            <g id="plant" transform="translate(281.062500, 111.104167)">
                <path d="M14.8355179,99.9783209 C14.8355179,86.9574876 25.719774,46.6621894 40.4114294,24.6135574" id="stem" stroke="url(#linearGradient-6)" stroke-width="1.5625" stroke-linecap="round"></path>
                <path d="M27.6842106,32.3318116 C30.2015717,28.7951721 31.4602523,24.8455193 31.4602523,20.4828533 C31.4602523,13.9388543 29.7696608,8.633895 27.6842106,8.633895 C25.5987604,8.633895 23.9081689,13.9388543 23.9081689,20.4828533 C23.9081689,24.8455193 25.1668495,28.7951721 27.6842106,32.3318116 Z" id="leaf" fill="url(#linearGradient-7)" fill-rule="nonzero" transform="translate(27.684211, 20.482853) rotate(-30.000000) translate(-27.684211, -20.482853) "></path>
                <path d="M49.2131063,44.4216389 C51.7304674,40.8849993 52.9891479,36.9353465 52.9891479,32.5726806 C52.9891479,26.0286816 51.2985565,20.7237222 49.2131063,20.7237222 C47.127656,20.7237222 45.4370646,26.0286816 45.4370646,32.5726806 C45.4370646,36.9353465 46.6957451,40.8849993 49.2131063,44.4216389 Z" id="leaf" fill="url(#linearGradient-8)" fill-rule="nonzero" transform="translate(49.213106, 32.572681) rotate(88.000000) translate(-49.213106, -32.572681) "></path>
                <path d="M42.1818563,61.6091389 C44.6992174,58.0724993 45.9578979,54.1228465 45.9578979,49.7601806 C45.9578979,43.2161816 44.2673065,37.9112222 42.1818563,37.9112222 C40.096406,37.9112222 38.4058146,43.2161816 38.4058146,49.7601806 C38.4058146,54.1228465 39.6644951,58.0724993 42.1818563,61.6091389 Z" id="leaf" fill="url(#linearGradient-8)" fill-rule="nonzero" transform="translate(42.181856, 49.760181) rotate(91.000000) translate(-42.181856, -49.760181) "></path>
                <path d="M36.4521118,78.2765244 C38.9694729,74.7398848 40.2281535,70.7902321 40.2281535,66.4275661 C40.2281535,59.8835671 38.537562,54.5786077 36.4521118,54.5786077 C34.3666616,54.5786077 32.6760701,59.8835671 32.6760701,66.4275661 C32.6760701,70.7902321 33.9347507,74.7398848 36.4521118,78.2765244 Z" id="leaf" fill="url(#linearGradient-7)" fill-rule="nonzero" transform="translate(36.452112, 66.427566) rotate(91.000000) translate(-36.452112, -66.427566) "></path>
                <path d="M48.1095894,24.0429524 C50.6269506,20.5063129 51.8856311,16.5566601 51.8856311,12.1939941 C51.8856311,5.64999509 50.1950397,0.345035741 48.1095894,0.345035741 C46.0241392,0.345035741 44.3335478,5.64999509 44.3335478,12.1939941 C44.3335478,16.5566601 45.5922283,20.5063129 48.1095894,24.0429524 Z" id="leaf" fill="url(#linearGradient-8)" fill-rule="nonzero" transform="translate(48.109589, 12.193994) rotate(33.000000) translate(-48.109589, -12.193994) "></path>
                <path d="M18.315927,50.5143165 C20.8332881,46.9776769 22.0919687,43.0280242 22.0919687,38.6653582 C22.0919687,32.1213592 20.4013773,26.8163998 18.315927,26.8163998 C16.2304768,26.8163998 14.5398854,32.1213592 14.5398854,38.6653582 C14.5398854,43.0280242 15.7985659,46.9776769 18.315927,50.5143165 Z" id="leaf" fill="url(#linearGradient-8)" fill-rule="nonzero" transform="translate(18.315927, 38.665358) rotate(-41.000000) translate(-18.315927, -38.665358) "></path>
                <path d="M11.2846768,68.7434833 C13.8020379,65.2068437 15.0607185,61.2571909 15.0607185,56.8945249 C15.0607185,50.350526 13.3701271,45.0455666 11.2846768,45.0455666 C9.19922661,45.0455666 7.50863517,50.350526 7.50863517,56.8945249 C7.50863517,61.2571909 8.76731573,65.2068437 11.2846768,68.7434833 Z" id="leaf" fill="url(#linearGradient-7)" fill-rule="nonzero" transform="translate(11.284677, 56.894525) rotate(-47.000000) translate(-11.284677, -56.894525) "></path>
            </g>
            <g id="tree" opacity="0.300000012" transform="translate(21.427083, 83.239583)">
                <path d="M36.753734,103.551853 C34.0680026,105.927725 23.8541815,101.17598 19.8046304,93.8004011 C15.7550793,86.4248221 23.2670034,83.799499 13.0494526,72.0032263 C2.83190183,60.2069535 -3.72426812,55.6892301 2.47637008,36.2451573 C8.67700827,16.8010846 0.110883728,5.99497518 11.4293854,0.922119165 C22.747887,-4.15073685 29.2661737,12.6855019 27.9678827,27.4946755 C26.6695916,42.303849 29.3250296,45.3730092 40.3959904,43.8384291 C51.4669512,42.303849 42.1331039,64.0450315 42.1331039,68.7907181 C42.1331039,73.5364048 48.8461343,82.3509357 47.4535007,88.9826065 C46.0608672,95.6142774 39.4394655,101.17598 36.753734,103.551853 Z" id="leaves" fill="url(#linearGradient-9)" fill-rule="nonzero"></path>
                <path d="M30.287486,82.8778091 C32.277397,79.6590134 36.2139384,68.9021903 36.2139384,60.9749225" id="branch" stroke="url(#linearGradient-10)" stroke-width="1.5625" stroke-linecap="round"></path>
                <path d="M7.2280458,61.6240698 C7.2280458,57.9816325 17.4547861,55.4244466 22.4609668,48.5128985" id="branch" stroke="url(#linearGradient-11)" stroke-width="1.5625" stroke-linecap="round" transform="translate(14.844506, 55.068484) scale(-1, 1) translate(-14.844506, -55.068484) "></path>
                <path d="M45.1954219,136.102602 C44.5150078,132.726675 42.7345058,119.483096 37.5661339,103.982796 C29.3883165,79.4569628 16.7061617,47.4261291 16.7061617,25.7983495" id="branch" stroke="url(#linearGradient-12)" stroke-width="1.5625" stroke-linecap="round"></path>
            </g>
            <ellipse id="shadow" fill="#8699BF" fill-rule="nonzero" opacity="0.0849330357" cx="291.088541" cy="211.885417" rx="23.046875" ry="1.30208333"></ellipse>
            <path d="M0.072916333,216.589481 C23.8283753,209.108409 84.3413284,191.3125 137.555038,191.3125 C190.768747,191.3125 256.733503,220.117613 299.302824,223.386423 C327.682372,225.56563 378.373097,227.409881 451.375,228.919175 L451.375,310.84375 L0.072916333,310.84375 C0.072916333,267.124539 0.072916333,235.706449 0.072916333,216.589481 Z" id="ground" fill="url(#linearGradient-13)" fill-rule="nonzero"></path>
            <g id="plant" opacity="0.300000012" transform="translate(293.782594, 172.422477) scale(-1, 1) rotate(-18.000000) translate(-293.782594, -172.422477) translate(270.282594, 134.922477)">
                <path d="M11.1739858,74.9837407 C11.1739858,65.2181157 19.3719149,34.9966421 30.4375447,18.460168" id="stem" stroke="url(#linearGradient-14)" stroke-width="1.171875" stroke-linecap="round"></path>
                <path d="M20.8515117,24.2488587 C22.7475667,21.596379 23.6955942,18.6341394 23.6955942,15.3621399 C23.6955942,10.4541407 22.4222551,6.47542122 20.8515117,6.47542122 C19.2807684,6.47542122 18.0074293,10.4541407 18.0074293,15.3621399 C18.0074293,18.6341394 18.9554568,21.596379 20.8515117,24.2488587 Z" id="leaf" fill="url(#linearGradient-15)" fill-rule="nonzero" transform="translate(20.851512, 15.362140) rotate(-30.000000) translate(-20.851512, -15.362140) "></path>
                <path d="M37.0668925,33.31623 C38.9629474,30.6637503 39.9109749,27.7015108 39.9109749,24.4295113 C39.9109749,19.521512 38.6376358,15.5427925 37.0668925,15.5427925 C35.4961491,15.5427925 34.22281,19.521512 34.22281,24.4295113 C34.22281,27.7015108 35.1708375,30.6637503 37.0668925,33.31623 Z" id="leaf" fill="url(#linearGradient-15)" fill-rule="nonzero" transform="translate(37.066892, 24.429511) rotate(88.000000) translate(-37.066892, -24.429511) "></path>
                <path d="M31.7710154,46.2068544 C33.6670704,43.5543747 34.6150979,40.5921352 34.6150979,37.3201357 C34.6150979,32.4121364 33.3417588,28.4334169 31.7710154,28.4334169 C30.200272,28.4334169 28.926933,32.4121364 28.926933,37.3201357 C28.926933,40.5921352 29.8749604,43.5543747 31.7710154,46.2068544 Z" id="leaf" fill="url(#linearGradient-15)" fill-rule="nonzero" transform="translate(31.771015, 37.320136) rotate(91.000000) translate(-31.771015, -37.320136) "></path>
                <path d="M27.4554213,58.7073934 C29.3514763,56.0549137 30.2995038,53.0926741 30.2995038,49.8206746 C30.2995038,44.9126754 29.0261647,40.9339559 27.4554213,40.9339559 C25.8846779,40.9339559 24.6113389,44.9126754 24.6113389,49.8206746 C24.6113389,53.0926741 25.5593663,56.0549137 27.4554213,58.7073934 Z" id="leaf" fill="url(#linearGradient-16)" fill-rule="nonzero" transform="translate(27.455421, 49.820675) rotate(91.000000) translate(-27.455421, -49.820675) "></path>
                <path d="M36.2357331,18.0322142 C38.1317881,15.3797345 39.0798156,12.4174949 39.0798156,9.14549548 C39.0798156,4.23749623 37.8064765,0.25877673 36.2357331,0.25877673 C34.6649898,0.25877673 33.3916507,4.23749623 33.3916507,9.14549548 C33.3916507,12.4174949 34.3396782,15.3797345 36.2357331,18.0322142 Z" id="leaf" fill="url(#linearGradient-15)" fill-rule="nonzero" transform="translate(36.235733, 9.145495) rotate(33.000000) translate(-36.235733, -9.145495) "></path>
                <path d="M13.7954,37.8857373 C15.6914549,35.2332576 16.6394824,32.271018 16.6394824,28.9990185 C16.6394824,24.0910193 15.3661433,20.1122998 13.7954,20.1122998 C12.2246566,20.1122998 10.9513175,24.0910193 10.9513175,28.9990185 C10.9513175,32.271018 11.899345,35.2332576 13.7954,37.8857373 Z" id="leaf" fill="url(#linearGradient-16)" fill-rule="nonzero" transform="translate(13.795400, 28.999019) rotate(-41.000000) translate(-13.795400, -28.999019) "></path>
                <path d="M8.49952248,51.5576128 C10.3955775,48.9051331 11.343605,45.9428935 11.343605,42.670894 C11.343605,37.7628948 10.0702659,33.7841753 8.49952248,33.7841753 C6.92877912,33.7841753 5.65544004,37.7628948 5.65544004,42.670894 C5.65544004,45.9428935 6.60346752,48.9051331 8.49952248,51.5576128 Z" id="leaf" fill="url(#linearGradient-16)" fill-rule="nonzero" transform="translate(8.499522, 42.670894) rotate(-47.000000) translate(-8.499522, -42.670894) "></path>
            </g>
            <path d="M81.0539259,210.526276 C80.188554,209.992554 59.7210187,201.055577 61.6108747,199.143799 C62.8707787,197.86928 66.5736392,197.232021 72.7194564,197.232021 C78.852684,206.450673 81.6308405,210.882092 81.0539259,210.526276 Z" id="shadow" fill="url(#linearGradient-17)" fill-rule="nonzero" style="mix-blend-mode: multiply;"></path>
            <g id="tree" transform="translate(54.812500, 106.468750)">
                <path d="M24.0555219,88.7161 C16.7831141,86.8096969 -4.67000625,77.5919437 1.60328594,66.8039438 C7.8765781,56.0159437 14.1498703,52.9096469 7.8765781,47.9793875 C1.60328594,43.0491281 6.0602828,32.0836531 12.2620609,27.5705375 C18.4638391,23.057325 3.77738281,9.6128188 10.5051391,2.49909375 C17.2328375,-4.61453437 38.7388563,6.3741906 39.2368531,19.8249937 C39.73485,33.2757969 44.7382328,32.3445375 47.2811734,38.4177281 C49.8241141,44.4908219 32.2087609,53.6068562 34.7828625,60.2054 C37.3569063,66.8039438 52.3717375,73.68575 43.5773,82.5750969 C34.7828625,91.4644438 31.3279297,90.6226 24.0555219,88.7161 Z" id="leaves" fill="url(#linearGradient-18)" fill-rule="nonzero"></path>
                <path d="M24.9479083,50.468751 C23.0039365,49.5437318 19.426324,46.9380646 17.6562302,42.9166753" id="branch" stroke="url(#linearGradient-19)" stroke-width="1.5625" stroke-linecap="round"></path>
                <path d="M18.9583438,78.0729109 C15.9379883,76.8224896 9.7608008,73.3896078 9.3229063,68.1770771" id="branch" stroke="url(#linearGradient-20)" stroke-width="1.5625" stroke-linecap="round"></path>
                <path d="M19.9999953,65.3125031 C22.7184802,66.0776031 26.7502234,65.3812927 30.1562547,60.3645896" id="branch" stroke="url(#linearGradient-21)" stroke-width="1.5625" stroke-linecap="round"></path>
                <path d="M27.5520893,26.5104125 C29.3232893,25.1137245 32.7674979,19.5981911 32.500001,14.7916846" id="branch" stroke="url(#linearGradient-22)" stroke-width="1.5625" stroke-linecap="round"></path>
                <path d="M25.9895901,102.81254 C26.8380026,87.6019714 11.1566865,81.2593792 22.3104406,59.8468964 C33.4641708,38.4345057 25.7139734,19.9459339 22.3104406,12.9053901" id="stem" stroke="url(#linearGradient-23)" stroke-width="1.5625" stroke-linecap="round"></path>
            </g>
            <polyline id="shadow" fill="url(#linearGradient-24)" fill-rule="nonzero" opacity="0.5" points="68.8229163 249.22367 149.018407 218.135417 260.229166 218.135417 200.728888 257.979167"></polyline>
            <ellipse id="shadow" fill="#8699BF" fill-rule="nonzero" cx="207.885416" cy="218.65625" rx="53.125" ry="4.16666667"></ellipse>
            <g id="phone" transform="translate(138.875000, 2.250000)">
                <path d="M33.3333333,0 L114.84375,0 C124.911441,0 133.072917,8.16147591 133.072917,18.2291667 L133.072917,199.479167 C133.072917,209.546857 124.911441,217.708333 114.84375,217.708333 L33.3333333,217.708333 C23.2656426,217.708333 15.1041667,209.546857 15.1041667,199.479167 L15.1041667,18.2291667 C15.1041667,8.16147591 23.2656426,0 33.3333333,0 Z" id="side" fill="url(#linearGradient-25)" fill-rule="nonzero"></path>
                <path d="M23.6979167,0 L105.208333,0 C115.276024,0 123.4375,8.16147591 123.4375,18.2291667 L123.4375,199.479167 C123.4375,209.546857 115.276024,217.708333 105.208333,217.708333 L23.6979167,217.708333 C13.6302259,217.708333 5.46875,209.546857 5.46875,199.479167 L5.46875,18.2291667 C5.46875,8.16147591 13.6302259,0 23.6979167,0 Z" id="front" fill="url(#linearGradient-26)" fill-rule="nonzero"></path>
                <rect id="speaker" fill="url(#linearGradient-27)" fill-rule="nonzero" x="33.59375" y="14.0625" width="61.9791667" height="3.90625" rx="1.953125"></rect>
                <circle id="button" fill="url(#linearGradient-28)" fill-rule="nonzero" cx="64.3229167" cy="202.083333" r="10.9375"></circle>
                <g id="screen" transform="translate(10.416667, 31.250000)">
                    <g id="Group">
                        <g id="path-20-link" fill="#000000" fill-rule="nonzero">
                            <rect id="path-20" x="0" y="0" width="108.333333" height="155.208333" rx="3.125"></rect>
                        </g>
                        <g id="path-20-link" fill="#FFFFFF">
                            <rect id="path-20" x="0" y="0" width="108.333333" height="155.208333" rx="3.125"></rect>
                        </g>
                    </g>
                    <g id="4-Clipped">
                        <mask id="mask-30" fill="white">
                            <use xlink:href="#path-29"></use>
                        </mask>
                        <g id="path-20"></g>
                        <g id="4" opacity="0.600000024" mask="url(#mask-30)">
                            <g transform="translate(5.000000, 119.000000)" id="Group">
                                <g transform="translate(0.208333, 0.010417)">
                                    <rect id="Rectangle-16" fill="url(#linearGradient-31)" fill-rule="nonzero" x="0" y="0" width="97.9166667" height="29.6875" rx="5.20833333"></rect>
                                    <circle id="Oval-Copy-2" fill="#A1B8E3" fill-rule="nonzero" cx="14.84375" cy="14.84375" r="10.9375"></circle>
                                    <rect id="Rectangle" fill="#A1B8E3" fill-rule="nonzero" x="29.6875" y="5.20833333" width="60.6770833" height="4.42708333" rx="2.21354167"></rect>
                                    <rect id="Rectangle-Copy" fill="#A1B8E3" fill-rule="nonzero" x="29.6875" y="12.5" width="46.3541667" height="4.42708333" rx="2.21354167"></rect>
                                    <rect id="Rectangle-Copy-2" fill="#A1B8E3" fill-rule="nonzero" opacity="0.5" x="29.6875" y="21.3541667" width="17.1875" height="3.125" rx="1.5625"></rect>
                                </g>
                            </g>
                        </g>
                    </g>
                    <g id="3-Clipped">
                        <mask id="mask-33" fill="white">
                            <use xlink:href="#path-32"></use>
                        </mask>
                        <g id="path-20"></g>
                        <g id="3" opacity="0.600000024" mask="url(#mask-33)">
                            <g transform="translate(5.000000, 83.000000)" id="Group">
                                <g transform="translate(0.208333, 0.072917)">
                                    <rect id="Rectangle-16" fill="url(#linearGradient-31)" fill-rule="nonzero" x="0" y="0" width="97.9166667" height="29.6875" rx="5.20833333"></rect>
                                    <circle id="Oval-Copy-2" fill="#A1B8E3" fill-rule="nonzero" cx="14.84375" cy="14.84375" r="10.9375"></circle>
                                    <rect id="Rectangle" fill="#A1B8E3" fill-rule="nonzero" x="29.6875" y="5.20833333" width="60.6770833" height="4.42708333" rx="2.21354166"></rect>
                                    <rect id="Rectangle-Copy" fill="#A1B8E3" fill-rule="nonzero" x="29.6875" y="12.5" width="46.3541667" height="4.42708333" rx="2.21354166"></rect>
                                    <rect id="Rectangle-Copy-2" fill="#A1B8E3" fill-rule="nonzero" opacity="0.5" x="29.6875" y="21.3541667" width="17.1875" height="3.125" rx="1.5625"></rect>
                                </g>
                            </g>
                        </g>
                    </g>
                    <g id="1-Clipped">
                        <mask id="mask-35" fill="white">
                            <use xlink:href="#path-34"></use>
                        </mask>
                        <g id="path-20"></g>
                        <g id="1" opacity="0.600000024" mask="url(#mask-35)">
                            <g transform="translate(5.000000, 8.000000)" id="Group">
                                <g transform="translate(0.208333, 0.072917)">
                                    <rect id="Rectangle-16" fill="url(#linearGradient-31)" fill-rule="nonzero" x="0" y="0" width="97.9166667" height="29.6875" rx="5.20833333"></rect>
                                    <circle id="Oval-Copy-2" fill="#A1B8E3" fill-rule="nonzero" cx="14.84375" cy="14.84375" r="10.9375"></circle>
                                    <rect id="Rectangle" fill="#A1B8E3" fill-rule="nonzero" x="29.6875" y="5.20833333" width="60.6770833" height="4.42708333" rx="2.21354166"></rect>
                                    <rect id="Rectangle-Copy" fill="#A1B8E3" fill-rule="nonzero" x="29.6875" y="12.5" width="46.3541667" height="4.42708333" rx="2.21354166"></rect>
                                    <rect id="Rectangle-Copy-2" fill="#A1B8E3" fill-rule="nonzero" opacity="0.5" x="29.6875" y="21.3541667" width="17.1875" height="3.125" rx="1.5625"></rect>
                                </g>
                            </g>
                        </g>
                    </g>
                </g>
                <g id="yellow-comment" transform="translate(0.000000, 74.479167)" fill-rule="nonzero">
                    <rect id="Rectangle-16" fill="#F46885" x="0" y="0" width="97.9166667" height="29.6875" rx="5.20833333"></rect>
                    <circle id="Oval-Copy-2" fill="#FFFFFF" cx="14.84375" cy="14.84375" r="10.9375"></circle>
                    <rect id="Rectangle" fill="#FFFFFF" x="29.6875" y="5.20833333" width="60.6770833" height="4.42708333" rx="2.21354167"></rect>
                    <rect id="Rectangle-Copy" fill="#FFFFFF" x="29.6875" y="12.5" width="46.3541667" height="4.42708333" rx="2.21354167"></rect>
                    <rect id="Rectangle-Copy-2" fill="#FFFFFF" opacity="0.5" x="29.6875" y="21.3541667" width="17.1875" height="3.125" rx="1.5625"></rect>
                </g>
            </g>
            <path d="M72.796215,275.416729 L178.451094,268.636411 L178.451094,268.636411 C176.003751,270.815623 172.951448,272.198882 169.699445,272.60253 L92.4008651,282.197047" id="shadow" fill="url(#linearGradient-36)" fill-rule="nonzero" opacity="0.5"></path>
            <path d="M28.434357,265.189914 L132.689284,265.189914 L132.689284,265.189914 C130.903088,266.861715 128.573568,267.83276 126.128782,267.924616 L53.7572797,270.643775" id="shadow" fill="url(#linearGradient-37)" fill-rule="nonzero" opacity="0.5"></path>
            <g id="person" transform="translate(103.979166, 88.968750)">
                <g id="elbow" transform="translate(0.260417, 61.197917)">
                    <g id="Mask" fill="url(#linearGradient-39)" fill-rule="nonzero">
                        <path d="M1.58933354,3.26019867 C1.58933354,7.91389772 -2.2437645,17.0331897 2.7546131,19.3974833 C6.08686483,20.973679 9.22636298,17.668503 12.1731075,9.48195534 C11.9191112,3.47049328 10.285863,0.464762246 7.27336305,0.464762246 C2.7546131,0.464762246 1.58933354,-1.39350039 1.58933354,3.26019867 Z" id="path-26"></path>
                    </g>
                    <g id="Path-7-Clipped">
                        <mask id="mask-41" fill="white">
                            <use xlink:href="#path-40"></use>
                        </mask>
                        <g id="path-26"></g>
                        <path d="M1.30161607,5.34406041 C1.70469885,6.16317063 7.19755566,10.4962206 8.10584031,11.5208275 C9.01412496,12.5454344 9.22177911,15.2235437 9.74334161,14.9468513 C10.0910499,14.7623897 10.0910499,12.0515592 9.74334161,6.81435967 C3.84680273,5.28808668 1.03289422,4.79798692 1.30161607,5.34406041 Z" id="Path-7" fill="#3D82F0" fill-rule="nonzero" opacity="0.5" style="mix-blend-mode: multiply;" mask="url(#mask-41)"></path>
                    </g>
                </g>
                <g id="shoe" transform="translate(20.416081, 172.939800) rotate(2.000000) translate(-20.416081, -172.939800) translate(10.416081, 166.939800)">
                    <path d="M0.276120039,3.37078557 C0.276120039,5.77564345 -0.345150048,8.78064716 0.276120039,9.97495446 C0.897390126,11.1692618 3.97671203,11.7971921 4.99259867,11.7971921 C6.0084853,11.7971921 6.34827255,10.0839553 7.92596651,10.9653661 C9.50366046,11.8467768 18.4956665,11.7971921 19.0798689,8.22089575 C19.6640713,4.64459938 15.1055165,4.64459938 13.0779906,4.64459938 C11.0504647,4.64459938 8.90324096,3.65717995 5.89264874,1.09330907 C2.88205653,-1.4705618 0.276120039,0.965927692 0.276120039,3.37078557 Z" id="Path-90" fill="url(#linearGradient-42)" fill-rule="nonzero"></path>
                    <g id="Group-9" stroke-linecap="round" transform="translate(10.156250, 3.645833)" stroke="#FFFFFF" stroke-width="0.520833333">
                        <path d="M0.261855839,2.80803234 C-0.230850627,1.59195626 1.27385646,0.257971428 1.64505471,0.22549579" id="Path-14" transform="translate(0.904409, 1.516764) scale(-1, 1) translate(-0.904409, -1.516764) "></path>
                        <path d="M2.69178997,2.6914925 C2.56613794,1.25528317 3.59153394,0.789242131 3.99635782,0.753824631" id="Path-14-Copy" transform="translate(3.338776, 1.722659) scale(-1, 1) translate(-3.338776, -1.722659) "></path>
                    </g>
                </g>
                <g id="shoe" transform="translate(65.729676, 176.801518) rotate(-5.000000) translate(-65.729676, -176.801518) translate(55.729676, 170.801518)">
                    <path d="M0.276120039,3.37078557 C0.276120039,5.77564345 -0.345150048,8.78064716 0.276120039,9.97495446 C0.897390126,11.1692618 3.97671203,11.7971921 4.99259867,11.7971921 C6.0084853,11.7971921 6.34827255,10.0839553 7.92596651,10.9653661 C9.50366046,11.8467768 18.4956665,11.7971921 19.0798689,8.22089575 C19.6640713,4.64459938 15.1055165,4.64459938 13.0779906,4.64459938 C11.0504647,4.64459938 8.90324096,3.65717995 5.89264874,1.09330907 C2.88205653,-1.4705618 0.276120039,0.965927692 0.276120039,3.37078557 Z" id="Path-90" fill="url(#linearGradient-42)" fill-rule="nonzero"></path>
                    <g id="Group-9" stroke-linecap="round" transform="translate(10.156250, 3.645833)" stroke="#FFFFFF" stroke-width="0.520833333">
                        <path d="M0.261855839,2.80803234 C-0.230850627,1.59195626 1.27385646,0.257971428 1.64505471,0.22549579" id="Path-14" transform="translate(0.904409, 1.516764) scale(-1, 1) translate(-0.904409, -1.516764) "></path>
                        <path d="M2.69178997,2.6914925 C2.56613794,1.25528317 3.59153394,0.789242131 3.99635782,0.753824631" id="Path-14-Copy" transform="translate(3.338776, 1.722659) scale(-1, 1) translate(-3.338776, -1.722659) "></path>
                    </g>
                </g>
                <g id="jeans" transform="translate(10.416667, 87.802083)">
                    <g id="Mask" transform="translate(0.000000, 1.000000)" fill="#F46885" fill-rule="nonzero">
                        <path d="M37.2327686,0.148914691 C43.7776572,24.1285534 47.4761463,38.8465539 48.3282358,44.3029164 C49.60637,52.48746 52.7341268,80.1526757 52.2926105,84.6143397 C50.1561597,86.792854 46.3074511,85.488466 45.6370339,85.0888913 C44.9666167,84.6893166 40.8361126,61.9274614 37.2327686,53.0975136 C33.6294245,44.2675658 25.5205501,36.140938 20.1774024,27.256948 C20.1774024,31.1118242 18.802092,38.1973046 16.0514711,48.5133892 C12.0405866,66.7311449 9.35269282,77.314443 7.98778977,80.2632836 C7.01631763,81.8325353 2.11213295,80.6818258 0.2099319,80.2632836 C0.2099319,76.1186709 4.3112862,55.1794825 4.3112862,47.9103988 C4.3112862,40.6413151 3.1770253,27.4676903 2.75325608,22.0672052 C2.32948685,16.6667202 1.29410392,6.18926323 2.75325608,0.148914691 C5.21918093,0.148914691 16.7123518,0.148914691 37.2327686,0.148914691 Z" id="path-29"></path>
                    </g>
                    <g id="Path-5-Clipped" transform="translate(17.000000, 22.000000)" stroke="#FFFFFF" stroke-linecap="round" stroke-width="0.520833333">
                        <path d="M0.3289005,0.6211294 C0.8369646,2.7522741 2.7929942,5.7130143 3.6959193,7.4782207" id="Path-5"></path>
                    </g>
                    <g id="Path-6-Clipped" transform="translate(4.000000, 0.000000)" fill="#000000" fill-rule="nonzero" opacity="0.2">
                        <path d="M1.02502756,7.15824206 C3.31987211,8.39244793 12.3066784,13.6458015 23.8865434,11.5405388 C29.6080017,10.5003563 33.2884759,9.13904418 34.9394194,7.15824206 C34.9394194,6.18255556 33.5516761,2.07863236 33.1641448,0.508517337 C32.7766135,-1.06159769 -1.78534399,5.64677713 1.02502756,7.15824206 Z" id="Path-6" style="mix-blend-mode: multiply;"></path>
                    </g>
                </g>
                <g id="face" transform="translate(18.229167, 12.239583)">
                    <g id="Mask" fill="url(#linearGradient-44)" fill-rule="nonzero">
                        <path d="M12.0569593,0.251800871 C12.9412682,1.96498241 14.1323859,3.18518426 15.6303125,3.91247702 C17.128239,4.63976979 18.2514939,5.18134247 19.0000769,5.53719508 L18.0448636,9.24228219 C19.2317993,12.8745405 19.5502038,15.3029683 19.0000769,16.5275658 C18.1748867,18.3644621 15.6303125,19.5848289 14.1493041,21.2226531 C13.1619652,22.314536 12.2118844,24.7125491 11.2990616,28.4166925 L1.53766861,28.4166925 L1.0956726,21.2226531 C-0.639869207,14.3021564 -0.0353760033,9.07367041 2.90915221,5.53719508 C5.85368042,2.00071975 8.90294944,0.238945214 12.0569593,0.251800871 Z" id="path-32"></path>
                    </g>
                    <g id="Path-3-Clipped">
                        <mask id="mask-46" fill="white">
                            <use xlink:href="#path-45"></use>
                        </mask>
                        <g id="path-32"></g>
                        <path d="M15.3656559,20.2445556 C12.9016406,20.2445556 9.05789262,18.0627831 8.31809099,17.3173728 C7.57828936,16.5719625 14.4780036,24.6359547 13.9020651,25.9202789 C13.4477007,26.933497 11.8256009,27.2434517 12.8486296,27.2434517 C16.5382297,27.2434517 17.8296711,20.2445556 15.3656559,20.2445556 Z" id="Path-3" fill="#3D82F0" fill-rule="nonzero" opacity="0.5" style="mix-blend-mode: multiply;" mask="url(#mask-46)"></path>
                    </g>
                </g>
                <path d="M19.3252852,33.1587435 C10.7186706,25.1143522 3.90370709,18.2491109 9.78115186,8.68293912 C15.6585966,-0.883232631 29.334096,-4.09903223 31.890314,7.52947806 C31.890314,10.8557444 30.6623184,13.407352 28.2063271,15.184301 C27.7468699,16.1192706 28.1227928,17.0826579 29.334096,18.0744628 C30.5453991,19.0662677 30.5453991,19.9719973 29.334096,20.7916514 C26.9421346,19.2531647 25.4338324,19.5083283 24.8091894,21.557142 C23.8722249,24.6303627 27.3307614,25.7304262 27.3307614,26.4996599 C28.1254742,28.3842803 27.7027484,30.1885557 26.0625838,31.9124861 C25.2228984,32.7433244 22.9771322,33.1587435 19.3252852,33.1587435 Z" id="hair" fill="url(#linearGradient-47)" fill-rule="nonzero"></path>
                <path d="M10.4478794,44.0104167 C4.305752,54.7851794 0.864156523,61.3580405 0.123093007,63.7290001 C-0.617970508,66.0999597 2.82362497,67.9710159 10.4478794,69.3421686 L15.2202908,49.0117158 L10.4478794,44.0104167 Z" id="sleeve" fill="url(#linearGradient-48)" fill-rule="nonzero"></path>
                <g id="shirt" transform="translate(8.593750, 38.020833)">
                    <g id="Mask" fill="#D6E3FA" fill-rule="nonzero">
                        <path d="M21.7573875,0.42562069 C26.3834713,1.64639281 30.0594743,3.86971121 32.7853965,7.09557588 C36.8742798,11.9343729 35.9630758,26.4920229 37.1212095,35.15625 C38.2793433,43.8204771 43.3185563,50.1183837 35.5348509,55.0079353 C27.7511455,59.8974869 5.74345006,58.7871584 3.94365709,55.0079353 C2.74379511,52.4884532 1.46005697,43.4862047 0.0924426608,28.0011898 C0.0924426608,14.0641138 0.911881171,6.5081528 2.55075819,5.33330663 C4.18963521,4.15846046 6.92203162,2.43575959 10.7479474,0.165204024 C10.6621624,0.510682874 11.5420501,0.854599626 13.3876106,1.19695428 C15.233171,1.53930893 18.0230966,1.28219773 21.7573875,0.42562069 Z" id="path-36"></path>
                    </g>
                    <g id="Path-4-Clipped">
                        <mask id="mask-50" fill="white">
                            <use xlink:href="#path-49"></use>
                        </mask>
                        <g id="path-36"></g>
                        <path d="M27.5207721,16.9631045 C30.0160509,28.6266296 32.0144492,35.551472 33.5159671,37.7376316 C35.7682439,41.016871 37.2326961,50.9400265 39.035462,52.123266 C40.838228,53.3065056 43.4279599,39.7700903 42.1330939,35.135449 C41.26985,32.0456882 38.8927053,26.7168168 35.0016599,19.1488348 L27.5207721,16.9631045 Z" id="Path-4" fill="url(#linearGradient-51)" fill-rule="nonzero" opacity="0.5" mask="url(#mask-50)"></path>
                    </g>
                    <g id="Path-11-Clipped">
                        <mask id="mask-53" fill="white">
                            <use xlink:href="#path-52"></use>
                        </mask>
                        <g id="path-36"></g>
                        <path d="M12.3961333,1.36368987 C14.0619448,2.46858757 18.4024485,3.06667829 22.0508386,3.06667829 C25.6992286,3.06667829 26.8403116,3.10531436 28.5860033,2.5740036 C30.331695,2.04269285 29.6548136,1.36368987 28.5860033,1.36368987 C27.517193,1.36368987 24.2020544,0.584469677 22.4177337,0.584469677 C20.633413,0.584469677 10.7303218,0.25879217 12.3961333,1.36368987 Z" id="Path-11" fill="url(#linearGradient-54)" fill-rule="nonzero" opacity="0.5" mask="url(#mask-53)"></path>
                    </g>
                </g>
                <path d="M19.0261669,38.4462628 C18.8830512,36.6622825 18.8114934,35.4825971 18.8114934,34.9072066 C18.8114934,34.0441208 25.9987946,35.2629292 31.1709804,35.7466551 C31.7322058,37.8996304 31.6328239,38.0420678 31.6328239,38.4462628 C31.6328239,38.6483067 30.3411496,40.3802815 23.3917123,39.8187358 C21.7005016,39.6820784 20.2453198,39.2245874 19.0261669,38.4462628 Z" id="colar" fill="#E1ECFF" fill-rule="nonzero"></path>
                <g id="hand" transform="translate(59.534446, 40.070559) rotate(-26.000000) translate(-59.534446, -40.070559) translate(31.034446, 11.070559)">
                    <path d="M13.7479626,43.4967106 C17.5593027,43.4967106 22.829031,42.110509 22.829031,40.3127071 C22.829031,38.5149051 18.4930382,37.8962321 14.6816982,37.8962321 C10.8703581,37.8962321 9.20160037,39.6932815 8.73037928,40.9434943 C8.96282638,42.0068894 9.93662248,43.4967106 13.7479626,43.4967106 Z" id="Oval" fill="#A1B8E3" fill-rule="nonzero" transform="translate(15.779705, 40.696471) rotate(-40.000000) translate(-15.779705, -40.696471) "></path>
                    <g id="Path-2" transform="translate(7.333333, 0.000000)">
                        <g id="Mask" transform="translate(24.468529, 28.976442) rotate(12.000000) translate(-24.468529, -28.976442) translate(4.968529, 3.976442)" fill="url(#linearGradient-56)" fill-rule="nonzero">
                            <path d="M7.9640322,32.5790912 L14.2925863,37.2405071 C21.2364483,27.1538886 25.0148872,21.4201407 25.627903,20.0392634 C26.5474267,17.9679474 25.627903,14.4919415 25.627903,13.334419 C25.627903,12.1768964 26.3113379,9.6234704 27.3045916,8.8743279 C28.2978453,8.1251854 28.4146507,8.5103236 29.0170973,8.5103236 C29.6195439,8.5103236 34.7848325,2.13117386 35.3926606,1.3194136 C36.0004887,0.50765334 36.8228905,0.10835024 37.4397023,0.58307933 C38.056514,1.05780842 37.7908961,1.84844234 37.3395691,2.49373357 C36.8882421,3.13902479 34.3547827,6.76022561 34.3547827,7.5005816 C34.3547827,8.2409376 36.8340967,9.8167728 37.4732172,10.467736 C38.1123378,11.1186992 39.0179121,12.9609491 37.8267016,15.0024933 C36.635491,17.0440374 32.6761839,20.2959812 32.6761839,21.19755 C32.6761839,22.0991187 26.0968005,35.7368739 23.7099354,41.252106 C21.3230704,46.7673381 19.0720466,50.4912754 14.2925863,48.9460018 C11.1062794,47.9158195 6.6035293,44.7609656 0.78433611,39.4814403 C1.92166221,36.7909991 3.04161941,35.0222435 4.14420772,34.1751734 C5.24679603,33.3281034 6.5200709,32.796076 7.9640322,32.5790912 Z" id="path-40"></path>
                        </g>
                        <g id="Clipped" transform="translate(5.000000, 4.000000)">
                            <mask id="mask-58" fill="white">
                                <use xlink:href="#path-57"></use>
                            </mask>
                            <g id="path-40"></g>
                            <path d="M8.4040093,31.7527515 C4.84733388,36.7021792 2.97115649,40.1124969 2.77547713,41.9837046 C2.57979778,43.8549123 1.44038049,42.8948852 -0.64277472,39.1036233 C0.54755325,36.8200074 1.6432537,35.2714937 2.64432664,34.4580821 C3.64539957,33.6446706 5.5652938,32.7428937 8.4040093,31.7527515 Z" id="Path" fill="#3D82F0" fill-rule="nonzero" opacity="0.5" style="mix-blend-mode: multiply;" mask="url(#mask-58)"></path>
                        </g>
                        <g id="Path-9-Clipped" transform="translate(5.000000, 4.000000)">
                            <mask id="mask-60" fill="white">
                                <use xlink:href="#path-59"></use>
                            </mask>
                            <g id="path-40"></g>
                            <path d="M11.7864757,35.6075893 C12.0719669,35.955873 12.6409346,36.5587181 12.8437908,37.7292131" id="Path-9" stroke="#223762" stroke-width="0.520833333" stroke-linecap="round" mask="url(#mask-60)"></path>
                        </g>
                    </g>
                    <path d="M10.4918831,45.3645689 C13.0230734,42.042004 16.5544443,37.4928046 20.9791609,35.8973022 C12.6781186,26.2377 10.1495265,23.0150706 7.53326992,19.9914874 C4.91701339,16.9679043 -2.62546896,24.800068 1.43045916,32.5041038 C5.48638728,40.2081395 9.11565495,43.7342915 10.4918831,45.3645689 Z" id="Path-85" fill="url(#linearGradient-61)" fill-rule="nonzero"></path>
                </g>
            </g>
            <g id="comment-stack" transform="translate(192.781250, 231.937500)">
                <g id="other-comments" transform="translate(64.760429, 33.539930) rotate(-2.000000) translate(-64.760429, -33.539930) translate(3.260429, 8.539930)">
                    <g id="3" transform="translate(61.888650, 32.753951) rotate(2.000000) translate(-61.888650, -32.753951) translate(4.388650, 18.253951)">
                        <path d="M0,21.683961 L113.054219,21.683961 L113.054219,23.5082637 C113.054219,26.3847468 110.722368,28.7165971 107.845885,28.7165971 L5.20833333,28.7165971 C2.33185026,28.7165971 0,26.3847468 0,23.5082637 L0,21.683961 Z" id="side" fill="#CAD7F1" fill-rule="nonzero"></path>
                        <g id="top" transform="translate(0.258705, 0.000000)">
                            <g id="Mask" fill="#EBF1FD" fill-rule="nonzero">
                                <path d="M13.0608887,0 L99.9858715,0 C102.843451,0 105.890868,1.92851965 106.792467,4.30746921 L112.832677,20.2451053 C113.734276,22.6240548 111.705441,24.5525745 108.301147,24.5525745 L4.74561363,24.5525745 C1.34131948,24.5525745 -0.687515852,22.6240548 0.214083075,20.2451053 L6.25429336,4.30746921 C7.15589229,1.92851965 10.2033088,0 13.0608887,0 Z" id="path-43"></path>
                            </g>
                            <g id="Oval-Copy-2-Clipped">
                                <mask id="mask-63" fill="white">
                                    <use xlink:href="#path-62"></use>
                                </mask>
                                <g id="path-43"></g>
                                <path d="M16.8911478,21.3146622 C23.8890998,21.3146622 30.2886745,17.2647709 31.1849981,12.2689768 C32.0813218,7.27318278 27.8207676,3.22329151 21.668784,3.22329151 C15.5168004,3.22329151 9.11722564,7.27318278 7.37493367,12.2689768 C5.6326417,17.2647709 9.89319591,21.3146622 16.8911478,21.3146622 Z" id="Oval-Copy-2" fill="#CAD7F1" fill-rule="nonzero" mask="url(#mask-63)"></path>
                            </g>
                            <g id="Rectangle-Clipped">
                                <mask id="mask-65" fill="white">
                                    <use xlink:href="#path-64"></use>
                                </mask>
                                <g id="path-43"></g>
                                <path d="M39.0394836,4.39539751 L96.7954556,4.39539751 C98.0506909,4.39539751 99.3309724,5.21501836 99.6550445,6.22607192 C99.9791165,7.23712548 99.1961709,8.05674634 97.9062864,8.05674634 L38.5560323,8.05674634 C37.2661479,8.05674634 36.3427585,7.23712548 36.4935845,6.22607192 C36.6444105,5.21501836 37.7842484,4.39539751 39.0394836,4.39539751 Z" id="Rectangle" fill="#CAD7F1" fill-rule="nonzero" mask="url(#mask-65)"></path>
                            </g>
                            <g id="Rectangle-Copy-Clipped">
                                <mask id="mask-67" fill="white">
                                    <use xlink:href="#path-66"></use>
                                </mask>
                                <g id="path-43"></g>
                                <path d="M38.1073204,10.548954 L83.1141611,10.548954 C84.4264657,10.548954 85.6621357,11.3685749 85.8741073,12.3796284 C86.086079,13.390682 85.1659942,14.2103028 83.8190405,14.2103028 L37.6238692,14.2103028 C36.2769154,14.2103028 35.3072623,13.390682 35.4580883,12.3796284 C35.6089143,11.3685749 36.7950159,10.548954 38.1073204,10.548954 Z" id="Rectangle-Copy" fill="#CAD7F1" fill-rule="nonzero" mask="url(#mask-67)"></path>
                            </g>
                            <g id="Rectangle-Copy-2-Clipped">
                                <mask id="mask-69" fill="white">
                                    <use xlink:href="#path-68"></use>
                                </mask>
                                <g id="path-43"></g>
                                <path d="M36.635589,17.8746165 L52.5281922,17.8746165 C53.5034413,17.8746165 54.2847065,18.4531724 54.2733223,19.1668573 C54.2616869,19.8805422 53.447765,20.4590981 52.4552512,20.4590981 L36.2813041,20.4590981 C35.2887903,20.4590981 34.5705062,19.8805422 34.6769716,19.1668573 C34.783437,18.4531724 35.6603399,17.8746165 36.635589,17.8746165 Z" id="Rectangle-Copy-2" fill="#CAD7F1" fill-rule="nonzero" opacity="0.5" mask="url(#mask-69)"></path>
                            </g>
                        </g>
                    </g>
                    <g id="2" transform="translate(58.186913, 23.750309) rotate(3.000000) translate(-58.186913, -23.750309) translate(0.686913, 9.250309)">
                        <path d="M0,21.683961 L113.054219,21.683961 L113.054219,23.5082637 C113.054219,26.3847468 110.722368,28.7165971 107.845885,28.7165971 L5.20833333,28.7165971 C2.33185026,28.7165971 0,26.3847468 0,23.5082637 L0,21.683961 Z" id="side" fill="#CAD7F1" fill-rule="nonzero"></path>
                        <g id="top" transform="translate(0.258705, 0.000000)">
                            <g id="Mask" fill="#EBF1FD" fill-rule="nonzero">
                                <path d="M13.0608887,0 L99.9858715,0 C102.843451,0 105.890868,1.92851965 106.792467,4.30746921 L112.832677,20.2451053 C113.734276,22.6240548 111.705441,24.5525745 108.301147,24.5525745 L4.74561363,24.5525745 C1.34131948,24.5525745 -0.687515852,22.6240548 0.214083075,20.2451053 L6.25429336,4.30746921 C7.15589229,1.92851965 10.2033088,0 13.0608887,0 Z" id="path-46"></path>
                            </g>
                            <g id="Oval-Copy-2-Clipped">
                                <mask id="mask-71" fill="white">
                                    <use xlink:href="#path-70"></use>
                                </mask>
                                <g id="path-46"></g>
                                <path d="M16.8911478,21.3146622 C23.8890998,21.3146622 30.2886745,17.2647709 31.1849981,12.2689768 C32.0813218,7.27318278 27.8207676,3.22329151 21.668784,3.22329151 C15.5168004,3.22329151 9.11722564,7.27318278 7.37493367,12.2689768 C5.6326417,17.2647709 9.89319591,21.3146622 16.8911478,21.3146622 Z" id="Oval-Copy-2" fill="#CAD7F1" fill-rule="nonzero" mask="url(#mask-71)"></path>
                            </g>
                            <g id="Rectangle-Clipped">
                                <mask id="mask-73" fill="white">
                                    <use xlink:href="#path-72"></use>
                                </mask>
                                <g id="path-46"></g>
                                <path d="M39.0394836,4.39539751 L96.7954556,4.39539751 C98.0506909,4.39539751 99.3309724,5.21501836 99.6550445,6.22607192 C99.9791165,7.23712548 99.1961709,8.05674634 97.9062864,8.05674634 L38.5560323,8.05674634 C37.2661479,8.05674634 36.3427585,7.23712548 36.4935845,6.22607192 C36.6444105,5.21501836 37.7842484,4.39539751 39.0394836,4.39539751 Z" id="Rectangle" fill="#CAD7F1" fill-rule="nonzero" mask="url(#mask-73)"></path>
                            </g>
                            <g id="Rectangle-Copy-Clipped">
                                <mask id="mask-75" fill="white">
                                    <use xlink:href="#path-74"></use>
                                </mask>
                                <g id="path-46"></g>
                                <path d="M38.1073204,10.548954 L83.1141611,10.548954 C84.4264657,10.548954 85.6621357,11.3685749 85.8741073,12.3796284 C86.086079,13.390682 85.1659942,14.2103028 83.8190405,14.2103028 L37.6238692,14.2103028 C36.2769154,14.2103028 35.3072623,13.390682 35.4580883,12.3796284 C35.6089143,11.3685749 36.7950159,10.548954 38.1073204,10.548954 Z" id="Rectangle-Copy" fill="#CAD7F1" fill-rule="nonzero" mask="url(#mask-75)"></path>
                            </g>
                            <g id="Rectangle-Copy-2-Clipped">
                                <mask id="mask-77" fill="white">
                                    <use xlink:href="#path-76"></use>
                                </mask>
                                <g id="path-46"></g>
                                <path d="M36.635589,17.8746165 L52.5281922,17.8746165 C53.5034413,17.8746165 54.2847065,18.4531724 54.2733223,19.1668573 C54.2616869,19.8805422 53.447765,20.4590981 52.4552512,20.4590981 L36.2813041,20.4590981 C35.2887903,20.4590981 34.5705062,19.8805422 34.6769716,19.1668573 C34.783437,18.4531724 35.6603399,17.8746165 36.635589,17.8746165 Z" id="Rectangle-Copy-2" fill="#CAD7F1" fill-rule="nonzero" opacity="0.5" mask="url(#mask-77)"></path>
                            </g>
                        </g>
                    </g>
                    <g id="1" transform="translate(7.220521, 0.099179)">
                        <path d="M0,21.683961 L113.054219,21.683961 L113.054219,23.5082637 C113.054219,26.3847468 110.722368,28.7165971 107.845885,28.7165971 L5.20833333,28.7165971 C2.33185026,28.7165971 0,26.3847468 0,23.5082637 L0,21.683961 Z" id="side" fill="#CAD7F1" fill-rule="nonzero"></path>
                        <g id="top" transform="translate(0.258705, 0.000000)">
                            <g id="Mask" fill="#EBF1FD" fill-rule="nonzero">
                                <path d="M13.0608887,0 L99.9858715,0 C102.843451,0 105.890868,1.92851965 106.792467,4.30746921 L112.832677,20.2451053 C113.734276,22.6240548 111.705441,24.5525745 108.301147,24.5525745 L4.74561363,24.5525745 C1.34131948,24.5525745 -0.687515852,22.6240548 0.214083075,20.2451053 L6.25429336,4.30746921 C7.15589229,1.92851965 10.2033088,0 13.0608887,0 Z" id="path-49"></path>
                            </g>
                            <g id="Oval-Copy-2-Clipped">
                                <mask id="mask-79" fill="white">
                                    <use xlink:href="#path-78"></use>
                                </mask>
                                <g id="path-49"></g>
                                <path d="M16.8911478,21.3146622 C23.8890998,21.3146622 30.2886745,17.2647709 31.1849981,12.2689768 C32.0813218,7.27318278 27.8207676,3.22329151 21.668784,3.22329151 C15.5168004,3.22329151 9.11722564,7.27318278 7.37493367,12.2689768 C5.6326417,17.2647709 9.89319591,21.3146622 16.8911478,21.3146622 Z" id="Oval-Copy-2" fill="#CAD7F1" fill-rule="nonzero" mask="url(#mask-79)"></path>
                            </g>
                            <g id="Rectangle-Clipped">
                                <mask id="mask-81" fill="white">
                                    <use xlink:href="#path-80"></use>
                                </mask>
                                <g id="path-49"></g>
                                <path d="M39.0394836,4.39539751 L96.7954556,4.39539751 C98.0506909,4.39539751 99.3309724,5.21501836 99.6550445,6.22607192 C99.9791165,7.23712548 99.1961709,8.05674634 97.9062864,8.05674634 L38.5560323,8.05674634 C37.2661479,8.05674634 36.3427585,7.23712548 36.4935845,6.22607192 C36.6444105,5.21501836 37.7842484,4.39539751 39.0394836,4.39539751 Z" id="Rectangle" fill="#CAD7F1" fill-rule="nonzero" mask="url(#mask-81)"></path>
                            </g>
                            <g id="Rectangle-Copy-Clipped">
                                <mask id="mask-83" fill="white">
                                    <use xlink:href="#path-82"></use>
                                </mask>
                                <g id="path-49"></g>
                                <path d="M38.1073204,10.548954 L83.1141611,10.548954 C84.4264657,10.548954 85.6621357,11.3685749 85.8741073,12.3796284 C86.086079,13.390682 85.1659942,14.2103028 83.8190405,14.2103028 L37.6238692,14.2103028 C36.2769154,14.2103028 35.3072623,13.390682 35.4580883,12.3796284 C35.6089143,11.3685749 36.7950159,10.548954 38.1073204,10.548954 Z" id="Rectangle-Copy" fill="#CAD7F1" fill-rule="nonzero" mask="url(#mask-83)"></path>
                            </g>
                            <g id="Rectangle-Copy-2-Clipped">
                                <mask id="mask-85" fill="white">
                                    <use xlink:href="#path-84"></use>
                                </mask>
                                <g id="path-49"></g>
                                <path d="M36.635589,17.8746165 L52.5281922,17.8746165 C53.5034413,17.8746165 54.2847065,18.4531724 54.2733223,19.1668573 C54.2616869,19.8805422 53.447765,20.4590981 52.4552512,20.4590981 L36.2813041,20.4590981 C35.2887903,20.4590981 34.5705062,19.8805422 34.6769716,19.1668573 C34.783437,18.4531724 35.6603399,17.8746165 36.635589,17.8746165 Z" id="Rectangle-Copy-2" fill="#CAD7F1" fill-rule="nonzero" opacity="0.5" mask="url(#mask-85)"></path>
                            </g>
                        </g>
                    </g>
                </g>
                <g id="top-comment">
                    <path d="M0,21.8271684 L113.010126,21.8271684 L113.010126,23.6979167 C113.010126,26.5743997 110.678275,28.90625 107.801792,28.90625 L5.20833333,28.90625 C2.33185026,28.90625 0,26.5743997 0,23.6979167 L0,21.8271684 Z" id="side" fill="#C6D5EF" fill-rule="nonzero"></path>
                    <g id="top" transform="translate(0.258604, 0.000000)">
                        <g id="Mask" fill="#EBF1FD" fill-rule="nonzero">
                            <path d="M13.0557948,0 L99.9468753,0 C102.803341,0 105.849569,1.94125617 106.750816,4.33591701 L112.78867,20.37881 C113.689918,22.7734708 111.661874,24.714727 108.258907,24.714727 L4.74376276,24.714727 C1.34079635,24.714727 -0.687247709,22.7734708 0.213999579,20.37881 L6.25185408,4.33591701 C7.15310137,1.94125617 10.1993294,0 13.0557948,0 Z" id="path-51"></path>
                        </g>
                        <g id="Oval-Copy-2-Clipped">
                            <mask id="mask-87" fill="white">
                                <use xlink:href="#path-86"></use>
                            </mask>
                            <g id="path-51"></g>
                            <path d="M16.88456,21.4554305 C23.8797826,21.4554305 30.2768614,17.3787926 31.1728355,12.3500048 C32.0688095,7.32121704 27.809917,3.24457908 21.6603328,3.24457908 C15.5107486,3.24457908 9.11366976,7.32121704 7.37205732,12.3500048 C5.63044487,17.3787926 9.88933739,21.4554305 16.88456,21.4554305 Z" id="Oval-Copy-2" fill="#AABFE5" fill-rule="nonzero" opacity="0.5" mask="url(#mask-87)"></path>
                        </g>
                        <g id="Rectangle-Clipped">
                            <mask id="mask-89" fill="white">
                                <use xlink:href="#path-88"></use>
                            </mask>
                            <g id="path-51"></g>
                            <path d="M39.0242575,4.42442602 L96.7577037,4.42442602 C98.0124494,4.42442602 99.2922316,5.24945989 99.6161773,6.26719075 C99.9401229,7.28492161 99.1574827,8.10995548 97.8681013,8.10995548 L38.5409948,8.10995548 C37.2516134,8.10995548 36.3285842,7.28492161 36.4793514,6.26719075 C36.6301186,5.24945989 37.7695118,4.42442602 39.0242575,4.42442602 Z" id="Rectangle" fill="#AABFE5" fill-rule="nonzero" opacity="0.5" mask="url(#mask-89)"></path>
                        </g>
                        <g id="Rectangle-Copy-Clipped">
                            <mask id="mask-91" fill="white">
                                <use xlink:href="#path-90"></use>
                            </mask>
                            <g id="path-51"></g>
                            <path d="M38.0924579,10.6186224 L83.0817452,10.6186224 C84.3935379,10.6186224 85.628726,11.4436563 85.8406149,12.4613872 C86.0525039,13.479118 85.132778,14.3041519 83.7863496,14.3041519 L37.6091952,14.3041519 C36.2627668,14.3041519 35.2934918,13.479118 35.444259,12.4613872 C35.5950262,11.4436563 36.7806652,10.6186224 38.0924579,10.6186224 Z" id="Rectangle-Copy" fill="#AABFE5" fill-rule="nonzero" opacity="0.5" mask="url(#mask-91)"></path>
                        </g>
                        <g id="Rectangle-Copy-2-Clipped">
                            <mask id="mask-93" fill="white">
                                <use xlink:href="#path-92"></use>
                            </mask>
                            <g id="path-51"></g>
                            <path d="M36.6213005,17.9926658 L52.5077053,17.9926658 C53.4825741,17.9926658 54.2635345,18.5750427 54.2521547,19.2934409 C54.2405239,20.0118392 53.4269194,20.594216 52.4347927,20.594216 L36.2671538,20.594216 C35.2750271,20.594216 34.5570231,20.0118392 34.663447,19.2934409 C34.7698708,18.5750427 35.6464317,17.9926658 36.6213005,17.9926658 Z" id="Rectangle-Copy-2" fill="#A1B8E3" fill-rule="nonzero" opacity="0.300000012" mask="url(#mask-93)"></path>
                        </g>
                    </g>
                </g>
            </g>
        </g>
    </g>
</svg>