<?xml version="1.0" encoding="UTF-8"?>
<svg width="261px" height="263px" viewBox="0 0 261 263" version="1.1" xmlns="http://www.w3.org/2000/svg" xmlns:xlink="http://www.w3.org/1999/xlink">
    <!-- Generator: Sketch 55.2 (78181) - https://sketchapp.com -->
    <title>3</title>
    <desc>Created with Sketch.</desc>
    <defs>
        <linearGradient x1="55.9376938%" y1="87.7402406%" x2="120.96242%" y2="-153.666668%" id="linearGradient-1">
            <stop stop-color="#FFFFFF" offset="0%"></stop>
            <stop stop-color="#D6E3FA" offset="100%"></stop>
        </linearGradient>
        <linearGradient x1="50%" y1="0%" x2="34.810421%" y2="59.0775785%" id="linearGradient-2">
            <stop stop-color="#D0DCF1" offset="0%"></stop>
            <stop stop-color="#FFFFFF" offset="100%"></stop>
        </linearGradient>
        <linearGradient x1="83.7182529%" y1="25.2198269%" x2="-0.769219477%" y2="66.9010276%" id="linearGradient-3">
            <stop stop-color="#CFDDF3" offset="0%"></stop>
            <stop stop-color="#A1B8E3" offset="100%"></stop>
        </linearGradient>
        <linearGradient x1="83.2073777%" y1="-23.309664%" x2="0%" y2="100%" id="linearGradient-4">
            <stop stop-color="#CFDDF3" offset="0%"></stop>
            <stop stop-color="#A1B8E3" offset="100%"></stop>
        </linearGradient>
        <linearGradient x1="83.2073777%" y1="-23.309664%" x2="0%" y2="100%" id="linearGradient-5">
            <stop stop-color="#CFDDF3" offset="0%"></stop>
            <stop stop-color="#A1B8E3" offset="100%"></stop>
        </linearGradient>
        <linearGradient x1="83.2073777%" y1="-23.309664%" x2="0%" y2="100%" id="linearGradient-6">
            <stop stop-color="#CFDDF3" offset="0%"></stop>
            <stop stop-color="#A1B8E3" offset="100%"></stop>
        </linearGradient>
        <linearGradient x1="69.0109316%" y1="151.033056%" x2="51.8255215%" y2="147.330379%" id="linearGradient-7">
            <stop stop-color="#283F6C" offset="0%"></stop>
            <stop stop-color="#314A7B" offset="51.8927686%"></stop>
            <stop stop-color="#223762" offset="100%"></stop>
        </linearGradient>
        <linearGradient x1="69.3034032%" y1="59.2895742%" x2="51.853606%" y2="58.9491283%" id="linearGradient-8">
            <stop stop-color="#283F6C" offset="0%"></stop>
            <stop stop-color="#314A7B" offset="51.8927686%"></stop>
            <stop stop-color="#223762" offset="100%"></stop>
        </linearGradient>
        <linearGradient x1="69.3034032%" y1="59.6890806%" x2="51.853606%" y2="59.3339935%" id="linearGradient-9">
            <stop stop-color="#283F6C" offset="0%"></stop>
            <stop stop-color="#314A7B" offset="51.8927686%"></stop>
            <stop stop-color="#223762" offset="100%"></stop>
        </linearGradient>
        <linearGradient x1="69.0109316%" y1="151.033056%" x2="51.8255215%" y2="147.330379%" id="linearGradient-10">
            <stop stop-color="#283F6C" offset="0%"></stop>
            <stop stop-color="#314A7B" offset="51.8927686%"></stop>
            <stop stop-color="#223762" offset="100%"></stop>
        </linearGradient>
        <linearGradient x1="69.0109316%" y1="151.033056%" x2="51.8255215%" y2="147.330379%" id="linearGradient-11">
            <stop stop-color="#283F6C" offset="0%"></stop>
            <stop stop-color="#314A7B" offset="51.8927686%"></stop>
            <stop stop-color="#223762" offset="100%"></stop>
        </linearGradient>
        <linearGradient x1="38.1276358%" y1="100%" x2="63.3638805%" y2="0%" id="linearGradient-12">
            <stop stop-color="#142547" offset="0%"></stop>
            <stop stop-color="#223762" offset="100%"></stop>
        </linearGradient>
        <linearGradient x1="0%" y1="-3.33066907e-14%" x2="100%" y2="100%" id="linearGradient-13">
            <stop stop-color="#FFD701" offset="0%"></stop>
            <stop stop-color="#F9B62B" offset="100%"></stop>
        </linearGradient>
        <linearGradient x1="43.2994103%" y1="-9.21335019%" x2="68.276919%" y2="50%" id="linearGradient-14">
            <stop stop-color="#CFDDF3" offset="0%"></stop>
            <stop stop-color="#A1B8E3" offset="100%"></stop>
        </linearGradient>
        <linearGradient x1="31.669258%" y1="-9.21335019%" x2="100%" y2="50%" id="linearGradient-15">
            <stop stop-color="#CFDDF3" offset="0%"></stop>
            <stop stop-color="#A1B8E3" offset="100%"></stop>
        </linearGradient>
        <path d="M0.775153687,1.59007217 C0.775153687,3.85978579 -1.09433438,8.30746947 1.34348672,9.46058857 C2.96870078,10.2293346 4.49990459,8.61732602 5.93709815,4.62456273 C5.81321842,1.69263757 5.01664658,0.226674993 3.54738264,0.226674993 C1.34348672,0.226674993 0.775153687,-0.679641459 0.775153687,1.59007217 Z" id="path-16"></path>
        <linearGradient x1="-25.8029357%" y1="100%" x2="42.445841%" y2="30.4265738%" id="linearGradient-18">
            <stop stop-color="#47689B" offset="0%"></stop>
            <stop stop-color="#223762" offset="100%"></stop>
        </linearGradient>
        <linearGradient x1="-25.8029357%" y1="100%" x2="42.445841%" y2="30.4265738%" id="linearGradient-19">
            <stop stop-color="#47689B" offset="0%"></stop>
            <stop stop-color="#223762" offset="100%"></stop>
        </linearGradient>
        <linearGradient x1="40.5036993%" y1="-9.21335019%" x2="75.902663%" y2="50%" id="linearGradient-20">
            <stop stop-color="#CFDDF3" offset="0%"></stop>
            <stop stop-color="#A1B8E3" offset="100%"></stop>
        </linearGradient>
        <linearGradient x1="31.669258%" y1="-9.21335019%" x2="100%" y2="50%" id="linearGradient-21">
            <stop stop-color="#CFDDF3" offset="0%"></stop>
            <stop stop-color="#A1B8E3" offset="100%"></stop>
        </linearGradient>
        <path d="M5.88045002,0.122808945 C6.31174736,0.958366086 6.89268225,1.55348595 7.6232547,1.90820298 C8.35382715,2.26292001 8.90166377,2.52705718 9.26676457,2.70061449 L8.80088557,4.50766875 C9.37978079,6.27920275 9.53507379,7.46360161 9.26676457,8.06086533 C8.86430074,8.95676092 7.6232547,9.55196123 6.90093364,10.3507649 C6.41938627,10.8833007 5.9560105,12.0528656 5.51080632,13.8594596 L0.749955541,13.8594596 L0.534384153,10.3507649 C-0.312078594,6.97548314 -0.0172536719,4.425433 1.41885892,2.70061449 C2.85497151,0.975795988 4.34216854,0.116538952 5.88045002,0.122808945 Z" id="path-22"></path>
        <linearGradient x1="50%" y1="0%" x2="81.4402452%" y2="56.408967%" id="linearGradient-24">
            <stop stop-color="#164898" offset="0%"></stop>
            <stop stop-color="#223762" offset="100%"></stop>
        </linearGradient>
        <linearGradient x1="2.77555756e-14%" y1="50%" x2="75.5130009%" y2="33.4689142%" id="linearGradient-25">
            <stop stop-color="#EDF3FD" offset="0%"></stop>
            <stop stop-color="#D6E3FA" offset="100%"></stop>
        </linearGradient>
        <path d="M10.6115669,0.207584777 C12.8678119,0.802982779 14.6606812,1.88734513 15.9901747,3.46067184 C17.984415,5.82066189 17.5400003,12.920755 18.1048482,17.1464933 C18.6696961,21.3722316 21.1274335,24.4438622 17.3311455,26.8286064 C13.5348574,29.2133506 2.80120968,28.6718184 1.9234102,26.8286064 C1.33821055,25.5997984 0.712102599,21.2091994 0.0450863634,13.6568096 C0.0450863634,6.85938442 0.444744942,3.1741724 1.2440621,2.60117351 C2.04337926,2.02817463 3.3760304,1.1879747 5.24201553,0.0805737155 C5.20017626,0.249071516 5.62931727,0.416807445 6.52943858,0.583781504 C7.42955988,0.750755562 8.79026931,0.625356653 10.6115669,0.207584777 Z" id="path-26"></path>
        <linearGradient x1="44.7356789%" y1="57.7816012%" x2="67.4239091%" y2="23.7180568%" id="linearGradient-28">
            <stop stop-color="#CFDDF3" offset="0%"></stop>
            <stop stop-color="#A1B8E3" offset="100%"></stop>
        </linearGradient>
        <path d="M10.6115669,0.207584777 C12.8678119,0.802982779 14.6606812,1.88734513 15.9901747,3.46067184 C17.984415,5.82066189 17.5400003,12.920755 18.1048482,17.1464933 C18.6696961,21.3722316 21.1274335,24.4438622 17.3311455,26.8286064 C13.5348574,29.2133506 2.80120968,28.6718184 1.9234102,26.8286064 C1.33821055,25.5997984 0.712102599,21.2091994 0.0450863634,13.6568096 C0.0450863634,6.85938442 0.444744942,3.1741724 1.2440621,2.60117351 C2.04337926,2.02817463 3.3760304,1.1879747 5.24201553,0.0805737155 C5.20017626,0.249071516 5.62931727,0.416807445 6.52943858,0.583781504 C7.42955988,0.750755562 8.79026931,0.625356653 10.6115669,0.207584777 Z" id="path-29"></path>
        <linearGradient x1="86.2225509%" y1="231.608002%" x2="56.9641755%" y2="-57.1406441%" id="linearGradient-31">
            <stop stop-color="#CFDDF3" offset="0%"></stop>
            <stop stop-color="#A1B8E3" offset="100%"></stop>
        </linearGradient>
        <linearGradient x1="35.9260875%" y1="-9.21335019%" x2="88.3888238%" y2="50%" id="linearGradient-32">
            <stop stop-color="#CFDDF3" offset="0%"></stop>
            <stop stop-color="#A1B8E3" offset="100%"></stop>
        </linearGradient>
        <linearGradient x1="31.669258%" y1="-9.21335019%" x2="100%" y2="50%" id="linearGradient-33">
            <stop stop-color="#CFDDF3" offset="0%"></stop>
            <stop stop-color="#A1B8E3" offset="100%"></stop>
        </linearGradient>
        <path d="M3.64121291,14.8283512 L6.72779097,17.1018286 C10.1144685,12.182358 11.9572981,9.3858803 12.2562797,8.71239536 C12.7047521,7.70216801 12.2562797,6.00684182 12.2562797,5.44229205 C12.2562797,4.87774227 12.5896063,3.63237901 13.0740384,3.26700538 C13.5584706,2.90163175 13.6154392,3.08947229 13.909266,3.08947229 C15.4281405,3.63985853 17.7701027,1.15761555 18.3431849,0.94718663 C18.9162672,0.73675771 19.1065847,1.97209318 19.1148726,2.72757196 C19.122871,3.48305074 18.7868881,5.26014243 18.205908,6.25584938 C17.6249278,7.25155633 15.6938847,8.83760244 15.6938847,9.2773178 C15.6938847,9.7170331 12.4849715,16.3684728 11.3208438,19.0583755 C10.1567161,21.7482781 9.0588412,23.564526 6.72779097,22.8108614 C5.17375748,22.3084183 2.97766508,20.7697252 0.13951376,18.194782 C0.69421326,16.8825934 1.24044156,16.0199315 1.77819866,15.6067964 C2.31595576,15.1936613 2.93696051,14.9341796 3.64121291,14.8283512 Z" id="path-34"></path>
        <path d="M3.64121291,14.8283512 L6.72779097,17.1018286 C10.1144685,12.182358 11.9572981,9.3858803 12.2562797,8.71239536 C12.7047521,7.70216801 12.2562797,6.00684182 12.2562797,5.44229205 C12.2562797,4.87774227 12.5896063,3.63237901 13.0740384,3.26700538 C13.5584706,2.90163175 13.6154392,3.08947229 13.909266,3.08947229 C15.4281405,3.63985853 17.7701027,1.15761555 18.3431849,0.94718663 C18.9162672,0.73675771 19.1065847,1.97209318 19.1148726,2.72757196 C19.122871,3.48305074 18.7868881,5.26014243 18.205908,6.25584938 C17.6249278,7.25155633 15.6938847,8.83760244 15.6938847,9.2773178 C15.6938847,9.7170331 12.4849715,16.3684728 11.3208438,19.0583755 C10.1567161,21.7482781 9.0588412,23.564526 6.72779097,22.8108614 C5.17375748,22.3084183 2.97766508,20.7697252 0.13951376,18.194782 C0.69421326,16.8825934 1.24044156,16.0199315 1.77819866,15.6067964 C2.31595576,15.1936613 2.93696051,14.9341796 3.64121291,14.8283512 Z" id="path-36"></path>
        <linearGradient x1="22.1069515%" y1="11.2137508%" x2="22.1069515%" y2="79.6109734%" id="linearGradient-38">
            <stop stop-color="#D6E3FA" offset="0%"></stop>
            <stop stop-color="#E3EDFE" offset="100%"></stop>
        </linearGradient>
        <linearGradient x1="59.9335239%" y1="-8.55150322%" x2="50%" y2="83.4952363%" id="linearGradient-39">
            <stop stop-color="#9CB4E0" offset="0%"></stop>
            <stop stop-color="#FFFFFF" stop-opacity="0" offset="100%"></stop>
        </linearGradient>
        <linearGradient x1="0%" y1="0%" x2="100%" y2="100%" id="linearGradient-40">
            <stop stop-color="#FFD701" offset="0%"></stop>
            <stop stop-color="#F9B62B" offset="100%"></stop>
        </linearGradient>
        <linearGradient x1="7.29737619%" y1="-11.3125166%" x2="77.8835861%" y2="85.4494883%" id="linearGradient-41">
            <stop stop-color="#85A6DB" offset="0%"></stop>
            <stop stop-color="#C6D4EE" offset="100%"></stop>
        </linearGradient>
        <linearGradient x1="25.6989511%" y1="16.8294996%" x2="83.6757278%" y2="100%" id="linearGradient-42">
            <stop stop-color="#EDF3FD" offset="0%"></stop>
            <stop stop-color="#D0DAEA" offset="100%"></stop>
        </linearGradient>
        <linearGradient x1="19.7099785%" y1="16.8294996%" x2="91.975082%" y2="100%" id="linearGradient-43">
            <stop stop-color="#EDF3FD" offset="0%"></stop>
            <stop stop-color="#D0DAEA" offset="100%"></stop>
        </linearGradient>
        <polygon id="path-44" points="0 0 31.3942174 6.78521323 31.3942174 35.8791056 0.590433149 26.9281783"></polygon>
        <linearGradient x1="86.7100925%" y1="50%" x2="50%" y2="100%" id="linearGradient-46">
            <stop stop-color="#B4C9E7" offset="0%"></stop>
            <stop stop-color="#BECFEC" stop-opacity="0.101788949" offset="100%"></stop>
        </linearGradient>
        <linearGradient x1="50%" y1="0%" x2="50%" y2="100%" id="linearGradient-47">
            <stop stop-color="#EDF3FD" offset="0%"></stop>
            <stop stop-color="#D6E3FA" offset="100%"></stop>
        </linearGradient>
        <linearGradient x1="50%" y1="-17.2163424%" x2="82.8314148%" y2="127.70883%" id="linearGradient-48">
            <stop stop-color="#E5ECF8" offset="0%"></stop>
            <stop stop-color="#C6D4EE" offset="100%"></stop>
        </linearGradient>
        <linearGradient x1="171.152295%" y1="0%" x2="50%" y2="100%" id="linearGradient-49">
            <stop stop-color="#47689B" offset="0%"></stop>
            <stop stop-color="#223762" offset="100%"></stop>
        </linearGradient>
        <linearGradient x1="100%" y1="144.415676%" x2="0%" y2="50%" id="linearGradient-50">
            <stop stop-color="#667FA7" offset="0%"></stop>
            <stop stop-color="#3D5586" offset="100%"></stop>
        </linearGradient>
        <linearGradient x1="100%" y1="144.415676%" x2="0%" y2="50%" id="linearGradient-51">
            <stop stop-color="#667FA7" offset="0%"></stop>
            <stop stop-color="#3D5586" offset="100%"></stop>
        </linearGradient>
        <linearGradient x1="100%" y1="144.415676%" x2="0%" y2="50%" id="linearGradient-52">
            <stop stop-color="#667FA7" offset="0%"></stop>
            <stop stop-color="#3D5586" offset="100%"></stop>
        </linearGradient>
        <linearGradient x1="100%" y1="144.415676%" x2="0%" y2="50%" id="linearGradient-53">
            <stop stop-color="#667FA7" offset="0%"></stop>
            <stop stop-color="#3D5586" offset="100%"></stop>
        </linearGradient>
        <linearGradient x1="100%" y1="144.415676%" x2="0%" y2="50%" id="linearGradient-54">
            <stop stop-color="#667FA7" offset="0%"></stop>
            <stop stop-color="#3D5586" offset="100%"></stop>
        </linearGradient>
        <linearGradient x1="171.152295%" y1="0%" x2="50%" y2="100%" id="linearGradient-55">
            <stop stop-color="#47689B" offset="0%"></stop>
            <stop stop-color="#223762" offset="100%"></stop>
        </linearGradient>
        <linearGradient x1="42.4626057%" y1="-9.21335019%" x2="70.559436%" y2="50%" id="linearGradient-56">
            <stop stop-color="#CFDDF3" offset="0%"></stop>
            <stop stop-color="#A1B8E3" offset="100%"></stop>
        </linearGradient>
        <linearGradient x1="31.669258%" y1="-9.21335019%" x2="100%" y2="50%" id="linearGradient-57">
            <stop stop-color="#CFDDF3" offset="0%"></stop>
            <stop stop-color="#A1B8E3" offset="100%"></stop>
        </linearGradient>
        <path d="M0.291880968,4.68665756 C0.944107542,3.92653779 1.19234303,2.38520633 1.19234303,0.960691576 C1.19234303,0.0110150721 2.12822867,-0.228499724 3.99999996,0.242147188 C4.13642131,1.67923596 4.336862,2.61512161 4.60132203,3.04980412 C4.99801207,3.70182788 6.83422457,3.91964236 6.83422457,3.91964236 C6.83422457,3.91964236 3.61466709,11.3147884 2.17048008,10.2273385 C0.72629307,9.13988863 -0.360345606,5.44677734 0.291880968,4.68665756 Z" id="path-58"></path>
        <linearGradient x1="31.669258%" y1="-9.21335019%" x2="100%" y2="50%" id="linearGradient-60">
            <stop stop-color="#CFDDF3" offset="0%"></stop>
            <stop stop-color="#A1B8E3" offset="100%"></stop>
        </linearGradient>
        <linearGradient x1="3.14489123%" y1="78.5431268%" x2="69.9434406%" y2="44.9121575%" id="linearGradient-61">
            <stop stop-color="#CFDDF3" offset="0%"></stop>
            <stop stop-color="#A1B8E3" offset="100%"></stop>
        </linearGradient>
        <linearGradient x1="46.1291782%" y1="71.9963887%" x2="42.3816587%" y2="1.11022302e-14%" id="linearGradient-62">
            <stop stop-color="#FFFFFF" offset="0%"></stop>
            <stop stop-color="#D6E3FA" offset="100%"></stop>
        </linearGradient>
        <linearGradient x1="39.6229642%" y1="55.1516537%" x2="42.8745388%" y2="44.8483463%" id="linearGradient-63">
            <stop stop-color="#EDF3FD" offset="0%"></stop>
            <stop stop-color="#D6E3FA" offset="100%"></stop>
        </linearGradient>
        <linearGradient x1="39.7801897%" y1="100%" x2="42.9824988%" y2="-1.11022302e-14%" id="linearGradient-64">
            <stop stop-color="#EDF3FD" offset="0%"></stop>
            <stop stop-color="#D6E3FA" offset="100%"></stop>
        </linearGradient>
        <path d="M49.0338145,0.334409591 L80.087394,7.52998035 C80.4493445,7.61384959 80.6747738,7.97525789 80.5909046,8.33720836 C80.5389575,8.56139395 80.3760209,8.74347159 80.1589574,8.81989876 L33.9151033,25.102169 C32.2139372,25.7011426 30.3665937,25.7449181 28.6389659,25.227195 L0.493836172,16.792864 C0.137933073,16.6862095 -0.0641228455,16.3112325 0.0425316471,15.9553294 C0.105112555,15.7464987 0.265008383,15.5809404 0.471535762,15.5111328 L44.7489494,0.545081912 C46.1299568,0.078292507 47.6136775,0.00534298004 49.0338145,0.334409591 Z" id="path-65"></path>
        <linearGradient x1="45.396319%" y1="137.930101%" x2="36.1324454%" y2="50%" id="linearGradient-67">
            <stop stop-color="#CFDDF3" offset="0%"></stop>
            <stop stop-color="#A1B8E3" offset="100%"></stop>
        </linearGradient>
        <path d="M49.0338145,0.334409591 L80.087394,7.52998035 C80.4493445,7.61384959 80.6747738,7.97525789 80.5909046,8.33720836 C80.5389575,8.56139395 80.3760209,8.74347159 80.1589574,8.81989876 L33.9151033,25.102169 C32.2139372,25.7011426 30.3665937,25.7449181 28.6389659,25.227195 L0.493836172,16.792864 C0.137933073,16.6862095 -0.0641228455,16.3112325 0.0425316471,15.9553294 C0.105112555,15.7464987 0.265008383,15.5809404 0.471535762,15.5111328 L44.7489494,0.545081912 C46.1299568,0.078292507 47.6136775,0.00534298004 49.0338145,0.334409591 Z" id="path-68"></path>
        <linearGradient x1="45.396319%" y1="137.930101%" x2="72.8219926%" y2="-108.673142%" id="linearGradient-70">
            <stop stop-color="#CFDDF3" offset="0%"></stop>
            <stop stop-color="#A1B8E3" offset="100%"></stop>
        </linearGradient>
        <path d="M49.0338145,0.334409591 L80.087394,7.52998035 C80.4493445,7.61384959 80.6747738,7.97525789 80.5909046,8.33720836 C80.5389575,8.56139395 80.3760209,8.74347159 80.1589574,8.81989876 L33.9151033,25.102169 C32.2139372,25.7011426 30.3665937,25.7449181 28.6389659,25.227195 L0.493836172,16.792864 C0.137933073,16.6862095 -0.0641228455,16.3112325 0.0425316471,15.9553294 C0.105112555,15.7464987 0.265008383,15.5809404 0.471535762,15.5111328 L44.7489494,0.545081912 C46.1299568,0.078292507 47.6136775,0.00534298004 49.0338145,0.334409591 Z" id="path-71"></path>
    </defs>
    <g id="Page-1" stroke="none" stroke-width="1" fill="none" fill-rule="evenodd">
        <g id="3">
            <rect id="floor" fill="url(#linearGradient-1)" fill-rule="nonzero" x="0" y="122.934688" width="260.123515" height="139.704267"></rect>
            <polyline id="phone-stack-shadow" fill="url(#linearGradient-2)" fill-rule="nonzero" opacity="0.5" points="0 137.506455 77.3013142 119.419374 174.811367 154.758821 101.751003 184.931055"></polyline>
            <g id="ladder-shadow-on-floor" stroke-linecap="round" transform="translate(89.025031, 135.268130)" stroke-width="2.46668851">
                <path d="M22.3123188,2.13032189 L38.0094275,8.40916537" id="Line-5" stroke="url(#linearGradient-4)"></path>
                <path d="M0.112122205,11.9970759 L26.1244737,0.112122205" id="Line-3" stroke="url(#linearGradient-5)"></path>
                <path d="M20.9668523,24.7790073 L42.0458268,4.5970104" id="Line-3-Copy" stroke="url(#linearGradient-6)"></path>
            </g>
            <g id="phone-stack" transform="translate(78.485543, 27.630814)">
                <path d="M154.553501,91.8486017 L154.553501,101.033066 C154.553501,102.259472 153.113194,104.700198 151.960408,105.118714 L103.568263,126.071041 C99.111173,127.689178 94.2558651,127.852817 89.6999405,126.538446 L2.00718612,94.2877642 C0.951272531,93.9831362 0.22424441,93.0167117 0.22424441,91.9177341 L0.22424441,82.5089925 L52.9544159,81.1819324 C55.0662674,80.8773148 57.2107858,80.8756657 59.3231033,81.177035 L154.553501,91.8486017 Z" id="phone" fill="url(#linearGradient-7)" fill-rule="nonzero"></path>
                <g id="phone" transform="translate(0.000000, 69.000000)">
                    <g id="path-5-link" fill="#000000" fill-rule="nonzero">
                        <path d="M154.553501,11.1878924 L154.553501,21.9420675 C154.553501,23.1684737 153.785927,24.2637327 152.633141,24.6822494 L103.568263,45.410332 C99.111173,47.028469 94.2558651,47.192108 89.6999405,45.877737 L2.00718612,14.2997881 C0.951272531,13.9951601 0.22424441,13.0287356 0.22424441,11.929758 L0.22424441,1.8482832 L52.9544159,0.5212231 C55.0662674,0.2166055 57.2107858,0.2149564 59.3231033,0.5163257 L154.553501,11.1878924 Z" id="path-5"></path>
                    </g>
                    <g id="path-5-link" fill="url(#linearGradient-7)">
                        <path d="M154.553501,11.1878924 L154.553501,21.9420675 C154.553501,23.1684737 153.785927,24.2637327 152.633141,24.6822494 L103.568263,45.410332 C99.111173,47.028469 94.2558651,47.192108 89.6999405,45.877737 L2.00718612,14.2997881 C0.951272531,13.9951601 0.22424441,13.0287356 0.22424441,11.929758 L0.22424441,1.8482832 L52.9544159,0.5212231 C55.0662674,0.2166055 57.2107858,0.2149564 59.3231033,0.5163257 L154.553501,11.1878924 Z" id="path-5"></path>
                    </g>
                </g>
                <g id="phone" transform="translate(0.000000, 57.000000)">
                    <g id="path-7-link" fill="#000000" fill-rule="nonzero">
                        <path d="M154.553501,11.7514275 L154.553501,22.5056026 C154.553501,23.7320088 153.785927,24.8272678 152.633141,25.2457845 L103.568263,45.973867 C99.111173,47.592004 94.2558651,47.755643 89.6999405,46.441272 L2.00718612,14.8633232 C0.951272531,14.5586952 0.22424441,13.5922707 0.22424441,12.4932931 L0.22424441,2.4118183 L52.9544159,1.0847582 C55.0662674,0.7801406 57.2107858,0.7784915 59.3231033,1.0798608 L154.553501,11.7514275 Z" id="path-7"></path>
                    </g>
                    <g id="path-7-link" fill="url(#linearGradient-7)">
                        <path d="M154.553501,11.7514275 L154.553501,22.5056026 C154.553501,23.7320088 153.785927,24.8272678 152.633141,25.2457845 L103.568263,45.973867 C99.111173,47.592004 94.2558651,47.755643 89.6999405,46.441272 L2.00718612,14.8633232 C0.951272531,14.5586952 0.22424441,13.5922707 0.22424441,12.4932931 L0.22424441,2.4118183 L52.9544159,1.0847582 C55.0662674,0.7801406 57.2107858,0.7784915 59.3231033,1.0798608 L154.553501,11.7514275 Z" id="path-7"></path>
                    </g>
                </g>
                <g id="phone" transform="translate(0.000000, 45.000000)">
                    <g id="path-9-link" fill="#000000" fill-rule="nonzero">
                        <path d="M154.553501,11.6422294 L154.553501,22.3964045 C154.553501,23.6228106 153.785927,24.7180697 152.633141,25.1365864 L103.568263,45.8646685 C99.111173,47.4828061 94.2558651,47.646445 89.6999405,46.3320739 L2.00718612,14.7541251 C0.951272531,14.4494971 0.22424441,13.4830726 0.22424441,12.384095 L0.22424441,2.3026202 L52.9544159,0.97556 C55.0662674,0.6709424 57.2107858,0.6692933 59.3231033,0.9706626 L154.553501,11.6422294 Z" id="path-9"></path>
                    </g>
                    <g id="path-9-link" fill="url(#linearGradient-10)">
                        <path d="M154.553501,11.6422294 L154.553501,22.3964045 C154.553501,23.6228106 153.785927,24.7180697 152.633141,25.1365864 L103.568263,45.8646685 C99.111173,47.4828061 94.2558651,47.646445 89.6999405,46.3320739 L2.00718612,14.7541251 C0.951272531,14.4494971 0.22424441,13.4830726 0.22424441,12.384095 L0.22424441,2.3026202 L52.9544159,0.97556 C55.0662674,0.6709424 57.2107858,0.6692933 59.3231033,0.9706626 L154.553501,11.6422294 Z" id="path-9"></path>
                    </g>
                </g>
                <g id="phone" transform="translate(0.000000, 34.000000)">
                    <g id="path-11-link" fill="#000000" fill-rule="nonzero">
                        <path d="M154.553501,10.9815201 L154.553501,21.7356952 C154.553501,22.9621013 153.785927,24.0573604 152.633141,24.4758771 L103.568263,45.2039592 C99.111173,46.8220968 94.2558651,46.9857357 89.6999405,45.6713646 L2.00718612,14.0934157 C0.951272531,13.7887877 0.22424441,12.8223633 0.22424441,11.7233857 L0.22424441,1.6419109 L52.9544159,0.3148507 C55.0662674,0.0102331 57.2107858,0.008584 59.3231033,0.3099533 L154.553501,10.9815201 Z" id="path-11"></path>
                    </g>
                    <g id="path-11-link" fill="url(#linearGradient-10)">
                        <path d="M154.553501,10.9815201 L154.553501,21.7356952 C154.553501,22.9621013 153.785927,24.0573604 152.633141,24.4758771 L103.568263,45.2039592 C99.111173,46.8220968 94.2558651,46.9857357 89.6999405,45.6713646 L2.00718612,14.0934157 C0.951272531,13.7887877 0.22424441,12.8223633 0.22424441,11.7233857 L0.22424441,1.6419109 L52.9544159,0.3148507 C55.0662674,0.0102331 57.2107858,0.008584 59.3231033,0.3099533 L154.553501,10.9815201 Z" id="path-11"></path>
                    </g>
                </g>
                <g id="phone" transform="translate(0.000000, 22.000000)">
                    <g id="path-13-link" fill="#000000" fill-rule="nonzero">
                        <path d="M154.553501,11.7692996 L154.553501,23.4204523 C154.553501,24.6468585 153.785927,25.7421175 152.633141,26.1606342 L103.568263,45.7674943 C99.111173,47.3856318 94.2558651,47.5492707 89.6999405,46.2348997 L2.00718612,16.6751505 C0.951272531,16.3705225 0.22424441,15.404098 0.22424441,14.3051205 L0.22424441,2.205446 L52.9544159,0.8783858 C55.0662674,0.5737682 57.2107858,0.5721191 59.3231033,0.8734884 L154.553501,11.7692996 Z" id="path-13"></path>
                    </g>
                    <g id="path-13-link" fill="url(#linearGradient-7)">
                        <path d="M154.553501,11.7692996 L154.553501,23.4204523 C154.553501,24.6468585 153.785927,25.7421175 152.633141,26.1606342 L103.568263,45.7674943 C99.111173,47.3856318 94.2558651,47.5492707 89.6999405,46.2348997 L2.00718612,16.6751505 C0.951272531,16.3705225 0.22424441,15.404098 0.22424441,14.3051205 L0.22424441,2.205446 L52.9544159,0.8783858 C55.0662674,0.5737682 57.2107858,0.5721191 59.3231033,0.8734884 L154.553501,11.7692996 Z" id="path-13"></path>
                    </g>
                </g>
                <g id="side" transform="translate(0.000000, 10.000000)">
                    <g id="path-15-link" fill="#000000" fill-rule="nonzero">
                        <path d="M154.509892,14.7283136 L154.509892,25.2582443 C154.509892,26.4846504 153.742318,27.5799095 152.589532,27.9984262 L103.524654,46.0355754 C99.0675645,47.653713 94.2122566,47.8173518 89.656332,46.5029808 L1.96357762,18.7371869 C0.907664032,18.4325589 0.180635911,17.4661344 0.180635911,16.3671568 L0.180635911,6.5099264 L52.9108074,1.1464669 C55.0226589,0.8418493 57.1671773,0.8402002 59.2794948,1.1415695 L154.509892,14.7283136 Z" id="path-15"></path>
                    </g>
                    <g id="path-15-link" fill="url(#linearGradient-11)">
                        <path d="M154.509892,14.7283136 L154.509892,25.2582443 C154.509892,26.4846504 153.742318,27.5799095 152.589532,27.9984262 L103.524654,46.0355754 C99.0675645,47.653713 94.2122566,47.8173518 89.656332,46.5029808 L1.96357762,18.7371869 C0.907664032,18.4325589 0.180635911,17.4661344 0.180635911,16.3671568 L0.180635911,6.5099264 L52.9108074,1.1464669 C55.0226589,0.8418493 57.1671773,0.8402002 59.2794948,1.1415695 L154.509892,14.7283136 Z" id="path-15"></path>
                    </g>
                </g>
                <path d="M61.4923894,0.706577103 L151.813069,21.6781559 C153.622632,22.0983187 154.748963,23.9058686 154.3288,25.7154316 C154.068632,26.8359292 153.253913,27.7457773 152.168829,28.1276086 L103.462432,45.2669486 C98.9566623,46.8524882 94.0623222,46.9578446 89.4924966,45.5676677 L2.05063386,18.9671649 C0.747292418,18.5706781 0.012141414,17.1926951 0.408628139,15.8893537 C0.65484926,15.0799692 1.29868461,14.4532333 2.11440205,14.228883 L50.4738979,0.928357647 C54.0710951,-0.0609953786 57.8582944,-0.137224243 61.4923894,0.706577103 Z" id="phone-top" fill="url(#linearGradient-12)" fill-rule="nonzero"></path>
                <polygon id="screen" fill="#FFFFFF" fill-rule="nonzero" points="67.5440036 4.013605 142.660692 21.7763012 86.1451528 41.9828916 13.9031534 20.2481437"></polygon>
            </g>
            <g id="ladder-shadow-on-phones" stroke-linecap="round" transform="translate(112.916160, 65.976608)" stroke="#1B2B4F" stroke-width="2.46668851">
                <path d="M2.68183307,61.5550905 L16.398193,66.2700892" id="Line-6"></path>
                <path d="M2.68183307,50.5671144 L16.398193,55.2821132" id="Line-6-Copy"></path>
                <path d="M2.68183307,38.9064051 L16.398193,43.6214038" id="Line-6-Copy-2"></path>
                <path d="M2.68183307,26.5729626 L16.398193,31.2879613" id="Line-6-Copy-3"></path>
                <path d="M2.45758866,13.3425424 L16.5849865,17.6031862" id="Line-6-Copy-4"></path>
                <path d="M17.4819641,72.9915554 L17.4819641,4.5970104" id="Line-4"></path>
                <path d="M1.33636661,67.1612008 L1.33636661,0.112122205" id="Line-4-Copy"></path>
            </g>
            <g id="person" transform="translate(42.382193, 127.643820)">
                <g id="Group-4" transform="translate(21.975952, 0.448489)" fill-rule="nonzero">
                    <path d="M10.0675779,9.92078883 L8.48383924,11.5045275 C7.9584019,12.0299648 7.10649966,12.0299648 6.58106232,11.5045275 L4.99732366,9.92078883 L1.34546646,9.92078883 C0.602385852,9.92078883 0,9.31840298 0,8.57532237 L0,1.34546646 C0,0.602385852 0.602385852,0 1.34546646,0 L13.9031534,0 C14.646234,0 15.2486199,0.602385852 15.2486199,1.34546646 L15.2486199,8.57532237 C15.2486199,9.31840298 14.646234,9.92078883 13.9031534,9.92078883 L10.0675779,9.92078883 Z" id="Combined-Shape" fill="url(#linearGradient-13)"></path>
                    <path d="M10.7566489,4.13972531 C10.7397229,4.09381174 10.696589,4.06065194 10.645265,4.05427506 L8.6682018,3.8094027 L7.74655509,2.0830526 C7.70069115,1.99658205 7.54808436,1.99658205 7.50222043,2.0830526 L6.58057371,3.8094027 L4.60351047,4.05427506 C4.55218654,4.06065194 4.5087796,4.09381174 4.49212662,4.13972531 C4.47547365,4.18563887 4.48803163,4.23639887 4.52488658,4.27083405 L5.97478756,5.62553934 L5.57975711,7.47151979 C5.56965612,7.51947396 5.58931209,7.56819335 5.63080804,7.59803717 C5.67230398,7.62762592 5.7285419,7.63247235 5.77467884,7.61079094 L7.62452426,6.74659559 L9.47436968,7.61079094 C9.49375265,7.61971858 9.51450062,7.62430994 9.5355216,7.62430994 C9.56473255,7.62430994 9.59421651,7.6153823 9.61851348,7.59803717 C9.65973642,7.56844843 9.67966539,7.51947396 9.66956441,7.47151979 L9.27453396,5.62553934 L10.7244349,4.27083405 C10.7604709,4.23665395 10.7730289,4.18589395 10.7566489,4.13972531 Z" id="Shape" fill="#FFFFFF"></path>
                </g>
                <g id="Group-7" transform="translate(0.001395, 0.029433)">
                    <g id="Path-7" transform="translate(0.127011, 29.847599)">
                        <g id="Mask" fill="url(#linearGradient-15)" fill-rule="nonzero">
                            <path d="M0.775153687,1.59007217 C0.775153687,3.85978579 -1.09433438,8.30746947 1.34348672,9.46058857 C2.96870078,10.2293346 4.49990459,8.61732602 5.93709815,4.62456273 C5.81321842,1.69263757 5.01664658,0.226674993 3.54738264,0.226674993 C1.34348672,0.226674993 0.775153687,-0.679641459 0.775153687,1.59007217 Z" id="path-20"></path>
                        </g>
                        <g id="Clipped">
                            <mask id="mask-17" fill="white">
                                <use xlink:href="#path-16"></use>
                            </mask>
                            <g id="path-20"></g>
                            <path d="M0.634827412,2.60641837 C0.831419942,3.00591684 3.51040966,5.11924269 3.9534005,5.61896652 C4.39639134,6.11869035 4.49766894,7.42486444 4.75204669,7.28991533 C4.92163186,7.19994926 4.92163186,5.87781627 4.75204669,3.32351637 C1.87617215,2.57911873 0.503765726,2.34008606 0.634827412,2.60641837 Z" id="Path" fill="#3D82F0" fill-rule="nonzero" opacity="0.5" style="mix-blend-mode: multiply;" mask="url(#mask-17)"></path>
                        </g>
                    </g>
                    <g id="Group-10" transform="translate(4.923654, 81.630435)">
                        <path d="M0.134669949,1.64400788 C0.134669949,2.81691112 -0.168337436,4.28251897 0.134669949,4.86500949 C0.437677334,5.4475 1.93953184,5.75375575 2.43500258,5.75375575 C2.93047333,5.75375575 3.0961952,4.91817165 3.86567201,5.34805549 C4.63514881,5.77793933 9.02075228,5.75375575 9.30568091,4.00951563 C9.59060955,2.26527551 7.36729992,2.26527551 6.37842996,2.26527551 C5.38955999,2.26527551 4.34231072,1.78368886 2.87397723,0.533231408 C1.40564375,-0.717226043 0.134669949,0.471104646 0.134669949,1.64400788 Z" id="Path-90" fill="url(#linearGradient-18)" fill-rule="nonzero"></path>
                        <g id="Group-9" stroke-linecap="round" transform="translate(4.483065, 1.329666)" stroke="#FFFFFF" stroke-width="0.5">
                            <path d="M0.091498117,1.57014738 C0.31623057,0.782609773 0.31623057,0.479174913 0.950496926,0.179880179" id="Path-14" transform="translate(0.520998, 0.875014) scale(-1, 1) translate(-0.520998, -0.875014) "></path>
                            <path d="M0.8324275,1.8241695 C1.05715995,1.0366319 1.37601434,0.773232637 2.22060937,1.0366319" id="Path-14-Copy" transform="translate(1.526518, 1.380993) scale(-1, 1) translate(-1.526518, -1.380993) "></path>
                        </g>
                    </g>
                    <g id="Group-11" transform="translate(26.926345, 84.081323)">
                        <path d="M0.149085698,1.64400788 C0.149085698,2.81691112 -0.186357123,4.28251897 0.149085698,4.86500949 C0.484528519,5.4475 2.14714909,5.75375575 2.69565752,5.75375575 C3.24416594,5.75375575 3.42762752,4.91817165 4.279473,5.34805549 C5.13131847,5.77793933 9.98637901,5.75375575 10.3018078,4.00951563 C10.6172367,2.26527551 8.15593279,2.26527551 7.0612092,2.26527551 C5.96648562,2.26527551 4.80713352,1.78368886 3.18162222,0.533231408 C1.55611093,-0.717226043 0.149085698,0.471104646 0.149085698,1.64400788 Z" id="Path-90-Copy" fill="url(#linearGradient-19)" fill-rule="nonzero"></path>
                        <g id="Group-9" stroke-linecap="round" transform="translate(5.147898, 1.456677)" stroke="#FFFFFF" stroke-width="0.5">
                            <path d="M0.05597371,1.57014738 C0.280706163,0.782609773 0.456883898,0.418553246 1.17474189,0.0877094572" id="Path-14" transform="translate(0.615358, 0.828928) scale(-1, 1) translate(-0.615358, -0.828928) "></path>
                            <path d="M0.92966015,1.69715844 C1.1543926,0.909620835 1.47324699,0.646221576 2.31784202,0.909620835" id="Path-14-Copy" transform="translate(1.623751, 1.253981) scale(-1, 1) translate(-1.623751, -1.253981) "></path>
                        </g>
                    </g>
                    <g id="Path-5" transform="translate(5.080442, 42.310772)">
                        <g id="Mask" transform="translate(0.000000, 1.000000)" fill="#F46885" fill-rule="nonzero">
                            <path d="M18.1592581,0.0726290419 C21.3513474,11.7680378 23.1551836,18.9463374 23.5707668,21.607528 C24.1941416,25.5993139 25.7196189,39.0922614 25.5042814,41.2683153 C24.4622864,42.3308256 22.5851847,41.6946463 22.2582072,41.4997647 C21.9312296,41.3048832 19.91669,30.2034148 18.1592581,25.8968508 C16.4018262,21.5902868 12.4469459,17.6267477 9.84097264,13.2938261 C9.84097264,15.1739359 9.17020284,18.629684 7.82866324,23.6610703 C5.87246471,32.5462792 4.5615185,37.7079916 3.8958246,39.1462074 C3.4220158,39.9115667 1.03013471,39.3503398 0.102388506,39.1462074 C0.102388506,37.1247866 2.10271118,26.9122738 2.10271118,23.3669783 C2.10271118,19.8216828 1.54950665,13.3966099 1.34282487,10.762672 C1.13614309,8.12873402 0.631163568,3.01864279 1.34282487,0.0726290419 C2.54551184,0.0726290419 8.15098958,0.0726290419 18.1592581,0.0726290419 Z" id="path-23"></path>
                        </g>
                        <g id="Clipped" transform="translate(8.000000, 11.000000)" stroke="#FFFFFF" stroke-linecap="round" stroke-width="0.5">
                            <path d="M0.45169424,0.5451108 C0.69948852,1.5845179 1.65348816,3.0285375 2.093865,3.8894683" id="Path"></path>
                        </g>
                        <g id="Path-6-Clipped" transform="translate(2.000000, 0.000000)" fill="#000000" fill-opacity="0.2" fill-rule="nonzero" opacity="0.5">
                            <path d="M0.45081888,4.00351306 C1.57006615,4.605463 5.95313359,7.16764163 11.600894,6.14085769 C14.3913778,5.63353731 16.1864278,4.96959478 16.99163,4.00351306 C16.99163,3.52764883 16.3147965,1.52607325 16.1257887,0.760292859 C15.936781,-0.00548753 -0.91986249,3.26633764 0.45081888,4.00351306 Z" id="Path-6" style="mix-blend-mode: multiply;"></path>
                        </g>
                    </g>
                    <g id="Path-3" transform="translate(8.890774, 5.969520)">
                        <g id="Mask" fill="url(#linearGradient-21)" fill-rule="nonzero">
                            <path d="M5.88045002,0.122808945 C6.31174736,0.958366086 6.89268225,1.55348595 7.6232547,1.90820298 C8.35382715,2.26292001 8.90166377,2.52705718 9.26676457,2.70061449 L8.80088557,4.50766875 C9.37978079,6.27920275 9.53507379,7.46360161 9.26676457,8.06086533 C8.86430074,8.95676092 7.6232547,9.55196123 6.90093364,10.3507649 C6.41938627,10.8833007 5.9560105,12.0528656 5.51080632,13.8594596 L0.749955541,13.8594596 L0.534384153,10.3507649 C-0.312078594,6.97548314 -0.0172536719,4.425433 1.41885892,2.70061449 C2.85497151,0.975795988 4.34216854,0.116538952 5.88045002,0.122808945 Z" id="path-26"></path>
                        </g>
                        <g id="Clipped">
                            <mask id="mask-23" fill="white">
                                <use xlink:href="#path-22"></use>
                            </mask>
                            <g id="path-26"></g>
                            <path d="M7.49417573,9.87372477 C6.29242011,9.87372477 4.41773781,8.80962528 4.05691993,8.44607192 C3.69610205,8.08251856 7.06124778,12.0155088 6.78034963,12.6419026 C6.55874587,13.1360718 5.76761135,13.2872437 6.26656546,13.2872437 C8.06606633,13.2872437 8.69593135,9.87372477 7.49417573,9.87372477 Z" id="Path" fill="#3D82F0" fill-rule="nonzero" opacity="0.5" style="mix-blend-mode: multiply;" mask="url(#mask-23)"></path>
                        </g>
                    </g>
                    <path d="M9.42537594,16.1722645 C5.22773658,12.248834 1.90392569,8.90050154 4.7704876,4.23486457 C7.63704951,-0.430772406 14.3068979,-1.99919015 15.5536229,3.67229568 C15.5536229,5.29459051 14.9547018,6.5390669 13.7568597,7.40572486 C13.5327721,7.86173055 13.7161181,8.33159618 14.3068979,8.81532175 C14.8976777,9.29904731 14.8976777,9.74079196 14.3068979,10.1405557 C13.1402846,9.39020118 12.4046517,9.51465017 12.0999993,10.5139027 C11.6430206,12.0127815 13.3298266,12.5493072 13.3298266,12.9244797 C13.7174259,13.8436515 13.511253,14.7236371 12.7113079,15.5644367 C12.3017745,15.9696552 11.2064638,16.1722645 9.42537594,16.1722645 Z" id="Path-82" fill="url(#linearGradient-24)" fill-rule="nonzero"></path>
                    <path d="M5.09566563,21.4648694 C2.10001203,26.7199633 0.421468559,29.9256954 0.0600352263,31.0820657 C-0.301398106,32.238436 1.37714536,33.1509922 5.09566563,33.8197341 L7.42327791,23.9041154 L5.09566563,21.4648694 Z" id="Path-86" fill="url(#linearGradient-25)" fill-rule="nonzero"></path>
                    <g id="Path-4" transform="translate(4.191365, 18.543615)">
                        <g id="Mask" fill="#D6E3FA" fill-rule="nonzero">
                            <path d="M10.6115669,0.207584777 C12.8678119,0.802982779 14.6606812,1.88734513 15.9901747,3.46067184 C17.984415,5.82066189 17.5400003,12.920755 18.1048482,17.1464933 C18.6696961,21.3722316 21.1274335,24.4438622 17.3311455,26.8286064 C13.5348574,29.2133506 2.80120968,28.6718184 1.9234102,26.8286064 C1.33821055,25.5997984 0.712102599,21.2091994 0.0450863634,13.6568096 C0.0450863634,6.85938442 0.444744942,3.1741724 1.2440621,2.60117351 C2.04337926,2.02817463 3.3760304,1.1879747 5.24201553,0.0805737155 C5.20017626,0.249071516 5.62931727,0.416807445 6.52943858,0.583781504 C7.42955988,0.750755562 8.79026931,0.625356653 10.6115669,0.207584777 Z" id="path-30"></path>
                        </g>
                        <g id="Clipped">
                            <mask id="mask-27" fill="white">
                                <use xlink:href="#path-26"></use>
                            </mask>
                            <g id="path-30"></g>
                            <path d="M13.4224991,8.27328731 C14.6395027,13.9618507 15.6141664,17.3392519 16.3464905,18.4054911 C17.4449765,20.0048499 18.1592227,24.8445958 19.0384722,25.4216884 C19.9177217,25.9987809 21.1807921,19.3967669 20.5492569,17.1363482 C20.1282334,15.6294024 18.9688465,13.030392 17.0710962,9.3393171 L13.4224991,8.27328731 Z" id="Path" fill="url(#linearGradient-28)" fill-rule="nonzero" opacity="0.5" mask="url(#mask-27)"></path>
                        </g>
                        <g id="Path-11-Clipped">
                            <mask id="mask-30" fill="white">
                                <use xlink:href="#path-29"></use>
                            </mask>
                            <g id="path-30"></g>
                            <path d="M6.04587284,0.665102199 C6.85832654,1.20398564 8.97528776,1.49568793 10.7546896,1.49568793 C12.5340914,1.49568793 13.0906232,1.51453161 13.9420363,1.25539941 C14.7934494,0.996267214 14.4633191,0.665102199 13.9420363,0.665102199 C13.4207535,0.665102199 11.8038859,0.285058998 10.9336326,0.285058998 C10.0633793,0.285058998 5.23341913,0.126218758 6.04587284,0.665102199 Z" id="Path-11" fill="url(#linearGradient-31)" fill-rule="nonzero" opacity="0.5" mask="url(#mask-30)"></path>
                        </g>
                    </g>
                    <path d="M9.27948924,18.7511065 C9.2096885,17.8810192 9.17478813,17.3056601 9.17478813,17.0250292 C9.17478813,16.6040829 12.6801965,17.1985231 15.2027877,17.4344471 C15.47651,18.4845016 15.4280392,18.5539715 15.4280392,18.7511065 C15.4280392,18.8496478 14.7980606,19.6943709 11.4086638,19.4204924 C10.5838224,19.3538415 9.87409749,19.1307129 9.27948924,18.7511065 Z" id="Path-8" fill="#E1ECFF" fill-rule="nonzero"></path>
                    <g id="Group-2" transform="translate(30.206138, 19.432778) rotate(-26.000000) translate(-30.206138, -19.432778) translate(15.206138, 5.932778)">
                        <path d="M6.70519053,20.1568901 C8.56406674,20.1568901 11.1342317,19.4808084 11.1342317,18.60398 C11.1342317,17.7271516 9.01947057,17.4254109 7.16059435,17.4254109 C5.30171813,17.4254109 4.48782751,18.3018723 4.25800239,18.9116292 C4.37137207,19.4302709 4.84631431,20.1568901 6.70519053,20.1568901 Z" id="Oval" fill="#A1B8E3" fill-rule="nonzero" transform="translate(7.696117, 18.791150) rotate(-40.000000) translate(-7.696117, -18.791150) "></path>
                        <g id="Path-2" transform="translate(3.064354, 0.000000)">
                            <g id="Mask" transform="translate(13.086019, 13.587408) rotate(12.000000) translate(-13.086019, -13.587408) translate(3.086019, 2.087408)" fill="url(#linearGradient-33)" fill-rule="nonzero">
                                <path d="M3.64121291,14.8283512 L6.72779097,17.1018286 C10.1144685,12.182358 11.9572981,9.3858803 12.2562797,8.71239536 C12.7047521,7.70216801 12.2562797,6.00684182 12.2562797,5.44229205 C12.2562797,4.87774227 12.5896063,3.63237901 13.0740384,3.26700538 C13.5584706,2.90163175 13.6154392,3.08947229 13.909266,3.08947229 C15.4281405,3.63985853 17.7701027,1.15761555 18.3431849,0.94718663 C18.9162672,0.73675771 19.1065847,1.97209318 19.1148726,2.72757196 C19.122871,3.48305074 18.7868881,5.26014243 18.205908,6.25584938 C17.6249278,7.25155633 15.6938847,8.83760244 15.6938847,9.2773178 C15.6938847,9.7170331 12.4849715,16.3684728 11.3208438,19.0583755 C10.1567161,21.7482781 9.0588412,23.564526 6.72779097,22.8108614 C5.17375748,22.3084183 2.97766508,20.7697252 0.13951376,18.194782 C0.69421326,16.8825934 1.24044156,16.0199315 1.77819866,15.6067964 C2.31595576,15.1936613 2.93696051,14.9341796 3.64121291,14.8283512 Z" id="path-34"></path>
                            </g>
                            <g id="Clipped" transform="translate(3.000000, 2.000000)">
                                <mask id="mask-35" fill="white">
                                    <use xlink:href="#path-34"></use>
                                </mask>
                                <g id="path-34"></g>
                                <path d="M4.04971413,14.3799872 C2.31504359,16.7939343 1.3999897,18.4572228 1.30455248,19.3698529 C1.20911526,20.2824829 0.65339584,19.8142562 -0.36260578,17.9651725 C0.21794393,16.8514017 0.75234167,16.0961568 1.24058744,15.6994377 C1.72883321,15.3027186 2.66520877,14.8629017 4.04971413,14.3799872 Z" id="Path" fill="#3D82F0" fill-rule="nonzero" opacity="0.5" style="mix-blend-mode: multiply;" mask="url(#mask-35)"></path>
                            </g>
                            <g id="Path-9-Clipped" transform="translate(3.000000, 2.000000)">
                                <mask id="mask-37" fill="white">
                                    <use xlink:href="#path-36"></use>
                                </mask>
                                <g id="path-34"></g>
                                <path d="M5.69941902,16.2600782 C5.83865947,16.429944 6.11615784,16.723965 6.21509537,17.2948418" id="Path-9" stroke="#223762" stroke-width="0.5" stroke-linecap="round" mask="url(#mask-37)"></path>
                            </g>
                        </g>
                        <path d="M5.11712719,21.0678865 C6.3516456,19.4473969 8.07397454,17.2286501 10.2320083,16.4504878 C6.18340338,11.7392827 4.95015217,10.1675338 3.67414506,8.69286439 C2.39813794,7.21819493 -1.28050022,11.0381172 0.697667082,14.7955486 C2.67583439,18.55298 4.4459098,20.2727636 5.11712719,21.0678865 Z" id="Path-85" fill="url(#linearGradient-38)" fill-rule="nonzero"></path>
                    </g>
                </g>
            </g>
            <polyline id="shadow" fill="url(#linearGradient-39)" fill-rule="nonzero" opacity="0.5" points="67.273323 221.34693 123.77343 210.838496 179.6932 215.480767 110.119333 251.117277"></polyline>
            <g id="like-box" transform="translate(112.346449, 165.438103)">
                <g id="Group-4-Copy-10" transform="translate(19.957752, 19.388042)" fill-rule="nonzero">
                    <path d="M9.90331485,9.92078883 L8.34632204,11.4777816 C7.82088471,12.003219 6.96898246,12.003219 6.44354513,11.4777816 L4.88655232,9.92078883 L1.34546646,9.92078883 C0.602385852,9.92078883 0,9.31840298 0,8.57532237 L0,1.34546646 C0,0.602385852 0.602385852,-2.22044605e-16 1.34546646,-2.22044605e-16 L13.678909,-2.22044605e-16 C14.4219896,-2.22044605e-16 15.0243755,0.602385852 15.0243755,1.34546646 L15.0243755,8.57532237 C15.0243755,9.31840298 14.4219896,9.92078883 13.678909,9.92078883 L9.90331485,9.92078883 Z" id="Combined-Shape" fill="url(#linearGradient-40)"></path>
                    <path d="M7.53169017,8.04257126 C1.4590874,4.68050785 5.85097864,0.500652585 7.53169017,3.31570714 C9.21266985,0.500652585 13.6048292,4.68050785 7.53169017,8.04257126 Z" id="Path" fill="#FFFFFF"></path>
                </g>
                <g id="Group-4-Copy" transform="translate(19.662009, 16.091342) rotate(-12.000000) translate(-19.662009, -16.091342) translate(11.662009, 10.091342)" fill-rule="nonzero">
                    <path d="M9.90331485,9.92078883 L8.34632204,11.4777816 C7.82088471,12.003219 6.96898246,12.003219 6.44354513,11.4777816 L4.88655232,9.92078883 L1.34546646,9.92078883 C0.602385852,9.92078883 1.8189894e-12,9.31840298 1.8189894e-12,8.57532237 L1.8189894e-12,1.34546646 C1.8189894e-12,0.602385852 0.602385852,-2.22044605e-16 1.34546646,-2.22044605e-16 L13.678909,-2.22044605e-16 C14.4219896,-2.22044605e-16 15.0243755,0.602385852 15.0243755,1.34546646 L15.0243755,8.57532237 C15.0243755,9.31840298 14.4219896,9.92078883 13.678909,9.92078883 L9.90331485,9.92078883 Z" id="Combined-Shape" fill="url(#linearGradient-40)"></path>
                    <path d="M10.7558791,4.51377384 C10.7389531,4.46786027 10.6958192,4.43470047 10.6444953,4.42832359 L8.66743203,4.18345124 L7.74578532,2.45710113 C7.69992138,2.37063058 7.5473146,2.37063058 7.50145066,2.45710113 L6.57980394,4.18345124 L4.6027407,4.42832359 C4.55141677,4.43470047 4.50800983,4.46786027 4.49135685,4.51377384 C4.47470388,4.55968741 4.48726186,4.6104474 4.52411681,4.64488258 L5.97401779,5.99958787 L5.57898734,7.84556832 C5.56888635,7.89352249 5.58854233,7.94224189 5.63003827,7.9720857 C5.67153421,8.00167445 5.72777213,8.00652088 5.77390907,7.98483947 L7.62375449,7.12064412 L9.47359991,7.98483947 C9.49298288,7.99376711 9.51373086,7.99835847 9.53475183,7.99835847 C9.56396279,7.99835847 9.59344674,7.98943083 9.61774371,7.9720857 C9.65896665,7.94249696 9.67889562,7.89352249 9.66879464,7.84556832 L9.27376419,5.99958787 L10.7236652,4.64488258 C10.7597011,4.61070248 10.7722591,4.55994248 10.7558791,4.51377384 Z" id="Shape" fill="#FFFFFF"></path>
                </g>
                <g id="Group-4-Copy-8" transform="translate(47.764059, 22.527463)" fill-rule="nonzero">
                    <path d="M9.90331485,9.92078883 L8.34632204,11.4777816 C7.82088471,12.003219 6.96898246,12.003219 6.44354513,11.4777816 L4.88655232,9.92078883 L1.34546646,9.92078883 C0.602385852,9.92078883 0,9.31840298 0,8.57532237 L0,1.34546646 C0,0.602385852 0.602385852,-2.22044605e-16 1.34546646,-2.22044605e-16 L13.678909,-2.22044605e-16 C14.4219896,-2.22044605e-16 15.0243755,0.602385852 15.0243755,1.34546646 L15.0243755,8.57532237 C15.0243755,9.31840298 14.4219896,9.92078883 13.678909,9.92078883 L9.90331485,9.92078883 Z" id="Combined-Shape" fill="url(#linearGradient-40)"></path>
                    <path d="M10.5324045,4.36396972 C10.5154785,4.31805615 10.4723446,4.28489635 10.4210206,4.27851947 L8.44395739,4.03364711 L7.52231068,2.30729701 C7.47644674,2.22082646 7.32383995,2.22082646 7.27797602,2.30729701 L6.3563293,4.03364711 L4.37926606,4.27851947 C4.32794213,4.28489635 4.28453519,4.31805615 4.26788221,4.36396972 C4.25122924,4.40988328 4.26378722,4.46064328 4.30064217,4.49507846 L5.75054315,5.84978375 L5.3555127,7.6957642 C5.34541171,7.74371837 5.36506768,7.79243776 5.40656363,7.82228158 C5.44805957,7.85187032 5.50429749,7.85671676 5.55043443,7.83503535 L7.40027985,6.97084 L9.25012527,7.83503535 C9.26950824,7.84396299 9.29025621,7.84855435 9.31127719,7.84855435 C9.34048814,7.84855435 9.3699721,7.83962671 9.39426907,7.82228158 C9.43549201,7.79269284 9.45542098,7.74371837 9.44532,7.6957642 L9.05028955,5.84978375 L10.5001905,4.49507846 C10.5362265,4.46089836 10.5487845,4.41013836 10.5324045,4.36396972 Z" id="Shape" fill="#FFFFFF"></path>
                </g>
                <g id="Group-4-Copy-9" transform="translate(28.927529, 20.509264)" fill-rule="nonzero">
                    <path d="M9.90331485,9.92078883 L8.34632204,11.4777816 C7.82088471,12.003219 6.96898246,12.003219 6.44354513,11.4777816 L4.88655232,9.92078883 L1.34546646,9.92078883 C0.602385852,9.92078883 -6.66133815e-16,9.31840298 -6.66133815e-16,8.57532237 L-6.66133815e-16,1.34546646 C-6.66133815e-16,0.602385852 0.602385852,0 1.34546646,0 L13.678909,0 C14.4219896,0 15.0243755,0.602385852 15.0243755,1.34546646 L15.0243755,8.57532237 C15.0243755,9.31840298 14.4219896,9.92078883 13.678909,9.92078883 L9.90331485,9.92078883 Z" id="Combined-Shape" fill="url(#linearGradient-40)"></path>
                    <path d="M7.53169017,8.04257126 C1.4590874,4.68050785 5.85097864,0.500652585 7.53169017,3.31570714 C9.21266985,0.500652585 13.6048292,4.68050785 7.53169017,8.04257126 Z" id="Path" fill="#FFFFFF"></path>
                </g>
                <g id="Group-4-Copy-6" transform="translate(62.491172, 20.341554) rotate(13.000000) translate(-62.491172, -20.341554) translate(54.491172, 14.341554)" fill-rule="nonzero">
                    <path d="M9.90331485,9.92078883 L8.34632204,11.4777816 C7.82088471,12.003219 6.96898246,12.003219 6.44354513,11.4777816 L4.88655232,9.92078883 L1.34546646,9.92078883 C0.602385852,9.92078883 -6.66133815e-16,9.31840298 -6.66133815e-16,8.57532237 L-6.66133815e-16,1.34546646 C-6.66133815e-16,0.602385852 0.602385852,0 1.34546646,0 L13.678909,0 C14.4219896,0 15.0243755,0.602385852 15.0243755,1.34546646 L15.0243755,8.57532237 C15.0243755,9.31840298 14.4219896,9.92078883 13.678909,9.92078883 L9.90331485,9.92078883 Z" id="Combined-Shape" fill="url(#linearGradient-40)"></path>
                    <path d="M10.8356395,4.25393625 C10.8187135,4.20802269 10.7755796,4.17486289 10.7242557,4.168486 L8.74719241,3.92361365 L7.8255457,2.19726355 C7.77968176,2.110793 7.62707498,2.110793 7.58121104,2.19726355 L6.65956432,3.92361365 L4.68250108,4.168486 C4.63117715,4.17486289 4.58777021,4.20802269 4.57111723,4.25393625 C4.55446426,4.29984982 4.56702224,4.35060982 4.60387719,4.38504499 L6.05377817,5.73975028 L5.65874772,7.58573073 C5.64864673,7.6336849 5.66830271,7.6824043 5.70979865,7.71224812 C5.75129459,7.74183686 5.80753251,7.74668329 5.85366945,7.72500189 L7.70351487,6.86080653 L9.55336029,7.72500189 C9.57274326,7.73392952 9.59349124,7.73852088 9.61451221,7.73852088 C9.64372317,7.73852088 9.67320712,7.72959324 9.69750409,7.71224812 C9.73872703,7.68265937 9.75865601,7.6336849 9.74855502,7.58573073 L9.35352457,5.73975028 L10.8034255,4.38504499 C10.8394615,4.35086489 10.8520195,4.3001049 10.8356395,4.25393625 Z" id="Shape" fill="#FFFFFF"></path>
                </g>
                <g id="Group-4-Copy-2" transform="translate(31.543172, 13.182715) rotate(15.000000) translate(-31.543172, -13.182715) translate(23.543172, 7.182715)" fill-rule="nonzero">
                    <path d="M9.90331485,9.92078883 L8.34632204,11.4777816 C7.82088471,12.003219 6.96898246,12.003219 6.44354513,11.4777816 L4.88655232,9.92078883 L1.34546646,9.92078883 C0.602385852,9.92078883 -2.22044605e-16,9.31840298 -2.22044605e-16,8.57532237 L-2.22044605e-16,1.34546646 C-2.22044605e-16,0.602385852 0.602385852,-2.22044605e-16 1.34546646,-2.22044605e-16 L13.678909,-2.22044605e-16 C14.4219896,-2.22044605e-16 15.0243755,0.602385852 15.0243755,1.34546646 L15.0243755,8.57532237 C15.0243755,9.31840298 14.4219896,9.92078883 13.678909,9.92078883 L9.90331485,9.92078883 Z" id="Combined-Shape" fill="url(#linearGradient-40)"></path>
                    <path d="M10.8259125,4.0934752 C10.8089865,4.04756163 10.7658526,4.01440184 10.7145287,4.00802495 L8.73746542,3.7631526 L7.81581871,2.03680249 C7.76995477,1.95033194 7.61734799,1.95033194 7.57148405,2.03680249 L6.64983733,3.7631526 L4.67277409,4.00802495 C4.62145016,4.01440184 4.57804322,4.04756163 4.56139024,4.0934752 C4.54473727,4.13938877 4.55729525,4.19014877 4.5941502,4.22458394 L6.04405118,5.57928923 L5.64902073,7.42526968 C5.63891974,7.47322385 5.65857571,7.52194325 5.70007166,7.55178707 C5.7415676,7.58137581 5.79780552,7.58622224 5.84394246,7.56454083 L7.69378788,6.70034548 L9.5436333,7.56454083 C9.56301627,7.57346847 9.58376424,7.57805983 9.60478522,7.57805983 C9.63399617,7.57805983 9.66348013,7.56913219 9.6877771,7.55178707 C9.72900004,7.52219832 9.74892901,7.47322385 9.73882803,7.42526968 L9.34379758,5.57928923 L10.7936986,4.22458394 C10.8297345,4.19040384 10.8422925,4.13964384 10.8259125,4.0934752 Z" id="Shape" fill="#FFFFFF"></path>
                </g>
                <g id="Group-4-Copy-3" transform="translate(31.304527, 22.837474) rotate(-10.000000) translate(-31.304527, -22.837474) translate(23.304527, 16.837474)" fill-rule="nonzero">
                    <path d="M9.90331485,9.92078883 L8.34632204,11.4777816 C7.82088471,12.003219 6.96898246,12.003219 6.44354513,11.4777816 L4.88655232,9.92078883 L1.34546646,9.92078883 C0.602385852,9.92078883 0,9.31840298 0,8.57532237 L0,1.34546646 C0,0.602385852 0.602385852,-9.09494702e-13 1.34546646,-9.09494702e-13 L13.678909,-9.09494702e-13 C14.4219896,-9.09494702e-13 15.0243755,0.602385852 15.0243755,1.34546646 L15.0243755,8.57532237 C15.0243755,9.31840298 14.4219896,9.92078883 13.678909,9.92078883 L9.90331485,9.92078883 Z" id="Combined-Shape" fill="url(#linearGradient-40)"></path>
                    <path d="M10.7295898,4.19061354 C10.7126639,4.14469998 10.6695299,4.11154018 10.618206,4.1051633 L8.64114275,3.86029094 L7.71949604,2.13394084 C7.6736321,2.04747029 7.52102531,2.04747029 7.47516138,2.13394084 L6.55351466,3.86029094 L4.57645142,4.1051633 C4.52512749,4.11154018 4.48172055,4.14469998 4.46506757,4.19061354 C4.44841459,4.23652711 4.46097258,4.28728711 4.49782753,4.32172228 L5.9477285,5.67642757 L5.55269806,7.52240802 C5.54259707,7.57036219 5.56225304,7.61908159 5.60374898,7.64892541 C5.64524493,7.67851415 5.70148285,7.68336058 5.74761978,7.66167918 L7.59746521,6.79748382 L9.44731063,7.66167918 C9.4666936,7.67060681 9.48744157,7.67519817 9.50846254,7.67519817 C9.5376735,7.67519817 9.56715746,7.66627053 9.59145443,7.64892541 C9.63267737,7.61933667 9.65260634,7.57036219 9.64250536,7.52240802 L9.24747491,5.67642757 L10.6973759,4.32172228 C10.7334118,4.28754218 10.7459698,4.23678219 10.7295898,4.19061354 Z" id="Shape" fill="#FFFFFF"></path>
                </g>
                <g id="Group-4-Copy-7" transform="translate(46.108056, 9.994247) rotate(-145.000000) translate(-46.108056, -9.994247) translate(38.108056, 3.994247)" fill-rule="nonzero">
                    <path d="M9.90331485,9.92078883 L8.34632204,11.4777816 C7.82088471,12.003219 6.96898246,12.003219 6.44354513,11.4777816 L4.88655232,9.92078883 L1.34546646,9.92078883 C0.602385852,9.92078883 -6.66133815e-16,9.31840298 -6.66133815e-16,8.57532237 L-6.66133815e-16,1.34546646 C-6.66133815e-16,0.602385852 0.602385852,0 1.34546646,0 L13.678909,0 C14.4219896,0 15.0243755,0.602385852 15.0243755,1.34546646 L15.0243755,8.57532237 C15.0243755,9.31840298 14.4219896,9.92078883 13.678909,9.92078883 L9.90331485,9.92078883 Z" id="Combined-Shape" fill="url(#linearGradient-40)"></path>
                    <path d="M10.7566489,3.9154809 C10.7397229,3.86956733 10.696589,3.83640753 10.645265,3.83003065 L8.6682018,3.58515829 L7.74655509,1.85880819 C7.70069115,1.77233764 7.54808436,1.77233764 7.50222043,1.85880819 L6.58057371,3.58515829 L4.60351047,3.83003065 C4.55218654,3.83640753 4.5087796,3.86956733 4.49212662,3.9154809 C4.47547365,3.96139447 4.48803163,4.01215446 4.52488658,4.04658964 L5.97478756,5.40129493 L5.57975711,7.24727538 C5.56965612,7.29522955 5.58931209,7.34394894 5.63080804,7.37379276 C5.67230398,7.40338151 5.7285419,7.40822794 5.77467884,7.38654653 L7.62452426,6.52235118 L9.47436968,7.38654653 C9.49375265,7.39547417 9.51450062,7.40006553 9.5355216,7.40006553 C9.56473255,7.40006553 9.59421651,7.39113789 9.61851348,7.37379276 C9.65973642,7.34420402 9.67966539,7.29522955 9.66956441,7.24727538 L9.27453396,5.40129493 L10.7244349,4.04658964 C10.7604709,4.01240954 10.7730289,3.96164954 10.7566489,3.9154809 Z" id="Shape" fill="#FFFFFF"></path>
                </g>
                <g id="Group-4-Copy-11" transform="translate(43.661604, 18.220999) rotate(1.000000) translate(-43.661604, -18.220999) translate(35.661604, 12.220999)" fill-rule="nonzero">
                    <path d="M9.90331485,9.92078883 L8.34632204,11.4777816 C7.82088471,12.003219 6.96898246,12.003219 6.44354513,11.4777816 L4.88655232,9.92078883 L1.34546646,9.92078883 C0.602385852,9.92078883 0,9.31840298 0,8.57532237 L0,1.34546646 C0,0.602385852 0.602385852,-2.22044605e-16 1.34546646,-2.22044605e-16 L13.678909,-2.22044605e-16 C14.4219896,-2.22044605e-16 15.0243755,0.602385852 15.0243755,1.34546646 L15.0243755,8.57532237 C15.0243755,9.31840298 14.4219896,9.92078883 13.678909,9.92078883 L9.90331485,9.92078883 Z" id="Combined-Shape" fill="url(#linearGradient-40)"></path>
                    <path d="M10.7747087,3.96710227 C10.7577827,3.92118871 10.7146488,3.88802891 10.6633248,3.88165202 L8.68626158,3.63677967 L7.76461486,1.91042957 C7.71875093,1.82395901 7.56614414,1.82395901 7.5202802,1.91042957 L6.59863349,3.63677967 L4.62157024,3.88165202 C4.57024632,3.88802891 4.52683938,3.92118871 4.5101864,3.96710227 C4.49353342,4.01301584 4.5060914,4.06377584 4.54294635,4.09821101 L5.99284733,5.4529163 L5.59781688,7.29889675 C5.5877159,7.34685092 5.60737187,7.39557032 5.64886781,7.42541414 C5.69036375,7.45500288 5.74660168,7.45984931 5.79273861,7.4381679 L7.64258403,6.57397255 L9.49242946,7.4381679 C9.51181243,7.44709554 9.5325604,7.4516869 9.55358137,7.4516869 C9.58279233,7.4516869 9.61227629,7.44275926 9.63657325,7.42541414 C9.6777962,7.39582539 9.69772517,7.34685092 9.68762418,7.29889675 L9.29259373,5.4529163 L10.7424947,4.09821101 C10.7785307,4.06403091 10.7910886,4.01327091 10.7747087,3.96710227 Z" id="Shape" fill="#FFFFFF"></path>
                </g>
                <g id="Group-4-Copy-4" transform="translate(43.657481, 25.646447) rotate(4.000000) translate(-43.657481, -25.646447) translate(35.657481, 19.646447)" fill-rule="nonzero">
                    <path d="M9.90331485,9.92078883 L8.34632204,11.4777816 C7.82088471,12.003219 6.96898246,12.003219 6.44354513,11.4777816 L4.88655232,9.92078883 L1.34546646,9.92078883 C0.602385852,9.92078883 1.8189894e-12,9.31840298 1.8189894e-12,8.57532237 L1.8189894e-12,1.34546646 C1.8189894e-12,0.602385852 0.602385852,-2.22044605e-16 1.34546646,-2.22044605e-16 L13.678909,-2.22044605e-16 C14.4219896,-2.22044605e-16 15.0243755,0.602385852 15.0243755,1.34546646 L15.0243755,8.57532237 C15.0243755,9.31840298 14.4219896,9.92078883 13.678909,9.92078883 L9.90331485,9.92078883 Z" id="Combined-Shape" fill="url(#linearGradient-40)"></path>
                    <path d="M10.64887,4.34909487 C10.631944,4.30318131 10.5888101,4.27002151 10.5374861,4.26364463 L8.56042288,4.01877227 L7.63877616,2.29242217 C7.59291223,2.20595162 7.44030544,2.20595162 7.3944415,2.29242217 L6.47279479,4.01877227 L4.49573154,4.26364463 C4.44440761,4.27002151 4.40100067,4.30318131 4.3843477,4.34909487 C4.36769472,4.39500844 4.3802527,4.44576844 4.41710765,4.48020361 L5.86700863,5.8349089 L5.47197818,7.68088935 C5.4618772,7.72884352 5.48153317,7.77756292 5.52302911,7.80740674 C5.56452505,7.83699548 5.62076297,7.84184191 5.66689991,7.82016051 L7.51674533,6.95596515 L9.36659075,7.82016051 C9.38597373,7.82908814 9.4067217,7.8336795 9.42774267,7.8336795 C9.45695363,7.8336795 9.48643759,7.82475186 9.51073455,7.80740674 C9.5519575,7.777818 9.57188647,7.72884352 9.56178548,7.68088935 L9.16675503,5.8349089 L10.616656,4.48020361 C10.652692,4.44602351 10.6652499,4.39526352 10.64887,4.34909487 Z" id="Shape" fill="#FFFFFF"></path>
                </g>
                <g id="Group-4-Copy-5" transform="translate(52.784501, 18.691262) rotate(-24.000000) translate(-52.784501, -18.691262) translate(44.784501, 12.691262)" fill-rule="nonzero">
                    <path d="M9.90331485,9.92078883 L8.34632204,11.4777816 C7.82088471,12.003219 6.96898246,12.003219 6.44354513,11.4777816 L4.88655232,9.92078883 L1.34546646,9.92078883 C0.602385852,9.92078883 0,9.31840298 0,8.57532237 L0,1.34546646 C0,0.602385852 0.602385852,-2.22044605e-16 1.34546646,-2.22044605e-16 L13.678909,-2.22044605e-16 C14.4219896,-2.22044605e-16 15.0243755,0.602385852 15.0243755,1.34546646 L15.0243755,8.57532237 C15.0243755,9.31840298 14.4219896,9.92078883 13.678909,9.92078883 L9.90331485,9.92078883 Z" id="Combined-Shape" fill="url(#linearGradient-40)"></path>
                    <path d="M10.6658661,4.42859884 C10.6489402,4.38268528 10.6058062,4.34952548 10.5544823,4.34314859 L8.57741905,4.09827624 L7.65577233,2.37192614 C7.6099084,2.28545558 7.45730161,2.28545558 7.41143767,2.37192614 L6.48979096,4.09827624 L4.51272771,4.34314859 C4.46140379,4.34952548 4.41799685,4.38268528 4.40134387,4.42859884 C4.38469089,4.47451241 4.39724887,4.52527241 4.43410382,4.55970758 L5.8840048,5.91441287 L5.48897435,7.76039332 C5.47887337,7.80834749 5.49852934,7.85706689 5.54002528,7.88691071 C5.58152122,7.91649945 5.63775915,7.92134588 5.68389608,7.89966447 L7.5337415,7.03546912 L9.38358693,7.89966447 C9.4029699,7.90859211 9.42371787,7.91318347 9.44473884,7.91318347 C9.4739498,7.91318347 9.50343376,7.90425583 9.52773072,7.88691071 C9.56895367,7.85732196 9.58888264,7.80834749 9.57878165,7.76039332 L9.1837512,5.91441287 L10.6336522,4.55970758 C10.6696881,4.52552748 10.6822461,4.47476748 10.6658661,4.42859884 Z" id="Shape" fill="#FFFFFF"></path>
                </g>
                <polygon id="Rectangle-19" fill="url(#linearGradient-41)" fill-rule="nonzero" points="10.7637317 17.3698419 37.8973053 29.5215442 37.8973053 58.6308133 11.6461243 45.041563"></polygon>
                <g id="Path-15" transform="translate(36.897305, 22.751708)">
                    <g id="Mask" transform="translate(16.394218, 18.000000) scale(-1, 1) translate(-16.394218, -18.000000) translate(0.394218, 0.000000)" fill="url(#linearGradient-43)" fill-rule="nonzero">
                        <polygon id="path-51" points="0 0 31.3942174 6.78521323 31.3942174 35.8791056 0.590433149 26.9281783"></polygon>
                    </g>
                    <g id="Clipped" transform="translate(1.000000, 0.000000)">
                        <mask id="mask-45" fill="white">
                            <use xlink:href="#path-44"></use>
                        </mask>
                        <g id="path-51"></g>
                        <polygon id="Path" fill="url(#linearGradient-46)" fill-rule="nonzero" opacity="0.218582589" style="mix-blend-mode: multiply;" mask="url(#mask-45)" points="7.42834555 1.33957833 36.5379196 28.9634391 32.1513079 -5.18946662"></polygon>
                    </g>
                </g>
                <polygon id="Path-106" fill="url(#linearGradient-47)" fill-rule="nonzero" points="10.8109337 17.1455975 0 28.3240068 26.8072679 41.5882382 37.6730609 29.4476097"></polygon>
                <polygon id="Path-106-Copy" fill="url(#linearGradient-48)" fill-rule="nonzero" transform="translate(59.200524, 32.282095) scale(-1, 1) translate(-59.200524, -32.282095) " points="49.3915767 22.7517078 37.8973049 34.8362448 68.9545091 41.8124826 80.5037427 29.4397152"></polygon>
            </g>
            <g id="ladder" transform="translate(89.025031, 66.200852)">
                <path d="M0,80.952232 L25.1153739,0" id="Line-2" stroke="url(#linearGradient-49)"></path>
                <path d="M22.424441,11.4364649 L37.6730609,15.9213531" id="Line" stroke="url(#linearGradient-50)"></path>
                <path d="M18.612286,22.2001966 L34.9821279,27.357818" id="Line-Copy" stroke="url(#linearGradient-51)"></path>
                <path d="M15.6971087,33.1881727 L31.8427062,38.7942829" id="Line-Copy-2" stroke="url(#linearGradient-52)"></path>
                <path d="M12.1091981,43.7276599 L30.0487509,50.0065034" id="Line-Copy-3" stroke="url(#linearGradient-53)"></path>
                <path d="M8.96977639,54.4913916 L27.6197439,61.4626209" id="Line-Copy-4" stroke="url(#linearGradient-54)"></path>
                <path d="M5.15762143,66.3763453 L23.9941519,73.327922" id="Line-Copy-5" stroke="#223762"></path>
                <path d="M20.8547301,93.7341633 L40.7055282,3.39480661" id="Line-2-Copy" stroke="url(#linearGradient-55)"></path>
            </g>
            <g id="person-on-top" transform="translate(106.964584, 0.497240)">
                <g id="neck" transform="translate(14.800131, 10.090998)">
                    <g id="path-58-link" fill="url(#linearGradient-57)" fill-rule="nonzero">
                        <path d="M0.291880968,4.68665756 C0.944107542,3.92653779 1.19234303,2.38520633 1.19234303,0.960691576 C1.19234303,0.0110150721 2.12822867,-0.228499724 3.99999996,0.242147188 C4.13642131,1.67923596 4.336862,2.61512161 4.60132203,3.04980412 C4.99801207,3.70182788 6.83422457,3.91964236 6.83422457,3.91964236 C6.83422457,3.91964236 3.61466709,11.3147884 2.17048008,10.2273385 C0.72629307,9.13988863 -0.360345606,5.44677734 0.291880968,4.68665756 Z" id="path-58"></path>
                    </g>
                    <g id="shadow-Clipped">
                        <mask id="mask-59" fill="white">
                            <use xlink:href="#path-58"></use>
                        </mask>
                        <g id="path-58"></g>
                        <path d="M0.692211106,1.88079968 C2.19189404,3.14161397 3.43102101,3.41774347 4.40959201,2.70918819 C5.388163,2.0006329 5.388163,1.19068533 4.40959201,0.279345479 L0.692211106,1.88079968 Z" id="shadow" fill="#3D82F0" fill-rule="nonzero" opacity="0.5" style="mix-blend-mode: multiply;" mask="url(#mask-59)"></path>
                    </g>
                </g>
                <path d="M13.6901021,4.71262217 C13.6901021,6.25482505 14.0062099,9.38671993 14.2949916,10.2961766 C14.5837732,11.2056332 16.1923017,12.6318989 17.6330264,12.1932214 C19.0737511,11.7545439 19.7531906,9.92515116 19.7531906,9.34984289 C19.7531906,8.96630405 19.9242222,8.03964697 20.2662854,6.56987165 C20.7002317,4.58417159 20.5292001,3.59132156 19.7531906,3.59132156 C18.5891763,3.59132156 13.6901021,3.17041929 13.6901021,4.71262217 Z" id="face" fill="url(#linearGradient-60)" fill-rule="nonzero"></path>
                <path d="M19.7266603,4.73948167 C17.9385203,5.92354245 12.4406846,6.08978964 13.0231167,3.01874686 C13.6055488,-0.0522959157 18.1019403,-0.693168394 20.4379526,1.34782302 C21.4528793,2.23457211 22.2002484,4.73948167 20.9726531,7.4244868 C20.718253,7.98091247 20.3029221,8.46967095 19.7266603,8.89076222 C19.902022,7.10024148 19.902022,5.7164813 19.7266603,4.73948167 Z" id="hair" fill="#223762" fill-rule="nonzero"></path>
                <path d="M35.3756253,46.3166163 C36.1023079,46.0833968 40.8152006,44.8909001 41.3394368,44.3316732 C41.863673,43.7724462 41.6356865,42.9400104 40.6309525,42.8009066 C39.6262185,42.6618028 35.4620868,42.1659185 35.0575845,42.1659185 C34.6530823,42.1659185 33.7939348,43.7514362 34.0180942,44.8873854 C34.2422536,46.0233346 34.6489427,46.5498358 35.3756253,46.3166163 Z" id="shoe" fill="#192A4D" fill-rule="nonzero"></path>
                <path d="M16.0286642,48.8274828 C16.6058675,48.6422368 20.3493144,47.6950376 20.7657148,47.2508441 C21.1821152,46.8066506 21.0010257,46.1454475 20.2029663,46.0349574 C19.4049069,45.9244674 16.0973404,45.5305869 15.7760446,45.5305869 C15.4547488,45.5305869 14.7723286,46.7899623 14.9503782,47.6922458 C15.1284279,48.5945294 15.4514608,49.0127289 16.0286642,48.8274828 Z" id="shoe" fill="#192A4D" fill-rule="nonzero"></path>
                <path d="M13.9640798,31.2474058 C13.4170597,32.2181828 6.5510477,42.8485105 5.97752286,45.2981257 C5.40399802,47.747741 6.42778457,49.5356952 7.7638803,49.5356952 C9.09997604,49.5356952 16.0343257,49.6832277 16.7640051,49.049668 C17.4936845,48.4161082 17.5872496,44.665524 16.7640051,44.665524 C16.2151755,44.665524 14.5488511,44.665524 11.7650321,44.665524 C14.7415163,40.7289806 16.4078406,38.7607089 16.7640051,38.7607089 C17.2982518,38.7607089 18.567926,51.1547213 19.9145597,51.6579925 C21.2611935,52.1612638 34.6732444,47.8476927 35.4089912,47.1646362 C36.144738,46.4815796 35.414029,42.8020361 33.1224843,42.8020361 C30.8309396,42.8020361 24.8174076,45.8529914 24.8174076,45.1092613 C24.8174076,44.3655311 24.5917428,33.9668588 24.1446744,31.8273173 C23.6976061,29.6877759 14.5110999,30.2766288 13.9640798,31.2474058 Z" id="jeans" fill="url(#linearGradient-61)" fill-rule="nonzero"></path>
                <path d="M30.5243039,21.4602671 C29.3105002,20.8237821 26.2341374,18.0084856 22.6486854,14.4791051 C22.2679908,14.1043641 21.3440533,13.7704391 19.8768729,13.4773302 C19.5888331,14.4441727 18.7605858,14.9275939 17.3921308,14.9275939 C16.0236758,14.9275939 15.3600986,14.6252353 15.4013992,14.0205183 C14.2036818,14.472696 13.1869206,15.1130682 12.3511157,15.9416349 C11.0974082,17.1844849 8.21509465,21.8557106 6.56509306,22.5981635 C5.465092,23.093132 3.28233825,24.2664736 0.0168318277,26.1181881 L2.92941715,26.9082289 C5.12901341,26.2383745 6.82107068,25.6819823 8.00558895,25.2390523 C9.19010722,24.7961224 10.8343682,23.7115556 12.9383719,21.9853519 C11.3625624,28.6756292 10.9246483,32.5489472 11.6246296,33.6053059 C12.6746016,35.1898439 21.9505757,34.9908985 23.0971742,33.6053059 C23.8615733,32.6815775 23.8615733,28.3509753 23.0971742,20.6134993 L27.9379015,23.9007596 L33.2652493,25.7173152 L37.1656735,25.6875412 C34.0209023,23.5420277 31.8071125,22.1329363 30.5243039,21.4602671 Z" id="shirt" fill="url(#linearGradient-62)" fill-rule="nonzero"></path>
            </g>
            <g id="yellow-comment" transform="translate(97.553045, 25.868252)" fill-rule="nonzero">
                <rect id="Rectangle-16" fill="#F46885" x="0" y="0" width="49.5580146" height="15.0255683" rx="2.01819969"></rect>
                <circle id="Oval-Copy-2" fill="#FFFFFF" cx="7.51278413" cy="7.51278413" r="5.53573567"></circle>
                <path d="M16.1458957,2.63606461 L44.6153934,2.63606461 C45.2341332,2.63606461 45.7357209,3.13765229 45.7357209,3.75639206 L45.7357209,3.75639206 C45.7357209,4.37513183 45.2341332,4.87671952 44.6153934,4.87671952 L16.1458957,4.87671952 C15.5271559,4.87671952 15.0255683,4.37513183 15.0255683,3.75639206 L15.0255683,3.75639206 C15.0255683,3.13765229 15.5271559,2.63606461 16.1458957,2.63606461 Z" id="Rectangle" fill="#FFFFFF"></path>
                <path d="M16.1458957,6.32655505 L37.3662158,6.32655505 C37.9849555,6.32655505 38.4865432,6.82814274 38.4865432,7.44688251 L38.4865432,7.44688251 C38.4865432,8.06562228 37.9849555,8.56720997 37.3662158,8.56720997 L16.1458957,8.56720997 C15.5271559,8.56720997 15.0255683,8.06562228 15.0255683,7.44688251 L15.0255683,7.44688251 C15.0255683,6.82814274 15.5271559,6.32655505 16.1458957,6.32655505 Z" id="Rectangle-Copy" fill="#FFFFFF"></path>
                <path d="M15.8163876,10.8078649 L22.9337621,10.8078649 C23.3705196,10.8078649 23.7245814,11.1619268 23.7245814,11.5986843 L23.7245814,11.5986843 C23.7245814,12.0354417 23.3705196,12.3895036 22.9337621,12.3895036 L15.8163876,12.3895036 C15.3796301,12.3895036 15.0255683,12.0354417 15.0255683,11.5986843 L15.0255683,11.5986843 C15.0255683,11.1619268 15.3796301,10.8078649 15.8163876,10.8078649 Z" id="Rectangle-Copy-2" fill="#FFFFFF" opacity="0.5"></path>
            </g>
            <g id="image-on-screen" transform="translate(132.752691, 41.533967)">
                <g id="img-base" fill="url(#linearGradient-64)" fill-rule="nonzero">
                    <path d="M49.0338145,0.334409591 L80.087394,7.52998035 C80.4493445,7.61384959 80.6747738,7.97525789 80.5909046,8.33720836 C80.5389575,8.56139395 80.3760209,8.74347159 80.1589574,8.81989876 L33.9151033,25.102169 C32.2139372,25.7011426 30.3665937,25.7449181 28.6389659,25.227195 L0.493836172,16.792864 C0.137933073,16.6862095 -0.0641228455,16.3112325 0.0425316471,15.9553294 C0.105112555,15.7464987 0.265008383,15.5809404 0.471535762,15.5111328 L44.7489494,0.545081912 C46.1299568,0.078292507 47.6136775,0.00534298004 49.0338145,0.334409591 Z" id="path-63"></path>
                </g>
                <g id="mountain-Clipped">
                    <mask id="mask-66" fill="white">
                        <use xlink:href="#path-65"></use>
                    </mask>
                    <g id="path-63"></g>
                    <path d="M50.2823373,-3.87233514 C51.2982523,0.187046458 55.2154914,7.48290422 50.9949515,10.4469801 C46.7744117,13.4110561 13.6580536,9.5137835 10.6911253,9.5137835 C7.72419703,9.5137835 49.2664223,-7.93171675 50.2823373,-3.87233514 Z" id="mountain" fill="url(#linearGradient-67)" fill-rule="nonzero" mask="url(#mask-66)"></path>
                </g>
                <g id="moon-Clipped">
                    <mask id="mask-69" fill="white">
                        <use xlink:href="#path-68"></use>
                    </mask>
                    <g id="path-63"></g>
                    <ellipse id="moon" fill="url(#linearGradient-70)" fill-rule="nonzero" mask="url(#mask-69)" cx="35.3184946" cy="17.2668196" rx="7.06369891" ry="2.01819969"></ellipse>
                </g>
                <g id="mountain-Clipped">
                    <mask id="mask-72" fill="white">
                        <use xlink:href="#path-71"></use>
                    </mask>
                    <g id="path-63"></g>
                    <path d="M20.6820752,2.40650833 C21.6979902,6.46588993 25.6152293,13.7617477 21.3946894,16.7258236 C17.1741496,19.6898995 -15.9422085,15.792627 -18.9091368,15.792627 C-21.8760651,15.792627 19.6661602,-1.65287327 20.6820752,2.40650833 Z" id="mountain" fill="url(#linearGradient-67)" fill-rule="nonzero" mask="url(#mask-72)"></path>
                </g>
            </g>
        </g>
    </g>
</svg>