<?xml version="1.0" encoding="UTF-8"?>
<svg width="111px" height="116px" viewBox="0 0 111 116" version="1.1" xmlns="http://www.w3.org/2000/svg" xmlns:xlink="http://www.w3.org/1999/xlink">
    <!-- Generator: Sketch 52.5 (67469) - http://www.bohemiancoding.com/sketch -->
    <title>analytics_boost</title>
    <desc>Created with Sketch.</desc>
    <defs>
        <path d="M79.0303739,86 L1.96954476,86 C0.881799488,86 0,85.1187369 0,84.031518 L0,1.96848205 C0,0.881263125 0.881799488,0 1.96954476,0 L79.0303739,0 C80.1182005,0 81,0.881263125 81,1.96848205 L81,84.031518 C81,85.1151145 80.1241405,85.9941353 79.0303739,86 Z" id="path-1"></path>
        <filter x="-30.9%" y="-23.3%" width="161.7%" height="158.1%" filterUnits="objectBoundingBox" id="filter-2">
            <feOffset dx="0" dy="5" in="SourceAlpha" result="shadowOffsetOuter1"></feOffset>
            <feGaussianBlur stdDeviation="7.5" in="shadowOffsetOuter1" result="shadowBlurOuter1"></feGaussianBlur>
            <feColorMatrix values="0 0 0 0 0   0 0 0 0 0   0 0 0 0 0  0 0 0 0.1 0" type="matrix" in="shadowBlurOuter1"></feColorMatrix>
        </filter>
        <linearGradient x1="50%" y1="100%" x2="50%" y2="3.061617e-15%" id="linearGradient-3">
            <stop stop-color="#F46885" offset="0%"></stop>
            <stop stop-color="#F46885" offset="27.475%"></stop>
            <stop stop-color="#FDB93F" offset="100%"></stop>
        </linearGradient>
    </defs>
    <g id="Illustrations" stroke="none" stroke-width="1" fill="none" fill-rule="evenodd">
        <g transform="translate(-668.000000, -310.000000)" id="Boost">
            <g transform="translate(683.000000, 38.000000)">
                <g id="analytics_boost" transform="translate(0.000000, 282.000000)">
                    <g id="base">
                        <use fill="black" fill-opacity="1" filter="url(#filter-2)" xlink:href="#path-1"></use>
                        <use fill="#FFFFFF" fill-rule="evenodd" xlink:href="#path-1"></use>
                    </g>
                    <g id="shadow" opacity="0.1" transform="translate(14.000000, 14.000000)" fill="#1B3554">
                        <path d="M23.000863,22.6207537 L1.36201006,22.6207537 C0.682986831,22.6207537 0.132511434,22.0733064 0.132511434,21.397998 L0.132511434,1.34502221 C0.132511434,0.669713714 0.682986831,0.122266476 1.36201006,0.122266476 L23.000863,0.122266476 C23.6798618,0.122266476 24.2303372,0.669713714 24.2303372,1.34502221 L24.2303372,21.397998 C24.2303372,22.0692809 23.6863944,22.6142264 23.000863,22.6207537 Z" id="-copy-5" opacity="0.300000012"></path>
                        <path d="M53.614926,22.6207537 L31.9760729,22.6207537 C31.2970497,22.6207537 30.7465742,22.0733064 30.7465742,21.397998 L30.7465742,1.34502221 C30.7465742,0.669713714 31.2970497,0.122266476 31.9760729,0.122266476 L53.614926,0.122266476 C54.293949,0.122266476 54.8444001,0.669713714 54.8444001,1.34502221 L54.8444001,21.397998 C54.8444001,22.0692809 54.3004571,22.6142264 53.614926,22.6207537 Z" id="-copy-6" opacity="0.300000012"></path>
                        <path d="M13.0420666,42.7959996 L1.36199876,42.7959996 C0.682986954,42.7959996 0.132514877,42.2485584 0.132514877,41.5732678 L0.132514877,29.9571908 C0.132514877,29.2818999 0.682986954,28.7344588 1.36199876,28.7344588 L13.0420666,28.7344588 C13.7210784,28.7344588 14.2715359,29.2818999 14.2715359,29.9571908 L14.2715359,41.5732678 C14.2715359,42.2445473 13.7276069,42.7894922 13.0420666,42.7959996 Z" id="-copy-7" opacity="0.300000012"></path>
                        <path d="M13.0420666,59.9144082 L1.36199876,59.9144082 C0.682986954,59.9144082 0.132514877,59.3669567 0.132514877,58.6916661 L0.132514877,47.0756049 C0.132514877,46.4003 0.682986954,45.8528633 1.36199876,45.8528633 L13.0420666,45.8528633 C13.7210784,45.8528633 14.2715359,46.4003 14.2715359,47.0756049 L14.2715359,58.6916661 C14.2715359,59.362951 13.7276069,59.9078988 13.0420666,59.9144082 Z" id="-copy-8" opacity="0.300000012"></path>
                        <path d="M54.1066999,32.6472388 L16.7304948,32.6472388 C16.5268057,32.6472388 16.3616763,32.4830081 16.3616763,32.2804082 L16.3616763,29.3458319 C16.3616763,29.1432319 16.5268057,28.9790013 16.7304948,28.9790013 L54.1066999,28.9790013 C54.3104272,28.9790013 54.4755569,29.1432319 54.4755569,29.3458319 L54.4755569,32.2804082 C54.4755569,32.4792071 54.3165462,32.6410611 54.1066999,32.6472388 Z" id="-copy" opacity="0.300000012"></path>
                        <path d="M45.5003405,39.7609459 L16.7304972,39.7609459 C16.5268001,39.7609459 16.3616733,39.5967227 16.3616733,39.3941308 L16.3616733,36.4595398 C16.3616733,36.2569479 16.5268001,36.0927247 16.7304972,36.0927247 L45.5003405,36.0927247 C45.7040675,36.0927247 45.8691943,36.2569479 45.8691943,36.4595398 L45.8691943,39.3941308 C45.8691943,39.5929234 45.7101922,39.7547755 45.5003405,39.7609459 Z" id="-copy-3" opacity="0.300000012"></path>
                        <path d="M53.7450236,49.787431 L16.3688185,49.787431 C16.1651295,49.787431 16,49.6232003 16,49.4206004 L16,46.4860241 C16,46.2834241 16.1651295,46.1191935 16.3688185,46.1191935 L53.7450236,46.1191935 C53.948751,46.1191935 54.1138807,46.2834241 54.1138807,46.4860241 L54.1138807,49.4206004 C54.1138807,49.6193993 53.9548699,49.7812533 53.7450236,49.787431 Z" id="-copy" opacity="0.300000012"></path>
                        <path d="M45.1386672,56.7874147 L16.3688238,56.7874147 C16.1651267,56.7874147 16,56.6231915 16,56.4205996 L16,53.4860085 C16,53.2834167 16.1651267,53.1191935 16.3688238,53.1191935 L45.1386672,53.1191935 C45.3423941,53.1191935 45.507521,53.2834167 45.507521,53.4860085 L45.507521,56.4205996 C45.507521,56.6193922 45.3485188,56.7812442 45.1386672,56.7874147 Z" id="-copy-3" opacity="0.300000012"></path>
                    </g>
                    <g id="chart" transform="translate(13.000000, 13.000000)">
                        <path d="M23.3493609,22.7621334 L1.38264658,22.7621334 C0.693335117,22.7621334 0.134519183,22.2112646 0.134519183,21.5317354 L0.134519183,1.3534286 C0.134519183,0.673899425 0.693335117,0.123030642 1.38264658,0.123030642 L23.3493609,0.123030642 C24.0386475,0.123030642 24.5974635,0.673899425 24.5974635,1.3534286 L24.5974635,21.5317354 C24.5974635,22.2072139 24.0452791,22.7555654 23.3493609,22.7621334 Z" id="base" fill="#FFFFFF"></path>
                        <g id="Group" transform="translate(1.789587, 3.675464)">
                            <path d="M0.162973842,13.4641511 C0.162973842,13.4641511 1.0560457,11.5221141 2.84214574,7.63805296 L7.17271863,8.48496939 L10.5037622,3.99595146 L16.0230372,1.81196759 L20.8445506,4.97231228" id="Path" stroke="#D6E3FA" stroke-width="1.5" fill-opacity="0" fill="#000000" opacity="0.4"></path>
                            <path d="M7.35743968,9.67633836 C7.9250439,9.67633836 8.41127581,9.33291278 8.61399153,8.84533934 C8.67902523,8.68891978 8.71487929,8.51766444 8.71487929,8.33815311 C8.71487929,7.59912141 8.10713832,7 7.35743968,7 C6.60774097,7 6,7.59912141 6,8.33815311 C6,9.07721694 6.60774097,9.67633836 7.35743968,9.67633836 Z" id="Path" fill="#F46885"></path>
                            <path d="M2.35743962,8.67633707 C3.10713831,8.67633707 3.71487924,8.07721591 3.71487924,7.3381877 C3.71487924,6.59913858 3.10713831,6 2.35743962,6 C1.60774094,6 1,6.59913858 1,7.3381877 C1,8.07721591 1.60774094,8.67633707 2.35743962,8.67633707 Z" id="Path" fill="#F46885"></path>
                            <path d="M10.3574396,5.6763384 C11.1071348,5.6763384 11.7149004,5.07721698 11.7149004,4.33815314 C11.7149004,3.59912142 11.1071348,3 10.3574396,3 C9.60776211,3 9,3.59912142 9,4.33815314 C9,5.07721698 9.60776211,5.6763384 10.3574396,5.6763384 Z" id="Path" fill-opacity="0.374518795" fill="#F46885"></path>
                            <path d="M16.3574396,2.6763384 C17.1071383,2.6763384 17.7148793,2.07720092 17.7148793,1.33815314 C17.7148793,0.599121421 17.1071383,0 16.3574396,0 C15.607741,0 15,0.599121421 15,1.33815314 C15,2.07720092 15.607741,2.6763384 16.3574396,2.6763384 Z" id="Path" fill-opacity="0.374518795" fill="#F46885"></path>
                        </g>
                    </g>
                    <g id="graph" transform="translate(43.000000, 13.000000)">
                        <path d="M23.3493609,22.7621334 L1.38264658,22.7621334 C0.693335117,22.7621334 0.134519183,22.2112646 0.134519183,21.5317354 L0.134519183,1.3534286 C0.134519183,0.673899425 0.693335117,0.123030642 1.38264658,0.123030642 L23.3493609,0.123030642 C24.0386475,0.123030642 24.5974635,0.673899425 24.5974635,1.3534286 L24.5974635,21.5317354 C24.5974635,22.2072139 24.0452791,22.7555654 23.3493609,22.7621334 Z" id="base" fill="#FFFFFF"></path>
                        <g id="Group" transform="translate(4.243570, 7.136234)" fill="#F46885">
                            <path d="M3.37960738,12.5499262 L0.508953358,12.5499262 C0.233247345,12.5499262 0.00972226929,12.329579 0.00972226929,12.0577623 L0.00972226929,0.49215591 C0.00972226929,0.22035214 0.233247345,-7.99750357e-06 0.508953358,-7.99750357e-06 L3.37960738,-7.99750357e-06 C3.65533012,-7.99750357e-06 3.8788552,0.22035214 3.8788552,0.49215591 L3.8788552,12.0577623 C3.8788552,12.325755 3.66158514,12.5437122 3.37960738,12.5499262 Z" id="Path"></path>
                            <path d="M9.620152,12.5499262 L6.749498,12.5499262 C6.47379196,12.5499262 6.25026692,12.3814255 6.25026692,12.1735658 L6.25026692,3.3292824 C6.25026692,3.12143255 6.47379196,2.95292193 6.749498,2.95292193 L9.620152,2.95292193 C9.89587475,2.95292193 10.1193998,3.12143255 10.1193998,3.3292824 L10.1193998,12.1735658 C10.1193998,12.3785012 9.90212979,12.5451743 9.620152,12.5499262 Z" id="-copy-9"></path>
                            <path d="M15.7358858,12.5499262 L12.8652317,12.5499262 C12.5895257,12.5499262 12.3660006,12.4224705 12.3660006,12.2652433 L12.3660006,5.57533664 C12.3660006,5.4181169 12.5895257,5.29065373 12.8652317,5.29065373 L15.7358858,5.29065373 C16.0116085,5.29065373 16.2351336,5.4181169 16.2351336,5.57533664 L16.2351336,12.2652433 C16.2351336,12.4202586 16.0178635,12.5463318 15.7358858,12.5499262 Z" id="-copy-10"></path>
                        </g>
                    </g>
                </g>
            </g>
        </g>
    </g>
</svg>