<?xml version="1.0" encoding="UTF-8"?>
<svg width="94px" height="103px" viewBox="0 0 94 103" version="1.1" xmlns="http://www.w3.org/2000/svg" xmlns:xlink="http://www.w3.org/1999/xlink">
    <!-- Generator: Sketch 52.5 (67469) - http://www.bohemiancoding.com/sketch -->
    <title>dashboard</title>
    <desc>Created with Sketch.</desc>
    <defs>
        <rect id="path-1" x="0.824742268" y="0.773195876" width="65.1546392" height="73.4020619" rx="10"></rect>
        <filter x="-38.4%" y="-27.2%" width="176.7%" height="168.1%" filterUnits="objectBoundingBox" id="filter-2">
            <feOffset dx="0" dy="5" in="SourceAlpha" result="shadowOffsetOuter1"></feOffset>
            <feGaussianBlur stdDeviation="7.5" in="shadowOffsetOuter1" result="shadowBlurOuter1"></feGaussianBlur>
            <feColorMatrix values="0 0 0 0 0   0 0 0 0 0   0 0 0 0 0  0 0 0 0.1 0" type="matrix" in="shadowBlurOuter1"></feColorMatrix>
        </filter>
        <linearGradient x1="50%" y1="100%" x2="50%" y2="3.061617e-15%" id="linearGradient-3">
            <stop stop-color="#F46885" offset="0%"></stop>
            <stop stop-color="#F46885" offset="27.475%"></stop>
            <stop stop-color="#FDB93F" offset="100%"></stop>
        </linearGradient>
    </defs>
    <g id="Illustrations" stroke="none" stroke-width="1" fill="none" fill-rule="evenodd">
        <g transform="translate(-671.000000, -2452.000000)" id="Boost">
            <g transform="translate(683.000000, 38.000000)">
                <g id="dashboard" transform="translate(2.000000, 2423.000000)">
                    <g id="category">
                        <g id="Rectangle">
                            <use fill="black" fill-opacity="1" filter="url(#filter-2)" xlink:href="#path-1"></use>
                            <use fill="#FFFFFF" fill-rule="evenodd" xlink:href="#path-1"></use>
                        </g>
                        <rect id="Rectangle" fill="#E7EFF5" x="9.07216495" y="9.84536082" width="19.7938144" height="18.1443299" rx="3"></rect>
                        <g id="dashboard" transform="translate(12.371134, 13.144330)" fill="#F46885">
                            <path d="M13.1958763,0.0226559918 L13.1958763,11.5463918 L0,11.5463918 L0,4.56862186 C1.59271604,4.3522569 2.43065099,4.68370961 2.89887113,5.02897284 C3.76495045,5.66080455 3.64085932,6.50900122 4.54020019,7.00502939 C5.23357537,7.3871207 6.27363813,7.41359088 7.01306775,7.08789257 C9.09831044,6.16719062 8.04673406,2.93207415 10.243275,1.02046673 C10.459475,0.831722829 11.6517733,-0.161484398 13.1958763,0.0226559918 Z" id="Path"></path>
                        </g>
                    </g>
                    <path d="M19.7192179,45.3600337 L10.0861723,45.3600337 C9.52616254,45.3600337 9.07216495,44.9085357 9.07216495,44.351595 L9.07216495,34.7713254 C9.07216495,34.2143844 9.52616254,33.7628866 10.0861723,33.7628866 L19.7192179,33.7628866 C20.2792276,33.7628866 20.7332132,34.2143844 20.7332132,34.7713254 L20.7332132,44.351595 C20.7332132,44.9052277 20.284612,45.3546668 19.7192179,45.3600337 Z" id="-copy-7" fill="#E7EFF5"></path>
                    <path d="M54.2226999,37.6129794 L23.3969638,37.6129794 C23.2289727,37.6129794 23.0927835,37.4775314 23.0927835,37.3104387 L23.0927835,34.8901696 C23.0927835,34.7230768 23.2289727,34.5876289 23.3969638,34.5876289 L54.2226999,34.5876289 C54.3907224,34.5876289 54.5269119,34.7230768 54.5269119,34.8901696 L54.5269119,37.3104387 C54.5269119,37.4743966 54.395769,37.6078844 54.2226999,37.6129794 Z" id="-copy" fill="#E7EFF5"></path>
                    <path d="M47.124674,43.3861618 L23.3969681,43.3861618 C23.2289705,43.3861618 23.0927835,43.25072 23.0927835,43.0836339 L23.0927835,40.6633526 C23.0927835,40.4962665 23.2289705,40.3608247 23.3969681,40.3608247 L47.124674,40.3608247 C47.2926962,40.3608247 47.4288833,40.4962665 47.4288833,40.6633526 L47.4288833,43.0836339 C47.4288833,43.2475866 47.2977475,43.3810728 47.124674,43.3861618 Z" id="-copy-3" fill="#E7EFF5"></path>
                    <path d="M19.7192179,62.7303766 L10.0861723,62.7303766 C9.52616254,62.7303766 9.07216495,62.2788787 9.07216495,61.721938 L9.07216495,52.1416683 C9.07216495,51.5847274 9.52616254,51.1332295 10.0861723,51.1332295 L19.7192179,51.1332295 C20.2792276,51.1332295 20.7332132,51.5847274 20.7332132,52.1416683 L20.7332132,61.721938 C20.7332132,62.2755706 20.284612,62.7250097 19.7192179,62.7303766 Z" id="-copy-7" fill="#E7EFF5"></path>
                    <path d="M54.2226999,54.9833223 L23.3969638,54.9833223 C23.2289727,54.9833223 23.0927835,54.8478744 23.0927835,54.6807816 L23.0927835,52.2605125 C23.0927835,52.0934198 23.2289727,51.9579718 23.3969638,51.9579718 L54.2226999,51.9579718 C54.3907224,51.9579718 54.5269119,52.0934198 54.5269119,52.2605125 L54.5269119,54.6807816 C54.5269119,54.8447395 54.395769,54.9782273 54.2226999,54.9833223 Z" id="-copy" fill="#E7EFF5"></path>
                    <path d="M47.124674,60.7565048 L23.3969681,60.7565048 C23.2289705,60.7565048 23.0927835,60.621063 23.0927835,60.4539769 L23.0927835,58.0336956 C23.0927835,57.8666095 23.2289705,57.7311677 23.3969681,57.7311677 L47.124674,57.7311677 C47.2926962,57.7311677 47.4288833,57.8666095 47.4288833,58.0336956 L47.4288833,60.4539769 C47.4288833,60.6179295 47.2977475,60.7514157 47.124674,60.7565048 Z" id="-copy-3" fill="#E7EFF5"></path>
                    <g id="graph" transform="translate(35.463918, 9.845361)">
                        <rect id="Rectangle" fill="#E7EFF5" x="0" y="0" width="19.7938144" height="18.1443299" rx="3"></rect>
                        <g id="Group" transform="translate(5.773196, 6.597938)" fill="#F46885">
                            <path d="M2.15496863,7.42268041 L0.319247481,7.42268041 C0.14293945,7.42268041 0,7.29235566 0,7.13158922 L0,0.291091199 C0,0.130332386 0.14293945,0 0.319247481,0 L2.15496863,0 C2.33128735,0 2.4742268,0.130332386 2.4742268,0.291091199 L2.4742268,7.13158922 C2.4742268,7.29009393 2.3352873,7.41900509 2.15496863,7.42268041 Z" id="Path"></path>
                            <path d="M5.45393769,7.42268041 L3.61821655,7.42268041 C3.4419085,7.42268041 3.29896907,7.32131671 3.29896907,7.19627615 L3.29896907,1.8758888 C3.29896907,1.75085417 3.4419085,1.64948454 3.61821655,1.64948454 L5.45393769,1.64948454 C5.63025642,1.64948454 5.77319588,1.75085417 5.77319588,1.8758888 L5.77319588,7.19627615 C5.77319588,7.3195576 5.63425638,7.41982183 5.45393769,7.42268041 Z" id="-copy-9"></path>
                            <path d="M8.75290676,7.42268041 L6.91718562,7.42268041 C6.7408776,7.42268041 6.59793814,7.35027777 6.59793814,7.26096308 L6.59793814,3.4606864 C6.59793814,3.37137596 6.7408776,3.29896907 6.91718562,3.29896907 L8.75290676,3.29896907 C8.92922549,3.29896907 9.07216495,3.37137596 9.07216495,3.4606864 L9.07216495,7.26096308 C9.07216495,7.34902126 8.93322543,7.42063857 8.75290676,7.42268041 Z" id="-copy-10"></path>
                        </g>
                    </g>
                </g>
            </g>
        </g>
    </g>
</svg>