<?xml version="1.0" encoding="UTF-8"?>
<svg width="84px" height="79px" viewBox="0 0 84 79" version="1.1" xmlns="http://www.w3.org/2000/svg" xmlns:xlink="http://www.w3.org/1999/xlink">
    <!-- Generator: Sketch 52.5 (67469) - http://www.bohemiancoding.com/sketch -->
    <title>location</title>
    <desc>Created with Sketch.</desc>
    <defs>
        <path d="M35.8131574,3.33966709 C36.5114928,3.31993765 37.2645295,3.31007294 38.0722673,3.31007294 C49.9996244,3.31007294 62.9686916,10.4799387 76.9794689,24.8196704 C84.9604333,36.2914556 86.1664817,45.4206975 80.5976138,52.207396 C75.0307894,58.9916043 63.107031,65.0289476 44.8263389,70.3194259 C41.5310507,71.3719472 38.0193351,71.9400749 34.3749261,71.9400749 C15.4232743,71.9400749 0.0599250936,56.5767257 0.0599250936,37.6250739 C0.0599250936,18.6734222 15.4232743,3.31007294 34.3749261,3.31007294 C34.8567201,3.31007294 35.336195,3.32000214 35.8131574,3.33966709 Z" id="path-1"></path>
        <circle id="path-3" cx="5.22918169" cy="4.90543357" r="4.81842519"></circle>
        <filter x="-207.5%" y="-166.0%" width="515.1%" height="515.1%" filterUnits="objectBoundingBox" id="filter-4">
            <feOffset dx="0" dy="4" in="SourceAlpha" result="shadowOffsetOuter1"></feOffset>
            <feGaussianBlur stdDeviation="6" in="shadowOffsetOuter1" result="shadowBlurOuter1"></feGaussianBlur>
            <feColorMatrix values="0 0 0 0 0   0 0 0 0 0   0 0 0 0 0  0 0 0 0.1 0" type="matrix" in="shadowBlurOuter1"></feColorMatrix>
        </filter>
        <circle id="path-5" cx="7.84377253" cy="7.35815036" r="7.22763778"></circle>
        <filter x="-138.4%" y="-110.7%" width="376.7%" height="376.7%" filterUnits="objectBoundingBox" id="filter-6">
            <feOffset dx="0" dy="4" in="SourceAlpha" result="shadowOffsetOuter1"></feOffset>
            <feGaussianBlur stdDeviation="6" in="shadowOffsetOuter1" result="shadowBlurOuter1"></feGaussianBlur>
            <feColorMatrix values="0 0 0 0 0   0 0 0 0 0   0 0 0 0 0  0 0 0 0.1 0" type="matrix" in="shadowBlurOuter1"></feColorMatrix>
        </filter>
    </defs>
    <g id="Illustrations" stroke="none" stroke-width="1" fill="none" fill-rule="evenodd">
        <g transform="translate(-685.000000, -4661.000000)" id="Boost">
            <g transform="translate(683.000000, 38.000000)">
                <g id="location" transform="translate(2.000000, 4630.000000)">
                    <mask id="mask-2" fill="white">
                        <use xlink:href="#path-1"></use>
                    </mask>
                    <use id="Mask" fill-opacity="0.5" fill="#F0F5F8" xlink:href="#path-1"></use>
                    <g id="Page-1" mask="url(#mask-2)">
                        <g transform="translate(-7.191011, 18.966292)">
                            <polygon id="Fill-1" fill="#BFD0DA" points="15.5767806 43.9403111 28.0388461 51.1370835 28.0388461 14.3916061 15.5767806 7.19483372"></polygon>
                            <polygon id="Fill-2" fill="#F9FAFB" points="39.1335485 32.0847859 29.4038351 37.7049152 29.4038351 36.1262939 37.7684606 31.2974535"></polygon>
                            <polygon id="Fill-3" fill="#F9FAFB" points="38.7596529 37.8849334 37.2343156 38.7652423 35.8692277 39.5525747 34.4803991 40.3537547 34.3834581 40.4091449 32.8264665 41.309236 31.3011292 39.7840267 32.3002153 39.2063858 37.2343156 36.3597241"></polygon>
                            <polygon id="Fill-4" fill="#BFD0DA" points="40.5006346 7.19479415 40.5006346 24.3143291 39.1335683 23.5250184 39.1335683 9.56074791 37.7684804 10.3480803 29.4038548 15.178899 29.4038548 29.1451477 28.0387669 29.9344584 28.0387669 14.3915665"></polygon>
                            <polygon id="Fill-5" fill="#BFD0DA" points="39.1336277 27.2065097 39.1336277 32.0848057 29.4037164 37.704935 29.4037164 32.2984537 31.0736739 31.3350595 29.4037164 30.3716653 28.0388263 31.1609759 28.0388263 51.1370637 31.3011885 49.2537962 31.3011885 39.7840465 32.3002746 39.2064056 37.2343749 36.3597439 38.7597123 37.8849532 37.2343749 38.7652621 37.2343749 45.8255371 38.7597123 44.9452282 40.5004961 43.9402914 40.5004961 26.4171991"></polygon>
                            <polygon id="Fill-6" fill="#FFFFFF" points="28.0388461 3.95644441e-05 15.5767806 7.19483372 28.0388461 14.3916061 40.5005159 7.19483372"></polygon>
                            <polygon id="Fill-7" fill="#9AA7B0" points="37.7684606 10.3480803 37.7684606 22.737686 29.4038351 27.5665264 29.4038351 15.178899"></polygon>
                            <polygon id="Fill-8" fill="#E3ECF3" points="39.1335485 9.56074791 39.1335485 23.5250184 37.7684606 22.737686 37.7684606 10.3480803"></polygon>
                            <polygon id="Fill-9" fill="#F9FAFB" points="29.4038153 27.5665066 29.4038153 29.1451279 31.5307805 30.3716257 40.500595 25.1886835 41.2583177 24.7514964 40.500595 24.3143093 39.1337266 23.5249987 37.7684408 22.7376662"></polygon>
                            <polygon id="Fill-10" fill="#E3ECF3" points="40.5005555 25.1887824 31.5307409 30.3717246 31.5307409 31.5982224 37.7684013 27.9956819 39.133687 27.2065691 40.5005555 26.4172584 41.2582782 25.9800713 41.2582782 24.7515953"></polygon>
                            <polygon id="Fill-11" fill="#E3ECF3" points="31.5306024 30.3716455 31.5306024 31.5981432 31.0735948 31.3350397 29.4038351 30.3716455 29.4038351 29.1451477"></polygon>
                            <polygon id="Fill-12" fill="#9AA7B0" points="37.7684606 27.9958006 37.7684606 31.2974535 29.4038351 36.1262939 29.4038351 32.2984339 31.0735948 31.3350397 31.5306024 31.5981432"></polygon>
                            <polygon id="Fill-13" fill="#E3ECF3" points="39.1335485 27.20649 39.1335485 32.0847859 37.7684606 31.2974535 37.7684606 27.9958006"></polygon>
                            <polygon id="Fill-14" fill="#E3ECF3" points="37.2343156 38.7652423 37.2343156 45.8255173 35.8692277 45.0104898 35.8692277 39.5525747"></polygon>
                            <polygon id="Fill-15" fill="#E3ECF3" points="12.4618874 36.7435783 1.97838826e-05 43.9403507 12.4618874 51.1371231 28.0389252 51.1371231 15.5768597 43.9403507 15.5768597 36.7435783"></polygon>
                            <polygon id="Fill-16" fill="#9AA7B0" points="35.8692079 41.1806516 35.8692079 45.0104898 31.3011094 47.64746 31.3011094 39.7840267 32.8264468 41.309236 34.3834383 40.4091449 34.4803793 40.3537547 35.6041039 41.0223938"></polygon>
                            <polygon id="Fill-17" fill="#E3ECF3" points="29.4038351 29.1451477 29.4038351 30.3716455 28.0387472 31.1609561 28.0387472 29.9344584"></polygon>
                            <polygon id="Fill-18" fill="#E3ECF3" points="37.2343156 45.8255767 35.8692277 45.0105491 31.3011292 47.6475193 31.3011292 49.2536379 28.0387669 51.1371033 30.7135479 51.1371033 32.1894255 50.2844895 34.1915544 50.2844895 38.7596529 47.6475193 38.7596529 44.94507"></polygon>
                            <polygon id="Fill-19" fill="#AAAAAA" points="35.8692079 39.5525747 35.8692079 41.1806516 35.6041039 41.0223938 34.4803793 40.3537547"></polygon>
                        </g>
                    </g>
                    <g id="Page-1" mask="url(#mask-2)">
                        <g transform="translate(66.516854, 44.584270) scale(-1, 1) translate(-66.516854, -44.584270) translate(45.842697, 18.966292)">
                            <polygon id="Fill-1" fill="#BFD0DA" points="15.5767806 43.9403111 28.0388461 51.1370835 28.0388461 14.3916061 15.5767806 7.19483372"></polygon>
                            <polygon id="Fill-2" fill="#F9FAFB" points="39.1335485 32.0847859 29.4038351 37.7049152 29.4038351 36.1262939 37.7684606 31.2974535"></polygon>
                            <polygon id="Fill-3" fill="#F9FAFB" points="38.7596529 37.8849334 37.2343156 38.7652423 35.8692277 39.5525747 34.4803991 40.3537547 34.3834581 40.4091449 32.8264665 41.309236 31.3011292 39.7840267 32.3002153 39.2063858 37.2343156 36.3597241"></polygon>
                            <polygon id="Fill-4" fill="#BFD0DA" points="40.5006346 7.19479415 40.5006346 24.3143291 39.1335683 23.5250184 39.1335683 9.56074791 37.7684804 10.3480803 29.4038548 15.178899 29.4038548 29.1451477 28.0387669 29.9344584 28.0387669 14.3915665"></polygon>
                            <polygon id="Fill-5" fill="#BFD0DA" points="39.1336277 27.2065097 39.1336277 32.0848057 29.4037164 37.704935 29.4037164 32.2984537 31.0736739 31.3350595 29.4037164 30.3716653 28.0388263 31.1609759 28.0388263 51.1370637 31.3011885 49.2537962 31.3011885 39.7840465 32.3002746 39.2064056 37.2343749 36.3597439 38.7597123 37.8849532 37.2343749 38.7652621 37.2343749 45.8255371 38.7597123 44.9452282 40.5004961 43.9402914 40.5004961 26.4171991"></polygon>
                            <polygon id="Fill-6" fill="#FFFFFF" points="28.0388461 3.95644441e-05 15.5767806 7.19483372 28.0388461 14.3916061 40.5005159 7.19483372"></polygon>
                            <polygon id="Fill-7" fill="#9AA7B0" points="37.7684606 10.3480803 37.7684606 22.737686 29.4038351 27.5665264 29.4038351 15.178899"></polygon>
                            <polygon id="Fill-8" fill="#E3ECF3" points="39.1335485 9.56074791 39.1335485 23.5250184 37.7684606 22.737686 37.7684606 10.3480803"></polygon>
                            <polygon id="Fill-9" fill="#F9FAFB" points="29.4038153 27.5665066 29.4038153 29.1451279 31.5307805 30.3716257 40.500595 25.1886835 41.2583177 24.7514964 40.500595 24.3143093 39.1337266 23.5249987 37.7684408 22.7376662"></polygon>
                            <polygon id="Fill-10" fill="#E3ECF3" points="40.5005555 25.1887824 31.5307409 30.3717246 31.5307409 31.5982224 37.7684013 27.9956819 39.133687 27.2065691 40.5005555 26.4172584 41.2582782 25.9800713 41.2582782 24.7515953"></polygon>
                            <polygon id="Fill-11" fill="#E3ECF3" points="31.5306024 30.3716455 31.5306024 31.5981432 31.0735948 31.3350397 29.4038351 30.3716455 29.4038351 29.1451477"></polygon>
                            <polygon id="Fill-12" fill="#9AA7B0" points="37.7684606 27.9958006 37.7684606 31.2974535 29.4038351 36.1262939 29.4038351 32.2984339 31.0735948 31.3350397 31.5306024 31.5981432"></polygon>
                            <polygon id="Fill-13" fill="#E3ECF3" points="39.1335485 27.20649 39.1335485 32.0847859 37.7684606 31.2974535 37.7684606 27.9958006"></polygon>
                            <polygon id="Fill-14" fill="#E3ECF3" points="37.2343156 38.7652423 37.2343156 45.8255173 35.8692277 45.0104898 35.8692277 39.5525747"></polygon>
                            <polygon id="Fill-15" fill="#E3ECF3" points="12.4618874 36.7435783 1.97838826e-05 43.9403507 12.4618874 51.1371231 28.0389252 51.1371231 15.5768597 43.9403507 15.5768597 36.7435783"></polygon>
                            <polygon id="Fill-16" fill="#9AA7B0" points="35.8692079 41.1806516 35.8692079 45.0104898 31.3011094 47.64746 31.3011094 39.7840267 32.8264468 41.309236 34.3834383 40.4091449 34.4803793 40.3537547 35.6041039 41.0223938"></polygon>
                            <polygon id="Fill-17" fill="#E3ECF3" points="29.4038351 29.1451477 29.4038351 30.3716455 28.0387472 31.1609561 28.0387472 29.9344584"></polygon>
                            <polygon id="Fill-18" fill="#E3ECF3" points="37.2343156 45.8255767 35.8692277 45.0105491 31.3011292 47.6475193 31.3011292 49.2536379 28.0387669 51.1371033 30.7135479 51.1371033 32.1894255 50.2844895 34.1915544 50.2844895 38.7596529 47.6475193 38.7596529 44.94507"></polygon>
                            <polygon id="Fill-19" fill="#AAAAAA" points="35.8692079 39.5525747 35.8692079 41.1806516 35.6041039 41.0223938 34.4803793 40.3537547"></polygon>
                        </g>
                    </g>
                    <g id="bubbles" transform="translate(42.000000, 9.000000)">
                        <g id="question">
                            <g id="Oval">
                                <use fill="black" fill-opacity="1" filter="url(#filter-4)" xlink:href="#path-3"></use>
                                <use fill="#FFFFFF" fill-rule="evenodd" xlink:href="#path-3"></use>
                            </g>
                            <path d="M3.82489888,3.27526592 C3.90767582,3.20591226 3.99772236,3.14103401 4.0950412,3.08062921 C4.19236004,3.02022442 4.29694825,2.96709137 4.40880899,2.92122846 C4.52066972,2.87536556 4.64091821,2.83957067 4.76955805,2.8138427 C4.8981979,2.78811473 5.03746242,2.77525094 5.18735581,2.77525094 C5.39765399,2.77525094 5.58725509,2.8032157 5.75616479,2.85914607 C5.9250745,2.91507643 6.06881339,2.99505566 6.18738577,3.09908614 C6.30595815,3.20311663 6.39712328,3.32839877 6.4608839,3.47493633 C6.52464451,3.62147389 6.55652434,3.78422882 6.55652434,3.96320599 C6.55652434,4.13547152 6.53303394,4.28312548 6.48605243,4.40617228 C6.43907093,4.52921909 6.37922633,4.63660379 6.30651685,4.72832959 C6.23380738,4.82005539 6.15438745,4.89891602 6.06825468,4.96491386 C5.98212192,5.03091169 5.90046481,5.09299347 5.8232809,5.15116105 C5.74609699,5.20932863 5.67898156,5.26637675 5.62193258,5.32230712 C5.56488361,5.37823748 5.52964801,5.44087855 5.51622472,5.51023221 L5.42226217,5.98004494 L4.71083146,5.98004494 L4.63700375,5.4397603 C4.63476653,5.42633701 4.63308864,5.41291392 4.63197004,5.39949064 C4.63085143,5.38606735 4.63029213,5.37264426 4.63029213,5.35922097 C4.63029213,5.26078353 4.65378254,5.17465205 4.70076404,5.10082397 C4.74774555,5.02699589 4.80703085,4.95932116 4.87862172,4.89779775 C4.95021259,4.83627435 5.02739534,4.77698905 5.11017228,4.71994007 C5.19294923,4.6628911 5.27013198,4.60136862 5.34172285,4.53537079 C5.41331372,4.46937295 5.47259902,4.39554598 5.51958052,4.31388764 C5.56656203,4.2322293 5.59005243,4.13547122 5.59005243,4.02361049 C5.59005243,3.88937761 5.54586811,3.78255221 5.45749813,3.70313109 C5.36912815,3.62370996 5.24776107,3.584 5.09339326,3.584 C4.97482088,3.584 4.87582562,3.5963045 4.79640449,3.62091386 C4.71698337,3.64552322 4.64874935,3.67292869 4.59170037,3.70313109 C4.5346514,3.73333348 4.48487412,3.76073895 4.44236704,3.78534831 C4.39985996,3.80995768 4.35735352,3.82226217 4.31484644,3.82226217 C4.21864621,3.82226217 4.14705641,3.78087432 4.10007491,3.69809738 L3.82489888,3.27526592 Z M4.44236704,7.19149064 C4.44236704,7.11095091 4.45746801,7.03600534 4.48767041,6.96665169 C4.51787281,6.89729803 4.55926066,6.83689414 4.61183521,6.7854382 C4.66440975,6.73398226 4.72649153,6.69315371 4.7980824,6.66295131 C4.86967327,6.63274891 4.94797461,6.61764794 5.03298876,6.61764794 C5.11576571,6.61764794 5.19294846,6.63274891 5.26453933,6.66295131 C5.3361302,6.69315371 5.39877127,6.73398226 5.45246442,6.7854382 C5.50615757,6.83689414 5.54810472,6.89729803 5.57830712,6.96665169 C5.60850951,7.03600534 5.62361049,7.11095091 5.62361049,7.19149064 C5.62361049,7.27203037 5.60850951,7.34753523 5.57830712,7.41800749 C5.54810472,7.48847975 5.50615757,7.54944294 5.45246442,7.60089888 C5.39877127,7.65235481 5.3361302,7.69262407 5.26453933,7.72170787 C5.19294846,7.75079166 5.11576571,7.76533333 5.03298876,7.76533333 C4.94797461,7.76533333 4.86967327,7.75079166 4.7980824,7.72170787 C4.72649153,7.69262407 4.66440975,7.65235481 4.61183521,7.60089888 C4.55926066,7.54944294 4.51787281,7.48847975 4.48767041,7.41800749 C4.45746801,7.34753523 4.44236704,7.27203037 4.44236704,7.19149064 Z" id="?" fill="#F46885" fill-rule="evenodd"></path>
                        </g>
                    </g>
                    <g id="bubbles-copy" transform="translate(25.000000, 0.000000)">
                        <g id="question">
                            <g id="Oval">
                                <use fill="black" fill-opacity="1" filter="url(#filter-6)" xlink:href="#path-5"></use>
                                <use fill="#FFFFFF" fill-rule="evenodd" xlink:href="#path-5"></use>
                            </g>
                            <path d="M5.73734831,4.91289888 C5.86151373,4.80886839 5.99658354,4.71155101 6.1425618,4.62094382 C6.28854006,4.53033663 6.44542238,4.45063705 6.61321348,4.3818427 C6.78100458,4.31304835 6.96137731,4.259356 7.15433708,4.22076404 C7.34729684,4.18217209 7.55619363,4.1628764 7.78103371,4.1628764 C8.09648098,4.1628764 8.38088263,4.20482355 8.63424719,4.2887191 C8.88761175,4.37261465 9.10322008,4.49258349 9.28107865,4.64862921 C9.45893722,4.80467494 9.59568492,4.99259815 9.69132584,5.21240449 C9.78696677,5.43221084 9.83478652,5.67634323 9.83478652,5.94480899 C9.83478652,6.20320728 9.79955091,6.42468822 9.72907865,6.60925843 C9.65860639,6.79382864 9.5688395,6.95490568 9.45977528,7.09249438 C9.35071107,7.23008308 9.23158117,7.34837404 9.10238202,7.44737079 C8.97318287,7.54636754 8.85069721,7.6394902 8.73492135,7.72674157 C8.61914549,7.81399295 8.51847234,7.89956512 8.43289888,7.98346067 C8.34732541,8.06735622 8.29447201,8.16131783 8.27433708,8.26534831 L8.13339326,8.97006742 L7.06624719,8.97006742 L6.95550562,8.15964045 C6.9521498,8.13950552 6.94963297,8.11937089 6.94795506,8.09923596 C6.94627715,8.07910102 6.9454382,8.05896639 6.9454382,8.03883146 C6.9454382,7.89117529 6.9806738,7.76197808 7.05114607,7.65123596 C7.12161833,7.54049383 7.21054628,7.43898173 7.31793258,7.34669663 C7.42531889,7.25441152 7.54109301,7.16548357 7.66525843,7.07991011 C7.78942384,6.99433665 7.90519796,6.90205293 8.01258427,6.80305618 C8.11997057,6.70405943 8.20889852,6.59331896 8.27937079,6.47083146 C8.34984305,6.34834396 8.38507865,6.20320683 8.38507865,6.03541573 C8.38507865,5.83406641 8.31880216,5.67382831 8.18624719,5.55469663 C8.05369222,5.43556495 7.87164161,5.376 7.64008989,5.376 C7.46223132,5.376 7.31373842,5.39445674 7.19460674,5.43137079 C7.07547506,5.46828483 6.97312402,5.50939303 6.88755056,5.55469663 C6.8019771,5.60000023 6.72731118,5.64110843 6.66355056,5.67802247 C6.59978994,5.71493651 6.53603028,5.73339326 6.47226966,5.73339326 C6.32796932,5.73339326 6.22058462,5.67131148 6.15011236,5.54714607 L5.73734831,4.91289888 Z M6.66355056,10.787236 C6.66355056,10.6664264 6.68620202,10.554008 6.73150562,10.4499775 C6.77680922,10.345947 6.83889099,10.2553412 6.91775281,10.1781573 C6.99661463,10.1009734 7.08973729,10.0397306 7.1971236,9.99442697 C7.3045099,9.94912337 7.42196191,9.92647191 7.54948315,9.92647191 C7.67364856,9.92647191 7.78942268,9.94912337 7.89680899,9.99442697 C8.00419529,10.0397306 8.0981569,10.1009734 8.17869663,10.1781573 C8.25923636,10.2553412 8.32215708,10.345947 8.36746067,10.4499775 C8.41276427,10.554008 8.43541573,10.6664264 8.43541573,10.787236 C8.43541573,10.9080455 8.41276427,11.0213028 8.36746067,11.1270112 C8.32215708,11.2327196 8.25923636,11.3241644 8.17869663,11.4013483 C8.0981569,11.4785322 8.00419529,11.5389361 7.89680899,11.5825618 C7.78942268,11.6261875 7.67364856,11.648 7.54948315,11.648 C7.42196191,11.648 7.3045099,11.6261875 7.1971236,11.5825618 C7.08973729,11.5389361 6.99661463,11.4785322 6.91775281,11.4013483 C6.83889099,11.3241644 6.77680922,11.2327196 6.73150562,11.1270112 C6.68620202,11.0213028 6.66355056,10.9080455 6.66355056,10.787236 Z" id="?" fill="#F46885" fill-rule="evenodd"></path>
                        </g>
                    </g>
                </g>
            </g>
        </g>
    </g>
</svg>