<?xml version="1.0" encoding="UTF-8"?>
<svg width="59px" height="88px" viewBox="0 0 59 88" version="1.1" xmlns="http://www.w3.org/2000/svg" xmlns:xlink="http://www.w3.org/1999/xlink">
    <!-- Generator: Sketch 52.5 (67469) - http://www.bohemiancoding.com/sketch -->
    <title>Group 17</title>
    <desc>Created with Sketch.</desc>
    <defs>
        <polygon id="path-1" points="18.6666667 0 18.6666667 53.3333333 38.6666667 60 38.6666667 6.66666667"></polygon>
        <filter x="-125.0%" y="-33.3%" width="350.0%" height="183.3%" filterUnits="objectBoundingBox" id="filter-2">
            <feOffset dx="0" dy="5" in="SourceAlpha" result="shadowOffsetOuter1"></feOffset>
            <feGaussianBlur stdDeviation="7.5" in="shadowOffsetOuter1" result="shadowBlurOuter1"></feGaussianBlur>
            <feColorMatrix values="0 0 0 0 0   0 0 0 0 0   0 0 0 0 0  0 0 0 0.1 0" type="matrix" in="shadowBlurOuter1"></feColorMatrix>
        </filter>
    </defs>
    <g id="Illustrations" stroke="none" stroke-width="1" fill="none" fill-rule="evenodd">
        <g transform="translate(-685.000000, -6827.000000)" id="Boost">
            <g transform="translate(683.000000, 38.000000)">
                <g id="Group-17" transform="translate(2.000000, 6798.000000)">
                    <polygon id="Path" fill="#DDE7ED" points="39.1111111 7.7037037 19.5555556 1.33333333 0 7.7037037 0 58.6666667 19.5555556 52.2962963 39.1111111 58.6666667 58.6666667 52.2962963 58.6666667 1.33333333"></polygon>
                    <g id="Path">
                        <use fill="black" fill-opacity="1" filter="url(#filter-2)" xlink:href="#path-1"></use>
                        <use fill="#F8F8F8" fill-rule="evenodd" xlink:href="#path-1"></use>
                    </g>
                    <path d="M14.6666667,45.3333333 C14.6666667,47.5395829 12.8791659,49.3333333 10.6666667,49.3333333 C8.46041707,49.3333333 6.66666667,47.5395829 6.66666667,45.3333333 C6.66666667,43.1208341 8.46041707,41.3333333 10.6666667,41.3333333 C12.8791659,41.3333333 14.6666667,43.1208341 14.6666667,45.3333333 Z" id="Path" fill="#F46885"></path>
                    <path d="M52,41.3333333 C52,43.5395829 50.2062512,45.3333333 48,45.3333333 C45.7875008,45.3333333 44,43.5395829 44,41.3333333 C44,39.1208341 45.7875008,37.3333333 48,37.3333333 C50.2062512,37.3333333 52,39.1208341 52,41.3333333 Z" id="Path" fill="#F46885"></path>
                    <path d="M25.3333333,18.6666667 C25.3333333,20.8729163 23.5395829,22.6666667 21.3333333,22.6666667 C19.1208341,22.6666667 17.3333333,20.8729163 17.3333333,18.6666667 C17.3333333,16.4541659 19.1208341,14.6666667 21.3333333,14.6666667 C23.5395829,14.6666667 25.3333333,16.4541659 25.3333333,18.6666667 Z" id="Path" fill="#F46885"></path>
                    <path d="M33.3333333,16 C33.3333333,17.4736833 32.1403518,18.6666667 30.6666667,18.6666667 C29.1929834,18.6666667 28,17.4736833 28,16 C28,14.5263149 29.1929834,13.3333333 30.6666667,13.3333333 C32.1403518,13.3333333 33.3333333,14.5263149 33.3333333,16 Z" id="Path" fill="#DFE5EB"></path>
                    <path d="M40,16 C40,17.4736833 38.8070184,18.6666667 37.3333333,18.6666667 C35.85965,18.6666667 34.6666667,17.4736833 34.6666667,16 C34.6666667,14.5263149 35.85965,13.3333333 37.3333333,13.3333333 C38.8070184,13.3333333 40,14.5263149 40,16 Z" id="Path" fill="#DFE5EB"></path>
                    <path d="M48,18.6666667 C48,20.14035 46.8000013,21.3333333 45.3333333,21.3333333 C43.85965,21.3333333 42.6666667,20.14035 42.6666667,18.6666667 C42.6666667,17.1929816 43.85965,16 45.3333333,16 C46.8000013,16 48,17.1929816 48,18.6666667 Z" id="Path" fill="#FFFFFF"></path>
                    <path d="M53.3333333,22.6666667 C53.3333333,24.14035 52.1387801,25.3333333 50.6631535,25.3333333 C49.194555,25.3333333 48,24.14035 48,22.6666667 C48,21.1929816 49.194555,20 50.6631535,20 C52.1387801,20 53.3333333,21.1929816 53.3333333,22.6666667 Z" id="Path" fill="#FFFFFF"></path>
                    <path d="M53.3333333,30.6631627 C53.3333333,32.1349097 52.1349115,33.3333333 50.6631627,33.3333333 C49.1914158,33.3333333 48,32.1349097 48,30.6631627 C48,29.1984237 49.1914158,28 50.6631627,28 C52.1349115,28 53.3333333,29.1984237 53.3333333,30.6631627 Z" id="Path" fill="#FFFFFF"></path>
                    <path d="M40,42.6666667 C40,44.1403518 38.8070184,45.3333333 37.3333333,45.3333333 C35.85965,45.3333333 34.6666667,44.1403518 34.6666667,42.6666667 C34.6666667,41.1929834 35.85965,40 37.3333333,40 C38.8070184,40 40,41.1929834 40,42.6666667 Z" id="Path" fill="#DFE5EB"></path>
                    <path d="M33.3333333,41.3333333 C33.3333333,42.8070184 32.1403518,44 30.6666667,44 C29.1929834,44 28,42.8070184 28,41.3333333 C28,39.85965 29.1929834,38.6666667 30.6666667,38.6666667 C32.1403518,38.6666667 33.3333333,39.85965 33.3333333,41.3333333 Z" id="Path" fill="#DFE5EB"></path>
                    <path d="M29.3333333,36.0035039 C29.3333333,37.4752527 28.1403518,38.6666667 26.6666667,38.6666667 C25.1929834,38.6666667 24,37.4752527 24,36.0035039 C24,34.531757 25.1929834,33.3333333 26.6666667,33.3333333 C28.1403518,33.3333333 29.3333333,34.531757 29.3333333,36.0035039 Z" id="Path" fill="#DFE5EB"></path>
                    <path d="M22.6666667,34.6701798 C22.6666667,36.1387801 21.4736851,37.3333333 20,37.3333333 C18.5263167,37.3333333 17.3333333,36.1387801 17.3333333,34.6701798 C17.3333333,33.194555 18.5263167,32 20,32 C21.4736851,32 22.6666667,33.194555 22.6666667,34.6701798 Z" id="Path" fill="#DFE5EB"></path>
                    <path d="M17.3333333,37.3333333 C17.3333333,38.8070184 16.1387783,40 14.6701798,40 C13.194555,40 12,38.8070184 12,37.3333333 C12,35.85965 13.194555,34.6666667 14.6701798,34.6666667 C16.1387783,34.6666667 17.3333333,35.85965 17.3333333,37.3333333 Z" id="Path" fill="#FFFFFF"></path>
                    <path d="M14.6666667,21.3333333 C14.6666667,22.8070166 13.4736833,24 12,24 C10.5333338,24 9.33333333,22.8070166 9.33333333,21.3333333 C9.33333333,19.8666671 10.5333338,18.6666667 12,18.6666667 C13.4736833,18.6666667 14.6666667,19.8666671 14.6666667,21.3333333 Z" id="Path" fill="#FFFFFF"></path>
                </g>
            </g>
        </g>
    </g>
</svg>