<?xml version="1.0" encoding="UTF-8"?>
<svg width="104px" height="87px" viewBox="0 0 104 87" version="1.1" xmlns="http://www.w3.org/2000/svg" xmlns:xlink="http://www.w3.org/1999/xlink">
    <!-- Generator: Sketch 52.5 (67469) - http://www.bohemiancoding.com/sketch -->
    <title>photo</title>
    <desc>Created with Sketch.</desc>
    <defs>
        <linearGradient x1="-26.6372833%" y1="50%" x2="100%" y2="50%" id="linearGradient-1">
            <stop stop-color="#F5F7FA" offset="0%"></stop>
            <stop stop-color="#C3CFE2" offset="100%"></stop>
        </linearGradient>
        <path d="M26.274647,6.49003985 C27.3612359,2.74086293 30.8205365,4.3057729e-15 34.92,3.55271368e-15 L43.2,0 C47.2994634,-7.53059225e-16 50.758764,2.74086293 51.845353,6.49003985 L56.16,6.49003985 C61.1305625,6.49003985 65.16,10.5194771 65.16,15.4900398 L65.16,42.1992032 C65.16,47.1697659 61.1305625,51.199203 56.16,51.199203 L9,51.199203 C4.02943725,51.199203 6.08718375e-16,47.1697659 0,42.1992032 L0,15.4900398 C-6.08718375e-16,10.5194771 4.02943725,6.49003985 9,6.49003985 L26.274647,6.49003985 Z" id="path-2"></path>
        <ellipse id="path-4" cx="8.84" cy="8.8575697" rx="8.82" ry="8.83366535"></ellipse>
        <ellipse id="path-6" cx="8.84" cy="8.8575697" rx="8.82" ry="8.83366535"></ellipse>
        <linearGradient x1="50%" y1="-27.9695722%" x2="50%" y2="100%" id="linearGradient-8">
            <stop stop-color="#FFFFFF" stop-opacity="0" offset="0%"></stop>
            <stop stop-color="#FFFFFF" offset="100%"></stop>
        </linearGradient>
    </defs>
    <g id="Illustrations" stroke="none" stroke-width="1" fill="none" fill-rule="evenodd">
        <g transform="translate(-689.000000, -9619.000000)" id="Boost">
            <g transform="translate(42.000000, 38.000000)">
                <g id="photo" transform="translate(643.000000, 9581.000000)">
                    <polygon id="shadow" fill="url(#linearGradient-1)" opacity="0.5" points="29.647303 49.2391242 62.7942605 49.2391242 107.731488 59.010307 56.2352 72.377705 9.8082753 59.010307"></polygon>
                    <g id="camera">
                        <g id="Group" transform="translate(14.400000, 6.129482)">
                            <g id="Rectangle-2">
                                <g id="Mask" fill="#EDF2F6">
                                    <path d="M26.274647,6.49003985 C27.3612359,2.74086293 30.8205365,4.3057729e-15 34.92,3.55271368e-15 L43.2,0 C47.2994634,-7.53059225e-16 50.758764,2.74086293 51.845353,6.49003985 L56.16,6.49003985 C61.1305625,6.49003985 65.16,10.5194771 65.16,15.4900398 L65.16,42.1992032 C65.16,47.1697659 61.1305625,51.199203 56.16,51.199203 L9,51.199203 C4.02943725,51.199203 6.08718375e-16,47.1697659 0,42.1992032 L0,15.4900398 C-6.08718375e-16,10.5194771 4.02943725,6.49003985 9,6.49003985 L26.274647,6.49003985 Z" id="path-3"></path>
                                </g>
                                <g id="Clipped">
                                    <mask id="mask-3" fill="white">
                                        <use xlink:href="#path-2"></use>
                                    </mask>
                                    <g id="path-3"></g>
                                    <rect id="Rectangle" fill="#BFD0DA" mask="url(#mask-3)" x="0" y="6.49003985" width="15.12" height="44.7091633" rx="7.56"></rect>
                                </g>
                            </g>
                            <rect id="Rectangle" fill="#BFD0DA" x="52.2" y="11.5378486" width="7.92" height="5.04780875" rx="2.52390437"></rect>
                            <ellipse id="Oval-2" fill="#A0B6C2" transform="translate(6.660000, 12.619522) rotate(47.000000) translate(-6.660000, -12.619522) " cx="6.66000007" cy="12.6195219" rx="3.06" ry="3.96613546"></ellipse>
                            <ellipse id="Oval" fill="#BFD0DA" cx="39.24" cy="29.565737" rx="14.76" ry="14.7828685"></ellipse>
                            <g id="Oval-Copy-2" transform="translate(28.080000, 18.388446)">
                                <g id="Mask" fill="#9AACB7">
                                    <ellipse id="path-6" cx="11.16" cy="11.1772909" rx="11.16" ry="11.1772909"></ellipse>
                                </g>
                                <g id="Mask-Copy" transform="translate(2.500000, 2.500000)" fill="#A0B3BE">
                                    <ellipse id="path-8" cx="8.84" cy="8.8575697" rx="8.82" ry="8.83366535"></ellipse>
                                </g>
                                <g id="Clipped" transform="translate(2.500000, 2.500000)">
                                    <mask id="mask-5" fill="white">
                                        <use xlink:href="#path-4"></use>
                                    </mask>
                                    <g id="path-8"></g>
                                    <ellipse id="Oval" fill="#BFD0DA" opacity="0.332427536" mask="url(#mask-5)" cx="12.98" cy="1.46613546" rx="11.16" ry="11.1772909"></ellipse>
                                </g>
                                <g id="Oval-Copy-5-Clipped" transform="translate(2.500000, 2.500000)">
                                    <mask id="mask-7" fill="white">
                                        <use xlink:href="#path-6"></use>
                                    </mask>
                                    <g id="path-8"></g>
                                    <ellipse id="Oval-Copy-5" fill-opacity="0.267663043" fill="#FFFFFF" mask="url(#mask-7)" cx="16.58" cy="5.7928287" rx="3.24" ry="3.24501992"></ellipse>
                                </g>
                            </g>
                        </g>
                        <g id="Group-2-Copy" transform="translate(0.000000, 35.695219)">
                            <g id="Group-4" transform="translate(65.379236, 38.473356) rotate(18.000000) translate(-65.379236, -38.473356) translate(50.379236, 26.973356)">
                                <g id="Path-9" fill="#EDF2F6" stroke="#FFFFFF" stroke-width="1.8">
                                    <path d="M0.763033315,17.6763548 C8.7437989,21.425116 15.0969642,23.0061138 19.7890031,22.4509315 C24.1110221,20.5545831 26.8154462,16.4542916 28.9179625,8.088481 C29.0139236,7.7066567 28.3912298,6.1756464 27.4015306,4.5947981 C26.4612189,3.09283648 25.3644298,1.85374291 25.1210761,1.81133841 C17.3561888,0.45830362 13.3826764,-0.035135305 11.2801562,0.06554842 C10.7254702,6.99809705 7.20160195,12.8817215 0.763033315,17.6763548 Z" id="Path"></path>
                                </g>
                                <path d="M25.5355512,0.99403586 C26.0989929,1.3381262 26.958633,2.3002784 28.1144716,3.88049247 C29.5443972,5.83542685 30.051828,8.1183925 29.8317006,8.5050766 C29.1628926,6.44350805 25.3063014,4.28692155 24.5562975,4.5309901 C25.3350857,3.47631171 25.6615036,2.29732695 25.5355512,0.99403586 Z" id="Path-12" fill="#E0E5E9"></path>
                            </g>
                            <g id="Group-5" transform="translate(22.567226, 21.869794) rotate(32.000000) translate(-22.567226, -21.869794) translate(5.567226, 7.369794)">
                                <g id="Path-10" transform="translate(17.108996, 14.491013) rotate(-14.000000) translate(-17.108996, -14.491013) translate(2.608996, 3.491013)" fill="#F46885" stroke="#FFFFFF" stroke-width="1.8">
                                    <path d="M8.26484515,0.39848316 C8.37692545,5.1807881 5.49805405,10.1907297 0.726740335,14.454135 C5.1306614,16.6883293 11.9753553,19.457422 17.4240936,21.1567322 C17.4075247,21.1515648 17.5974126,21.1560758 17.8738884,21.1464848 C17.9260639,21.1446379 17.9260639,21.1446379 17.9790852,21.1426765 C18.4823289,21.1240131 18.6136318,21.1229221 18.8139246,21.1579411 C19.4786319,21.2741577 19.9970001,21.0954996 20.6400195,20.6225275 C20.5837,20.6639532 21.1435024,20.2259969 21.4503477,20.0148366 C22.0135231,19.4277933 23.5247913,17.8982327 23.7990453,17.612523 C25.8366267,15.4898311 26.9245644,13.9028218 27.7012902,11.6137077 C28.205419,10.127973 28.561823,8.8863058 28.8919445,7.5515698 C28.4943981,7.2833648 27.9673453,7.0355123 27.2374879,6.77048335 C26.2865051,6.42515845 21.0117548,4.88786025 20.2154801,4.64250175 C16.4680097,3.48778255 12.6634958,2.15592315 8.26484515,0.39848316 Z" id="Path"></path>
                                </g>
                                <path d="M24.0072133,20.5048068 C25.1391475,21.6163019 24.0907182,24.5825236 21.8663494,24.5305743 C24.2295091,24.5623944 25.5042061,23.7017667 26.4223133,22.8382972 C27.3404205,21.9748278 31.6506856,17.9666562 31.1222891,7.09460365 C31.1914531,16.2856451 28.9357523,20.7724582 24.0072133,20.5048068 Z" id="Path-11" fill="#FFECF0"></path>
                            </g>
                        </g>
                        <g id="Group-6" transform="translate(69.840000, 0.000000)" fill="url(#linearGradient-8)">
                            <rect id="Rectangle-34" x="0" y="0" width="2.88" height="7.9322709" rx="1.44"></rect>
                            <rect id="Rectangle-34-Copy" transform="translate(13.320000, 8.292829) rotate(45.000000) translate(-13.320000, -8.292829) " x="11.8799999" y="4.32669317" width="2.88" height="7.9322709" rx="1.44"></rect>
                            <rect id="Rectangle-34-Copy-2" transform="translate(18.360000, 18.749004) rotate(90.000000) translate(-18.360000, -18.749004) " x="16.92" y="14.7828685" width="2.88" height="7.9322709" rx="1.44"></rect>
                        </g>
                    </g>
                    <g id="star" transform="translate(85.735222, 60.631617) rotate(45.000000) translate(-85.735222, -60.631617) translate(83.235222, 58.131617)" fill="#BFD0DA">
                        <g id="path-15-link" transform="translate(-0.004325, 0.004401)">
                            <path d="M0.7055845,3.6409405 C1.124026,2.602323 1.0217325,1.426376 0.430238,0.475611 L0.4055845,0.4359825 L0.4458045,0.461082 C1.394374,1.053041 2.568917,1.1553985 3.6055845,0.7364475 C3.1880655,1.772774 3.299875,2.947323 3.905426,3.88626 L4.0055845,4.0415605 L3.84981,3.9407845 C2.9130935,3.334792 1.7399545,3.2229175 0.7055845,3.6409405 Z" id="path-15"></path>
                        </g>
                    </g>
                    <g id="star" transform="translate(6.739567, 6.702565) rotate(45.000000) translate(-6.739567, -6.702565) translate(2.739567, 3.202565)" fill="#BFD0DA">
                        <g id="path-17-link" transform="translate(0.991236, -0.004287)">
                            <path d="M0.8383766,5.2719465 C1.50788345,3.6101583 1.34421385,1.7286431 0.39782255,0.20741894 L0.35837662,0.144013765 L0.422728405,0.184172765 C1.94043995,1.13130686 3.8197086,1.29507954 5.4783766,0.62475746 C4.81034655,2.2828802 4.98924165,4.1621582 5.95812345,5.66445755 L6.1183766,5.91293805 L5.86913745,5.75169715 C4.37039085,4.7821091 2.493369,4.60310985 0.8383766,5.2719465 Z" id="path-17"></path>
                        </g>
                    </g>
                </g>
            </g>
        </g>
    </g>
</svg>