<?xml version="1.0" encoding="UTF-8"?>
<svg width="119px" height="127px" viewBox="0 0 119 127" version="1.1" xmlns="http://www.w3.org/2000/svg" xmlns:xlink="http://www.w3.org/1999/xlink">
    <!-- Generator: Sketch 55.2 (78181) - https://sketchapp.com -->
    <title>request</title>
    <desc>Created with Sketch.</desc>
    <defs>
        <filter x="-42.9%" y="-39.4%" width="185.7%" height="178.8%" filterUnits="objectBoundingBox" id="filter-1">
            <feOffset dx="0" dy="5" in="SourceAlpha" result="shadowOffsetOuter1"></feOffset>
            <feGaussianBlur stdDeviation="7.5" in="shadowOffsetOuter1" result="shadowBlurOuter1"></feGaussianBlur>
            <feColorMatrix values="0 0 0 0 0   0 0 0 0 0   0 0 0 0 0  0 0 0 0.1 0" type="matrix" in="shadowBlurOuter1" result="shadowMatrixOuter1"></feColorMatrix>
            <feMerge>
                <feMergeNode in="shadowMatrixOuter1"></feMergeNode>
                <feMergeNode in="SourceGraphic"></feMergeNode>
            </feMerge>
        </filter>
        <path d="M3.89163208,32.0501137 L36.1773019,2.45711677 C39.4411601,-0.534530749 44.4667343,-0.479211835 47.6639486,2.58355582 L78.4487783,32.0738472 C80.811569,34.3372797 82.147651,37.4673818 82.147651,40.73937 L82.147651,82.7595092 C82.147651,87.730072 78.1182138,91.7595092 73.147651,91.7595092 L9,91.7595092 C4.02943725,91.7595092 -5.32907052e-15,87.730072 -5.32907052e-15,82.7595092 L-5.32907052e-15,40.8962637 C-5.32907052e-15,37.5324325 1.41188575,34.3230455 3.89163208,32.0501137 Z" id="path-2"></path>
        <path d="M3.89163208,32.0501137 L36.1773019,2.45711677 C39.4411601,-0.534530749 44.4667343,-0.479211835 47.6639486,2.58355582 L78.4487783,32.0738472 C80.811569,34.3372797 82.147651,37.4673818 82.147651,40.73937 L82.147651,82.7595092 C82.147651,87.730072 78.1182138,91.7595092 73.147651,91.7595092 L9,91.7595092 C4.02943725,91.7595092 -5.32907052e-15,87.730072 -5.32907052e-15,82.7595092 L-5.32907052e-15,40.8962637 C-5.32907052e-15,37.5324325 1.41188575,34.3230455 3.89163208,32.0501137 Z" id="path-4"></path>
        <filter x="-47.0%" y="-134.5%" width="194.0%" height="369.0%" filterUnits="objectBoundingBox" id="filter-6">
            <feOffset dx="0" dy="5" in="SourceAlpha" result="shadowOffsetOuter1"></feOffset>
            <feGaussianBlur stdDeviation="7.5" in="shadowOffsetOuter1" result="shadowBlurOuter1"></feGaussianBlur>
            <feColorMatrix values="0 0 0 0 0   0 0 0 0 0   0 0 0 0 0  0 0 0 0.1 0" type="matrix" in="shadowBlurOuter1" result="shadowMatrixOuter1"></feColorMatrix>
            <feMerge>
                <feMergeNode in="shadowMatrixOuter1"></feMergeNode>
                <feMergeNode in="SourceGraphic"></feMergeNode>
            </feMerge>
        </filter>
        <path d="M5.52248322,4.2853681 C5.52248322,4.91537125 5.45498389,5.46286577 5.31998322,5.9278681 C5.18498254,6.39287042 4.99831774,6.77703325 4.75998322,7.0803681 C4.52164869,7.38370295 4.23998484,7.60953402 3.91498322,7.7578681 C3.58998159,7.90620217 3.23915177,7.9803681 2.86248322,7.9803681 C2.48581467,7.9803681 2.13665149,7.90620217 1.81498322,7.7578681 C1.49331494,7.60953402 1.21415107,7.38370295 0.97748322,7.0803681 C0.74081537,6.77703325 0.55581722,6.39287042 0.42248322,5.9278681 C0.28914922,5.46286577 0.22248322,4.91537125 0.22248322,4.2853681 C0.22248322,3.6520316 0.28914922,3.10370375 0.42248322,2.6403681 C0.55581722,2.17703245 0.74081537,1.79370295 0.97748322,1.4903681 C1.21415107,1.18703325 1.49331494,0.961202175 1.81498322,0.8128681 C2.13665149,0.664534025 2.48581467,0.5903681 2.86248322,0.5903681 C3.23915177,0.5903681 3.58998159,0.664534025 3.91498322,0.8128681 C4.23998484,0.961202175 4.52164869,1.18703325 4.75998322,1.4903681 C4.99831774,1.79370295 5.18498254,2.17703245 5.31998322,2.6403681 C5.45498389,3.10370375 5.52248322,3.6520316 5.52248322,4.2853681 Z M4.24748322,4.2853681 C4.24748322,3.76203215 4.20915027,3.32870315 4.13248322,2.9853681 C4.05581617,2.64203305 3.95331719,2.36870245 3.82498322,2.1653681 C3.69664924,1.96203375 3.54915072,1.81953517 3.38248322,1.7378681 C3.21581572,1.65620102 3.04248412,1.6153681 2.86248322,1.6153681 C2.68581567,1.6153681 2.51498404,1.65620102 2.34998322,1.7378681 C2.18498239,1.81953517 2.03915052,1.96203375 1.91248322,2.1653681 C1.78581592,2.36870245 1.68498359,2.64203305 1.60998322,2.9853681 C1.53498284,3.32870315 1.49748322,3.76203215 1.49748322,4.2853681 C1.49748322,4.80870405 1.53498284,5.24203305 1.60998322,5.5853681 C1.68498359,5.92870315 1.78581592,6.20203375 1.91248322,6.4053681 C2.03915052,6.60870245 2.18498239,6.75120102 2.34998322,6.8328681 C2.51498404,6.91453517 2.68581567,6.9553681 2.86248322,6.9553681 C3.04248412,6.9553681 3.21581572,6.91453517 3.38248322,6.8328681 C3.54915072,6.75120102 3.69664924,6.60870245 3.82498322,6.4053681 C3.95331719,6.20203375 4.05581617,5.92870315 4.13248322,5.5853681 C4.20915027,5.24203305 4.24748322,4.80870405 4.24748322,4.2853681 Z" id="path-7"></path>
    </defs>
    <g id="Mobile-Illustrations" stroke="none" stroke-width="1" fill="none" fill-rule="evenodd">
        <g id="Illustrations" transform="translate(-27.000000, -6147.000000)">
            <g id="Operations" transform="translate(40.000000, 56.000000)">
                <g id="request" filter="url(#filter-1)" transform="translate(2.000000, 6100.000000)">
                    <g id="envelope">
                        <g id="Mask" fill="#E3ECF3">
                            <g id="path-1-link">
                                <path d="M3.89163208,32.0501137 L36.1773019,2.45711677 C39.4411601,-0.534530749 44.4667343,-0.479211835 47.6639486,2.58355582 L78.4487783,32.0738472 C80.811569,34.3372797 82.147651,37.4673818 82.147651,40.73937 L82.147651,82.7595092 C82.147651,87.730072 78.1182138,91.7595092 73.147651,91.7595092 L9,91.7595092 C4.02943725,91.7595092 -5.32907052e-15,87.730072 -5.32907052e-15,82.7595092 L-5.32907052e-15,40.8962637 C-5.32907052e-15,37.5324325 1.41188575,34.3230455 3.89163208,32.0501137 Z" id="path-1"></path>
                            </g>
                        </g>
                        <g id="Rectangle-Clipped">
                            <mask id="mask-3" fill="white">
                                <use xlink:href="#path-2"></use>
                            </mask>
                            <g id="path-1"></g>
                            <g id="Rectangle" mask="url(#mask-3)">
                                <g transform="translate(0.000000, 35.000000)" id="path-4-link">
                                    <g>
                                        <path d="M0,0.6171779 L37.567434,27.6723283 C39.661737,29.1805943 42.485914,29.1805943 44.580217,27.6723283 L82.147651,0.6171779 L82.147651,50.7595092 C82.147651,54.0732177 79.4613595,56.7595092 76.147651,56.7595092 L6,56.7595092 C2.6862915,56.7595092 0,54.0732177 0,50.7595092 L0,0.6171779 Z" id="path-4" fill="#FDFEFF"></path>
                                    </g>
                                </g>
                            </g>
                        </g>
                        <g id="Rectangle-Copy-Clipped">
                            <mask id="mask-5" fill="white">
                                <use xlink:href="#path-4"></use>
                            </mask>
                            <g id="path-1"></g>
                            <g id="Rectangle-Copy" filter="url(#filter-6)" mask="url(#mask-5)">
                                <g transform="translate(0.000000, 63.000000)" id="path-6-link">
                                    <g>
                                        <path d="M44.580217,1.7043588 L82.147651,28.7595092 L-3.55271368e-15,28.7595092 L37.567434,1.7043588 C39.661737,0.1960929 42.485914,0.1960929 44.580217,1.7043588 Z" id="path-6" fill="#FFFFFF"></path>
                                    </g>
                                </g>
                            </g>
                        </g>
                    </g>
                    <g id="indicatprs" transform="translate(68.255034, 76.667485)">
                        <g id="Oval-2" fill="#F46885">
                            <g id="path-8-link">
                                <ellipse id="path-8" cx="10.6308725" cy="10.6247853" rx="10.6308725" ry="10.6247853"></ellipse>
                            </g>
                        </g>
                        <g id="0" transform="translate(8.000000, 6.000000)">
                            <g>
                                <use fill="#000000" xlink:href="#path-7"></use>
                                <use fill="#FFFFFF" xlink:href="#path-7"></use>
                            </g>
                        </g>
                    </g>
                </g>
            </g>
        </g>
    </g>
</svg>