<?xml version="1.0" encoding="UTF-8"?>
<svg width="71px" height="79px" viewBox="0 0 71 79" version="1.1" xmlns="http://www.w3.org/2000/svg" xmlns:xlink="http://www.w3.org/1999/xlink">
    <!-- Generator: Sketch 52.5 (67469) - http://www.bohemiancoding.com/sketch -->
    <title>guy on chair</title>
    <desc>Created with Sketch.</desc>
    <defs>
        <path d="M11.210557,10.7143771 C11.5656655,11.9826164 11.4050926,12.897917 10.7285211,13.4603124 C9.71359086,14.3039055 8.69446705,15.7387581 7.68970362,15.8568625 C6.68498895,15.9750004 5.59713524,16.5452404 5.42095848,18.0038949 C5.33589333,18.7086324 1.849344,22.3517653 0.603721143,27.3641783 C0.288353524,28.6332891 0.67198781,30.5861181 1.75464838,33.2226316 L4.63511162,31.5816076 L8.73764571,24.704131 C13.2939093,23.0660236 15.862467,22.0512579 16.443075,21.6598674 C17.3141577,21.0727985 20.1359116,18.5605912 19.591875,17.6186057 C19.0478141,16.6766537 20.8178712,10.6919497 21.869056,9.52864 C22.920387,8.36533029 23.781376,5.53055695 23.8024655,4.4839101 C23.82336,3.43726324 24.1878552,0.303759238 21.5639528,0.403727238 C19.8146194,0.470406095 16.3634712,3.90730057 11.210557,10.7143771 Z" id="path-1"></path>
        <linearGradient x1="62.6887703%" y1="19.7630314%" x2="27.3580472%" y2="94.4162831%" id="linearGradient-3">
            <stop stop-color="#E1EDFF" offset="0%"></stop>
            <stop stop-color="#A1B8E3" offset="100%"></stop>
        </linearGradient>
        <linearGradient x1="-5.40704476%" y1="30.1449459%" x2="50%" y2="100%" id="linearGradient-4">
            <stop stop-color="#1F3256" offset="0%"></stop>
            <stop stop-color="#243452" offset="100%"></stop>
        </linearGradient>
        <linearGradient x1="5.69749539%" y1="-6.56030944%" x2="16.957592%" y2="42.0896145%" id="linearGradient-5">
            <stop stop-color="#2B3A54" offset="0%"></stop>
            <stop stop-color="#192A4F" offset="100%"></stop>
        </linearGradient>
        <linearGradient x1="57.4988905%" y1="38.1833915%" x2="66.0962239%" y2="88.7076613%" id="linearGradient-6">
            <stop stop-color="#174293" stop-opacity="0" offset="0%"></stop>
            <stop stop-color="#051E4B" offset="100%"></stop>
        </linearGradient>
        <path d="M31.1134611,12.7001196 C26.3250878,11.5282918 24.0983944,12.578016 22.3645544,8.92529295 C21.3404744,6.76792152 23.3344478,0.149754667 26.6924211,0 C27.5187411,3.69934324 31.5107411,4.01742857 33.8238611,4.32480076 C46.2436211,5.97518171 47.5432211,17.1210766 43.8251144,23.6863657 C42.6280211,25.8 41.5205544,27.3188091 40.5326078,28.4573836 C39.9054878,29.180275 39.0857011,30.0510865 38.8088744,30.4644434 C38.7163678,30.6023383 37.9152744,32.3431749 37.7766878,32.3092663 C37.3581811,32.2068853 37.5261544,32.1861798 37.7315144,30.3843078 C37.9370611,28.5824686 38.0517011,28.0975924 38.4241278,26.6313989 C38.5340744,26.198352 40.6167678,22.8719375 39.0173278,21.6675444 C37.9511944,20.8646156 36.5106611,21.3550286 34.6960478,23.1387832 L33.8047705,23.1387832 C34.5329305,21.5498964 34.7822078,19.9693966 34.9746878,19.2123672 C35.2631411,18.0767741 35.9018611,13.8719802 31.1134611,12.7001196 Z" id="path-7"></path>
        <linearGradient x1="50%" y1="100%" x2="50%" y2="0%" id="linearGradient-8">
            <stop stop-color="#EDF3FD" offset="0%"></stop>
            <stop stop-color="#D6E3FA" offset="100%"></stop>
        </linearGradient>
        <path d="M36.3213509,0.177592381 C41.2899688,1.29942476 44.628483,3.16921524 46.3366895,5.78708952 C48.8989227,9.71381714 50.1828213,20.1445829 50.1828213,23.5278895 C50.1828213,26.9111962 50.5914065,35.2109371 50.1828213,37.4753029 C49.7742872,39.7396686 47.898032,41.4217257 44.015197,41.4217257 C41.4266232,41.4217257 2.82529152,28.075492 2.82529152,28.075492 C1.2649261,27.5381418 1.17364499,26.4442533 2.60199839,25.6094943 C2.60199839,25.6094943 5.33386362,24.1861295 5.44581105,23.5278895 C5.61375771,22.5405714 13.7786712,4.53623238 16.3609661,2.70210286 C18.943312,0.868015238 24.3036693,0 26.452672,0 C26.138525,0.864704762 25.4394278,1.56241905 26.4276076,2.70210286 C27.4157874,3.84182857 29.3548823,4.0409181 31.2757021,3.24984 C32.5561806,2.72246857 34.2380465,1.6984 36.3213509,0.177592381 Z" id="path-9"></path>
        <linearGradient x1="55.2458064%" y1="54.3672421%" x2="43.7724475%" y2="92.5101675%" id="linearGradient-11">
            <stop stop-color="#E5EFFF" stop-opacity="0" offset="0%"></stop>
            <stop stop-color="#DEE9FB" stop-opacity="0.183852485" offset="0%"></stop>
            <stop stop-color="#BED0EA" offset="100%"></stop>
        </linearGradient>
        <linearGradient x1="55.2458064%" y1="54.3672421%" x2="96.9667712%" y2="80.0865213%" id="linearGradient-12">
            <stop stop-color="#E5EFFF" stop-opacity="0" offset="0%"></stop>
            <stop stop-color="#BED0EA" offset="100%"></stop>
        </linearGradient>
    </defs>
    <g id="Illustrations" stroke="none" stroke-width="1" fill="none" fill-rule="evenodd">
        <g transform="translate(-686.000000, -6676.000000)" id="Boost">
            <g transform="translate(683.000000, 38.000000)">
                <g id="guy-on-chair" transform="translate(2.000000, 6638.000000)">
                    <path d="M68.7251832,29.2241173 L28.2757272,21.694368 C16.5371764,38.8503787 10.982397,53.318752 11.6114507,65.0993707 C19.0279032,68.165408 51.5977391,78.7282999 51.5977391,78.7282999 C53.1700967,79.2402863 54.9174117,78.3874681 55.4958906,76.8357777 L71.4536335,34.0313227 C72.1503878,32.162496 71.196285,30.084112 69.3226392,29.3892053 C69.1286095,29.3171627 68.9285935,29.2619573 68.7251832,29.2241173 Z" id="" fill-opacity="0.5" fill="#F0F5F8"></path>
                    <g id="neck" transform="translate(16.761905, 20.571429)">
                        <mask id="mask-2" fill="white">
                            <use xlink:href="#path-1"></use>
                        </mask>
                        <use id="" fill="#90AADB" xlink:href="#path-1"></use>
                        <path d="M21.3597022,15.2807209 C18.0415253,9.18621846 15.6074955,5.37425645 14.0576128,3.84483484 C12.5077302,2.31541323 16.2053274,0.779833364 25.1504044,-0.761904762 L21.3597022,17.0064822 L21.3597022,15.2807209 Z" id="Path-3" fill="#6B88B9" style="mix-blend-mode: multiply;" mask="url(#mask-2)"></path>
                    </g>
                    <path d="M25.9515962,10.0200107 C24.690499,10.8525958 25.7663848,14.2033189 24.401219,16.1160777 C23.6548419,17.1618743 22.084899,17.7434088 21.3599848,18.159616 C19.309219,19.3370697 21.4166248,20.1775299 21.840419,20.8783604 C22.264259,21.5791909 21.9264076,23.1625387 21.6090362,24.410429 C21.2917105,25.6583192 20.1657448,28.470272 21.3729448,29.0985935 C22.5801219,29.726915 29.9920305,32.470211 32.135299,31.6323109 C34.2785676,30.7944107 35.0449219,26.5970347 35.5731733,26.3239924 C36.1014705,26.0509013 36.4724876,26.3391086 36.9601676,26.4583558 C38.2295619,26.7686522 39.3758933,26.0711375 39.9860876,25.0783939 C40.6771048,23.9541394 41.6595962,24.4672122 41.1283733,22.9308465 C40.3088305,20.5608229 35.5589333,11.2256975 33.6716648,10.5546118 C31.7843962,9.88350171 27.9021562,8.73218438 25.9515962,10.0200107 Z" id="" fill="url(#linearGradient-3)"></path>
                    <path d="M35.0682286,22.3569547 C34.684419,23.2236008 33.2362286,25.2215177 31.9293714,25.9431413 C30.6223238,26.6647939 27.8693714,26.7088884 27.3046095,25.886192 C26.7398476,25.0634956 24.1747048,21.3367741 21.8627238,20.7526309 C21.7466667,21.2243086 21.4299048,22.0266514 20.9124571,23.1597029 C22.7018476,23.913565 23.7411429,24.6226811 24.0303048,25.2870514 C24.4640381,26.2836069 24.6970286,25.615907 24.2638286,26.0587192 C23.8306286,26.5015314 21.5686286,26.1610949 21.3969143,24.4329562 C20.7443619,25.8090918 20.0434286,29.523523 20.2905333,30.3722042 C20.537619,31.2209143 21.959981,31.6101067 23.3636762,31.7014514 C24.7673524,31.7927672 29.7686095,32.5662446 31.0423238,32.3024305 C32.3162286,32.0386164 33.9343238,32.1904861 35.0000381,29.0633539 C36.0657524,25.9361928 35.8288,23.9102065 37.2194667,21.2467756 C38.6101333,18.5833448 35.4518476,21.4902941 35.0682286,22.3569547 Z" id="" fill="url(#linearGradient-4)"></path>
                    <g id="">
                        <use fill="url(#linearGradient-5)" xlink:href="#path-7"></use>
                        <use fill="url(#linearGradient-6)" xlink:href="#path-7"></use>
                    </g>
                    <path d="M39.6190476,21.3333333 C40.6349206,11.2229781 38.8571429,5.63567649 34.2857143,4.57142857" id="Path-16" stroke="#60739B"></path>
                    <g id="shirt" transform="translate(0.000000, 35.047619)">
                        <mask id="mask-10" fill="white">
                            <use xlink:href="#path-9"></use>
                        </mask>
                        <use id="" fill="url(#linearGradient-8)" xlink:href="#path-9"></use>
                        <path d="M25.5813814,0.980961334 C21.4666127,5.15643558 29.5838311,7.38121391 32.8983259,6.26882474 C35.1079891,5.52723197 37.4526513,3.76461083 39.9323125,0.980961334 C33.6841999,-3.62847673 29.7303499,-4.78083624 28.0707625,-2.47611721 C25.5813814,0.980961334 29.6961502,-3.19451291 25.5813814,0.980961334 Z" id="Path-6" fill="url(#linearGradient-11)" style="mix-blend-mode: multiply;" opacity="0.546540179" mask="url(#mask-10)"></path>
                        <path d="M19.7171789,38.7585168 C22.6473423,38.7585168 41.6979096,35.631156 41.6979096,33.0926413 C41.6979096,31.4002981 41.2082974,24.5927113 40.2290732,12.6698808" id="Path-8" fill="url(#linearGradient-12)" style="mix-blend-mode: multiply;" opacity="0.546540179" mask="url(#mask-10)"></path>
                        <path d="M-6.97158766,27.7488415 C-5.64453575,27.7488415 0.491176203,35.4548246 6.09682561,32.8611228 C12.8685883,29.727867 16.8117966,18.1265515 16.8117966,16.7377136 C16.8117966,15.6752306 18.5896923,11.9073709 17.9126729,7.80203689 C17.6451062,6.17955671 16.4193237,3.60580551 14.2353254,0.0807832917" id="Path-8-Copy" fill="url(#linearGradient-12)" style="mix-blend-mode: multiply;" opacity="0.546540179" mask="url(#mask-10)"></path>
                    </g>
                    <path d="M37.3333333,24.3809524 C33.9285823,26.9206349 31.3304757,28.1904762 29.5390135,28.1904762 C28.0205059,28.1904762 26.1216204,27.4285714 25.1428571,26.6666667" id="Path-20" stroke="#60739B"></path>
                    <path d="M24.3162389,24.4183147 L24.3162389,24.4183147 C24.9474214,24.4183147 25.459096,24.9299893 25.459096,25.5611719 L25.459096,27.0849814 C25.459096,27.716164 24.9474214,28.2278386 24.3162389,28.2278386 L24.3162389,28.2278386 C23.6850563,28.2278386 23.1733817,27.716164 23.1733817,27.0849814 L23.1733817,25.5611719 C23.1733817,24.9299893 23.6850563,24.4183147 24.3162389,24.4183147 Z" id="Rectangle" fill="#F46885" transform="translate(24.316239, 26.323077) rotate(-60.000000) translate(-24.316239, -26.323077) "></path>
                    <path d="M37.6664314,19.8894525 L37.6664314,19.8894525 C39.1391908,19.8894525 40.3330981,21.0833598 40.3330981,22.5561192 L40.3330981,24.8418334 C40.3330981,26.3145928 39.1391908,27.5085001 37.6664314,27.5085001 L37.6664314,27.5085001 C36.1936721,27.5085001 34.9997648,26.3145928 34.9997648,24.8418334 L34.9997648,22.5561192 C34.9997648,21.0833598 36.1936721,19.8894525 37.6664314,19.8894525 Z" id="Rectangle" fill="#F46885" transform="translate(37.666431, 23.698976) rotate(-310.000000) translate(-37.666431, -23.698976) "></path>
                </g>
            </g>
        </g>
    </g>
</svg>