<?xml version="1.0" encoding="UTF-8"?>
<svg width="90px" height="71px" viewBox="0 0 90 71" version="1.1" xmlns="http://www.w3.org/2000/svg" xmlns:xlink="http://www.w3.org/1999/xlink">
    <!-- Generator: Sketch 52.5 (67469) - http://www.bohemiancoding.com/sketch -->
    <title>folder</title>
    <desc>Created with Sketch.</desc>
    <g id="Symbols" stroke="none" stroke-width="1" fill="none" fill-rule="evenodd" opacity="0.5">
        <g id="Folder" transform="translate(0.000000, -8.000000)" fill="#1FB6FF" fill-rule="nonzero">
            <g transform="translate(-10.000000, 8.000000)" id="folder">
                <g transform="translate(10.000000, 0.000000)">
                    <path d="M80.625,18.3764706 L37.27875,18.3764706 C34.85625,18.3764706 32.71125,16.8278353 31.9425,14.5236765 L31.6125,13.5238294 C30.33375,9.68231176 26.76,7.1 22.72125,7.1 L9.375,7.1 C4.2075,7.1 0,11.3174 0,16.4970588 L0,61.6029412 C0,66.7826 4.2075,71 9.375,71 L80.625,71 C85.7925,71 90,66.7826 90,61.6029412 L90,27.7735294 C90,22.5938706 85.7925,18.3764706 80.625,18.3764706 Z" id="Shape"></path>
                    <path d="M76.5332431,0 L22.1090817,0 C21.0689136,0 20.2247191,0.822790922 20.2247191,1.83658688 C20.2247191,2.85038284 21.0689136,3.67317376 22.1090817,3.67317376 C27.7923194,3.67317376 32.8235676,7.20676692 34.6212496,12.4594054 L34.9528974,13.4401428 C35.2091707,14.1931434 35.9289972,14.7000414 36.7430419,14.7000414 L80.3019683,14.692695 C81.3044492,14.692695 82.3483861,14.839622 83.5958342,15.1555149 C83.7541206,15.1959198 83.9124071,15.2142857 84.0706936,15.2142857 C84.4814846,15.2142857 84.8885069,15.0820515 85.2239235,14.8322756 C85.683708,14.4833241 85.9550562,13.9470408 85.9550562,13.3776988 L85.9550562,9.1829344 C85.9550562,4.12130096 81.7265464,0 76.5332431,0 Z" id="Shape"></path>
                </g>
            </g>
        </g>
    </g>
</svg>