<?xml version="1.0" encoding="UTF-8"?>
<svg width="113px" height="86px" viewBox="0 0 113 86" version="1.1" xmlns="http://www.w3.org/2000/svg" xmlns:xlink="http://www.w3.org/1999/xlink">
    <!-- Generator: Sketch 55.2 (78181) - https://sketchapp.com -->
    <title>mobile/operations/group/neutral</title>
    <desc>Created with Sketch.</desc>
    <defs>
        <path d="M39.7754709,0.032923496 C40.5523691,0.0109744987 41.3901224,0 42.2887307,0 C55.5579155,0 69.9860028,7.97647571 85.5729925,23.9294271 C94.4518154,36.6917883 95.7935442,46.8480699 89.5981787,54.3982719 C83.4050865,61.9457036 70.1399054,68.6622481 49.8026353,74.5479052 C46.1366273,75.7188351 42.2298436,76.3508772 38.1754386,76.3508772 C17.091726,76.3508772 0,59.2591512 0,38.1754386 C0,17.091726 17.091726,0 38.1754386,0 C38.7114344,0 39.2448503,0.0110462425 39.7754709,0.032923496 Z" id="path-1"></path>
        <path d="M10.1055845,2.38523299 C10.1055845,3.91730765 9.44639491,9.38504904 10.1055845,11.0245104 C10.3292265,11.5806639 9.89719752,12.6823616 10.1055845,13.1222103 C10.8761118,14.748602 6.44321383,18.5029229 6.44321383,18.5029229 L5.09181776,30.5471763 L0.408769967,30.5471763 C0.408769967,30.5471763 1.46227276,19.5703934 0.95543038,18.5029229 C0.448599239,17.4354525 0.408769967,15.4999705 0.408769967,13.6796554 C0.408769967,11.8593096 0.408769967,8.17528819 1.52400083,6.52398724 C2.63923169,4.87268629 10.1055845,0.285226667 10.1055845,2.38523299 Z" id="path-3"></path>
        <path d="M31.9831351,3.3876722 C32.9586592,6.47700921 35.1214814,14.3199017 35.0207174,20.1470133 C34.9199534,25.974031 34.0136427,62.5788585 32.7161473,92.2931568 C30.6115153,93.5271455 26.1565596,93.4901587 23.6781257,92.169711 C21.4438289,68.832351 17.762092,22.9578228 17.762092,22.9578228 C17.0133223,30.7670141 11.1678446,88.3102223 11.1678446,90.5957065 C11.1678446,92.8810968 5.3438482,93.4141199 3.35556117,91.8473438 C2.75150716,65.583614 0.250037446,16.8329392 0.250037446,16.8329392 L2.75150716,2.87267318 C2.75150716,2.87267318 31.0075757,0.298522947 31.9831351,3.3876722 Z" id="path-5"></path>
        <linearGradient x1="50%" y1="0%" x2="50%" y2="100%" id="linearGradient-7">
            <stop stop-color="#75A8D6" offset="0%"></stop>
            <stop stop-color="#92A8CA" stop-opacity="0" offset="100%"></stop>
        </linearGradient>
        <linearGradient x1="82.7968069%" y1="42.1688039%" x2="26.0819505%" y2="60.4744823%" id="linearGradient-8">
            <stop stop-color="#75A8D6" offset="0%"></stop>
            <stop stop-color="#92A8CA" stop-opacity="0" offset="100%"></stop>
        </linearGradient>
        <linearGradient x1="53.9664387%" y1="0%" x2="50.0420933%" y2="98.9387645%" id="linearGradient-9">
            <stop stop-color="#FACFCC" offset="0%"></stop>
            <stop stop-color="#FBD5D2" offset="100%"></stop>
        </linearGradient>
        <path d="M5.05305406,20.2274368 C5.76365083,17.9875761 5.29844642,14.8934322 6.97422798,14.6745593 C5.89119337,11.8912689 7.88296857,2.31779017 7.88296857,2.31779017 C7.88296857,2.31779017 -0.826075485,-1.69526635 0.114808474,1.31418791 C1.05570164,4.32364217 2.14984125,14.8683055 3.19875344,16.936673 C4.24765643,19.0050642 4.34246649,22.4672974 5.05305406,20.2274368 Z" id="path-10"></path>
        <linearGradient x1="64.8037896%" y1="25.6730768%" x2="50%" y2="100%" id="linearGradient-12">
            <stop stop-color="#FFFFFF" stop-opacity="0.5" offset="0%"></stop>
            <stop stop-color="#000000" stop-opacity="0.5" offset="100%"></stop>
        </linearGradient>
        <path d="M14.6693083,1.6180562 C14.6693083,1.6180562 10.898086,4.67714599 9.96257752,4.9342959 C9.02706901,5.1914458 2.94608298,7.76983175 2.58759383,8.56014552 C2.22910469,9.3503994 0.344196151,12.3364883 0.407069261,13.1426718 C0.469942371,13.9489152 2.92351932,31.7081885 2.58759383,40.0905328 C2.25166835,48.4728772 2.58759383,47.3330097 2.58759383,49.309902 C2.58759383,51.2868542 1.16399566,53.9912999 1.87579475,55.4786851 C2.58759383,56.9660703 3.81080906,57.3160433 5.67411751,57.7411132 C7.53742596,58.1661831 8.8815294,58.6628166 11.5323978,57.7411132 C14.1833064,56.8194099 15.6669673,58.9178106 20.0495764,58.3294918 C24.4321854,57.7411132 28.1950568,59.5972157 31.4938474,55.091523 C32.706905,55.8892626 33.3353149,55.3628658 35.2716541,54.2520429 C37.2079532,53.1411601 37.0596433,49.1862975 36.4791712,47.8143722 C35.898699,46.442447 33.2971334,45.0024913 34.2843937,41.9484319 C35.2716541,38.8943127 36.4791712,28.7086252 36.4791712,24.1115466 C36.4791712,19.5144082 39.1255429,11.2235095 39.9460651,8.56014552 C37.598441,6.7557245 27.414844,1.01272987 25.4753732,0.41441019 C24.7170817,2.48346685 21.0300917,3.5233849 20.4228403,2.97183608 C19.815629,2.42034714 20.1757642,6.8637586 20.1757642,6.8637586 C20.1757642,6.8637586 19.4461792,8.56014552 18.7628858,10.3407918 C18.0795924,12.1214981 16.5031475,14.9111014 16.5031475,16.831222 C15.0632088,15.3499451 16.8145019,11.0791247 16.5031475,9.42423867 C16.1449796,7.52070655 16.8612753,5.72239389 17.6502405,3.22377592 C16.5031475,2.94842071 16.4022133,3.41792589 16.046655,2.91985515 C15.1174097,1.6180562 14.6693083,1.6180562 14.6693083,1.6180562 Z" id="path-13"></path>
        <linearGradient x1="46.4945988%" y1="42.9700243%" x2="37.2378114%" y2="61.3689591%" id="linearGradient-15">
            <stop stop-color="#FFFFFF" stop-opacity="0" offset="0%"></stop>
            <stop stop-color="#FFFFFF" offset="100%"></stop>
        </linearGradient>
        <path d="M38.798775,63.367298 C35.8611618,53.1646888 34.6319612,45.8881919 34.7388551,43.3671993 C34.8457491,40.8462067 37.6996808,35.942485 40.9286333,36.2470936 C44.1576036,36.5517022 44.8416823,42.7332184 45.5111163,46.053485 C46.1805503,49.3737516 51.124381,66.4326855 51.3747187,68.8350394 C51.6250742,71.2373528 49.4337222,75.0810947 46.6344299,75.4138659 C43.8351376,75.7465967 41.7363882,73.5698668 38.798775,63.367298 Z" id="path-16"></path>
        <linearGradient x1="100%" y1="50%" x2="34.6598307%" y2="69.7696194%" id="linearGradient-17">
            <stop stop-color="#F9C5C1" offset="0%"></stop>
            <stop stop-color="#F9C5C1" stop-opacity="0" offset="100%"></stop>
        </linearGradient>
        <path d="M33.4277328,61.9247851 C33.4277328,61.9247851 39.3340279,63.7636211 40.6267761,63.1506811 C41.9195051,62.537725 48.3368984,62.8192857 49.7547954,67.8164537 C51.1727117,72.813654 49.9349257,73.8953546 48.3368984,75.6244376 C46.7389096,77.3535367 34.991322,72.8147222 32.5247882,70.4479357 C34.3779888,64.8345908 33.4277328,61.9247851 33.4277328,61.9247851 Z" id="path-18"></path>
        <linearGradient x1="50%" y1="0%" x2="50%" y2="100%" id="linearGradient-19">
            <stop stop-color="#B5CCEF" offset="0%"></stop>
            <stop stop-color="#E5EFFD" offset="100%"></stop>
        </linearGradient>
        <linearGradient x1="80.8351722%" y1="27.1511499%" x2="20.162776%" y2="72.9811718%" id="linearGradient-20">
            <stop stop-color="#DBE9FF" offset="0%"></stop>
            <stop stop-color="#A7BDE4" offset="44.0948136%"></stop>
            <stop stop-color="#5876AF" offset="100%"></stop>
        </linearGradient>
        <linearGradient x1="65.6463525%" y1="73.7219535%" x2="61.6324689%" y2="84.6490987%" id="linearGradient-21">
            <stop stop-color="#869FCE" stop-opacity="0" offset="0%"></stop>
            <stop stop-color="#4975C1" offset="100%"></stop>
        </linearGradient>
        <path d="M0.949984,0.189821867 L18.153744,5.712608 C18.6599392,5.8750912 19.0355424,6.2998144 19.1320864,6.81885013 L22.2103616,23.3690923 L3.568096,15.8668928 L0.2061248,0.8612736 C0.1367072,0.5514432 0.3336256,0.244452267 0.6459488,0.1755776 C0.7467712,0.153354667 0.8517376,0.1582592 0.949984,0.189821867 Z" id="path-22"></path>
        <filter x="-39.3%" y="-37.7%" width="178.7%" height="175.6%" filterUnits="objectBoundingBox" id="filter-23">
            <feGaussianBlur stdDeviation="6" in="SourceAlpha" result="shadowBlurInner1"></feGaussianBlur>
            <feOffset dx="-6" dy="2" in="shadowBlurInner1" result="shadowOffsetInner1"></feOffset>
            <feComposite in="shadowOffsetInner1" in2="SourceAlpha" operator="arithmetic" k2="-1" k3="1" result="shadowInnerInner1"></feComposite>
            <feColorMatrix values="0 0 0 0 1   0 0 0 0 1   0 0 0 0 1  0 0 0 0.5 0" type="matrix" in="shadowInnerInner1"></feColorMatrix>
        </filter>
        <linearGradient x1="65.5117609%" y1="73.7219535%" x2="61.5324051%" y2="84.6490987%" id="linearGradient-24">
            <stop stop-color="#869FCE" stop-opacity="0" offset="0%"></stop>
            <stop stop-color="#4975C1" offset="100%"></stop>
        </linearGradient>
        <path d="M1.246854,0.250219733 L23.826789,7.530256 C24.4911702,7.7444384 24.9841494,8.3043008 25.1108634,8.98848427 L29.1510996,30.8047125 L4.683126,20.9154496 L0.2705388,1.1353152 C0.1794282,0.7269024 0.4378836,0.322232533 0.8478078,0.2314432 C0.9801372,0.202149333 1.1179056,0.2086144 1.246854,0.250219733 Z" id="path-25"></path>
        <filter x="-40.0%" y="-38.1%" width="179.9%" height="176.5%" filterUnits="objectBoundingBox" id="filter-26">
            <feGaussianBlur stdDeviation="8" in="SourceAlpha" result="shadowBlurInner1"></feGaussianBlur>
            <feOffset dx="-8" dy="3" in="shadowBlurInner1" result="shadowOffsetInner1"></feOffset>
            <feComposite in="shadowOffsetInner1" in2="SourceAlpha" operator="arithmetic" k2="-1" k3="1" result="shadowInnerInner1"></feComposite>
            <feColorMatrix values="0 0 0 0 1   0 0 0 0 1   0 0 0 0 1  0 0 0 0.5 0" type="matrix" in="shadowInnerInner1"></feColorMatrix>
        </filter>
        <circle id="path-27" cx="68.4749293" cy="18.2745897" r="10.720996"></circle>
        <filter x="-139.9%" y="-111.9%" width="379.8%" height="379.8%" filterUnits="objectBoundingBox" id="filter-28">
            <feOffset dx="0" dy="6" in="SourceAlpha" result="shadowOffsetOuter1"></feOffset>
            <feGaussianBlur stdDeviation="9" in="shadowOffsetOuter1" result="shadowBlurOuter1"></feGaussianBlur>
            <feColorMatrix values="0 0 0 0 0   0 0 0 0 0   0 0 0 0 0  0 0 0 0.1 0" type="matrix" in="shadowBlurOuter1"></feColorMatrix>
        </filter>
        <circle id="path-29" cx="15.4953155" cy="16.0543294" r="10.720996"></circle>
        <filter x="-139.9%" y="-111.9%" width="379.8%" height="379.8%" filterUnits="objectBoundingBox" id="filter-30">
            <feOffset dx="0" dy="6" in="SourceAlpha" result="shadowOffsetOuter1"></feOffset>
            <feGaussianBlur stdDeviation="9" in="shadowOffsetOuter1" result="shadowBlurOuter1"></feGaussianBlur>
            <feColorMatrix values="0 0 0 0 0   0 0 0 0 0   0 0 0 0 0  0 0 0 0.1 0" type="matrix" in="shadowBlurOuter1"></feColorMatrix>
        </filter>
    </defs>
    <g id="Mobile-Illustrations" stroke="none" stroke-width="1" fill="none" fill-rule="evenodd">
        <g id="Illustrations" transform="translate(-234.000000, -3907.000000)">
            <g id="Operations" transform="translate(40.000000, 56.000000)">
                <g id="mobile/operations/group/neutral" transform="translate(210.000000, 3858.000000)">
                    <g id="mobile/operations/neutral/group">
                        <g id="man" transform="translate(1.066667, 2.582456)">
                            <mask id="mask-2" fill="white">
                                <use xlink:href="#path-1"></use>
                            </mask>
                            <use id="Mask" fill="#D0D0D0" opacity="0.4" xlink:href="#path-1"></use>
                            <g mask="url(#mask-2)">
                                <g transform="translate(17.964912, 16.168421)">
                                    <g id="neck" stroke-width="1" fill="none" transform="translate(17.665497, 16.185369)">
                                        <mask id="mask-4" fill="white">
                                            <use xlink:href="#path-3"></use>
                                        </mask>
                                        <use id="Path-23" fill="#D0D0D0" xlink:href="#path-3"></use>
                                        <path d="M2.67885948,9.86395459 C3.07683403,10.0225139 3.46032872,10.1703225 3.8297953,10.3078018 C10.8319661,12.9133255 12.795483,11.8087831 12.795483,9.86395459 C12.795483,8.49899018 11.9750892,4.61217491 10.3343017,-1.79649123 C-0.0629475769,3.86807739 -2.61476164,7.75489266 2.67885948,9.86395459 Z" id="Path-9" fill="#F1F1F1" style="mix-blend-mode: multiply;" mask="url(#mask-4)"></path>
                                    </g>
                                    <path d="M15.6567663,2.68166964 C14.6674807,5.11729577 13.612144,6.34953324 14.1068132,9.40986283 C14.6014471,12.4701665 14.1249557,12.213117 13.8243949,13.873451 C13.5237988,15.5337332 13.1419061,16.9035851 13.9798689,20.0904713 C14.8178318,23.2774094 15.3373741,25.5053189 18.0361321,25.495038 C20.7349077,25.484783 24.2116542,24.9190201 25.3568907,22.9555665 C25.8192498,22.1628719 26.0059741,21.7265661 26.3320261,20.4842808 C26.5613243,19.6106593 26.7383502,19.0105317 26.7383502,17.7598818 C27.3240851,19.1398334 28.5561475,18.4033603 28.6476018,18.3313419 C29.3722758,17.7606587 30.0229668,16.4525183 30.0855556,15.2181573 C30.211016,12.7443855 29.3669409,7.01528279 26.4355813,6.06847754 C23.5042217,5.12169819 16.6460871,0.24601761 15.6567663,2.68166964 Z" id="face" fill="#D0D0D0"></path>
                                    <g id="trouser" stroke-width="1" fill="none" transform="translate(4.817863, 77.689772)">
                                        <mask id="mask-6" fill="white">
                                            <use xlink:href="#path-5"></use>
                                        </mask>
                                        <use id="Path-42" fill="#01C08F" xlink:href="#path-5"></use>
                                        <path d="M12.3326584,79.3265843 C9.42244911,66.8417472 12.3326584,28.5754445 17.4567876,23.4999134 C19.7067225,26.3242798 15.2428676,91.8114214 12.3326584,79.3265843 Z" id="Path-12" fill="url(#linearGradient-7)" style="mix-blend-mode: multiply;" mask="url(#mask-6)"></path>
                                        <path d="M7.05046349,7.94996843 C7.51061739,8.10737786 9.35232221,10.4879083 9.85052894,10.6524394 C15.9237687,12.6581066 23.3267677,12.8002774 31.4676094,11.267342 C37.3400496,10.1615508 38.0193318,7.66889213 33.5054562,3.78936592 C11.8224464,5.17892637 3.00411547,6.56579387 7.05046349,7.94996843 Z" id="Path-13" fill="url(#linearGradient-8)" style="mix-blend-mode: multiply;" mask="url(#mask-6)"></path>
                                    </g>
                                    <g id="arm" stroke-width="1" fill="none" transform="translate(0.000000, 74.452698)">
                                        <mask id="mask-11" fill="white">
                                            <use xlink:href="#path-10"></use>
                                        </mask>
                                        <use id="Path-43" fill="url(#linearGradient-9)" xlink:href="#path-10"></use>
                                        <path d="M8.24033734,16.9180822 C6.15899577,14.0913647 3.28062679,12.0806386 3.28062679,8.0171039 C3.28062679,5.30808074 4.10724521,3.20326761 5.76048206,1.70266448 C8.80127996,13.7307546 9.62789838,18.8025606 8.24033734,16.9180822 Z" id="Path-11" fill="#FAD0CD" style="mix-blend-mode: multiply;" opacity="0.300000012" mask="url(#mask-11)"></path>
                                    </g>
                                    <g id="shirt" stroke-width="1" fill="none" transform="translate(3.211909, 29.133664)">
                                        <mask id="mask-14" fill="white">
                                            <use xlink:href="#path-13"></use>
                                        </mask>
                                        <g id="Path-26">
                                            <use fill="#FFFFFF" xlink:href="#path-13"></use>
                                            <use fill="url(#linearGradient-12)" xlink:href="#path-13"></use>
                                        </g>
                                        <path d="M12.1358669,8.15239171 C12.4798397,8.45226657 15.7612243,5.07495561 15.7612243,5.07495561 C15.7612243,5.07495561 15.7612243,4.05588589 15.7612243,2.01774644 L13.0888098,4.22579213 C12.2241994,6.64360862 11.9065518,7.95247514 12.1358669,8.15239171 Z" id="Path-14" fill="#F1F1F1" style="mix-blend-mode: multiply;" mask="url(#mask-14)"></path>
                                        <path d="M19.7387247,6.87404947 C20.2295911,7.19253174 21.2064055,7.37714849 22.669168,7.4278997 C21.4333652,3.33396821 20.4565508,1.44992123 19.7387247,1.77575875 C18.6619857,2.26451504 19.0024252,6.39632606 19.7387247,6.87404947 Z" id="Path-15" fill="#F1F1F1" style="mix-blend-mode: multiply;" mask="url(#mask-14)"></path>
                                    </g>
                                    <path d="M26.2673557,37.9029799 C24.7986687,37.1672966 24.5111001,32.4713384 23.1982229,31.8062103 C21.8853456,31.1410823 27.274501,30.2039106 27.9468916,25.5432364 C28.6220861,25.5432364 29.8203175,28.5674662 30.9885818,30.281432 C30.8517063,32.8978552 26.9201953,34.8633287 26.2673557,37.9029799 Z" id="colar" fill="#FFFFFF"></path>
                                    <path d="M17.3275256,26.2872633 C17.3275256,27.4669743 16.7067103,30.7740062 19.0787176,31.5214757 C18.1736965,31.6706319 17.436655,32.2014424 17.0552152,33.0055834 C16.5454516,34.0802563 15.9439944,36.2378048 15.2177497,37.0310012 C15.2177497,35.193473 14.7991594,31.5626933 15.2177497,30.1707532 C15.6363546,28.7788244 16.9849322,27.0364095 17.3275256,26.2872633 Z" id="colar" fill="#FFFFFF"></path>
                                    <g id="sleeve" fill="none">
                                        <use fill="#FFFFFF" xlink:href="#path-16"></use>
                                        <use fill="url(#linearGradient-15)" xlink:href="#path-16"></use>
                                    </g>
                                    <g id="arm" fill="none">
                                        <use fill="#FCDFDC" xlink:href="#path-18"></use>
                                        <use fill="url(#linearGradient-17)" xlink:href="#path-18"></use>
                                    </g>
                                    <path d="M3.57144318e-14,75.4685315 C3.57144318e-14,70.8457311 1.83646057,50.8145924 3.55285013,42.5848083 C3.79981736,41.4006441 4.22028146,41.1375237 4.44610325,40.4634227 C6.20630395,46.9563846 6.74772313,75.2825308 6.24421072,76.9813448 C5.74066899,78.6801589 2.79579096,76.9813448 3.57144318e-14,75.4685315 Z" id="sleeve" fill="url(#linearGradient-19)"></path>
                                    <path d="M15.878995,7.00537734 C14.7731172,7.35439864 14.1738811,10.4221476 14.3616717,12.7394393 C13.7432894,11.4302889 13.1119615,6.11557049 15.2078812,3.25287074 C17.3038249,0.390158033 16.9848824,6.65635604 15.878995,7.00537734 Z" id="hair" fill="#000000"></path>
                                    <path d="M16.7151062,0.970992662 C13.0638069,3.45387684 14.72371,6.71929123 18.4662162,7.26999842 C22.2087048,7.82068941 22.612697,7.96682711 24.9122678,7.26999842 C25.4262984,9.02963937 23.8281186,10.7070587 24.9122678,11.9960291 C25.7809863,13.0246417 26.0464104,13.4083158 26.0981703,14.5728208 C26.1499125,15.7373095 26.5674542,15.972402 26.5674542,15.972402 C26.5674542,15.972402 26.6169529,12.732609 27.6169791,12.6334898 C28.6170228,12.5343706 29.3889521,13.2005766 29.9435074,14.5728208 C30.1031681,14.9678409 29.8916238,14.1575527 29.9435074,13.4004821 C29.9940483,12.6629148 30.3100664,11.9970811 30.3100664,10.9597123 C30.3100664,9.08439448 29.3347543,6.92117134 28.2970654,5.61159694 C25.8930562,2.57776281 19.2985261,0.295755249 16.7151062,0.970992662 Z" id="hair" fill="#000000"></path>
                                    <path d="M28.6179447,60.0772673 C30.2869005,59.9347195 30.248727,58.6002164 30.3041164,58.9817509 C30.3594736,59.3632854 34.2387204,61.8659837 34.2387204,61.8659837 C34.2387204,61.8659837 34.9293771,68.5705074 33.3387757,69.7037163 C31.7481583,70.8369252 29.7182161,68.3889464 28.3493649,68.648974 C27.7695672,68.7591252 26.2755479,68.8142202 24.788097,68.4723981 C24.2889825,68.3577021 22.6251657,67.9005885 22.3185248,67.66805 C21.9338184,67.3762861 21.7370408,67.0099918 22.1763015,66.646054 C22.3509329,66.5013439 24.5048549,67.0659672 25.0180215,67.1647627 C26.4853337,67.447191 27.6974438,67.0913718 27.6547415,66.9998015 C27.5854606,66.8511291 26.4919182,66.971121 25.0180215,66.646054 C24.500856,66.5320054 23.431146,66.3313975 22.914109,66.183528 C21.7687906,65.8560138 20.7931894,65.3685882 20.7033041,65.2841005 C20.4604999,65.0558221 20.2860451,64.707992 20.7439187,64.3717766 C20.937918,64.2293324 21.4204751,64.3717766 22.7979824,64.5855012 C23.3955098,64.678211 24.6027217,64.9732249 25.1403792,65.0558221 C26.2908206,65.2325663 27.164813,64.7575581 27.15916,64.6605106 C27.1535231,64.5637351 26.3677297,64.7906151 25.2369934,64.5855012 C24.6328334,64.4758938 23.4723066,64.3458023 22.8005198,64.2293324 C21.0221342,63.9209817 20.0674587,63.3110264 19.9307598,63.2117388 C19.6799419,63.0295175 19.6254037,62.3993757 19.9307598,62.2172191 C20.1075754,62.1117294 20.9843782,62.3198603 22.7787913,62.6050853 C23.4288334,62.7084127 24.6708784,62.9007078 25.2369934,62.9007078 C26.3677297,62.9007078 27.0847401,62.6561275 27.0847401,62.6050853 C27.0847401,62.5224104 24.9167661,62.2915941 23.1729246,61.9544076 C21.4241688,61.6162628 21.2695476,61.2644965 21.1504821,61.1284099 C20.9877989,60.9424853 20.9355572,60.2598642 21.500018,60.2598642 C22.3250449,60.2598642 22.663002,60.3625053 23.4440739,60.4632301 C23.9982084,60.5346917 25.3253851,60.5893465 25.8559281,60.5893465 C26.90831,60.5893465 28.0744897,60.123674 28.6179447,60.0772673 Z" id="hand" fill="#FCDFDC"></path>
                                </g>
                            </g>
                            <g id="laptop" mask="url(#mask-2)">
                                <g transform="translate(222.933333, 11.284211)" id="">
                                    <path d="M21.6711285,23.305568 L33.6174272,18.3888085 C33.8600683,18.2889344 33.9784811,18.0046005 33.8818144,17.7537419 C33.8316715,17.6234432 33.7297152,17.5217035 33.6019915,17.4743829 L18.3907104,11.8392501 L3.3849504,15.6725653 L21.6711285,23.305568 Z" fill="#A8B7C6" fill-rule="evenodd"></path>
                                    <g fill="none">
                                        <use fill="url(#linearGradient-20)" fill-rule="evenodd" xlink:href="#path-22"></use>
                                        <use fill-opacity="0.230000019" fill="url(#linearGradient-21)" fill-rule="evenodd" xlink:href="#path-22"></use>
                                        <use fill="black" fill-opacity="1" filter="url(#filter-23)" xlink:href="#path-22"></use>
                                    </g>
                                    <path d="M9.06408107,13.2128384 C9.91585707,13.7293269 10.8139648,13.72832 11.1845035,12.7838421 C11.5550208,11.8393515 10.8866304,10.7703211 10.0348544,10.2538197 C9.1830784,9.73732267 8.37771947,9.73834667 8.0071936,10.6828203 C7.63666347,11.6273067 8.21230507,12.6963413 9.06408107,13.2128384 Z" fill="#D6E3FA" fill-rule="evenodd"></path>
                                </g>
                            </g>
                            <g id="laptop" mask="url(#mask-2)">
                                <g transform="translate(12.800000, 51.817544)" id="">
                                    <path d="M28.4433562,30.720976 L44.1228732,24.2397931 C44.4413396,24.1081408 44.5967564,23.7333371 44.4698814,23.4026597 C44.4040688,23.2309024 44.2702512,23.0967909 44.1026138,23.0344139 L24.1378074,15.6062843 L4.4427474,20.6592907 L28.4433562,30.720976 Z" fill="#ADADAD" fill-rule="evenodd"></path>
                                    <g fill="none">
                                        <use fill="#ADADAD" fill-rule="evenodd" xlink:href="#path-25"></use>
                                        <use fill-opacity="0.230000019" fill="url(#linearGradient-24)" fill-rule="evenodd" xlink:href="#path-25"></use>
                                        <use fill="black" fill-opacity="1" filter="url(#filter-26)" xlink:href="#path-25"></use>
                                    </g>
                                    <path d="M11.8966064,17.4169233 C13.0145624,18.0977491 14.1933288,18.0964218 14.6796608,16.8514283 C15.1659648,15.6064178 14.2887024,14.1972414 13.1707464,13.5163987 C12.0527904,12.8355617 10.9957568,12.8369115 10.5094416,14.0818994 C10.0231208,15.3269042 10.7786504,16.7360863 11.8966064,17.4169233 Z" fill="#FFFFFF" fill-rule="evenodd"></path>
                                </g>
                            </g>
                        </g>
                        <g id="bubbles">
                            <g id="Oval">
                                <use fill="black" fill-opacity="1" filter="url(#filter-28)" xlink:href="#path-27"></use>
                                <use fill="#FFFFFF" fill-rule="evenodd" xlink:href="#path-27"></use>
                            </g>
                            <g id="Group-13" transform="translate(68.912835, 17.545974) rotate(-16.000000) translate(-68.912835, -17.545974) translate(64.412835, 11.545974)">
                                <g id="Group-7" fill="#04CC99">
                                    <path d="M7.28266667,4.20596452 C7.90300172,4.34972294 8.36533333,4.90579288 8.36533333,5.56984615 L8.36533333,10.2310427 C8.36533333,11.0042414 7.73853198,11.6310427 6.96533333,11.6310427 L1.47466667,11.6310427 C0.701468017,11.6310427 0.0746666667,11.0042414 0.0746666667,10.2310427 L0.0746666667,5.56984615 C0.0746666667,4.84435354 0.626507384,4.24775023 1.33333333,4.17689171 L1.33333333,3.30940171 C1.33333333,1.48166961 2.6466314,-3.85469434e-13 4.26666667,-3.85469434e-13 L4.34933333,-3.85469434e-13 C5.9693686,-3.85469434e-13 7.28266667,1.48166961 7.28266667,3.30940171 L7.28266667,4.20596452 Z M6.33333333,4.16984615 L6.33333333,3.31842735 C6.33186197,2.08172932 5.44283181,1.08006726 4.34666667,1.08006838 L4.26933333,1.08006838 C3.17316819,1.08006726 2.28413803,2.08172932 2.28266667,3.31842735 L2.28266667,4.16984615 L6.33333333,4.16984615 Z" id="Combined-Shape"></path>
                                </g>
                                <rect id="Rectangle" fill="#FFFFFF" x="3.87878788" y="7.82222222" width="1" height="1.56444444" rx="0.5"></rect>
                                <ellipse id="Oval" fill="#FFFFFF" cx="4.26666667" cy="7.43111111" rx="1.16363636" ry="1.17333333"></ellipse>
                            </g>
                            <g id="Oval" transform="translate(15.495316, 16.054329) rotate(39.000000) translate(-15.495316, -16.054329) ">
                                <use fill="black" fill-opacity="1" filter="url(#filter-30)" xlink:href="#path-29"></use>
                                <use fill="#FFFFFF" fill-rule="evenodd" xlink:href="#path-29"></use>
                            </g>
                            <g id="Group-13" transform="translate(15.965311, 15.685067) rotate(41.000000) translate(-15.965311, -15.685067) translate(9.965311, 8.685067)">
                                <g id="Group-7" transform="translate(0.000000, 0.000000)" fill="#D0D0D0">
                                    <path d="M9.19599552,5.22659677 C9.81633057,5.3703552 10.2786622,5.92642514 10.2786622,6.59047841 L10.2786622,11.251675 C10.2786622,12.0248736 9.65186083,12.651675 8.87866218,12.651675 L3.38799552,12.651675 C2.61479687,12.651675 1.98799552,12.0248736 1.98799552,11.251675 L1.98799552,6.59047841 C1.98799552,5.86498579 2.53983623,5.26838248 3.24666218,5.19752396 L3.24666218,4.33003396 C3.24666218,2.50230187 4.55996025,1.02063225 6.17999552,1.02063225 L6.26266218,1.02063225 C7.88269745,1.02063225 9.19599552,2.50230187 9.19599552,4.33003396 L9.19599552,5.22659677 Z M8.24666218,5.19047841 L8.24666218,4.3390596 C8.24519082,3.10236158 7.35616066,2.10069952 6.25999552,2.10070063 L6.18266218,2.10070063 C5.08649704,2.10069952 4.19746688,3.10236158 4.19599552,4.3390596 L4.19599552,5.19047841 L8.24666218,5.19047841 Z" id="Combined-Shape" transform="translate(6.133329, 6.836154) rotate(-18.000000) translate(-6.133329, -6.836154) "></path>
                                </g>
                                <path d="M7.03953611,8.69193407 C7.25375565,8.69193407 7.4274149,8.86559332 7.4274149,9.07981286 L7.4274149,9.86849973 C7.4274149,10.0827193 7.25375565,10.2563785 7.03953611,10.2563785 C6.82531657,10.2563785 6.65165733,10.0827193 6.65165733,9.86849973 L6.65165733,9.07981286 C6.65165733,8.86559332 6.82531657,8.69193407 7.03953611,8.69193407 Z" id="Rectangle" fill="#FFFFFF" transform="translate(7.039536, 9.474156) rotate(-18.000000) translate(-7.039536, -9.474156) "></path>
                                <ellipse id="Oval" fill="#FFFFFF" transform="translate(6.676956, 8.358250) rotate(-18.000000) translate(-6.676956, -8.358250) " cx="6.67695617" cy="8.35824998" rx="1.16363636" ry="1.17333333"></ellipse>
                            </g>
                        </g>
                    </g>
                </g>
            </g>
        </g>
    </g>
</svg>