<?xml version="1.0" encoding="UTF-8"?>
<svg width="650px" height="1061px" viewBox="0 0 650 1061" version="1.1" xmlns="http://www.w3.org/2000/svg" xmlns:xlink="http://www.w3.org/1999/xlink">
    <!-- Generator: Sketch 53.2 (72643) - https://sketchapp.com -->
    <title>YOBI_Logo_White_vertical</title>
    <desc>Created with Sketch.</desc>
    <defs>
        <path d="M399.311183,14.0360681 L675.448343,173.463932 C690.492156,182.149481 699.759526,198.201038 699.759526,215.572136 L699.759526,534.427864 C699.759526,551.798962 690.492156,567.850519 675.448343,576.536068 L399.311183,735.963932 C384.267371,744.649481 365.732629,744.649481 350.688817,735.963932 L74.5516567,576.536068 C59.5078442,567.850519 50.2404736,551.798962 50.2404736,534.427864 L50.2404736,215.572136 C50.2404736,198.201038 59.5078442,182.149481 74.5516567,173.463932 L350.688817,14.0360681 C365.732629,5.35051895 384.267371,5.35051895 399.311183,14.0360681 Z" id="path-1"></path>
        <linearGradient x1="7.2892743%" y1="-30.8837652%" x2="72.367%" y2="66.2820511%" id="linearGradient-3">
            <stop stop-color="#45E2FF" offset="0%"></stop>
            <stop stop-color="#7C6AFF" offset="100%"></stop>
        </linearGradient>
        <path d="M199.655592,7.01803407 L337.724172,86.7319659 C345.246078,91.0747405 349.879763,99.1005189 349.879763,107.786068 L349.879763,267.213932 C349.879763,275.899481 345.246078,283.925259 337.724172,288.268034 L199.655592,367.981966 C192.133685,372.324741 182.866315,372.324741 175.344408,367.981966 L37.2758284,288.268034 C29.7539221,283.925259 25.1202368,275.899481 25.1202368,267.213932 L25.1202368,107.786068 C25.1202368,99.1005189 29.7539221,91.0747405 37.2758284,86.7319659 L175.344408,7.01803407 C182.866315,2.67525947 192.133685,2.67525947 199.655592,7.01803407 Z" id="path-4"></path>
    </defs>
    <g id="Page-1" stroke="none" stroke-width="1" fill="none" fill-rule="evenodd">
        <g id="YOBI_Logo_vertical" transform="translate(-2673.000000, -523.000000)">
            <g id="YOBI_Logo_White_vertical" transform="translate(2623.000000, 516.000000)">
                <g id="Cube">
                    <g id="Path-+-Path-+-Path-Mask">
                        <mask id="mask-2" fill="white">
                            <use xlink:href="#path-1"></use>
                        </mask>
                        <use id="Mask" fill="#FFFFFF" xlink:href="#path-1"></use>
                        <polygon id="Path" fill="#000000" fill-rule="nonzero" opacity="0.03" mask="url(#mask-2)" points="376 837.396552 1 649.793103 1 188 376 375.603448"></polygon>
                        <polygon id="Path" fill="#000000" fill-rule="nonzero" opacity="0.08" mask="url(#mask-2)" points="376 837.396552 751 649.793103 751 188 376 375.603448"></polygon>
                        <polygon id="Path" fill="#000000" fill-rule="nonzero" opacity="0" mask="url(#mask-2)" points="1 187.603448 361.576923 2.84217094e-14 751 187.603448 376 375.206897"></polygon>
                        <g id="Group-2" mask="url(#mask-2)">
                            <g transform="translate(188.000000, 188.000000)">
                                <mask id="mask-5" fill="white">
                                    <use xlink:href="#path-4"></use>
                                </mask>
                                <use id="Mask" stroke="none" fill="url(#linearGradient-3)" fill-rule="evenodd" xlink:href="#path-4"></use>
                                <polygon id="Path" stroke="none" fill="#000000" fill-rule="nonzero" opacity="0.02" mask="url(#mask-5)" points="188 649.396552 -187 461.793103 -187 0 188 187.603448"></polygon>
                                <polygon id="Path" stroke="none" fill="#000000" fill-rule="nonzero" opacity="0.08" mask="url(#mask-5)" points="188 649.396552 563 461.793103 563 -1.13686838e-13 188 187.603448"></polygon>
                                <polygon id="Path" stroke="none" fill="#000000" fill-rule="nonzero" opacity="0" mask="url(#mask-5)" points="-187 -0.396551724 173.576923 -188 563 -0.396551724 188 187.206897"></polygon>
                            </g>
                        </g>
                    </g>
                </g>
                <g id="Group" transform="translate(134.000000, 850.000000)" fill="#FFFFFF" fill-rule="nonzero">
                    <path d="M84.725,69.45 L84.725,111 L59.375,111 L59.375,69.45 L19.775,1.725 L42.125,1.725 C44.325011,1.725 46.0749935,2.23749487 47.375,3.2625 C48.6750065,4.28750512 49.724996,5.599992 50.525,7.2 L65.975,39 C67.2250062,41.5500127 68.3749947,43.8999892 69.425,46.05 C70.4750052,48.2000107 71.399996,50.3249895 72.2,52.425 C72.9500037,50.2749892 73.8499947,48.1250107 74.9,45.975 C75.9500052,43.8249892 77.074994,41.5000125 78.275,39 L93.575,7.2 C93.8750015,6.54999675 94.2874974,5.90000325 94.8125,5.25 C95.3375026,4.59999675 95.9374966,4.01250262 96.6125,3.4875 C97.2875034,2.96249737 98.0624956,2.53750162 98.9375,2.2125 C99.8125044,1.88749837 100.774995,1.725 101.825,1.725 L124.325,1.725 L84.725,69.45 Z M258.675,56.325 C258.675,64.2250395 257.312514,71.574966 254.5875,78.375 C251.862486,85.175034 248.025025,91.0874749 243.075,96.1125 C238.124975,101.137525 232.162535,105.074986 225.1875,107.925 C218.212465,110.775014 210.475042,112.2 201.975,112.2 C193.474957,112.2 185.725035,110.775014 178.725,107.925 C171.724965,105.074986 165.737525,101.137525 160.7625,96.1125 C155.787475,91.0874749 151.937514,85.175034 149.2125,78.375 C146.487486,71.574966 145.125,64.2250395 145.125,56.325 C145.125,48.4249605 146.487486,41.075034 149.2125,34.275 C151.937514,27.474966 155.787475,21.575025 160.7625,16.575 C165.737525,11.574975 171.724965,7.65001425 178.725,4.8 C185.725035,1.94998575 193.474957,0.525 201.975,0.525 C210.475042,0.525 218.212465,1.96248562 225.1875,4.8375 C232.162535,7.71251437 238.124975,11.649975 243.075,16.65 C248.025025,21.650025 251.862486,27.549966 254.5875,34.35 C257.312514,41.150034 258.675,48.4749607 258.675,56.325 Z M232.725,56.325 C232.725,50.924973 232.025007,46.0625216 230.625,41.7375 C229.224993,37.4124784 227.212513,33.750015 224.5875,30.75 C221.962487,27.749985 218.750019,25.450008 214.95,23.85 C211.149981,22.249992 206.825024,21.45 201.975,21.45 C197.074975,21.45 192.712519,22.249992 188.8875,23.85 C185.062481,25.450008 181.837513,27.749985 179.2125,30.75 C176.587487,33.750015 174.575007,37.4124784 173.175,41.7375 C171.774993,46.0625216 171.075,50.924973 171.075,56.325 C171.075,61.7750272 171.774993,66.6624784 173.175,70.9875 C174.575007,75.3125216 176.587487,78.974985 179.2125,81.975 C181.837513,84.975015 185.062481,87.2624921 188.8875,88.8375 C192.712519,90.4125079 197.074975,91.2 201.975,91.2 C206.825024,91.2 211.149981,90.4125079 214.95,88.8375 C218.750019,87.2624921 221.962487,84.975015 224.5875,81.975 C227.212513,78.974985 229.224993,75.3125216 230.625,70.9875 C232.025007,66.6624784 232.725,61.7750272 232.725,56.325 Z M295.825,111 L295.825,1.725 L336.025,1.725 C343.575038,1.725 349.999973,2.424993 355.3,3.825 C360.600026,5.225007 364.924983,7.19998725 368.275,9.75 C371.625017,12.3000127 374.062492,15.3999817 375.5875,19.05 C377.112508,22.7000182 377.875,26.7749775 377.875,31.275 C377.875,33.7250122 377.525003,36.0874886 376.825,38.3625 C376.124996,40.6375114 375.025007,42.77499 373.525,44.775 C372.024992,46.77501 370.100012,48.5874919 367.75,50.2125 C365.399988,51.8375081 362.575016,53.249994 359.275,54.45 C366.475036,56.2000087 371.799983,59.0374804 375.25,62.9625 C378.700017,66.8875196 380.425,71.9249692 380.425,78.075 C380.425,82.7250232 379.525009,87.04998 377.725,91.05 C375.924991,95.05002 373.287517,98.5374851 369.8125,101.5125 C366.337483,104.487515 362.050025,106.812492 356.95,108.4875 C351.849974,110.162508 346.025033,111 339.475,111 L295.825,111 Z M321.175,64.65 L321.175,91.875 L339.025,91.875 C342.375017,91.875 345.112489,91.4500042 347.2375,90.6 C349.362511,89.7499957 351.024994,88.6500067 352.225,87.3 C353.425006,85.9499932 354.249998,84.4250085 354.7,82.725 C355.150002,81.0249915 355.375,79.3000087 355.375,77.55 C355.375,75.54999 355.112503,73.750008 354.5875,72.15 C354.062497,70.549992 353.162506,69.2000055 351.8875,68.1 C350.612494,66.9999945 348.92501,66.150003 346.825,65.55 C344.724989,64.949997 342.075016,64.65 338.875,64.65 L321.175,64.65 Z M321.175,47.7 L334.375,47.7 C337.175014,47.7 339.699989,47.500002 341.95,47.1 C344.200011,46.699998 346.112492,46.000005 347.6875,45 C349.262508,43.999995 350.462496,42.6250087 351.2875,40.875 C352.112504,39.1249912 352.525,36.9250132 352.525,34.275 C352.525,31.674987 352.200003,29.5125086 351.55,27.7875 C350.899997,26.0624914 349.900007,24.6750052 348.55,23.625 C347.199993,22.5749947 345.48751,21.8250022 343.4125,21.375 C341.33749,20.9249977 338.875014,20.7 336.025,20.7 L321.175,20.7 L321.175,47.7 Z M446.975,111 L421.475,111 L421.475,1.725 L446.975,1.725 L446.975,111 Z" id="YOBI"></path>
                    <path d="M48.39375,176.8875 C48.39375,180.86252 47.7312566,184.512483 46.40625,187.8375 C45.0812434,191.162517 43.218762,194.024988 40.81875,196.425 C38.418738,198.825012 35.5312669,200.687493 32.15625,202.0125 C28.7812331,203.337507 25.0437705,204 20.94375,204 L0.24375,204 L0.24375,149.775 L20.94375,149.775 C25.0437705,149.775 28.7812331,150.443743 32.15625,151.78125 C35.5312669,153.118757 38.418738,154.981238 40.81875,157.36875 C43.218762,159.756262 45.0812434,162.612483 46.40625,165.9375 C47.7312566,169.262517 48.39375,172.91248 48.39375,176.8875 Z M38.08125,176.8875 C38.08125,173.912485 37.681254,171.243762 36.88125,168.88125 C36.081246,166.518738 34.9437574,164.518758 33.46875,162.88125 C31.9937426,161.243742 30.2000106,159.987504 28.0875,159.1125 C25.9749894,158.237496 23.5937633,157.8 20.94375,157.8 L10.40625,157.8 L10.40625,195.975 L20.94375,195.975 C23.5937633,195.975 25.9749894,195.537504 28.0875,194.6625 C30.2000106,193.787496 31.9937426,192.531258 33.46875,190.89375 C34.9437574,189.256242 36.081246,187.256262 36.88125,184.89375 C37.681254,182.531238 38.08125,179.862515 38.08125,176.8875 Z M71.68125,164.925 C74.1062621,164.925 76.3374898,165.312496 78.375,166.0875 C80.4125102,166.862504 82.1687426,167.993743 83.64375,169.48125 C85.1187574,170.968757 86.2687459,172.793739 87.09375,174.95625 C87.9187541,177.118761 88.33125,179.587486 88.33125,182.3625 C88.33125,183.062503 88.3000003,183.643748 88.2375,184.10625 C88.1749997,184.568752 88.0625008,184.931249 87.9,185.19375 C87.7374992,185.456251 87.5187514,185.643749 87.24375,185.75625 C86.9687486,185.868751 86.6187521,185.925 86.19375,185.925 L62.41875,185.925 C62.6937514,189.87502 63.7562408,192.774991 65.60625,194.625 C67.4562593,196.475009 69.9062348,197.4 72.95625,197.4 C74.4562575,197.4 75.7499946,197.225002 76.8375,196.875 C77.9250054,196.524998 78.8749959,196.137502 79.6875,195.7125 C80.5000041,195.287498 81.2124969,194.900002 81.825,194.55 C82.4375031,194.199998 83.0312471,194.025 83.60625,194.025 C83.9812519,194.025 84.3062486,194.099999 84.58125,194.25 C84.8562514,194.400001 85.093749,194.612499 85.29375,194.8875 L87.99375,198.2625 C86.9687449,199.462506 85.8187564,200.468746 84.54375,201.28125 C83.2687436,202.093754 81.9375069,202.743748 80.55,203.23125 C79.1624931,203.718752 77.7500072,204.062499 76.3125,204.2625 C74.8749928,204.462501 73.4812568,204.5625 72.13125,204.5625 C69.4562366,204.5625 66.9687615,204.118754 64.66875,203.23125 C62.3687385,202.343746 60.3687585,201.031259 58.66875,199.29375 C56.9687415,197.556241 55.6312549,195.406263 54.65625,192.84375 C53.6812451,190.281237 53.19375,187.312517 53.19375,183.9375 C53.19375,181.312487 53.6187458,178.843762 54.46875,176.53125 C55.3187543,174.218738 56.5374921,172.206259 58.125,170.49375 C59.7125079,168.781241 61.6499886,167.425005 63.9375,166.425 C66.2250114,165.424995 68.8062356,164.925 71.68125,164.925 Z M71.86875,171.5625 C69.1687365,171.5625 67.0562576,172.324992 65.53125,173.85 C64.0062424,175.375008 63.0312521,177.537486 62.60625,180.3375 L80.00625,180.3375 C80.00625,179.137494 79.8437516,178.006255 79.51875,176.94375 C79.1937484,175.881245 78.6937534,174.950004 78.01875,174.15 C77.3437466,173.349996 76.4937551,172.718752 75.46875,172.25625 C74.4437449,171.793748 73.2437569,171.5625 71.86875,171.5625 Z M118.70625,173.025 C118.456249,173.425002 118.193751,173.706249 117.91875,173.86875 C117.643749,174.031251 117.293752,174.1125 116.86875,174.1125 C116.418748,174.1125 115.937503,173.987501 115.425,173.7375 C114.912497,173.487499 114.318753,173.206252 113.64375,172.89375 C112.968747,172.581248 112.200004,172.300001 111.3375,172.05 C110.474996,171.799999 109.456256,171.675 108.28125,171.675 C106.456241,171.675 105.018755,172.062496 103.96875,172.8375 C102.918745,173.612504 102.39375,174.624994 102.39375,175.875 C102.39375,176.700004 102.662497,177.393747 103.2,177.95625 C103.737503,178.518753 104.449996,179.012498 105.3375,179.4375 C106.225004,179.862502 107.231244,180.243748 108.35625,180.58125 C109.481256,180.918752 110.631244,181.287498 111.80625,181.6875 C112.981256,182.087502 114.131244,182.543747 115.25625,183.05625 C116.381256,183.568753 117.387496,184.218746 118.275,185.00625 C119.162504,185.793754 119.874997,186.737494 120.4125,187.8375 C120.950003,188.937505 121.21875,190.262492 121.21875,191.8125 C121.21875,193.662509 120.881253,195.368742 120.20625,196.93125 C119.531247,198.493758 118.543757,199.843744 117.24375,200.98125 C115.943744,202.118756 114.33751,203.006247 112.425,203.64375 C110.51249,204.281253 108.318762,204.6 105.84375,204.6 C104.518743,204.6 103.225006,204.481251 101.9625,204.24375 C100.699994,204.006249 99.4875058,203.675002 98.325,203.25 C97.1624942,202.824998 96.0875049,202.325003 95.1,201.75 C94.1124951,201.174997 93.2437538,200.550003 92.49375,199.875 L94.63125,196.35 C94.9062514,195.924998 95.2312481,195.600001 95.60625,195.375 C95.9812519,195.149999 96.4562471,195.0375 97.03125,195.0375 C97.6062529,195.0375 98.1499974,195.199998 98.6625,195.525 C99.1750026,195.850002 99.7687466,196.199998 100.44375,196.575 C101.118753,196.950002 101.912495,197.299998 102.825,197.625 C103.737505,197.950002 104.893743,198.1125 106.29375,198.1125 C107.393756,198.1125 108.337496,197.981251 109.125,197.71875 C109.912504,197.456249 110.562497,197.112502 111.075,196.6875 C111.587503,196.262498 111.962499,195.768753 112.2,195.20625 C112.437501,194.643747 112.55625,194.062503 112.55625,193.4625 C112.55625,192.562495 112.287503,191.825003 111.75,191.25 C111.212497,190.674997 110.500004,190.175002 109.6125,189.75 C108.724996,189.324998 107.712506,188.943752 106.575,188.60625 C105.437494,188.268748 104.275006,187.900002 103.0875,187.5 C101.899994,187.099998 100.737506,186.631253 99.6,186.09375 C98.4624943,185.556247 97.4500044,184.875004 96.5625,184.05 C95.6749956,183.224996 94.9625027,182.212506 94.425,181.0125 C93.8874973,179.812494 93.61875,178.362508 93.61875,176.6625 C93.61875,175.087492 93.9312469,173.587507 94.55625,172.1625 C95.1812531,170.737493 96.0999939,169.493755 97.3125,168.43125 C98.5250061,167.368745 100.037491,166.518753 101.85,165.88125 C103.662509,165.243747 105.756238,164.925 108.13125,164.925 C110.781263,164.925 113.193739,165.362496 115.36875,166.2375 C117.543761,167.112504 119.356243,168.262493 120.80625,169.6875 L118.70625,173.025 Z M138.50625,165.525 L138.50625,204 L129.24375,204 L129.24375,165.525 L138.50625,165.525 Z M139.89375,154.3125 C139.89375,155.112504 139.731252,155.862496 139.40625,156.5625 C139.081248,157.262503 138.650003,157.874997 138.1125,158.4 C137.574997,158.925003 136.943754,159.343748 136.21875,159.65625 C135.493746,159.968752 134.718754,160.125 133.89375,160.125 C133.093746,160.125 132.337504,159.968752 131.625,159.65625 C130.912496,159.343748 130.293753,158.925003 129.76875,158.4 C129.243747,157.874997 128.825002,157.262503 128.5125,156.5625 C128.199998,155.862496 128.04375,155.112504 128.04375,154.3125 C128.04375,153.487496 128.199998,152.712504 128.5125,151.9875 C128.825002,151.262496 129.243747,150.637503 129.76875,150.1125 C130.293753,149.587497 130.912496,149.168752 131.625,148.85625 C132.337504,148.543748 133.093746,148.3875 133.89375,148.3875 C134.718754,148.3875 135.493746,148.543748 136.21875,148.85625 C136.943754,149.168752 137.574997,149.587497 138.1125,150.1125 C138.650003,150.637503 139.081248,151.262496 139.40625,151.9875 C139.731252,152.712504 139.89375,153.487496 139.89375,154.3125 Z M162.28125,164.85 C163.931258,164.85 165.481243,165.018748 166.93125,165.35625 C168.381257,165.693752 169.706244,166.187497 170.90625,166.8375 L181.96875,166.8375 L181.96875,170.2875 C181.96875,170.862503 181.818752,171.312498 181.51875,171.6375 C181.218749,171.962502 180.706254,172.187499 179.98125,172.3125 L176.53125,172.95 C176.781251,173.600003 176.974999,174.287496 177.1125,175.0125 C177.250001,175.737504 177.31875,176.499996 177.31875,177.3 C177.31875,179.200009 176.937504,180.918742 176.175,182.45625 C175.412496,183.993758 174.362507,185.299995 173.025,186.375 C171.687493,187.450005 170.100009,188.281247 168.2625,188.86875 C166.424991,189.456253 164.431261,189.75 162.28125,189.75 C160.831243,189.75 159.418757,189.612501 158.04375,189.3375 C156.843744,190.062504 156.24375,190.874995 156.24375,191.775 C156.24375,192.550004 156.599996,193.118748 157.3125,193.48125 C158.025004,193.843752 158.962494,194.099999 160.125,194.25 C161.287506,194.400001 162.606243,194.49375 164.08125,194.53125 C165.556257,194.56875 167.068742,194.649999 168.61875,194.775 C170.168758,194.900001 171.681243,195.118748 173.15625,195.43125 C174.631257,195.743752 175.949994,196.237497 177.1125,196.9125 C178.275006,197.587503 179.212496,198.506244 179.925,199.66875 C180.637504,200.831256 180.99375,202.324991 180.99375,204.15 C180.99375,205.850008 180.575004,207.499992 179.7375,209.1 C178.899996,210.700008 177.687508,212.124994 176.1,213.375 C174.512492,214.625006 172.568762,215.631246 170.26875,216.39375 C167.968739,217.156254 165.343765,217.5375 162.39375,217.5375 C159.468735,217.5375 156.931261,217.256253 154.78125,216.69375 C152.631239,216.131247 150.850007,215.381255 149.4375,214.44375 C148.024993,213.506245 146.968754,212.425006 146.26875,211.2 C145.568747,209.974994 145.21875,208.700007 145.21875,207.375 C145.21875,205.574991 145.768745,204.062506 146.86875,202.8375 C147.968756,201.612494 149.49374,200.637504 151.44375,199.9125 C150.493745,199.387497 149.731253,198.687504 149.15625,197.8125 C148.581247,196.937496 148.29375,195.800007 148.29375,194.4 C148.29375,193.824997 148.393749,193.231253 148.59375,192.61875 C148.793751,192.006247 149.099998,191.400003 149.5125,190.8 C149.925002,190.199997 150.443747,189.631253 151.06875,189.09375 C151.693753,188.556247 152.431246,188.075002 153.28125,187.65 C151.33124,186.599995 149.800006,185.200009 148.6875,183.45 C147.574994,181.699991 147.01875,179.650012 147.01875,177.3 C147.01875,175.39999 147.399996,173.681258 148.1625,172.14375 C148.925004,170.606242 149.987493,169.293755 151.35,168.20625 C152.712507,167.118745 154.324991,166.287503 156.1875,165.7125 C158.050009,165.137497 160.081239,164.85 162.28125,164.85 Z M172.44375,205.725 C172.44375,204.974996 172.218752,204.362502 171.76875,203.8875 C171.318748,203.412498 170.706254,203.043751 169.93125,202.78125 C169.156246,202.518749 168.250005,202.325001 167.2125,202.2 C166.174995,202.074999 165.075006,201.98125 163.9125,201.91875 C162.749994,201.85625 161.550006,201.79375 160.3125,201.73125 C159.074994,201.66875 157.881256,201.562501 156.73125,201.4125 C155.681245,201.987503 154.837503,202.668746 154.2,203.45625 C153.562497,204.243754 153.24375,205.149995 153.24375,206.175 C153.24375,206.850003 153.412498,207.481247 153.75,208.06875 C154.087502,208.656253 154.624996,209.162498 155.3625,209.5875 C156.100004,210.012502 157.056244,210.343749 158.23125,210.58125 C159.406256,210.818751 160.843742,210.9375 162.54375,210.9375 C164.268759,210.9375 165.756244,210.806251 167.00625,210.54375 C168.256256,210.281249 169.287496,209.918752 170.1,209.45625 C170.912504,208.993748 171.506248,208.443753 171.88125,207.80625 C172.256252,207.168747 172.44375,206.475004 172.44375,205.725 Z M162.28125,183.825 C163.431256,183.825 164.431246,183.668752 165.28125,183.35625 C166.131254,183.043748 166.837497,182.612503 167.4,182.0625 C167.962503,181.512497 168.387499,180.850004 168.675,180.075 C168.962501,179.299996 169.10625,178.450005 169.10625,177.525 C169.10625,175.62499 168.537506,174.118756 167.4,173.00625 C166.262494,171.893744 164.556261,171.3375 162.28125,171.3375 C160.006239,171.3375 158.300006,171.893744 157.1625,173.00625 C156.024994,174.118756 155.45625,175.62499 155.45625,177.525 C155.45625,178.425004 155.599999,179.262496 155.8875,180.0375 C156.175001,180.812504 156.599997,181.481247 157.1625,182.04375 C157.725003,182.606253 158.437496,183.043748 159.3,183.35625 C160.162504,183.668752 161.156244,183.825 162.28125,183.825 Z M187.78125,204 L187.78125,165.525 L193.44375,165.525 C194.643756,165.525 195.431248,166.087494 195.80625,167.2125 L196.44375,170.25 C197.218754,169.449996 198.037496,168.725003 198.9,168.075 C199.762504,167.424997 200.674995,166.862502 201.6375,166.3875 C202.600005,165.912498 203.631245,165.550001 204.73125,165.3 C205.831256,165.049999 207.031244,164.925 208.33125,164.925 C210.431261,164.925 212.293742,165.281246 213.91875,165.99375 C215.543758,166.706254 216.899995,167.706244 217.9875,168.99375 C219.075005,170.281256 219.899997,171.818741 220.4625,173.60625 C221.025003,175.393759 221.30625,177.362489 221.30625,179.5125 L221.30625,204 L212.04375,204 L212.04375,179.5125 C212.04375,177.162488 211.500005,175.343756 210.4125,174.05625 C209.324995,172.768744 207.693761,172.125 205.51875,172.125 C203.918742,172.125 202.418757,172.487496 201.01875,173.2125 C199.618743,173.937504 198.293756,174.924994 197.04375,176.175 L197.04375,204 L187.78125,204 Z M274.48125,159.6375 C274.206249,160.187503 273.887502,160.574999 273.525,160.8 C273.162498,161.025001 272.731253,161.1375 272.23125,161.1375 C271.731248,161.1375 271.168753,160.943752 270.54375,160.55625 C269.918747,160.168748 269.181254,159.737502 268.33125,159.2625 C267.481246,158.787498 266.487506,158.356252 265.35,157.96875 C264.212494,157.581248 262.868758,157.3875 261.31875,157.3875 C259.918743,157.3875 258.700005,157.556248 257.6625,157.89375 C256.624995,158.231252 255.750004,158.699997 255.0375,159.3 C254.324996,159.900003 253.793752,160.618746 253.44375,161.45625 C253.093748,162.293754 252.91875,163.212495 252.91875,164.2125 C252.91875,165.487506 253.274996,166.549996 253.9875,167.4 C254.700004,168.250004 255.643744,168.974997 256.81875,169.575 C257.993756,170.175003 259.331243,170.712498 260.83125,171.1875 C262.331258,171.662502 263.862492,172.168747 265.425,172.70625 C266.987508,173.243753 268.518743,173.868746 270.01875,174.58125 C271.518758,175.293754 272.856244,176.193745 274.03125,177.28125 C275.206256,178.368755 276.149996,179.699992 276.8625,181.275 C277.575004,182.850008 277.93125,184.762489 277.93125,187.0125 C277.93125,189.462512 277.512504,191.756239 276.675,193.89375 C275.837496,196.031261 274.612508,197.893742 273,199.48125 C271.387492,201.068758 269.418762,202.318745 267.09375,203.23125 C264.768738,204.143755 262.106265,204.6 259.10625,204.6 C257.381241,204.6 255.681258,204.431252 254.00625,204.09375 C252.331242,203.756248 250.725008,203.275003 249.1875,202.65 C247.649992,202.024997 246.212507,201.275004 244.875,200.4 C243.537493,199.524996 242.343755,198.550005 241.29375,197.475 L244.21875,192.6375 C244.493751,192.287498 244.824998,191.993751 245.2125,191.75625 C245.600002,191.518749 246.031248,191.4 246.50625,191.4 C247.131253,191.4 247.806246,191.656247 248.53125,192.16875 C249.256254,192.681253 250.112495,193.249997 251.1,193.875 C252.087505,194.500003 253.249993,195.068747 254.5875,195.58125 C255.925007,196.093753 257.531241,196.35 259.40625,196.35 C262.281264,196.35 264.506242,195.668757 266.08125,194.30625 C267.656258,192.943743 268.44375,190.987513 268.44375,188.4375 C268.44375,187.012493 268.087504,185.850004 267.375,184.95 C266.662496,184.049995 265.718756,183.293753 264.54375,182.68125 C263.368744,182.068747 262.031258,181.550002 260.53125,181.125 C259.031243,180.699998 257.506258,180.237502 255.95625,179.7375 C254.406242,179.237497 252.881258,178.637503 251.38125,177.9375 C249.881243,177.237496 248.543756,176.325006 247.36875,175.2 C246.193744,174.074994 245.250004,172.668758 244.5375,170.98125 C243.824996,169.293742 243.46875,167.212512 243.46875,164.7375 C243.46875,162.76249 243.862496,160.837509 244.65,158.9625 C245.437504,157.087491 246.587492,155.425007 248.1,153.975 C249.612508,152.524993 251.468739,151.362504 253.66875,150.4875 C255.868761,149.612496 258.381236,149.175 261.20625,149.175 C264.406266,149.175 267.356237,149.674995 270.05625,150.675 C272.756264,151.675005 275.056241,153.074991 276.95625,154.875 L274.48125,159.6375 Z M298.78125,214.575 C298.506249,215.225003 298.150002,215.718748 297.7125,216.05625 C297.274998,216.393752 296.606255,216.5625 295.70625,216.5625 L288.80625,216.5625 L296.00625,201.15 L280.44375,165.525 L288.54375,165.525 C289.293754,165.525 289.868748,165.699998 290.26875,166.05 C290.668752,166.400002 290.968749,166.799998 291.16875,167.25 L299.38125,187.2 C299.656251,187.850003 299.893749,188.524996 300.09375,189.225 C300.293751,189.925003 300.468749,190.624996 300.61875,191.325 C300.818751,190.599996 301.037499,189.900003 301.275,189.225 C301.512501,188.549997 301.768749,187.862503 302.04375,187.1625 L309.76875,167.25 C309.968751,166.749997 310.299998,166.337502 310.7625,166.0125 C311.225002,165.687498 311.743747,165.525 312.31875,165.525 L319.74375,165.525 L298.78125,214.575 Z M347.98125,173.025 C347.731249,173.425002 347.468751,173.706249 347.19375,173.86875 C346.918749,174.031251 346.568752,174.1125 346.14375,174.1125 C345.693748,174.1125 345.212503,173.987501 344.7,173.7375 C344.187497,173.487499 343.593753,173.206252 342.91875,172.89375 C342.243747,172.581248 341.475004,172.300001 340.6125,172.05 C339.749996,171.799999 338.731256,171.675 337.55625,171.675 C335.731241,171.675 334.293755,172.062496 333.24375,172.8375 C332.193745,173.612504 331.66875,174.624994 331.66875,175.875 C331.66875,176.700004 331.937497,177.393747 332.475,177.95625 C333.012503,178.518753 333.724996,179.012498 334.6125,179.4375 C335.500004,179.862502 336.506244,180.243748 337.63125,180.58125 C338.756256,180.918752 339.906244,181.287498 341.08125,181.6875 C342.256256,182.087502 343.406244,182.543747 344.53125,183.05625 C345.656256,183.568753 346.662496,184.218746 347.55,185.00625 C348.437504,185.793754 349.149997,186.737494 349.6875,187.8375 C350.225003,188.937505 350.49375,190.262492 350.49375,191.8125 C350.49375,193.662509 350.156253,195.368742 349.48125,196.93125 C348.806247,198.493758 347.818757,199.843744 346.51875,200.98125 C345.218744,202.118756 343.61251,203.006247 341.7,203.64375 C339.78749,204.281253 337.593762,204.6 335.11875,204.6 C333.793743,204.6 332.500006,204.481251 331.2375,204.24375 C329.974994,204.006249 328.762506,203.675002 327.6,203.25 C326.437494,202.824998 325.362505,202.325003 324.375,201.75 C323.387495,201.174997 322.518754,200.550003 321.76875,199.875 L323.90625,196.35 C324.181251,195.924998 324.506248,195.600001 324.88125,195.375 C325.256252,195.149999 325.731247,195.0375 326.30625,195.0375 C326.881253,195.0375 327.424997,195.199998 327.9375,195.525 C328.450003,195.850002 329.043747,196.199998 329.71875,196.575 C330.393753,196.950002 331.187495,197.299998 332.1,197.625 C333.012505,197.950002 334.168743,198.1125 335.56875,198.1125 C336.668756,198.1125 337.612496,197.981251 338.4,197.71875 C339.187504,197.456249 339.837497,197.112502 340.35,196.6875 C340.862503,196.262498 341.237499,195.768753 341.475,195.20625 C341.712501,194.643747 341.83125,194.062503 341.83125,193.4625 C341.83125,192.562495 341.562503,191.825003 341.025,191.25 C340.487497,190.674997 339.775004,190.175002 338.8875,189.75 C337.999996,189.324998 336.987506,188.943752 335.85,188.60625 C334.712494,188.268748 333.550006,187.900002 332.3625,187.5 C331.174994,187.099998 330.012506,186.631253 328.875,186.09375 C327.737494,185.556247 326.725004,184.875004 325.8375,184.05 C324.949996,183.224996 324.237503,182.212506 323.7,181.0125 C323.162497,179.812494 322.89375,178.362508 322.89375,176.6625 C322.89375,175.087492 323.206247,173.587507 323.83125,172.1625 C324.456253,170.737493 325.374994,169.493755 326.5875,168.43125 C327.800006,167.368745 329.312491,166.518753 331.125,165.88125 C332.937509,165.243747 335.031238,164.925 337.40625,164.925 C340.056263,164.925 342.468739,165.362496 344.64375,166.2375 C346.818761,167.112504 348.631243,168.262493 350.08125,169.6875 L347.98125,173.025 Z M370.55625,204.6 C367.231233,204.6 364.668759,203.656259 362.86875,201.76875 C361.068741,199.881241 360.16875,197.275017 360.16875,193.95 L360.16875,172.4625 L356.26875,172.4625 C355.768748,172.4625 355.337502,172.300002 354.975,171.975 C354.612498,171.649998 354.43125,171.162503 354.43125,170.5125 L354.43125,166.8375 L360.61875,165.825 L362.56875,155.325 C362.668751,154.824997 362.899998,154.437501 363.2625,154.1625 C363.625002,153.887499 364.081247,153.75 364.63125,153.75 L369.43125,153.75 L369.43125,165.8625 L379.55625,165.8625 L379.55625,172.4625 L369.43125,172.4625 L369.43125,193.3125 C369.43125,194.512506 369.731247,195.449997 370.33125,196.125 C370.931253,196.800003 371.731245,197.1375 372.73125,197.1375 C373.306253,197.1375 373.787498,197.068751 374.175,196.93125 C374.562502,196.793749 374.899999,196.650001 375.1875,196.5 C375.475001,196.349999 375.731249,196.206251 375.95625,196.06875 C376.181251,195.931249 376.406249,195.8625 376.63125,195.8625 C376.906251,195.8625 377.131249,195.931249 377.30625,196.06875 C377.481251,196.206251 377.668749,196.412499 377.86875,196.6875 L380.64375,201.1875 C379.293743,202.312506 377.743759,203.162497 375.99375,203.7375 C374.243741,204.312503 372.431259,204.6 370.55625,204.6 Z M402.84375,164.925 C405.268762,164.925 407.49999,165.312496 409.5375,166.0875 C411.57501,166.862504 413.331243,167.993743 414.80625,169.48125 C416.281257,170.968757 417.431246,172.793739 418.25625,174.95625 C419.081254,177.118761 419.49375,179.587486 419.49375,182.3625 C419.49375,183.062503 419.4625,183.643748 419.4,184.10625 C419.3375,184.568752 419.225001,184.931249 419.0625,185.19375 C418.899999,185.456251 418.681251,185.643749 418.40625,185.75625 C418.131249,185.868751 417.781252,185.925 417.35625,185.925 L393.58125,185.925 C393.856251,189.87502 394.918741,192.774991 396.76875,194.625 C398.618759,196.475009 401.068735,197.4 404.11875,197.4 C405.618758,197.4 406.912495,197.225002 408,196.875 C409.087505,196.524998 410.037496,196.137502 410.85,195.7125 C411.662504,195.287498 412.374997,194.900002 412.9875,194.55 C413.600003,194.199998 414.193747,194.025 414.76875,194.025 C415.143752,194.025 415.468749,194.099999 415.74375,194.25 C416.018751,194.400001 416.256249,194.612499 416.45625,194.8875 L419.15625,198.2625 C418.131245,199.462506 416.981256,200.468746 415.70625,201.28125 C414.431244,202.093754 413.100007,202.743748 411.7125,203.23125 C410.324993,203.718752 408.912507,204.062499 407.475,204.2625 C406.037493,204.462501 404.643757,204.5625 403.29375,204.5625 C400.618737,204.5625 398.131262,204.118754 395.83125,203.23125 C393.531239,202.343746 391.531259,201.031259 389.83125,199.29375 C388.131242,197.556241 386.793755,195.406263 385.81875,192.84375 C384.843745,190.281237 384.35625,187.312517 384.35625,183.9375 C384.35625,181.312487 384.781246,178.843762 385.63125,176.53125 C386.481254,174.218738 387.699992,172.206259 389.2875,170.49375 C390.875008,168.781241 392.812489,167.425005 395.1,166.425 C397.387511,165.424995 399.968736,164.925 402.84375,164.925 Z M403.03125,171.5625 C400.331237,171.5625 398.218758,172.324992 396.69375,173.85 C395.168742,175.375008 394.193752,177.537486 393.76875,180.3375 L411.16875,180.3375 C411.16875,179.137494 411.006252,178.006255 410.68125,176.94375 C410.356248,175.881245 409.856253,174.950004 409.18125,174.15 C408.506247,173.349996 407.656255,172.718752 406.63125,172.25625 C405.606245,171.793748 404.406257,171.5625 403.03125,171.5625 Z M427.03125,204 L427.03125,165.525 L432.69375,165.525 C433.893756,165.525 434.681248,166.087494 435.05625,167.2125 L435.65625,170.0625 C436.331253,169.312496 437.037496,168.625003 437.775,168 C438.512504,167.374997 439.299996,166.837502 440.1375,166.3875 C440.975004,165.937498 441.874995,165.581251 442.8375,165.31875 C443.800005,165.056249 444.856244,164.925 446.00625,164.925 C448.431262,164.925 450.424992,165.581243 451.9875,166.89375 C453.550008,168.206257 454.718746,169.949989 455.49375,172.125 C456.093753,170.849994 456.843746,169.756255 457.74375,168.84375 C458.643755,167.931245 459.631245,167.187503 460.70625,166.6125 C461.781255,166.037497 462.924994,165.612501 464.1375,165.3375 C465.350006,165.062499 466.568744,164.925 467.79375,164.925 C469.918761,164.925 471.806242,165.249997 473.45625,165.9 C475.106258,166.550003 476.493744,167.499994 477.61875,168.75 C478.743756,170.000006 479.599997,171.524991 480.1875,173.325 C480.775003,175.125009 481.06875,177.187488 481.06875,179.5125 L481.06875,204 L471.80625,204 L471.80625,179.5125 C471.80625,177.062488 471.268755,175.218756 470.19375,173.98125 C469.118745,172.743744 467.54376,172.125 465.46875,172.125 C464.518745,172.125 463.637504,172.287498 462.825,172.6125 C462.012496,172.937502 461.300003,173.406247 460.6875,174.01875 C460.074997,174.631253 459.593752,175.399995 459.24375,176.325 C458.893748,177.250005 458.71875,178.312494 458.71875,179.5125 L458.71875,204 L449.41875,204 L449.41875,179.5125 C449.41875,176.937487 448.900005,175.062506 447.8625,173.8875 C446.824995,172.712494 445.29376,172.125 443.26875,172.125 C441.943743,172.125 440.700006,172.456247 439.5375,173.11875 C438.374994,173.781253 437.293755,174.687494 436.29375,175.8375 L436.29375,204 L427.03125,204 Z" id="DesignSystem"></path>
                </g>
            </g>
        </g>
    </g>
</svg>