<?xml version="1.0" encoding="UTF-8"?>
<svg width="107px" height="94px" viewBox="0 0 107 94" version="1.1" xmlns="http://www.w3.org/2000/svg" xmlns:xlink="http://www.w3.org/1999/xlink">
    <!-- Generator: Sketch 52.5 (67469) - http://www.bohemiancoding.com/sketch -->
    <title>areamanager</title>
    <desc>Created with Sketch.</desc>
    <defs>
        <path d="M37.289504,0.0308657775 C38.017846,0.0102885925 38.8032397,0 39.645685,0 C52.0855458,0 65.6118776,7.47794598 80.2246805,22.4338379 C88.548577,34.3985515 89.8064477,43.9200655 83.9982925,50.9983799 C78.1922686,58.0740972 65.7561613,64.3708575 46.6899706,69.8886611 C43.2530881,70.9864079 39.5904784,71.5789474 35.7894737,71.5789474 C16.0234932,71.5789474 0,55.5554542 0,35.7894737 C0,16.0234932 16.0234932,0 35.7894737,0 C36.2919698,0 36.7920471,0.0103558523 37.289504,0.0308657775 Z" id="path-1"></path>
        <linearGradient x1="64.7638847%" y1="27.3595669%" x2="50%" y2="50%" id="linearGradient-3">
            <stop stop-color="#6886B3" offset="0%"></stop>
            <stop stop-color="#90AADB" offset="100%"></stop>
        </linearGradient>
        <path d="M9.47398551,2.23615592 C9.47398551,3.67247592 8.85599523,8.79848347 9.47398551,10.3354785 C9.68364986,10.8568725 9.27862267,11.889714 9.47398551,12.3020722 C10.1963548,13.8268143 6.04051297,17.3464903 6.04051297,17.3464903 L4.77357915,28.6379778 L0.383221844,28.6379778 C0.383221844,28.6379778 1.37088071,18.3472438 0.895715981,17.3464903 C0.420561786,16.3457368 0.383221844,14.5312223 0.383221844,12.824677 C0.383221844,11.1181028 0.383221844,7.66433268 1.42875078,6.11623804 C2.47427971,4.5681434 9.47398551,0.2674 9.47398551,2.23615592 Z" id="path-4"></path>
        <linearGradient x1="50%" y1="0%" x2="50%" y2="100%" id="linearGradient-6">
            <stop stop-color="#A9C4E5" offset="0%"></stop>
            <stop stop-color="#7192C7" offset="100%"></stop>
        </linearGradient>
        <linearGradient x1="28.9899876%" y1="27.9637841%" x2="28.9899876%" y2="97.4056683%" id="linearGradient-7">
            <stop stop-color="#C4CFE2" offset="0%"></stop>
            <stop stop-color="#99AFD7" offset="100%"></stop>
        </linearGradient>
        <linearGradient x1="66.4059369%" y1="96.8038727%" x2="60.7470739%" y2="22.5656568%" id="linearGradient-8">
            <stop stop-color="#F4F8FF" offset="0%"></stop>
            <stop stop-color="#C3D8F5" offset="100%"></stop>
        </linearGradient>
        <linearGradient x1="43.6361052%" y1="85.265527%" x2="6.77392332%" y2="100%" id="linearGradient-9">
            <stop stop-color="#FFFFFF" stop-opacity="0.5" offset="0%"></stop>
            <stop stop-color="#AFC3E5" offset="100%"></stop>
        </linearGradient>
        <linearGradient x1="17.2373684%" y1="41.5235058%" x2="-5.57070234%" y2="14.0163926%" id="linearGradient-10">
            <stop stop-color="#FFFFFF" stop-opacity="0" offset="0%"></stop>
            <stop stop-color="#A1B8E3" offset="100%"></stop>
        </linearGradient>
        <path d="M13.7524766,1.51692769 C13.7524766,1.51692769 10.2169557,4.38482437 9.33991643,4.6259024 C8.46287719,4.86698044 2.76195279,7.28421726 2.42586922,8.02513642 C2.08978565,8.76599944 0.322683892,11.5654578 0.381627432,12.3212548 C0.440570973,13.077108 2.74079936,29.7264267 2.42586922,37.5848745 C2.11093907,45.4433224 2.42586922,44.3746966 2.42586922,46.2280331 C2.42586922,48.0814258 1.09124593,50.6168436 1.75855758,52.0112673 C2.42586922,53.4056909 3.57263349,53.7337906 5.31948517,54.1322936 C7.06633684,54.5307966 8.32643381,54.9963905 10.811623,54.1322936 C13.2968498,53.2681967 14.6877818,55.2354474 18.7964778,54.6838986 C22.9051738,54.1322936 26.4328657,55.8723898 29.525482,51.6483028 C30.6627234,52.3961837 31.2518577,51.9026867 33.0671758,50.8612902 C34.8824561,49.8198376 34.7434156,46.1121539 34.199223,44.825974 C33.6550303,43.539794 31.2160625,42.1898356 32.1416191,39.3266549 C33.0671758,36.4634181 34.199223,26.9143362 34.199223,22.604575 C34.199223,18.2947577 36.6801965,10.5220402 37.449436,8.02513642 C35.2485384,6.33349172 25.7014163,0.949434256 23.8831624,0.388509553 C23.1722641,2.32825017 19.715711,3.30317335 19.1464128,2.78609633 C18.5771522,2.26907545 18.9147789,6.43477369 18.9147789,6.43477369 C18.9147789,6.43477369 18.230793,8.02513642 17.5902054,9.69449235 C16.9496179,11.3639044 15.4717008,13.9791576 15.4717008,15.7792706 C14.1217582,14.3905735 15.7635955,10.3866794 15.4717008,8.83522375 C15.1359183,7.05066239 15.8074456,5.36474427 16.5471005,3.02228992 C15.4717008,2.76414441 15.377075,3.20430553 15.0437391,2.7373642 C14.1725716,1.51692769 13.7524766,1.51692769 13.7524766,1.51692769 Z" id="path-11"></path>
        <linearGradient x1="-30.2321633%" y1="83.8070478%" x2="83.6802978%" y2="73.1776026%" id="linearGradient-13">
            <stop stop-color="#EAF0F7" stop-opacity="0.115545743" offset="0%"></stop>
            <stop stop-color="#D1DDED" offset="100%"></stop>
        </linearGradient>
        <linearGradient x1="0%" y1="56.064794%" x2="57.5693573%" y2="20.6038007%" id="linearGradient-14">
            <stop stop-color="#E2E9F4" offset="0%"></stop>
            <stop stop-color="#E5EFFD" offset="100%"></stop>
        </linearGradient>
        <linearGradient x1="31.6087503%" y1="42.9700243%" x2="-16.9574129%" y2="61.3689591%" id="linearGradient-15">
            <stop stop-color="#FFFFFF" stop-opacity="0" offset="0%"></stop>
            <stop stop-color="#FFFFFF" offset="100%"></stop>
        </linearGradient>
        <path d="M37.3113516,59.4068419 C34.5573392,49.8418957 33.4049636,43.0201799 33.5051767,40.6567494 C33.6053898,38.2933188 36.2809507,33.6960796 39.3080938,33.9816502 C42.3352533,34.2672209 42.9765771,40.0623923 43.6041715,43.1751422 C44.2317659,46.2878922 48.8666072,62.2806427 49.1012988,64.5328495 C49.336007,66.7850183 47.2816146,70.3885263 44.657278,70.7004993 C42.0329415,71.0124344 40.0653639,68.9717501 37.3113516,59.4068419 Z" id="path-16"></path>
        <filter x="-79.2%" y="-34.0%" width="257.3%" height="168.1%" filterUnits="objectBoundingBox" id="filter-17">
            <feGaussianBlur stdDeviation="6.5" in="SourceAlpha" result="shadowBlurInner1"></feGaussianBlur>
            <feOffset dx="-14" dy="5" in="shadowBlurInner1" result="shadowOffsetInner1"></feOffset>
            <feComposite in="shadowOffsetInner1" in2="SourceAlpha" operator="arithmetic" k2="-1" k3="1" result="shadowInnerInner1"></feComposite>
            <feColorMatrix values="0 0 0 0 0.631372549   0 0 0 0 0.721568627   0 0 0 0 0.890196078  0 0 0 0.137483016 0" type="matrix" in="shadowInnerInner1"></feColorMatrix>
        </filter>
        <linearGradient x1="50%" y1="0%" x2="50%" y2="100%" id="linearGradient-18">
            <stop stop-color="#B5CCEF" offset="0%"></stop>
            <stop stop-color="#E5EFFD" offset="100%"></stop>
        </linearGradient>
        <linearGradient x1="31.1750322%" y1="58.933311%" x2="49.752516%" y2="28.4521956%" id="linearGradient-19">
            <stop stop-color="#081E41" offset="0%"></stop>
            <stop stop-color="#3A4860" offset="100%"></stop>
        </linearGradient>
        <circle id="path-20" cx="10.9303905" cy="26.1324278" r="10.0509338"></circle>
        <filter x="-149.2%" y="-119.4%" width="398.5%" height="398.5%" filterUnits="objectBoundingBox" id="filter-21">
            <feOffset dx="0" dy="6" in="SourceAlpha" result="shadowOffsetOuter1"></feOffset>
            <feGaussianBlur stdDeviation="9" in="shadowOffsetOuter1" result="shadowBlurOuter1"></feGaussianBlur>
            <feColorMatrix values="0 0 0 0 0   0 0 0 0 0   0 0 0 0 0  0 0 0 0.0416666667 0" type="matrix" in="shadowBlurOuter1"></feColorMatrix>
        </filter>
        <circle id="path-22" cx="37.0628183" cy="10.0509338" r="10.0509338"></circle>
        <filter x="-149.2%" y="-119.4%" width="398.5%" height="398.5%" filterUnits="objectBoundingBox" id="filter-23">
            <feOffset dx="0" dy="6" in="SourceAlpha" result="shadowOffsetOuter1"></feOffset>
            <feGaussianBlur stdDeviation="9" in="shadowOffsetOuter1" result="shadowBlurOuter1"></feGaussianBlur>
            <feColorMatrix values="0 0 0 0 0   0 0 0 0 0   0 0 0 0 0  0 0 0 0.0416666667 0" type="matrix" in="shadowBlurOuter1"></feColorMatrix>
        </filter>
        <circle id="path-24" cx="63.1952462" cy="26.1324278" r="10.0509338"></circle>
        <filter x="-149.2%" y="-119.4%" width="398.5%" height="398.5%" filterUnits="objectBoundingBox" id="filter-25">
            <feOffset dx="0" dy="6" in="SourceAlpha" result="shadowOffsetOuter1"></feOffset>
            <feGaussianBlur stdDeviation="9" in="shadowOffsetOuter1" result="shadowBlurOuter1"></feGaussianBlur>
            <feColorMatrix values="0 0 0 0 0   0 0 0 0 0   0 0 0 0 0  0 0 0 0.0416666667 0" type="matrix" in="shadowBlurOuter1"></feColorMatrix>
        </filter>
        <linearGradient x1="50%" y1="100%" x2="50%" y2="3.061617e-15%" id="linearGradient-26">
            <stop stop-color="#F46885" offset="0%"></stop>
            <stop stop-color="#F46885" offset="27.475%"></stop>
            <stop stop-color="#FDB93F" offset="100%"></stop>
        </linearGradient>
        <circle id="path-27" cx="5.02546689" cy="5.02546689" r="5.02546689"></circle>
    </defs>
    <g id="Illustrations" stroke="none" stroke-width="1" fill="none" fill-rule="evenodd">
        <g transform="translate(-668.000000, -641.000000)" id="Boost">
            <g transform="translate(683.000000, 38.000000)">
                <g id="areamanager" transform="translate(2.000000, 614.000000)">
                    <g id="man" transform="translate(0.000000, 11.421053)">
                        <mask id="mask-2" fill="white">
                            <use xlink:href="#path-1"></use>
                        </mask>
                        <use id="Mask" fill-opacity="0.5" fill="#F0F5F8" xlink:href="#path-1"></use>
                        <g mask="url(#mask-2)">
                            <g transform="translate(16.842105, 17.157895)">
                                <g id="neck" stroke-width="1" fill="none" fill-rule="evenodd" transform="translate(16.561404, 15.173784)">
                                    <mask id="mask-5" fill="white">
                                        <use xlink:href="#path-4"></use>
                                    </mask>
                                    <use id="Path-23" fill="url(#linearGradient-3)" xlink:href="#path-4"></use>
                                    <path d="M2.51143076,9.24745743 C2.88453191,9.39610679 3.24405818,9.53467731 3.59043309,9.6635642 C10.1549682,12.1062427 11.9957653,11.0707342 11.9957653,9.24745743 C11.9957653,7.9678033 11.2266462,4.32391398 9.68840781,-1.68421053 C-0.0590133533,3.62632255 -2.45133904,7.27021187 2.51143076,9.24745743 Z" id="Path-9" fill="url(#linearGradient-6)" style="mix-blend-mode: multiply;" opacity="0.153292411" mask="url(#mask-5)"></path>
                                </g>
                                <path d="M14.6782184,2.51406529 C13.7507632,4.79746479 12.761385,5.95268741 13.2251374,8.8217464 C13.6888567,11.6907811 13.2421459,11.4497971 12.9603702,13.0063603 C12.6785614,14.5628749 12.320537,15.8471111 13.1061271,18.8348169 C13.8917173,21.8225713 14.3787882,23.9112365 16.9088738,23.9015981 C19.438976,23.891984 22.6984258,23.3615814 23.772085,21.5208436 C24.2055466,20.7776924 24.3806007,20.3686558 24.6862745,19.2040133 C24.9012415,18.3849931 25.0672033,17.8223735 25.0672033,16.6498892 C25.6163298,17.9435938 26.7713883,17.2531503 26.8571267,17.185633 C27.5365086,16.6506175 28.1465313,15.4242359 28.2052084,14.2670225 C28.3228275,11.9478614 27.5315071,6.57682761 24.7833574,5.6891977 C22.0352078,4.80159206 15.6057066,0.230641509 14.6782184,2.51406529 Z" id="face" fill="url(#linearGradient-7)" fill-rule="evenodd"></path>
                                <g id="shirt" stroke-width="1" fill="none" fill-rule="evenodd" transform="translate(3.011164, 27.312810)">
                                    <mask id="mask-12" fill="white">
                                        <use xlink:href="#path-11"></use>
                                    </mask>
                                    <g id="Path-26">
                                        <use fill="url(#linearGradient-8)" xlink:href="#path-11"></use>
                                        <use fill="url(#linearGradient-9)" xlink:href="#path-11"></use>
                                        <use fill="url(#linearGradient-10)" xlink:href="#path-11"></use>
                                    </g>
                                    <path d="M32.5812562,54.4652606 C27.0630665,42.7662412 29.5227562,25.8307547 32.2932126,23.1737574 C35.0636691,20.5167601 41.2330392,48.6143152 39.2127976,51.1009431 C37.192556,53.587571 38.0994459,66.1642801 32.5812562,54.4652606 Z" id="Path-10" fill="url(#linearGradient-13)" style="mix-blend-mode: multiply;" mask="url(#mask-12)"></path>
                                    <path d="M13.2523753,7.64286723 C14.5246377,6.3833958 16.6511478,4.75777088 16.6511478,4.75777088 C16.6511478,4.75777088 16.6511478,3.80239302 16.6511478,1.89163729 L14.1457592,3.96168012 C12.701995,7.25545248 12.4042003,8.48251485 13.2523753,7.64286723 Z" id="Path-14" fill="url(#linearGradient-13)" style="mix-blend-mode: multiply;" mask="url(#mask-12)"></path>
                                    <path d="M18.5050544,6.44442138 C18.9652416,6.74299851 19.8810051,6.91607671 21.252345,6.96365597 C20.0937799,3.1255952 19.1780163,1.35930115 18.5050544,1.66477383 C17.4956116,2.12298285 17.8147736,5.99655568 18.5050544,6.44442138 Z" id="Path-15" fill="url(#linearGradient-13)" style="mix-blend-mode: multiply;" mask="url(#mask-12)"></path>
                                </g>
                                <path d="M24.6256459,35.5340436 C23.2487519,34.8443406 22.9791564,30.4418797 21.7483339,29.8183222 C20.5175115,29.1947646 25.5698447,28.3161662 26.2002108,23.9467842 C26.8332057,23.9467842 27.9565477,26.7819995 29.0517954,28.3888425 C28.9234747,30.8417392 25.2376831,32.6843707 24.6256459,35.5340436 Z" id="colar" fill="#FFFFFF" fill-rule="evenodd"></path>
                                <path d="M16.2445553,24.6443093 C16.2445553,25.7502885 15.6625409,28.8506308 17.8862977,29.5513834 C17.0378405,29.6912174 16.3468641,30.1888523 15.9892642,30.9427344 C15.5113608,31.9502403 14.9474947,33.972942 14.2666404,34.7165636 C14.2666404,32.9938809 13.8742119,29.590025 14.2666404,28.2850811 C14.6590824,26.9801479 15.9233739,25.3466339 16.2445553,24.6443093 Z" id="colar" fill="#FFFFFF" fill-rule="evenodd"></path>
                                <g id="sleeve" fill="none">
                                    <use fill="url(#linearGradient-14)" fill-rule="evenodd" xlink:href="#path-16"></use>
                                    <use fill="url(#linearGradient-15)" fill-rule="evenodd" xlink:href="#path-16"></use>
                                    <use fill="black" fill-opacity="1" filter="url(#filter-17)" xlink:href="#path-16"></use>
                                </g>
                                <path d="M3.34822798e-14,70.7517482 C3.34822798e-14,66.4178729 1.72168179,47.6386804 3.330797,39.9232578 C3.56232878,38.8131039 3.95651387,38.5664284 4.16822179,37.9344588 C5.81840996,44.0216106 6.32599044,70.5773726 5.85394755,72.1700108 C5.38187717,73.7626489 2.62105403,72.1700108 3.34822798e-14,70.7517482 Z" id="sleeve" fill="url(#linearGradient-18)" fill-rule="evenodd"></path>
                                <path d="M14.8865578,6.56754126 C13.8497974,6.89474873 13.2880135,9.77076338 13.4640672,11.9432243 C12.8843338,10.7158959 12.2924639,5.73334734 14.2573886,3.04956632 C16.2223359,0.365773156 15.9233273,6.24033379 14.8865578,6.56754126 Z" id="hair" fill="#3A4860" fill-rule="evenodd"></path>
                                <path d="M15.670412,0.910305621 C12.247319,3.23800953 13.8034781,6.29933553 17.3120777,6.81562352 C20.8206607,7.33189633 21.1994035,7.46890042 23.3552511,6.81562352 C23.8371548,8.46528691 22.3388612,10.0378675 23.3552511,11.2462773 C24.1696746,12.2106015 24.4185097,12.5702961 24.4670346,13.6620195 C24.515543,14.7537277 24.9069883,14.9741269 24.9069883,14.9741269 C24.9069883,14.9741269 24.9533934,11.936821 25.8909179,11.8438967 C26.8284589,11.7509725 27.5521426,12.3755406 28.0720381,13.6620195 C28.2217201,14.0323508 28.0233973,13.2727057 28.0720381,12.562952 C28.1194203,11.8714827 28.4156873,11.2472636 28.4156873,10.2747302 C28.4156873,8.51661982 27.5013322,6.48859813 26.5284988,5.26087214 C24.2747402,2.41665263 18.0923683,0.277270546 15.670412,0.910305621 Z" id="hair" fill="url(#linearGradient-19)" fill-rule="evenodd"></path>
                            </g>
                        </g>
                    </g>
                    <g id="bubbles">
                        <g id="Oval">
                            <use fill="black" fill-opacity="1" filter="url(#filter-21)" xlink:href="#path-20"></use>
                            <use fill="#FFFFFF" fill-rule="evenodd" xlink:href="#path-20"></use>
                        </g>
                        <g id="Oval">
                            <use fill="black" fill-opacity="1" filter="url(#filter-23)" xlink:href="#path-22"></use>
                            <use fill="#FFFFFF" fill-rule="evenodd" xlink:href="#path-22"></use>
                        </g>
                        <g id="Oval">
                            <use fill="black" fill-opacity="1" filter="url(#filter-25)" xlink:href="#path-24"></use>
                            <use fill="#FFFFFF" fill-rule="evenodd" xlink:href="#path-24"></use>
                        </g>
                        <g id="chart" transform="translate(3.894737, 21.106961)">
                            <g id="Group" transform="translate(0.146076, 0.399064)">
                                <path d="M0.104834515,8.82569292 C0.104834515,8.82569292 0.679311706,7.55269606 1.82823799,5.00671073 L4.61392128,5.5618608 L6.75664758,2.61932892 L10.3069751,1.18773693 L13.4084607,3.25932923" id="Path" stroke="#E3ECF3" stroke-width="1.26"></path>
                                <path d="M4.7327449,6.34279801 C5.21499587,6.34279801 5.60593118,5.95007651 5.60593118,5.46562336 C5.60593118,4.98119127 5.21499587,4.58846977 4.7327449,4.58846977 C4.25049388,4.58846977 3.85955857,4.98119127 3.85955857,5.46562336 C3.85955857,5.95007651 4.25049388,6.34279801 4.7327449,6.34279801 Z" id="Path" fill="#F46885"></path>
                                <path d="M1.51644605,5.68730148 C1.99869705,5.68730148 2.38963234,5.29458015 2.38963234,4.81015035 C2.38963234,4.32570684 1.99869705,3.93297409 1.51644605,3.93297409 C1.03419505,3.93297409 0.643259762,4.32570684 0.643259762,4.81015035 C0.643259762,5.29458015 1.03419505,5.68730148 1.51644605,5.68730148 Z" id="Path" fill="#F46885"></path>
                                <path d="M6.66252414,3.72081531 C7.14477288,3.72081531 7.53572407,3.3280938 7.53572407,2.84364065 C7.53572407,2.35920855 7.14477288,1.96648705 6.66252414,1.96648705 C6.18028677,1.96648705 5.78933786,2.35920855 5.78933786,2.84364065 C5.78933786,3.3280938 6.18028677,3.72081531 6.66252414,3.72081531 Z" id="Path" fill="#F46885"></path>
                                <path d="M10.5220827,1.75432827 C11.0043337,1.75432827 11.395269,1.36159623 11.395269,0.877153605 C11.395269,0.392721505 11.0043337,0 10.5220827,0 C10.0398317,0 9.64889643,0.392721505 9.64889643,0.877153605 C9.64889643,1.36159623 10.0398317,1.75432827 10.5220827,1.75432827 Z" id="Path" fill="#F46885"></path>
                            </g>
                        </g>
                        <g id="Group" transform="translate(33.042445, 7.035654)" fill="#F46885">
                            <path d="M1.7508053,6.03056027 L0.25937277,6.03056027 C0.116131225,6.03056027 0,5.92467786 0,5.79406309 L0,0.236497184 C0,0.10588861 0.116131225,0 0.25937277,0 L1.7508053,0 C1.89405553,0 2.01018676,0.10588861 2.01018676,0.236497184 L2.01018676,5.79406309 C2.01018676,5.92284032 1.89730529,6.02757426 1.7508053,6.03056027 Z" id="Path"></path>
                            <path d="M4.76608542,6.03056027 L3.2746529,6.03056027 C3.13141134,6.03056027 3.01528014,5.959972 3.01528014,5.87289549 L3.01528014,2.16785155 C3.01528014,2.08077916 3.13141134,2.01018676 3.2746529,2.01018676 L4.76608542,2.01018676 C4.90933566,2.01018676 5.02546689,2.08077916 5.02546689,2.16785155 L5.02546689,5.87289549 C5.02546689,5.95874698 4.91258544,6.0285696 4.76608542,6.03056027 Z" id="-copy-9"></path>
                            <path d="M7.78136556,6.03056027 L6.28993304,6.03056027 C6.1466915,6.03056027 6.03056027,5.97761907 6.03056027,5.91231168 L6.03056027,3.13352872 C6.03056027,3.06822444 6.1466915,3.01528014 6.28993304,3.01528014 L7.78136556,3.01528014 C7.9246158,3.01528014 8.04074703,3.06822444 8.04074703,3.13352872 L8.04074703,5.91231168 C8.04074703,5.9767003 7.92786555,6.02906726 7.78136556,6.03056027 Z" id="-copy-10"></path>
                        </g>
                        <g id="Path-17" transform="translate(63.195246, 26.132428) rotate(54.000000) translate(-63.195246, -26.132428) translate(58.169779, 21.106961)">
                            <mask id="mask-28" fill="white">
                                <use xlink:href="#path-27"></use>
                            </mask>
                            <use id="Mask" fill="#F46885" xlink:href="#path-27"></use>
                            <polygon fill="#FFFFFF" mask="url(#mask-28)" transform="translate(9.030001, 6.098479) rotate(-300.000000) translate(-9.030001, -6.098479) " points="6.09847855 4.00453401 6.09847855 9.0300009 11.1239454 9.0300009 11.9615233 8.19242309 10.2863676 4.84211182 6.93605636 3.16695619"></polygon>
                        </g>
                    </g>
                </g>
            </g>
        </g>
    </g>
</svg>