<?xml version="1.0" encoding="UTF-8"?>
<svg width="75px" height="82px" viewBox="0 0 75 82" version="1.1" xmlns="http://www.w3.org/2000/svg" xmlns:xlink="http://www.w3.org/1999/xlink">
    <!-- Generator: Sketch 52.5 (67469) - http://www.bohemiancoding.com/sketch -->
    <title>feed</title>
    <desc>Created with Sketch.</desc>
    <defs>
        <linearGradient x1="60.881%" y1="74.0327464%" x2="0%" y2="-78.9453105%" id="linearGradient-1">
            <stop stop-color="#15DABA" offset="0%"></stop>
            <stop stop-color="#13DEB4" offset="20.5%"></stop>
            <stop stop-color="#0DE8A2" offset="49.01%"></stop>
            <stop stop-color="#04F884" offset="82.08%"></stop>
            <stop stop-color="#00FF78" offset="100%"></stop>
        </linearGradient>
        <path d="M0.371720952,21.4458892 C2.11411227,17.5263903 0.632911901,15.2208762 4.66405153,9.60765675 C5.31468697,8.70166995 8.4057288,6.9835939 10.391425,4.80626357 C12.3292688,2.68140363 13.1640056,0.0849542021 13.6840562,0.116706679 C14.8009815,0.18490226 17.7330265,2.36276894 18.7831922,2.99868966 C19.6177422,3.50404581 22.0499668,5.68333488 26.164461,7.59931339 C30.2789553,9.51529191 32.8502278,14.18919 36.4674571,21.4458892 C33.0392178,20.7502067 31.0095022,21.546047 30.3783106,23.8334098 C30.3914708,18.9583617 29.9071287,17.5539606 28.9252844,19.6202065 C27.9434402,21.6864525 28.4277822,30.3289955 30.3783106,45.5478355 L3.60097787,45.5478355 L7.60918738,23.8334098 C1.62261555,24.8547286 -0.78987326,24.0588884 0.371720952,21.4458892 Z" id="path-2"></path>
        <linearGradient x1="151.692914%" y1="-16.0254632%" x2="26.7684537%" y2="56.9678237%" id="linearGradient-4">
            <stop stop-color="#A7CCFF" offset="0%"></stop>
            <stop stop-color="#6E9DFF" offset="100%"></stop>
        </linearGradient>
        <linearGradient x1="15.8312213%" y1="-26.1086492%" x2="70.9219471%" y2="63.9205475%" id="linearGradient-5">
            <stop stop-color="#E1EAF7" offset="0%"></stop>
            <stop stop-color="#E8EFFA" offset="100%"></stop>
        </linearGradient>
        <linearGradient x1="50%" y1="0%" x2="50%" y2="98.9545701%" id="linearGradient-6">
            <stop stop-color="#C3CEE1" offset="0%"></stop>
            <stop stop-color="#9AB0D8" offset="100%"></stop>
        </linearGradient>
        <linearGradient x1="100%" y1="-21.7956195%" x2="51.4654082%" y2="47.8958022%" id="linearGradient-7">
            <stop stop-color="#3A4860" offset="0%"></stop>
            <stop stop-color="#192C4B" offset="100%"></stop>
        </linearGradient>
        <linearGradient x1="65.3664106%" y1="60.1203068%" x2="9.99258674%" y2="46.977843%" id="linearGradient-8">
            <stop stop-color="#929FAA" offset="0%"></stop>
            <stop stop-color="#D4DBE0" offset="100%"></stop>
        </linearGradient>
        <linearGradient x1="65.3664106%" y1="60.1203068%" x2="9.99258674%" y2="46.977843%" id="linearGradient-9">
            <stop stop-color="#B8C6D1" offset="0%"></stop>
            <stop stop-color="#E3E7EB" offset="100%"></stop>
        </linearGradient>
        <linearGradient x1="65.3664106%" y1="60.1203068%" x2="9.99258674%" y2="46.977843%" id="linearGradient-10">
            <stop stop-color="#F8F9FA" offset="0%"></stop>
            <stop stop-color="#EFF1F3" offset="100%"></stop>
        </linearGradient>
        <linearGradient x1="93.4998803%" y1="48.3056977%" x2="0%" y2="55.7787887%" id="linearGradient-11">
            <stop stop-color="#F1F3F7" offset="0%"></stop>
            <stop stop-color="#D6DCE2" offset="100%"></stop>
        </linearGradient>
        <linearGradient x1="100%" y1="100%" x2="0%" y2="100%" id="linearGradient-12">
            <stop stop-color="#D9DFE6" offset="0%"></stop>
            <stop stop-color="#C1CAD5" offset="100%"></stop>
        </linearGradient>
    </defs>
    <g id="Illustrations" stroke="none" stroke-width="1" fill="none" fill-rule="evenodd">
        <g transform="translate(-685.000000, -10362.000000)" id="Boost">
            <g transform="translate(683.000000, 38.000000)">
                <g id="feed" transform="translate(2.000000, 10324.000000)">
                    <g id="shirt" transform="translate(19.946809, 22.509804)">
                        <g id="Mask" fill="#E3ECF7">
                            <path d="M0.371720952,21.4458892 C2.11411227,17.5263903 0.632911901,15.2208762 4.66405153,9.60765675 C5.31468697,8.70166995 8.4057288,6.9835939 10.391425,4.80626357 C12.3292688,2.68140363 13.1640056,0.0849542021 13.6840562,0.116706679 C14.8009815,0.18490226 17.7330265,2.36276894 18.7831922,2.99868966 C19.6177422,3.50404581 22.0499668,5.68333488 26.164461,7.59931339 C30.2789553,9.51529191 32.8502278,14.18919 36.4674571,21.4458892 C33.0392178,20.7502067 31.0095022,21.546047 30.3783106,23.8334098 C30.3914708,18.9583617 29.9071287,17.5539606 28.9252844,19.6202065 C27.9434402,21.6864525 28.4277822,30.3289955 30.3783106,45.5478355 L3.60097787,45.5478355 L7.60918738,23.8334098 C1.62261555,24.8547286 -0.78987326,24.0588884 0.371720952,21.4458892 Z" id="path-3"></path>
                        </g>
                        <g id="Path-6-Clipped">
                            <mask id="mask-3" fill="white">
                                <use xlink:href="#path-2"></use>
                            </mask>
                            <g id="path-3"></g>
                            <path d="M6.8863224,6.79870076 C14.968532,6.62964469 19.1934678,4.8385546 19.5611299,1.42543057 C19.9287921,-1.98769349 17.8172593,-3.07509993 13.2265316,-1.83678881 L6.8863224,6.79870076 Z" id="Path-6" fill="url(#linearGradient-4)" opacity="0.184839221" style="mix-blend-mode: multiply;" mask="url(#mask-3)" transform="translate(13.244173, 2.233707) rotate(10.000000) translate(-13.244173, -2.233707) "></path>
                        </g>
                    </g>
                    <path d="M46.9964569,40.2031906 C50.6642397,48.4479243 53.7302991,54.4339773 56.0718083,54.6367583 C59.1290767,55.2969097 65.2644392,50.9742851 71.6494774,47.3522176 L72.1195349,42.0329693 C68.8813487,46.1857041 62.2894315,46.8995034 59.1935769,48.3099292 C58.105093,47.7997772 55.770034,45.0996126 52.5405744,33.8068569 L46.9964569,40.2031906 Z" id="arm" fill="url(#linearGradient-5)" transform="translate(59.557996, 44.255482) rotate(-12.000000) translate(-59.557996, -44.255482) "></path>
                    <g id="head" transform="translate(27.127660, 0.000000)">
                        <path d="M9.27795456,3.11475306 C13.3446684,3.10487131 16.3225928,6.54257362 15.9293347,10.793076 L15.1681708,19.020065 C14.7749127,23.2705675 12.1129416,26.7219742 9.22249193,26.7289977 C6.33204221,26.7360212 3.68625343,23.2975119 3.31295729,19.0488721 L2.59043017,10.8254884 C2.21713403,6.57684862 5.21124066,3.12463481 9.27795456,3.11475306 Z" id="Rectangle-21" fill="url(#linearGradient-6)" transform="translate(9.261599, 14.921870) rotate(-4.000000) translate(-9.261599, -14.921870) "></path>
                        <path d="M14.7644918,9.08214386 C13.5312422,9.85436816 12.1640158,10.4759356 10.8683449,10.334999 C6.82459615,9.89514009 8.46835282,10.3375905 7.66653322,11.3108225 L5.72238783,17.7010965 C5.68659052,20.8732546 6.94912943,24.695929 8.77969338,26.5785896 C6.3631297,25.9348783 4.18559382,23.0459162 3.61533298,19.454056 L2.32093166,11.301105 C1.65217471,7.08885447 4.39817361,3.43619178 8.45429187,3.1426545 C12.5104101,2.84911719 12.1560869,4.10342466 14.4646374,4.85581834 L14.7644918,9.08214386 Z" id="Combined-Shape" fill="#6380B1" opacity="0.275079257" style="mix-blend-mode: multiply;"></path>
                        <path d="M3.61441905,20.0572312 C2.72346512,19.0738865 2.07805984,17.9229788 1.6782032,16.6045081 C0.443841109,12.5343736 -0.0329157932,7.78250038 0.154992368,5.73684573 C0.59235844,0.975477587 6.08513308,-1.43902707 11.149768,0.975477587 C16.2144029,3.38998225 17.2186129,7.9860692 15.993635,8.75673215 C14.768657,9.52739507 6.79562532,9.84193714 5.2050222,7.9860692 C3.49521277,8.49984449 2.96501171,12.5235652 3.61441905,20.0572312 Z" id="Path-43" fill="url(#linearGradient-7)"></path>
                        <path d="M3.81484624,15.3444015 C4.86680516,15.3482193 5.59049188,14.7123179 5.58637861,13.5402622 C5.58226534,12.3682065 4.72614966,11.4149726 3.67419075,11.4111548 C2.62223184,11.4073369 2.02319115,11.4146716 2.02730442,12.5867273 C2.03141769,13.758783 2.76288732,15.3405836 3.81484624,15.3444015 Z" id="Oval-10" fill="#B1C1DD" transform="translate(3.806840, 13.377614) rotate(6.000000) translate(-3.806840, -13.377614) "></path>
                    </g>
                    <g id="paper" transform="translate(0.797872, 22.509804)">
                        <path d="M3.75341502,0 C8.98643851,5.28850351 13.5742096,8.48227448 17.5167283,9.58131294 C21.4592471,10.6803514 28.4396935,12.4078498 38.4580677,14.7638081 L38.4580677,58.5763568 C29.284998,57.2873582 22.3045516,55.8712469 17.5167283,54.328023 C12.7289051,52.7847988 9.87347935,50.2422652 8.9504512,46.7004222 L3.75341502,0 Z" id="Rectangle-22-Copy-3" fill="url(#linearGradient-8)"></path>
                        <path d="M1.73234539,1.15514944 C8.31274864,6.25112804 13.5742096,9.34863656 17.5167283,10.447675 C21.4592471,11.5467135 28.4396935,12.9854245 38.4580677,14.7638081 L38.4580677,58.5763568 C29.284998,57.2873582 22.3045516,55.8712469 17.5167283,54.328023 C12.7289051,52.7847988 9.19978949,50.6273152 6.92938157,47.8555717 L1.73234539,1.15514944 Z" id="Rectangle-22-Copy-2" fill="url(#linearGradient-9)"></path>
                        <path d="M0,3.75423567 C7.73530018,7.69506483 13.5742096,10.2149986 17.5167283,11.3140371 C21.4592471,12.4130756 28.4396935,13.4667368 38.4580677,14.4750207 L38.4580677,59.4427189 C29.284998,58.1537202 22.3045516,56.737609 17.5167283,55.1943851 C12.7289051,53.6511608 8.62234102,51.4936773 5.19703618,48.7219337 L0,3.75423567 Z" id="Rectangle-22" fill="url(#linearGradient-10)"></path>
                        <path d="M74.2021277,5.13756279 L70.3909678,50.1052607 C63.2987931,50.9573821 57.9214986,51.9141057 54.2590843,52.9754313 C50.5966702,54.0367572 45.2334233,56.1925196 38.1693435,59.4427189 L38.1693435,14.4750207 C44.3997488,10.8435587 49.7629957,8.44527424 54.2590843,7.28016753 C58.7551731,6.11506085 65.4028542,5.40085924 74.2021277,5.13756279 Z M46.3095323,25.7054335 L46.5639618,27.6373487 L46.2508292,29.0123275 L45.9381486,30.3618618 L47.3917039,31.7569664 L46.0569549,34.2519953 L46.33919,35.6375376 L45.704996,36.7661798 L46.6648161,38.3092613 L46.0480809,40.1737782 L46.020808,41.9700038 L48.2296821,41.1808632 L49.4153455,41.0731267 L50.4762633,40.4295347 L51.7696762,39.43703 L53.4135464,39.4939904 L54.3549462,39.6969917 L56.0081199,38.7257022 L57.3412556,39.1790975 L58.7655504,38.3978466 L59.6575313,38.0030038 L61.4755868,38.7505951 L63.0265054,37.9844021 L65.0483234,37.6508313 L65.5128007,36.3464548 L64.8005677,34.7902222 L65.5848417,32.9956825 L65.0813751,31.6058301 L65.4675787,29.7745445 L66.1090584,28.5716313 L65.6232952,26.8492011 L65.1373402,25.1303712 L65.8031522,23.4703379 L65.9954315,19.8581086 L62.3600585,20.3292612 L60.1755525,21.1899529 L58.3850988,20.8444251 C57.2618766,21.0462914 56.4695503,21.1988315 56.0081199,21.3020454 C55.7278955,21.3647266 54.8409124,22.0785255 53.3471701,23.4434419 L50.948466,23.3175666 L49.5821805,23.3974392 L48.2301111,24.6256205 L46.3095323,25.7054335 Z" id="Combined-Shape" fill="url(#linearGradient-11)" fill-rule="nonzero"></path>
                        <path d="M44.752256,17.5347999 C47.3066403,16.1747049 50.510005,14.9459344 54.3623508,13.8484882 C58.2146963,12.7510421 62.1632834,12.1349082 66.2081119,12.0000866 L66.2081119,15.9234297 C62.2418779,15.949095 58.535816,16.3912441 55.0899261,17.2498768 C51.6440358,18.1085095 48.1981459,19.544717 44.752256,21.5584992 L44.752256,17.5347999 Z" id="Path-3" fill="url(#linearGradient-12)"></path>
                        <path d="M45.6184287,46.7023233 C47.215911,45.5285736 49.940825,44.3929757 53.7931708,43.2955294 C57.6455163,42.1980835 61.4102046,41.6172856 65.0872353,41.5531364 L64.7985111,44.8989046 C61.754799,44.927349 58.5099977,45.3708877 55.0641078,46.2295203 C51.6182178,47.088153 48.4696581,48.4907248 45.6184287,50.4372351 L45.6184287,46.7023233 Z" id="Path-3-Copy" fill="url(#linearGradient-12)"></path>
                        <path d="M7.12505308,17.1370065 C9.47781023,18.4553523 10.965908,19.5159749 15.0916374,20.746341 C21.1189561,22.5437949 27.1244684,23.2964707 32.9807799,22.706294 L32.6867114,19.8778387 C27.3739081,20.4132427 21.7593612,19.6824663 16.1648348,18.0140787 C12.3006035,16.861696 8.4875644,15.3667967 6.3530751,14.1707552 L7.12505308,17.1370065 Z" id="Path-4" fill="#D1D9E0" opacity="0.600000024" transform="translate(19.666928, 18.537434) rotate(4.000000) translate(-19.666928, -18.537434) "></path>
                        <path d="M7.78805036,23.2065524 C10.1407956,24.5248816 11.6283566,25.5754274 15.7540735,26.8057632 C21.7813737,28.6031728 27.2108338,29.3960887 33.0671453,28.8058671 L32.7720433,25.9572793 C27.4592402,26.4927241 22.4218,25.741837 16.8272907,24.0734906 C12.9630713,22.9211363 9.43806736,21.4061221 7.30358886,20.2100959 L7.78805036,23.2065524 Z" id="Path-4-Copy" fill="#D1D9E0" opacity="0.600000024" transform="translate(20.185367, 24.604355) rotate(2.000000) translate(-20.185367, -24.604355) "></path>
                        <path d="M8.4893344,28.9924222 C10.7892143,30.3107425 12.8847246,31.6450341 16.9177419,32.875354 C22.8096165,34.6727404 27.4337815,34.883018 33.1585178,34.2927736 L32.8568267,31.4341093 C27.6633876,31.9695748 23.4356643,31.8114014 17.9668564,30.1430766 C14.189461,28.9907372 10.0956711,27.1869466 8.00915358,25.9909284 L8.4893344,28.9924222 Z" id="Path-4-Copy-2" fill="#D1D9E0" opacity="0.600000024" transform="translate(20.583836, 30.289323) rotate(1.000000) translate(-20.583836, -30.289323) "></path>
                        <path d="M9.02323344,32.7106188 L10.3958502,46.1661335 C13.7572372,48.1842278 17.4799216,49.4007899 21.5639036,49.8158195 C20.8682054,45.0710308 20.8682054,42.7008435 20.8682054,37.0424511 C16.1993012,36.325922 12.2509772,34.8819777 9.02323344,32.7106188 Z" id="Path-5" fill="#F46885" opacity="0.600000024"></path>
                    </g>
                    <g id="fingers" transform="translate(71.808511, 37.784314)" fill="#A5B2CA">
                        <path d="M0.864001509,0.518384634 L2.29043806,0.562748346 C2.66401936,0.574367127 2.9638121,0.875137122 2.97421501,1.24875426 L2.97421501,1.24875426 C2.98386023,1.59515927 2.71086248,1.88379501 2.36445747,1.89344023 C2.35213635,1.8937833 2.3398078,1.89376324 2.32748786,1.89338007 L0.901051309,1.84901636 C0.52747,1.83739758 0.227677266,1.53662759 0.217274358,1.16301044 L0.217274358,1.16301044 C0.207629137,0.816605434 0.480626884,0.527969695 0.827031892,0.518324475 C0.839353014,0.517981409 0.851681569,0.51800147 0.864001509,0.518384634 Z" id="Rectangle-23" transform="translate(1.595745, 1.205882) rotate(14.000000) translate(-1.595745, -1.205882) "></path>
                        <path d="M0.864001488,2.12622777 L2.29043804,2.17059148 C2.66401934,2.18221026 2.96381208,2.48298026 2.97421499,2.8565974 L2.97421499,2.8565974 C2.98386021,3.20300241 2.71086246,3.49163814 2.36445745,3.50128337 C2.35213633,3.50162643 2.33980778,3.50160637 2.32748784,3.50122321 L0.901051288,3.45685949 C0.527469979,3.44524071 0.227677245,3.14447072 0.217274336,2.77085358 L0.217274336,2.77085358 C0.207629116,2.42444857 0.480626863,2.13581283 0.827031871,2.12616761 C0.839352992,2.12582454 0.851681548,2.1258446 0.864001488,2.12622777 Z" id="Rectangle-23-Copy" transform="translate(1.595745, 2.813725) rotate(14.000000) translate(-1.595745, -2.813725) "></path>
                        <path d="M0.864001533,3.7340709 L2.29043808,3.77843461 C2.66401939,3.79005339 2.96381212,4.09082339 2.97421503,4.46444053 L2.97421503,4.46444053 C2.98386025,4.81084554 2.71086251,5.09948128 2.3644575,5.1091265 C2.35213638,5.10946956 2.33980782,5.1094495 2.32748788,5.10906634 L0.901051333,5.06470262 C0.527470025,5.05308384 0.227677291,4.75231385 0.217274382,4.37869671 L0.217274382,4.37869671 C0.207629162,4.0322917 0.480626909,3.74365596 0.827031916,3.73401074 C0.839353038,3.73366767 0.851681593,3.73368773 0.864001533,3.7340709 Z" id="Rectangle-23-Copy-2" transform="translate(1.595745, 4.421569) rotate(14.000000) translate(-1.595745, -4.421569) "></path>
                        <path d="M0.864001508,5.34191405 L2.29043806,5.38627776 C2.66401936,5.39789654 2.9638121,5.69866654 2.97421501,6.07228368 L2.97421501,6.07228368 C2.98386023,6.41868869 2.71086248,6.70732443 2.36445747,6.71696965 C2.35213635,6.71731272 2.33980779,6.71729265 2.32748786,6.71690949 L0.901051308,6.67254578 C0.527469999,6.660927 0.227677265,6.360157 0.217274356,5.98653986 L0.217274356,5.98653986 C0.207629136,5.64013485 0.480626883,5.35149911 0.82703189,5.34185389 C0.839353012,5.34151083 0.851681568,5.34153089 0.864001508,5.34191405 Z" id="Rectangle-23-Copy-3" transform="translate(1.595745, 6.029412) rotate(14.000000) translate(-1.595745, -6.029412) "></path>
                    </g>
                    <g id="fingers" transform="translate(3.090081, 48.813751) rotate(170.000000) translate(-3.090081, -48.813751) translate(1.095400, 45.196104)" fill="#A5B2CA">
                        <path d="M0.868028211,0.579791313 L2.59510819,0.582115028 C2.91599749,0.582546771 3.17602142,0.84257247 3.17645099,1.16346177 L3.17645099,1.16346177 C3.17687908,1.48323983 2.91799477,1.74281819 2.59821672,1.74324627 C2.59769867,1.74324696 2.59718062,1.74324696 2.59666257,1.74324626 L0.869582598,1.74092255 C0.548693299,1.74049081 0.288669361,1.48046511 0.288239792,1.1595758 L0.288239792,1.1595758 C0.28781171,0.83979775 0.546696013,0.580219389 0.866474067,0.579791308 C0.866992115,0.579790614 0.867510163,0.579790616 0.868028211,0.579791313 Z" id="Rectangle-23" transform="translate(1.732345, 1.161519) rotate(14.000000) translate(-1.732345, -1.161519) "></path>
                        <path d="M0.868028211,2.0316898 L2.59510819,2.03401351 C2.91599749,2.03444526 3.17602142,2.29447096 3.17645099,2.61536026 L3.17645099,2.61536026 C3.17687908,2.93513831 2.91799477,3.19471667 2.59821672,3.19514475 C2.59769867,3.19514545 2.59718062,3.19514545 2.59666257,3.19514475 L0.869582598,3.19282103 C0.548693299,3.19238929 0.288669361,2.93236359 0.288239792,2.61147429 L0.288239792,2.61147429 C0.28781171,2.29169624 0.546696013,2.03211787 0.866474067,2.03168979 C0.866992115,2.0316891 0.867510163,2.0316891 0.868028211,2.0316898 Z" id="Rectangle-23-Copy" transform="translate(1.732345, 2.613417) rotate(14.000000) translate(-1.732345, -2.613417) "></path>
                        <path d="M0.868028211,3.48358828 L2.59510819,3.485912 C2.91599749,3.48634374 3.17602142,3.74636944 3.17645099,4.06725874 L3.17645099,4.06725874 C3.17687908,4.3870368 2.91799477,4.64661516 2.59821672,4.64704324 C2.59769867,4.64704393 2.59718062,4.64704393 2.59666257,4.64704323 L0.869582598,4.64471952 C0.548693299,4.64428778 0.288669361,4.38426208 0.288239792,4.06337277 L0.288239792,4.06337277 C0.28781171,3.74359472 0.546696013,3.48401636 0.866474067,3.48358828 C0.866992115,3.48358758 0.867510163,3.48358759 0.868028211,3.48358828 Z" id="Rectangle-23-Copy-2" transform="translate(1.732345, 4.065316) rotate(14.000000) translate(-1.732345, -4.065316) "></path>
                        <path d="M0.918164633,4.93989829 L2.64524461,4.942222 C2.96613391,4.94265374 3.22615785,5.20267944 3.22658742,5.52356875 L3.22658742,5.52356875 C3.2270155,5.8433468 2.96813119,6.10292516 2.64835314,6.10335324 C2.64783509,6.10335393 2.64731704,6.10335393 2.646799,6.10335324 L0.91971902,6.10102952 C0.59882972,6.10059778 0.338805783,5.84057208 0.338376214,5.51968278 L0.338376214,5.51968278 C0.337948132,5.19990472 0.596832435,4.94032636 0.916610489,4.93989828 C0.917128537,4.93989759 0.917646585,4.93989759 0.918164633,4.93989829 Z" id="Rectangle-23-Copy-3" transform="translate(1.782482, 5.521626) rotate(14.000000) translate(-1.782482, -5.521626) "></path>
                    </g>
                </g>
            </g>
        </g>
    </g>
</svg>