<?xml version="1.0" encoding="UTF-8"?>
<svg width="497px" height="456px" viewBox="0 0 497 456" version="1.1" xmlns="http://www.w3.org/2000/svg" xmlns:xlink="http://www.w3.org/1999/xlink">
    <!-- Generator: Sketch 55.2 (78181) - https://sketchapp.com -->
    <title>history</title>
    <desc>Created with Sketch.</desc>
    <g id="Page-1" stroke="none" stroke-width="1" fill="none" fill-rule="evenodd">
        <g id="history" transform="translate(-35.000000, -38.000000)" fill-rule="nonzero">
            <path d="M281.293751,410.477006 C395.963123,317.50327 531.286627,327.792583 531.263596,225.726499 C531.240564,123.660415 419.287911,40.8942163 281.210346,40.8630022 C143.132781,40.8318233 31.2174688,123.547443 31.2404933,225.613527 C31.2635318,327.679611 166.624378,503.450742 281.293751,410.477006 Z" id="Oval" fill="#F0F5F8" transform="translate(281.252045, 238.808509) rotate(10.000000) translate(-281.252045, -238.808509) "></path>
            <g id="illustration" transform="translate(56.196825, 117.181034)">
                <g id="Rows" transform="translate(177.000000, 0.000000)">
                    <g id="Row" transform="translate(107.000000, 29.000000) scale(-1, 1) translate(-107.000000, -29.000000) ">
                        <rect id="Container" fill="#FFFFFF" x="0" y="0" width="213.606349" height="57.1551916" rx="4"></rect>
                        <g id="Text-Stuff" transform="translate(19.000000, 17.074776)" fill="#F46885">
                            <rect id="Label" x="0" y="0" width="155.674169" height="6.83445589" rx="3"></rect>
                            <rect id="Label" x="51.2699358" y="14.5317244" width="104.49362" height="6.83445589" rx="3"></rect>
                        </g>
                        <g id="Check" transform="translate(183.778190, 21.457960)" fill="#F46885">
                            <circle id="Background" cx="7" cy="7" r="7"></circle>
                        </g>
                    </g>
                    <g id="Row" transform="translate(107.000000, 90.000000) scale(-1, 1) translate(-107.000000, -90.000000) translate(0.000000, 66.000000)">
                        <rect id="Container" fill="#FFFFFF" x="0" y="0" width="214" height="47.5350318" rx="4"></rect>
                        <g id="Text-Stuff" transform="translate(19.000000, 14.203072)" fill="#E3ECF3">
                            <rect id="Label" x="0" y="0" width="156.065476" height="6.79304348" rx="3"></rect>
                            <rect id="Label" x="51.3988095" y="12.139378" width="104.756279" height="6.79304348" rx="3"></rect>
                        </g>
                        <g id="Check" transform="translate(184.129771, 16.671787)" fill="#E3ECF3">
                            <circle id="Background" cx="7" cy="7" r="7"></circle>
                        </g>
                    </g>
                    <g id="Row-Copy" transform="translate(107.000000, 146.000000) scale(-1, 1) translate(-107.000000, -146.000000) translate(0.000000, 122.000000)">
                        <rect id="Container" fill="#FFFFFF" x="0" y="0" width="213.606349" height="47.8276541" rx="4"></rect>
                        <g id="Text-Stuff" transform="translate(19.000000, 14.289658)" fill="#E3ECF3">
                            <rect id="Label" x="0" y="0" width="155.674169" height="6.83445589" rx="3"></rect>
                            <rect id="Label" x="51.2699358" y="12.2133833" width="104.49362" height="6.83445589" rx="3"></rect>
                        </g>
                        <g id="Check" transform="translate(183.778190, 16.816097)" fill="#E3ECF3">
                            <circle id="Background" cx="7" cy="7" r="7"></circle>
                        </g>
                    </g>
                </g>
                <g id="woman" transform="translate(0.360317, 38.232759)">
                    <g id="components/A-Human/Standing" transform="translate(0.904762, 0.099138)">
                        <g id="components/Head/Front/Wavy" transform="translate(49.000000, 0.000000)">
                            <g id="Head" transform="translate(38.000000, 8.000000)" fill="#C4CFE2">
                                <path d="M8.26227388,34.4901268 C3.65436435,29.0813759 0.535634794,22.4528771 1.05677633,15.0254539 C2.55833022,-6.37502057 32.3485306,-1.66718886 38.1433414,9.13393292 C43.9381521,19.9350547 43.249578,47.3329958 35.7603014,49.2634576 C32.7735882,50.033323 26.4110012,48.1474609 19.935372,44.244306 L24,73 L0,73 L8.26227388,34.4901268 Z" id="Path"></path>
                            </g>
                            <path d="M78.4090961,21.9836328 C78.1713645,20.583583 77.5903632,19.028843 77.1215639,17.7042644 C76.5171614,15.996708 75.602499,14.4571303 74.5959364,13.0061417 C72.7009022,10.2743581 70.427574,7.8074902 67.917599,5.760058 C63.3328188,2.0202318 57.4966155,-0.1369147 51.7574266,0.5636213 C48.8597041,0.9172965 46.046753,2.0226169 43.6525443,3.8623756 C41.4894034,5.5246153 39.4087091,7.9715506 36.6076911,8.147366 C33.5599529,8.3385142 30.7662186,5.6484698 28.321953,3.9870819 C25.5660327,2.1141023 22.6342158,0.7493178 19.4132155,0.2188049 C14.0172962,-0.6696423 8.9482191,1.1534208 5.2294392,5.5804946 C1.2721527,10.2915649 -1.6044931,17.2003282 0.9942826,23.442458 C1.4773396,24.6028059 2.0987894,25.5810349 2.9906704,26.3917962 C3.8086285,27.1352639 5.0578819,27.926263 5.3895284,29.1142098 C5.7417865,30.3769463 4.6895063,32.005965 4.2814572,33.1453581 C3.6968915,34.7777841 3.2169339,36.4913033 3.3875614,38.2656423 C3.6679112,41.1795448 5.4990957,43.961245 7.4327187,45.8764749 C9.4004362,47.8254368 11.8222304,48.9430234 14.408918,49.4582035 C16.1361143,49.802168 17.9012795,49.9919533 19.6566813,49.8628175 C20.5281056,49.7987608 21.2970916,49.5566738 22.1413953,49.3641627 C22.9624528,49.1769329 23.4213338,49.3949985 24.1179464,49.8452701 C27.3539792,51.9373376 30.8334778,52.746736 34.5700799,52.4356517 C37.723666,52.1729507 41.3584495,51.4086987 43.9310344,49.2479746 C46.7879984,46.84823 46.7311226,43.5390835 46.0588411,40.0035235 C46.7711061,40.3565173 48.7416132,40.575094 47.5641132,39.1680594 C47.0976384,38.6107994 46.2162957,38.3840451 45.6177822,38.0562652 C44.9208597,37.6746502 44.2132439,37.181447 43.6720712,36.5589377 C41.4869238,34.0453901 43.6939227,28.9300465 46.4403895,28.0870864 C50.5208811,26.8347421 51.4344587,32.6054753 54.3473686,34.0982029 C56.0221834,34.9564958 57.7741757,33.7833706 59.0290082,32.5855427 C60.709867,30.980886 61.8554422,28.8550865 62.8444926,26.6918069 C63.6591961,24.9103126 64.4173338,23.1037748 65.2476898,21.3311394 C65.6354372,20.5033417 66.9778306,18.1632245 66.3036894,17.2272457 C69.2263628,16.6444311 72.4816125,17.8589547 74.9987164,19.4516859 C76.0390635,20.110142 76.8322255,20.8360622 77.387191,21.9984544 C77.5060568,22.2475263 77.7648651,22.9879274 78.0898476,23.0182522 C78.69487,23.0748129 78.4687615,22.335434 78.4090961,21.9836328" id="hair" fill="#191847"></path>
                        </g>
                        <g id="components/Bottom/Sitting/Sweat-Pants" transform="translate(0.000000, 164.000000)">
                            <g id="components/Objects/Seat/Ball" transform="translate(0.000000, 27.000000)" fill="#C5CFD6">
                                <ellipse id="Ballsy-Ball" cx="77" cy="73.5" rx="77" ry="73.5"></ellipse>
                            </g>
                            <path d="M222.509253,162.659849 C209.696468,134.301545 200.430392,109.608281 196.711023,96.5800564 C190.34256,74.2725728 185.497817,54.6432898 184.273327,47.3127766 C181.353374,29.8322277 206.735275,28.8143004 210.090229,37.5018287 C215.168086,50.6507477 224.032873,93.8526085 234.684593,159.107411 L222.509253,162.659849 Z M73.888346,73.6635414 C85.644063,69.0168268 126.811956,54.4748802 146.66723,50.3612296 C152.37284,49.1791314 157.902884,48.0808288 163.102095,47.0882686 C178.555991,44.1380286 186.56256,72.0174283 171.678573,74.1595557 C134.611563,79.4942994 82.062816,85.0032894 77.565792,85.6215241 C71.26302,86.4880065 66.500245,76.5838567 73.888346,73.6635414 Z" id="Skin" fill="#C4CFE2"></path>
                            <path d="M172.587121,39.4162575 L109,7.04671741 L109,0 L116.562186,0 C178.079876,15.6757222 209.515366,25.7216696 210.868655,30.1378423 C210.883215,30.1853551 210.896564,30.2329302 210.908703,30.2805675 C210.939662,30.3212022 210.970097,30.3620825 211,30.4032083 C223.191506,47.1700257 230.49295,129.026966 232.889416,135.156136 L209.52773,138.641377 C200.591265,105.503295 172,82.4181007 172.759487,42.7290106 C172.554409,41.5647756 172.502591,40.4606967 172.587121,39.4162575 Z" id="Leg-Back" fill="#E3ECF3"></path>
                            <path d="M114.283174,58.6404762 C108.4651,57.4758245 103.107279,56.4363908 98.522705,55.6322592 C68.90929,50.4380832 60.273766,34.5862504 65.379549,-4.97379915e-14 L119.941763,-4.97379915e-14 C128.854593,2.56031807 175.174037,21.9848377 199.206622,32.316337 C215.112618,39.1542526 210.098531,63.8044803 201.090957,70.2194819 C201.042044,70.6130299 200.879937,70.8803556 200.591265,71 C152.136867,91.0826527 113.804991,80.5453361 101,83.9121674 L95.07712,65.2284164 L114.283174,58.6404762 Z" id="Leg-Front" fill="#F0F5F8"></path>
                            <g id="components/Accessories/Shoe/Flat-Sneaker" transform="translate(86.201565, 97.046949) rotate(64.000000) translate(-86.201565, -97.046949) translate(57.201565, 86.546949)" fill="#DCE4F2">
                                <path d="M1.67813181,6.4019242 C0.55937727,9.3884109 0,11.6229931 0,13.1056708 C0,14.908957 0.3004142,17.5404001 0.90124261,21 C2.99318117,21 21.7937852,21 57.3030548,21 C58.768738,16.1545073 57.9226607,13.5385816 54.7648228,13.1522232 C51.606985,12.7658647 48.9837155,12.4170139 46.8950143,12.1056708 L20.6799926,0.4188835 C20.1755635,0.1940064 19.584344,0.4206282 19.359467,0.9250573 C19.35562,0.9336867 19.3518954,0.9423702 19.3482945,0.9511052 L17.6632131,5.038695 C14.7398812,6.4026522 12.3643706,7.0846307 10.5366811,7.0846307 C9.0517269,7.0846307 7.00099246,6.4849054 4.38447792,5.2854549 L4.38448339,5.285443 C3.38038273,4.8251478 2.19325534,5.2659892 1.73296014,6.2700899 C1.71312074,6.3133681 1.69483298,6.3573409 1.67813181,6.4019242 Z" id="shoe"></path>
                            </g>
                            <g id="components/Accessories/Shoe/Flat-Sneaker" transform="translate(215.000000, 151.000000)" fill="#DCE4F2">
                                <path d="M1.67813181,6.4019242 C0.55937727,9.3884109 0,11.6229931 0,13.1056708 C0,14.908957 0.3004142,17.5404001 0.90124261,21 C2.99318117,21 21.7937852,21 57.3030548,21 C58.768738,16.1545073 57.9226607,13.5385816 54.7648228,13.1522232 C51.606985,12.7658647 48.9837155,12.4170139 46.8950143,12.1056708 L20.6799926,0.4188835 C20.1755635,0.1940064 19.584344,0.4206282 19.359467,0.9250573 C19.35562,0.9336867 19.3518954,0.9423702 19.3482945,0.9511052 L17.6632131,5.038695 C14.7398812,6.4026522 12.3643706,7.0846307 10.5366811,7.0846307 C9.0517269,7.0846307 7.00099246,6.4849054 4.38447792,5.2854549 L4.38448339,5.285443 C3.38038273,4.8251478 2.19325534,5.2659892 1.73296014,6.2700899 C1.71312074,6.3133681 1.69483298,6.3573409 1.67813181,6.4019242 Z" id="shoe"></path>
                            </g>
                        </g>
                        <g id="components/Body/Pointing-Forward" transform="translate(50.000000, 59.000000)">
                            <path d="M81.638039,42.7002327 L116.347821,23.6898218 C122.119845,16.8355222 127.806897,11.5121983 133.408976,7.71984988 C135.120791,7.00519513 138.114322,6.57263502 135.314801,11.541507 C132.515281,16.510379 129.794075,21.8627914 131.22032,23.3935933 C132.646565,24.9243953 136.203036,22.7859324 137.904525,25.3293729 C139.038851,27.0249998 132.962902,29.703613 119.676679,33.3652124 L94.455792,56.4576422 L81.638039,42.7002327 Z M136,58.7398397 L151.246523,50.3642065 C153.385826,42.2239107 155.943102,38.1282526 158.918351,38.0772323 C161.203961,37.0137608 157.223587,47.2997848 161.556381,46.4077826 C165.889175,45.5157805 176.464286,37.6506887 178.286431,39.2475996 C180.982176,41.6101262 178.578484,48.864452 175.746364,52.4730906 C170.453134,59.2176317 166.070569,61.5240612 155.238377,64.5443446 C149.574749,66.1235046 143.451364,69.288795 136.868224,74.0402157 L136,58.7398397 Z" id="Skin" fill="#B5C1D7"></path>
                            <path d="M65.857986,34.7503025 C77.885997,36.5253162 94.300289,36.5253162 113.103565,28.3861499 L117.443447,44.4123074 C103.805809,54.2415559 85.712714,61.226516 71.287694,58.5246963 C59.919984,56.3955135 56.271725,41.6595451 65.857986,34.7503025 Z" id="Sleeve" fill="#F46885" transform="translate(88.898282, 43.748060) rotate(-9.000000) translate(-88.898282, -43.748060) "></path>
                            <path d="M65.857986,34.7503025 C77.885997,36.5253162 94.300289,36.5253162 113.103565,28.3861499 L117.443447,44.4123074 C103.805809,54.2415559 85.712714,61.226516 71.287694,58.5246963 C59.919984,56.3955135 56.271725,41.6595451 65.857986,34.7503025 Z" id="Sleeve" fill-opacity="0.2" fill="#000000" transform="translate(88.898282, 43.748060) rotate(-9.000000) translate(-88.898282, -43.748060) "></path>
                            <path d="M81.104267,62.7612342 C94.011057,65.9801048 115.654946,62.184167 146.035933,51.3734208 C153.571674,66.9635189 157.055257,78.0780631 156.486685,84.7170535 C130.424274,98.3310492 108.086537,104.400834 89.683227,104.801533 C90.268059,115.72137 88.938918,126.111847 84.473933,135.605966 C75.29468,155.124265 21.5450578,137.048144 3.4727876,140.605966 C-7.8445994,103.85132 14.0379108,88.9143806 14.0555178,65.3966157 C14.0747993,39.6421572 34.75441,-1.42108547e-13 37.797001,-1.42108547e-13 L65.54375,-1.42108547e-13 C67.0747,19.6690193 74.7804,41.3459827 81.104267,62.7612342 Z" id="Clothes" fill="#F46885"></path>
                        </g>
                    </g>
                </g>
            </g>
        </g>
    </g>
</svg>