<?xml version="1.0" encoding="UTF-8"?>
<svg width="250px" height="230px" viewBox="0 0 250 230" version="1.1" xmlns="http://www.w3.org/2000/svg" xmlns:xlink="http://www.w3.org/1999/xlink">
    <!-- Generator: Sketch 52.5 (67469) - http://www.bohemiancoding.com/sketch -->
    <title>leaderboard</title>
    <desc>Created with Sketch.</desc>
    <defs>
        <ellipse id="path-1" cx="30.0813838" cy="29.0506118" rx="30.0813838" ry="29.0506118"></ellipse>
        <ellipse id="path-3" cx="30.0813838" cy="29.0506118" rx="30.0813838" ry="29.0506118"></ellipse>
        <ellipse id="path-5" cx="30.0813838" cy="29.0506118" rx="30.0813838" ry="29.0506118"></ellipse>
        <ellipse id="path-7" cx="30.0813838" cy="29.0506118" rx="30.0813838" ry="29.0506118"></ellipse>
        <ellipse id="path-9" cx="30.0813838" cy="29.0506118" rx="30.0813838" ry="29.0506118"></ellipse>
        <ellipse id="path-11" cx="30.0813838" cy="29.0506118" rx="30.0813838" ry="29.0506118"></ellipse>
        <ellipse id="path-13" cx="30.0813838" cy="29.0506118" rx="30.0813838" ry="29.0506118"></ellipse>
        <ellipse id="path-15" cx="30.0813838" cy="29.0506118" rx="30.0813838" ry="29.0506118"></ellipse>
    </defs>
    <g id="Home" stroke="none" stroke-width="1" fill="none" fill-rule="evenodd">
        <g id="Leaderboard---Empty" transform="translate(-63.000000, -216.000000)">
            <g id="leaderboard" transform="translate(63.000000, 216.000000)">
                <g id="Group" transform="translate(0.000000, 113.736264)">
                    <polygon id="Shape" fill="#DEE1E6" points="250 116.214943 176.269531 116.214943 161.621094 86.9087946 176.269531 58.0830748 250 58.0830748"></polygon>
                    <polygon id="Shape" fill="#DEE1E6" points="73.7304687 116.214943 0 116.214943 0 29.257355 73.7304687 29.257355 88.3789063 72.4959348"></polygon>
                    <polygon id="Shape" fill="#F46885" points="73.7304687 0.431635366 73.7304687 116.214943 176.269531 116.214943 176.269531 0.431635366"></polygon>
                </g>
                <g id="person" transform="translate(95.959596, 30.329670)">
                    <g id="user" transform="translate(0.000000, 0.344328)">
                        <g id="Oval-6" fill="#F46885">
                            <ellipse id="path-10" cx="30.0813838" cy="29.0506118" rx="30.0813838" ry="29.0506118"></ellipse>
                        </g>
                        <g id="Rectangle-2-Clipped">
                            <g>
                                <mask id="mask-2" fill="white">
                                    <use xlink:href="#path-1"></use>
                                </mask>
                                <g id="path-2"></g>
                                <path d="M30.2457631,32.0667956 C38.9610364,32.0667956 46.0261614,38.9306894 46.0261614,47.3977315 L46.0261614,66.0385491 L14.4653649,66.0385491 L14.4653649,47.3977315 C14.4653649,38.9306894 21.5304899,32.0667956 30.2457631,32.0667956 Z" id="Rectangle-2" fill="#FFFFFF" opacity="0.699999988" mask="url(#mask-2)"></path>
                            </g>
                        </g>
                        <g id="Oval-Clipped">
                            <g>
                                <mask id="mask-4" fill="white">
                                    <use xlink:href="#path-3"></use>
                                </mask>
                                <g id="path-4"></g>
                                <ellipse id="Oval" fill="#FFFFFF" mask="url(#mask-4)" cx="30.0813838" cy="25.8756817" rx="11.9996778" ry="11.5884954"></ellipse>
                            </g>
                        </g>
                    </g>
                </g>
                <g id="person" transform="translate(186.868687, 58.131868)">
                    <g id="user" transform="translate(0.000000, 0.344328)">
                        <g id="Oval-6" fill="#DEE1E6">
                            <ellipse id="path-10" cx="30.0813838" cy="29.0506118" rx="30.0813838" ry="29.0506118"></ellipse>
                        </g>
                        <g id="Rectangle-2-Clipped">
                            <g>
                                <mask id="mask-6" fill="white">
                                    <use xlink:href="#path-5"></use>
                                </mask>
                                <g id="path-6"></g>
                                <path d="M30.2457631,32.0667956 C38.9610364,32.0667956 46.0261614,38.9306894 46.0261614,47.3977315 L46.0261614,66.0385491 L14.4653649,66.0385491 L14.4653649,47.3977315 C14.4653649,38.9306894 21.5304899,32.0667956 30.2457631,32.0667956 Z" id="Rectangle-2" fill="#FFFFFF" opacity="0.699999988" mask="url(#mask-6)"></path>
                            </g>
                        </g>
                        <g id="Oval-Clipped">
                            <g>
                                <mask id="mask-8" fill="white">
                                    <use xlink:href="#path-7"></use>
                                </mask>
                                <g id="path-8"></g>
                                <ellipse id="Oval" fill="#FFFFFF" mask="url(#mask-8)" cx="30.0813838" cy="25.8756817" rx="11.9996778" ry="11.5884954"></ellipse>
                            </g>
                        </g>
                        <g id="Oval-Clipped">
                            <g>
                                <mask id="mask-10" fill="white">
                                    <use xlink:href="#path-9"></use>
                                </mask>
                                <g id="path-10"></g>
                                <ellipse id="Oval" fill="#FFFFFF" mask="url(#mask-10)" cx="30.0813838" cy="25.8756817" rx="11.9996778" ry="11.5884954"></ellipse>
                            </g>
                        </g>
                    </g>
                </g>
                <g id="person" transform="translate(5.050505, 58.131868)">
                    <g id="user" transform="translate(0.000000, 0.344328)">
                        <g id="Oval-6" fill="#DEE1E6">
                            <ellipse id="path-10" cx="30.0813838" cy="29.0506118" rx="30.0813838" ry="29.0506118"></ellipse>
                        </g>
                        <g id="Rectangle-2-Clipped">
                            <g>
                                <mask id="mask-12" fill="white">
                                    <use xlink:href="#path-11"></use>
                                </mask>
                                <g id="path-12"></g>
                                <path d="M30.2457631,32.0667956 C38.9610364,32.0667956 46.0261614,38.9306894 46.0261614,47.3977315 L46.0261614,66.0385491 L14.4653649,66.0385491 L14.4653649,47.3977315 C14.4653649,38.9306894 21.5304899,32.0667956 30.2457631,32.0667956 Z" id="Rectangle-2" fill="#FFFFFF" opacity="0.699999988" mask="url(#mask-12)"></path>
                            </g>
                        </g>
                        <g id="Oval-Clipped">
                            <g>
                                <mask id="mask-14" fill="white">
                                    <use xlink:href="#path-13"></use>
                                </mask>
                                <g id="path-14"></g>
                                <ellipse id="Oval" fill="#FFFFFF" mask="url(#mask-14)" cx="30.0813838" cy="25.8756817" rx="11.9996778" ry="11.5884954"></ellipse>
                            </g>
                        </g>
                        <g id="Oval-Clipped">
                            <g>
                                <mask id="mask-16" fill="white">
                                    <use xlink:href="#path-15"></use>
                                </mask>
                                <g id="path-16"></g>
                                <ellipse id="Oval" fill="#FFFFFF" mask="url(#mask-16)" cx="30.0813838" cy="25.8756817" rx="11.9996778" ry="11.5884954"></ellipse>
                            </g>
                        </g>
                    </g>
                </g>
                <g id="Group-2" transform="translate(101.010101, 0.000000)" fill="#F46885">
                    <path d="M35.0336581,6.7369026 C34.9791992,6.59110411 34.8404169,6.48580521 34.6752833,6.46555543 L28.3141323,5.68796349 L25.3487573,0.205940364 C25.2011913,-0.0686467879 24.7101829,-0.0686467879 24.5626168,0.205940364 L21.5972418,5.68796349 L15.2360908,6.46555543 C15.0709573,6.48580521 14.9312966,6.59110411 14.8777161,6.7369026 C14.8241356,6.88270109 14.8645405,7.04388942 14.9831204,7.15323829 L19.6481401,11.4551037 L18.3771396,17.3170129 C18.34464,17.4692913 18.4078826,17.6239997 18.5413947,17.7187687 C18.6749069,17.8127277 18.855851,17.8281175 19.0042954,17.7592683 L24.9561263,15.0150167 L30.9079573,17.7592683 C30.9703215,17.787618 31.0370775,17.8021978 31.1047119,17.8021978 C31.1986975,17.8021978 31.2935614,17.7738481 31.3717361,17.7187687 C31.5043699,17.6248097 31.5684909,17.4692913 31.5359912,17.3170129 L30.2649909,11.4551037 L34.9300106,7.15323829 C35.0459553,7.04469942 35.0863604,6.88351107 35.0336581,6.7369026 Z" id="Shape"></path>
                    <path d="M9.89178018,17.2146051 C9.86508462,17.1417059 9.79705407,17.0890565 9.71610629,17.0789316 L6.597895,16.6901355 L5.1442798,13.949124 C5.07194348,13.8118304 4.83125308,13.8118304 4.75891677,13.949124 L3.30530157,16.6901355 L0.187090274,17.0789316 C0.106142509,17.0890565 0.0376813659,17.1417059 0.0114163992,17.2146051 C-0.0148485674,17.2875044 0.00495780081,17.3680985 0.0630851861,17.422773 L2.34985958,19.5737057 L1.72682012,22.5046602 C1.71088891,22.5807994 1.74189019,22.6581536 1.80733731,22.7055382 C1.87278444,22.7525176 1.96148253,22.7602126 2.03424941,22.7257879 L4.95181356,21.3536622 L7.86937773,22.7257879 C7.89994843,22.7399628 7.93267199,22.7472527 7.96582614,22.7472527 C8.01189747,22.7472527 8.05839937,22.7330778 8.09672038,22.7055382 C8.16173694,22.6585586 8.19316879,22.5807994 8.1772376,22.5046602 L7.55419813,19.5737057 L9.84097253,17.422773 C9.89780818,17.3685035 9.91761457,17.2879094 9.89178018,17.2146051 Z" id="Shape-Copy"></path>
                    <path d="M50.4938795,17.2146051 C50.4671841,17.1417059 50.3991535,17.0890565 50.3182058,17.0789316 L47.1999944,16.6901355 L45.7463793,13.949124 C45.6740429,13.8118304 45.4333525,13.8118304 45.3610162,13.949124 L43.907401,16.6901355 L40.7891896,17.0789316 C40.7082419,17.0890565 40.6397808,17.1417059 40.6135159,17.2146051 C40.5872508,17.2875044 40.6070573,17.3680985 40.6651846,17.422773 L42.9519591,19.5737057 L42.3289197,22.5046602 C42.3129884,22.5807994 42.3439896,22.6581536 42.4094366,22.7055382 C42.4748838,22.7525176 42.5635821,22.7602126 42.6363487,22.7257879 L45.5539129,21.3536622 L48.471477,22.7257879 C48.5020477,22.7399628 48.5347715,22.7472527 48.5679255,22.7472527 C48.613997,22.7472527 48.6604987,22.7330778 48.6988199,22.7055382 C48.7638364,22.6585586 48.7952682,22.5807994 48.7793371,22.5046602 L48.1562975,19.5737057 L50.443072,17.422773 C50.4999076,17.3685035 50.5197139,17.2879094 50.4938795,17.2146051 Z" id="Shape-Copy-2"></path>
                </g>
            </g>
        </g>
    </g>
</svg>