<?xml version="1.0" encoding="UTF-8"?>
<svg width="92px" height="87px" viewBox="0 0 92 87" version="1.1" xmlns="http://www.w3.org/2000/svg" xmlns:xlink="http://www.w3.org/1999/xlink">
    <!-- Generator: Sketch 52.5 (67469) - http://www.bohemiancoding.com/sketch -->
    <title>note</title>
    <desc>Created with Sketch.</desc>
    <defs>
        <linearGradient x1="-58.3455064%" y1="-8.43573356%" x2="94.6551997%" y2="71.6657063%" id="linearGradient-1">
            <stop stop-color="#626C76" offset="0%"></stop>
            <stop stop-color="#A2B9D1" offset="100%"></stop>
        </linearGradient>
        <linearGradient x1="50%" y1="100%" x2="102.742279%" y2="-18.6035779%" id="linearGradient-2">
            <stop stop-color="#95ABC2" stop-opacity="0.244084013" offset="0%"></stop>
            <stop stop-color="#FFFFFF" offset="100%"></stop>
        </linearGradient>
        <path d="M1.69926606,0 L3.61986637,0 L3.61986637,1.91357688 C3.61986637,2.8539262 2.85907905,3.61622994 1.92060033,3.61622994 L0,3.61622994 L0,1.70265306 C-1.14930497e-16,0.762303742 0.760787327,1.72739368e-16 1.69926606,0 Z" id="path-3"></path>
        <path d="M1.69926606,0 L3.61986637,0 L3.61986637,1.91357688 C3.61986637,2.8539262 2.85907905,3.61622994 1.92060033,3.61622994 L0,3.61622994 L0,1.70265306 C-1.14930497e-16,0.762303742 0.760787327,1.72739368e-16 1.69926606,0 Z" id="path-5"></path>
        <linearGradient x1="-26.6372833%" y1="50%" x2="100%" y2="50%" id="linearGradient-7">
            <stop stop-color="#F5F7FA" offset="0%"></stop>
            <stop stop-color="#C3CFE2" offset="100%"></stop>
        </linearGradient>
        <linearGradient x1="-26.6372833%" y1="50%" x2="100%" y2="50%" id="linearGradient-8">
            <stop stop-color="#7D8B9B" offset="0%"></stop>
            <stop stop-color="#A2B9D1" offset="100%"></stop>
        </linearGradient>
        <linearGradient x1="100%" y1="100%" x2="0%" y2="0%" id="linearGradient-9">
            <stop stop-color="#93A5CF" offset="0%"></stop>
            <stop stop-color="#E4EFE9" offset="100%"></stop>
        </linearGradient>
    </defs>
    <g id="Illustrations" stroke="none" stroke-width="1" fill="none" fill-rule="evenodd">
        <g transform="translate(-690.000000, -5008.000000)" id="Boost">
            <g transform="translate(683.000000, 38.000000)">
                <g id="note" transform="translate(2.000000, 4959.000000)">
                    <ellipse id="hole" fill="url(#linearGradient-1)" cx="62.2874618" cy="86.9435889" rx="33.7155963" ry="10.8707026"></ellipse>
                    <g id="fly" transform="translate(49.876947, 51.959308) rotate(-22.000000) translate(-49.876947, -51.959308) translate(13.376947, 10.959308)">
                        <path d="M11.1280475,65.5356225 C21.0246062,76.6353517 29.5462689,78.0095968 36.6930356,69.6583577 C41.523026,60.1050044 36.226505,53.3554001 37.4416418,48.1122112 C39.7668214,38.0793025 50.8019516,33.1306208 57.7271071,37.8443467 C60.341095,39.6236023 59.1509541,50.2070342 45.2231076,46.9098889 C40.3164228,45.7483271 36.8764569,41.1457634 38.1883618,32.3852815 C40.1940357,18.9920308 61.2762566,19.1284908 61.9016839,18.6998489" id="path" stroke="url(#linearGradient-2)" stroke-width="1.2" stroke-linecap="round" stroke-linejoin="round" stroke-dasharray="1.2,3" transform="translate(36.514866, 46.868296) scale(-1, 1) rotate(-65.000000) translate(-36.514866, -46.868296) "></path>
                        <g id="bee" transform="translate(49.379344, 8.068983) rotate(-78.000000) translate(-49.379344, -8.068983) translate(42.879344, 1.568983)">
                            <path d="M3.43235617,6.3984026 C4.83239494,4.88542519 5.5327977,3.74389748 5.5335644,2.97381943 C5.53471446,1.81870238 4.59642936,0.883230079 3.43784602,0.884383584 C2.27926268,0.885537088 1.339113,1.82287958 1.33796295,2.97799664 C1.33719625,3.74807469 2.03532732,4.88820999 3.43235617,6.3984026 Z" id="Oval" fill="#8EA8C0" opacity="0.400000006" transform="translate(3.435764, 3.641393) rotate(-45.000000) translate(-3.435764, -3.641393) "></path>
                            <path d="M8.76595966,11.5381935 C10.1659984,10.0252161 10.8664012,8.88368835 10.8671679,8.11361029 C10.8683179,6.95849324 9.93003285,6.02302095 8.77144951,6.02417445 C7.61286617,6.02532796 6.67271649,6.96267045 6.67156644,8.1177875 C6.67079974,8.88786556 7.36893081,10.0280009 8.76595966,11.5381935 Z" id="Oval-Copy" fill="#D2DCE6" opacity="0.989541487" transform="translate(8.769367, 8.781183) rotate(135.000000) translate(-8.769367, -8.781183) "></path>
                            <g id="Rectangle-4" transform="translate(4.381944, 4.206903)">
                                <g id="Mask" fill="#A8B7C5">
                                    <path d="M1.69926606,0 L3.61986637,0 L3.61986637,1.91357688 C3.61986637,2.8539262 2.85907905,3.61622994 1.92060033,3.61622994 L0,3.61622994 L0,1.70265306 C-1.14930497e-16,0.762303742 0.760787327,1.72739368e-16 1.69926606,0 Z" id="path-3"></path>
                                </g>
                                <g id="Clipped">
                                    <mask id="mask-4" fill="white">
                                        <use xlink:href="#path-3"></use>
                                    </mask>
                                    <g id="path-3"></g>
                                    <polygon id="Rectangle" fill="#DDE5F2" mask="url(#mask-4)" transform="translate(1.047856, 2.283935) rotate(-45.000000) translate(-1.047856, -2.283935) " points="0.763874774 0.192695101 1.33600224 0.192125482 1.33183753 4.3751744 0.759710062 4.37574402"></polygon>
                                </g>
                                <g id="Rectangle-4-Copy-Clipped">
                                    <mask id="mask-6" fill="white">
                                        <use xlink:href="#path-5"></use>
                                    </mask>
                                    <g id="path-3"></g>
                                    <polygon id="Rectangle-4-Copy" fill="#DDE5F2" mask="url(#mask-6)" points="0.509357994 0.0540861684 0.913510426 -0.350302829 3.87258553 2.61050432 3.46843308 3.0148933"></polygon>
                                </g>
                            </g>
                            <path d="M9.94546482,3.3008689 L11.3358974,2.96977142" id="Path-7-Copy" stroke="#8696C5" stroke-width="0.5"></path>
                            <path d="M9.37390697,2.72988522 L9.90887548,1.35276492" id="Path-7" stroke="#8696C5" stroke-width="0.5"></path>
                            <ellipse id="Oval-4" fill="#8B9AA8" cx="8.57336775" cy="3.82624694" rx="1.52415427" ry="1.52262314"></ellipse>
                        </g>
                    </g>
                    <g id="tube" transform="translate(58.241590, 50.848397)">
                        <path d="M7.49235474,4.26325641e-14 C11.630268,4.18709267e-14 14.9847095,3.36112762 14.9847095,7.50728863 L14.9847095,46.4348375 C12.3803784,46.7668365 10.182621,46.9567499 8.39143731,47.0045773 C6.60025364,47.0524047 3.80310788,47.034886 -2.48798603e-15,46.9520209 L-3.55271368e-15,7.50728863 C-4.0594619e-15,3.36112762 3.35444149,4.33942015e-14 7.49235474,4.26325641e-14 Z" id="Combined-Shape" fill="url(#linearGradient-7)"></path>
                        <path d="M7.49235474,0 L27.8715596,0 L27.8715596,15.0145773 L11.883224,15.0145773 L0,15.0145773 L0,7.50728863 C-5.06748224e-16,3.36112762 3.35444149,7.61637425e-16 7.49235474,0 Z" id="Rectangle-2" fill="url(#linearGradient-7)"></path>
                        <ellipse id="Oval" fill="url(#linearGradient-8)" cx="27.7217125" cy="7.50728863" rx="3.44648318" ry="7.50728863"></ellipse>
                    </g>
                    <g id="lines" opacity="0.5" transform="translate(92.146448, 50.489814) rotate(89.000000) translate(-92.146448, -50.489814) translate(85.553176, 45.685150)" fill="url(#linearGradient-9)">
                        <path d="M7.37690199,4.86052493 L5.86481872,1.93168139 C5.70629905,1.6246353 5.33246468,1.50610671 5.02983624,1.66694038 C4.72720781,1.82777404 4.61038456,2.20706554 4.76890423,2.51411163 L6.2809875,5.44295515 C6.43950714,5.75000128 6.81334151,5.86852986 7.11596995,5.70769617 C7.41859838,5.54686251 7.53542163,5.16757102 7.37690199,4.86052493 Z" id="Line"></path>
                        <path d="M3.57259256,8.21957258 L2.06217554,5.29281279 C1.90383057,4.98598515 1.52996053,4.86777244 1.22711343,5.0287773 C0.924266325,5.18978217 0.807124205,5.56903536 0.965469174,5.87586301 L2.47588619,8.80262279 C2.63423116,9.10945046 3.00810121,9.22766317 3.31094832,9.06665828 C3.61379542,8.90565341 3.73093752,8.52640022 3.57259256,8.21957258 Z" id="Line-Copy" transform="translate(2.269031, 7.047718) rotate(-24.000000) translate(-2.269031, -7.047718) "></path>
                        <path d="M11.9978353,3.7816303 L10.4824757,0.852938259 C10.3236126,0.545908044 9.94948981,0.427115746 9.64684911,0.587608237 C9.34420841,0.748100726 9.22765368,1.12710276 9.3865168,1.43413297 L10.9018764,4.36282503 C11.0607395,4.66985524 11.4348623,4.78864753 11.737503,4.62815506 C12.0401436,4.46766255 12.1566984,4.08866051 11.9978353,3.7816303 Z" id="Line-Copy-2" transform="translate(10.692176, 2.607882) rotate(30.000000) translate(-10.692176, -2.607882) "></path>
                    </g>
                    <g id="yellow-note" transform="translate(2.896024, 56.755102)">
                        <polygon id="Path-70" fill-opacity="0.299999982" fill="url(#linearGradient-7)" style="mix-blend-mode: multiply;" points="6.82872499 11.2823502 13.5953234 17.4314081 25.9506186 15.2325609 18.2230503 9.15776054"></polygon>
                        <g id="yellow" transform="translate(11.970995, 9.969563) rotate(15.000000) translate(-11.970995, -9.969563) translate(2.470995, 2.969563)">
                            <path d="M15.8759012,1.13526181 C16.4337515,1.68534939 16.9092867,2.21875981 17.3025065,2.73549307 C18.1210859,3.81119459 18.3654898,5.29804679 18.3085729,5.33559846 C17.9980595,5.54046375 16.2227102,4.35866613 15.8759012,3.39881199 C15.6679891,2.82337905 15.6679891,2.06886232 15.8759012,1.13526181 Z" id="Path-12" fill="#DC5B76"></path>
                            <path d="M0.998342677,10.5727674 C5.07904143,7.77958492 7.21829958,4.29958182 7.41611717,0.132758106 C8.48763005,-0.0274858555 10.5574246,0.172456493 15.750569,1.07776506 C16.2341867,1.16207298 16.2769489,1.93123904 15.8788556,3.38526325 C17.6297319,4.02898848 18.4319867,4.64217324 18.28562,5.22481761 C17.0166224,10.2763349 15.3377859,12.5794588 12.8040364,13.6617375 C9.89760553,14.0316757 5.96237426,13.002019 0.998342677,10.5727674 Z" id="Path-9" fill="#F46885"></path>
                        </g>
                    </g>
                </g>
            </g>
        </g>
    </g>
</svg>