<?xml version="1.0" encoding="UTF-8"?>
<svg width="97px" height="110px" viewBox="0 0 97 110" version="1.1" xmlns="http://www.w3.org/2000/svg" xmlns:xlink="http://www.w3.org/1999/xlink">
    <!-- Generator: Sketch 52.5 (67469) - http://www.bohemiancoding.com/sketch -->
    <title>notification_boost</title>
    <desc>Created with Sketch.</desc>
    <defs>
        <filter x="-73.0%" y="-60.5%" width="246.0%" height="221.1%" filterUnits="objectBoundingBox" id="filter-1">
            <feOffset dx="0" dy="6" in="SourceAlpha" result="shadowOffsetOuter1"></feOffset>
            <feGaussianBlur stdDeviation="9" in="shadowOffsetOuter1" result="shadowBlurOuter1"></feGaussianBlur>
            <feColorMatrix values="0 0 0 0 0   0 0 0 0 0   0 0 0 0 0  0 0 0 0.1 0" type="matrix" in="shadowBlurOuter1" result="shadowMatrixOuter1"></feColorMatrix>
            <feMerge>
                <feMergeNode in="shadowMatrixOuter1"></feMergeNode>
                <feMergeNode in="SourceGraphic"></feMergeNode>
            </feMerge>
        </filter>
    </defs>
    <g id="Page-1" stroke="none" stroke-width="1" fill="none" fill-rule="evenodd">
        <g id="notification_boost" filter="url(#filter-1)" transform="translate(17.000000, 11.000000)">
            <g id="path-1" fill="#F46885" fill-rule="nonzero">
                <path d="M37.9853916,7.71399964 C46.7073125,10.8048304 52.9561744,19.1446754 52.9561744,28.9478428 L52.9561744,45.2684205 L53.081904,45.2684205 C53.1011275,47.7679747 53.9436931,49.0177515 55.6096004,49.0177515 C58.5866373,49.0177515 61.0000027,51.4374368 61.000004,54.4222707 L61.0000018,56.9501157 C61.0000027,59.8408499 58.6627218,62.1842541 55.7795384,62.184255 L5.22046648,62.184255 C2.33728246,62.184255 0,59.8408508 0,56.9501157 L7.93897059e-06,54.4873051 C7.93897059e-06,51.4665542 2.44241367,49.0177515 5.45527382,49.0177515 C6.61515016,49.0177515 7.47800068,48.2533979 8.04382546,46.7246907 L8.04382546,28.9478428 C8.04382546,19.1446754 14.2926874,10.8048304 23.0146085,7.71399964 L23.0146085,7.50499627 C23.0146085,3.36010129 26.3659324,0 30.5,0 C34.6340676,0 37.9853916,3.36010129 37.9853916,7.50499627 L37.9853916,7.71399964 Z M30.2757353,75.7751479 C25.1975582,75.7751479 21.0808824,71.64769 21.0808824,66.556213 C24.8331492,66.556213 36.5156392,66.556213 39.4705882,66.556213 C39.4705882,71.64769 35.3539124,75.7751479 30.2757353,75.7751479 Z" id="Shape"></path>
            </g>
            <g id="indicator" transform="translate(47.000000, 55.000000)">
                <circle id="path-2" fill="#FFFFFF" cx="7.82222222" cy="7.82222222" r="7.82222222"></circle>
                <path d="M8.19369311,4.7328 C8.4309684,4.7328 8.6499884,4.76669596 8.85075978,4.83448889 C9.05153116,4.90228182 9.22427018,4.99875493 9.368982,5.12391111 C9.51369387,5.24906729 9.62646307,5.40029542 9.70729311,5.5776 C9.78812316,5.75490458 9.82853756,5.95176187 9.82853756,6.16817778 C9.82853756,6.34548236 9.80572298,6.5038808 9.76009311,6.64337778 C9.71446324,6.78287476 9.64927871,6.90542169 9.56453756,7.01102222 C9.4797964,7.11662276 9.37745667,7.20592556 9.25751533,7.27893333 C9.137574,7.35194111 9.00329387,7.4106072 8.85467089,7.45493333 C9.21970978,7.55140791 9.49413667,7.71306551 9.67795978,7.93991111 C9.86178293,8.16675671 9.95369311,8.45096124 9.95369311,8.79253333 C9.95369311,9.05066796 9.90480471,9.28272489 9.80702644,9.48871111 C9.70924818,9.69469733 9.57561991,9.87004373 9.40613756,10.0147556 C9.23665524,10.1594674 9.03914609,10.2702811 8.81360422,10.3472 C8.58806236,10.4241189 8.34622773,10.4625778 8.08809311,10.4625778 C7.7908472,10.4625778 7.53662751,10.4254226 7.32542644,10.3511111 C7.11422538,10.2767996 6.93561978,10.1744599 6.78960422,10.0440889 C6.64358867,9.91371787 6.52364916,9.75923053 6.429782,9.58062222 C6.33591489,9.40201391 6.25638973,9.20841587 6.19120422,8.99982222 L6.48844867,8.87466667 C6.54320449,8.85119987 6.59795951,8.83946667 6.65271533,8.83946667 C6.70486373,8.83946667 6.75114476,8.85054804 6.79155978,8.87271111 C6.8319748,8.89487418 6.86261156,8.929422 6.88347089,8.97635556 C6.88868573,8.98678524 6.89390049,8.99786662 6.89911533,9.0096 C6.90433018,9.02133338 6.90954493,9.03371844 6.91475978,9.04675556 C6.95126369,9.12237076 6.99558916,9.20776249 7.04773756,9.30293333 C7.09988596,9.39810418 7.17028529,9.48740698 7.25893756,9.57084444 C7.34758987,9.65428191 7.45775173,9.7246812 7.58942644,9.78204444 C7.7211012,9.83940769 7.88471436,9.86808889 8.08027089,9.86808889 C8.27582742,9.86808889 8.44726276,9.83614849 8.594582,9.77226667 C8.74190124,9.70838484 8.86444818,9.62560049 8.96222644,9.52391111 C9.06000471,9.42222173 9.13366324,9.30880062 9.18320422,9.18364444 C9.2327452,9.05848827 9.25751533,8.93463764 9.25751533,8.81208889 C9.25751533,8.66085849 9.23730813,8.52266729 9.19689311,8.39751111 C9.15647809,8.27235493 9.08347142,8.16414862 8.97787089,8.07288889 C8.87227036,7.98162916 8.72625702,7.90992618 8.53982644,7.85777778 C8.35339591,7.80562938 8.11416867,7.77955556 7.82213756,7.77955556 L7.82213756,7.27502222 C8.05941284,7.2724148 8.26213671,7.24634098 8.43031533,7.1968 C8.59849396,7.14725902 8.73603333,7.07946711 8.84293756,6.99342222 C8.94984182,6.90737733 9.02741138,6.80438578 9.07564867,6.68444444 C9.12388596,6.56450311 9.14800422,6.43152667 9.14800422,6.28551111 C9.14800422,6.12385102 9.12258227,5.98305244 9.07173756,5.86311111 C9.02089289,5.74316978 8.95114542,5.64408929 8.86249311,5.56586667 C8.77384084,5.48764404 8.66889373,5.42897796 8.54764867,5.38986667 C8.42640364,5.35075538 8.29538271,5.3312 8.154582,5.3312 C8.01378129,5.3312 7.88341222,5.35205907 7.76347089,5.39377778 C7.64352956,5.43549649 7.53727876,5.49351076 7.44471533,5.56782222 C7.35215191,5.64213369 7.27458231,5.73078467 7.21200422,5.83377778 C7.14942613,5.93677089 7.10249329,6.04823644 7.07120422,6.16817778 C7.05034489,6.24379298 7.01905631,6.298548 6.97733756,6.33244444 C6.93561884,6.36634089 6.88216751,6.38328889 6.816982,6.38328889 C6.80394489,6.38328889 6.79025618,6.38263702 6.77591533,6.38133333 C6.76157453,6.38002964 6.7452784,6.37807409 6.72702644,6.37546667 L6.36329311,6.31288889 C6.39979702,6.05736169 6.47019631,5.83117133 6.57449311,5.63431111 C6.67878996,5.43745089 6.81111453,5.272534 6.97147089,5.13955556 C7.13182724,5.00657711 7.31564764,4.90554107 7.52293756,4.83644444 C7.73022751,4.76734782 7.95381044,4.7328 8.19369311,4.7328 Z" id="3" stroke="#F46885" stroke-width="0.3" fill="#F46885"></path>
            </g>
        </g>
    </g>
</svg>