<?xml version="1.0" encoding="UTF-8"?>
<svg width="89px" height="94px" viewBox="0 0 89 94" version="1.1" xmlns="http://www.w3.org/2000/svg" xmlns:xlink="http://www.w3.org/1999/xlink">
    <!-- Generator: Sketch 52.5 (67469) - http://www.bohemiancoding.com/sketch -->
    <title>pharmaone</title>
    <desc>Created with Sketch.</desc>
    <defs>
        <polygon id="path-1" points="45.7744913 32.8895474 63.1494655 22.8701509 56.5178865 11.3943966 38.932977 21.5350215 38.932977 1 25.6698191 1 25.6698191 21.3033406 8.48265313 11.3943966 1.85107418 22.8701509 19.2260485 32.8895474 1 43.3943966 7.63157895 54.8701509 25.6698191 44.4757543 25.6698191 65 38.932977 65 38.932977 44.2440732 57.3684211 54.8701509 64 43.3943966"></polygon>
        <filter x="-39.7%" y="-31.2%" width="179.4%" height="178.1%" filterUnits="objectBoundingBox" id="filter-2">
            <feOffset dx="0" dy="5" in="SourceAlpha" result="shadowOffsetOuter1"></feOffset>
            <feGaussianBlur stdDeviation="7.5" in="shadowOffsetOuter1" result="shadowBlurOuter1"></feGaussianBlur>
            <feColorMatrix values="0 0 0 0 0   0 0 0 0 0   0 0 0 0 0  0 0 0 0.1 0" type="matrix" in="shadowBlurOuter1"></feColorMatrix>
        </filter>
    </defs>
    <g id="Illustrations" stroke="none" stroke-width="1" fill="none" fill-rule="evenodd">
        <g transform="translate(-673.000000, -7460.000000)" id="Boost">
            <g transform="translate(683.000000, 38.000000)">
                <g id="pharmaone" transform="translate(2.000000, 7431.000000)">
                    <g id="Path">
                        <use fill="black" fill-opacity="1" filter="url(#filter-2)" xlink:href="#path-1"></use>
                        <use fill="#F46885" fill-rule="evenodd" xlink:href="#path-1"></use>
                    </g>
                    <g id="Group" fill="#FFFFFF" fill-rule="nonzero">
                        <path d="M36.974428,27.3372558 L33.4004565,27.0047852 L33.4004565,25.0975098 C34.9115738,24.5620117 35.8179225,23.0124511 35.546875,21.4285156 C35.2758275,19.8440429 33.9061264,18.6865723 32.3034101,18.6865723 C30.7001582,18.6865723 29.3304572,19.8440429 29.0594096,21.4285156 C28.788362,23.0124511 29.6952466,24.5620117 31.2063637,25.0975098 L31.2063637,26.8017578 L26.9188835,26.4 C26.3130438,26.3441406 25.776841,26.7915527 25.7211316,27.3990234 C25.6654222,28.0064942 26.1110973,28.5441406 26.716937,28.6 L31.2063637,29.0125 L31.2063637,32.5950196 L28.7149757,32.822754 C27.0158392,32.9693848 25.7136324,34.3986328 25.7211316,36.1087891 L25.7211316,36.5309571 C25.7216673,38.2121094 26.9826279,39.6247071 28.6490886,39.8100098 L31.2063637,40.0962891 L31.2063637,42.5702148 L30.504104,42.6701172 C29.0197703,42.8897949 27.9189742,44.1654297 27.9152245,45.669873 C27.9071894,47.1313477 28.9512049,48.3860352 30.386793,48.6395509 L31.2063637,48.8146484 L31.2063637,50.6 C31.2063637,51.2074707 31.6975706,51.7 32.3034101,51.7 C32.9092497,51.7 33.4004565,51.2074707 33.4004565,50.6 L33.4004565,49.2899902 L34.2682374,49.4758301 C34.8606854,49.6025879 35.4434913,49.2239259 35.5704444,48.6298828 C35.6968618,48.0358398 35.3192165,47.4509277 34.7267685,47.3241699 L33.4004565,47.0405761 L33.4004565,44.4828614 L35.2458301,44.2191406 C36.7317708,44.0166504 37.832567,42.732959 37.8089976,41.2295898 C37.7854282,39.7256835 36.6449927,38.4774415 35.1536952,38.3216797 L33.4004565,38.1261719 L33.4004565,34.6059571 L36.9888911,34.2761719 C38.6874918,34.129541 39.9896988,32.7008301 39.982735,30.9912109 L39.982735,30.6238281 C39.9741643,28.914746 38.6719573,27.4919433 36.974428,27.3372558 Z M32.3034101,20.9 C32.9092497,20.9 33.4004565,21.3925293 33.4004565,22 C33.4004565,22.6074707 32.9092497,23.1 32.3034101,23.1 C31.6975706,23.1 31.2063637,22.6074707 31.2063637,22 C31.2063637,21.3925293 31.6975706,20.9 32.3034101,20.9 Z M31.2063637,46.5716797 L30.7960427,46.4835938 C30.3942922,46.4180665 30.1012822,46.067334 30.1061033,45.6596679 C30.1109243,45.2514648 30.412505,44.9087891 30.8158623,44.8523926 L31.2063637,44.7976074 L31.2063637,46.5716797 Z M34.911038,40.5087891 C35.3042178,40.5415527 35.6084768,40.8686523 35.6143691,41.264502 C35.6202614,41.6598145 35.3261801,41.9960449 34.9340717,42.0411621 L33.3983139,42.2608398 L33.3983139,40.3401367 L34.911038,40.5087891 Z M31.2063637,37.8817871 L28.8917458,37.6202148 C28.3373302,37.5584473 27.9173671,37.0900879 27.9152245,36.5309571 L27.9152245,36.1087891 C27.9157601,35.5399902 28.3485792,35.0651855 28.9137081,35.0141602 L31.2063637,34.8052246 L31.2063637,37.8817871 Z M37.7886422,30.9912109 C37.7907848,31.5621582 37.3574301,32.0401855 36.7901585,32.0912109 L33.4004565,32.3952148 L33.4004565,29.2160645 L36.7826593,29.5297364 C37.3547518,29.5721679 37.7956059,30.0539551 37.7886422,30.6297364 L37.7886422,30.9912109 Z" id="Shape"></path>
                    </g>
                </g>
            </g>
        </g>
    </g>
</svg>