<?xml version="1.0" encoding="UTF-8"?>
<svg width="87px" height="82px" viewBox="0 0 87 82" version="1.1" xmlns="http://www.w3.org/2000/svg" xmlns:xlink="http://www.w3.org/1999/xlink">
    <!-- Generator: Sketch 55.2 (78181) - https://sketchapp.com -->
    <title>report</title>
    <desc>Created with Sketch.</desc>
    <defs>
        <path d="M55.6139668,52 L1.38597594,52 C0.620525566,52 0,51.4671432 0,50.809755 L0,1.19024496 C0,0.532856773 0.620525566,0 1.38597594,0 L55.6139668,0 C56.3794744,0 57,0.532856773 57,1.19024496 L57,50.809755 C57,51.464953 56.3836544,51.9964539 55.6139668,52 Z" id="path-1"></path>
        <filter x="-43.9%" y="-38.5%" width="187.7%" height="196.2%" filterUnits="objectBoundingBox" id="filter-2">
            <feOffset dx="0" dy="5" in="SourceAlpha" result="shadowOffsetOuter1"></feOffset>
            <feGaussianBlur stdDeviation="7.5" in="shadowOffsetOuter1" result="shadowBlurOuter1"></feGaussianBlur>
            <feColorMatrix values="0 0 0 0 0   0 0 0 0 0   0 0 0 0 0  0 0 0 0.1 0" type="matrix" in="shadowBlurOuter1"></feColorMatrix>
        </filter>
        <linearGradient x1="56.5924134%" y1="-152.279868%" x2="50%" y2="77.8806328%" id="linearGradient-3">
            <stop stop-color="#D6D6D6" offset="0%"></stop>
            <stop stop-color="#FFFFFF" offset="100%"></stop>
        </linearGradient>
    </defs>
    <g id="Mobile-Illustrations" stroke="none" stroke-width="1" fill="none" fill-rule="evenodd">
        <g id="Illustrations" transform="translate(-682.000000, -7591.000000)">
            <g id="Boost" transform="translate(-60.000000, -108.000000)">
                <g id="report" transform="translate(757.000000, 7709.000000)">
                    <g id="base">
                        <use fill="black" fill-opacity="1" filter="url(#filter-2)" xlink:href="#path-1"></use>
                        <use fill="#FFFFFF" fill-rule="evenodd" xlink:href="#path-1"></use>
                    </g>
                    <g id="chart" transform="translate(4.000000, 6.000000)">
                        <path d="M37.774028,36.5714286 L2.0308904,36.5714286 C0.909277306,36.5714286 0,35.6815497 0,34.5838316 L0,1.98759693 C0,0.889878833 0.909277306,0 2.0308904,0 L37.774028,0 C38.8956007,0 39.804878,0.889878833 39.804878,1.98759693 L39.804878,34.5838316 C39.804878,35.6750062 38.9063913,36.5608185 37.774028,36.5714286 Z" id="base" fill="#FFFFFF"></path>
                        <g id="Group" transform="translate(2.341463, 5.714286)">
                            <polygon id="Path-18" fill="url(#linearGradient-3)" points="0.522928258 21.4078982 5.69369847 11.1221839 12.7180887 12.8364697 16.2602331 5.9793268 26.7668692 2.55075537 33.7912594 7.69361251 42.5717472 2.55075537 42.4622396 2.55075537 42.4622396 33.4078982 0.522928258 33.4078982"></polygon>
                            <path d="M0.266230666,21.4710716 C0.266230666,21.4710716 1.72513421,18.3741355 4.64286995,12.1802838 L11.7172034,13.5308482 L17.1587267,6.37228139 L26.1748991,2.88951642 L34.0512228,7.92926876 L42.5717472,2.88951642" id="Path" stroke="#E7EFF5" stroke-width="1.5"></path>
                            <path d="M12.0189599,15.4307057 C13.2436519,15.4307057 14.2364449,14.4752961 14.2364449,13.2967226 C14.2364449,12.1182003 13.2436519,11.1627907 12.0189599,11.1627907 C10.7942677,11.1627907 9.80147476,12.1182003 9.80147476,13.2967226 C9.80147476,14.4752961 10.7942677,15.4307057 12.0189599,15.4307057 Z" id="Path" fill="#F46885"></path>
                            <path d="M3.85106415,13.8360192 C5.07575628,13.8360192 6.06854919,12.8806101 6.06854919,11.7020933 C6.06854919,10.5235432 5.07575628,9.56810631 3.85106415,9.56810631 C2.62637203,9.56810631 1.63357913,10.5235432 1.63357913,11.7020933 C1.63357913,12.8806101 2.62637203,13.8360192 3.85106415,13.8360192 Z" id="Path" fill="#F46885"></path>
                            <path d="M16.9196972,9.05196821 C18.1443835,9.05196821 19.1372168,8.09655863 19.1372168,6.91798507 C19.1372168,5.73946273 18.1443835,4.78405316 16.9196972,4.78405316 C15.6950396,4.78405316 14.7022121,5.73946273 14.7022121,6.91798507 C14.7022121,8.09655863 15.6950396,9.05196821 16.9196972,9.05196821 Z" id="Path" fill="#F46885"></path>
                            <path d="M26.7211719,4.26791506 C27.9458641,4.26791506 28.938657,3.31247987 28.938657,2.13393192 C28.938657,0.955409576 27.9458641,0 26.7211719,0 C25.4964799,0 24.5036869,0.955409576 24.5036869,2.13393192 C24.5036869,3.31247987 25.4964799,4.26791506 26.7211719,4.26791506 Z" id="Path" fill="#F46885"></path>
                            <path d="M33.8272411,9.4107722 C35.0519333,9.4107722 36.0447262,8.45533701 36.0447262,7.27678906 C36.0447262,6.09826672 35.0519333,5.14285714 33.8272411,5.14285714 C32.6025491,5.14285714 31.6097561,6.09826672 31.6097561,7.27678906 C31.6097561,8.45533701 32.6025491,9.4107722 33.8272411,9.4107722 Z" id="Path" fill="#F46885"></path>
                            <path d="M42.6077289,4.26791506 C43.8324211,4.26791506 44.825214,3.31247987 44.825214,2.13393192 C44.825214,0.955409576 43.8324211,0 42.6077289,0 C41.3830369,0 40.3902439,0.955409576 40.3902439,2.13393192 C40.3902439,3.31247987 41.3830369,4.26791506 42.6077289,4.26791506 Z" id="Path" fill="#F46885"></path>
                        </g>
                    </g>
                </g>
            </g>
        </g>
    </g>
</svg>