<?xml version="1.0" encoding="UTF-8"?>
<svg width="76px" height="80px" viewBox="0 0 76 80" version="1.1" xmlns="http://www.w3.org/2000/svg" xmlns:xlink="http://www.w3.org/1999/xlink">
    <!-- Generator: Sketch 52.5 (67469) - http://www.bohemiancoding.com/sketch -->
    <title>subscription</title>
    <desc>Created with Sketch.</desc>
    <defs>
        <path d="M3.25084126,26.8079626 L30.2203968,2.05522811 C32.9468325,-0.447102324 37.1449025,-0.400831431 39.8156679,2.16098665 L65.5315096,26.8278142 C67.5052464,28.7210373 68.621331,31.3391765 68.621331,34.0759948 L68.621331,69.2232748 C68.621331,73.380847 65.2553754,76.7512251 61.1032587,76.7512251 L7.51807229,76.7512251 C3.36595561,76.7512251 -7.64973441e-17,73.380847 -5.84984983e-16,69.2232748 L-3.55271368e-15,34.2072268 C-5.14470031e-15,31.3935874 1.17940657,28.7091312 3.25084126,26.8079626 Z" id="path-1"></path>
        <path d="M3.25084126,26.8079626 L30.2203968,2.05522811 C32.9468325,-0.447102324 37.1449025,-0.400831431 39.8156679,2.16098665 L65.5315096,26.8278142 C67.5052464,28.7210373 68.621331,31.3391765 68.621331,34.0759948 L68.621331,69.2232748 C68.621331,73.380847 65.2553754,76.7512251 61.1032587,76.7512251 L7.51807229,76.7512251 C3.36595561,76.7512251 -7.64973441e-17,73.380847 -5.84984983e-16,69.2232748 L-3.55271368e-15,34.2072268 C-5.14470031e-15,31.3935874 1.17940657,28.7091312 3.25084126,26.8079626 Z" id="path-3"></path>
        <filter x="-56.2%" y="-160.0%" width="213.5%" height="422.5%" filterUnits="objectBoundingBox" id="filter-5">
            <feOffset dx="0" dy="5" in="SourceAlpha" result="shadowOffsetOuter1"></feOffset>
            <feGaussianBlur stdDeviation="7.5" in="shadowOffsetOuter1" result="shadowBlurOuter1"></feGaussianBlur>
            <feColorMatrix values="0 0 0 0 0   0 0 0 0 0   0 0 0 0 0  0 0 0 0.1 0" type="matrix" in="shadowBlurOuter1" result="shadowMatrixOuter1"></feColorMatrix>
            <feMerge>
                <feMergeNode in="shadowMatrixOuter1"></feMergeNode>
                <feMergeNode in="SourceGraphic"></feMergeNode>
            </feMerge>
        </filter>
        <path d="M3.25084126,26.8079626 L30.2203968,2.05522811 C32.9468325,-0.447102324 37.1449025,-0.400831431 39.8156679,2.16098665 L65.5315096,26.8278142 C67.5052464,28.7210373 68.621331,31.3391765 68.621331,34.0759948 L68.621331,69.2232748 C68.621331,73.380847 65.2553754,76.7512251 61.1032587,76.7512251 L7.51807229,76.7512251 C3.36595561,76.7512251 -7.64973441e-17,73.380847 -5.84984983e-16,69.2232748 L-3.55271368e-15,34.2072268 C-5.14470031e-15,31.3935874 1.17940657,28.7091312 3.25084126,26.8079626 Z" id="path-6"></path>
        <path d="M3.25084126,26.8079626 L30.2203968,2.05522811 C32.9468325,-0.447102324 37.1449025,-0.400831431 39.8156679,2.16098665 L65.5315096,26.8278142 C67.5052464,28.7210373 68.621331,31.3391765 68.621331,34.0759948 L68.621331,69.2232748 C68.621331,73.380847 65.2553754,76.7512251 61.1032587,76.7512251 L7.51807229,76.7512251 C3.36595561,76.7512251 -7.64973441e-17,73.380847 -5.84984983e-16,69.2232748 L-3.55271368e-15,34.2072268 C-5.14470031e-15,31.3935874 1.17940657,28.7091312 3.25084126,26.8079626 Z" id="path-8"></path>
        <filter x="-56.2%" y="-160.0%" width="213.5%" height="422.5%" filterUnits="objectBoundingBox" id="filter-10">
            <feOffset dx="0" dy="5" in="SourceAlpha" result="shadowOffsetOuter1"></feOffset>
            <feGaussianBlur stdDeviation="7.5" in="shadowOffsetOuter1" result="shadowBlurOuter1"></feGaussianBlur>
            <feColorMatrix values="0 0 0 0 0   0 0 0 0 0   0 0 0 0 0  0 0 0 0.1 0" type="matrix" in="shadowBlurOuter1" result="shadowMatrixOuter1"></feColorMatrix>
            <feMerge>
                <feMergeNode in="shadowMatrixOuter1"></feMergeNode>
                <feMergeNode in="SourceGraphic"></feMergeNode>
            </feMerge>
        </filter>
        <linearGradient x1="60.881%" y1="74.0327464%" x2="32.4700625%" y2="-13.3084847%" id="linearGradient-11">
            <stop stop-color="#15DABA" offset="0%"></stop>
            <stop stop-color="#13DEB4" offset="20.5%"></stop>
            <stop stop-color="#0DE8A2" offset="49.01%"></stop>
            <stop stop-color="#04F884" offset="82.08%"></stop>
            <stop stop-color="#00FF78" offset="100%"></stop>
        </linearGradient>
    </defs>
    <g id="Illustrations" stroke="none" stroke-width="1" fill="none" fill-rule="evenodd">
        <g transform="translate(-685.000000, -8048.000000)" id="Boost">
            <g transform="translate(683.000000, 38.000000)">
                <g id="subscription" transform="translate(2.000000, 8010.000000)">
                    <g id="requestraised">
                        <g id="envelope">
                            <g id="Mask">
                                <g id="path-1-link"></g>
                            </g>
                            <g id="Rectangle-Clipped">
                                <mask id="mask-2" fill="white">
                                    <use xlink:href="#path-1"></use>
                                </mask>
                                <g id="path-1"></g>
                                <g id="Rectangle" mask="url(#mask-2)">
                                    <g transform="translate(0.000000, 29.275362)" id="path-4-link">
                                        <g>
                                            <path d="M0,0.516231618 L31.3816316,23.1462125 C33.1310895,24.4077849 35.4902414,24.4077849 37.2396993,23.1462125 L68.621331,0.516231618 L68.621331,42.4572292 C68.621331,45.228944 66.3773605,47.4758628 63.6092828,47.4758628 L5.01204819,47.4758628 C2.24397041,47.4758628 3.3899176e-16,45.228944 0,42.4572292 L0,0.516231618 Z" id="path-4" fill="#FDFEFF"></path>
                                        </g>
                                    </g>
                                </g>
                            </g>
                            <g id="Rectangle-Copy-Clipped">
                                <mask id="mask-4" fill="white">
                                    <use xlink:href="#path-3"></use>
                                </mask>
                                <g id="path-1"></g>
                                <g id="Rectangle-Copy" filter="url(#filter-5)" mask="url(#mask-4)">
                                    <g transform="translate(0.000000, 52.695652)" id="path-6-link">
                                        <g>
                                            <path d="M37.2396993,1.42559204 L68.621331,24.0555729 L1.0658141e-14,24.0555729 L31.3816316,1.42559204 C33.1310895,0.164019734 35.4902414,0.164019734 37.2396993,1.42559204 Z" id="path-6" fill="#FFFFFF"></path>
                                        </g>
                                    </g>
                                </g>
                            </g>
                        </g>
                    </g>
                    <g id="requestraised">
                        <g id="envelope">
                            <g id="Mask" fill="#E3ECF3">
                                <g id="path-1-link">
                                    <path d="M3.25084126,26.8079626 L30.2203968,2.05522811 C32.9468325,-0.447102324 37.1449025,-0.400831431 39.8156679,2.16098665 L65.5315096,26.8278142 C67.5052464,28.7210373 68.621331,31.3391765 68.621331,34.0759948 L68.621331,69.2232748 C68.621331,73.380847 65.2553754,76.7512251 61.1032587,76.7512251 L7.51807229,76.7512251 C3.36595561,76.7512251 -7.64973441e-17,73.380847 -5.84984983e-16,69.2232748 L-3.55271368e-15,34.2072268 C-5.14470031e-15,31.3935874 1.17940657,28.7091312 3.25084126,26.8079626 Z" id="path-1"></path>
                                </g>
                            </g>
                            <g id="Rectangle-Clipped">
                                <mask id="mask-7" fill="white">
                                    <use xlink:href="#path-6"></use>
                                </mask>
                                <g id="path-1"></g>
                                <g id="Rectangle" mask="url(#mask-7)">
                                    <g transform="translate(0.000000, 29.275362)" id="path-4-link">
                                        <g>
                                            <path d="M0,0.516231618 L31.3816316,23.1462125 C33.1310895,24.4077849 35.4902414,24.4077849 37.2396993,23.1462125 L68.621331,0.516231618 L68.621331,42.4572292 C68.621331,45.228944 66.3773605,47.4758628 63.6092828,47.4758628 L5.01204819,47.4758628 C2.24397041,47.4758628 3.3899176e-16,45.228944 0,42.4572292 L0,0.516231618 Z" id="path-4" fill="#FDFEFF"></path>
                                        </g>
                                    </g>
                                </g>
                            </g>
                            <g id="Rectangle-Copy-Clipped">
                                <mask id="mask-9" fill="white">
                                    <use xlink:href="#path-8"></use>
                                </mask>
                                <g id="path-1"></g>
                                <g id="Rectangle-Copy" filter="url(#filter-10)" mask="url(#mask-9)">
                                    <g transform="translate(0.000000, 52.695652)" id="path-6-link">
                                        <g>
                                            <path d="M37.2396993,1.42559204 L68.621331,24.0555729 L1.0658141e-14,24.0555729 L31.3816316,1.42559204 C33.1310895,0.164019734 35.4902414,0.164019734 37.2396993,1.42559204 Z" id="path-6" fill="#FFFFFF"></path>
                                        </g>
                                    </g>
                                </g>
                            </g>
                        </g>
                    </g>
                    <g id="check" transform="translate(58.666667, 63.238095)">
                        <g id="success">
                            <path d="M8.38095238,0 C3.75982417,0 0,3.75950184 0,8.38095238 C0,13.0024029 3.75982417,16.7619048 8.38095238,16.7619048 C13.0020806,16.7619048 16.7619048,13.0024029 16.7619048,8.38095238 C16.7619048,3.75950184 13.0020806,0 8.38095238,0 Z" id="Shape" fill="#F46885"></path>
                            <rect id="Rectangle" fill="#FFFFFF" x="7.61904762" y="3.80952381" width="1.52380952" height="9.14285714" rx="0.761904762"></rect>
                            <path d="M8.38095238,3.80952381 L8.38095238,3.80952381 C8.80174076,3.80952381 9.14285714,4.15064019 9.14285714,4.57142857 L9.14285714,12.1904762 C9.14285714,12.6112646 8.80174076,12.952381 8.38095238,12.952381 L8.38095238,12.952381 C7.960164,12.952381 7.61904762,12.6112646 7.61904762,12.1904762 L7.61904762,4.57142857 C7.61904762,4.15064019 7.960164,3.80952381 8.38095238,3.80952381 Z" id="Rectangle" fill="#FFFFFF" transform="translate(8.380952, 8.380952) rotate(-270.000000) translate(-8.380952, -8.380952) "></path>
                        </g>
                    </g>
                </g>
            </g>
        </g>
    </g>
</svg>