<?xml version="1.0" encoding="UTF-8"?>
<svg width="107px" height="94px" viewBox="0 0 107 94" version="1.1" xmlns="http://www.w3.org/2000/svg" xmlns:xlink="http://www.w3.org/1999/xlink">
    <!-- Generator: Sketch 52.5 (67469) - http://www.bohemiancoding.com/sketch -->
    <title>team</title>
    <desc>Created with Sketch.</desc>
    <defs>
        <path d="M37.289504,0.0308657775 C38.017846,0.0102885925 38.8032397,0 39.645685,0 C52.0855458,0 65.6118776,7.47794598 80.2246805,22.4338379 C88.548577,34.3985515 89.8064477,43.9200655 83.9982925,50.9983799 C78.1922686,58.0740972 65.7561613,64.3708575 46.6899706,69.8886611 C43.2530881,70.9864079 39.5904784,71.5789474 35.7894737,71.5789474 C16.0234932,71.5789474 0,55.5554542 0,35.7894737 C0,16.0234932 16.0234932,0 35.7894737,0 C36.2919698,0 36.7920471,0.0103558523 37.289504,0.0308657775 Z" id="path-1"></path>
        <linearGradient x1="64.7638847%" y1="27.3595669%" x2="50%" y2="50%" id="linearGradient-3">
            <stop stop-color="#6886B3" offset="0%"></stop>
            <stop stop-color="#90AADB" offset="100%"></stop>
        </linearGradient>
        <path d="M9.47398551,2.23615592 C9.47398551,3.67247592 8.85599523,8.79848347 9.47398551,10.3354785 C9.68364986,10.8568725 9.27862267,11.889714 9.47398551,12.3020722 C10.1963548,13.8268143 6.04051297,17.3464903 6.04051297,17.3464903 L4.77357915,28.6379778 L0.383221844,28.6379778 C0.383221844,28.6379778 1.37088071,18.3472438 0.895715981,17.3464903 C0.420561786,16.3457368 0.383221844,14.5312223 0.383221844,12.824677 C0.383221844,11.1181028 0.383221844,7.66433268 1.42875078,6.11623804 C2.47427971,4.5681434 9.47398551,0.2674 9.47398551,2.23615592 Z" id="path-4"></path>
        <linearGradient x1="50%" y1="0%" x2="50%" y2="100%" id="linearGradient-6">
            <stop stop-color="#A9C4E5" offset="0%"></stop>
            <stop stop-color="#7192C7" offset="100%"></stop>
        </linearGradient>
        <linearGradient x1="28.9899876%" y1="27.9637841%" x2="28.9899876%" y2="97.4056683%" id="linearGradient-7">
            <stop stop-color="#C4CFE2" offset="0%"></stop>
            <stop stop-color="#99AFD7" offset="100%"></stop>
        </linearGradient>
        <linearGradient x1="66.4059369%" y1="96.8038727%" x2="60.7470739%" y2="22.5656568%" id="linearGradient-8">
            <stop stop-color="#F4F8FF" offset="0%"></stop>
            <stop stop-color="#C3D8F5" offset="100%"></stop>
        </linearGradient>
        <linearGradient x1="43.6361052%" y1="85.265527%" x2="6.77392332%" y2="100%" id="linearGradient-9">
            <stop stop-color="#FFFFFF" stop-opacity="0.5" offset="0%"></stop>
            <stop stop-color="#AFC3E5" offset="100%"></stop>
        </linearGradient>
        <linearGradient x1="17.2373684%" y1="41.5235058%" x2="-5.57070234%" y2="14.0163926%" id="linearGradient-10">
            <stop stop-color="#FFFFFF" stop-opacity="0" offset="0%"></stop>
            <stop stop-color="#A1B8E3" offset="100%"></stop>
        </linearGradient>
        <path d="M13.7524766,1.51692769 C13.7524766,1.51692769 10.2169557,4.38482437 9.33991643,4.6259024 C8.46287719,4.86698044 2.76195279,7.28421726 2.42586922,8.02513642 C2.08978565,8.76599944 0.322683892,11.5654578 0.381627432,12.3212548 C0.440570973,13.077108 2.74079936,29.7264267 2.42586922,37.5848745 C2.11093907,45.4433224 2.42586922,44.3746966 2.42586922,46.2280331 C2.42586922,48.0814258 1.09124593,50.6168436 1.75855758,52.0112673 C2.42586922,53.4056909 3.57263349,53.7337906 5.31948517,54.1322936 C7.06633684,54.5307966 8.32643381,54.9963905 10.811623,54.1322936 C13.2968498,53.2681967 14.6877818,55.2354474 18.7964778,54.6838986 C22.9051738,54.1322936 26.4328657,55.8723898 29.525482,51.6483028 C30.6627234,52.3961837 31.2518577,51.9026867 33.0671758,50.8612902 C34.8824561,49.8198376 34.7434156,46.1121539 34.199223,44.825974 C33.6550303,43.539794 31.2160625,42.1898356 32.1416191,39.3266549 C33.0671758,36.4634181 34.199223,26.9143362 34.199223,22.604575 C34.199223,18.2947577 36.6801965,10.5220402 37.449436,8.02513642 C35.2485384,6.33349172 25.7014163,0.949434256 23.8831624,0.388509553 C23.1722641,2.32825017 19.715711,3.30317335 19.1464128,2.78609633 C18.5771522,2.26907545 18.9147789,6.43477369 18.9147789,6.43477369 C18.9147789,6.43477369 18.230793,8.02513642 17.5902054,9.69449235 C16.9496179,11.3639044 15.4717008,13.9791576 15.4717008,15.7792706 C14.1217582,14.3905735 15.7635955,10.3866794 15.4717008,8.83522375 C15.1359183,7.05066239 15.8074456,5.36474427 16.5471005,3.02228992 C15.4717008,2.76414441 15.377075,3.20430553 15.0437391,2.7373642 C14.1725716,1.51692769 13.7524766,1.51692769 13.7524766,1.51692769 Z" id="path-11"></path>
        <linearGradient x1="-30.2321633%" y1="83.8070478%" x2="83.6802978%" y2="73.1776026%" id="linearGradient-13">
            <stop stop-color="#EAF0F7" stop-opacity="0.115545743" offset="0%"></stop>
            <stop stop-color="#D1DDED" offset="100%"></stop>
        </linearGradient>
        <linearGradient x1="0%" y1="56.064794%" x2="57.5693573%" y2="20.6038007%" id="linearGradient-14">
            <stop stop-color="#E2E9F4" offset="0%"></stop>
            <stop stop-color="#E5EFFD" offset="100%"></stop>
        </linearGradient>
        <linearGradient x1="31.6087503%" y1="42.9700243%" x2="-16.9574129%" y2="61.3689591%" id="linearGradient-15">
            <stop stop-color="#FFFFFF" stop-opacity="0" offset="0%"></stop>
            <stop stop-color="#FFFFFF" offset="100%"></stop>
        </linearGradient>
        <path d="M37.3113516,59.4068419 C34.5573392,49.8418957 33.4049636,43.0201799 33.5051767,40.6567494 C33.6053898,38.2933188 36.2809507,33.6960796 39.3080938,33.9816502 C42.3352533,34.2672209 42.9765771,40.0623923 43.6041715,43.1751422 C44.2317659,46.2878922 48.8666072,62.2806427 49.1012988,64.5328495 C49.336007,66.7850183 47.2816146,70.3885263 44.657278,70.7004993 C42.0329415,71.0124344 40.0653639,68.9717501 37.3113516,59.4068419 Z" id="path-16"></path>
        <filter x="-79.2%" y="-34.0%" width="257.3%" height="168.1%" filterUnits="objectBoundingBox" id="filter-17">
            <feGaussianBlur stdDeviation="6.5" in="SourceAlpha" result="shadowBlurInner1"></feGaussianBlur>
            <feOffset dx="-14" dy="5" in="shadowBlurInner1" result="shadowOffsetInner1"></feOffset>
            <feComposite in="shadowOffsetInner1" in2="SourceAlpha" operator="arithmetic" k2="-1" k3="1" result="shadowInnerInner1"></feComposite>
            <feColorMatrix values="0 0 0 0 0.631372549   0 0 0 0 0.721568627   0 0 0 0 0.890196078  0 0 0 0.137483016 0" type="matrix" in="shadowInnerInner1"></feColorMatrix>
        </filter>
        <linearGradient x1="50%" y1="0%" x2="50%" y2="100%" id="linearGradient-18">
            <stop stop-color="#B5CCEF" offset="0%"></stop>
            <stop stop-color="#E5EFFD" offset="100%"></stop>
        </linearGradient>
        <linearGradient x1="31.1750322%" y1="58.933311%" x2="49.752516%" y2="28.4521956%" id="linearGradient-19">
            <stop stop-color="#081E41" offset="0%"></stop>
            <stop stop-color="#3A4860" offset="100%"></stop>
        </linearGradient>
        <circle id="path-20" cx="10.9303905" cy="10.1324278" r="10.0509338"></circle>
        <filter x="-149.2%" y="-119.4%" width="398.5%" height="398.5%" filterUnits="objectBoundingBox" id="filter-22">
            <feOffset dx="0" dy="6" in="SourceAlpha" result="shadowOffsetOuter1"></feOffset>
            <feGaussianBlur stdDeviation="9" in="shadowOffsetOuter1" result="shadowBlurOuter1"></feGaussianBlur>
            <feColorMatrix values="0 0 0 0 0   0 0 0 0 0   0 0 0 0 0  0 0 0 0.0416666667 0" type="matrix" in="shadowBlurOuter1"></feColorMatrix>
        </filter>
        <linearGradient x1="19.6591829%" y1="10.4097304%" x2="35.6256825%" y2="60.9829464%" id="linearGradient-23">
            <stop stop-color="#000000" stop-opacity="0.288269928" offset="0%"></stop>
            <stop stop-color="#000000" stop-opacity="0" offset="100%"></stop>
        </linearGradient>
        <path d="M23.7266668,43.6853933 C24.0238585,47.4491598 24.2777991,49.6103724 24.4884886,50.1690309 C24.6991781,50.7276895 26.0818032,52.868361 28.6363636,56.5910456 C28.504499,57.031495 28.3017664,57.4124548 28.0281656,57.7339251 C27.6422874,58.1873172 27.2412903,58.4491489 26.9322728,58.6516854 C26.4317678,58.2306303 24.5497777,56.2536707 21.2863025,52.7208067 C21.0106264,50.7885083 21.0106264,49.2932557 21.2863025,48.2350488 C21.5619786,47.176842 22.3754334,45.6602901 23.7266668,43.6853933 Z" id="path-24"></path>
        <path d="M0,1.59673788 C0,1.93773551 0.515861349,3.41583494 0.675544475,5.22118446 C0.787985186,6.49241949 0.538893258,7.92591356 0.613530221,9.23891892 C0.733952186,11.357369 1.07107994,16.9759875 1.62491347,26.0947744 C2.00256735,26.3728603 2.40427499,26.5438564 2.83003639,26.6077627 C3.25579779,26.671669 3.81739435,26.6114233 4.51482609,26.4270256 C5.31665992,20.1928982 5.91134013,16.3141141 6.29886672,14.7906734 C6.57871108,13.690552 6.33891212,11.290956 7.36661895,9.46571964 C7.59006378,9.06887531 7.79354931,8.63509051 7.97707552,8.16436523 L7.97706984,8.16436302 C8.68243008,6.35518883 8.70568719,4.35122068 8.04250412,2.52616382 L7.12455515,0 C2.37485172,0.677084747 0,1.20933071 0,1.59673788 Z" id="path-25"></path>
        <linearGradient x1="89.2651436%" y1="83.2202103%" x2="79.8543348%" y2="25.681003%" id="linearGradient-27">
            <stop stop-color="#CFDDF3" stop-opacity="0.477723053" offset="0%"></stop>
            <stop stop-color="#A1B8E3" offset="100%"></stop>
        </linearGradient>
        <linearGradient x1="112.999777%" y1="45.115866%" x2="50%" y2="88.6153495%" id="linearGradient-28">
            <stop stop-color="#F3D8CF" stop-opacity="0.174422554" offset="0%"></stop>
            <stop stop-color="#000000" offset="100%"></stop>
        </linearGradient>
        <linearGradient x1="41.7005915%" y1="13.9922531%" x2="41.7005915%" y2="100%" id="linearGradient-29">
            <stop stop-color="#DCE4F2" offset="0%"></stop>
            <stop stop-color="#C8D2E7" offset="100%"></stop>
        </linearGradient>
        <linearGradient x1="50.494446%" y1="32.3730469%" x2="50.494446%" y2="98.267438%" id="linearGradient-30">
            <stop stop-color="#DCE4F2" offset="0%"></stop>
            <stop stop-color="#C0CBE2" offset="100%"></stop>
        </linearGradient>
        <linearGradient x1="76.5024701%" y1="87.9944211%" x2="20.6120218%" y2="12.0677904%" id="linearGradient-31">
            <stop stop-color="#99AFD7" offset="0%"></stop>
            <stop stop-color="#C3CEE1" offset="100%"></stop>
        </linearGradient>
        <path d="M0.00373987213,2.14748916 C0.0820926734,2.3723282 0.780595796,2.97383489 0.950868787,3.64777905 C1.05213322,4.04858587 0.975842511,4.45038425 0.975842511,4.75988628 C0.975842511,5.58980634 1.27524511,5.55818232 1.91183076,5.43258639 C2.50790984,5.75631323 2.61155649,6.48160579 3.27732688,6.85888077 C3.94309728,7.23615575 5.09315421,5.87142637 5.47256358,6.26028168 C5.59647322,6.38727623 5.66760766,6.63009035 5.91588797,6.85888077 C6.08824795,7.01771056 6.12747198,7.44061184 6.03356006,8.12758463 C7.53708919,7.92543414 8.37443291,7.45611019 8.54559122,6.71961277 C8.26834514,6.20711785 7.62646395,4.61470906 7.62646395,4.18022899 C7.62646395,3.74574892 8.68695436,2.08836853 5.79685381,0.480182777 C2.90675325,-1.12800298 -0.121210761,1.78893427 0.00373987213,2.14748916 Z" id="path-32"></path>
        <linearGradient x1="50%" y1="100%" x2="50%" y2="3.061617e-15%" id="linearGradient-34">
            <stop stop-color="#EDF3FD" offset="0%"></stop>
            <stop stop-color="#FFFFFF" offset="100%"></stop>
        </linearGradient>
        <path d="M7.64285304,5.62256604 C6.00096948,7.76777709 5.1390935,8.84038262 5.05722511,8.84038262 C4.93442251,8.84038262 2.10605966,4.65799001 2.10605966,4.467026 C2.10605966,4.276062 2.30779085,3.52722157 1.74808649,2.72840415 C1.18838213,1.92958673 0.846662014,0.530401984 0.552146915,0.281290712 C0.257631815,0.03217944 0.255520596,-0.0764134148 0.107471339,0.0584115572 C-0.040577918,0.193236529 -0.0309894635,0.308709508 0.107471339,0.602914575 C0.245932141,0.897119643 0.552146915,1.74267395 0.552146915,1.96029259 C0.552146915,2.17791124 0.410519283,2.95317765 0.552146915,3.24838683 C0.693774546,3.54359601 0.558426125,4.69220983 0.734273104,5.27742506 C0.910120082,5.86264029 4.09844584,11.7997188 5.03397991,11.6721965 C5.6576693,11.5871816 7.07110133,10.3708358 9.27427601,8.02315905 C9.61548704,6.98847481 9.50609208,6.27764318 8.94609115,5.89066417 C8.38609022,5.50368516 7.95167751,5.41431912 7.64285304,5.62256604 Z" id="path-35"></path>
        <linearGradient x1="3.21749237%" y1="50%" x2="81.4761324%" y2="50%" id="linearGradient-37">
            <stop stop-color="#D9E1F1" offset="0%"></stop>
            <stop stop-color="#BBC7DF" offset="100%"></stop>
        </linearGradient>
        <linearGradient x1="0%" y1="36.5977503%" x2="72.482512%" y2="73.5971602%" id="linearGradient-38">
            <stop stop-color="#D9E1F1" offset="0%"></stop>
            <stop stop-color="#FCFCFE" offset="100%"></stop>
        </linearGradient>
        <linearGradient x1="-8.95546568%" y1="107.033068%" x2="114.296249%" y2="59.2322695%" id="linearGradient-39">
            <stop stop-color="#F3DFD1" stop-opacity="0.126387002" offset="0%"></stop>
            <stop stop-color="#A5B2CA" offset="100%"></stop>
        </linearGradient>
        <radialGradient cx="50%" cy="1.74148935%" fx="50%" fy="1.74148935%" r="37.9875646%" gradientTransform="translate(0.500000,0.017415),scale(0.924559,1.000000),rotate(90.000000),scale(1.000000,2.667525),translate(-0.500000,-0.017415)" id="radialGradient-40">
            <stop stop-color="#303E57" offset="0%"></stop>
            <stop stop-color="#081E41" offset="100%"></stop>
        </radialGradient>
        <path d="M0.779763598,0.0878557082 C0.779763598,0.320455122 1.28276473,1.01940295 2.18371511,1.01940295 C3.08466548,1.01940295 5.7811837,0.298325606 6.67505611,2.55237487 C7.56892852,4.80642413 6.33503442,4.91247336 7.79113935,6.54057346 C9.24724429,8.16867356 9.30284356,12.5764708 5.74327933,11.5223969 C2.18371511,10.468323 2.74473693,5.67704335 2.74473693,4.39870456 C2.74473693,3.12036577 1.40695626,2.66343684 0.206496229,2.37517834 C-0.447713011,1.01940295 0.779763598,-0.144743705 0.779763598,0.0878557082 Z" id="path-41"></path>
        <path d="M1.87822233,9.05578772 C1.628334,8.05937939 0.181906683,2.7308999 0.512322611,1.39444746 C0.842738539,0.057995009 3.38585785,-0.590965974 3.65181559,0.989625023 C3.81914517,1.98406732 4.17746321,4.67486976 4.72676972,9.06203234 L4.72676962,9.06203235 C4.79224335,9.58495341 4.69971358,10.115503 4.46109078,10.5853885 L2.30766689,14.8258161 L1.37803126,16.5311887 C0.80089216,16.4414825 0.377846015,16.0526239 0.108892824,15.3646128 C-0.022674623,15.0280491 0.0587935714,14.6377435 0.246876504,14.2346097 C1.05563516,12.50113 2.08096202,9.86419487 1.87822233,9.05578772 Z" id="path-43"></path>
        <linearGradient x1="46.8853726%" y1="24.146356%" x2="-17.2552992%" y2="100%" id="linearGradient-45">
            <stop stop-color="#D9E1F1" offset="0%"></stop>
            <stop stop-color="#B4C1DB" offset="100%"></stop>
        </linearGradient>
        <linearGradient x1="139.364173%" y1="31.9049427%" x2="3.0552666%" y2="98.507159%" id="linearGradient-46">
            <stop stop-color="#C2CCDF" offset="0%"></stop>
            <stop stop-color="#DDE4F2" offset="100%"></stop>
        </linearGradient>
        <linearGradient x1="0%" y1="50%" x2="148.209635%" y2="55.2897135%" id="linearGradient-47">
            <stop stop-color="#05C896" offset="0%"></stop>
            <stop stop-color="#0AA981" offset="100%"></stop>
        </linearGradient>
        <circle id="path-48" cx="10.0628183" cy="10.0509338" r="10.0509338"></circle>
        <filter x="-149.2%" y="-119.4%" width="398.5%" height="398.5%" filterUnits="objectBoundingBox" id="filter-50">
            <feOffset dx="0" dy="6" in="SourceAlpha" result="shadowOffsetOuter1"></feOffset>
            <feGaussianBlur stdDeviation="9" in="shadowOffsetOuter1" result="shadowBlurOuter1"></feGaussianBlur>
            <feColorMatrix values="0 0 0 0 0   0 0 0 0 0   0 0 0 0 0  0 0 0 0.0416666667 0" type="matrix" in="shadowBlurOuter1"></feColorMatrix>
        </filter>
        <path d="M0.474072262,0.983576287 C0.474072262,2.38756068 -0.669278341,5.13877933 0.821656143,5.85206809 C1.81561246,6.32759392 2.75207354,5.33044834 3.63103936,2.86063132 C3.55527639,1.04702052 3.06810511,0.140215113 2.16952553,0.140215113 C0.821656143,0.140215113 0.474072262,-0.420408103 0.474072262,0.983576287 Z" id="path-51"></path>
        <linearGradient x1="-25.8029357%" y1="100%" x2="42.445841%" y2="30.4265738%" id="linearGradient-53">
            <stop stop-color="#DCE4F2" offset="0%"></stop>
            <stop stop-color="#C2CDE3" offset="100%"></stop>
        </linearGradient>
        <linearGradient x1="-25.8029357%" y1="100%" x2="41.2238106%" y2="31.6723227%" id="linearGradient-54">
            <stop stop-color="#EDE5EB" offset="0%"></stop>
            <stop stop-color="#DBE2EF" offset="100%"></stop>
        </linearGradient>
        <path d="M11.1059274,0.0449263907 C13.0581609,7.27939471 14.1613598,11.7196997 14.4155242,13.3658413 C14.7967708,15.8350537 15.7297296,24.1814316 15.5980325,25.5274806 C14.9607641,26.1847212 13.8127571,25.7911976 13.6127826,25.670649 C13.4128081,25.5501005 12.1807461,18.6830279 11.1059274,16.0191021 C10.0311086,13.3551763 7.6123637,10.9034366 6.01858991,8.22320675 C6.01858991,9.38619257 5.60835725,11.5238263 4.78789194,14.6361078 C3.59151053,20.1322614 2.78975567,23.3251592 2.38262736,24.2148012 C2.09285307,24.688232 0.630014796,24.341072 0.0626192604,24.2148012 C0.0626192604,22.9644041 1.28598633,16.6472157 1.28598633,14.4541904 C1.28598633,12.261165 0.947654811,8.28678606 0.821251365,6.6575022 C0.69484792,5.02821834 0.386010084,1.86725202 0.821251365,0.0449263907 C1.55679651,0.0449263907 4.98502185,0.0449263907 11.1059274,0.0449263907 Z" id="path-55"></path>
        <linearGradient x1="50.4291761%" y1="11.68811%" x2="65.0303642%" y2="78.0458471%" id="linearGradient-57">
            <stop stop-color="#C2CDE0" offset="0%"></stop>
            <stop stop-color="#ADBEDE" offset="100%"></stop>
        </linearGradient>
        <path d="M3.59639422,0.0759876451 C3.86016915,0.592819733 4.21546014,0.96094503 4.66226719,1.18036354 C5.10907424,1.39978204 5.44412282,1.56317026 5.66741295,1.67052819 L5.3824884,2.78832382 C5.73653196,3.88414756 5.8315068,4.61678515 5.66741295,4.98623658 C5.42127216,5.54041373 4.66226719,5.90858878 4.22050656,6.40270748 C3.92599948,6.73211994 3.64260587,7.45558164 3.37032573,8.57309256 L0.458661458,8.57309256 L0.32682126,6.40270748 C-0.190862544,4.31484807 -0.0105520846,2.73745497 0.867752638,1.67052819 C1.74605736,0.603601406 2.65560456,0.0720878912 3.59639422,0.0759876451 Z" id="path-58"></path>
        <linearGradient x1="50%" y1="0%" x2="80.7999115%" y2="55.260103%" id="linearGradient-60">
            <stop stop-color="#414E65" offset="0%"></stop>
            <stop stop-color="#081E41" offset="100%"></stop>
        </linearGradient>
        <linearGradient x1="-1.11022302e-14%" y1="50%" x2="75.5130009%" y2="33.4689142%" id="linearGradient-61">
            <stop stop-color="#EDF3FD" offset="0%"></stop>
            <stop stop-color="#D6E3FA" offset="100%"></stop>
        </linearGradient>
        <linearGradient x1="50%" y1="100%" x2="50%" y2="0%" id="linearGradient-62">
            <stop stop-color="#EDF3FD" offset="0%"></stop>
            <stop stop-color="#D6E3FA" offset="100%"></stop>
        </linearGradient>
        <path d="M6.48987368,0.128406414 C7.86975901,0.496703758 8.96625073,1.16746143 9.77934884,2.14067942 C10.998996,3.6005064 10.7271987,7.99243487 11.0726511,10.606364 C11.4181035,13.2202932 12.9212186,15.120322 10.5994662,16.5954613 C8.27771391,18.0706005 1.71317744,17.7356232 1.17632857,16.5954613 C0.818429314,15.8353534 0.435511171,13.1194458 0.0275741374,8.44773864 C0.0275741374,4.24303249 0.271999275,1.96345849 0.76084955,1.60901665 C1.24969982,1.2545748 2.06472909,0.734849504 3.20593735,0.0498407542 C3.18034909,0.154069005 3.44280524,0.257825983 3.9933058,0.361111688 C4.54380637,0.464397393 5.37599566,0.386828968 6.48987368,0.128406414 Z" id="path-63"></path>
        <linearGradient x1="44.7356789%" y1="57.7816012%" x2="67.4239091%" y2="23.7180568%" id="linearGradient-65">
            <stop stop-color="#CFDDF3" offset="0%"></stop>
            <stop stop-color="#A1B8E3" offset="100%"></stop>
        </linearGradient>
        <linearGradient x1="86.2225509%" y1="231.608002%" x2="56.9641755%" y2="-57.1406441%" id="linearGradient-66">
            <stop stop-color="#CFDDF3" offset="0%"></stop>
            <stop stop-color="#A1B8E3" offset="100%"></stop>
        </linearGradient>
        <path d="M3.45137909,9.78107619 L5.34324711,11.1910887 C7.40851919,8.15433464 8.53214811,6.42797191 8.71413386,6.01200047 C8.98711248,5.38804331 8.71028862,4.33923445 8.70948626,3.99018954 C8.7086839,3.64114464 8.91087212,2.87164605 9.20677055,2.64643453 C9.50266898,2.421223 9.53779432,2.53744038 9.71758307,2.53785797 C10.6477448,2.88030466 12.0772331,1.34893363 12.4275956,1.21964596 C12.7779581,1.09035829 12.8961666,1.85440121 12.902223,2.3215036 C12.9082794,2.788606 12.7052215,3.88685322 12.3511425,4.50164451 C11.9970634,5.1164358 10.8177375,6.09429807 10.8183624,6.36616143 C10.8189874,6.63802478 8.86494853,10.7458582 8.15645697,12.4072932 C7.4479654,14.0687283 6.77877138,15.1901018 5.35136101,14.7208197 C4.39975409,14.4079649 3.05380694,13.453514 1.31351956,11.8574669 C1.65106801,11.0469667 1.98407194,10.514384 2.31253133,10.2597187 C2.64099072,10.0050534 3.02060664,9.84550592 3.45137909,9.78107619 Z" id="path-67"></path>
        <linearGradient x1="22.1069515%" y1="11.2137508%" x2="22.1069515%" y2="79.6109734%" id="linearGradient-69">
            <stop stop-color="#D6E3FA" offset="0%"></stop>
            <stop stop-color="#E3EDFE" offset="100%"></stop>
        </linearGradient>
        <circle id="path-70" cx="33.1952462" cy="21.1324278" r="10.0509338"></circle>
        <filter x="-149.2%" y="-119.4%" width="398.5%" height="398.5%" filterUnits="objectBoundingBox" id="filter-72">
            <feOffset dx="0" dy="6" in="SourceAlpha" result="shadowOffsetOuter1"></feOffset>
            <feGaussianBlur stdDeviation="9" in="shadowOffsetOuter1" result="shadowBlurOuter1"></feGaussianBlur>
            <feColorMatrix values="0 0 0 0 0   0 0 0 0 0   0 0 0 0 0  0 0 0 0.0416666667 0" type="matrix" in="shadowBlurOuter1"></feColorMatrix>
        </filter>
        <linearGradient x1="88.3600935%" y1="13.9302899%" x2="50%" y2="69.7278507%" id="linearGradient-73">
            <stop stop-color="#F1F7FF" offset="0%"></stop>
            <stop stop-color="#A7BCDE" offset="100%"></stop>
        </linearGradient>
        <linearGradient x1="56.9881582%" y1="50%" x2="-5.61092608%" y2="90.998156%" id="linearGradient-74">
            <stop stop-color="#FFFFFF" offset="0%"></stop>
            <stop stop-color="#EAEFFF" offset="100%"></stop>
        </linearGradient>
        <linearGradient x1="75.3175233%" y1="50%" x2="19.1162365%" y2="43.2760204%" id="linearGradient-75">
            <stop stop-color="#FFFFFF" stop-opacity="0" offset="0%"></stop>
            <stop stop-color="#D8E1F0" offset="100%"></stop>
        </linearGradient>
        <path d="M0.0977391093,14.8867432 C0.488036038,14.1061103 3.17681483,6.8489847 3.20398657,5.18616629 C3.2311703,3.52336437 3.72594531,0.112803352 5.16771409,0.12411998 C6.60950684,0.135436608 9.59228238,1.50888918 10.0803304,1.87628366 C10.5683665,2.24366165 11.0197458,3.83255906 11.0197458,4.71091742 C11.0197458,5.14456201 11.0266287,7.75631099 11.0197458,10.4098787 C11.0131148,12.9646156 11.8397903,15.5570967 11.8848167,15.6623611 C9.60706736,16.4222578 0.701656727,16.0372615 0.0977391093,14.8867432 Z" id="path-76"></path>
        <linearGradient x1="15.3723617%" y1="23.1243834%" x2="25.8702546%" y2="100%" id="linearGradient-78">
            <stop stop-color="#FFFFFF" offset="0%"></stop>
            <stop stop-color="#E9F0FC" offset="100%"></stop>
        </linearGradient>
        <linearGradient x1="47.8322148%" y1="65.529462%" x2="67.4520815%" y2="105.572982%" id="linearGradient-79">
            <stop stop-color="#FFFFFF" stop-opacity="0" offset="0%"></stop>
            <stop stop-color="#ABBFD6" offset="100%"></stop>
        </linearGradient>
        <path d="M0.955396044,6.74703437 C1.74327809,7.25960866 7.10968858,8.75156186 7.70614391,8.53141608 C8.30262425,8.31127912 12.02447,3.79389969 12.2332719,3.30380024 C12.4420738,2.81370078 9.8187628,0.100232988 9.505335,0.514346528 C9.1919072,0.928477702 6.59649649,4.17422604 6.30511888,4.17422604 C6.01375378,4.17422604 2.89931343,1.54944081 1.98780528,1.40086357 C1.07630962,1.25229515 0.403266106,2.36930926 0.229977057,2.95463358 C0.0566630067,3.5399579 0.167501498,6.23445126 0.955396044,6.74703437 Z" id="path-80"></path>
        <linearGradient x1="50.7983741%" y1="8.9287466%" x2="85.3629416%" y2="59.7894059%" id="linearGradient-82">
            <stop stop-color="#C1CDE1" offset="0%"></stop>
            <stop stop-color="#90AADB" offset="100%"></stop>
        </linearGradient>
        <path d="M3.26317971,0.610242299 C3.76112637,1.21278871 3.8541244,1.48752006 4.39218631,1.97682882 C4.93024821,2.46613757 5.66879443,2.63966413 5.88253228,2.71656441 C6.09628983,2.79346468 5.45504345,3.28101886 5.66879443,3.91271824 C5.88253228,4.54441761 6.33474177,5.47435342 6.33474177,5.72153065 C6.33474177,5.9686975 5.48917557,6.40475643 4.68935967,6.77264643 C3.88955034,7.14054681 3.77645528,7.45018281 3.86912493,8.0740956 C3.96180114,8.69802916 4.0931937,9.50351464 4.68935967,9.85613256 C5.08680803,10.0912043 3.96211639,9.67342822 1.31529788,8.60278369 C0.19161766,6.03150925 -0.0893073214,3.93605721 0.472536073,2.31642757 C1.31529788,-0.113016885 2.76523306,0.00769588646 3.26317971,0.610242299 Z" id="path-83"></path>
        <path d="M8.85714029,4.05075396 C10.0107644,3.68449699 8.99868577,2.11934953 9.40750009,2.11934953 C9.57704609,2.11934953 10.2608981,1.99077698 10.4380378,1.62737502 C10.830658,0.821873812 9.9310958,0.103751445 7.69340583,0.271245354 C3.86989444,0.5574261 3.6677085,4.45305786 3.99085805,6.40238864 C4.31402948,8.35171942 0.0789026302,14.2710482 1.41379157,16.8058113 C2.74868052,19.3405745 5.42027477,18.3698712 7.69340583,16.1570638 C9.96652593,13.9442564 9.367912,6.44336871 8.7720445,6.08581272 C8.17616606,5.72825673 7.70351622,4.41703035 8.85714029,4.05075396 Z" id="path-85"></path>
        <filter x="-62.6%" y="-39.9%" width="231.9%" height="175.4%" filterUnits="objectBoundingBox" id="filter-87">
            <feGaussianBlur stdDeviation="5" in="SourceAlpha" result="shadowBlurInner1"></feGaussianBlur>
            <feOffset dx="-6" dy="-6" in="shadowBlurInner1" result="shadowOffsetInner1"></feOffset>
            <feComposite in="shadowOffsetInner1" in2="SourceAlpha" operator="arithmetic" k2="-1" k3="1" result="shadowInnerInner1"></feComposite>
            <feColorMatrix values="0 0 0 0 0.0404334217   0 0 0 0 0.104773574   0 0 0 0 0.223875135  0 0 0 0.409561821 0" type="matrix" in="shadowInnerInner1"></feColorMatrix>
        </filter>
        <linearGradient x1="12.4459525%" y1="35.5856549%" x2="65.8717076%" y2="70.6376182%" id="linearGradient-88">
            <stop stop-color="#001630" stop-opacity="0.0615942029" offset="0%"></stop>
            <stop stop-color="#081E41" offset="100%"></stop>
        </linearGradient>
    </defs>
    <g id="Illustrations" stroke="none" stroke-width="1" fill="none" fill-rule="evenodd">
        <g transform="translate(-668.000000, -8205.000000)" id="Boost">
            <g transform="translate(683.000000, 38.000000)">
                <g id="team" transform="translate(2.000000, 8178.000000)">
                    <g id="man" transform="translate(0.000000, 11.421053)">
                        <mask id="mask-2" fill="white">
                            <use xlink:href="#path-1"></use>
                        </mask>
                        <use id="Mask" fill-opacity="0.5" fill="#F0F5F8" xlink:href="#path-1"></use>
                        <g mask="url(#mask-2)">
                            <g transform="translate(16.842105, 17.157895)">
                                <g id="neck" stroke-width="1" fill="none" fill-rule="evenodd" transform="translate(16.561404, 15.173784)">
                                    <mask id="mask-5" fill="white">
                                        <use xlink:href="#path-4"></use>
                                    </mask>
                                    <use id="Path-23" fill="url(#linearGradient-3)" xlink:href="#path-4"></use>
                                    <path d="M2.51143076,9.24745743 C2.88453191,9.39610679 3.24405818,9.53467731 3.59043309,9.6635642 C10.1549682,12.1062427 11.9957653,11.0707342 11.9957653,9.24745743 C11.9957653,7.9678033 11.2266462,4.32391398 9.68840781,-1.68421053 C-0.0590133533,3.62632255 -2.45133904,7.27021187 2.51143076,9.24745743 Z" id="Path-9" fill="url(#linearGradient-6)" style="mix-blend-mode: multiply;" opacity="0.153292411" mask="url(#mask-5)"></path>
                                </g>
                                <path d="M14.6782184,2.51406529 C13.7507632,4.79746479 12.761385,5.95268741 13.2251374,8.8217464 C13.6888567,11.6907811 13.2421459,11.4497971 12.9603702,13.0063603 C12.6785614,14.5628749 12.320537,15.8471111 13.1061271,18.8348169 C13.8917173,21.8225713 14.3787882,23.9112365 16.9088738,23.9015981 C19.438976,23.891984 22.6984258,23.3615814 23.772085,21.5208436 C24.2055466,20.7776924 24.3806007,20.3686558 24.6862745,19.2040133 C24.9012415,18.3849931 25.0672033,17.8223735 25.0672033,16.6498892 C25.6163298,17.9435938 26.7713883,17.2531503 26.8571267,17.185633 C27.5365086,16.6506175 28.1465313,15.4242359 28.2052084,14.2670225 C28.3228275,11.9478614 27.5315071,6.57682761 24.7833574,5.6891977 C22.0352078,4.80159206 15.6057066,0.230641509 14.6782184,2.51406529 Z" id="face" fill="url(#linearGradient-7)" fill-rule="evenodd"></path>
                                <g id="shirt" stroke-width="1" fill="none" fill-rule="evenodd" transform="translate(3.011164, 27.312810)">
                                    <mask id="mask-12" fill="white">
                                        <use xlink:href="#path-11"></use>
                                    </mask>
                                    <g id="Path-26">
                                        <use fill="url(#linearGradient-8)" xlink:href="#path-11"></use>
                                        <use fill="url(#linearGradient-9)" xlink:href="#path-11"></use>
                                        <use fill="url(#linearGradient-10)" xlink:href="#path-11"></use>
                                    </g>
                                    <path d="M32.5812562,54.4652606 C27.0630665,42.7662412 29.5227562,25.8307547 32.2932126,23.1737574 C35.0636691,20.5167601 41.2330392,48.6143152 39.2127976,51.1009431 C37.192556,53.587571 38.0994459,66.1642801 32.5812562,54.4652606 Z" id="Path-10" fill="url(#linearGradient-13)" style="mix-blend-mode: multiply;" mask="url(#mask-12)"></path>
                                    <path d="M13.2523753,7.64286723 C14.5246377,6.3833958 16.6511478,4.75777088 16.6511478,4.75777088 C16.6511478,4.75777088 16.6511478,3.80239302 16.6511478,1.89163729 L14.1457592,3.96168012 C12.701995,7.25545248 12.4042003,8.48251485 13.2523753,7.64286723 Z" id="Path-14" fill="url(#linearGradient-13)" style="mix-blend-mode: multiply;" mask="url(#mask-12)"></path>
                                    <path d="M18.5050544,6.44442138 C18.9652416,6.74299851 19.8810051,6.91607671 21.252345,6.96365597 C20.0937799,3.1255952 19.1780163,1.35930115 18.5050544,1.66477383 C17.4956116,2.12298285 17.8147736,5.99655568 18.5050544,6.44442138 Z" id="Path-15" fill="url(#linearGradient-13)" style="mix-blend-mode: multiply;" mask="url(#mask-12)"></path>
                                </g>
                                <path d="M24.6256459,35.5340436 C23.2487519,34.8443406 22.9791564,30.4418797 21.7483339,29.8183222 C20.5175115,29.1947646 25.5698447,28.3161662 26.2002108,23.9467842 C26.8332057,23.9467842 27.9565477,26.7819995 29.0517954,28.3888425 C28.9234747,30.8417392 25.2376831,32.6843707 24.6256459,35.5340436 Z" id="colar" fill="#FFFFFF" fill-rule="evenodd"></path>
                                <path d="M16.2445553,24.6443093 C16.2445553,25.7502885 15.6625409,28.8506308 17.8862977,29.5513834 C17.0378405,29.6912174 16.3468641,30.1888523 15.9892642,30.9427344 C15.5113608,31.9502403 14.9474947,33.972942 14.2666404,34.7165636 C14.2666404,32.9938809 13.8742119,29.590025 14.2666404,28.2850811 C14.6590824,26.9801479 15.9233739,25.3466339 16.2445553,24.6443093 Z" id="colar" fill="#FFFFFF" fill-rule="evenodd"></path>
                                <g id="sleeve" fill="none">
                                    <use fill="url(#linearGradient-14)" fill-rule="evenodd" xlink:href="#path-16"></use>
                                    <use fill="url(#linearGradient-15)" fill-rule="evenodd" xlink:href="#path-16"></use>
                                    <use fill="black" fill-opacity="1" filter="url(#filter-17)" xlink:href="#path-16"></use>
                                </g>
                                <path d="M3.34822798e-14,70.7517482 C3.34822798e-14,66.4178729 1.72168179,47.6386804 3.330797,39.9232578 C3.56232878,38.8131039 3.95651387,38.5664284 4.16822179,37.9344588 C5.81840996,44.0216106 6.32599044,70.5773726 5.85394755,72.1700108 C5.38187717,73.7626489 2.62105403,72.1700108 3.34822798e-14,70.7517482 Z" id="sleeve" fill="url(#linearGradient-18)" fill-rule="evenodd"></path>
                                <path d="M14.8865578,6.56754126 C13.8497974,6.89474873 13.2880135,9.77076338 13.4640672,11.9432243 C12.8843338,10.7158959 12.2924639,5.73334734 14.2573886,3.04956632 C16.2223359,0.365773156 15.9233273,6.24033379 14.8865578,6.56754126 Z" id="hair" fill="#3A4860" fill-rule="evenodd"></path>
                                <path d="M15.670412,0.910305621 C12.247319,3.23800953 13.8034781,6.29933553 17.3120777,6.81562352 C20.8206607,7.33189633 21.1994035,7.46890042 23.3552511,6.81562352 C23.8371548,8.46528691 22.3388612,10.0378675 23.3552511,11.2462773 C24.1696746,12.2106015 24.4185097,12.5702961 24.4670346,13.6620195 C24.515543,14.7537277 24.9069883,14.9741269 24.9069883,14.9741269 C24.9069883,14.9741269 24.9533934,11.936821 25.8909179,11.8438967 C26.8284589,11.7509725 27.5521426,12.3755406 28.0720381,13.6620195 C28.2217201,14.0323508 28.0233973,13.2727057 28.0720381,12.562952 C28.1194203,11.8714827 28.4156873,11.2472636 28.4156873,10.2747302 C28.4156873,8.51661982 27.5013322,6.48859813 26.5284988,5.26087214 C24.2747402,2.41665263 18.0923683,0.277270546 15.670412,0.910305621 Z" id="hair" fill="url(#linearGradient-19)" fill-rule="evenodd"></path>
                            </g>
                        </g>
                    </g>
                    <g id="bubbles">
                        <g id="person" transform="translate(0.000000, 16.000000)">
                            <mask id="mask-21" fill="white">
                                <use xlink:href="#path-20"></use>
                            </mask>
                            <g id="Mask">
                                <use fill="black" fill-opacity="1" filter="url(#filter-22)" xlink:href="#path-20"></use>
                                <use fill="#FFFFFF" fill-rule="evenodd" xlink:href="#path-20"></use>
                            </g>
                            <g mask="url(#mask-21)">
                                <g transform="translate(-7.000000, -8.000000)">
                                    <polygon id="ankle" fill="#FCDFDC" points="18.2954545 63.8779785 18.2954545 62.6966292 19.8863636 62.6966292 19.8863636 64.1442072 18.8201325 64.3146067"></polygon>
                                    <polygon id="ankle" fill="#FCDFDC" points="27.5612295 59.4606742 26.6477273 58.8104938 27.7944143 57.4382022 28.6363636 58.3501143"></polygon>
                                    <g id="leg" fill="none">
                                        <use fill="#F46885" xlink:href="#path-24"></use>
                                        <use fill-opacity="0.639999986" fill="url(#linearGradient-23)" xlink:href="#path-24"></use>
                                    </g>
                                    <g id="leg" stroke-width="1" fill="none" transform="translate(15.511364, 36.808989)">
                                        <mask id="mask-26" fill="white">
                                            <use xlink:href="#path-25"></use>
                                        </mask>
                                        <use id="Mask" fill="#F46885" xlink:href="#path-25"></use>
                                        <path d="M0.668521454,1.98684846 C1.83747907,2.34176861 6.20453053,2.56302376 8.12562385,1.33268193 C9.40635273,0.512454041 7.82338929,0.235845105 3.37673353,0.502855119 C0.791953732,1.25557059 -0.110783625,1.75023504 0.668521454,1.98684846 Z" id="Path-98" fill="url(#linearGradient-27)" style="mix-blend-mode: multiply;" opacity="0.5" mask="url(#mask-26)"></path>
                                        <path d="M4.8776399,6.28997696 C4.45330389,6.18838996 4.06302269,6.14876019 3.7144839,5.78326475 C3.44580577,5.50151526 3.18181818,5.04246025 3.18181818,4.43979029 C3.18181818,3.51680708 3.32225779,2.84586575 3.60313701,2.42696629" id="Path-3" fill="url(#linearGradient-28)" style="mix-blend-mode: multiply;" opacity="0.5" mask="url(#mask-26)"></path>
                                    </g>
                                    <path d="M31.0770801,59.988891 L29.9923893,60.9317743 L29.3803431,60.437604 L28.606145,62.1367872 L26.8546812,63.6428716 C26.767772,63.7176048 26.6402737,63.7167643 26.5543239,63.6408922 C26.2988838,63.4153991 26.2042501,63.1373053 26.2704228,62.8066107 C27.0426732,61.2844495 27.3098003,59.6238658 27.6916289,58.8041968 C28.3398381,58.7353234 28.4434824,58.6573785 28.7607533,58.3694367 C29.0008012,58.1515792 29.1682388,57.8411677 29.2630661,57.4382022 C29.4828573,57.7095555 29.7307335,58.0155826 30.0066948,58.3562833 C30.2826561,58.6969841 30.6394512,59.2411867 31.0770801,59.988891 Z" id="shoe" fill="url(#linearGradient-29)"></path>
                                    <path d="M19.9534882,66.5005305 L18.4436079,66.5005305 L18.2706166,65.8564948 L16.5139677,66.5005305 L13.9328471,66.5524711 C13.8408055,66.5543232 13.7564806,66.5003811 13.7182642,66.4152036 L13.7182719,66.4152 C13.5879088,66.1246443 13.5227273,65.8879414 13.5227273,65.7050916 C15.1606609,65.1710909 17.1176843,64.2162262 17.9719057,63.9101124 C18.5469672,64.2205145 18.6832007,64.2281394 19.1328776,64.2205145 C19.4731043,64.2147455 19.815256,64.1112781 20.1593328,63.9101124 C20.1593328,64.2003174 20.1593328,64.5276052 20.1593328,64.8919756 C20.1593328,65.2563459 20.090718,65.7925309 19.9534882,66.5005305 Z" id="shoe" fill="url(#linearGradient-30)"></path>
                                    <g id="face" stroke-width="1" fill="none" transform="translate(11.136364, 14.561798)">
                                        <mask id="mask-33" fill="white">
                                            <use xlink:href="#path-32"></use>
                                        </mask>
                                        <use id="Mask" fill="url(#linearGradient-31)" xlink:href="#path-32"></use>
                                        <path d="M4.46415355,6.29220305 C4.9135565,5.97898891 5.51471159,4.93670932 5.51471159,4.85632593 C5.51471159,4.802737 5.62003664,5.64907251 5.83068674,7.39533247 C4.62006264,6.86872229 4.16455158,6.50101248 4.46415355,6.29220305 Z" id="Path-95" fill="#6A87B9" style="mix-blend-mode: multiply;" opacity="0.5" mask="url(#mask-33)"></path>
                                        <path d="M1.98863636,6.13716242 C2.10432316,5.89258935 2.30252598,5.74777196 2.62379866,5.66292135" id="Path-5" stroke="#728BBB" stroke-width="0.5" stroke-linecap="round" mask="url(#mask-33)"></path>
                                    </g>
                                    <path d="M7.52566439,29.8402658 C6.88724644,29.3184559 6.0970252,29.1396239 5.60097268,28.4269312 C5.10492015,27.7142384 3.66404423,25.3190618 4.03872356,25.0095155 C4.41340289,24.6999693 5.35138931,23.8651685 5.705135,23.8651685 C6.0588807,23.8651685 6.70925785,25.1311484 7.03266527,25.707123 C7.35607269,26.2830975 7.90072539,27.5107108 7.90072539,28.0174353 C7.90072539,28.5241599 8.16408234,30.3620757 7.52566439,29.8402658 Z" id="palm" fill="#C2CDE0"></path>
                                    <g id="phone" stroke-width="1" fill="none" transform="translate(3.579545, 21.842697)">
                                        <path d="M0.284041568,0.970703621 L1.67716768,0.140119895 C1.94121469,-0.0173052948 2.28280196,0.0675580334 2.44247542,0.330251573 L4.67485735,4.00294905 C4.81255073,4.22948113 4.74053273,4.5247442 4.51400065,4.66243758 C4.51181277,4.66376744 4.50961429,4.66507978 4.50740541,4.66637446 L3.01267962,5.54247332 C2.78540573,5.67568465 2.49323864,5.60083029 2.35801761,5.37474633 L0.117905677,1.62937205 C-0.0181676231,1.40186314 0.0559555892,1.10712151 0.283464505,0.971048214 C0.283656779,0.970933215 0.283849133,0.970818351 0.284041568,0.970703621 Z" id="Rectangle-18" fill="#929FB8"></path>
                                        <path d="M0.570743452,0.945075964 L2.03257037,0.12090885 C2.14539847,0.0572972069 2.28834691,0.0946889641 2.35557673,0.205399278 L4.55571197,3.82845943 C4.62451126,3.94175426 4.58844049,4.08937072 4.47514565,4.15817001 C4.47233418,4.1598773 4.46948791,4.16152661 4.46660864,4.1631169 L2.96726996,4.99123722 C2.8539442,5.05382973 2.71139816,5.01525922 2.64509671,4.90406269 L0.48247323,1.27704934 C0.414591461,1.16320239 0.451853601,1.01588216 0.56570055,0.94800039 C0.567369616,0.947005202 0.569050707,0.946030321 0.570743452,0.945075964 Z" id="Rectangle-18-Copy" fill="url(#linearGradient-34)"></path>
                                    </g>
                                    <g id="arm" stroke-width="1" fill="none" transform="translate(6.761364, 24.269663)">
                                        <mask id="mask-36" fill="white">
                                            <use xlink:href="#path-35"></use>
                                        </mask>
                                        <use id="Mask" fill="#C2CDE0" xlink:href="#path-35"></use>
                                        <path d="M6.76136364,6.04706044 C7.2640671,6.69398769 7.72782938,7.24181635 8.15265049,7.69054641 C8.51596958,8.66432129 8.23830219,9.38529732 8.51596958,9.28474615 C8.79363697,9.18419497 9.32575792,6.46713745 9.05969745,6.04706044 C8.94743756,5.86981578 8.13553039,5.15494321 7.51541883,5.27112104 C7.27563119,5.31604523 7.02427946,5.57469169 6.76136364,6.04706044 Z" id="Path-96" fill="#A5B2CA" style="mix-blend-mode: multiply;" opacity="0.5" mask="url(#mask-36)"></path>
                                        <path d="M4.77272727,8.8988764 C4.85900545,8.97614079 4.98619503,9.26363943 5.09062431,9.49802627" id="Path-6" stroke="#9FAEC9" stroke-width="0.5" stroke-linecap="round" mask="url(#mask-36)"></path>
                                    </g>
                                    <path d="M15.5616284,30.741573 C14.3862885,29.9202628 13.0238928,28.4112391 13.7050907,27.743423 C14.3862885,27.0756069 16.9599307,23.8124372 17.4913471,23.1295726 C18.0227635,22.446708 18.7101168,26.7276536 17.9745462,27.743423 C17.2389756,28.7591924 16.5644461,29.8995294 15.5616284,30.741573 Z" id="sleeve" fill="url(#linearGradient-37)"></path>
                                    <path d="M15.7076384,38.2596438 C15.5618458,37.2052304 16.451086,34.0102771 15.636958,32.1113253 C15.286332,31.293491 14.7541784,30.632987 14.71886,29.7183726 C14.6700428,28.4541943 15.238565,26.9739199 15.5618458,26.345345 C16.8036384,23.9308502 16.7747753,22.5889277 17.1342759,22.2067193 C17.654034,22.2067193 19.049071,21.8073623 19.5615957,21.0337079 C20.1364826,21.3598826 22.128619,23.6835981 22.7320781,24.9772011 C23.3355372,26.2708041 23.1432386,30.251578 23.1432386,32.6352255 C23.1432386,35.018873 23.4659091,36.5869666 23.4659091,37.2052304 C23.4659091,37.8234941 15.9197579,39.7937526 15.7076384,38.2596438 Z" id="shirt" fill="url(#linearGradient-38)"></path>
                                    <path d="M19.1435145,38.4269663 C19.4872031,37.2541518 19.6590474,36.4350582 19.6590474,35.9696856 C19.6590474,35.2716266 18.885748,30.1507747 19.1435145,29.5793567 C19.3153588,29.1984114 19.9607025,30.940467 21.0795455,34.8055236 C20.6035692,36.4297206 20.2865123,37.4305389 20.1283747,37.8079787 C19.9702371,38.1854184 19.6419504,38.3917476 19.1435145,38.4269663 Z" id="hadow" fill="url(#linearGradient-39)" style="mix-blend-mode: multiply;"></path>
                                    <path d="M13.8798356,15.9422648 C12.0130499,14.9155663 11.4215484,16.7850654 11.1486053,16.5474911 C10.4277534,15.6385943 10.80842,14.6052717 11.1486053,13.7419845 C11.7207284,12.2901089 15.2194681,9.894417 17.9772528,12.4543098 C19.8157759,14.160905 19.9769449,16.4813785 18.4607599,19.4157303 C17.9978282,19.2422252 17.7076244,18.9180071 17.5901484,18.4430761 C17.4726725,17.9681452 16.8697369,17.6221194 15.7813415,17.4049988 C16.0863978,16.9361382 16.0863978,16.5594392 15.7813415,16.2749019 C15.323757,15.8480958 15.1252339,15.9864911 14.984185,16.1288711 C14.8870735,16.1754045 14.83301,16.4079711 14.8219946,16.826571 C14.434323,16.3614378 14.12027,16.066669 13.8798356,15.9422648 Z" id="hair" fill="url(#radialGradient-40)"></path>
                                    <g id="hair" stroke-width="1" fill="none" transform="translate(17.897727, 16.988764)">
                                        <mask id="mask-42" fill="white">
                                            <use xlink:href="#path-41"></use>
                                        </mask>
                                        <use id="Mask" fill="#223762" xlink:href="#path-41"></use>
                                        <path d="M0.261368698,2.26988782 C1.2203324,1.99647513 3.31699259,2.00882429 3.93229116,3.23023692 C4.54758974,4.45164954 5.56512124,9.96606845 3.30049935,10.2031261 C1.03587746,10.4401838 -0.697595001,2.54330052 0.261368698,2.26988782 Z" id="Path-2" fill="#223762" style="mix-blend-mode: multiply;" opacity="0.300000012" mask="url(#mask-42)"></path>
                                        <path d="M0.384932584,2.47140868 C0.384932584,1.9329473 0.411466081,1.00845035 1.24810235,0.556555683" id="Path-93" stroke="#38548E" stroke-width="0.5" stroke-linecap="round" stroke-linejoin="round" mask="url(#mask-42)"></path>
                                    </g>
                                    <g id="arm" stroke-width="1" fill="none" transform="translate(18.693182, 26.292135)">
                                        <mask id="mask-44" fill="white">
                                            <use xlink:href="#path-43"></use>
                                        </mask>
                                        <use id="Mask" fill="#C2CDE0" xlink:href="#path-43"></use>
                                        <path d="M0.678685958,3.16876299 C1.66280507,3.37689525 3.42069523,3.48163435 4.18921413,3.16876299 C4.70156007,2.96018207 4.62058963,2.53290526 3.94630281,1.88693254 C1.11181217,2.60273133 0.0226065482,3.03000814 0.678685958,3.16876299 Z" id="Path-94" fill="#B2BDCF" style="mix-blend-mode: multiply;" opacity="0.5" mask="url(#mask-44)"></path>
                                    </g>
                                    <path d="M18.3855633,29.5154979 C17.9696809,28.350897 17.1952193,23.6119524 19.3081451,23.0910123 C21.4210708,22.5700721 22.6704545,28.056633 22.6704545,28.5734216 C22.6704545,29.0902102 18.8014457,30.6800989 18.3855633,29.5154979 Z" id="sleeve" fill="url(#linearGradient-45)"></path>
                                    <path d="M16.5533246,26.7043325 L17.6519862,27.0454889 C17.7354572,27.0714083 17.7869078,27.1564622 17.7720215,27.2439214 L17.3402032,29.7809228 C17.326531,29.8612491 17.2604295,29.921527 17.1804291,29.9266207 L16.4989643,29.9700102 C16.4467297,29.973336 16.3958193,29.9524521 16.3604713,29.9131992 L15.9545462,29.46243 C15.9183334,29.4222166 15.9024843,29.3672086 15.9116297,29.313478 L16.3321763,26.8426999 C16.3484853,26.7468817 16.438083,26.6826517 16.5322982,26.6992382 C16.5394045,26.7004893 16.546427,26.7021907 16.5533246,26.7043325 Z" id="pocket" fill="url(#linearGradient-46)"></path>
                                    <polygon id="Path-12" fill="url(#linearGradient-47)" points="22.6704545 54.2022472 22.6704545 50.5617978 21.0795455 52.3820225"></polygon>
                                </g>
                            </g>
                        </g>
                        <g id="person" transform="translate(27.000000, 0.000000)">
                            <mask id="mask-49" fill="white">
                                <use xlink:href="#path-48"></use>
                            </mask>
                            <g id="Mask">
                                <use fill="black" fill-opacity="1" filter="url(#filter-50)" xlink:href="#path-48"></use>
                                <use fill="#FFFFFF" fill-rule="evenodd" xlink:href="#path-48"></use>
                            </g>
                            <g mask="url(#mask-49)" id="Group-7">
                                <g transform="translate(3.000000, 5.000000)">
                                    <g>
                                        <g id="Path-7" transform="translate(0.077678, 18.462930)">
                                            <mask id="mask-52" fill="white">
                                                <use xlink:href="#path-51"></use>
                                            </mask>
                                            <use id="Mask" fill="#C2CDE0" xlink:href="#path-51"></use>
                                            <path d="M0.388250836,1.61226098 C0.508483852,1.85938009 2.14691342,3.16662717 2.41783991,3.47574302 C2.6887664,3.78485887 2.75070624,4.59282337 2.90627983,4.50934744 C3.00999555,4.45369683 3.00999555,3.63586058 2.90627983,2.0558387 C1.14743849,1.59537414 0.308095493,1.4475149 0.388250836,1.61226098 Z" fill="#9DACC8" style="mix-blend-mode: multiply;" opacity="0.5" mask="url(#mask-52)"></path>
                                        </g>
                                        <g id="Group-10" transform="translate(3.011232, 50.494412)" fill="url(#linearGradient-53)">
                                            <path d="M0.0823621023,1.01693949 C0.0823621023,1.74246619 -0.102952628,2.64905216 0.0823621023,3.00936528 C0.267676833,3.3696784 1.18618831,3.55912005 1.48921072,3.55912005 C1.79223313,3.55912005 1.89358612,3.04224998 2.36418649,3.30816467 C2.83478685,3.57407936 5.51695555,3.55912005 5.69121359,2.48017957 C5.86547163,1.40123909 4.50572912,1.40123909 3.90095121,1.40123909 C3.29617331,1.40123909 2.65569151,1.10334242 1.75768098,0.329842745 C0.85967044,-0.443656926 0.0823621023,0.291412785 0.0823621023,1.01693949 Z" id="Path-90"></path>
                                        </g>
                                        <g id="Group-11" transform="translate(16.467745, 52.010467)" fill="url(#linearGradient-54)">
                                            <path d="M0.0911785563,1.01693949 C0.0911785563,1.74246619 -0.113973195,2.64905216 0.0911785563,3.00936528 C0.296330308,3.3696784 1.31316388,3.55912005 1.64862333,3.55912005 C1.98408279,3.55912005 2.09628511,3.04224998 2.61726091,3.30816467 C3.13823671,3.57407936 6.10751825,3.55912005 6.30042974,2.48017957 C6.49334124,1.40123909 4.98804504,1.40123909 4.31852867,1.40123909 C3.64901229,1.40123909 2.9399701,1.10334242 1.94583199,0.329842745 C0.951693891,-0.443656926 0.0911785563,0.291412785 0.0911785563,1.01693949 Z" id="Path-90-Copy"></path>
                                        </g>
                                        <g id="Path-5" transform="translate(3.107122, 26.790890)">
                                            <mask id="mask-56" fill="white">
                                                <use xlink:href="#path-55"></use>
                                            </mask>
                                            <use id="Mask" fill="#01C08F" xlink:href="#path-55"></use>
                                            <path d="M4.47418191,15.903371 C4.47418191,14.8411809 5.01526325,6.16186055 5.13956746,6.5180385 C5.22243693,6.75549047 5.58654565,7.5153358 6.23189361,8.79757449 C5.06008581,14.2428989 4.47418191,16.6114977 4.47418191,15.903371 Z" id="Path-10" fill="#A1B8E3" style="mix-blend-mode: multiply;" opacity="0.5" mask="url(#mask-56)"></path>
                                            <path d="M1.49888373,1.85789318 C2.18339842,2.23024338 4.86401612,3.81513882 8.31810089,3.17999763 C10.0247186,2.86618276 11.122544,2.45548559 11.6149935,1.85789318 C11.6149935,1.56353624 11.2010523,0.325414898 11.085458,-0.148276453 C10.9698637,-0.621967803 0.660595754,1.4018961 1.49888373,1.85789318 Z" id="Path-6" fill="url(#linearGradient-27)" style="mix-blend-mode: multiply;" opacity="0.5" mask="url(#mask-56)"></path>
                                        </g>
                                        <g id="Path-3" transform="translate(5.437463, 3.692586)">
                                            <mask id="mask-59" fill="white">
                                                <use xlink:href="#path-58"></use>
                                            </mask>
                                            <use id="Mask" fill="url(#linearGradient-57)" xlink:href="#path-58"></use>
                                            <path d="M4.58332444,6.10762314 C3.84834889,6.10762314 2.70182158,5.44939954 2.48115082,5.22451511 C2.26048007,4.99963069 4.31855226,7.43247369 4.1467592,7.81994422 C4.0112297,8.12562414 3.5273838,8.21913503 3.83253658,8.21913503 C4.93308408,8.21913503 5.31829999,6.10762314 4.58332444,6.10762314 Z" fill="#758CBC" style="mix-blend-mode: multiply;" opacity="0.5" mask="url(#mask-59)"></path>
                                            <path d="M4.24244624,0.738475296 C4.99565818,1.74717217 5.39898773,2.50369483 5.4524349,3.00804327 C5.50588206,3.51239171 5.90921161,3.00804327 6.66242355,1.49499796 L6.66242355,-0.0180473631 L4.24244624,0.738475296 Z" id="Path-15" fill="#728BBB" mask="url(#mask-59)"></path>
                                        </g>
                                        <path d="M5.76441726,10.003732 C3.19720457,7.57680247 1.16441213,5.50561317 2.91755801,2.61957442 C4.67070388,-0.266464336 8.74988221,-1.23664577 9.51236035,2.27158429 C9.51236035,3.27509266 9.14606929,4.04489261 8.41348717,4.58098413 C8.27643857,4.86305711 8.38857025,5.15370347 8.74988221,5.45292322 C9.11119416,5.75214297 9.11119416,6.02539445 8.74988221,6.27267765 C8.03639915,5.80852832 7.58649722,5.88550915 7.40017641,6.50362014 C7.12069519,7.43078663 8.15232019,7.76266716 8.15232019,7.99473891 C8.38937007,8.56331405 8.26327784,9.10764974 7.77404352,9.62774598 C7.52357906,9.87840334 6.85370364,10.003732 5.76441726,10.003732 Z" id="Path-82" fill="url(#linearGradient-60)"></path>
                                        <path d="M3.11643197,13.2775964 C1.28433557,16.5282576 0.257763791,18.5112381 0.0367166357,19.2265379 C-0.18433052,19.9418378 0.842241258,20.5063207 3.11643197,20.9199867 L4.53996441,14.7864491 L3.11643197,13.2775964 Z" id="Path-86" fill="url(#linearGradient-61)"></path>
                                        <g id="Path-4" transform="translate(2.563375, 11.470586)">
                                            <mask id="mask-64" fill="white">
                                                <use xlink:href="#path-63"></use>
                                            </mask>
                                            <use id="Mask" fill="url(#linearGradient-62)" xlink:href="#path-63"></use>
                                            <path d="M8.20899728,5.11763515 C8.95329824,8.63642892 9.54938786,10.7255994 9.99726613,11.3851465 C10.6690836,12.3744673 11.1059057,15.3682052 11.6436414,15.7251793 C12.1813771,16.0821533 12.9538519,11.9983233 12.5676145,10.6000885 C12.3101229,9.667932 11.6010594,8.06025342 10.4404241,5.77705279 L8.20899728,5.11763515 Z" fill="url(#linearGradient-65)" opacity="0.5" mask="url(#mask-64)"></path>
                                            <path d="M3.69756432,0.411414504 C4.1944487,0.744753447 5.48915014,0.925192714 6.57740536,0.925192714 C7.66566057,0.925192714 8.00602703,0.93684891 8.52673837,0.776556636 C9.04744972,0.616264361 8.84554705,0.411414504 8.52673837,0.411414504 C8.20792969,0.411414504 7.21907793,0.176329903 6.68684419,0.176329903 C6.15461044,0.176329903 3.20067993,0.0780755614 3.69756432,0.411414504 Z" id="Path-11" fill="url(#linearGradient-66)" opacity="0.5" mask="url(#mask-64)"></path>
                                        </g>
                                        <path d="M5.67519516,11.598935 C5.63250609,11.0607222 5.61116155,10.7048204 5.61116155,10.5312296 C5.61116155,10.2708434 7.75501624,10.6385483 9.29779486,10.7844846 C9.46519923,11.4340203 9.43555524,11.4769926 9.43555524,11.598935 C9.43555524,11.6598901 9.05026987,12.1824132 6.97736613,12.0129993 C6.47290555,11.9717708 6.03884856,11.8337494 5.67519516,11.598935 Z" id="Path-8" fill="#E1ECFF"></path>
                                        <g id="Group-2" transform="translate(17.886627, 12.671699) rotate(-26.000000) translate(-17.886627, -12.671699) translate(9.523253, 4.614145)">
                                            <path d="M4.0948614,11.8487297 C5.23708942,11.842333 6.8187112,11.4172347 6.82172851,10.8773839 C6.82474582,10.337533 5.52632194,10.1590327 4.38409392,10.1654294 C3.2418659,10.1718261 2.73873657,10.7142517 2.59541712,11.0904613 C2.66329491,11.4093916 2.95263337,11.8551264 4.0948614,11.8487297 Z" id="Oval" fill="#A1B8E3" transform="translate(4.708575, 11.007031) rotate(-40.000000) translate(-4.708575, -11.007031) "></path>
                                            <g id="Path-2" transform="translate(2.485697, -0.000000)">
                                                <mask id="mask-68" fill="white">
                                                    <use xlink:href="#path-67"></use>
                                                </mask>
                                                <use id="Mask" fill="#C2CDE0" transform="translate(7.107937, 8.016714) rotate(12.000000) translate(-7.107937, -8.016714) " xlink:href="#path-67"></use>
                                                <path d="M3.69991359,9.51365038 C2.63901534,11.0068538 2.07938224,12.0357198 2.02101428,12.6002484 C1.96264632,13.1647771 1.62277673,12.8751444 1.00140552,11.7313506 C1.35646094,11.0424016 1.6832905,10.5752272 1.98189423,10.3298273 C2.28049795,10.0844275 2.85317107,9.81236848 3.69991359,9.51365038 Z" fill="#9FAEC9" style="mix-blend-mode: multiply;" opacity="0.5" mask="url(#mask-68)"></path>
                                                <path d="M4.70884813,10.6766246 C4.79400548,10.7816991 4.96371929,10.9635727 5.02422798,11.3167018" id="Path-9" stroke="#9DACC8" stroke-width="0.8" stroke-linecap="round" mask="url(#mask-68)"></path>
                                            </g>
                                            <path d="M3.12955753,12.41346 C3.88457031,11.4110684 4.93792062,10.0386107 6.25774141,9.55726019 C3.78167591,6.64303419 3.02743814,5.67079225 2.2470515,4.758601 C1.46666487,3.84640975 -0.783134554,6.20931193 0.426682627,8.53355891 C1.63649981,10.8578059 2.71905114,11.9216182 3.12955753,12.41346 Z" id="Path-85" fill="url(#linearGradient-69)"></path>
                                        </g>
                                    </g>
                                </g>
                            </g>
                        </g>
                        <g id="Group-6" transform="translate(30.000000, 5.000000)">
                            <mask id="mask-71" fill="white">
                                <use xlink:href="#path-70"></use>
                            </mask>
                            <g id="Mask">
                                <use fill="black" fill-opacity="1" filter="url(#filter-72)" xlink:href="#path-70"></use>
                                <use fill="#FFFFFF" fill-rule="evenodd" xlink:href="#path-70"></use>
                            </g>
                            <g mask="url(#mask-71)">
                                <g transform="translate(25.000000, 15.000000)">
                                    <g id="hand" transform="translate(19.349206, 6.138889)">
                                        <path d="M0.774408009,2.35463562 C0.701227573,2.25044179 0.633015813,0.757688113 0.829724447,0.551084763 C1.02643723,0.344484069 1.53170016,0.0908858252 1.60413522,0.150296569 C1.6765772,0.209704657 1.8547871,0.531576797 1.7147681,0.601183619 C1.57474772,0.670790441 1.30753036,0.914633374 1.32756133,1.00197181 C1.34758814,1.08931291 1.38876882,1.34822958 1.49350373,1.45286152 C1.59824417,1.55749081 0.945364719,2.59803513 0.774408009,2.35463562 Z" id="finger" fill="#C1CDE1"></path>
                                        <path d="M0,3.95234576 C0.366150132,3.52416374 0.59729904,3.24533367 0.693450454,3.11585555 C0.761210188,3.02460576 0.652285315,2.42532194 0.796141461,2.17904286 C0.940001336,1.93275762 1.04120844,1.8551138 1.14540572,1.71214042 C1.17938998,1.665516 1.34520634,1.43365481 1.39068895,1.30026466 C1.51088847,0.947758152 1.5479151,0.779184397 1.57369318,0.579419023 C1.60921726,0.304070407 2.01427508,0.407749137 2.11096711,0.210388796 C2.20765914,0.0130284546 2.32301778,-0.113083388 2.44009664,0.146481813 C2.55717923,0.406040863 2.25222635,0.485229067 2.25222635,0.843339117 C2.25222635,0.864867547 2.59131583,0.370716275 2.80227552,0.321397718 C2.9944404,0.321397718 2.97085834,0.569233 3.0543817,0.912666812 C3.13583953,1.24763072 3.5951621,1.65480099 3.5951621,2.09070248 C3.5951621,2.34351391 3.59587422,2.54821852 3.5951621,2.58730185 C3.58836524,2.95915934 2.14762641,4.01233626 1.83313683,4.43469945 C1.62347089,4.71627286 1.39423092,5.00819221 1.14540572,5.31045752 L0,3.95234576 Z" fill="#C1CDE1"></path>
                                    </g>
                                    <g id="shirt" transform="translate(1.460317, 7.944444)">
                                        <path d="M6.15974162,0.24250872 C6.71642103,0.383933686 8.0139194,0.592318911 8.27844224,0.587739926 C8.5429721,0.583160941 8.98522402,2.51916049 8.95753067,2.69091975 C8.92984083,2.86267014 6.33672024,1.92317662 6.15974162,1.70047467 C5.98276651,1.47776681 5.60306922,0.101077838 6.15974162,0.24250872 Z" id="colar" fill="url(#linearGradient-73)"></path>
                                        <g transform="translate(0.000000, 1.365231)">
                                            <mask id="mask-77" fill="white">
                                                <use xlink:href="#path-76"></use>
                                            </mask>
                                            <g id="">
                                                <use fill="url(#linearGradient-74)" xlink:href="#path-76"></use>
                                                <use fill="url(#linearGradient-75)" xlink:href="#path-76"></use>
                                            </g>
                                            <path d="M10.7542356,15.9976007 C8.86884926,10.1837934 7.92615606,6.95656382 7.92615606,6.31591205 C7.92615606,5.67526028 8.97204333,5.52106314 11.0638179,5.85332062 L12.8190256,15.9976007 L10.7542356,15.9976007 Z" id="Path" fill="#DAE2F1" mask="url(#mask-77)"></path>
                                        </g>
                                        <path d="M16.5824392,2.38142973 C16.9936205,2.0315234 17.5702838,1.33285106 17.8949711,0.918288755 C18.2196544,0.503726452 20.0167094,2.39221164 19.6668104,2.86589698 C19.3169235,3.33958676 18.6114029,4.21849451 18.2684915,4.47486886 C17.9255881,4.73123877 16.171246,2.73133162 16.5824392,2.38142973 Z" id="shirt-sleeve" fill="#DAE2F1"></path>
                                        <g id="sleeve" transform="translate(7.296445, 1.422116)">
                                            <mask id="mask-81" fill="white">
                                                <use xlink:href="#path-80"></use>
                                            </mask>
                                            <g id="">
                                                <use fill="url(#linearGradient-78)" xlink:href="#path-80"></use>
                                                <use fill="url(#linearGradient-79)" xlink:href="#path-80"></use>
                                            </g>
                                            <path d="M8.17315001,0.824827086 L13.3202549,3.89659692" id="Line-7" stroke="#FFFFFF" stroke-width="1.08" opacity="0.430245536" stroke-linecap="square" mask="url(#mask-81)"></path>
                                        </g>
                                    </g>
                                    <g id="face" transform="translate(6.936508, 1.083333)">
                                        <mask id="mask-84" fill="white">
                                            <use xlink:href="#path-83"></use>
                                        </mask>
                                        <use id="" fill="url(#linearGradient-82)" xlink:href="#path-83"></use>
                                        <path d="M4.41489004,1.9255417 C5.25260418,2.94068116 5.68084515,3.59327082 5.69961295,3.88331067 C5.71838074,4.17335051 5.93082252,3.95582063 6.33693827,3.23072101 L6.33693827,2.57813135 L5.2747294,2.36060147 L4.41489004,1.9255417 Z" id="Path-7" fill="#6180AF" mask="url(#mask-84)"></path>
                                        <path d="M2.14848562,5.27802426 C2.37848828,5.56292982 2.77301884,6.10357522 3.26522812,6.40827019 C3.72939441,6.69560555 4.55167622,6.7023852 5.04688796,6.7023852 C5.72711603,6.7023852 5.26965096,7.34668553 3.67449274,8.63528619 L2.14848562,8.32365385 C1.85055149,5.92418146 1.85055149,4.90897159 2.14848562,5.27802426 Z" id="Path-2" fill="#617FAE" mask="url(#mask-84)"></path>
                                    </g>
                                    <g id="hair">
                                        <mask id="mask-86" fill="white">
                                            <use xlink:href="#path-85"></use>
                                        </mask>
                                        <g id="">
                                            <use fill="#404E64" fill-rule="evenodd" xlink:href="#path-85"></use>
                                            <use fill="black" fill-opacity="1" filter="url(#filter-87)" xlink:href="#path-85"></use>
                                        </g>
                                        <path d="M8.2563062,5.86021251 C8.2563062,6.60521358 6.81068578,15.9628954 5.51358152,16.6935839 C4.21647726,17.4242723 9.51803145,17.391 9.51803145,15.9952383 C9.51803145,14.5994766 8.2563062,5.11521144 8.2563062,5.86021251 Z" id="Path-3" fill="url(#linearGradient-88)" mask="url(#mask-86)"></path>
                                    </g>
                                </g>
                            </g>
                        </g>
                    </g>
                </g>
            </g>
        </g>
    </g>
</svg>