<?xml version="1.0" encoding="UTF-8"?>
<svg width="70px" height="62px" viewBox="0 0 70 62" version="1.1" xmlns="http://www.w3.org/2000/svg" xmlns:xlink="http://www.w3.org/1999/xlink">
    <!-- Generator: Sketch 54.1 (76490) - https://sketchapp.com -->
    <title>knowledge</title>
    <desc>Created with Sketch.</desc>
    <g id="Mobile-Illustrations" stroke="none" stroke-width="1" fill="none" fill-rule="evenodd">
        <g id="Illustrations" transform="translate(-693.000000, -11437.000000)" fill-rule="nonzero">
            <g id="knowledge" transform="translate(693.000000, 11437.000000)">
                <polygon id="Path" fill="#BFD0DA" points="30.8984375 10.3333333 39.1015625 10.3333333 39.1015625 14.4666667 30.8984375 14.4666667"></polygon>
                <polygon id="Path" fill="#BFD0DA" points="4.23828125 10.3333333 10.390625 10.3333333 10.390625 14.4666667 4.23828125 14.4666667"></polygon>
                <polygon id="Path" fill="#BFD0DA" points="59.609375 10.3333333 65.7617188 10.3333333 65.7617188 14.4666667 59.609375 14.4666667"></polygon>
                <path d="M20.6445312,24.8 C13.8593164,24.8 8.33984375,19.2377733 8.33984375,12.4 C8.33984375,5.56222667 13.8593164,0 20.6445312,0 C27.4297461,0 32.9492188,5.56222667 32.9492188,12.4 C32.9492188,19.2377733 27.4297461,24.8 20.6445312,24.8 Z" id="Path" fill="#BFD0DA"></path>
                <path d="M49.3554688,24.8 C42.5702539,24.8 37.0507812,19.2377733 37.0507812,12.4 C37.0507812,5.56222667 42.5702539,0 49.3554688,0 C56.1406836,0 61.6601562,5.56222667 61.6601562,12.4 C61.6601562,19.2377733 56.1406836,24.8 49.3554688,24.8 Z" id="Path" fill="#BFD0DA"></path>
                <polygon id="Path" fill="#BFD0DA" points="49.3554687 49.6 45.2539062 53.7333333 45.2539062 55.8 45.2539062 57.8666667 49.3554687 62 57.5585937 62 57.5585937 55.8 57.5585937 49.6"></polygon>
                <polygon id="Path" fill="#E7EFF5" points="24.7460937 49.6 20.6445312 53.7333333 20.6445312 55.8 20.6445312 57.8666667 24.7460937 62 49.3554688 62 49.3554688 55.8 49.3554688 49.6"></polygon>
                <path d="M65.8984375,28.9333333 L65.8984375,39.2666667 L45.2539062,39.2666667 L42.7109375,43.4 L26.6736914,43.4 L24.7460938,39.2666667 L4.1015625,39.2666667 L4.1015625,28.9333333 L30.8984375,28.9333333 C32.4980469,28.9333333 33.8924414,29.5531956 35,30.5453333 C36.1075586,29.5530578 37.5019531,28.9333333 39.1015625,28.9333333 L65.8984375,28.9333333 Z" id="Path" fill-opacity="0.4" fill="#F46885"></path>
                <polygon id="Path" fill="#F46885" points="70 37.2 70 41.3333333 45.2539062 41.3333333 45.2539062 45.4666667 24.7460938 45.4666667 24.7460938 41.3333333 0 41.3333333 0 37.2 28.8476562 37.2 28.8476562 41.3333333 41.1523438 41.3333333 41.1523438 37.2"></polygon>
                <path d="M20.6445312,4.13333333 C16.1203711,4.13333333 12.4414062,7.84079556 12.4414062,12.4 C12.4414062,16.9592044 16.1203711,20.6666667 20.6445312,20.6666667 C25.1686914,20.6666667 28.8476562,16.9592044 28.8476562,12.4 C28.8476562,7.84079556 25.1686914,4.13333333 20.6445312,4.13333333 Z" id="Path" fill="#E7EFF5"></path>
                <path d="M49.3554687,4.13333333 C44.8313086,4.13333333 41.1523437,7.84079556 41.1523437,12.4 C41.1523437,16.9592044 44.8313086,20.6666667 49.3554687,20.6666667 C53.8796289,20.6666667 57.5585937,16.9592044 57.5585937,12.4 C57.5585937,7.84079556 53.8796289,4.13333333 49.3554687,4.13333333 Z" id="Path" fill="#E7EFF5"></path>
                <path d="M24.3936328,49.6 C20.1679297,49.6 16.0302734,51.3275956 13.0422852,54.3388667 L11.5922461,55.8 L13.0421484,57.2611333 C16.0302734,60.2724044 20.1679297,62 24.3936328,62 L24.7460938,62 L24.7460938,55.8 L24.7460938,49.6 L24.3936328,49.6 Z" id="Path" fill="#BFD0DA"></path>
            </g>
        </g>
    </g>
</svg>