<?xml version="1.0" encoding="UTF-8"?>
<svg width="343px" height="694px" viewBox="0 0 343 694" version="1.1" xmlns="http://www.w3.org/2000/svg" xmlns:xlink="http://www.w3.org/1999/xlink">
    <!-- Generator: Sketch 42 (36781) - http://www.bohemiancoding.com/sketch -->
    <title>Page 1</title>
    <desc>Created with Sketch.</desc>
    <defs></defs>
    <g id="Dashboard" stroke="none" stroke-width="1" fill="none" fill-rule="evenodd">
        <g id="Overview-01-Copy-9" transform="translate(-1023.000000, -242.000000)">
            <g id="Page-1" transform="translate(1025.464605, 244.250000)">
                <path d="M39.04769,106.092886 C39.04769,107.084012 38.2517009,107.894933 37.2788252,107.894933 L1.76886478,107.894933 C0.795104719,107.894933 -4.54747351e-13,107.084012 -4.54747351e-13,106.092886 L-4.54747351e-13,79.8974272 C-4.54747351e-13,78.9063013 0.795104719,78.09538 1.76886478,78.09538 L37.2788252,78.09538 C38.2517009,78.09538 39.04769,78.9063013 39.04769,79.8974272 L39.04769,106.092886 Z" id="Fill-1" fill="#FFFFFF"></path>
                <path d="M39.04769,106.092886 C39.04769,107.084012 38.2517009,107.894933 37.2788252,107.894933 L1.76886478,107.894933 C0.795104719,107.894933 -4.54747351e-13,107.084012 -4.54747351e-13,106.092886 L-4.54747351e-13,79.8974272 C-4.54747351e-13,78.9063013 0.795104719,78.09538 1.76886478,78.09538 L37.2788252,78.09538 C38.2517009,78.09538 39.04769,78.9063013 39.04769,79.8974272 L39.04769,106.092886 Z" id="Stroke-3" stroke="#D0D2D3" stroke-width="3" stroke-linecap="round" stroke-linejoin="round"></path>
                <path d="M40.0752608,191.393696 C40.0752608,192.377983 39.2767395,193.183308 38.3007691,193.183308 L2.8020625,193.183308 C1.82609206,193.183308 1.02757079,192.377983 1.02757079,191.393696 L1.02757079,142.56681 C1.02757079,141.582524 1.82609206,140.777198 2.8020625,140.777198 L38.3007691,140.777198 C39.2767395,140.777198 40.0752608,141.582524 40.0752608,142.56681 L40.0752608,191.393696 Z" id="Fill-5" fill="#FFFFFF"></path>
                <path d="M40.0752608,191.393696 C40.0752608,192.377983 39.2767395,193.183308 38.3007691,193.183308 L2.8020625,193.183308 C1.82609206,193.183308 1.02757079,192.377983 1.02757079,191.393696 L1.02757079,142.56681 C1.02757079,141.582524 1.82609206,140.777198 2.8020625,140.777198 L38.3007691,140.777198 C39.2767395,140.777198 40.0752608,141.582524 40.0752608,142.56681 L40.0752608,191.393696 Z" id="Stroke-7" stroke="#D0D2D3" stroke-width="3" stroke-linecap="round" stroke-linejoin="round"></path>
                <path d="M338.07079,190.498294 C338.07079,191.975052 336.872736,193.183308 335.408447,193.183308 L301.685442,193.183308 C300.221154,193.183308 299.0231,191.975052 299.0231,190.498294 L299.0231,143.462213 C299.0231,141.985455 300.221154,140.777198 301.685442,140.777198 L335.408447,140.777198 C336.872736,140.777198 338.07079,141.985455 338.07079,143.462213 L338.07079,190.498294 Z" id="Fill-9" fill="#FFFFFF"></path>
                <path d="M338.07079,190.498294 C338.07079,191.975052 336.872736,193.183308 335.408447,193.183308 L301.685442,193.183308 C300.221154,193.183308 299.0231,191.975052 299.0231,190.498294 L299.0231,143.462213 C299.0231,141.985455 300.221154,140.777198 301.685442,140.777198 L335.408447,140.777198 C336.872736,140.777198 338.07079,141.985455 338.07079,143.462213 L338.07079,190.498294 Z" id="Stroke-11" stroke="#D0D2D3" stroke-width="3" stroke-linecap="round" stroke-linejoin="round"></path>
                <path d="M40.0752608,255.103085 C40.0752608,256.087372 39.2767395,256.892697 38.3007691,256.892697 L2.8020625,256.892697 C1.82609206,256.892697 1.02757079,256.087372 1.02757079,255.103085 L1.02757079,206.276199 C1.02757079,205.291913 1.82609206,204.486587 2.8020625,204.486587 L38.3007691,204.486587 C39.2767395,204.486587 40.0752608,205.291913 40.0752608,206.276199 L40.0752608,255.103085 Z" id="Fill-13" fill="#FFFFFF"></path>
                <path d="M40.0752608,255.103085 C40.0752608,256.087372 39.2767395,256.892697 38.3007691,256.892697 L2.8020625,256.892697 C1.82609206,256.892697 1.02757079,256.087372 1.02757079,255.103085 L1.02757079,206.276199 C1.02757079,205.291913 1.82609206,204.486587 2.8020625,204.486587 L38.3007691,204.486587 C39.2767395,204.486587 40.0752608,205.291913 40.0752608,206.276199 L40.0752608,255.103085 Z" id="Stroke-15" stroke="#D0D2D3" stroke-width="3" stroke-linecap="round" stroke-linejoin="round"></path>
                <path d="M332.932936,643.349206 C332.932936,668.838161 312.247107,689.5 286.730754,689.5 L51.3400363,689.5 C25.8236833,689.5 5.13785395,668.838161 5.13785395,643.349206 L5.13785395,46.1525737 C5.13785395,20.6627285 25.8236833,0 51.3400363,0 L286.730754,0 C312.247107,0 332.932936,20.6627285 332.932936,46.1525737 L332.932936,643.349206 Z" id="Fill-17" fill="#FFFFFF"></path>
                <path d="M332.932936,643.349206 C332.932936,668.838161 312.247107,689.5 286.730754,689.5 L51.3400363,689.5 C25.8236833,689.5 5.13785395,668.838161 5.13785395,643.349206 L5.13785395,46.1525737 C5.13785395,20.6627285 25.8236833,0 51.3400363,0 L286.730754,0 C312.247107,0 332.932936,20.6627285 332.932936,46.1525737 L332.932936,643.349206 Z" id="Stroke-19" stroke="#D0D2D3" stroke-width="3"></path>
                <path d="M321.629657,608.733953 C321.629657,610.20282 320.427937,611.40462 318.959168,611.40462 L18.0840511,611.40462 C16.615282,611.40462 15.4135618,610.20282 15.4135618,608.733953 L15.4135618,74.6006219 C15.4135618,73.1317553 16.615282,71.9299553 18.0840511,71.9299553 L318.959168,71.9299553 C320.427937,71.9299553 321.629657,73.1317553 321.629657,74.6006219 L321.629657,608.733953 Z" id="Fill-21" fill="#F1F1F2"></path>
                <path d="M321.629657,608.733953 C321.629657,610.20282 320.427937,611.40462 318.959168,611.40462 L18.0840511,611.40462 C16.615282,611.40462 15.4135618,610.20282 15.4135618,608.733953 L15.4135618,74.6006219 C15.4135618,73.1317553 16.615282,71.9299553 18.0840511,71.9299553 L318.959168,71.9299553 C320.427937,71.9299553 321.629657,73.1317553 321.629657,74.6006219 L321.629657,608.733953 Z" id="Stroke-23" stroke="#DBDBDB" stroke-width="2"></path>
                <path d="M107.894933,37.5063338 C107.894933,34.3851517 110.42539,31.8546945 113.545717,31.8546945 C116.667754,31.8546945 119.198212,34.3851517 119.198212,37.5063338 C119.198212,40.627516 116.667754,43.1579732 113.545717,43.1579732 C110.42539,43.1579732 107.894933,40.627516 107.894933,37.5063338" id="Fill-25" fill="#F1F1F2"></path>
                <path d="M107.894933,37.5063338 C107.894933,34.3851517 110.42539,31.8546945 113.545717,31.8546945 C116.667754,31.8546945 119.198212,34.3851517 119.198212,37.5063338 C119.198212,40.627516 116.667754,43.1579732 113.545717,43.1579732 C110.42539,43.1579732 107.894933,40.627516 107.894933,37.5063338 Z" id="Stroke-27" stroke="#DBDBDB" stroke-width="1.5"></path>
                <path d="M164.411326,13.8722057 C164.411326,11.8861199 166.021738,10.2757079 168.008714,10.2757079 C169.99391,10.2757079 171.604322,11.8861199 171.604322,13.8722057 C171.604322,15.8591817 169.99391,17.4687034 168.008714,17.4687034 C166.021738,17.4687034 164.411326,15.8591817 164.411326,13.8722057" id="Fill-29" fill="#F1F1F2"></path>
                <path d="M164.411326,13.8722057 C164.411326,11.8861199 166.021738,10.2757079 168.008714,10.2757079 C169.99391,10.2757079 171.604322,11.8861199 171.604322,13.8722057 C171.604322,15.8591817 169.99391,17.4687034 168.008714,17.4687034 C166.021738,17.4687034 164.411326,15.8591817 164.411326,13.8722057 Z" id="Stroke-31" stroke="#DBDBDB" stroke-width="1.5"></path>
                <path d="M141.804769,650.451866 C141.804769,635.696578 153.765878,623.735469 168.521166,623.735469 C183.275566,623.735469 195.23845,635.696578 195.23845,650.451866 C195.23845,665.206267 183.275566,677.169151 168.521166,677.169151 C153.765878,677.169151 141.804769,665.206267 141.804769,650.451866" id="Fill-33" fill="#29E297"></path>
                <path d="M144.887481,650.45231 C144.887481,637.399061 155.468562,626.818182 168.521161,626.818182 C181.574658,626.818182 192.155738,637.399061 192.155738,650.45231 C192.155738,663.505559 181.574658,674.086438 168.521161,674.086438 C155.468562,674.086438 144.887481,663.505559 144.887481,650.45231" id="Fill-35" fill="#FFFFFF"></path>
                <path d="M194.210879,37.5414425 C194.210879,38.9406514 193.031776,40.0752608 191.575708,40.0752608 L143.412369,40.0752608 C141.957192,40.0752608 140.777198,38.9406514 140.777198,37.5414425 L140.777198,37.4712252 C140.777198,36.0720163 141.957192,34.9374069 143.412369,34.9374069 L191.575708,34.9374069 C193.031776,34.9374069 194.210879,36.0720163 194.210879,37.4712252 L194.210879,37.5414425 Z" id="Fill-37" fill="#E5E5E5"></path>
                <path d="M194.210879,37.5414425 C194.210879,38.9406514 193.031776,40.0752608 191.575708,40.0752608 L143.412369,40.0752608 C141.957192,40.0752608 140.777198,38.9406514 140.777198,37.5414425 L140.777198,37.4712252 C140.777198,36.0720163 141.957192,34.9374069 143.412369,34.9374069 L191.575708,34.9374069 C193.031776,34.9374069 194.210879,36.0720163 194.210879,37.4712252 L194.210879,37.5414425 Z" id="Stroke-39" stroke="#DBDBDB" stroke-width="2"></path>
            </g>
        </g>
    </g>
</svg>