<?xml version="1.0" encoding="UTF-8"?>
<svg width="650px" height="1002px" viewBox="0 0 650 1002" version="1.1" xmlns="http://www.w3.org/2000/svg" xmlns:xlink="http://www.w3.org/1999/xlink">
    <!-- Generator: Sketch 53.2 (72643) - https://sketchapp.com -->
    <title>Group</title>
    <desc>Created with Sketch.</desc>
    <defs>
        <linearGradient x1="7.2892743%" y1="-30.8837652%" x2="72.367%" y2="66.2820511%" id="linearGradient-1">
            <stop stop-color="#45E2FF" offset="0%"></stop>
            <stop stop-color="#7C6AFF" offset="100%"></stop>
        </linearGradient>
        <path d="M399.311183,14.0360681 L675.448343,173.463932 C690.492156,182.149481 699.759526,198.201038 699.759526,215.572136 L699.759526,534.427864 C699.759526,551.798962 690.492156,567.850519 675.448343,576.536068 L399.311183,735.963932 C384.267371,744.649481 365.732629,744.649481 350.688817,735.963932 L74.5516567,576.536068 C59.5078442,567.850519 50.2404736,551.798962 50.2404736,534.427864 L50.2404736,215.572136 C50.2404736,198.201038 59.5078442,182.149481 74.5516567,173.463932 L350.688817,14.0360681 C365.732629,5.35051895 384.267371,5.35051895 399.311183,14.0360681 Z" id="path-2"></path>
        <path d="M199.655592,7.01803407 L337.724172,86.7319659 C345.246078,91.0747405 349.879763,99.1005189 349.879763,107.786068 L349.879763,267.213932 C349.879763,275.899481 345.246078,283.925259 337.724172,288.268034 L199.655592,367.981966 C192.133685,372.324741 182.866315,372.324741 175.344408,367.981966 L37.2758284,288.268034 C29.7539221,283.925259 25.1202368,275.899481 25.1202368,267.213932 L25.1202368,107.786068 C25.1202368,99.1005189 29.7539221,91.0747405 37.2758284,86.7319659 L175.344408,7.01803407 C182.866315,2.67525947 192.133685,2.67525947 199.655592,7.01803407 Z" id="path-4"></path>
    </defs>
    <g id="Page-1" stroke="none" stroke-width="1" fill="none" fill-rule="evenodd">
        <g id="YOBI-•-Design-System" transform="translate(-717.000000, -487.000000)">
            <g id="1" transform="translate(667.000000, 480.000000)">
                <g id="Group">
                    <g id="text-layered" transform="translate(211.500000, 855.000000)" fill-rule="nonzero">
                        <path d="M70.15,46.3 L70.15,74 L53.25,74 L53.25,46.3 L26.85,1.15 L41.75,1.15 C43.216674,1.15 44.383329,1.49166325 45.25,2.175 C46.116671,2.85833675 46.816664,3.733328 47.35,4.8 L57.65,26 C58.4833375,27.7000085 59.2499965,29.2666595 59.95,30.7 C60.6500035,32.1333405 61.266664,33.549993 61.8,34.95 C62.3000025,33.5166595 62.8999965,32.0833405 63.6,30.65 C64.3000035,29.2166595 65.049996,27.666675 65.85,26 L76.05,4.8 C76.250001,4.3666645 76.5249982,3.9333355 76.875,3.5 C77.2250017,3.0666645 77.6249977,2.67500175 78.075,2.325 C78.5250022,1.97499825 79.0416637,1.69166775 79.625,1.475 C80.2083362,1.25833225 80.8499965,1.15 81.55,1.15 L96.55,1.15 L70.15,46.3 Z M179.45,37.55 C179.45,42.816693 178.541676,47.716644 176.725,52.25 C174.908324,56.783356 172.350016,60.7249832 169.05,64.075 C165.749983,67.4250167 161.775023,70.0499905 157.125,71.95 C152.474977,73.8500095 147.316695,74.8 141.65,74.8 C135.983305,74.8 130.81669,73.8500095 126.15,71.95 C121.48331,70.0499905 117.491683,67.4250167 114.175,64.075 C110.858317,60.7249832 108.291676,56.783356 106.475,52.25 C104.658324,47.716644 103.75,42.816693 103.75,37.55 C103.75,32.283307 104.658324,27.383356 106.475,22.85 C108.291676,18.316644 110.858317,14.38335 114.175,11.05 C117.491683,7.71665 121.48331,5.1000095 126.15,3.2 C130.81669,1.2999905 135.983305,0.35 141.65,0.35 C147.316695,0.35 152.474977,1.30832375 157.125,3.225 C161.775023,5.14167625 165.749983,7.76665 169.05,11.1 C172.350016,14.43335 174.908324,18.366644 176.725,22.9 C178.541676,27.433356 179.45,32.3166405 179.45,37.55 Z M162.15,37.55 C162.15,33.949982 161.683338,30.7083477 160.75,27.825 C159.816662,24.9416522 158.475009,22.50001 156.725,20.5 C154.974991,18.49999 152.833346,16.966672 150.3,15.9 C147.766654,14.833328 144.883349,14.3 141.65,14.3 C138.383317,14.3 135.475013,14.833328 132.925,15.9 C130.374987,16.966672 128.225009,18.49999 126.475,20.5 C124.724991,22.50001 123.383338,24.9416522 122.45,27.825 C121.516662,30.7083477 121.05,33.949982 121.05,37.55 C121.05,41.1833515 121.516662,44.4416522 122.45,47.325 C123.383338,50.2083477 124.724991,52.64999 126.475,54.65 C128.225009,56.65001 130.374987,58.1749947 132.925,59.225 C135.475013,60.2750052 138.383317,60.8 141.65,60.8 C144.883349,60.8 147.766654,60.2750052 150.3,59.225 C152.833346,58.1749947 154.974991,56.65001 156.725,54.65 C158.475009,52.64999 159.816662,50.2083477 160.75,47.325 C161.683338,44.4416522 162.15,41.1833515 162.15,37.55 Z M197.55,74 L197.55,1.15 L224.35,1.15 C229.383358,1.15 233.666649,1.616662 237.2,2.55 C240.733351,3.483338 243.616655,4.7999915 245.85,6.5 C248.083344,8.2000085 249.708328,10.2666545 250.725,12.7 C251.741672,15.1333455 252.25,17.849985 252.25,20.85 C252.25,22.4833415 252.016669,24.0583257 251.55,25.575 C251.083331,27.0916742 250.350005,28.51666 249.35,29.85 C248.349995,31.18334 247.066674,32.3916612 245.5,33.475 C243.933325,34.5583387 242.050011,35.499996 239.85,36.3 C244.650024,37.4666725 248.199988,39.3583202 250.5,41.975 C252.800011,44.5916797 253.95,47.9499795 253.95,52.05 C253.95,55.1500155 253.350006,58.03332 252.15,60.7 C250.949994,63.36668 249.191678,65.6916567 246.875,67.675 C244.558322,69.6583432 241.700017,71.2083277 238.3,72.325 C234.899983,73.4416722 231.016688,74 226.65,74 L197.55,74 Z M214.45,43.1 L214.45,61.25 L226.35,61.25 C228.583344,61.25 230.408326,60.9666695 231.825,60.4 C233.241674,59.8333305 234.349996,59.1000045 235.15,58.2 C235.950004,57.2999955 236.499998,56.283339 236.8,55.15 C237.100001,54.016661 237.25,52.8666725 237.25,51.7 C237.25,50.36666 237.075002,49.166672 236.725,48.1 C236.374998,47.033328 235.775004,46.133337 234.925,45.4 C234.074996,44.666663 232.950007,44.100002 231.55,43.7 C230.149993,43.299998 228.383344,43.1 226.25,43.1 L214.45,43.1 Z M214.45,31.8 L223.25,31.8 C225.116676,31.8 226.799992,31.666668 228.3,31.4 C229.800007,31.133332 231.074995,30.66667 232.125,30 C233.175005,29.33333 233.974997,28.4166725 234.525,27.25 C235.075003,26.0833275 235.35,24.6166755 235.35,22.85 C235.35,21.116658 235.133335,19.6750057 234.7,18.525 C234.266664,17.3749942 233.600004,16.4500035 232.7,15.75 C231.799995,15.0499965 230.65834,14.5500015 229.275,14.25 C227.89166,13.9499985 226.250009,13.8 224.35,13.8 L214.45,13.8 L214.45,31.8 Z M291.65,74 L274.65,74 L274.65,1.15 L291.65,1.15 L291.65,74 Z" id="YOBI" fill="#000000"></path>
                        <path d="M35.7625,125.925 C35.7625,128.575013 35.3208377,131.008322 34.4375,133.225 C33.5541622,135.441678 32.312508,137.349992 30.7125,138.95 C29.112492,140.550008 27.1875112,141.791662 24.9375,142.675 C22.6874887,143.558338 20.195847,144 17.4625,144 L3.6625,144 L3.6625,107.85 L17.4625,107.85 C20.195847,107.85 22.6874887,108.295829 24.9375,109.1875 C27.1875112,110.079171 29.112492,111.320825 30.7125,112.9125 C32.312508,114.504175 33.5541622,116.408322 34.4375,118.625 C35.3208377,120.841678 35.7625,123.274987 35.7625,125.925 Z M28.8875,125.925 C28.8875,123.941657 28.620836,122.162508 28.0875,120.5875 C27.554164,119.012492 26.7958382,117.679172 25.8125,116.5875 C24.8291617,115.495828 23.6333404,114.658336 22.225,114.075 C20.8166596,113.491664 19.2291755,113.2 17.4625,113.2 L10.4375,113.2 L10.4375,138.65 L17.4625,138.65 C19.2291755,138.65 20.8166596,138.358336 22.225,137.775 C23.6333404,137.191664 24.8291617,136.354172 25.8125,135.2625 C26.7958382,134.170828 27.554164,132.837508 28.0875,131.2625 C28.620836,129.687492 28.8875,127.908343 28.8875,125.925 Z M51.2875,117.95 C52.9041747,117.95 54.3916599,118.208331 55.75,118.725 C57.1083401,119.241669 58.2791617,119.995828 59.2625,120.9875 C60.2458382,121.979172 61.0124972,123.195826 61.5625,124.6375 C62.1125027,126.079174 62.3875,127.724991 62.3875,129.575 C62.3875,130.041669 62.3666669,130.429165 62.325,130.7375 C62.2833331,131.045835 62.2083339,131.287499 62.1,131.4625 C61.9916661,131.637501 61.8458342,131.7625 61.6625,131.8375 C61.4791657,131.9125 61.2458347,131.95 60.9625,131.95 L45.1125,131.95 C45.2958342,134.583347 46.0041605,136.516661 47.2375,137.75 C48.4708395,138.983339 50.1041565,139.6 52.1375,139.6 C53.137505,139.6 53.9999964,139.483335 54.725,139.25 C55.4500036,139.016665 56.0833306,138.758335 56.625,138.475 C57.1666694,138.191665 57.6416646,137.933335 58.05,137.7 C58.4583354,137.466666 58.8541647,137.35 59.2375,137.35 C59.4875012,137.35 59.7041657,137.4 59.8875,137.5 C60.0708342,137.6 60.229166,137.741666 60.3625,137.925 L62.1625,140.175 C61.4791632,140.975004 60.7125042,141.645831 59.8625,142.1875 C59.0124957,142.729169 58.1250046,143.162498 57.2,143.4875 C56.2749954,143.812502 55.3333381,144.041666 54.375,144.175 C53.4166619,144.308334 52.4875045,144.375 51.5875,144.375 C49.8041577,144.375 48.145841,144.07917 46.6125,143.4875 C45.079159,142.89583 43.745839,142.020839 42.6125,140.8625 C41.479161,139.704161 40.5875032,138.270842 39.9375,136.5625 C39.2874967,134.854158 38.9625,132.875011 38.9625,130.625 C38.9625,128.874991 39.2458305,127.229174 39.8125,125.6875 C40.3791695,124.145826 41.1916614,122.804172 42.25,121.6625 C43.3083386,120.520828 44.5999924,119.61667 46.125,118.95 C47.6500076,118.28333 49.3708237,117.95 51.2875,117.95 Z M51.4125,122.375 C49.612491,122.375 48.2041717,122.883328 47.1875,123.9 C46.1708282,124.916672 45.5208347,126.358324 45.2375,128.225 L56.8375,128.225 C56.8375,127.424996 56.7291677,126.670837 56.5125,125.9625 C56.2958322,125.254163 55.9625022,124.633336 55.5125,124.1 C55.0624977,123.566664 54.4958367,123.145835 53.8125,122.8375 C53.1291632,122.529165 52.3291712,122.375 51.4125,122.375 Z M82.6375,123.35 C82.4708325,123.616668 82.2958342,123.804166 82.1125,123.9125 C81.9291657,124.020834 81.6958347,124.075 81.4125,124.075 C81.1124985,124.075 80.7916684,123.991668 80.45,123.825 C80.1083316,123.658333 79.7125022,123.470834 79.2625,123.2625 C78.8124977,123.054166 78.3000029,122.866668 77.725,122.7 C77.1499971,122.533333 76.4708372,122.45 75.6875,122.45 C74.4708272,122.45 73.5125035,122.708331 72.8125,123.225 C72.1124965,123.741669 71.7625,124.416663 71.7625,125.25 C71.7625,125.800003 71.9416649,126.262498 72.3,126.6375 C72.6583351,127.012502 73.1333304,127.341665 73.725,127.625 C74.3166696,127.908335 74.9874962,128.162499 75.7375,128.3875 C76.4875037,128.612501 77.2541627,128.858332 78.0375,129.125 C78.8208372,129.391668 79.5874962,129.695832 80.3375,130.0375 C81.0875037,130.379168 81.7583304,130.812497 82.35,131.3375 C82.9416696,131.862503 83.4166649,132.491663 83.775,133.225 C84.1333351,133.958337 84.3125,134.841661 84.3125,135.875 C84.3125,137.108339 84.0875022,138.245828 83.6375,139.2875 C83.1874977,140.329172 82.529171,141.229163 81.6625,141.9875 C80.795829,142.745837 79.7250064,143.337498 78.45,143.7625 C77.1749936,144.187502 75.7125082,144.4 74.0625,144.4 C73.1791622,144.4 72.3166709,144.320834 71.475,144.1625 C70.6333291,144.004166 69.8250039,143.783335 69.05,143.5 C68.2749961,143.216665 67.5583366,142.883335 66.9,142.5 C66.2416634,142.116665 65.6625025,141.700002 65.1625,141.25 L66.5875,138.9 C66.7708342,138.616665 66.9874988,138.400001 67.2375,138.25 C67.4875012,138.099999 67.8041647,138.025 68.1875,138.025 C68.5708352,138.025 68.9333316,138.133332 69.275,138.35 C69.6166684,138.566668 70.0124977,138.799999 70.4625,139.05 C70.9125022,139.300001 71.4416636,139.533332 72.05,139.75 C72.6583364,139.966668 73.429162,140.075 74.3625,140.075 C75.095837,140.075 75.7249974,139.987501 76.25,139.8125 C76.7750026,139.637499 77.2083316,139.408335 77.55,139.125 C77.8916684,138.841665 78.1416659,138.512502 78.3,138.1375 C78.4583341,137.762498 78.5375,137.375002 78.5375,136.975 C78.5375,136.374997 78.3583351,135.883335 78,135.5 C77.6416649,135.116665 77.1666696,134.783335 76.575,134.5 C75.9833304,134.216665 75.3083371,133.962501 74.55,133.7375 C73.7916629,133.512499 73.0166706,133.266668 72.225,133 C71.4333294,132.733332 70.6583371,132.420835 69.9,132.0625 C69.1416629,131.704165 68.4666696,131.250003 67.875,130.7 C67.2833304,130.149997 66.8083351,129.475004 66.45,128.675 C66.0916649,127.874996 65.9125,126.908339 65.9125,125.775 C65.9125,124.724995 66.1208312,123.725005 66.5375,122.775 C66.9541687,121.824995 67.5666626,120.995837 68.375,120.2875 C69.1833374,119.579163 70.1916606,119.012502 71.4,118.5875 C72.6083394,118.162498 74.0041587,117.95 75.5875,117.95 C77.3541755,117.95 78.9624927,118.241664 80.4125,118.825 C81.8625072,119.408336 83.0708285,120.174995 84.0375,121.125 L82.6375,123.35 Z M95.8375,118.35 L95.8375,144 L89.6625,144 L89.6625,118.35 L95.8375,118.35 Z M96.7625,110.875 C96.7625,111.408336 96.6541677,111.908331 96.4375,112.375 C96.2208322,112.841669 95.9333351,113.249998 95.575,113.6 C95.2166649,113.950002 94.7958357,114.229166 94.3125,114.4375 C93.8291642,114.645834 93.3125027,114.75 92.7625,114.75 C92.229164,114.75 91.7250024,114.645834 91.25,114.4375 C90.7749976,114.229166 90.3625017,113.950002 90.0125,113.6 C89.6624982,113.249998 89.3833344,112.841669 89.175,112.375 C88.9666656,111.908331 88.8625,111.408336 88.8625,110.875 C88.8625,110.324997 88.9666656,109.808336 89.175,109.325 C89.3833344,108.841664 89.6624982,108.425002 90.0125,108.075 C90.3625017,107.724998 90.7749976,107.445834 91.25,107.2375 C91.7250024,107.029166 92.229164,106.925 92.7625,106.925 C93.3125027,106.925 93.8291642,107.029166 94.3125,107.2375 C94.7958357,107.445834 95.2166649,107.724998 95.575,108.075 C95.9333351,108.425002 96.2208322,108.841664 96.4375,109.325 C96.6541677,109.808336 96.7625,110.324997 96.7625,110.875 Z M111.6875,117.9 C112.787505,117.9 113.820828,118.012499 114.7875,118.2375 C115.754171,118.462501 116.637496,118.791664 117.4375,119.225 L124.8125,119.225 L124.8125,121.525 C124.8125,121.908335 124.712501,122.208332 124.5125,122.425 C124.312499,122.641668 123.970836,122.791666 123.4875,122.875 L121.1875,123.3 C121.354167,123.733335 121.483333,124.191664 121.575,124.675 C121.666667,125.158336 121.7125,125.666664 121.7125,126.2 C121.7125,127.466673 121.458336,128.612495 120.95,129.6375 C120.441664,130.662505 119.741671,131.53333 118.85,132.25 C117.958329,132.96667 116.900006,133.520831 115.675,133.9125 C114.449994,134.304169 113.12084,134.5 111.6875,134.5 C110.720828,134.5 109.779171,134.408334 108.8625,134.225 C108.062496,134.708336 107.6625,135.249997 107.6625,135.85 C107.6625,136.366669 107.899998,136.745832 108.375,136.9875 C108.850002,137.229168 109.474996,137.4 110.25,137.5 C111.025004,137.6 111.904162,137.6625 112.8875,137.6875 C113.870838,137.7125 114.879161,137.766666 115.9125,137.85 C116.945838,137.933334 117.954162,138.079166 118.9375,138.2875 C119.920838,138.495834 120.799996,138.824998 121.575,139.275 C122.350004,139.725002 122.974998,140.337496 123.45,141.1125 C123.925002,141.887504 124.1625,142.883327 124.1625,144.1 C124.1625,145.233339 123.883336,146.333328 123.325,147.4 C122.766664,148.466672 121.958339,149.416663 120.9,150.25 C119.841661,151.083337 118.545841,151.754164 117.0125,152.2625 C115.479159,152.770836 113.729176,153.025 111.7625,153.025 C109.81249,153.025 108.12084,152.837502 106.6875,152.4625 C105.254159,152.087498 104.066671,151.587503 103.125,150.9625 C102.183329,150.337497 101.479169,149.616671 101.0125,148.8 C100.545831,147.983329 100.3125,147.133338 100.3125,146.25 C100.3125,145.049994 100.679163,144.041671 101.4125,143.225 C102.145837,142.408329 103.162493,141.758336 104.4625,141.275 C103.829163,140.924998 103.320835,140.458336 102.9375,139.875 C102.554165,139.291664 102.3625,138.533338 102.3625,137.6 C102.3625,137.216665 102.429166,136.820835 102.5625,136.4125 C102.695834,136.004165 102.899999,135.600002 103.175,135.2 C103.450001,134.799998 103.795831,134.420835 104.2125,134.0625 C104.629169,133.704165 105.12083,133.383335 105.6875,133.1 C104.387493,132.399996 103.36667,131.466673 102.625,130.3 C101.88333,129.133328 101.5125,127.766674 101.5125,126.2 C101.5125,124.933327 101.766664,123.787505 102.275,122.7625 C102.783336,121.737495 103.491662,120.862504 104.4,120.1375 C105.308338,119.412496 106.383327,118.858335 107.625,118.475 C108.866673,118.091665 110.220826,117.9 111.6875,117.9 Z M118.4625,145.15 C118.4625,144.649997 118.312501,144.241668 118.0125,143.925 C117.712498,143.608332 117.304169,143.362501 116.7875,143.1875 C116.270831,143.012499 115.66667,142.883334 114.975,142.8 C114.28333,142.716666 113.550004,142.654167 112.775,142.6125 C111.999996,142.570833 111.200004,142.529167 110.375,142.4875 C109.549996,142.445833 108.75417,142.375 107.9875,142.275 C107.287496,142.658335 106.725002,143.112497 106.3,143.6375 C105.874998,144.162503 105.6625,144.766663 105.6625,145.45 C105.6625,145.900002 105.774999,146.320831 106,146.7125 C106.225001,147.104169 106.583331,147.441665 107.075,147.725 C107.566669,148.008335 108.204163,148.229166 108.9875,148.3875 C109.770837,148.545834 110.729161,148.625 111.8625,148.625 C113.012506,148.625 114.004162,148.537501 114.8375,148.3625 C115.670837,148.187499 116.358331,147.945835 116.9,147.6375 C117.441669,147.329165 117.837499,146.962502 118.0875,146.5375 C118.337501,146.112498 118.4625,145.650002 118.4625,145.15 Z M111.6875,130.55 C112.45417,130.55 113.12083,130.445834 113.6875,130.2375 C114.254169,130.029166 114.724998,129.741669 115.1,129.375 C115.475002,129.008331 115.758332,128.566669 115.95,128.05 C116.141668,127.533331 116.2375,126.96667 116.2375,126.35 C116.2375,125.083327 115.858337,124.07917 115.1,123.3375 C114.341663,122.59583 113.204174,122.225 111.6875,122.225 C110.170826,122.225 109.033337,122.59583 108.275,123.3375 C107.516663,124.07917 107.1375,125.083327 107.1375,126.35 C107.1375,126.950003 107.233332,127.508331 107.425,128.025 C107.616668,128.541669 107.899998,128.987498 108.275,129.3625 C108.650002,129.737502 109.124997,130.029166 109.7,130.2375 C110.275003,130.445834 110.937496,130.55 111.6875,130.55 Z M128.6875,144 L128.6875,118.35 L132.4625,118.35 C133.262504,118.35 133.787499,118.724996 134.0375,119.475 L134.4625,121.5 C134.979169,120.966664 135.524997,120.483336 136.1,120.05 C136.675003,119.616664 137.28333,119.241668 137.925,118.925 C138.56667,118.608332 139.254163,118.366668 139.9875,118.2 C140.720837,118.033333 141.520829,117.95 142.3875,117.95 C143.787507,117.95 145.029161,118.187498 146.1125,118.6625 C147.195839,119.137502 148.099996,119.804162 148.825,120.6625 C149.550004,121.520838 150.099998,122.545827 150.475,123.7375 C150.850002,124.929173 151.0375,126.241659 151.0375,127.675 L151.0375,144 L144.8625,144 L144.8625,127.675 C144.8625,126.108326 144.500004,124.895838 143.775,124.0375 C143.049996,123.179162 141.962507,122.75 140.5125,122.75 C139.445828,122.75 138.445838,122.991664 137.5125,123.475 C136.579162,123.958336 135.695838,124.616663 134.8625,125.45 L134.8625,144 L128.6875,144 Z M186.4875,114.425 C186.304166,114.791668 186.091668,115.049999 185.85,115.2 C185.608332,115.350001 185.320835,115.425 184.9875,115.425 C184.654165,115.425 184.279169,115.295835 183.8625,115.0375 C183.445831,114.779165 182.954169,114.491668 182.3875,114.175 C181.82083,113.858332 181.158337,113.570835 180.4,113.3125 C179.641663,113.054165 178.745838,112.925 177.7125,112.925 C176.779162,112.925 175.96667,113.037499 175.275,113.2625 C174.58333,113.487501 174.000002,113.799998 173.525,114.2 C173.049998,114.600002 172.695834,115.079164 172.4625,115.6375 C172.229165,116.195836 172.1125,116.80833 172.1125,117.475 C172.1125,118.325004 172.349998,119.033331 172.825,119.6 C173.300002,120.166669 173.929163,120.649998 174.7125,121.05 C175.495837,121.450002 176.387495,121.808332 177.3875,122.125 C178.387505,122.441668 179.408328,122.779165 180.45,123.1375 C181.491672,123.495835 182.512495,123.912498 183.5125,124.3875 C184.512505,124.862502 185.404163,125.462496 186.1875,126.1875 C186.970837,126.912504 187.599998,127.799995 188.075,128.85 C188.550002,129.900005 188.7875,131.174993 188.7875,132.675 C188.7875,134.308341 188.508336,135.837493 187.95,137.2625 C187.391664,138.687507 186.575005,139.929161 185.5,140.9875 C184.424995,142.045839 183.112508,142.879164 181.5625,143.4875 C180.012492,144.095836 178.23751,144.4 176.2375,144.4 C175.087494,144.4 173.954172,144.287501 172.8375,144.0625 C171.720828,143.837499 170.650005,143.516669 169.625,143.1 C168.599995,142.683331 167.641671,142.183336 166.75,141.6 C165.858329,141.016664 165.062503,140.36667 164.3625,139.65 L166.3125,136.425 C166.495834,136.191665 166.716665,135.995834 166.975,135.8375 C167.233335,135.679166 167.520832,135.6 167.8375,135.6 C168.254169,135.6 168.704164,135.770832 169.1875,136.1125 C169.670836,136.454168 170.241663,136.833331 170.9,137.25 C171.558337,137.666669 172.333329,138.045832 173.225,138.3875 C174.116671,138.729168 175.187494,138.9 176.4375,138.9 C178.354176,138.9 179.837495,138.445838 180.8875,137.5375 C181.937505,136.629162 182.4625,135.325008 182.4625,133.625 C182.4625,132.674995 182.225002,131.900003 181.75,131.3 C181.274998,130.699997 180.645837,130.195835 179.8625,129.7875 C179.079163,129.379165 178.187505,129.033335 177.1875,128.75 C176.187495,128.466665 175.170838,128.158335 174.1375,127.825 C173.104161,127.491665 172.087505,127.091669 171.0875,126.625 C170.087495,126.158331 169.195837,125.550004 168.4125,124.8 C167.629163,124.049996 167.000002,123.112506 166.525,121.9875 C166.049998,120.862494 165.8125,119.475008 165.8125,117.825 C165.8125,116.508327 166.074997,115.225006 166.6,113.975 C167.125003,112.724994 167.891662,111.616671 168.9,110.65 C169.908338,109.683328 171.145826,108.908336 172.6125,108.325 C174.079174,107.741664 175.754157,107.45 177.6375,107.45 C179.770844,107.45 181.737491,107.78333 183.5375,108.45 C185.337509,109.11667 186.870827,110.049994 188.1375,111.25 L186.4875,114.425 Z M202.6875,151.05 C202.504166,151.483336 202.266668,151.812499 201.975,152.0375 C201.683332,152.262501 201.237503,152.375 200.6375,152.375 L196.0375,152.375 L200.8375,142.1 L190.4625,118.35 L195.8625,118.35 C196.362502,118.35 196.745832,118.466666 197.0125,118.7 C197.279168,118.933335 197.479166,119.199998 197.6125,119.5 L203.0875,132.8 C203.270834,133.233336 203.429166,133.683331 203.5625,134.15 C203.695834,134.616669 203.812499,135.083331 203.9125,135.55 C204.045834,135.066664 204.191666,134.600002 204.35,134.15 C204.508334,133.699998 204.679166,133.241669 204.8625,132.775 L210.0125,119.5 C210.145834,119.166665 210.366665,118.891668 210.675,118.675 C210.983335,118.458332 211.329165,118.35 211.7125,118.35 L216.6625,118.35 L202.6875,151.05 Z M235.4875,123.35 C235.320832,123.616668 235.145834,123.804166 234.9625,123.9125 C234.779166,124.020834 234.545835,124.075 234.2625,124.075 C233.962498,124.075 233.641668,123.991668 233.3,123.825 C232.958332,123.658333 232.562502,123.470834 232.1125,123.2625 C231.662498,123.054166 231.150003,122.866668 230.575,122.7 C229.999997,122.533333 229.320837,122.45 228.5375,122.45 C227.320827,122.45 226.362504,122.708331 225.6625,123.225 C224.962496,123.741669 224.6125,124.416663 224.6125,125.25 C224.6125,125.800003 224.791665,126.262498 225.15,126.6375 C225.508335,127.012502 225.98333,127.341665 226.575,127.625 C227.16667,127.908335 227.837496,128.162499 228.5875,128.3875 C229.337504,128.612501 230.104163,128.858332 230.8875,129.125 C231.670837,129.391668 232.437496,129.695832 233.1875,130.0375 C233.937504,130.379168 234.60833,130.812497 235.2,131.3375 C235.79167,131.862503 236.266665,132.491663 236.625,133.225 C236.983335,133.958337 237.1625,134.841661 237.1625,135.875 C237.1625,137.108339 236.937502,138.245828 236.4875,139.2875 C236.037498,140.329172 235.379171,141.229163 234.5125,141.9875 C233.645829,142.745837 232.575006,143.337498 231.3,143.7625 C230.024994,144.187502 228.562508,144.4 226.9125,144.4 C226.029162,144.4 225.166671,144.320834 224.325,144.1625 C223.483329,144.004166 222.675004,143.783335 221.9,143.5 C221.124996,143.216665 220.408337,142.883335 219.75,142.5 C219.091663,142.116665 218.512502,141.700002 218.0125,141.25 L219.4375,138.9 C219.620834,138.616665 219.837499,138.400001 220.0875,138.25 C220.337501,138.099999 220.654165,138.025 221.0375,138.025 C221.420835,138.025 221.783332,138.133332 222.125,138.35 C222.466668,138.566668 222.862498,138.799999 223.3125,139.05 C223.762502,139.300001 224.291664,139.533332 224.9,139.75 C225.508336,139.966668 226.279162,140.075 227.2125,140.075 C227.945837,140.075 228.574997,139.987501 229.1,139.8125 C229.625003,139.637499 230.058332,139.408335 230.4,139.125 C230.741668,138.841665 230.991666,138.512502 231.15,138.1375 C231.308334,137.762498 231.3875,137.375002 231.3875,136.975 C231.3875,136.374997 231.208335,135.883335 230.85,135.5 C230.491665,135.116665 230.01667,134.783335 229.425,134.5 C228.83333,134.216665 228.158337,133.962501 227.4,133.7375 C226.641663,133.512499 225.866671,133.266668 225.075,133 C224.283329,132.733332 223.508337,132.420835 222.75,132.0625 C221.991663,131.704165 221.31667,131.250003 220.725,130.7 C220.13333,130.149997 219.658335,129.475004 219.3,128.675 C218.941665,127.874996 218.7625,126.908339 218.7625,125.775 C218.7625,124.724995 218.970831,123.725005 219.3875,122.775 C219.804169,121.824995 220.416663,120.995837 221.225,120.2875 C222.033337,119.579163 223.041661,119.012502 224.25,118.5875 C225.458339,118.162498 226.854159,117.95 228.4375,117.95 C230.204175,117.95 231.812493,118.241664 233.2625,118.825 C234.712507,119.408336 235.920828,120.174995 236.8875,121.125 L235.4875,123.35 Z M250.5375,144.4 C248.320822,144.4 246.612506,143.77084 245.4125,142.5125 C244.212494,141.25416 243.6125,139.516678 243.6125,137.3 L243.6125,122.975 L241.0125,122.975 C240.679165,122.975 240.391668,122.866668 240.15,122.65 C239.908332,122.433332 239.7875,122.108336 239.7875,121.675 L239.7875,119.225 L243.9125,118.55 L245.2125,111.55 C245.279167,111.216665 245.433332,110.958334 245.675,110.775 C245.916668,110.591666 246.220831,110.5 246.5875,110.5 L249.7875,110.5 L249.7875,118.575 L256.5375,118.575 L256.5375,122.975 L249.7875,122.975 L249.7875,136.875 C249.7875,137.675004 249.987498,138.299998 250.3875,138.75 C250.787502,139.200002 251.32083,139.425 251.9875,139.425 C252.370835,139.425 252.691665,139.379167 252.95,139.2875 C253.208335,139.195833 253.433332,139.1 253.625,139 C253.816668,138.9 253.987499,138.804167 254.1375,138.7125 C254.287501,138.620833 254.437499,138.575 254.5875,138.575 C254.770834,138.575 254.920833,138.620833 255.0375,138.7125 C255.154167,138.804167 255.279166,138.941666 255.4125,139.125 L257.2625,142.125 C256.362495,142.875004 255.329172,143.441665 254.1625,143.825 C252.995827,144.208335 251.787506,144.4 250.5375,144.4 Z M272.0625,117.95 C273.679175,117.95 275.16666,118.208331 276.525,118.725 C277.88334,119.241669 279.054162,119.995828 280.0375,120.9875 C281.020838,121.979172 281.787497,123.195826 282.3375,124.6375 C282.887503,126.079174 283.1625,127.724991 283.1625,129.575 C283.1625,130.041669 283.141667,130.429165 283.1,130.7375 C283.058333,131.045835 282.983334,131.287499 282.875,131.4625 C282.766666,131.637501 282.620834,131.7625 282.4375,131.8375 C282.254166,131.9125 282.020835,131.95 281.7375,131.95 L265.8875,131.95 C266.070834,134.583347 266.779161,136.516661 268.0125,137.75 C269.24584,138.983339 270.879157,139.6 272.9125,139.6 C273.912505,139.6 274.774996,139.483335 275.5,139.25 C276.225004,139.016665 276.858331,138.758335 277.4,138.475 C277.941669,138.191665 278.416665,137.933335 278.825,137.7 C279.233335,137.466666 279.629165,137.35 280.0125,137.35 C280.262501,137.35 280.479166,137.4 280.6625,137.5 C280.845834,137.6 281.004166,137.741666 281.1375,137.925 L282.9375,140.175 C282.254163,140.975004 281.487504,141.645831 280.6375,142.1875 C279.787496,142.729169 278.900005,143.162498 277.975,143.4875 C277.049995,143.812502 276.108338,144.041666 275.15,144.175 C274.191662,144.308334 273.262505,144.375 272.3625,144.375 C270.579158,144.375 268.920841,144.07917 267.3875,143.4875 C265.854159,142.89583 264.520839,142.020839 263.3875,140.8625 C262.254161,139.704161 261.362503,138.270842 260.7125,136.5625 C260.062497,134.854158 259.7375,132.875011 259.7375,130.625 C259.7375,128.874991 260.020831,127.229174 260.5875,125.6875 C261.15417,124.145826 261.966661,122.804172 263.025,121.6625 C264.083339,120.520828 265.374992,119.61667 266.9,118.95 C268.425008,118.28333 270.145824,117.95 272.0625,117.95 Z M272.1875,122.375 C270.387491,122.375 268.979172,122.883328 267.9625,123.9 C266.945828,124.916672 266.295835,126.358324 266.0125,128.225 L277.6125,128.225 C277.6125,127.424996 277.504168,126.670837 277.2875,125.9625 C277.070832,125.254163 276.737502,124.633336 276.2875,124.1 C275.837498,123.566664 275.270837,123.145835 274.5875,122.8375 C273.904163,122.529165 273.104171,122.375 272.1875,122.375 Z M288.1875,144 L288.1875,118.35 L291.9625,118.35 C292.762504,118.35 293.287499,118.724996 293.5375,119.475 L293.9375,121.375 C294.387502,120.874998 294.858331,120.416669 295.35,120 C295.841669,119.583331 296.366664,119.225001 296.925,118.925 C297.483336,118.624999 298.08333,118.387501 298.725,118.2125 C299.36667,118.037499 300.070829,117.95 300.8375,117.95 C302.454175,117.95 303.783328,118.387496 304.825,119.2625 C305.866672,120.137504 306.645831,121.299993 307.1625,122.75 C307.562502,121.899996 308.062497,121.170836 308.6625,120.5625 C309.262503,119.954164 309.92083,119.458335 310.6375,119.075 C311.35417,118.691665 312.116663,118.408334 312.925,118.225 C313.733337,118.041666 314.545829,117.95 315.3625,117.95 C316.779174,117.95 318.037494,118.166664 319.1375,118.6 C320.237505,119.033335 321.162496,119.666663 321.9125,120.5 C322.662504,121.333337 323.233331,122.349994 323.625,123.55 C324.016669,124.750006 324.2125,126.124992 324.2125,127.675 L324.2125,144 L318.0375,144 L318.0375,127.675 C318.0375,126.041658 317.67917,124.812504 316.9625,123.9875 C316.24583,123.162496 315.19584,122.75 313.8125,122.75 C313.179164,122.75 312.591669,122.858332 312.05,123.075 C311.508331,123.291668 311.033335,123.604165 310.625,124.0125 C310.216665,124.420835 309.895834,124.93333 309.6625,125.55 C309.429166,126.16667 309.3125,126.874996 309.3125,127.675 L309.3125,144 L303.1125,144 L303.1125,127.675 C303.1125,125.958325 302.76667,124.708337 302.075,123.925 C301.38333,123.141663 300.362507,122.75 299.0125,122.75 C298.129162,122.75 297.300004,122.970831 296.525,123.4125 C295.749996,123.854169 295.02917,124.458329 294.3625,125.225 L294.3625,144 L288.1875,144 Z" id="DesignSystem" fill="#CBCBCB"></path>
                    </g>
                    <g id="Cube">
                        <g id="Path-+-Path-+-Path-Mask">
                            <mask id="mask-3" fill="white">
                                <use xlink:href="#path-2"></use>
                            </mask>
                            <use id="Mask" fill="url(#linearGradient-1)" xlink:href="#path-2"></use>
                            <polygon id="Path" fill="#000000" fill-rule="nonzero" opacity="0.03" mask="url(#mask-3)" points="376 837.396552 1 649.793103 1 188 376 375.603448"></polygon>
                            <polygon id="Path" fill="#000000" fill-rule="nonzero" opacity="0.08" mask="url(#mask-3)" points="376 837.396552 751 649.793103 751 188 376 375.603448"></polygon>
                            <polygon id="Path" fill="#000000" fill-rule="nonzero" opacity="0" mask="url(#mask-3)" points="1 187.603448 361.576923 2.84217094e-14 751 187.603448 376 375.206897"></polygon>
                            <g id="Group-2" mask="url(#mask-3)">
                                <g transform="translate(188.000000, 188.000000)">
                                    <mask id="mask-5" fill="white">
                                        <use xlink:href="#path-4"></use>
                                    </mask>
                                    <use id="Mask" stroke="none" fill="#FFFFFF" fill-rule="evenodd" xlink:href="#path-4"></use>
                                    <polygon id="Path" stroke="none" fill="#000000" fill-rule="nonzero" opacity="0.02" mask="url(#mask-5)" points="188 649.396552 -187 461.793103 -187 0 188 187.603448"></polygon>
                                    <polygon id="Path" stroke="none" fill="#000000" fill-rule="nonzero" opacity="0.08" mask="url(#mask-5)" points="188 649.396552 563 461.793103 563 -1.13686838e-13 188 187.603448"></polygon>
                                    <polygon id="Path" stroke="none" fill="#000000" fill-rule="nonzero" opacity="0" mask="url(#mask-5)" points="-187 -0.396551724 173.576923 -188 563 -0.396551724 188 187.206897"></polygon>
                                </g>
                            </g>
                        </g>
                    </g>
                </g>
            </g>
        </g>
    </g>
</svg>