<svg xmlns="http://www.w3.org/2000/svg" width="548" height="128" viewBox="0 0 548 128">
  <defs>
    <linearGradient id="components_landscape_light-a" x1="12.459%" x2="72.367%" y1="-35.023%" y2="66.961%">
      <stop offset="5.629%" stop-color="#45E2FF"/>
      <stop offset="100%" stop-color="#7C6AFF"/>
    </linearGradient>
  </defs>
  <g fill="none" fill-rule="evenodd">
    <path fill="url(#components_landscape_light-a)" fill-rule="nonzero" d="M103.651789,51.6002514 L127.137405,0.0304361347 L118.432946,0.0304361347 C101.680968,-0.626504187 86.7355752,9.39183572 79.0165264,26.1438139 L64.2353692,58.0054196 L49.4542119,26.1438139 C41.8993982,9.39183572 26.9540059,-0.626504187 10.3662628,0.0304361347 L1.33333333,0.0304361347 L24.8189498,50.6148409 C31.224118,64.5748228 42.7205736,73.7719873 55.8593801,76.0712784 L56.1878502,76.0712784 L56.0236151,76.2355135 C55.8593801,76.5639837 55.695145,76.8924538 55.5309099,77.0566889 L32.3737636,127.641094 L41.0782228,127.969564 C57.830201,128.626504 72.7755934,118.608164 80.4946421,101.856186 L103.651789,51.6002514"/>
    <g fill="#FFF" transform="translate(147.732 9.325)">
      <path d="M10.514 23.1L2.33 9.603 7.016 9.603 12.626 19.404 18.269 9.603 22.724 9.603 14.474 23.1 14.474 33 10.514 33 10.514 23.1zM28.148 21.285C28.148 26.928 32.042 29.733 35.969 29.733 39.929 29.733 43.823 26.928 43.823 21.285 43.823 15.642 39.929 12.837 35.969 12.837 32.042 12.837 28.148 15.642 28.148 21.285zM24.089 21.285C24.089 13.629 29.831 9.108 35.969 9.108 42.107 9.108 47.882 13.629 47.882 21.285 47.882 28.974 42.107 33.495 35.969 33.495 29.831 33.495 24.089 28.974 24.089 21.285zM55.9130001 21.285C55.9130001 26.928 59.8070001 29.733 63.7340001 29.733 67.6940001 29.733 71.5880001 26.928 71.5880001 21.285 71.5880001 15.642 67.6940001 12.837 63.7340001 12.837 59.8070001 12.837 55.9130001 15.642 55.9130001 21.285zM51.8540001 21.285C51.8540001 13.629 57.5960001 9.108 63.7340001 9.108 69.8720001 9.108 75.6470001 13.629 75.6470001 21.285 75.6470001 28.974 69.8720001 33.495 63.7340001 33.495 57.5960001 33.495 51.8540001 28.974 51.8540001 21.285zM81.0380001 9.603L89.0900001 9.603C93.5780001 9.603 96.2180001 12.243 96.2180001 15.906 96.2180001 18.381 94.7660001 20.229 92.7530001 20.955 95.2280001 21.615 96.9440001 23.76 96.9440001 26.532 96.9440001 30.294 94.0400001 33 89.6840001 33L81.0380001 33 81.0380001 9.603zM84.9650001 19.503L88.5620001 19.503C90.8720001 19.503 92.2580001 18.183 92.2580001 16.236 92.2580001 14.256 90.8720001 12.969 88.4630001 12.969L84.9650001 12.969 84.9650001 19.503zM84.9650001 29.634L88.9910001 29.634C91.3670001 29.634 92.9180001 28.347 92.9180001 26.268 92.9180001 24.255 91.5650001 22.836 89.1230001 22.836L84.9650001 22.836 84.9650001 29.634zM106.295 33L102.269 33 102.269 9.603 106.295 9.603 106.295 33zM123.5 33.495C117.197 33.495 111.686 28.941 111.686 21.318 111.686 13.695 117.395 9.108 123.467 9.108 129.407 9.108 132.938 12.606 133.994 16.698L130.265 17.952C129.572 15.114 127.394 12.837 123.467 12.837 119.606 12.837 115.745 15.642 115.745 21.318 115.745 26.796 119.507 29.7 123.5 29.7 127.427 29.7 129.671 27.192 130.463 24.552L134.093 25.74C133.037 29.7 129.473 33.495 123.5 33.495zM21.15 63.325C15.45 63.325 10.2 67.525 10.2 75.925 10.2 84.175 15.375 88.6 21.225 88.6 27.975 88.6 30.45 84.025 31.275 81.175L37.5 83.875C35.775 89.05 30.6 95.125 21.225 95.125 10.725 95.125 3 86.875 3 75.925 3 64.675 10.875 56.8 21.15 56.8 30.75 56.8 35.7 62.8 37.2 68.275L30.825 70.975C29.925 67.45 27.3 63.325 21.15 63.325zM58.825 88.825C64.825 88.825 70.075 84.325 70.075 75.925 70.075 67.6 64.825 63.1 58.825 63.1 52.825 63.1 47.575 67.6 47.575 75.925 47.575 84.325 52.825 88.825 58.825 88.825zM58.825 56.8C69.625 56.8 77.275 64.975 77.275 75.925 77.275 86.95 69.625 95.125 58.825 95.125 48.025 95.125 40.375 86.95 40.375 75.925 40.375 64.975 48.025 56.8 58.825 56.8zM91.25 94L84.275 94 84.275 57.925 91.025 57.925 91.025 62.725C93.275 58.75 97.775 56.875 101.975 56.875 106.475 56.875 110.825 59.05 112.775 63.7 115.625 58.525 120.275 56.875 124.85 56.875 131.15 56.875 137.3 61.15 137.3 70.6L137.3 94 130.325 94 130.325 71.35C130.325 66.625 128 63.1 122.675 63.1 117.725 63.1 114.35 67 114.35 72.175L114.35 94 107.3 94 107.3 71.35C107.3 66.7 105.05 63.1 99.65 63.1 94.625 63.1 91.25 66.85 91.25 72.25L91.25 94zM153.525 108.25L146.55 108.25 146.55 57.925 153.375 57.925 153.375 63.55C155.325 59.95 159.6 57.1 165.45 57.1 176.25 57.1 182.025 65.425 182.025 75.925 182.025 86.65 175.8 94.975 165.225 94.975 159.675 94.975 155.475 92.35 153.525 89.125L153.525 108.25zM174.825 75.925C174.825 68.725 170.775 63.325 164.175 63.325 157.725 63.325 153.45 68.725 153.45 75.925 153.45 83.35 157.725 88.675 164.175 88.675 170.7 88.675 174.825 83.35 174.825 75.925zM204.475 88.825C210.475 88.825 215.725 84.325 215.725 75.925 215.725 67.6 210.475 63.1 204.475 63.1 198.475 63.1 193.225 67.6 193.225 75.925 193.225 84.325 198.475 88.825 204.475 88.825zM204.475 56.8C215.275 56.8 222.925 64.975 222.925 75.925 222.925 86.95 215.275 95.125 204.475 95.125 193.675 95.125 186.025 86.95 186.025 75.925 186.025 64.975 193.675 56.8 204.475 56.8zM236.975 73.15L236.975 94 229.925 94 229.925 57.925 236.825 57.925 236.825 63.1C239.45 58.6 243.725 56.875 247.925 56.875 256.55 56.875 260.825 63.1 260.825 71.125L260.825 94 253.775 94 253.775 72.325C253.775 67.3 251.675 63.25 245.375 63.25 239.825 63.25 236.975 67.675 236.975 73.15zM274.65 72.25L294.375 72.25C294.225 67.075 290.85 63.025 284.475 63.025 278.55 63.025 274.95 67.6 274.65 72.25zM295.425 81.625L301.5 83.725C299.475 90.1 293.7 95.125 285.3 95.125 275.625 95.125 267.15 88.075 267.15 75.85 267.15 64.525 275.325 56.8 284.4 56.8 295.5 56.8 301.725 64.45 301.725 75.7 301.725 76.6 301.65 77.5 301.575 77.95L274.425 77.95C274.575 84.4 279.225 88.9 285.3 88.9 291.15 88.9 294.075 85.675 295.425 81.625zM315.775 73.15L315.775 94 308.725 94 308.725 57.925 315.625 57.925 315.625 63.1C318.25 58.6 322.525 56.875 326.725 56.875 335.35 56.875 339.625 63.1 339.625 71.125L339.625 94 332.575 94 332.575 72.325C332.575 67.3 330.475 63.25 324.175 63.25 318.625 63.25 315.775 67.675 315.775 73.15zM358.325 46.525L358.325 57.925 366.125 57.925 366.125 64.3 358.325 64.3 358.325 83.05C358.325 86.35 359.675 88 363.35 88 364.25 88 365.525 87.85 366.125 87.7L366.125 93.7C365.525 93.925 363.725 94.375 361.325 94.375 355.175 94.375 351.275 90.625 351.275 84.1L351.275 64.3 344.375 64.3 344.375 57.925 346.325 57.925C350.225 57.925 351.875 55.525 351.875 52.375L351.875 46.525 358.325 46.525zM370.5 84.625L376.875 82.375C377.325 86.125 380.175 89.125 385.275 89.125 389.25 89.125 391.425 86.875 391.425 84.325 391.425 82.075 389.775 80.35 386.775 79.675L380.625 78.325C375 77.125 371.625 73.3 371.625 68.2 371.625 62.05 377.4 56.8 384.45 56.8 394.35 56.8 397.425 63.25 398.175 66.475L391.95 68.8C391.65 66.925 390.15 62.8 384.45 62.8 380.85 62.8 378.45 65.125 378.45 67.6 378.45 69.775 379.8 71.35 382.575 71.95L388.425 73.225C394.95 74.65 398.4 78.625 398.4 83.95 398.4 89.05 394.125 95.125 385.2 95.125 375.3 95.125 371.1 88.75 370.5 84.625z"/>
    </g>
  </g>
</svg>
