<svg xmlns="http://www.w3.org/2000/svg" width="128" height="128" viewBox="0 0 128 128">
  <defs>
    <linearGradient id="operations_simple-a" x1="60.881%" x2="30.576%" y1="74.624%" y2="-20.832%">
      <stop offset="0%" stop-color="#15DABA"/>
      <stop offset="20.5%" stop-color="#13DEB4"/>
      <stop offset="49.01%" stop-color="#0DE8A2"/>
      <stop offset="82.08%" stop-color="#04F884"/>
      <stop offset="93.75%" stop-color="#00FF78"/>
    </linearGradient>
    <linearGradient id="operations_simple-b" x1="55.835%" x2="45.052%" y1="67.554%" y2="-5.163%">
      <stop offset="0%" stop-color="#15DABA"/>
      <stop offset="37.62%" stop-color="#10D4BD"/>
      <stop offset="89.85%" stop-color="#01C2C4"/>
      <stop offset="93.75%" stop-color="#00C0C5"/>
    </linearGradient>
  </defs>
  <g fill="none" fill-rule="evenodd">
    <path fill="#15DABA" fill-rule="nonzero" d="M15.7234568,22.2814815 C-7.19012346,49.0271605 -4.0691358,89.2444444 22.6765432,112.118519 C49.4222222,134.992593 89.6395062,131.911111 112.51358,105.165432 C135.42716,78.4197531 132.306173,38.2024691 105.560494,15.3283951 C78.8148148,-7.54567901 38.637037,-4.46419753 15.7234568,22.2814815 Z M41.5604938,44.4049383 C52.2271605,31.9604938 70.9925926,30.4987654 83.437037,41.1654321 C95.8814815,51.8320988 97.3432099,70.5975309 86.6765432,83.0419753 C76.0098765,95.4864198 57.2444444,96.9481481 44.8,86.2814815 C32.3555556,75.6148148 30.8938272,56.8888889 41.5604938,44.4049383 Z"/>
    <path fill="url(#operations_simple-a)" fill-rule="nonzero" d="M15.7234568,22.2419753 C8.7308642,30.4197531 4.14814815,39.8617284 1.93580247,49.6592593 C1.97530864,49.5802469 2.05432099,49.5407407 2.09382716,49.4617284 C22.4395062,25.6790123 61.0765432,23.2296296 82.2518519,40.1777778 L82.0148148,39.9802469 C82.0148148,39.9802469 82.4098765,40.2962963 82.6469136,40.4938272 C82.5283951,40.3753086 82.3703704,40.2962963 82.2518519,40.1777778 L82.5283951,40.4148148 C82.8444444,40.6518519 83.1604938,40.8888889 83.437037,41.1654321 C95.8814815,51.8320988 97.3432099,70.5975309 86.6765432,83.0419753 C77.8666667,93.3530864 63.5259259,96.1185185 51.7530864,90.745679 C51.6740741,90.7061728 51.5555556,90.6666667 51.4765432,90.6271605 C51.2395062,90.508642 50.962963,90.3901235 50.7259259,90.2716049 C50.4493827,90.1530864 50.2123457,89.9950617 49.9358025,89.837037 C49.8567901,89.7975309 49.7382716,89.7185185 49.6592593,89.6790123 C49.145679,89.4024691 48.6320988,89.0864198 48.1185185,88.7703704 L28.9975309,116.898765 C31.2493827,118.4 33.5802469,119.74321 35.9506173,120.888889 C36.0296296,120.928395 36.1481481,120.967901 36.2271605,121.046914 C36.5037037,121.204938 36.8197531,121.323457 37.0962963,121.441975 C37.3333333,121.560494 37.5703704,121.679012 37.8074074,121.758025 C37.9259259,121.797531 38.0444444,121.876543 38.162963,121.916049 C63.2493827,133.05679 93.6691358,127.051852 112.434568,105.125926 C135.348148,78.3802469 132.22716,38.162963 105.481481,15.2493827 C104.651852,14.5382716 103.782716,13.8271605 102.91358,13.1555556 L102.874074,13.1950617 C93.3135802,5.84691358 82.2123457,1.58024691 70.9135802,0.355555556 C70.8345679,0.355555556 70.7160494,0.355555556 70.637037,0.316049383 C70.2814815,0.27654321 69.9654321,0.237037037 69.6098765,0.237037037 C69.254321,0.197530864 68.8987654,0.158024691 68.5432099,0.158024691 C68.4641975,0.158024691 68.3851852,0.158024691 68.3061728,0.158024691 C48.9876543,-1.14567901 29.3135802,6.4 15.7234568,22.2419753 Z M84.345679,41.7580247 C84.5037037,41.8765432 84.6617284,42.0345679 84.8592593,42.1530864 C84.7012346,42.0345679 84.5037037,41.8765432 84.345679,41.7580247 Z M83.1604938,40.8098765 C83.3975309,40.9679012 83.5950617,41.1654321 83.8320988,41.3234568 C83.5950617,41.1654321 83.3975309,41.0074074 83.1604938,40.8098765 Z M104.138272,14.2617284 C104.177778,14.2617284 104.177778,14.2617284 104.138272,14.2617284 C104.177778,14.2617284 104.177778,14.2617284 104.138272,14.2617284 Z"/>
    <path fill="url(#operations_simple-b)" fill-rule="nonzero" d="M83.5160494,41.2049383 C71.0320988,30.4987654 52.2666667,31.9604938 41.6,44.4049383 C30.9333333,56.8493827 32.3950617,75.6148148 44.8790123,86.3209877 C46.0246914,87.308642 47.2493827,88.217284 48.5135802,89.0074074 C48.3950617,88.9283951 48.3160494,88.8888889 48.1975309,88.8098765 L29.037037,116.938272 L22.7160494,112.158025 C4.10864198,96.237037 -3.04197531,71.9407407 1.97530864,49.6592593 C2.01481481,49.6197531 2.05432099,49.5407407 2.13333333,49.5012346 C22.4790123,25.7185185 61.1555556,23.308642 82.3703704,40.2567901 L82.6469136,40.4938272 C82.9234568,40.7308642 83.2,40.9679012 83.5160494,41.2049383"/>
  </g>
</svg>
