<?xml version="1.0" encoding="UTF-8"?>
<svg width="13px" height="13px" viewBox="0 0 13 13" version="1.1" xmlns="http://www.w3.org/2000/svg" xmlns:xlink="http://www.w3.org/1999/xlink">
    <!-- Generator: Sketch 49.3 (51167) - http://www.bohemiancoding.com/sketch -->
    <title>Shape</title>
    <desc>Created with Sketch.</desc>
    <defs></defs>
    <g id="Login" stroke="none" stroke-width="1" fill="none" fill-rule="evenodd">
        <g transform="translate(-192.000000, -857.000000)" fill="#FFFFFF" fill-rule="nonzero" id="Panel">
            <g>
                <g id="Powered" transform="translate(129.000000, 855.000000)">
                    <g id="yoobic_landscape_dark" transform="translate(63.000000, 2.000000)">
                        <path d="M10.0060734,5.23004922 L12.3028126,0.0629606078 L11.4515736,0.0629606078 C9.81334007,-0.00286217699 8.35177878,1.00093529 7.59690647,2.6794163 L6.1514063,5.87182136 L4.70590613,2.6794163 C3.96709493,1.00093529 2.50553363,-0.00286217699 0.883361217,0.0629606078 L0,0.0629606078 L2.29673917,5.13131504 C2.92312257,6.53004922 4.04740049,7.4515682 5.33228953,7.68194795 L5.36441176,7.68194795 L5.34835065,7.69840365 C5.33228953,7.73131504 5.31622842,7.76422643 5.3001673,7.78068212 L3.03555037,12.8490366 L3.88678936,12.8819479 C5.52502289,12.9477708 6.98658418,11.9439732 7.74145648,10.2654923 L10.0060734,5.23004922" id="Shape"></path>
                    </g>
                </g>
            </g>
        </g>
    </g>
</svg>