<svg xmlns="http://www.w3.org/2000/svg" width="128" height="128" viewBox="0 0 128 128">
  <defs>
    <linearGradient id="yoobic_simple-a" x1="12.459%" x2="72.367%" y1="-35.023%" y2="66.961%">
      <stop offset="5.629%" stop-color="#45E2FF"/>
      <stop offset="100%" stop-color="#7C6AFF"/>
    </linearGradient>
  </defs>
  <path fill="url(#yoobic_simple-a)" d="M103.651789,51.6002514 L127.137405,0.0304361347 L118.432946,0.0304361347 C101.680968,-0.626504187 86.7355752,9.39183572 79.0165264,26.1438139 L64.2353692,58.0054196 L49.4542119,26.1438139 C41.8993982,9.39183572 26.9540059,-0.626504187 10.3662628,0.0304361347 L1.33333333,0.0304361347 L24.8189498,50.6148409 C31.224118,64.5748228 42.7205736,73.7719873 55.8593801,76.0712784 L56.1878502,76.0712784 L56.0236151,76.2355135 C55.8593801,76.5639837 55.695145,76.8924538 55.5309099,77.0566889 L32.3737636,127.641094 L41.0782228,127.969564 C57.830201,128.626504 72.7755934,118.608164 80.4946421,101.856186 L103.651789,51.6002514"/>
</svg>
