<?xml version="1.0" encoding="UTF-8"?>
<svg preserveAspectRatio="xMidYMid meet" version="1.1" xmlns="http://www.w3.org/2000/svg" xmlns:xlink="http://www.w3.org/1999/xlink">
    <!-- Generator: Sketch 54.1 (76490) - https://sketchapp.com -->
    <title>leaderboard</title>
    <desc>Created with Sketch.</desc>
    <defs>
        <style type="text/css">@import url('https://fonts.googleapis.com/css?family=Lato');</style>
        <circle id="path-1" cx="42.2" cy="42" r="42"></circle>
        <circle id="path-3" cx="42" cy="42" r="42"></circle>
        <circle id="path-5" cx="42" cy="42" r="42"></circle>
        <linearGradient x1="50%" y1="100%" x2="50%" y2="3.061617e-15%" id="linearGradient-7">
            <stop stop-color="#F46885" offset="0%"></stop>
            <stop stop-color="#F46885" offset="27.475%"></stop>
            <stop stop-color="#FDB93F" offset="100%"></stop>
        </linearGradient>
        <linearGradient x1="0%" y1="0%" x2="100%" y2="100%" id="linearGradient-8">
            <stop stop-color="#FFD701" offset="0%"></stop>
            <stop stop-color="#F9B62B" offset="100%"></stop>
        </linearGradient>
        <linearGradient x1="50%" y1="100%" x2="50%" y2="3.061617e-15%" id="linearGradient-9">
            <stop stop-color="#F46885" offset="0%"></stop>
            <stop stop-color="#F46885" offset="27.475%"></stop>
            <stop stop-color="#FDB93F" offset="100%"></stop>
        </linearGradient>
        <linearGradient x1="50%" y1="100%" x2="50%" y2="3.061617e-15%" id="linearGradient-10">
            <stop stop-color="#F46885" offset="0%"></stop>
            <stop stop-color="#F46885" offset="27.475%"></stop>
            <stop stop-color="#FDB93F" offset="100%"></stop>
        </linearGradient>
        <rect id="path-11" x="0" y="0" width="95" height="20"></rect>
    </defs>
    <g id="main-svg" stroke="none" stroke-width="1" fill="none" fill-rule="evenodd">
        <g id="leaderboard">
            <g id="1st" transform="translate(106.200000, 0.000000)">
                <g id="center_avatar_image" transform="translate(0.400000, 0.000000)">
                    <mask id="mask-first-image" fill="white">
                        <use xlink:href="#path-1"></use>
                    </mask>
                    <use id="Mask" fill="#999999" fill-rule="nonzero" xlink:href="#path-1"></use>
                    <image id="center_image" mask="url(#mask-first-image)" x="0" y="0" width="84" height="84" xlink:href=""></image>
                </g>
                <g id="center_avatar_no_image">
                    <mask id="mask-first-no-image" fill="white">
                        <use xlink:href="#path-5"></use>
                    </mask>
                    <use id="path-5" fill="#F1F1F1" xlink:href="#path-5"></use>
                    <text mask="url(#mask-first-no-image)" font-family="Lato-Regular, Lato" font-size="30.24" font-weight="normal" fill="#807F83">
                        <tspan x="20" y="55">AN</tspan>
                    </text>
                </g>
                <g id="center_image_text" transform="translate(-0.000000, 0.000000)" fill="#000000" font-family="Lato-Regular, Lato" font-size="13" font-weight="normal">
                    <g id="Avatar-Name" transform="translate(4.000000, 93.000000)">
                        <text>
                            <tspan x="0.4105" y="13.8">Avatar Name</tspan>
                        </text>
                    </g>
                </g>
            </g>
            <g id="2nd" transform="translate(0.000000, 48.000000)">
                  <g id="left_avatar_image">
                        <mask id="mask-second-image" fill="white">
                            <use xlink:href="#path-3"></use>
                        </mask>
                        <use id="Mask" fill="#999999" fill-rule="nonzero" xlink:href="#path-3"></use>
                        <image id="left_image" mask="url(#mask-second-image)" x="0" y="0" width="84" height="84" xlink:href=""></image>
                </g>
                 <g id="left_avatar_no_image">
                        <mask id="mask-second-no-image" fill="white">
                            <use xlink:href="#path-5"></use>
                        </mask>
                        <use id="path-5" fill="#F1F1F1" xlink:href="#path-5"></use>
                        <text mask="url(#mask-second-no-image)" font-family="Lato-Regular, Lato" font-size="30.24" font-weight="normal" fill="#807F83">
                            <tspan x="20" y="55">AN</tspan>
                        </text>
                 </g>
                <g id="left_image_text" transform="translate(1.000000, 0.000000)" fill="#000000" font-family="Lato-Regular, Lato" font-size="13" font-weight="normal">
                    <g id="Avatar-Name">
                        <text>
                            <tspan x="2.8105" y="102">Avatar Name</tspan>
                        </text>
                    </g>
                </g>
            </g>
            <g id="3rd" transform="translate(213.600000, 78.000000)">
                <g id="right_avatar_image">
                    <mask id="mask-third-image" fill="white">
                        <use xlink:href="#path-5"></use>
                    </mask>
                    <use id="Mask" fill="#999999" fill-rule="nonzero" xlink:href="#path-5"></use>
                    <image id="right_image" mask="url(#mask-third-image)" x="0" y="0" width="84" height="84" xlink:href=""></image>
                </g>
                <g id="right_avatar_no_image">
                    <mask id="mask-third-no-image" fill="white">
                        <use xlink:href="#path-5"></use>
                    </mask>
                    <use id="path-5" fill="#F1F1F1" xlink:href="#path-5"></use>
                    <text mask="url(#mask-third-no-image)" font-family="Lato-Regular, Lato" font-size="30.24" font-weight="normal" fill="#807F83">
                        <tspan x="20" y="55">AN</tspan>
                    </text>
                </g>
                <g id="right_image_text" transform="translate(4.000000, 89.000000)" fill="#000000" font-family="Lato-Regular, Lato" font-size="13" font-weight="normal">
                    <g id="Avatar-Name">
                        <text>
                            <tspan x="0.4105" y="13">Avatar Name</tspan>
                        </text>
                    </g>
                </g>
            </g>
            <g id="podium" transform="translate(6.000000, 121.000000)">
                <g id="2" transform="translate(0.000000, 33.800000)">
                    <polygon id="Rectangle-2-Copy" fill="url(#linearGradient-7)" fill-rule="nonzero" transform="translate(86.167478, 320.466384) rotate(-7.000000) translate(-86.167478, -320.466384) " points="38.1674782 24.0402128 134.167478 24.0402128 112.567478 615.566453 77.0540697 616.892556"></polygon>
                    <path d="M63.1313132,114.23904 C65.5313252,114.23904 67.7273032,114.593036 69.7193132,115.30104 C71.7113231,116.009044 73.4153061,117.011034 74.8313132,118.30704 C76.2473202,119.603046 77.3513092,121.163031 78.1433132,122.98704 C78.9353171,124.811049 79.3313132,126.839029 79.3313132,129.07104 C79.3313132,130.99105 79.049316,132.767032 78.4853132,134.39904 C77.9213103,136.031048 77.1653179,137.591033 76.2173132,139.07904 C75.2693084,140.567047 74.1593195,142.007033 72.8873132,143.39904 C71.6153068,144.791047 70.2833201,146.207033 68.8913132,147.64704 L57.1553132,159.63504 C58.3073189,159.299038 59.4353076,159.041041 60.5393132,158.86104 C61.6433187,158.681039 62.6993081,158.59104 63.7073132,158.59104 L77.0633132,158.59104 C78.023318,158.59104 78.7853103,158.861037 79.3493132,159.40104 C79.913316,159.941043 80.1953132,160.655036 80.1953132,161.54304 L80.1953132,166.87104 L44.4833132,166.87104 L44.4833132,163.91904 C44.4833132,163.319037 44.6093119,162.695043 44.8613132,162.04704 C45.1133144,161.399037 45.5153104,160.799043 46.0673132,160.24704 L61.8713132,144.40704 C63.1913198,143.063033 64.3733079,141.779046 65.4173132,140.55504 C66.4613184,139.331034 67.3373096,138.119046 68.0453132,136.91904 C68.7533167,135.719034 69.2933113,134.501046 69.6653132,133.26504 C70.037315,132.029034 70.2233132,130.727047 70.2233132,129.35904 C70.2233132,128.111034 70.043315,127.013045 69.6833132,126.06504 C69.3233114,125.117035 68.8073165,124.319043 68.1353132,123.67104 C67.4633098,123.023037 66.6653178,122.537042 65.7413132,122.21304 C64.8173085,121.889038 63.7793189,121.72704 62.6273132,121.72704 C60.4913025,121.72704 58.7333201,122.267035 57.3533132,123.34704 C55.9733063,124.427045 55.0073159,125.879031 54.4553132,127.70304 C54.1913118,128.615045 53.7953158,129.269038 53.2673132,129.66504 C52.7393105,130.061042 52.0673172,130.25904 51.2513132,130.25904 C50.8913114,130.25904 50.4953153,130.22304 50.0633132,130.15104 L45.3833132,129.32304 C45.743315,126.827028 46.439308,124.637049 47.4713132,122.75304 C48.5033183,120.869031 49.7933054,119.297046 51.3413132,118.03704 C52.8893209,116.777034 54.6653031,115.829043 56.6693132,115.19304 C58.6733232,114.557037 60.8273016,114.23904 63.1313132,114.23904 Z" id="Path" fill="#FFFFFF" fill-rule="nonzero" opacity="0.5" transform="translate(62.339313, 140.555040) rotate(-7.000000) translate(-62.339313, -140.555040) "></path>
                    <polygon id="Rectangle-6" fill="#FFDB99" fill-rule="nonzero" transform="translate(57.368771, 16.123046) rotate(-7.000000) translate(-57.368771, -16.123046) " points="21.0742316 7.12304609 114.06331 10.8060806 96.6742316 25.123046 0.674231603 25.123046"></polygon>
                    <g id="left_points_container" transform="translate(33.600000, 9.600000)">
                        <g id="left_points" transform="translate(8, 35.000000)" fill="#FFFFFF" font-family="Lato-Regular, Lato" font-size="15" font-weight="normal">
                            <g id="0">
                                <text>
                                    <tspan x="-7.5" y="15">0</tspan>
                                </text>
                            </g>
                        </g>
                        <g id="Oval-2" fill="#FFFFFF" fill-rule="nonzero">
                            <g id="path-2-link">
                                <circle id="path-2" cx="15" cy="15" r="15"></circle>
                            </g>
                        </g>
                        <path d="M24.9774392,12.568619 C24.9235249,12.4048207 24.7861304,12.2865219 24.6226483,12.2637721 L18.3251087,11.3901812 L15.3893875,5.2313651 C15.2432971,4.9228783 14.7571987,4.9228783 14.6111083,5.2313651 L11.675387,11.3901812 L5.37784752,12.2637721 C5.21436541,12.2865219 5.07610129,12.4048207 5.02305656,12.568619 C4.97001183,12.7324173 5.01001277,12.9135054 5.12740684,13.0363541 L9.7457764,17.869314 L8.48748592,24.4549157 C8.45531125,24.6259939 8.51792142,24.7998021 8.65009844,24.906271 C8.78227547,25.0118299 8.96141012,25.0291197 9.1083701,24.9517705 L15.0006827,21.8687225 L20.8929953,24.9517705 C20.9547359,24.9836202 21.0208244,25 21.0877825,25 C21.1808281,25 21.2747434,24.9681503 21.3521365,24.906271 C21.4834439,24.8007121 21.5469237,24.6259939 21.514749,24.4549157 L20.2564585,17.869314 L24.8748281,13.0363541 C24.9896134,12.9144154 25.0296144,12.7333273 24.9774392,12.568619 Z" id="Shape" fill="url(#linearGradient-8)" fill-rule="nonzero"></path>
                    </g>
                </g>
                <g id="3" transform="translate(199.700000, 359.800000) scale(-1, 1) translate(-199.700000, -359.800000) translate(116.200000, 63.800000)">
                    <polygon id="Rectangle-2-Copy" fill="url(#linearGradient-9)" fill-rule="nonzero" transform="translate(84.395554, 306.035219) rotate(-7.000000) translate(-84.395554, -306.035219) " points="36.3955539 24.1485883 132.395554 24.1485883 110.795554 586.660792 75.2821454 587.92185"></polygon>
                    <path d="M66.4645725,122.950453 C68.4645825,122.950453 70.2695644,123.23545 71.8795725,123.805453 C73.4895805,124.375456 74.8645668,125.165448 76.0045725,126.175453 C77.1445782,127.185458 78.0195694,128.370446 78.6295725,129.730453 C79.2395755,131.09046 79.5445725,132.560445 79.5445725,134.140453 C79.5445725,135.52046 79.389574,136.735448 79.0795725,137.785453 C78.7695709,138.835459 78.3195754,139.750449 77.7295725,140.530453 C77.1395695,141.310457 76.4195767,141.970451 75.5695725,142.510453 C74.7195682,143.050456 73.7545779,143.500451 72.6745725,143.860453 C75.2745855,144.680457 77.2145661,145.930445 78.4945725,147.610453 C79.7745789,149.290462 80.4145725,151.400441 80.4145725,153.940453 C80.4145725,156.100464 80.0145765,158.010445 79.2145725,159.670453 C78.4145685,161.330462 77.3345793,162.725448 75.9745725,163.855453 C74.6145657,164.985459 73.0395814,165.84045 71.2495725,166.420453 C69.4595635,167.000456 67.5645825,167.290453 65.5645725,167.290453 C63.3845616,167.290453 61.4845806,167.040456 59.8645725,166.540453 C58.2445644,166.040451 56.8345785,165.300458 55.6345725,164.320453 C54.4345665,163.340448 53.4145767,162.14046 52.5745725,160.720453 C51.7345683,159.300446 51.0145755,157.660463 50.4145725,155.800453 L53.6845725,154.450453 C54.2445753,154.210452 54.8145696,154.090453 55.3945725,154.090453 C55.9145751,154.090453 56.3795704,154.200452 56.7895725,154.420453 C57.1995745,154.640454 57.5145714,154.960451 57.7345725,155.380453 C58.0945743,156.080457 58.4895703,156.77045 58.9195725,157.450453 C59.3495746,158.130457 59.8645695,158.735451 60.4645725,159.265453 C61.0645755,159.795456 61.7695684,160.225452 62.5795725,160.555453 C63.3895765,160.885455 64.3545669,161.050453 65.4745725,161.050453 C66.7345788,161.050453 67.8345678,160.845455 68.7745725,160.435453 C69.7145772,160.025451 70.4995693,159.490457 71.1295725,158.830453 C71.7595756,158.17045 72.2295709,157.435457 72.5395725,156.625453 C72.849574,155.815449 73.0045725,155.000457 73.0045725,154.180453 C73.0045725,153.140448 72.8945736,152.195458 72.6745725,151.345453 C72.4545714,150.495449 71.994576,149.770456 71.2945725,149.170453 C70.594569,148.57045 69.589579,148.100455 68.2795725,147.760453 C66.9695659,147.420452 65.2145835,147.250453 63.0145725,147.250453 L63.0145725,141.970453 C64.8345816,141.950453 66.3445665,141.780455 67.5445725,141.460453 C68.7445785,141.140452 69.6995689,140.695456 70.4095725,140.125453 C71.119576,139.55545 71.6145711,138.870457 71.8945725,138.070453 C72.1745739,137.270449 72.3145725,136.390458 72.3145725,135.430453 C72.3145725,133.370443 71.7545781,131.815459 70.6345725,130.765453 C69.5145669,129.715448 67.9845822,129.190453 66.0445725,129.190453 C64.2845637,129.190453 62.8245783,129.655449 61.6645725,130.585453 C60.5045667,131.515458 59.6945748,132.710446 59.2345725,134.170453 C58.9945713,134.930457 58.6645746,135.475452 58.2445725,135.805453 C57.8245704,136.135455 57.2745759,136.300453 56.5945725,136.300453 C56.2745709,136.300453 55.9345743,136.270454 55.5745725,136.210453 L51.6745725,135.520453 C51.974574,133.440443 52.5545682,131.615461 53.4145725,130.045453 C54.2745768,128.475445 55.349566,127.165459 56.6395725,126.115453 C57.9295789,125.065448 59.4095641,124.275456 61.0795725,123.745453 C62.7495808,123.215451 64.5445629,122.950453 66.4645725,122.950453 Z" id="Path" fill="#FFFFFF" fill-rule="nonzero" opacity="0.5" transform="translate(65.414572, 145.120453) scale(-1, 1) rotate(9.000000) translate(-65.414572, -145.120453) "></path>
                    <polygon id="Rectangle-6" fill="#FFDB99" fill-rule="nonzero" transform="translate(58.223364, 16.018115) rotate(-7.000000) translate(-58.223364, -16.018115) " points="21.0678137 7.01811506 115.778915 8.24770891 96.6678137 25.0181152 0.667813778 25.0181152"></polygon>
                    <g id="right_points_container" transform="translate(40.800000, 12.000000)">
                        <g id="right_points" transform="translate(16.000000, 44.000000) scale(-1, 1) translate(-16.000000, -44.000000) translate(11.000000, 35.000000)" fill="#FFFFFF" font-family="Lato-Regular, Lato" font-size="15" font-weight="normal">
                            <g id="0">
                                <text>
                                    <tspan x="-7.5" y="15">0</tspan>
                                </text>
                            </g>
                        </g>
                        <g id="Oval-2" fill="#FFFFFF" fill-rule="nonzero">
                            <g id="path-6-link">
                                <circle id="path-6" cx="15" cy="15" r="15"></circle>
                            </g>
                        </g>
                        <path d="M24.7774392,12.568619 C24.7235249,12.4048207 24.5861304,12.2865219 24.4226483,12.2637721 L18.1251087,11.3901812 L15.1893875,5.2313651 C15.0432971,4.9228783 14.5571987,4.9228783 14.4111083,5.2313651 L11.475387,11.3901812 L5.17784752,12.2637721 C5.01436541,12.2865219 4.87610129,12.4048207 4.82305656,12.568619 C4.77001183,12.7324173 4.81001277,12.9135054 4.92740684,13.0363541 L9.5457764,17.869314 L8.28748592,24.4549157 C8.25531125,24.6259939 8.31792142,24.7998021 8.45009844,24.906271 C8.58227547,25.0118299 8.76141012,25.0291197 8.9083701,24.9517705 L14.8006827,21.8687225 L20.6929953,24.9517705 C20.7547359,24.9836202 20.8208244,25 20.8877825,25 C20.9808281,25 21.0747434,24.9681503 21.1521365,24.906271 C21.2834439,24.8007121 21.3469237,24.6259939 21.314749,24.4549157 L20.0564585,17.869314 L24.6748281,13.0363541 C24.7896134,12.9144154 24.8296144,12.7333273 24.7774392,12.568619 Z" id="Shape" fill="url(#linearGradient-8)" fill-rule="nonzero"></path>
                    </g>
                </g>
                <g id="1" transform="translate(94.800000, 0.200000)">
                    <g id="Rectangle-2" transform="translate(0.000000, 18.000000)" fill="url(#linearGradient-10)" fill-rule="nonzero">
                        <g id="path-9-link">
                            <polygon id="path-9" points="0 0 96 0 74.4 630 20.4 630"></polygon>
                        </g>
                    </g>
                    <path d="M36.404,144.74 L46.952,144.74 L46.952,114.392 C46.952,113.215994 46.9879996,111.980006 47.06,110.684 L39.572,116.948 C39.2599984,117.212001 38.9420016,117.392 38.618,117.488 C38.2939984,117.584 37.9760016,117.632 37.664,117.632 C37.1839976,117.632 36.746002,117.530001 36.35,117.326 C35.953998,117.121999 35.660001,116.888001 35.468,116.624 L32.66,112.772 L48.536,99.272 L55.844,99.272 L55.844,144.74 L65.204,144.74 L65.204,151.4 L36.404,151.4 L36.404,144.74 Z" id="Path" fill="#FFFFFF" fill-rule="nonzero" opacity="0.5"></path>
                    <polygon id="Rectangle-6" fill="#FFDB99" fill-rule="nonzero" points="20.4 5.93303184e-13 74.4 5.93303184e-13 96 18 0 18"></polygon>
                    <g id="center_points_container" transform="translate(0.600000, 3.600000)">
                        <g id="center_points" transform="translate(0.000000, 33.000000)">
                            <g id="0">
                                <g id="Clipped">
                                    <mask id="mask-12" fill="white">
                                        <use xlink:href="#path-11"></use>
                                    </mask>
                                    <g id="path-5"></g>
                                    <text id="0" fill="#FFFFFF" mask="url(#mask-12)" font-family="Lato-Regular, Lato" font-size="15" font-weight="normal">
                                        <tspan x="34" y="17">0</tspan>
                                    </text>
                                </g>
                            </g>
                        </g>
                        <g id="Oval-2" transform="translate(33.000000, 0.000000)" fill="#FFFFFF" fill-rule="nonzero">
                            <g id="path-11-link">
                                <circle id="path-11" cx="15" cy="15" r="15"></circle>
                            </g>
                        </g>
                        <path d="M57.9774392,12.568619 C57.9235249,12.4048207 57.7861304,12.2865219 57.6226483,12.2637721 L51.3251087,11.3901812 L48.3893875,5.2313651 C48.2432971,4.9228783 47.7571987,4.9228783 47.6111083,5.2313651 L44.675387,11.3901812 L38.3778475,12.2637721 C38.2143654,12.2865219 38.0761013,12.4048207 38.0230566,12.568619 C37.9700118,12.7324173 38.0100128,12.9135054 38.1274068,13.0363541 L42.7457764,17.869314 L41.4874859,24.4549157 C41.4553112,24.6259939 41.5179214,24.7998021 41.6500984,24.906271 C41.7822755,25.0118299 41.9614101,25.0291197 42.1083701,24.9517705 L48.0006827,21.8687225 L53.8929953,24.9517705 C53.9547359,24.9836202 54.0208244,25 54.0877825,25 C54.1808281,25 54.2747434,24.9681503 54.3521365,24.906271 C54.4834439,24.8007121 54.5469237,24.6259939 54.514749,24.4549157 L53.2564585,17.869314 L57.8748281,13.0363541 C57.9896134,12.9144154 58.0296144,12.7333273 57.9774392,12.568619 Z" id="Shape" fill="url(#linearGradient-8)" fill-rule="nonzero"></path>
                    </g>
                </g>
            </g>
        </g>
    </g>
</svg>