<?xml version="1.0" encoding="UTF-8"?>
<svg width="676px" height="600px" viewBox="0 0 676 600" version="1.1" xmlns="http://www.w3.org/2000/svg" xmlns:xlink="http://www.w3.org/1999/xlink">
    <!-- Generator: Sketch 55.1 (78136) - https://sketchapp.com -->
    <title>web/operations/contacts</title>
    <desc>Created with Sketch.</desc>
    <defs>
        <rect id="path-1" x="0.00954653938" y="0.778042959" width="226.682578" height="126.680191" rx="6"></rect>
        <filter x="-3.1%" y="-3.9%" width="106.2%" height="111.1%" filterUnits="objectBoundingBox" id="filter-2">
            <feOffset dx="0" dy="2" in="SourceAlpha" result="shadowOffsetOuter1"></feOffset>
            <feGaussianBlur stdDeviation="2" in="shadowOffsetOuter1" result="shadowBlurOuter1"></feGaussianBlur>
            <feColorMatrix values="0 0 0 0 0   0 0 0 0 0   0 0 0 0 0  0 0 0 0.05 0" type="matrix" in="shadowBlurOuter1"></feColorMatrix>
        </filter>
        <rect id="path-3" x="0.164677804" y="0.501193317" width="215.656325" height="120.515513" rx="6"></rect>
        <filter x="-3.2%" y="-4.1%" width="106.5%" height="111.6%" filterUnits="objectBoundingBox" id="filter-4">
            <feOffset dx="0" dy="2" in="SourceAlpha" result="shadowOffsetOuter1"></feOffset>
            <feGaussianBlur stdDeviation="2" in="shadowOffsetOuter1" result="shadowBlurOuter1"></feGaussianBlur>
            <feColorMatrix values="0 0 0 0 0   0 0 0 0 0   0 0 0 0 0  0 0 0 0.05 0" type="matrix" in="shadowBlurOuter1"></feColorMatrix>
        </filter>
    </defs>
    <g id="web/operations/contacts" stroke="none" stroke-width="1" fill="none" fill-rule="evenodd">
        <path d="M272.600144,500.107947 C358.17089,370.107947 339.071721,464.783877 539.553226,318.283877 C740.03473,171.783877 529.774598,-5.09705454 273.54595,72.7838769 C17.3173019,150.664808 7.53867462,182.697971 7.53867462,318.283877 C7.53867462,453.869783 187.029399,630.107947 272.600144,500.107947 Z" id="Oval" fill="#F0F5F8" fill-rule="nonzero" transform="translate(313.449778, 299.683081) rotate(34.000000) translate(-313.449778, -299.683081) "></path>
        <g id="illustration" transform="translate(32.000000, 98.000000)">
            <g id="card" transform="translate(110.000000, 0.000000)">
                <g id="Rectangle">
                    <use fill="black" fill-opacity="1" filter="url(#filter-2)" xlink:href="#path-1"></use>
                    <use fill="#FFFFFF" fill-rule="evenodd" xlink:href="#path-1"></use>
                </g>
                <g id="single-neutral-circle" transform="translate(21.000000, 36.000000)"></g>
                <g id="text" transform="translate(95.000000, 45.000000)" fill="#E3ECF3">
                    <rect id="Rectangle" x="0.0715990453" y="0.54176611" width="52.3818616" height="6.51" rx="3.2326969"></rect>
                    <rect id="Rectangle" x="0.0715990453" y="17.0310263" width="84.7231504" height="6.51" rx="3.2326969"></rect>
                    <rect id="Rectangle" x="0.0715990453" y="33.5202864" width="102.830549" height="6.51" rx="3.2326969"></rect>
                </g>
                <rect id="Rectangle" fill="#C8D8E4" x="169.441527" y="102.319809" width="28.4534606" height="12.5011933" rx="4"></rect>
                <circle id="Oval" fill="#C8D8E4" cx="42.6825776" cy="57.0190931" r="23.5990453"></circle>
            </g>
            <g id="card" transform="translate(223.000000, 155.000000)">
                <g id="Rectangle">
                    <use fill="black" fill-opacity="1" filter="url(#filter-4)" xlink:href="#path-3"></use>
                    <use fill="#FFFFFF" fill-rule="evenodd" xlink:href="#path-3"></use>
                </g>
                <circle id="Oval" fill="#C8D8E4" cx="40.7684964" cy="54.0071599" r="22.4534606"></circle>
                <rect id="Rectangle" fill="#E3ECF3" x="90.601432" y="27.3937947" width="97.8257757" height="6.51" rx="3.075179"></rect>
                <rect id="Rectangle" fill="#E3ECF3" x="90.601432" y="43.0883055" width="49.8329356" height="6.51" rx="3.075179"></rect>
                <rect id="Rectangle" fill="#E3ECF3" x="90.601432" y="58.7756563" width="80.5990453" height="6.51" rx="3.075179"></rect>
                <rect id="Rectangle" fill="#E3ECF3" x="90.601432" y="74.4630072" width="97.8257757" height="6.51" rx="3.075179"></rect>
                <rect id="Rectangle" fill="#C8D8E4" x="161.355609" y="97.1026253" width="27.071599" height="11.8926014" rx="4"></rect>
            </g>
            <g id="people" transform="translate(318.500000, 297.500000) scale(-1, 1) translate(-318.500000, -297.500000) translate(0.000000, 93.000000)">
                <g id="man" transform="translate(397.000000, 0.000000)">
                    <ellipse id="shadow" fill="#E3ECF3" opacity="0.432593936" cx="120" cy="344" rx="100" ry="8"></ellipse>
                    <g id="components/Head/Front/Short-Beard" transform="translate(113.500000, 41.500000) scale(-1, 1) translate(-113.500000, -41.500000) translate(59.000000, 0.000000)">
                        <g id="Head" stroke-width="1" transform="translate(43.279412, 24.740385)" fill="#C4CFE2">
                            <path d="M6.62196951,27.5257742 C2.92886554,23.209175 0.429295534,17.9191231 0.84697515,11.991468 C2.05042643,-5.0877568 25.9263959,-1.33054495 30.5707663,7.28958108 C35.2151366,15.9097071 34.6632647,37.7753717 28.6608298,39.3160286 C26.267067,39.9304405 21.1676407,38.4253775 15.9776143,35.3103596 L19.2352941,58.2596154 L0,58.2596154 L6.62196951,27.5257742 Z"></path>
                        </g>
                        <path d="M60.2187374,38.6180876 C60.9550356,48.8312188 62.9027389,53.9377844 66.0618476,53.9377844 C70.800788,53.9377844 74.8214423,50.9420834 76.9007755,50.9420834 C78.4165389,50.9420834 78.0781155,52.8308891 77.0733882,54.2313042 C76.2444559,55.3866918 72.207625,56.5003473 72.207625,58.2915859 C72.207625,60.0828246 75.3970562,58.697042 75.3970562,59.7593906 C75.3970562,61.5166449 75.957594,64.8205973 72.8947311,64.8205973 C69.7950117,64.8205973 60.907567,63.6957831 59.3844997,59.1147326 C58.4015566,56.1582565 57.7660133,50.0318851 57.4778697,40.7356182 C57.2898307,40.7133684 57.0984635,40.7019231 56.9044118,40.7019231 C54.2485719,40.7019231 52.0955882,42.8457903 52.0955882,45.4903846 C52.0955882,46.8329242 52.6504398,48.04642 53.5442584,48.9159015 C52.4315618,50.4798148 51.1845481,52.1135317 49.7556037,53.7993153 C44.387369,50.5922303 40.4038336,41.2038906 45.6521543,32.1850683 C47.1028067,27.7668875 50.3868807,25.406971 54.2654511,24.3111861 C57.407293,23.0025085 60.6688223,22.854954 63.4220174,23.6394944 C68.8190423,24.1004576 73.6383268,25.7391884 75.0041507,26.7123903 C75.0041507,31.8003097 74.0141018,33.3098805 65.5577339,33.1768174 C63.4798672,34.2695317 61.8825082,36.1511845 60.2187374,38.6180876 Z" id="Hair" fill="#191847"></path>
                    </g>
                    <g id="components/Bottom/Standing/Shorts" transform="translate(120.000000, 247.000000) scale(-1, 1) translate(-120.000000, -247.000000) translate(0.000000, 151.000000)">
                        <polygon id="Leg" fill="#B5C1D7" points="102.4 9.9475983e-14 132.50467 98.8311331 147.088123 182.880646 158.522557 182.880646 143.112779 9.9475983e-14"></polygon>
                        <path d="M91.6301819,0 C93.674964,54.2636041 91.2685317,82.2537537 90.810885,87.183838 C90.3532383,92.1139224 84.086557,124.080853 69.2509499,184.535674 L81.4351939,180.333549 C104.881488,124.887532 112.871149,96.0712571 115.560261,88.7905326 C118.249373,81.5098081 125.391522,51.9129639 136.986708,0 L91.6301819,0 Z" id="Leg" fill="#C4CFE2"></path>
                        <g id="components/Accessories/Shoe/Flat-Sneaker" transform="translate(67.200000, 159.866109)" fill="#DCE4F2">
                            <path d="M1.99845071,20.7339315 C1.20166936,22.9174568 0.803278689,24.5676585 0.803278689,25.6845367 C0.803278689,27.1271656 1.04459502,29.2323201 1.52722767,32 C3.20763733,32 18.3097619,32 46.8336014,32 C48.0109535,28.1236058 47.3313176,26.0308653 44.7946938,25.7217785 C42.25807,25.4126917 40.1508535,25.1336111 38.4730443,24.8845367 L17.5977708,15.6162205 C17.0930006,15.39211 16.502126,15.6196295 16.2780155,16.1243997 C16.2745823,16.1321324 16.2712473,16.1399084 16.2680115,16.1477257 L14.9917613,19.230956 C12.6435111,20.3221217 10.7353141,20.8677046 9.2671701,20.8677046 C8.14318411,20.8677046 6.61566695,20.4417086 4.68461862,19.5897167 L4.68462776,19.589696 C3.6740374,19.1438165 2.49333531,19.6016051 2.04745583,20.6121955 C2.02979357,20.6522272 2.01344973,20.6928277 1.99845071,20.7339315 Z" id="shoe"></path>
                        </g>
                        <g id="components/Accessories/Shoe/Flat-Sneaker" transform="translate(142.400000, 159.866109)" fill="#DCE4F2">
                            <path d="M1.99845071,20.7339315 C1.20166936,22.9174568 0.803278689,24.5676585 0.803278689,25.6845367 C0.803278689,27.1271656 1.04459502,29.2323201 1.52722767,32 C3.20763733,32 18.3097619,32 46.8336014,32 C48.0109535,28.1236058 47.3313176,26.0308653 44.7946938,25.7217785 C42.25807,25.4126917 40.1508535,25.1336111 38.4730443,24.8845367 L17.5977708,15.6162205 C17.0930006,15.39211 16.502126,15.6196295 16.2780155,16.1243997 C16.2745823,16.1321324 16.2712473,16.1399084 16.2680115,16.1477257 L14.9917613,19.230956 C12.6435111,20.3221217 10.7353141,20.8677046 9.2671701,20.8677046 C8.14318411,20.8677046 6.61566695,20.4417086 4.68461862,19.5897167 L4.68462776,19.589696 C3.6740374,19.1438165 2.49333531,19.6016051 2.04745583,20.6121955 C2.02979357,20.6522272 2.01344973,20.6928277 1.99845071,20.7339315 Z" id="shoe"></path>
                        </g>
                        <polygon id="Bottom" fill="#E3ECF3" points="98.4 0 111.2 50.353422 150.296254 50.353422 144.466844 0"></polygon>
                        <path d="M91.2,-3.55271368e-15 C86.9883513,12.6772588 86.1883513,29.4617328 88.8,50.353422 L128.696254,50.353422 L139.666844,-3.55271368e-15 L91.2,-3.55271368e-15 Z" id="Bottom" fill="#F0F5F8"></path>
                    </g>
                    <g id="components/Body/Turtle-Neck" transform="translate(122.955257, 147.317730) scale(-1, 1) rotate(8.000000) translate(-122.955257, -147.317730) translate(20.408506, 72.544057)">
                        <path d="M159.750353,74.1660436 L182.434807,96.3331744 C189.035147,99.1533436 194.443186,102.26738 198.658923,105.675283 C199.606979,106.820795 200.639093,109.015656 196.178536,108.033487 C191.717979,107.051319 186.982045,106.219172 186.143692,107.672238 C185.305338,109.125303 187.775615,111.351916 186.226234,113.253605 C185.193313,114.521397 181.71952,110.488798 175.804853,101.155805 L152.21602,87.2248313 L159.750353,74.1660436 Z M48.8234662,54.1040241 L66.3584869,54.1699436 C53.0032566,97.5125692 45.9138719,120.206081 45.090333,122.250479 C43.2373704,126.850374 47.1584884,133.855935 48.8353141,137.620671 C43.3739487,140.068612 43.955863,131.002884 37.0664976,134.213496 C30.7782043,137.143995 25.9947152,142.453861 18.7295009,137.9634 C17.8362854,137.411324 16.8574669,135.332659 19.2224163,133.708292 C25.1143677,129.661401 33.6050266,122.578614 34.7522484,120.24726 C36.3166902,117.068042 41.0070961,95.0202967 48.8234662,54.1040241 Z" id="Skin" fill="#C4CFE2"></path>
                        <path d="M98.3036603,7.78623955 L105.098075,5.99755374 C119.331024,43.5243598 177.457981,64.8674709 182.143881,78.9514718 C183.862324,84.1164471 180.305672,87.114549 182.403944,88.5499702 L174.012968,95.9091451 C172.339374,94.2674772 169.383222,97.796939 162.418128,96.1183591 C155.453034,94.4397792 102.289698,53.3468598 98.3036603,7.78623955 Z" id="Clothes-Back" fill="#C5CFD6" transform="translate(140.466773, 51.290578) rotate(5.000000) translate(-140.466773, -51.290578) "></path>
                        <path d="M113.903692,9.41202653 C113.105351,60.5479205 142.615803,73.5918932 136.042534,94.1055444 C130.614438,111.045379 78.658605,129.25563 69.6679687,112.650594 C66.028674,105.929087 64.377511,97.7999001 64.1901661,88.9617174 C61.8923478,95.7517658 60.0750287,101.597184 58.738207,106.497978 C56.4320027,114.952532 47.4913409,116.296421 47.4913409,119.553419 L35.7121451,116.296421 C36.5111002,111.871654 30.9581027,109.717056 32.4470061,99.8317417 C39.1181678,55.5397259 57.0423776,23.4338356 86.2196354,3.5140706 L86.4663717,-0.0204061472 C86.6192732,-2.2242476 88.5305001,-3.88604714 90.7342759,-3.73220498 C90.7345895,-3.73218309 90.7349031,-3.73216116 90.7351508,-3.73119849 L110.713775,-2.33178821 C112.917081,-2.17651126 114.578318,-0.265476535 114.425442,1.93799753 L113.903692,9.41202653 Z" id="Clothes-Front" fill="#D2DEE4"></path>
                    </g>
                </g>
                <g id="woman" transform="translate(0.000000, 35.000000)">
                    <g id="components/Head/Front/Short-2" transform="translate(65.000000, 0.000000)">
                        <g id="Head" stroke-width="1" transform="translate(47.250000, 27.125000)" fill="#BBC8E0">
                            <path d="M7.22948965,30.1788609 C3.19756881,25.4462039 0.468680445,19.6462675 0.924679292,13.1472722 C2.23853894,-5.578143 28.3049643,-1.45879025 33.3754237,7.9921913 C38.4458831,17.4431729 37.8433807,41.4163714 31.2902637,43.1055254 C28.6768897,43.7791577 23.109626,42.1290283 17.4434505,38.7137678 L21,63.875 L0,63.875 L7.22948965,30.1788609 Z"></path>
                        </g>
                        <path d="M52.8658711,61.5190801 C50.2301643,49.7931514 42.7214661,41.7999788 43.8682245,36.5589901 C44.63273,33.0649977 46.6703665,30.8922065 49.9811339,30.0406165 C51.6934315,23.1135632 57.2159425,20.1672175 66.5486669,21.2015793 C80.5477534,22.7531219 89.0920166,28.5667889 85.4021716,41.3593931 C82.0103364,41.3593931 77.9156663,40.1327383 72.2535887,42.2343931 C70.4570343,42.9012397 69.172086,44.9691896 68.3987436,48.4382426 L65.8400731,48.4382426 C63.3567756,44.3214251 60.9082284,42.808607 58.4944313,43.8997883 C56.0806343,44.9909696 55.531939,47.6414534 56.8483454,51.8512397 L55.5879415,61.5190801 L52.8658711,61.5190801 Z" id="Hair" fill="#191847"></path>
                    </g>
                    <g id="components/Bottom/Sitting/Baggy-Pants" transform="translate(0.000000, 165.000000)">
                        <g id="components/Objects/Seat/Cube-2" transform="translate(8.766667, 36.728033)" fill="#E3ECF3">
                            <path d="M53.625,0 L150.25,0 C159.086556,-1.623249e-15 166.25,7.163444 166.25,16 L166.25,92 C166.25,100.836556 159.086556,108 150.25,108 L53.625,108 C44.788444,108 37.625,100.836556 37.625,92 L37.625,16 C37.625,7.163444 44.788444,1.623249e-15 53.625,0 Z M66.125,24.3870968 C63.915861,24.3870968 62.125,26.1779578 62.125,28.3870968 L62.125,79.6129032 C62.125,81.8220422 63.915861,83.6129032 66.125,83.6129032 L137.75,83.6129032 C139.959139,83.6129032 141.75,81.8220422 141.75,79.6129032 L141.75,28.3870968 C141.75,26.1779578 139.959139,24.3870968 137.75,24.3870968 L66.125,24.3870968 Z" id="Seat"></path>
                        </g>
                        <path d="M262.262692,140.790795 C244.978447,119.73704 233.283513,104.128727 227.177892,93.9658573 C216.723586,76.5645565 208.167236,61.0806126 205.467065,55.1658158 C199.028162,41.061224 220.290462,34.4566828 225.102603,41.0355322 C232.385971,50.9928821 247.940658,82.3258585 271.766667,135.034462 L262.262692,140.790795 Z" id="LegLower" fill="#C4CFE2"></path>
                        <path d="M226.844134,134.669456 L194.677156,53.899943 C187.79728,39.1761992 221.021481,29.4979246 226.07767,36.3500599 C237.556786,51.9065282 264.839988,113.274539 268.26,117.909331 L226.844134,134.669456 Z" id="LegLower" fill="#C4CFE2"></path>
                        <g id="Lower-Leg" stroke-width="1" transform="translate(193.018296, 86.135357) rotate(39.000000) translate(-193.018296, -86.135357) translate(168.909962, 23.173014)" fill="#C4CFE2">
                            <path d="M4.21717151,120.638502 C3.33468691,109.619554 1.6951399,71.4742507 3.33557332,53.818203 C3.8069681,48.744563 4.30361415,43.839167 4.80411392,39.2374705 C6.29177636,25.5596 31.7169477,25.9919662 29.6978703,38.9866286 C24.6695698,71.3484739 15.8191874,116.701726 15.1848473,120.620503 C14.2957925,126.112835 4.77178557,127.563567 4.21717151,120.638502 Z" id="LegLower"></path>
                        </g>
                        <g id="components/Accessories/Shoe/Flat-Sneaker" transform="translate(166.128333, 122.426778) rotate(30.000000) translate(-166.128333, -122.426778) translate(139.390000, 104.937238)" fill="#DCE4F2">
                            <path d="M2.22608127,22.500135 C1.32126206,24.9766672 0.868852459,26.8407762 0.868852459,28.092462 C0.868852459,29.6703374 1.12986808,31.9728501 1.65189932,35 C3.46948528,35 19.8044364,35 50.6567525,35 C51.930215,30.7601938 51.1950986,28.4712589 48.4514035,28.1331953 C45.7077083,27.7951316 43.4284742,27.4898872 41.613701,27.217462 L18.9636454,17.0485096 C18.459809,16.8223076 17.867996,17.0473748 17.641794,17.5512111 C17.6372271,17.5613833 17.6328307,17.5716311 17.6286065,17.5819503 L16.2155786,21.0338582 C13.6756345,22.2273206 11.6116662,22.8240519 10.0236738,22.8240519 C8.78110545,22.8240519 7.08258832,22.3373279 4.92812241,21.36388 L4.92812055,21.3638841 C3.92153187,20.9090792 2.73683829,21.3563883 2.28203338,22.362977 C2.26169537,22.4079897 2.24303187,22.4537404 2.22608127,22.500135 Z" id="shoe"></path>
                        </g>
                        <g id="components/Accessories/Shoe/Flat-Sneaker" transform="translate(252.480000, 115.430962)" fill="#DCE4F2">
                            <path d="M2.22608127,22.500135 C1.32126206,24.9766672 0.868852459,26.8407762 0.868852459,28.092462 C0.868852459,29.6703374 1.12986808,31.9728501 1.65189932,35 C3.46948528,35 19.8044364,35 50.6567525,35 C51.930215,30.7601938 51.1950986,28.4712589 48.4514035,28.1331953 C45.7077083,27.7951316 43.4284742,27.4898872 41.613701,27.217462 L18.9636454,17.0485096 C18.459809,16.8223076 17.867996,17.0473748 17.641794,17.5512111 C17.6372271,17.5613833 17.6328307,17.5716311 17.6286065,17.5819503 L16.2155786,21.0338582 C13.6756345,22.2273206 11.6116662,22.8240519 10.0236738,22.8240519 C8.78110545,22.8240519 7.08258832,22.3373279 4.92812241,21.36388 L4.92812055,21.3638841 C3.92153187,20.9090792 2.73683829,21.3563883 2.28203338,22.362977 C2.26169537,22.4079897 2.24303187,22.4537404 2.22608127,22.500135 Z" id="shoe"></path>
                        </g>
                        <path d="M183.102433,57.9341461 C156.366889,53.5894672 138.459058,50.6185925 129.378942,49.021522 C103.497032,44.4692418 95.9496469,30.5763769 100.412064,0.264292007 L148.099044,0.264292007 C154.409649,2.08212412 180.777806,13.324826 227.203516,33.9923977 C235.556416,38.1285375 234.000832,50.3239629 232.47407,54.3418161 C232.411803,54.5056795 218.330412,78.5743937 190.229899,126.547959 L151.219939,101.758943 L183.175694,60.8551925 C184.019615,59.1596689 183.995195,58.1859868 183.102433,57.9341461 Z" id="Leg-and-Butt" fill="#B5C1D7"></path>
                    </g>
                    <g id="components/Body/Turtle-Neck" transform="translate(18.000000, 72.000000)">
                        <path d="M174.556483,81.0882077 L199.343399,105.324271 C206.555478,108.407656 212.46475,111.812335 217.071213,115.538309 C218.107138,116.790736 219.234911,119.190451 214.360937,118.116613 C209.486962,117.042775 204.312089,116.132962 203.396034,117.721647 C202.47998,119.310332 205.179209,121.744762 203.486227,123.823941 C202.357572,125.210061 198.561817,120.801085 192.098961,110.597014 L166.323846,95.3658155 L174.556483,81.0882077 Z M53.3485679,59.153733 L72.5087857,59.225805 C57.9157535,106.613742 50.169304,131.425315 49.269437,133.660523 C47.2447365,138.689742 51.5292751,146.349155 53.3615139,150.465266 C47.3939733,153.141683 48.0298211,143.22982 40.5019291,146.740089 C33.6308183,149.944101 28.4039815,155.749555 20.4654058,150.839983 C19.4894046,150.236381 18.4198662,147.963707 21.0040061,146.187732 C27.4420408,141.763132 36.7196389,134.019285 37.9731885,131.470338 C39.6826273,127.994393 44.8077538,103.888858 53.3485679,59.153733 Z" id="Skin" fill="#C4CFE2"></path>
                        <path d="M107.412091,8.51075847 L114.836165,6.55552118 C130.390455,47.5854475 193.906281,70.9237594 199.027302,86.322462 C200.905315,91.9695732 197.019174,95.2472823 199.312012,96.8167876 L190.14371,104.862309 C188.314901,103.067332 185.084949,106.926026 177.474181,105.090393 C169.863413,103.254761 111.770159,58.3237033 107.412091,8.51075847 Z" id="Clothes-Back" fill="#04AD82" transform="translate(153.485305, 56.077395) rotate(5.000000) translate(-153.485305, -56.077395) "></path>
                        <path d="M124.460619,10.2904823 C123.588286,66.1990597 155.833853,80.46047 148.651355,102.888729 C142.720166,121.409615 85.9489147,141.319489 76.125,123.164649 C72.1484047,115.815802 70.3442071,106.927891 70.1394986,97.264811 C67.6287117,104.688597 65.6429582,111.079588 64.182236,116.437789 C61.6622859,125.681435 51.8929773,127.150754 51.8929773,130.711738 L39.0220512,127.150754 C39.8950558,122.313009 33.8273902,119.957315 35.4542896,109.149371 C42.7437541,60.7234337 62.3292321,25.6209935 94.2107235,3.84205052 L94.5063104,-0.39472619 C94.6587904,-2.59859701 96.5699487,-4.26047553 98.7737308,-4.10672445 C98.7741546,-4.10669488 98.7745784,-4.10666525 98.774913,-4.10536449 L121.344889,-2.52350097 C123.548036,-2.3678111 125.209154,-0.456912566 125.056709,1.74646183 L124.460619,10.2904823 Z" id="Clothes-Front" fill="#04CC99"></path>
                    </g>
                </g>
            </g>
        </g>
    </g>
</svg>