<?xml version="1.0" encoding="UTF-8"?>
<svg width="713px" height="535px" viewBox="0 0 713 535" version="1.1" xmlns="http://www.w3.org/2000/svg" xmlns:xlink="http://www.w3.org/1999/xlink">
    <!-- Generator: Sketch 55.1 (78136) - https://sketchapp.com -->
    <title>web/operations/notifications</title>
    <desc>Created with Sketch.</desc>
    <defs>
        <rect id="path-1" x="67" y="76" width="165" height="42" rx="2.56"></rect>
        <filter x="-26.1%" y="-83.3%" width="152.1%" height="304.8%" filterUnits="objectBoundingBox" id="filter-2">
            <feOffset dx="0" dy="8" in="SourceAlpha" result="shadowOffsetOuter1"></feOffset>
            <feGaussianBlur stdDeviation="13" in="shadowOffsetOuter1" result="shadowBlurOuter1"></feGaussianBlur>
            <feColorMatrix values="0 0 0 0 0   0 0 0 0 0   0 0 0 0 0  0 0 0 0.0493376359 0" type="matrix" in="shadowBlurOuter1"></feColorMatrix>
        </filter>
        <rect id="path-3" x="84" y="101" width="132" height="34" rx="2.048"></rect>
        <filter x="-32.6%" y="-102.9%" width="165.2%" height="352.9%" filterUnits="objectBoundingBox" id="filter-4">
            <feOffset dx="0" dy="8" in="SourceAlpha" result="shadowOffsetOuter1"></feOffset>
            <feGaussianBlur stdDeviation="13" in="shadowOffsetOuter1" result="shadowBlurOuter1"></feGaussianBlur>
            <feColorMatrix values="0 0 0 0 0   0 0 0 0 0   0 0 0 0 0  0 0 0 0.0493376359 0" type="matrix" in="shadowBlurOuter1"></feColorMatrix>
        </filter>
        <rect id="path-5" x="46" y="47" width="206" height="52" rx="3.2"></rect>
        <filter x="-20.9%" y="-67.3%" width="141.7%" height="265.4%" filterUnits="objectBoundingBox" id="filter-6">
            <feOffset dx="0" dy="8" in="SourceAlpha" result="shadowOffsetOuter1"></feOffset>
            <feGaussianBlur stdDeviation="13" in="shadowOffsetOuter1" result="shadowBlurOuter1"></feGaussianBlur>
            <feColorMatrix values="0 0 0 0 0   0 0 0 0 0   0 0 0 0 0  0 0 0 0.0493376359 0" type="matrix" in="shadowBlurOuter1"></feColorMatrix>
        </filter>
        <rect id="path-7" x="20" y="16" width="257" height="65" rx="4"></rect>
        <filter x="-16.7%" y="-53.8%" width="133.5%" height="232.3%" filterUnits="objectBoundingBox" id="filter-8">
            <feOffset dx="0" dy="8" in="SourceAlpha" result="shadowOffsetOuter1"></feOffset>
            <feGaussianBlur stdDeviation="13" in="shadowOffsetOuter1" result="shadowBlurOuter1"></feGaussianBlur>
            <feColorMatrix values="0 0 0 0 0   0 0 0 0 0   0 0 0 0 0  0 0 0 0.0493376359 0" type="matrix" in="shadowBlurOuter1"></feColorMatrix>
        </filter>
        <filter x="-165.0%" y="-165.0%" width="430.0%" height="430.0%" filterUnits="objectBoundingBox" id="filter-9">
            <feOffset dx="0" dy="8" in="SourceAlpha" result="shadowOffsetOuter1"></feOffset>
            <feGaussianBlur stdDeviation="13" in="shadowOffsetOuter1" result="shadowBlurOuter1"></feGaussianBlur>
            <feColorMatrix values="0 0 0 0 0   0 0 0 0 0   0 0 0 0 0  0 0 0 0.0493376359 0" type="matrix" in="shadowBlurOuter1" result="shadowMatrixOuter1"></feColorMatrix>
            <feMerge>
                <feMergeNode in="shadowMatrixOuter1"></feMergeNode>
                <feMergeNode in="SourceGraphic"></feMergeNode>
            </feMerge>
        </filter>
    </defs>
    <g id="web/operations/notifications" stroke="none" stroke-width="1" fill="none" fill-rule="evenodd">
        <path d="M357,469.270197 C480.025969,385.168728 632,374.294079 632,257.135099 C632,139.976119 508.878306,45 357,45 C205.121694,45 82,139.976119 82,257.135099 C82,374.294079 233.974031,553.371666 357,469.270197 Z" id="Oval" fill="#F0F5F8" fill-rule="nonzero"></path>
        <g id="illustration" transform="translate(68.000000, 29.000000)">
            <circle id="Oval" fill="#F0F5F8" cx="209" cy="84" r="8"></circle>
            <circle id="Oval" fill="#F0F5F8" cx="209" cy="137" r="8"></circle>
            <circle id="Oval" fill="#F0F5F8" cx="209" cy="190" r="8"></circle>
            <circle id="Oval" fill="#F0F5F8" cx="209" cy="260" r="8"></circle>
            <circle id="Oval" fill="#F0F5F8" cx="209" cy="306" r="8"></circle>
            <circle id="Oval" fill="#F0F5F8" cx="209" cy="349" r="8"></circle>
            <circle id="Oval" fill="#F0F5F8" opacity="0.1" cx="341" cy="379" r="20"></circle>
            <g id="Row-Copy" opacity="0.377929688" transform="translate(280.000000, 136.500000) scale(-1, 1) translate(-280.000000, -136.500000) translate(191.000000, 126.000000)">
                <g id="Group-4"></g>
            </g>
            <g id="Row" transform="translate(291.500000, 151.500000) scale(-1, 1) translate(-291.500000, -151.500000) translate(153.000000, 84.000000)">
                <g id="Group-4">
                    <g id="Group-3">
                        <g id="Container" opacity="0.6">
                            <use fill="black" fill-opacity="1" filter="url(#filter-2)" xlink:href="#path-1"></use>
                            <use fill="#FFFFFF" fill-rule="evenodd" xlink:href="#path-1"></use>
                        </g>
                        <g id="Container" opacity="0.4">
                            <use fill="black" fill-opacity="1" filter="url(#filter-4)" xlink:href="#path-3"></use>
                            <use fill="#FFFFFF" fill-rule="evenodd" xlink:href="#path-3"></use>
                        </g>
                        <g id="Container" opacity="0.8">
                            <use fill="black" fill-opacity="1" filter="url(#filter-6)" xlink:href="#path-5"></use>
                            <use fill="#FFFFFF" fill-rule="evenodd" xlink:href="#path-5"></use>
                        </g>
                        <g id="Container">
                            <use fill="black" fill-opacity="1" filter="url(#filter-8)" xlink:href="#path-7"></use>
                            <use fill="#FFFFFF" fill-rule="evenodd" xlink:href="#path-7"></use>
                        </g>
                        <g id="Notification" filter="url(#filter-9)">
                            <circle id="Background" fill="#04CC99" cx="20" cy="20" r="20"></circle>
                            <path d="M22.3406695,11.984811 C24.4854039,12.7800813 26.0220092,14.9259223 26.0220092,17.4482758 L26.0220092,21.6475582 L26.0529263,21.6475582 C26.0576534,22.2906931 26.2648417,22.6122605 26.674491,22.6122605 C27.4065492,22.6122605 28,23.2348452 28,24.0028425 L28,24.6532567 C28,25.3970422 27.4252585,26 26.716279,26 L14.2837212,26 C13.5747416,26 13,25.3970424 13,24.6532567 L13,24.0195759 C13,23.2423371 13.6005935,22.6122605 14.3414607,22.6122605 C14.6266762,22.6122605 14.8388525,22.4155924 14.9779897,22.0222563 L14.9779897,17.4482758 C14.9779897,14.9259223 16.514595,12.7800813 18.6593296,11.984811 L18.6593296,11.9310345 C18.6593296,10.8645536 19.4834256,10 20.5,10 C21.5165734,10 22.3406695,10.8645536 22.3406695,11.9310345 L22.3406695,11.984811 Z M20.5,29 C19.1192881,29 18,28.1045695 18,27 C19.0202085,27 22.1965752,27 23,27 C23,28.1045695 21.8807119,29 20.5,29 Z" id="path-1" fill="#FFFFFF" transform="translate(20.500000, 19.500000) scale(-1, 1) translate(-20.500000, -19.500000) "></path>
                        </g>
                    </g>
                    <g id="Text-Stuff" transform="translate(39.000000, 36.000000)" fill="#E3ECF3">
                        <rect id="Label" x="0" y="0" width="198.809524" height="6.51" rx="3.255"></rect>
                        <rect id="Label" x="65.4761905" y="15.919623" width="133.447489" height="6.51" rx="3.255"></rect>
                    </g>
                    <circle id="Background" fill="#C8D8E4" cx="256.5" cy="47.5" r="8.5"></circle>
                </g>
            </g>
            <g id="5" transform="translate(409.000000, 160.000000)">
                <g id="bell">
                    <g id="path-1-link"></g>
                </g>
            </g>
            <g id="Group-2" transform="translate(364.000000, 114.000000)">
                <ellipse id="shadow" fill="#E3ECF3" opacity="0.432593936" cx="101" cy="306" rx="100" ry="8"></ellipse>
                <g id="components/Head/Front/Airy" transform="translate(101.204167, 37.023324) scale(-1, 1) translate(-101.204167, -37.023324) translate(52.608333, 0.000000)">
                    <g id="Head" stroke-width="1" transform="translate(38.514706, 22.057692)" fill="#C4CFE2">
                        <path d="M5.89294534,24.5410517 C2.60642163,20.6925175 0.38203364,15.9760856 0.753730179,10.6911883 C1.82469141,-4.53607233 23.0721138,-1.18626899 27.2051773,6.49914458 C31.3382408,14.1845582 30.8471255,33.679247 25.5055091,35.0528448 C23.3752798,35.6006337 18.8372582,34.2587703 14.2186109,31.4815254 L17.1176471,51.9423077 L0,51.9423077 L5.89294534,24.5410517 Z"></path>
                    </g>
                    <path d="M55.9632585,19.699125 C53.7072021,19.3300365 47.632671,19.076278 46.512419,19.0764418 C45.796525,19.0764418 45.0207141,19.2396074 44.596711,18.5838323 C44.2494869,18.0468275 44.3766878,17.1386044 44.2730608,16.5154297 C44.1527356,15.7915052 43.9818247,15.0769185 43.8089494,14.3641337 C43.3170076,12.3358672 42.5731197,10.4062209 41.5322659,8.59452565 C39.5792326,5.19556973 36.7181124,2.53315255 33.1060649,0.983898351 C29.1173259,-0.726719431 24.6037399,-1.11841519 20.3132875,-0.771442536 C15.7219403,-0.400224388 11.5657282,1.11184247 7.23074734,2.53479076 C3.09974629,3.89073631 -1.22704922,4.42446478 -5.54762383,3.76230072 C-9.90077627,3.09522204 -13.1899921,0.741443427 -16.861793,-1.49258211 C-20.6206863,-3.77968562 -24.9163774,-5.27553421 -29.3600602,-4.93167416 C-33.5080869,-4.6105852 -37.3311537,-2.90193327 -40.7611582,-0.619416745 C-43.9703209,1.51615244 -46.6182936,4.08551935 -48.1132727,7.70170178 C-49.7215375,11.5916289 -49.7200641,15.8614567 -47.0753656,19.2992382 C-43.2419852,24.2823422 -36.1254462,25.5709573 -30.2047921,25.4428494 C-26.78019,25.3689662 -23.4168145,24.7453 -20.1835867,23.6108403 C-15.8716886,22.0977905 -12.1455368,19.5333383 -8.11161441,17.4526491 C-6.21849813,16.4762765 -4.26169955,15.6743733 -2.2106053,15.0967408 C-0.220246631,14.5359819 1.74015353,14.2787831 3.5422483,15.4782796 C5.4486249,16.7472363 7.15691515,17.9937495 9.33782963,18.788117 C11.4300145,19.5502118 13.6461262,19.9764738 15.8751707,19.9592726 C20.2121161,19.9258531 24.4873437,18.577771 28.6995437,17.6747902 C32.1344595,16.9385791 35.8096982,16.2048253 39.3115704,16.9125316 C40.7728257,17.2079007 42.9072472,17.817642 43.4350409,19.3326577 C34.5520954,20.9387577 31.0633279,31.8983756 33.5675652,39.9437835 C34.9191363,44.286184 43.0436157,49.3624042 46.2025202,47.0795387 C48.2037771,45.6332777 46.9888085,43.734599 46.2025202,42.4812054 C44.6967364,40.0809016 44.1815482,36.9976286 46.9678539,35.3264916 C49.3712472,33.8851954 51.8982496,37.3078914 51.9460523,37.3041235 C52.606613,37.2521923 58.3144317,34.0318498 62.2470148,29.3325533 C66.1265227,29.5619794 66.7151002,27.0100175 65.7887497,24.9229922 C64.8623992,22.835967 59.0804175,20.2094271 55.9632585,19.699125 Z" id="hair" fill="#191847"></path>
                </g>
                <g id="components/Bottom/Standing/Shorts" transform="translate(107.000000, 220.355685) scale(-1, 1) translate(-107.000000, -220.355685) translate(0.000000, 134.711370)">
                    <polygon id="Leg" fill="#B5C1D7" points="91.3066667 9.9475983e-14 118.149998 88.0214779 131.153577 162.878075 141.34928 162.878075 127.608895 9.9475983e-14"></polygon>
                    <path d="M81.7035788,0 C83.5268429,48.3285224 81.3811074,73.2572494 80.9730391,77.6481058 C80.5649708,82.0389621 74.97718,110.50951 61.7487636,164.352085 L72.6130479,160.609567 C93.5193265,111.227958 100.643441,85.5634634 103.041233,79.0790681 C105.439025,72.5946728 111.807441,46.2349835 122.146481,0 L81.7035788,0 Z" id="Leg" fill="#C4CFE2"></path>
                    <g id="components/Accessories/Shoe/Flat-Sneaker" transform="translate(59.920000, 142.380753)" fill="#DCE4F2">
                        <path d="M1.71792356,19.0039967 C1.0535155,20.8770275 0.721311475,22.3012324 0.721311475,23.2766113 C0.721311475,24.5839938 0.938003689,26.4917901 1.37138811,29 C2.8803274,29 16.4414189,29 42.0546625,29 C43.1118766,25.4870178 42.5015913,23.5904717 40.2238066,23.3103618 C37.946022,23.0302519 36.0538276,22.7773351 34.5472235,22.5516113 L15.9025649,14.1972257 C15.3985639,13.9713906 14.8069149,14.1968885 14.5810798,14.7008895 C14.5767129,14.7106353 14.5725023,14.7204505 14.5684498,14.7303312 L13.4619898,17.4280539 C11.3533569,18.4169228 9.63987385,18.9113573 8.32154049,18.9113573 C7.3502987,18.9113573 6.04350987,18.5538596 4.40117398,17.8388642 L4.40117194,17.8388689 C3.38841816,17.3979638 2.20999481,17.8615388 1.76908971,18.8742925 C1.75053198,18.9169194 1.73346623,18.9601804 1.71792356,19.0039967 Z" id="shoe"></path>
                    </g>
                    <g id="components/Accessories/Shoe/Flat-Sneaker" transform="translate(126.973333, 142.380753)" fill="#DCE4F2">
                        <path d="M1.71792356,19.0039967 C1.0535155,20.8770275 0.721311475,22.3012324 0.721311475,23.2766113 C0.721311475,24.5839938 0.938003689,26.4917901 1.37138811,29 C2.8803274,29 16.4414189,29 42.0546625,29 C43.1118766,25.4870178 42.5015913,23.5904717 40.2238066,23.3103618 C37.946022,23.0302519 36.0538276,22.7773351 34.5472235,22.5516113 L15.9025649,14.1972257 C15.3985639,13.9713906 14.8069149,14.1968885 14.5810798,14.7008895 C14.5767129,14.7106353 14.5725023,14.7204505 14.5684498,14.7303312 L13.4619898,17.4280539 C11.3533569,18.4169228 9.63987385,18.9113573 8.32154049,18.9113573 C7.3502987,18.9113573 6.04350987,18.5538596 4.40117398,17.8388642 L4.40117194,17.8388689 C3.38841816,17.3979638 2.20999481,17.8615388 1.76908971,18.8742925 C1.75053198,18.9169194 1.73346623,18.9601804 1.71792356,19.0039967 Z" id="shoe"></path>
                    </g>
                    <polygon id="Bottom" fill="#E3ECF3" points="87.74 0 99.1533333 44.8460165 134.01416 44.8460165 128.816269 0"></polygon>
                    <path d="M81.32,-3.55271368e-15 C77.5646133,11.2906836 76.8512799,26.2393558 79.18,44.8460165 L114.75416,44.8460165 L124.536269,-3.55271368e-15 L81.32,-3.55271368e-15 Z" id="Bottom" fill="#F0F5F8"></path>
                </g>
                <g id="components/Body/Turtle-Neck" transform="translate(109.635104, 131.426313) scale(-1, 1) rotate(8.000000) translate(-109.635104, -131.426313) translate(18.197584, 64.718605)">
                    <path d="M142.606413,65.7605587 L162.856438,85.4154147 C168.748449,87.9159646 173.576112,90.6770767 177.339429,93.698751 C178.185742,94.7144385 179.107092,96.6605483 175.125229,95.7896921 C171.143366,94.9188358 166.915679,94.1809995 166.167296,95.4693843 C165.418912,96.757769 167.624086,98.7320322 166.24098,100.418196 C165.318909,101.542306 162.217913,97.9667338 156.93799,89.6914805 L135.880642,77.3393504 L142.606413,65.7605587 Z M43.5838747,47.9722347 L59.2370883,48.0306834 C47.3151022,86.4611447 40.9865296,106.582725 40.2513704,108.395425 C38.5972624,112.473998 42.0975775,118.685595 43.5944511,122.023661 C38.7191835,124.19417 39.2386485,116.155891 33.0886295,119.002634 C27.4751775,121.601008 23.2050384,126.30909 16.7195056,122.327548 C15.9221475,121.83804 15.0483729,119.994957 17.1595228,118.554685 C22.4191673,114.966443 29.9986335,108.686371 31.0227388,106.619237 C32.4192893,103.800331 36.6063346,84.2513298 43.5838747,47.9722347 Z" id="Skin" fill="#C4CFE2"></path>
                    <path d="M87.7784178,6.92411923 L93.8442995,5.3345203 C106.529558,38.6025686 158.404695,57.4974063 162.580146,69.9834163 C164.111394,74.5623662 160.935028,77.222678 162.807275,78.4943877 L155.313333,85.0242422 C153.820278,83.5694291 151.179663,86.7005907 144.963238,85.2158114 C138.746813,83.7310321 91.3127047,47.3212025 87.7784178,6.92411923 Z" id="Clothes-Back" fill="#04AD82" transform="translate(125.395427, 45.480457) rotate(5.000000) translate(-125.395427, -45.480457) "></path>
                    <path d="M101.679881,8.34533019 C100.967216,53.6858228 127.310692,65.2514787 121.442848,83.4402494 C116.597279,98.4602362 70.2171937,114.606659 62.1914062,99.8835266 C58.9426699,93.9237907 57.4687049,86.7159114 57.3014654,78.8793894 C55.2502422,84.899899 53.6279525,90.0828365 52.4345946,94.4282069 C50.3758854,101.924578 42.3947092,103.11616 42.3947092,106.004031 L31.8796222,103.11616 C32.5928358,99.1928667 27.6357697,97.2824567 28.9648883,88.5174776 C34.9201205,49.2452237 50.9207566,20.7780009 76.9667965,3.11580926 L77.1552792,0.434007565 C77.3128983,-1.76839853 79.2231615,-3.42896198 81.42607,-3.27852761 L98.4039467,-2.0973206 C100.607954,-1.94680778 102.270201,-0.0359697264 102.116874,2.167842 C102.116809,2.16878021 102.116744,2.1697184 102.113864,2.17045882 L101.679881,8.34533019 Z" id="Clothes-Front" fill="#04CC99"></path>
                </g>
            </g>
            <g id="Group" transform="translate(0.000000, 145.000000)">
                <g id="components/Head/Front/Wavy" transform="translate(57.832700, 0.000000)">
                    <g id="Head" stroke-width="1" transform="translate(42.088235, 24.144231)" fill="#C4CFE2">
                        <path d="M6.43971347,26.8625026 C2.84825457,22.6499178 0.41748006,17.487337 0.823663907,11.702517 C1.99399267,-4.96516026 25.2128254,-1.29848363 29.729369,7.11392852 C34.2459127,15.5263407 33.7092299,36.8651218 27.8719996,38.3686545 C25.5441202,38.9682612 20.585045,37.4994648 15.5378635,34.4595076 L18.7058824,56.8557692 L0,56.8557692 L6.43971347,26.8625026 Z"></path>
                    </g>
                    <path d="M73.5835602,35.0353294 C73.3982694,33.944906 72.9454301,32.7340027 72.5800424,31.7023598 C72.108964,30.372436 71.3960654,29.1733418 70.6115387,28.043245 C69.1345267,25.9156059 67.362668,23.9942953 65.4063639,22.3996606 C61.8329323,19.4869113 57.2841268,17.8068261 52.8109354,18.3524358 C50.5524164,18.6278944 48.3599693,19.4887689 46.4938949,20.9216579 C44.8079173,22.2162869 43.1861998,24.1220731 41.0030533,24.2590062 C38.6276103,24.4078813 36.450141,22.3127505 34.5450516,21.018785 C32.3970549,19.560022 30.1119623,18.4970649 27.6014768,18.0838769 C23.3958338,17.3919132 19.4449355,18.8117989 16.5464747,22.2598083 C13.462119,25.9290073 11.2200274,31.309871 13.2455438,36.1715298 C13.6220441,37.0752623 14.1064094,37.8371522 14.801552,38.4686105 C15.4390781,39.0476574 16.4127609,39.6637241 16.6712501,40.5889519 C16.9458042,41.5724293 16.1256446,42.8411843 15.8076063,43.7285962 C15.351989,45.0000049 14.9779044,46.3345727 15.1108934,47.7165099 C15.3294014,49.9859916 16.7566481,52.1525081 18.2637366,53.6441776 C19.7973988,55.1621191 21.6849737,56.032547 23.7010685,56.4337931 C25.0472656,56.7016886 26.4230561,56.8495021 27.7912369,56.7489252 C28.4704353,56.6990348 29.069792,56.5104863 29.7278522,56.3605498 C30.3677941,56.2147266 30.7254513,56.3845662 31.2683994,56.7352584 C33.7906015,58.3646572 36.5025636,58.995054 39.4149152,58.7527672 C41.8728573,58.5481635 44.7058504,57.9529288 46.7109533,56.2700571 C48.9377046,54.4010253 48.893375,51.8237093 48.3693908,49.0700519 C48.9245386,49.3449798 50.460375,49.5152175 49.5426176,48.4193539 C49.1790417,47.9853341 48.4921128,47.8087275 48.0256244,47.5534373 C47.4824348,47.256218 46.9309107,46.8720886 46.5091143,46.3872496 C44.8059847,44.4295827 46.5261456,40.445517 48.6667742,39.7889808 C51.8471573,38.8135972 52.5592104,43.3081105 54.8295667,44.4707157 C56.1349371,45.1391938 57.5004605,44.2255098 58.4784917,43.2925861 C59.7885728,42.0428055 60.6814476,40.3871346 61.4523251,38.7022727 C62.0873146,37.3147627 62.678216,35.9077477 63.3254053,34.5271374 C63.6276202,33.8824103 64.6738974,32.0598191 64.1484638,31.3308356 C66.4264298,30.8769127 68.9636098,31.8228397 70.9254701,33.0633323 C71.7363289,33.5761683 72.3545287,34.1415484 72.7870753,35.0468732 C72.8797208,35.2408618 73.0814389,35.8175204 73.3347342,35.8411387 C73.8062957,35.8851908 73.6300641,35.3093284 73.5835602,35.0353294" id="hair" fill="#191847"></path>
                </g>
                <g id="components/Bottom/Sitting/Baggy-Pants" transform="translate(0.000000, 146.911765)">
                    <g id="components/Objects/Seat/Cube-2" transform="translate(7.800000, 32.686192)" fill="#E3ECF3">
                        <path d="M49.5474138,0 L132.232759,0 C141.069315,6.22518934e-15 148.232759,7.163444 148.232759,16 L148.232759,81 C148.232759,89.836556 141.069315,97 132.232759,97 L49.5474138,97 C40.7108578,97 33.5474138,89.836556 33.5474138,81 L33.5474138,16 C33.5474138,7.163444 40.7108578,1.623249e-15 49.5474138,0 Z M59.3922414,21.9032258 C57.1831024,21.9032258 55.3922414,23.6940868 55.3922414,25.9032258 L55.3922414,71.0967742 C55.3922414,73.3059132 57.1831024,75.0967742 59.3922414,75.0967742 L122.387931,75.0967742 C124.59707,75.0967742 126.387931,73.3059132 126.387931,71.0967742 L126.387931,25.9032258 C126.387931,23.6940868 124.59707,21.9032258 122.387931,21.9032258 L59.3922414,21.9032258 Z" id="Seat"></path>
                    </g>
                    <path d="M233.343992,125.297071 C217.965614,106.560236 207.560236,92.6695851 202.127858,83.625117 C192.826308,68.1387919 185.213434,54.3588227 182.811001,49.0949365 C177.082091,36.5425247 195.999879,30.6647991 200.281404,36.5196602 C206.761662,45.3812252 220.601194,73.266075 241.8,120.17421 L233.343992,125.297071 Z" id="LegLower" fill="#C4CFE2"></path>
                    <path d="M201.830902,119.849372 L173.210854,47.9683703 C167.089595,34.8649429 196.650291,26.2517415 201.148954,32.3498141 C211.362311,46.1943266 235.6371,100.80892 238.68,104.933663 L201.830902,119.849372 Z" id="LegLower" fill="#04CC99"></path>
                    <g id="Lower-Leg" stroke-width="1" transform="translate(171.734909, 76.656346) rotate(39.000000) translate(-171.734909, -76.656346) translate(150.284909, 20.622873)" fill="#D2DEE4">
                        <path d="M3.7521602,107.362495 C2.96698379,97.556158 1.50822333,63.6086633 2.96777246,47.8956257 C3.38718835,43.3803288 3.82907114,39.0147611 4.27438273,34.9194713 C5.59800635,22.746821 28.2196417,23.1316063 26.4232002,34.6962341 C21.949351,63.496728 14.0748663,103.858953 13.5104725,107.346476 C12.7194504,112.234389 4.2456191,113.525471 3.7521602,107.362495 Z" id="LegLower"></path>
                    </g>
                    <g id="components/Accessories/Shoe/Flat-Sneaker" transform="translate(147.810000, 108.953975) rotate(30.000000) translate(-147.810000, -108.953975) translate(124.020000, 93.389121)" fill="#DCE4F2">
                        <path d="M1.94036344,20.1329771 C1.17137798,22.2249714 0.786885246,23.807944 0.786885246,24.8818949 C0.786885246,26.2794417 1.02327675,28.3188101 1.49605976,31 C3.14217535,31 17.9360933,31 45.8778136,31 C47.0311381,27.2447431 46.3653723,25.2174008 43.8805163,24.9179729 C41.3956604,24.6185451 39.3314483,24.3481858 37.6878801,24.1068949 L17.2519265,15.1340506 C16.7462391,14.9120177 16.1563051,15.1419651 15.9342722,15.6476526 C15.931951,15.6529391 15.9296757,15.6582456 15.9274464,15.6635716 L14.685807,18.6299887 C12.3854803,19.6870554 10.516226,20.2155888 9.07804418,20.2155888 C7.98214935,20.2155888 6.49464981,19.8067587 4.61554558,18.9890986 L4.61554333,18.9891037 C3.60270837,18.5483859 2.42437099,19.0121784 1.98365313,20.0250134 C1.96817954,20.060574 1.95374354,20.0965771 1.94036344,20.1329771 Z" id="shoe"></path>
                    </g>
                    <g id="components/Accessories/Shoe/Flat-Sneaker" transform="translate(224.640000, 102.728033)" fill="#DCE4F2">
                        <path d="M1.94036344,20.1329771 C1.17137798,22.2249714 0.786885246,23.807944 0.786885246,24.8818949 C0.786885246,26.2794417 1.02327675,28.3188101 1.49605976,31 C3.14217535,31 17.9360933,31 45.8778136,31 C47.0311381,27.2447431 46.3653723,25.2174008 43.8805163,24.9179729 C41.3956604,24.6185451 39.3314483,24.3481858 37.6878801,24.1068949 L17.2519265,15.1340506 C16.7462391,14.9120177 16.1563051,15.1419651 15.9342722,15.6476526 C15.931951,15.6529391 15.9296757,15.6582456 15.9274464,15.6635716 L14.685807,18.6299887 C12.3854803,19.6870554 10.516226,20.2155888 9.07804418,20.2155888 C7.98214935,20.2155888 6.49464981,19.8067587 4.61554558,18.9890986 L4.61554333,18.9891037 C3.60270837,18.5483859 2.42437099,19.0121784 1.98365313,20.0250134 C1.96817954,20.060574 1.95374354,20.0965771 1.94036344,20.1329771 Z" id="shoe"></path>
                    </g>
                    <path d="M162.912431,51.5586181 C139.124912,47.6920617 123.19171,45.0481253 115.112823,43.6268091 C92.0848118,39.5754975 85.3696478,27.2115125 89.3400113,0.235207241 L131.768731,0.235207241 C137.38349,1.85299085 160.844132,11.8584576 202.150656,30.2516075 C209.582515,33.932574 208.198459,44.7859191 206.840047,48.3616162 C206.784646,48.5074468 194.255956,69.9274509 169.253979,112.621628 L134.545497,90.5605908 L162.977614,54.1582096 C163.728479,52.6492747 163.706751,51.7827442 162.912431,51.5586181 Z" id="Leg-and-Butt" fill="#04AD82"></path>
                </g>
                <g id="components/Body/Turtle-Neck" transform="translate(16.015209, 64.106952)">
                    <path d="M155.074733,72.1882825 L177.095252,93.7642898 C183.502411,96.5092544 188.752166,99.5402497 192.844516,102.857275 C193.764824,103.972241 194.766729,106.108572 190.436725,105.152594 C186.106721,104.196617 181.5094,103.386661 180.695584,104.800978 C179.881768,106.215295 182.279744,108.382532 180.77571,110.233509 C179.773021,111.467494 176.4009,107.54243 170.659345,98.458317 L147.760917,84.8988358 L155.074733,72.1882825 Z M47.3944867,52.6612501 L64.4162873,52.7254118 C51.4519418,94.912234 44.5700513,117.000585 43.770616,118.990466 C41.9718864,123.467697 45.77824,130.286443 47.4059878,133.950786 C42.1044673,136.333449 42.66935,127.509474 35.9816245,130.63447 C29.8773788,133.486821 25.2338942,138.655091 18.1813203,134.284376 C17.3142478,133.747022 16.3640776,131.723788 18.659809,130.142737 C24.379313,126.203764 32.6214649,119.309851 33.7351094,117.040666 C35.2537626,113.946228 39.8068884,92.4864222 47.3944867,52.6612501 Z" id="Skin" fill="#C4CFE2"></path>
                    <path d="M95.4159206,7.56981943 L102.011204,5.830402 C115.836338,42.3589666 172.267988,63.1456363 176.820013,76.8548439 C178.489361,81.8823727 175.037413,84.7996625 177.074638,86.1972515 L168.930748,93.3581409 C167.305733,91.7599051 164.436841,95.1945105 157.675087,93.5591526 C150.913333,91.9237947 99.295664,51.9154898 95.4159206,7.56981943 Z" id="Clothes-Back" fill="#E3ECF3" transform="translate(136.354193, 49.921614) rotate(5.000000) translate(-136.354193, -49.921614) "></path>
                    <path d="M110.569925,9.16103915 C109.794951,58.9333093 138.441682,71.6294428 132.060802,91.5960632 C126.791576,108.084169 76.3564019,125.808813 67.6289062,109.646578 C64.0961274,103.104312 62.4932912,95.1919028 62.3114295,86.5894049 C60.0808644,93.1983854 58.3167352,98.8879258 57.01904,103.658032 C54.7803344,111.887131 46.1013504,113.195183 46.1013504,116.365327 L34.6669116,113.195183 C35.4424826,108.88841 30.0520119,106.791268 31.4973376,97.1695619 C37.9732458,54.0586666 55.3728446,22.8089333 83.6961339,3.42036205 L83.9282367,0.0865973804 C84.0792432,-2.11737587 85.9901616,-3.77953028 88.1939659,-3.62609733 C88.194775,-3.626041 88.195584,-3.62598443 88.1962226,-3.62350122 L107.356637,-2.27780583 C109.559229,-2.1206711 111.219932,-0.210248564 111.068993,1.99277696 L110.569925,9.16103915 Z" id="Clothes-Front" fill="#E3ECF3"></path>
                </g>
            </g>
        </g>
    </g>
</svg>