<?xml version="1.0" encoding="UTF-8"?>
<svg width="335px" height="301px" viewBox="0 0 335 301" version="1.1" xmlns="http://www.w3.org/2000/svg" xmlns:xlink="http://www.w3.org/1999/xlink">
    <!-- Generator: Sketch 52.6 (67491) - http://www.bohemiancoding.com/sketch -->
    <title>aisles</title>
    <desc>Created with Sketch.</desc>
    <g id="Traceability" stroke="none" stroke-width="1" fill="none" fill-rule="evenodd">
        <g id="Traceability---Add-new-section" transform="translate(-20.000000, -290.000000)">
            <g id="aisles" transform="translate(20.000000, 290.000000)">
                <g id="Group-3" transform="translate(45.000000, 0.000000)" fill-rule="nonzero">
                    <g id="Group-2-Copy-3" transform="translate(200.000000, 0.000000)">
                        <rect id="Rectangle" fill="#F1F1F1" x="0" y="0" width="90" height="256" rx="4"></rect>
                        <g id="Group-Copy-7" transform="translate(10.000000, 220.000000)" fill="#000000" opacity="0.1">
                            <rect id="Rectangle" x="0" y="24" width="70" height="2"></rect>
                            <rect id="Rectangle" x="0" y="0" width="20" height="20" rx="2"></rect>
                            <rect id="Rectangle-Copy-3" x="25" y="0" width="20" height="20" rx="2"></rect>
                            <rect id="Rectangle-Copy-4" x="50" y="0" width="20" height="20" rx="2"></rect>
                        </g>
                        <g id="Group-Copy-6" transform="translate(10.000000, 190.000000)" fill="#000000" opacity="0.1">
                            <rect id="Rectangle" x="0" y="24" width="70" height="2"></rect>
                            <rect id="Rectangle" x="0" y="0" width="20" height="20" rx="2"></rect>
                            <rect id="Rectangle-Copy-3" x="25" y="0" width="20" height="20" rx="2"></rect>
                            <rect id="Rectangle-Copy-4" x="50" y="0" width="20" height="20" rx="2"></rect>
                        </g>
                        <g id="Group-Copy-5" transform="translate(10.000000, 160.000000)" fill="#000000" opacity="0.1">
                            <rect id="Rectangle" x="0" y="24" width="70" height="2"></rect>
                            <rect id="Rectangle" x="0" y="0" width="20" height="20" rx="2"></rect>
                            <rect id="Rectangle-Copy-3" x="25" y="0" width="20" height="20" rx="2"></rect>
                            <rect id="Rectangle-Copy-4" x="50" y="0" width="20" height="20" rx="2"></rect>
                        </g>
                        <g id="Group-Copy-4" transform="translate(10.000000, 130.000000)" fill="#000000" opacity="0.1">
                            <rect id="Rectangle" x="0" y="24" width="70" height="2"></rect>
                            <rect id="Rectangle" x="0" y="0" width="20" height="20" rx="2"></rect>
                            <rect id="Rectangle-Copy-3" x="25" y="0" width="20" height="20" rx="2"></rect>
                            <rect id="Rectangle-Copy-4" x="50" y="0" width="20" height="20" rx="2"></rect>
                        </g>
                        <g id="Group-Copy-3" transform="translate(10.000000, 100.000000)" fill="#000000" opacity="0.1">
                            <rect id="Rectangle" x="0" y="24" width="70" height="2"></rect>
                            <rect id="Rectangle" x="0" y="0" width="20" height="20" rx="2"></rect>
                            <rect id="Rectangle-Copy-3" x="25" y="0" width="20" height="20" rx="2"></rect>
                            <rect id="Rectangle-Copy-4" x="50" y="0" width="20" height="20" rx="2"></rect>
                        </g>
                        <g id="Group-Copy-2" transform="translate(10.000000, 70.000000)" fill="#000000" opacity="0.1">
                            <rect id="Rectangle" x="0" y="24" width="70" height="2"></rect>
                            <rect id="Rectangle" x="0" y="0" width="20" height="20" rx="2"></rect>
                            <rect id="Rectangle-Copy-3" x="25" y="0" width="20" height="20" rx="2"></rect>
                            <rect id="Rectangle-Copy-4" x="50" y="0" width="20" height="20" rx="2"></rect>
                        </g>
                        <g id="Group-Copy" transform="translate(10.000000, 40.000000)" fill="#000000" opacity="0.1">
                            <rect id="Rectangle" x="0" y="24" width="70" height="2"></rect>
                            <rect id="Rectangle" x="0" y="0" width="20" height="20" rx="2"></rect>
                            <rect id="Rectangle-Copy-3" x="25" y="0" width="20" height="20" rx="2"></rect>
                            <rect id="Rectangle-Copy-4" x="50" y="0" width="20" height="20" rx="2"></rect>
                        </g>
                        <g id="Group" transform="translate(10.000000, 10.000000)" fill="#000000" opacity="0.1">
                            <rect id="Rectangle" x="0" y="24" width="70" height="2"></rect>
                            <rect id="Rectangle" x="0" y="0" width="20" height="20" rx="2"></rect>
                            <rect id="Rectangle-Copy-3" x="25" y="0" width="20" height="20" rx="2"></rect>
                            <rect id="Rectangle-Copy-4" x="50" y="0" width="20" height="20" rx="2"></rect>
                        </g>
                    </g>
                    <g id="Group-2-Copy" transform="translate(100.000000, 0.000000)">
                        <rect id="Rectangle" fill="#F1F1F1" x="0" y="0" width="90" height="256" rx="4"></rect>
                        <g id="Group-Copy-7" transform="translate(10.000000, 220.000000)" fill="#000000" opacity="0.1">
                            <rect id="Rectangle" x="0" y="24" width="70" height="2"></rect>
                            <rect id="Rectangle" x="0" y="0" width="20" height="20" rx="2"></rect>
                            <rect id="Rectangle-Copy-3" x="25" y="0" width="20" height="20" rx="2"></rect>
                            <rect id="Rectangle-Copy-4" x="50" y="0" width="20" height="20" rx="2"></rect>
                        </g>
                        <g id="Group-Copy-6" transform="translate(10.000000, 190.000000)" fill="#000000" opacity="0.1">
                            <rect id="Rectangle" x="0" y="24" width="70" height="2"></rect>
                            <rect id="Rectangle" x="0" y="0" width="20" height="20" rx="2"></rect>
                            <rect id="Rectangle-Copy-3" x="25" y="0" width="20" height="20" rx="2"></rect>
                            <rect id="Rectangle-Copy-4" x="50" y="0" width="20" height="20" rx="2"></rect>
                        </g>
                        <g id="Group-Copy-5" transform="translate(10.000000, 160.000000)" fill="#000000" opacity="0.1">
                            <rect id="Rectangle" x="0" y="24" width="70" height="2"></rect>
                            <rect id="Rectangle" x="0" y="0" width="20" height="20" rx="2"></rect>
                            <rect id="Rectangle-Copy-3" x="25" y="0" width="20" height="20" rx="2"></rect>
                            <rect id="Rectangle-Copy-4" x="50" y="0" width="20" height="20" rx="2"></rect>
                        </g>
                        <g id="Group-Copy-4" transform="translate(10.000000, 130.000000)" fill="#000000" opacity="0.1">
                            <rect id="Rectangle" x="0" y="24" width="70" height="2"></rect>
                            <rect id="Rectangle" x="0" y="0" width="20" height="20" rx="2"></rect>
                            <rect id="Rectangle-Copy-3" x="25" y="0" width="20" height="20" rx="2"></rect>
                            <rect id="Rectangle-Copy-4" x="50" y="0" width="20" height="20" rx="2"></rect>
                        </g>
                        <g id="Group-Copy-3" transform="translate(10.000000, 100.000000)" fill="#000000" opacity="0.1">
                            <rect id="Rectangle" x="0" y="24" width="70" height="2"></rect>
                            <rect id="Rectangle" x="0" y="0" width="20" height="20" rx="2"></rect>
                            <rect id="Rectangle-Copy-3" x="25" y="0" width="20" height="20" rx="2"></rect>
                            <rect id="Rectangle-Copy-4" x="50" y="0" width="20" height="20" rx="2"></rect>
                        </g>
                        <g id="Group-Copy-2" transform="translate(10.000000, 70.000000)" fill="#000000" opacity="0.1">
                            <rect id="Rectangle" x="0" y="24" width="70" height="2"></rect>
                            <rect id="Rectangle" x="0" y="0" width="20" height="20" rx="2"></rect>
                            <rect id="Rectangle-Copy-3" x="25" y="0" width="20" height="20" rx="2"></rect>
                            <rect id="Rectangle-Copy-4" x="50" y="0" width="20" height="20" rx="2"></rect>
                        </g>
                        <g id="Group-Copy" transform="translate(10.000000, 40.000000)" fill="#000000" opacity="0.1">
                            <rect id="Rectangle" x="0" y="24" width="70" height="2"></rect>
                            <rect id="Rectangle" x="0" y="0" width="20" height="20" rx="2"></rect>
                            <rect id="Rectangle-Copy-3" x="25" y="0" width="20" height="20" rx="2"></rect>
                            <rect id="Rectangle-Copy-4" x="50" y="0" width="20" height="20" rx="2"></rect>
                        </g>
                        <g id="Group" transform="translate(10.000000, 10.000000)" fill="#000000" opacity="0.1">
                            <rect id="Rectangle" x="0" y="24" width="70" height="2"></rect>
                            <rect id="Rectangle" x="0" y="0" width="20" height="20" rx="2"></rect>
                            <rect id="Rectangle-Copy-3" x="25" y="0" width="20" height="20" rx="2"></rect>
                            <rect id="Rectangle-Copy-4" x="50" y="0" width="20" height="20" rx="2"></rect>
                        </g>
                    </g>
                    <g id="Group-2">
                        <rect id="Rectangle" fill="#04CC99" x="0" y="0" width="90" height="256" rx="4"></rect>
                        <g id="Group-Copy-7" transform="translate(10.000000, 220.000000)" fill="#000000" opacity="0.1">
                            <rect id="Rectangle" x="0" y="24" width="70" height="2"></rect>
                            <rect id="Rectangle" x="0" y="0" width="20" height="20" rx="2"></rect>
                            <rect id="Rectangle-Copy-3" x="25" y="0" width="20" height="20" rx="2"></rect>
                            <rect id="Rectangle-Copy-4" x="50" y="0" width="20" height="20" rx="2"></rect>
                        </g>
                        <g id="Group-Copy-6" transform="translate(10.000000, 190.000000)" fill="#000000" opacity="0.1">
                            <rect id="Rectangle" x="0" y="24" width="70" height="2"></rect>
                            <rect id="Rectangle" x="0" y="0" width="20" height="20" rx="2"></rect>
                            <rect id="Rectangle-Copy-3" x="25" y="0" width="20" height="20" rx="2"></rect>
                            <rect id="Rectangle-Copy-4" x="50" y="0" width="20" height="20" rx="2"></rect>
                        </g>
                        <g id="Group-Copy-5" transform="translate(10.000000, 160.000000)" fill="#000000" opacity="0.1">
                            <rect id="Rectangle" x="0" y="24" width="70" height="2"></rect>
                            <rect id="Rectangle" x="0" y="0" width="20" height="20" rx="2"></rect>
                            <rect id="Rectangle-Copy-3" x="25" y="0" width="20" height="20" rx="2"></rect>
                            <rect id="Rectangle-Copy-4" x="50" y="0" width="20" height="20" rx="2"></rect>
                        </g>
                        <g id="Group-Copy-4" transform="translate(10.000000, 130.000000)" fill="#000000" opacity="0.1">
                            <rect id="Rectangle" x="0" y="24" width="70" height="2"></rect>
                            <rect id="Rectangle" x="0" y="0" width="20" height="20" rx="2"></rect>
                            <rect id="Rectangle-Copy-3" x="25" y="0" width="20" height="20" rx="2"></rect>
                            <rect id="Rectangle-Copy-4" x="50" y="0" width="20" height="20" rx="2"></rect>
                        </g>
                        <g id="Group-Copy-3" transform="translate(10.000000, 100.000000)" fill="#000000" opacity="0.1">
                            <rect id="Rectangle" x="0" y="24" width="70" height="2"></rect>
                            <rect id="Rectangle" x="0" y="0" width="20" height="20" rx="2"></rect>
                            <rect id="Rectangle-Copy-3" x="25" y="0" width="20" height="20" rx="2"></rect>
                            <rect id="Rectangle-Copy-4" x="50" y="0" width="20" height="20" rx="2"></rect>
                        </g>
                        <g id="Group-Copy-2" transform="translate(10.000000, 70.000000)" fill="#000000" opacity="0.1">
                            <rect id="Rectangle" x="0" y="24" width="70" height="2"></rect>
                            <rect id="Rectangle" x="0" y="0" width="20" height="20" rx="2"></rect>
                            <rect id="Rectangle-Copy-3" x="25" y="0" width="20" height="20" rx="2"></rect>
                            <rect id="Rectangle-Copy-4" x="50" y="0" width="20" height="20" rx="2"></rect>
                        </g>
                        <g id="Group-Copy" transform="translate(10.000000, 40.000000)" fill="#000000" opacity="0.1">
                            <rect id="Rectangle" x="0" y="24" width="70" height="2"></rect>
                            <rect id="Rectangle" x="0" y="0" width="20" height="20" rx="2"></rect>
                            <rect id="Rectangle-Copy-3" x="25" y="0" width="20" height="20" rx="2"></rect>
                            <rect id="Rectangle-Copy-4" x="50" y="0" width="20" height="20" rx="2"></rect>
                        </g>
                        <g id="Group" transform="translate(10.000000, 10.000000)" fill="#000000" opacity="0.1">
                            <rect id="Rectangle" x="0" y="24" width="70" height="2"></rect>
                            <rect id="Rectangle" x="0" y="0" width="20" height="20" rx="2"></rect>
                            <rect id="Rectangle-Copy-3" x="25" y="0" width="20" height="20" rx="2"></rect>
                            <rect id="Rectangle-Copy-4" x="50" y="0" width="20" height="20" rx="2"></rect>
                        </g>
                    </g>
                </g>
                <g id="Group-2" transform="translate(79.000000, 276.000000)">
                    <path d="M11,12 L246,12" id="Line" stroke="#FCAE49" fill="#FCAE49" stroke-linecap="square"></path>
                    <circle id="Oval-2" fill="#FCAE49" cx="11" cy="12" r="11"></circle>
                    <text id="2" font-family="Lato-Regular, Lato" font-size="13" font-weight="normal" fill="#FFFFFF">
                        <tspan x="7.23" y="16">2</tspan>
                    </text>
                    <polygon id="Triangle" fill="#FCAE49" transform="translate(246.000000, 12.500000) rotate(90.000000) translate(-246.000000, -12.500000) " points="246 2.5 258 22.5 234 22.5"></polygon>
                </g>
                <g id="Group-2-Copy-2" transform="translate(12.500000, 133.000000) rotate(-270.000000) translate(-12.500000, -133.000000) translate(-110.500000, 120.500000)">
                    <path d="M11,12 L236,12" id="Line" stroke="#FCAE49" fill="#04CC99" stroke-linecap="square"></path>
                    <circle id="Oval-2" fill="#FCAE49" cx="11" cy="12" r="11"></circle>
                    <text id="1" transform="translate(11.000000, 12.000000) rotate(-90.000000) translate(-11.000000, -12.000000) " font-family="Lato-Regular, Lato" font-size="13" font-weight="normal" fill="#FFFFFF">
                        <tspan x="7.23" y="16">1</tspan>
                    </text>
                    <polygon id="Triangle" fill="#FCAE49" transform="translate(236.000000, 12.500000) rotate(90.000000) translate(-236.000000, -12.500000) " points="236 2.5 248 22.5 224 22.5"></polygon>
                </g>
            </g>
        </g>
    </g>
</svg>