<?xml version="1.0" encoding="UTF-8"?>
<svg width="105px" height="110px" viewBox="0 0 105 110" version="1.1" xmlns="http://www.w3.org/2000/svg" xmlns:xlink="http://www.w3.org/1999/xlink">
    <!-- Generator: Sketch 52.4 (67378) - http://www.bohemiancoding.com/sketch -->
    <title>analytics</title>
    <desc>Created with Sketch.</desc>
    <defs>
        <path d="M73.5166269,80 L1.83213466,80 C0.820278593,80 0,79.1802203 0,78.1688539 L0,1.83114609 C0,0.819779651 0.820278593,0 1.83213466,0 L73.5166269,0 C74.5285586,0 75.3488372,0.819779651 75.3488372,1.83114609 L75.3488372,78.1688539 C75.3488372,79.1768507 74.5340842,79.9945444 73.5166269,80 Z" id="path-1"></path>
        <filter x="-33.2%" y="-25.0%" width="166.4%" height="162.5%" filterUnits="objectBoundingBox" id="filter-2">
            <feOffset dx="0" dy="5" in="SourceAlpha" result="shadowOffsetOuter1"></feOffset>
            <feGaussianBlur stdDeviation="7.5" in="shadowOffsetOuter1" result="shadowBlurOuter1"></feGaussianBlur>
            <feColorMatrix values="0 0 0 0 0   0 0 0 0 0   0 0 0 0 0  0 0 0 0.1 0" type="matrix" in="shadowBlurOuter1"></feColorMatrix>
        </filter>
        <path d="M73.5166269,80 L1.83213466,80 C0.820278593,80 0,79.1802203 0,78.1688539 L0,1.83114609 C0,0.819779651 0.820278593,0 1.83213466,0 L73.5166269,0 C74.5285586,0 75.3488372,0.819779651 75.3488372,1.83114609 L75.3488372,78.1688539 C75.3488372,79.1768507 74.5340842,79.9945444 73.5166269,80 Z" id="path-3"></path>
        <filter x="-33.2%" y="-25.0%" width="166.4%" height="162.5%" filterUnits="objectBoundingBox" id="filter-4">
            <feOffset dx="0" dy="5" in="SourceAlpha" result="shadowOffsetOuter1"></feOffset>
            <feGaussianBlur stdDeviation="7.5" in="shadowOffsetOuter1" result="shadowBlurOuter1"></feGaussianBlur>
            <feColorMatrix values="0 0 0 0 0   0 0 0 0 0   0 0 0 0 0  0 0 0 0.1 0" type="matrix" in="shadowBlurOuter1"></feColorMatrix>
        </filter>
        <linearGradient x1="50%" y1="100%" x2="50%" y2="3.061617e-15%" id="linearGradient-5">
            <stop stop-color="#F46885" offset="0%"></stop>
            <stop stop-color="#F46885" offset="27.475%"></stop>
            <stop stop-color="#FDB93F" offset="100%"></stop>
        </linearGradient>
    </defs>
    <g id="Illustrations" stroke="none" stroke-width="1" fill="none" fill-rule="evenodd">
        <g transform="translate(-245.000000, -325.000000)" id="Operations">
            <g transform="translate(42.000000, 48.000000)">
                <g id="analytics" transform="translate(218.000000, 287.000000)">
                    <g id="base">
                        <use fill="black" fill-opacity="1" filter="url(#filter-2)" xlink:href="#path-1"></use>
                        <use fill="#FFFFFF" fill-rule="evenodd" xlink:href="#path-1"></use>
                    </g>
                    <g id="base">
                        <use fill="black" fill-opacity="1" filter="url(#filter-4)" xlink:href="#path-3"></use>
                        <use fill="#FFFFFF" fill-rule="evenodd" xlink:href="#path-3"></use>
                    </g>
                    <g id="shadow" opacity="0.872367932" transform="translate(13.023256, 13.023256)">
                        <path d="M22.3263842,21.0425616 L2.19721866,21.0425616 C1.56556915,21.0425616 1.05349901,20.5333083 1.05349901,19.9051144 L1.05349901,1.25118345 C1.05349901,0.622989502 1.56556915,0.113736257 2.19721866,0.113736257 L22.3263842,0.113736257 C22.9580109,0.113736257 23.4700811,0.622989502 23.4700811,1.25118345 L23.4700811,19.9051144 C23.4700811,20.5295637 22.9640878,21.0364897 22.3263842,21.0425616 Z" id="-copy-5" fill="#E7EFF5"></path>
                        <path d="M49.8743497,21.0425616 L29.7451841,21.0425616 C29.1135346,21.0425616 28.6014644,20.5333083 28.6014644,19.9051144 L28.6014644,1.25118345 C28.6014644,0.622989502 29.1135346,0.113736257 29.7451841,0.113736257 L49.8743497,0.113736257 C50.5059991,0.113736257 51.0180466,0.622989502 51.0180466,1.25118345 L51.0180466,19.9051144 C51.0180466,20.5295637 50.5120531,21.0364897 49.8743497,21.0425616 Z" id="-copy-6" fill="#E7EFF5"></path>
                        <path d="M12.1321549,39.8102322 L1.26697559,39.8102322 C0.635336702,39.8102322 0.123269653,39.3009845 0.123269653,38.6728072 L0.123269653,27.8671542 C0.123269653,27.2389767 0.635336702,26.7297291 1.26697559,26.7297291 L12.1321549,26.7297291 C12.7637938,26.7297291 13.2758474,27.2389767 13.2758474,27.8671542 L13.2758474,38.6728072 C13.2758474,39.2972533 12.7698669,39.8041788 12.1321549,39.8102322 Z" id="-copy-7" fill="#E3ECF3"></path>
                        <path d="M12.1321549,55.7343332 L1.26697559,55.7343332 C0.635336702,55.7343332 0.123269653,55.225076 0.123269653,54.5968987 L0.123269653,43.7912604 C0.123269653,43.1630698 0.635336702,42.6538263 1.26697559,42.6538263 L12.1321549,42.6538263 C12.7637938,42.6538263 13.2758474,43.1630698 13.2758474,43.7912604 L13.2758474,54.5968987 C13.2758474,55.2213498 12.7698669,55.7282779 12.1321549,55.7343332 Z" id="-copy-8" fill="#E3ECF3"></path>
                        <path d="M50.3318138,30.3695244 L15.563251,30.3695244 C15.3737728,30.3695244 15.220164,30.2167517 15.220164,30.0282867 L15.220164,27.2984483 C15.220164,27.1099832 15.3737728,26.9572105 15.563251,26.9572105 L50.3318138,26.9572105 C50.5213277,26.9572105 50.6749367,27.1099832 50.6749367,27.2984483 L50.6749367,30.0282867 C50.6749367,30.2132159 50.5270197,30.3637778 50.3318138,30.3695244 Z" id="-copy" fill="#E3ECF3"></path>
                        <path d="M42.3258981,36.9869264 L15.5632532,36.9869264 C15.3737675,36.9869264 15.2201612,36.8341607 15.2201612,36.6457031 L15.2201612,33.9158509 C15.2201612,33.7273934 15.3737675,33.5746276 15.5632532,33.5746276 L42.3258981,33.5746276 C42.5154116,33.5746276 42.6690179,33.7273934 42.6690179,33.9158509 L42.6690179,36.6457031 C42.6690179,36.8306264 42.521109,36.9811865 42.3258981,36.9869264 Z" id="-copy-3" fill="#E3ECF3"></path>
                        <path d="M49.9953708,46.3138893 L15.226808,46.3138893 C15.0373297,46.3138893 14.8837209,46.1611166 14.8837209,45.9726515 L14.8837209,43.2428131 C14.8837209,43.054348 15.0373297,42.9015753 15.226808,42.9015753 L49.9953708,42.9015753 C50.1848846,42.9015753 50.3384936,43.054348 50.3384936,43.2428131 L50.3384936,45.9726515 C50.3384936,46.1575807 50.1905767,46.3081426 49.9953708,46.3138893 Z" id="-copy" fill="#E3ECF3"></path>
                        <path d="M41.9894578,52.825502 L15.2268129,52.825502 C15.0373272,52.825502 14.8837209,52.6727363 14.8837209,52.4842787 L14.8837209,49.7544265 C14.8837209,49.565969 15.0373272,49.4132032 15.2268129,49.4132032 L41.9894578,49.4132032 C42.1789713,49.4132032 42.3325777,49.565969 42.3325777,49.7544265 L42.3325777,52.4842787 C42.3325777,52.6692021 42.1846687,52.8197621 41.9894578,52.825502 Z" id="-copy-3" fill="#E3ECF3"></path>
                    </g>
                    <g id="chart" transform="translate(12.093023, 12.093023)">
                        <path d="M21.7203357,21.1740776 L1.28618286,21.1740776 C0.644962899,21.1740776 0.125134124,20.6616415 0.125134124,20.0295213 L0.125134124,1.25900335 C0.125134124,0.626883186 0.644962899,0.114447109 1.28618286,0.114447109 L21.7203357,0.114447109 C22.3615326,0.114447109 22.8813614,0.626883186 22.8813614,1.25900335 L22.8813614,20.0295213 C22.8813614,20.6578734 22.3677015,21.1679678 21.7203357,21.1740776 Z" id="base" fill="#FFFFFF"></path>
                        <g id="Group" transform="translate(1.664732, 3.419036)">
                            <path d="M0.151603574,12.5247917 C0.151603574,12.5247917 0.982368093,10.7182457 2.6438565,7.10516554 L6.6722964,7.89299478 L9.77094159,3.71716414 L14.9051509,1.68555124 L19.3902797,4.62540677" id="Path" stroke="#E3ECF3" stroke-width="1.5"></path>
                            <path d="M6.84412993,9.00124498 C7.54152402,9.00124498 8.10686446,8.44392274 8.10686446,7.7564215 C8.10686446,7.06895015 7.54152402,6.51162791 6.84412993,6.51162791 C6.14673578,6.51162791 5.58139535,7.06895015 5.58139535,7.7564215 C5.58139535,8.44392274 6.14673578,9.00124498 6.84412993,9.00124498 Z" id="Path" fill="#04CC99"></path>
                            <path d="M2.19296709,8.07101122 C2.89036122,8.07101122 3.45570162,7.51368922 3.45570162,6.82622111 C3.45570162,6.13873356 2.89036122,5.58139535 2.19296709,5.58139535 C1.49557296,5.58139535 0.930232558,6.13873356 0.930232558,6.82622111 C0.930232558,7.51368922 1.49557296,8.07101122 2.19296709,8.07101122 Z" id="Path" fill="#04CC99"></path>
                            <path d="M9.63482755,5.28031479 C10.3322184,5.28031479 10.8975818,4.72299254 10.8975818,4.03549129 C10.8975818,3.34801992 10.3322184,2.79069767 9.63482755,2.79069767 C8.93745313,2.79069767 8.37209302,3.34801992 8.37209302,4.03549129 C8.37209302,4.72299254 8.93745313,5.28031479 9.63482755,5.28031479 Z" id="Path" fill="#04CC99"></path>
                            <path d="M15.2162229,2.48961712 C15.913617,2.48961712 16.4789575,1.93227992 16.4789575,1.24479362 C16.4789575,0.557322252 15.913617,0 15.2162229,0 C14.5188288,0 13.9534884,0.557322252 13.9534884,1.24479362 C13.9534884,1.93227992 14.5188288,2.48961712 15.2162229,2.48961712 Z" id="Path" fill="#04CC99"></path>
                        </g>
                    </g>
                    <g id="graph" transform="translate(40.000000, 12.093023)">
                        <path d="M21.7203357,21.1740776 L1.28618286,21.1740776 C0.644962899,21.1740776 0.125134124,20.6616415 0.125134124,20.0295213 L0.125134124,1.25900335 C0.125134124,0.626883186 0.644962899,0.114447109 1.28618286,0.114447109 L21.7203357,0.114447109 C22.3615326,0.114447109 22.8813614,0.626883186 22.8813614,1.25900335 L22.8813614,20.0295213 C22.8813614,20.6578734 22.3677015,21.1679678 21.7203357,21.1740776 Z" id="base" fill="#FFFFFF"></path>
                        <g id="Group" transform="translate(3.947507, 6.638357)" fill="#04CC99">
                            <path d="M3.14382082,11.67435 L0.473444984,11.67435 C0.216974274,11.67435 0.00904397143,11.4693758 0.00904397143,11.2165231 L0.00904397143,0.457819451 C0.00904397143,0.204978735 0.216974274,-7.4395382e-06 0.473444984,-7.4395382e-06 L3.14382082,-7.4395382e-06 C3.40030709,-7.4395382e-06 3.60823739,0.204978735 3.60823739,0.457819451 L3.60823739,11.2165231 C3.60823739,11.4658186 3.40612571,11.6685694 3.14382082,11.67435 Z" id="Path"></path>
                            <path d="M8.9489786,11.67435 L6.27860279,11.67435 C6.02213205,11.67435 5.81420178,11.5176051 5.81420178,11.3242472 L5.81420178,3.09700688 C5.81420178,2.90365819 6.02213205,2.74690412 6.27860279,2.74690412 L8.9489786,2.74690412 C9.20546488,2.74690412 9.41339519,2.90365819 9.41339519,3.09700688 L9.41339519,11.3242472 C9.41339519,11.5148849 9.21128353,11.6699296 8.9489786,11.67435 Z" id="-copy-9"></path>
                            <path d="M14.6380333,11.67435 L11.9676574,11.67435 C11.7111867,11.67435 11.5032564,11.5557865 11.5032564,11.4095287 L11.5032564,5.18635967 C11.5032564,5.04010874 11.7111867,4.92153836 11.9676574,4.92153836 L14.6380333,4.92153836 C14.8945195,4.92153836 15.1024498,5.04010874 15.1024498,5.18635967 L15.1024498,11.4095287 C15.1024498,11.5537289 14.9003381,11.6710063 14.6380333,11.67435 Z" id="-copy-10"></path>
                        </g>
                    </g>
                </g>
            </g>
        </g>
    </g>
</svg>