<?xml version="1.0" encoding="UTF-8"?>
<svg width="60px" height="60px" viewBox="0 0 60 60" version="1.1" xmlns="http://www.w3.org/2000/svg" xmlns:xlink="http://www.w3.org/1999/xlink">
    <!-- Generator: Sketch 52.6 (67491) - http://www.bohemiancoding.com/sketch -->
    <title>barcode-avatar</title>
    <desc>Created with Sketch.</desc>
    <g id="Symbols" stroke="none" stroke-width="1" fill="none" fill-rule="evenodd">
        <g id="Badges/Cross-Selling-Genius/Locked">
            <g id="barcode-avatar">
                <path d="M30,0 C13.4584615,0 0,13.4573077 0,30 C0,46.5426923 13.4584615,60 30,60 C46.5415385,60 60,46.5426923 60,30 C60,13.4573077 46.5415385,0 30,0 Z" id="path-1" fill="#04CC99"></path>
                <path d="M21.1818181,27.375 L20.0909091,27.375 C19.4884166,27.375 19,26.8993025 19,26.3125 L19,22.0625 C19,21.4756975 19.4884166,21 20.0909091,21 L21.1818181,21 C21.7843106,21 22.2727273,21.4756975 22.2727273,22.0625 L22.2727273,26.3125 C22.2727273,26.5942925 22.1577925,26.8645436 21.9532074,27.0638009 C21.7486222,27.2630584 21.4711452,27.375 21.1818181,27.375 Z M43,22.0625 L43,26.3125 C43,26.8993025 42.5115834,27.375 41.9090909,27.375 C41.3065984,27.375 40.8181818,26.8993025 40.8181818,26.3125 L40.8181818,22.0625 C40.8181818,21.4756975 41.3065984,21 41.9090909,21 C42.5115834,21 43,21.4756975 43,22.0625 Z M38.6363637,21 C39.2388561,21 39.7272727,21.4756975 39.7272727,22.0625 L39.7272727,26.3125 C39.7272727,26.8993025 39.2388561,27.375 38.6363637,27.375 L37.5454545,27.375 C36.9429621,27.375 36.4545454,26.8993025 36.4545454,26.3125 L36.4545454,22.0625 C36.4545454,21.4756975 36.9429621,21 37.5454545,21 L38.6363637,21 Z M33.1818182,21 C33.7843106,21 34.2727272,21.4756975 34.2727272,22.0625 L34.2727272,26.3125 C34.2727272,26.8993025 33.7843106,27.375 33.1818182,27.375 L32.6363636,27.375 C32.0338712,27.375 31.5454545,26.8993025 31.5454545,26.3125 L31.5454545,22.0625 C31.5454545,21.4756975 32.0338712,21 32.6363636,21 L33.1818182,21 Z M30.4545455,22.0625 L30.4545455,26.3125 C30.4545455,26.8993025 29.9661288,27.375 29.3636363,27.375 C28.7611439,27.375 28.2727273,26.8993025 28.2727273,26.3125 L28.2727273,22.0625 C28.2727273,21.4756975 28.7611439,21 29.3636363,21 C29.9661288,21 30.4545455,21.4756975 30.4545455,22.0625 Z M25.5454546,22.0625 L25.5454546,26.3125 C25.5454546,26.8993025 25.0570379,27.375 24.4545454,27.375 C23.852053,27.375 23.3636363,26.8993025 23.3636363,26.3125 L23.3636363,22.0625 C23.3636363,21.4756975 23.852053,21 24.4545454,21 C25.0570379,21 25.5454546,21.4756975 25.5454546,22.0625 Z M20.0909091,31.625 L21.1818181,31.625 C21.7843106,31.625 22.2727273,32.1006975 22.2727273,32.6875 L22.2727273,36.9375 C22.2727273,37.5243025 21.7843106,38 21.1818181,38 L20.0909091,38 C19.4884166,38 19,37.5243025 19,36.9375 L19,32.6875 C19,32.1006975 19.4884166,31.625 20.0909091,31.625 Z M23.3636363,36.9375 L23.3636363,32.6875 C23.3636363,32.1006975 23.852053,31.625 24.4545454,31.625 C25.0570379,31.625 25.5454546,32.1006975 25.5454546,32.6875 L25.5454546,36.9375 C25.5454546,37.5243025 25.0570379,38 24.4545454,38 C23.852053,38 23.3636363,37.5243025 23.3636363,36.9375 Z M28.2727273,36.9375 L28.2727273,32.6875 C28.2727273,32.1006975 28.7611439,31.625 29.3636363,31.625 C29.9661288,31.625 30.4545455,32.1006975 30.4545455,32.6875 L30.4545455,36.9375 C30.4545455,37.5243025 29.9661288,38 29.3636363,38 C28.7611439,38 28.2727273,37.5243025 28.2727273,36.9375 Z M32.6363636,38 C32.0338712,38 31.5454545,37.5243025 31.5454545,36.9375 L31.5454545,32.6875 C31.5454545,32.1006975 32.0338712,31.625 32.6363636,31.625 L33.1818182,31.625 C33.7843106,31.625 34.2727272,32.1006975 34.2727272,32.6875 L34.2727272,36.9375 C34.2727272,37.5243025 33.7843106,38 33.1818182,38 L32.6363636,38 Z M37.5454545,38 C36.9429621,38 36.4545454,37.5243025 36.4545454,36.9375 L36.4545454,32.6875 C36.4545454,32.1006975 36.9429621,31.625 37.5454545,31.625 L38.6363637,31.625 C39.2388561,31.625 39.7272727,32.1006975 39.7272727,32.6875 L39.7272727,36.9375 C39.7272727,37.5243025 39.2388561,38 38.6363637,38 L37.5454545,38 Z M40.8181818,32.6875 C40.8181818,32.1006975 41.3065984,31.625 41.9090909,31.625 C42.5115834,31.625 43,32.1006975 43,32.6875 L43,36.9375 C43,37.5243025 42.5115834,38 41.9090909,38 C41.3065984,38 40.8181818,37.5243025 40.8181818,36.9375 L40.8181818,32.6875 Z" id="Shape" fill="#FFFFFF" fill-rule="nonzero"></path>
                <path d="M45.9,31 L15.1,31 C14.4924868,31 14,30.5522848 14,30 C14,29.4477152 14.4924868,29 15.1,29 L45.9,29 C46.5075132,29 47,29.4477152 47,30 C47,30.5522848 46.5075132,31 45.9,31 Z" id="Path" fill="#FFFFFF"></path>
                <path d="M45.9,43 L42.6,43 C41.9924868,43 41.5,42.5149751 41.5,41.9166666 C41.5,41.3183582 41.9924868,40.8333333 42.6,40.8333333 L44.8,40.8333333 L44.8,38.6666667 C44.8,38.0683582 45.2924868,37.5833334 45.9,37.5833334 C46.5075132,37.5833334 47,38.0683582 47,38.6666667 L47,41.9166666 C47,42.5149751 46.5075132,43 45.9,43 Z M45.9,22.4166666 C45.2924868,22.4166666 44.8,21.9316418 44.8,21.3333333 L44.8,19.1666667 L42.6,19.1666667 C41.9924868,19.1666667 41.5,18.6816418 41.5,18.0833334 C41.5,17.4850249 41.9924868,17 42.6,17 L45.9,17 C46.5075132,17 47,17.4850249 47,18.0833334 L47,21.3333333 C47,21.9316418 46.5075132,22.4166666 45.9,22.4166666 Z M19.5,18.0833334 C19.5,18.6816418 19.0075132,19.1666667 18.4,19.1666667 L16.2,19.1666667 L16.2,21.3333333 C16.2,21.9316418 15.7075132,22.4166666 15.1,22.4166666 C14.4924868,22.4166666 14,21.9316418 14,21.3333333 L14,18.0833334 C14,17.4850249 14.4924868,17 15.1,17 L18.4,17 C19.0075132,17 19.5,17.4850249 19.5,18.0833334 Z M19.5,41.9166666 C19.5,42.5149751 19.0075132,43 18.4,43 L15.1,43 C14.4924868,43 14,42.5149751 14,41.9166666 L14,38.6666667 C14,38.0683582 14.4924868,37.5833334 15.1,37.5833334 C15.7075132,37.5833334 16.2,38.0683582 16.2,38.6666667 L16.2,40.8333333 L18.4,40.8333333 C19.0075132,40.8333333 19.5,41.3183582 19.5,41.9166666 Z" id="Combined-Shape" fill-opacity="0.57" fill="#FFFFFF" fill-rule="nonzero"></path>
            </g>
        </g>
    </g>
</svg>