<?xml version="1.0" encoding="UTF-8"?>
<svg width="104px" height="98px" viewBox="0 0 104 98" version="1.1" xmlns="http://www.w3.org/2000/svg" xmlns:xlink="http://www.w3.org/1999/xlink">
    <!-- Generator: Sketch 52.4 (67378) - http://www.bohemiancoding.com/sketch -->
    <title>chat</title>
    <desc>Created with Sketch.</desc>
    <defs>
        <path d="M89.8454545,79.7826757 L89.8454545,36.3644939 C89.8454545,33.0463121 87.4272727,29.1463121 84.3909091,29.0917666 L22.5181818,29.0917666 C19.6363636,29.0372212 17.2727273,31.5917666 17.2727273,34.7735848 L17.2727273,66.5917666 C17.2727273,71.255403 20.8090909,74.3735848 25.0363636,74.1826757 L76.4636364,74.1826757 C79.8109803,74.0300336 83.7781711,73.6146073 86.1305785,76.0008575 L89.8454545,79.7826757 Z" id="path-1"></path>
        <filter x="-34.4%" y="-39.5%" width="168.9%" height="198.6%" filterUnits="objectBoundingBox" id="filter-2">
            <feOffset dx="0" dy="5" in="SourceAlpha" result="shadowOffsetOuter1"></feOffset>
            <feGaussianBlur stdDeviation="7.5" in="shadowOffsetOuter1" result="shadowBlurOuter1"></feGaussianBlur>
            <feColorMatrix values="0 0 0 0 0   0 0 0 0 0   0 0 0 0 0  0 0 0 0.1 0" type="matrix" in="shadowBlurOuter1"></feColorMatrix>
        </filter>
    </defs>
    <g id="Illustrations" stroke="none" stroke-width="1" fill="none" fill-rule="evenodd">
        <g transform="translate(-42.000000, -1813.000000)" id="Operations">
            <g transform="translate(42.000000, 48.000000)">
                <g id="chat" transform="translate(0.000000, 1765.400000)">
                    <path d="M0.5,46.4272727 L0.5,7.92727273 C0.5,3.80909091 3.22727273,0.454545455 6.60909091,0.381818182 L55.8181818,0.381818182 C59.0636364,0.309090909 61.7272727,2.41818182 61.7272727,6.36363636 L61.7272727,33.6363636 C61.7272727,38.1818182 58.5727273,38.9545455 54.8,38.7272727 L10.3545455,39 C8.42600833,38.923128 5.03556939,39.9983915 3.76877007,41.4545455 L0.5,46.4272727 Z" id="Path" fill="#EDF2F6"></path>
                    <g id="Path">
                        <use fill="black" fill-opacity="1" filter="url(#filter-2)" xlink:href="#path-1"></use>
                        <use fill="#FFFFFF" fill-rule="evenodd" xlink:href="#path-1"></use>
                    </g>
                    <rect id="Rectangle" fill="#BFD0DA" x="12.7272727" y="12.7272727" width="39.0909091" height="3.63636364" rx="1.81818182"></rect>
                    <path d="M29.0909091,44.5454863 L45.4545455,44.6496326 C46.4586995,44.6560235 47.2727273,45.5684878 47.2727273,46.6876787 C47.2727273,47.8068696 46.4586995,48.7193339 45.4545455,48.7257248 L29.0909091,48.8298711 C28.086755,48.836262 27.2727273,47.8771698 27.2727273,46.6876787 C27.2727273,45.4981876 28.086755,44.5390954 29.0909091,44.5454863 Z" id="Rectangle" fill="#04CC99"></path>
                    <path d="M51.8181818,45.4545795 L78.1818182,45.6223707 C79.1859723,45.6287616 80,46.4479702 80,47.4521243 C80,48.4562784 79.1859723,49.275487 78.1818182,49.2818779 L51.8181818,49.4496691 C50.8140277,49.4560601 50,48.5617288 50,47.4521243 C50,46.3425198 50.8140277,45.4481886 51.8181818,45.4545795 Z" id="Rectangle" fill="#04CC99"></path>
                    <rect id="Rectangle" fill="#BFD0DA" x="12.7272727" y="20.9090909" width="28.1818182" height="3.63636364" rx="1.81818182"></rect>
                    <path d="M29.0909091,53.8621991 L53.6363636,53.6364335 C54.6405177,53.6271974 55.4545455,54.534985 55.4545455,55.6640339 C55.4545455,56.7930827 54.6405177,57.7278247 53.6363636,57.7518384 L29.0909091,58.3388289 C28.086755,58.3628427 27.2727273,57.3741921 27.2727273,56.130616 C27.2727273,54.88704 28.086755,53.8714351 29.0909091,53.8621991 Z" id="Rectangle" fill="#04CC99"></path>
                </g>
            </g>
        </g>
    </g>
</svg>