<?xml version="1.0" encoding="UTF-8"?>
<svg width="118px" height="99px" viewBox="0 0 118 99" version="1.1" xmlns="http://www.w3.org/2000/svg" xmlns:xlink="http://www.w3.org/1999/xlink">
    <!-- Generator: Sketch 52.5 (67469) - http://www.bohemiancoding.com/sketch -->
    <title>contact</title>
    <desc>Created with Sketch.</desc>
    <defs>
        <filter x="-43.8%" y="-54.2%" width="187.6%" height="208.3%" filterUnits="objectBoundingBox" id="filter-1">
            <feOffset dx="0" dy="5" in="SourceAlpha" result="shadowOffsetOuter1"></feOffset>
            <feGaussianBlur stdDeviation="7.5" in="shadowOffsetOuter1" result="shadowBlurOuter1"></feGaussianBlur>
            <feColorMatrix values="0 0 0 0 0   0 0 0 0 0   0 0 0 0 0  0 0 0 0.1 0" type="matrix" in="shadowBlurOuter1" result="shadowMatrixOuter1"></feColorMatrix>
            <feMerge>
                <feMergeNode in="shadowMatrixOuter1"></feMergeNode>
                <feMergeNode in="SourceGraphic"></feMergeNode>
            </feMerge>
        </filter>
    </defs>
    <g id="Page-1" stroke="none" stroke-width="1" fill="none" fill-rule="evenodd">
        <g id="contact" transform="translate(9.000000, 10.000000)">
            <path d="M2.24743091,50.5169056 C7.35448192,29.4565413 19.2708043,26.8030375 37.996398,42.5563941 C41.8307117,45.4294062 48.6463672,40.1315839 58.4433644,26.6629273 C68.2403616,13.1942707 75.7974067,19.4860467 81.1144998,45.5382552 C81.8663421,64.4365582 74.3092969,73.8857097 58.4433644,73.8857097 C42.5774319,73.8857097 27.4423313,75.2220897 13.0380627,77.8948496 C0.737257172,80.7032512 -2.85962009,71.5772698 2.24743091,50.5169056 Z" id="Path-2" fill-opacity="0.5" fill="#F6F9FA"></path>
            <g id="Group-2" filter="url(#filter-1)" transform="translate(5.000000, 0.000000)">
                <g id="template" transform="translate(21.904761, 49.190476) scale(-1, 1) translate(-21.904761, -49.190476) translate(6.904761, 38.190476)" fill="#FFFFFF" fill-rule="nonzero">
                    <path d="M11.9417229,20.9523804 L10.5596412,20.9523804 C10.3688155,20.9523804 10.2141208,20.7980566 10.2141208,20.6076886 C10.2141208,20.4173205 10.3688155,20.2629968 10.5596412,20.2629968 L11.9417229,20.2629968 C12.1325486,20.2629968 12.2872434,20.4173205 12.2872434,20.6076886 C12.2872434,20.7980566 12.1325486,20.9523804 11.9417229,20.9523804 Z M7.79547773,20.9523804 L1.46899858,20.9523804 C1.28598427,20.9527093 1.13445873,20.8106169 1.12347815,20.6283701 L1.04746365,19.3599042 C1.03601411,19.1695362 1.18142719,19.005953 1.37225286,18.9945309 C1.56307853,18.9831088 1.72705498,19.1281732 1.73850452,19.3185412 L1.79724299,20.2629968 L7.79547773,20.2629968 C7.9863034,20.2629968 8.14099817,20.4173205 8.14099817,20.6076886 C8.14099817,20.7980566 7.9863034,20.9523804 7.79547773,20.9523804 Z M12.3528923,19.2909658 C12.1620666,19.2909658 12.0073718,19.1366421 12.0073718,18.946274 L12.0073718,11.3630542 C12.0073718,11.1726861 12.1620666,11.0183623 12.3528923,11.0183623 C12.5437179,11.0183623 12.6984127,11.1726861 12.6984127,11.3630542 L12.6984127,18.946274 C12.6984127,19.1366421 12.5437179,19.2909658 12.3528923,19.2909658 Z M1.26514152,17.6192106 C1.08212721,17.6195395 0.930601669,17.477447 0.91962109,17.2952003 L0.833240981,15.916433 C0.821791441,15.726065 0.967204523,15.5624818 1.15803019,15.5510597 C1.34885586,15.5396376 1.51283231,15.684702 1.52428185,15.87507 L1.60720675,17.2538372 C1.61287309,17.3452957 1.58180197,17.4352409 1.52085852,17.5037995 C1.45991506,17.5723582 1.37411566,17.6138871 1.28241755,17.6192106 L1.26514152,17.6192106 Z M1.01636681,13.4829088 C0.833352497,13.4832377 0.681826956,13.3411453 0.670846377,13.1588985 L0.211304199,5.57567863 C0.210230931,5.39918547 0.342969965,5.25039817 0.518817386,5.23098681 C0.610495695,5.22533407 0.70065709,5.25633067 0.769380559,5.31712797 C0.838104028,5.37792527 0.879732793,5.46351891 0.885069046,5.55499712 L1.34806643,13.138217 C1.35373276,13.2296754 1.32266164,13.3196206 1.26171819,13.3881793 C1.20077474,13.4567379 1.11497533,13.4982669 1.02327722,13.5035903 L1.01636681,13.4829088 Z M12.3528923,8.95021147 C12.1620666,8.95021147 12.0073718,8.79588769 12.0073718,8.60551966 L12.0073718,7.22675241 C12.0073718,7.03638438 12.1620666,6.8820606 12.3528923,6.8820606 C12.5437179,6.8820606 12.6984127,7.03638438 12.6984127,7.22675241 L12.6984127,8.60551966 C12.6984127,8.79588769 12.5437179,8.95021147 12.3528923,8.95021147 Z M12.3528923,5.50329335 C12.1620666,5.50329335 12.0073718,5.34896956 12.0073718,5.15860153 L12.0073718,1.9770961 L8.32066879,2.13565434 C8.12984313,2.1442209 7.9681871,1.99684169 7.95959994,1.80647366 C7.95101279,1.61610562 8.09874629,1.45483727 8.28957196,1.44627071 L12.3390714,1.27047789 C12.4332074,1.26458613 12.5252611,1.29980972 12.5913014,1.36699159 C12.6593742,1.43172777 12.6980538,1.52134886 12.6984127,1.6151697 L12.6984127,5.15860153 C12.6984127,5.34896956 12.5437179,5.50329335 12.3528923,5.50329335 Z M0.428982073,3.85566648 C0.245967759,3.8559954 0.0944422179,3.71390297 0.0834616382,3.53165618 L0.000536733992,2.15288893 C-0.00463559527,2.06037781 0.0277436925,1.96968475 0.0903720469,1.9012639 C0.152423509,1.83250209 0.239579578,1.79151276 0.332236351,1.78751561 L2.05983852,1.71168341 C2.25066419,1.70406869 2.41154675,1.85221952 2.41917977,2.04258755 C2.4268128,2.23295558 2.27830582,2.39345231 2.08748016,2.40106703 L0.70539842,2.45966464 L0.767592098,3.49374008 C0.77325843,3.58519853 0.742187314,3.6751437 0.68124386,3.74370235 C0.620300406,3.81226101 0.534501004,3.85378994 0.44280289,3.8591134 L0.428982073,3.85566648 Z M4.16060276,2.31489408 C3.9697771,2.31489408 3.81508233,2.1605703 3.81508233,1.97020227 C3.81508233,1.77983424 3.9697771,1.62551045 4.16060276,1.62551045 L5.5426845,1.56691285 C5.66612706,1.56137125 5.78315621,1.6219485 5.84968819,1.72582572 C5.91622016,1.82970294 5.92214719,1.96109872 5.8652366,2.07051753 C5.80832602,2.17993635 5.6972239,2.25075488 5.57378134,2.25629647 L4.1916996,2.31489408 L4.16060276,2.31489408 Z" id="Shape"></path>
                    <path d="M28.8418621,10.1587302 L23.8932744,10.1587302 C23.6997171,10.1587302 23.5428078,9.99842984 23.5428078,9.80068937 C23.5428078,9.6029489 23.6997171,9.44264858 23.8932744,9.44264858 L28.4913956,9.44264858 L28.4913956,6.98290834 C28.4913956,6.78516787 28.6483048,6.62486755 28.8418621,6.62486755 C29.0354195,6.62486755 29.1923287,6.78516787 29.1923287,6.98290834 L29.1923287,9.80068937 C29.1923287,9.99842984 29.0354195,10.1587302 28.8418621,10.1587302 Z M21.7904751,10.1587302 L20.3886088,10.1587302 C20.1950515,10.1587302 20.0381423,9.99842984 20.0381423,9.80068937 C20.0381423,9.6029489 20.1950515,9.44264858 20.3886088,9.44264858 L21.7904751,9.44264858 C21.9840324,9.44264858 22.1409416,9.6029489 22.1409416,9.80068937 C22.1409416,9.99842984 21.9840324,10.1587302 21.7904751,10.1587302 Z M17.5848764,10.1587302 L14.9563773,10.1587302 C14.7628199,10.1587302 14.6059107,9.99842984 14.6059107,9.80068937 L14.6059107,4.60909789 C14.6059107,4.41135742 14.7628199,4.2510571 14.9563773,4.2510571 C15.1499346,4.2510571 15.3068438,4.41135742 15.3068438,4.60909789 L15.3068438,9.44264858 L17.5848764,9.44264858 C17.7784337,9.44264858 17.935343,9.6029489 17.935343,9.80068937 C17.935343,9.99842984 17.7784337,10.1587302 17.5848764,10.1587302 Z M28.8418621,4.4766228 C28.6483048,4.4766228 28.4913956,4.31632248 28.4913956,4.11858201 L28.4913956,2.68641884 C28.4913956,2.48867837 28.6483048,2.32837805 28.8418621,2.32837805 C29.0354195,2.32837805 29.1923287,2.48867837 29.1923287,2.68641884 L29.1923287,4.11858201 C29.1923287,4.31632248 29.0354195,4.4766228 28.8418621,4.4766228 Z M14.9563773,2.81889393 C14.7628199,2.81889393 14.6059107,2.65859361 14.6059107,2.46085314 L14.6059107,1.02868998 C14.6024871,0.998955743 14.6024871,0.968914011 14.6059107,0.939179778 C14.6022626,0.914255477 14.6022626,0.888915512 14.6059107,0.863991212 C14.6059107,0.666250743 14.7628199,0.50595042 14.9563773,0.50595042 L15.0089472,0.50595042 C15.2025046,0.50595042 15.3594138,0.666250743 15.3594138,0.863991212 C15.3620173,0.933095426 15.3449758,1.00149119 15.3103485,1.06091365 L15.3103485,2.49307681 C15.293875,2.67951809 15.1395983,2.82152396 14.9563773,2.81889393 Z M17.1082419,1.13252181 C16.9146846,1.13252181 16.7577753,0.972221483 16.7577753,0.774481014 C16.7577753,0.576740545 16.9146846,0.416440222 17.1082419,0.416440222 L18.5101081,0.366314511 C18.7036655,0.366314511 18.8605747,0.526614834 18.8605747,0.724355303 C18.8605747,0.922095772 18.7036655,1.08239609 18.5101081,1.08239609 L17.1082419,1.13252181 Z M21.3138406,0.985725081 C21.1202832,0.985725081 20.963374,0.825424758 20.963374,0.627684289 C20.963374,0.42994382 21.1202832,0.269643498 21.3138406,0.269643498 L28.8418621,0.00111290408 C28.9376389,-0.00703470164 29.0318263,0.0298727537 29.0977027,0.101364326 C29.16675,0.168607552 29.2059833,0.261699425 29.2063474,0.359153696 L29.2063474,0.538174091 C29.2068532,0.698364917 29.1031426,0.839405562 28.9524037,0.883523526 C28.8016648,0.927641489 28.640584,0.864099455 28.5579842,0.727935711 L21.3383732,0.982144673 L21.3138406,0.985725081 Z" id="Shape"></path>
                    <path d="M28.8487204,21.5873016 L23.7788068,21.504184 C23.5851666,21.504184 23.4281903,21.3423882 23.4281903,21.142803 C23.4281903,20.9432177 23.5851666,20.781422 23.7788068,20.781422 L28.4945978,20.8609258 L28.4945978,18.5047217 C28.4945978,18.3051364 28.6515742,18.1433407 28.8452143,18.1433407 C29.0388544,18.1433407 29.1958307,18.3051364 29.1958307,18.5047217 L29.1958307,21.2259206 C29.1958307,21.4255058 29.0388544,21.5873016 28.8452143,21.5873016 L28.8487204,21.5873016 Z M21.671602,21.4680459 L20.2691362,21.446363 C20.0754961,21.446363 19.9185198,21.2845672 19.9185198,21.084982 C19.9185198,20.8853968 20.0754961,20.723601 20.2691362,20.723601 L21.671602,20.7452839 C21.8652421,20.7452839 22.0222184,20.9070796 22.0222184,21.1066649 C22.0222184,21.3062501 21.8652421,21.4680459 21.671602,21.4680459 Z M17.4642047,21.3993835 L14.953791,21.3560177 C14.7601509,21.3560177 14.6031746,21.194222 14.6031746,20.9946367 L14.6031746,15.6317427 C14.6031746,15.4321575 14.7601509,15.2703617 14.953791,15.2703617 C15.1474312,15.2703617 15.3044075,15.4321575 15.3044075,15.6317427 L15.3044075,20.6404834 L17.4677109,20.6766215 C17.661351,20.6766215 17.8183273,20.8384173 17.8183273,21.0380025 C17.8183273,21.2375877 17.661351,21.3993835 17.4677109,21.3993835 L17.4642047,21.3993835 Z M28.8452143,15.9786685 C28.6515742,15.9786685 28.4945978,15.8168727 28.4945978,15.6172875 L28.4945978,14.1717635 C28.4945978,13.9721783 28.6515742,13.8103825 28.8452143,13.8103825 C29.0388544,13.8103825 29.1958307,13.9721783 29.1958307,14.1717635 L29.1958307,15.6172875 C29.193931,15.8140601 29.0396317,15.9730966 28.8487204,15.9750547 L28.8452143,15.9786685 Z M14.953791,13.8103825 C14.7601509,13.8103825 14.6031746,13.6485867 14.6031746,13.4490015 L14.6031746,12.0034775 C14.6031746,11.8038923 14.7601509,11.6420965 14.953791,11.6420965 L15.037939,11.6420965 C15.2315791,11.6420965 15.3885554,11.8038923 15.3885554,12.0034775 C15.3905294,12.0887032 15.3632078,12.1719044 15.3114198,12.2383751 L15.3114198,13.4562291 C15.3133213,13.5539494 15.2767382,13.6482964 15.2100154,13.7177486 C15.1432926,13.7872008 15.0521208,13.8258348 14.9572972,13.8248377 L14.953791,13.8103825 Z M28.8452143,12.3648585 C28.7082737,12.3652077 28.5836681,12.2833505 28.5261533,12.1552575 L21.3455287,12.278127 C21.1518886,12.278127 20.9949123,12.1163313 20.9949123,11.916746 C20.9949123,11.7171608 21.1518886,11.555365 21.3455287,11.555365 L28.8487204,11.4288817 C28.9435865,11.4247028 29.0355921,11.4628984 29.1011643,11.5336822 C29.1680814,11.6012862 29.2059602,11.6936851 29.2063492,11.7902627 L29.2063492,12.0034775 C29.2054319,12.099959 29.1671196,12.1920561 29.0999453,12.2592563 C29.0327711,12.3264566 28.9423137,12.363179 28.8487204,12.3612447 L28.8452143,12.3648585 Z M17.1346253,12.3648585 C16.9409852,12.3648585 16.7840088,12.2030627 16.7840088,12.0034775 C16.7840088,11.8038923 16.9409852,11.6420965 17.1346253,11.6420965 L18.537091,11.6204136 C18.7307311,11.6204136 18.8877075,11.7822094 18.8877075,11.9817946 C18.8877075,12.1813798 18.7307311,12.3431756 18.537091,12.3431756 L17.1346253,12.3648585 Z" id="Shape"></path>
                </g>
                <g id="admin" transform="translate(0.349206, 27.396825)">
                    <g id="Rectangle" transform="translate(1.000000, 0.000000)" fill="#FFFFFF">
                        <g id="path-1-link">
                            <path d="M1.26984127,0.255490324 L41.2698413,4.72466841 C41.9711552,4.80302583 42.5396825,5.44226546 42.5396825,6.15245008 L42.5396825,35.7282192 C42.5396825,36.4384038 41.9711552,37.0704524 41.2698413,37.1399392 L1.26984127,41.1031726 C0.5685273,41.1726593 0,40.4926702 0,39.5843744 L0,1.75822677 C0,0.849930922 0.5685273,0.177132899 1.26984127,0.255490324 Z" id="path-1"></path>
                        </g>
                    </g>
                    <polygon id="Rectangle" fill="#04CC99" points="4.80952381 3.76423094 40.3650794 7.13719553 40.3650794 36.6723283 4.80952381 40.0452929"></polygon>
                    <path d="M2.62490128,38.470211 L61.8267135,34.9264616 C62.780216,34.8623643 63.525067,35.33443 63.4902196,35.9810599 L63.4271228,37.151887 C63.3922753,37.798517 62.5948722,38.3821695 61.6462864,38.4552397 L2.857379,42.4247971 C1.92374936,42.4788182 1.13012185,41.9309628 1.084549,41.2013995 L1.00203205,39.8804082 C0.956459195,39.1508449 1.68296861,38.5195722 2.62490128,38.470211 Z" id="Rectangle" fill="#FFFFFF" transform="translate(32.245697, 38.674554) rotate(2.000000) translate(-32.245697, -38.674554) "></path>
                </g>
                <g id="chat" transform="translate(29.000000, 0.000000)">
                    <path d="M0,21.4713206 L0,3.89222415 C0,1.83313324 1.36363636,0.155860517 3.05454545,0.11949688 L27.6590909,0.11949688 C29.2818182,0.0831332439 30.6136364,1.1376787 30.6136364,3.11040597 L30.6136364,16.7467696 C30.6136364,19.0194969 29.0363636,19.4058605 27.15,19.2922242 L4.92727273,19.4285878 C3.96300416,19.3901518 2.2677847,19.9277836 1.63438503,20.6558605 L0.917815028,21.7459669 C0.766132053,21.9767198 0.456106546,22.0408186 0.225353678,21.8891356 C0.0846955145,21.7966755 2.90719384e-15,21.6396465 0,21.4713206 Z" id="Path" fill="#EDF2F6"></path>
                    <g id="Path" transform="translate(23.000000, 26.000000)" fill="#FFFFFF">
                        <g id="path-3-link">
                            <path d="M36.2863636,24.123367 L36.2863636,3.6367924 C36.2863636,1.9777015 35.0772727,0.0277015 33.5590909,0.0004288 L2.6227273,0.0004288 C1.1818182,-0.026844 0,1.2504288 0,2.8413379 L0,18.7504288 C0,21.0822469 1.7681818,22.6413379 3.8818182,22.5458833 L29.5954545,22.5458833 C31.2691265,22.4695622 33.2527219,22.2618491 34.4289256,23.4549742 L35.4296674,24.4737494 C35.6231782,24.6707473 35.9397481,24.6735741 36.136746,24.4800633 C36.2324519,24.3860515 36.2863636,24.2575231 36.2863636,24.123367 Z" id="path-3"></path>
                        </g>
                    </g>
                    <rect id="Rectangle" fill="#BFD0DA" x="6" y="6.11858699" width="19.5454545" height="1.81818182" rx="0.909090909"></rect>
                    <path d="M28.9090909,33.0000159 L37.0909091,33.052089 C37.5929861,33.0552845 38,33.5115166 38,34.0711121 C38,34.6307075 37.5929861,35.0869397 37.0909091,35.0901351 L28.9090909,35.1422083 C28.4070139,35.1454037 28,34.6658576 28,34.0711121 C28,33.4763665 28.4070139,32.9968204 28.9090909,33.0000159 Z" id="Rectangle" fill="#04CC99"></path>
                    <path d="M40.1818182,33.0000159 L50.8181818,33.052089 C51.470882,33.0552845 52,33.5115166 52,34.0711121 C52,34.6307075 51.470882,35.0869397 50.8181818,35.0901351 L40.1818182,35.1422083 C39.529118,35.1454037 39,34.6658576 39,34.0711121 C39,33.4763665 39.529118,32.9968204 40.1818182,33.0000159 Z" id="Rectangle" fill="#04CC99"></path>
                    <path d="M29.4545455,37.0000159 L42.5454545,37.052089 C43.3487778,37.0552845 44,37.5115166 44,38.0711121 C44,38.6307075 43.3487778,39.0869397 42.5454545,39.0901351 L29.4545455,39.1422083 C28.6512222,39.1454037 28,38.6658576 28,38.0711121 C28,37.4763665 28.6512222,36.9968204 29.4545455,37.0000159 Z" id="Rectangle" fill="#04CC99"></path>
                    <rect id="Rectangle" fill="#BFD0DA" x="6" y="10" width="14.0909091" height="1.81818182" rx="0.909090909"></rect>
                </g>
            </g>
        </g>
    </g>
</svg>