<?xml version="1.0" encoding="UTF-8"?>
<svg width="99px" height="80px" viewBox="0 0 99 80" version="1.1" xmlns="http://www.w3.org/2000/svg" xmlns:xlink="http://www.w3.org/1999/xlink">
    <!-- Generator: Sketch 52.4 (67378) - http://www.bohemiancoding.com/sketch -->
    <title>empty</title>
    <desc>Created with Sketch.</desc>
    <defs>
        <path d="M41.8293966,0.0410899528 C42.7127731,0.0136966509 43.6728966,2.20268248e-13 44.7097672,2.20268248e-13 C58.7181294,2.20268248e-13 73.9499522,8.33333333 90.4052357,25 C99.7786651,38.3333333 101.195137,48.9439944 94.6546502,56.8319831 C88.2443281,64.5629904 74.6569027,71.4595326 53.892374,77.5216096 C49.5650138,79.1244072 44.8847597,80 40,80 C17.90861,80 -2.13162821e-14,62.09139 -2.13162821e-14,40 C-2.13162821e-14,17.90861 17.90861,0 40,0 C40.6131186,0 41.2230153,0.0137944606 41.8293966,0.0410899528 Z" id="path-1"></path>
        <linearGradient x1="88.3600935%" y1="13.9302899%" x2="50%" y2="69.7278507%" id="linearGradient-3">
            <stop stop-color="#F1F7FF" offset="0%"></stop>
            <stop stop-color="#A7BCDE" offset="100%"></stop>
        </linearGradient>
        <linearGradient x1="56.9881582%" y1="50%" x2="-5.61092608%" y2="90.998156%" id="linearGradient-4">
            <stop stop-color="#FFFFFF" offset="0%"></stop>
            <stop stop-color="#EAEFFF" offset="100%"></stop>
        </linearGradient>
        <linearGradient x1="75.3175233%" y1="50%" x2="19.1162365%" y2="43.2760204%" id="linearGradient-5">
            <stop stop-color="#FFFFFF" stop-opacity="0" offset="0%"></stop>
            <stop stop-color="#D8E1F0" offset="100%"></stop>
        </linearGradient>
        <path d="M0.296114732,45.34731 C1.47857559,42.9693823 9.62461885,20.8630611 9.70693955,15.7978604 C9.78929657,10.7327099 11.2882889,0.343616365 15.6563354,0.378088554 C20.0244545,0.412560743 29.0612034,4.59630858 30.5398153,5.71544869 C32.0183909,6.83453855 33.3859098,11.6745645 33.3859098,14.3501792 C33.3859098,15.6711274 33.4067624,23.6269166 33.3859098,31.7100921 C33.3658201,39.4922138 35.8703527,47.3893098 36.0067668,47.7099615 C29.1059966,50.0247237 2.12577028,48.8519658 0.296114732,45.34731 Z" id="path-6"></path>
        <linearGradient x1="15.3723617%" y1="23.1243834%" x2="25.8702546%" y2="100%" id="linearGradient-8">
            <stop stop-color="#FFFFFF" offset="0%"></stop>
            <stop stop-color="#E9F0FC" offset="100%"></stop>
        </linearGradient>
        <linearGradient x1="47.8322148%" y1="65.529462%" x2="67.4520815%" y2="105.572982%" id="linearGradient-9">
            <stop stop-color="#FFFFFF" stop-opacity="0" offset="0%"></stop>
            <stop stop-color="#ABBFD6" offset="100%"></stop>
        </linearGradient>
        <path d="M2.89451015,20.5525047 C5.28151247,22.1138848 21.5398273,26.6586038 23.3468747,25.9880059 C25.153998,25.3174349 36.4298667,11.5568021 37.0624621,10.0638838 C37.6950575,8.57096546 29.7473585,0.3053251 28.7977837,1.56677865 C27.848209,2.82828592 19.9850378,12.7153347 19.1022673,12.7153347 C18.2195347,12.7153347 8.78388831,4.71983508 6.02234286,4.26724595 C3.26083529,3.81468367 1.22175285,7.21728052 0.696748671,9.00026845 C0.171668754,10.7832564 0.507469953,18.9910977 2.89451015,20.5525047 Z" id="path-10"></path>
        <linearGradient x1="50.7983741%" y1="8.9287466%" x2="85.3629416%" y2="59.7894059%" id="linearGradient-12">
            <stop stop-color="#C1CDE1" offset="0%"></stop>
            <stop stop-color="#90AADB" offset="100%"></stop>
        </linearGradient>
        <path d="M9.93141652,1.86090371 C11.4469063,3.6983392 11.7299438,4.53611886 13.3675235,6.02824172 C15.0051033,7.52036458 17.2528526,8.04952523 17.9033591,8.28402882 C18.5539256,8.51853241 16.6023062,10.0053048 17.2528526,11.9316408 C17.9033591,13.8579768 19.2796489,16.69377 19.2796489,17.4475248 C19.2796489,18.2012479 16.7061865,19.530988 14.2719642,20.6528504 C11.8377619,21.7747444 11.4935595,22.7189641 11.7755976,24.6215553 C12.0576557,26.5242098 12.457546,28.9804979 14.2719642,30.0557888 C15.4815897,30.7726284 12.0586151,29.498641 4.00308051,26.2337635 C0.583184182,18.3927892 -0.271804891,12.0028118 1.43815327,7.06383134 C4.00308051,-0.344639403 8.4159267,0.0234682252 9.93141652,1.86090371 Z" id="path-13"></path>
        <path d="M26.2826011,12.2907492 C29.7058551,11.1794567 26.7026219,6.43050499 27.915734,6.43050499 C28.4188433,6.43050499 30.4480997,6.04039169 30.9737426,4.9377618 C32.1388004,2.49371969 29.4694473,0.314801393 22.8293455,0.823009408 C11.4834911,1.6913356 10.8835263,13.5114149 11.8424375,19.426051 C12.8014136,25.3406871 0.234134979,43.3010436 4.19527282,50.9919917 C8.15641067,58.6829398 16.0840762,55.7376433 22.8293455,49.0235696 C29.5745824,42.3094958 27.7982606,19.5503923 26.0300886,18.4655001 C24.2618841,17.380608 22.859347,13.4021006 26.2826011,12.2907492 Z" id="path-15"></path>
        <filter x="-58.8%" y="-36.9%" width="224.3%" height="169.4%" filterUnits="objectBoundingBox" id="filter-17">
            <feGaussianBlur stdDeviation="13.5" in="SourceAlpha" result="shadowBlurInner1"></feGaussianBlur>
            <feOffset dx="-18" dy="-15" in="shadowBlurInner1" result="shadowOffsetInner1"></feOffset>
            <feComposite in="shadowOffsetInner1" in2="SourceAlpha" operator="arithmetic" k2="-1" k3="1" result="shadowInnerInner1"></feComposite>
            <feColorMatrix values="0 0 0 0 0.0404334217   0 0 0 0 0.104773574   0 0 0 0 0.223875135  0 0 0 0.409561821 0" type="matrix" in="shadowInnerInner1"></feColorMatrix>
        </filter>
        <linearGradient x1="12.4459525%" y1="35.5856549%" x2="65.8717076%" y2="70.6376182%" id="linearGradient-18">
            <stop stop-color="#001630" stop-opacity="0.0615942029" offset="0%"></stop>
            <stop stop-color="#081E41" offset="100%"></stop>
        </linearGradient>
    </defs>
    <g id="Illustrations" stroke="none" stroke-width="1" fill="none" fill-rule="evenodd">
        <g transform="translate(-42.000000, -2939.000000)" id="Operations">
            <g transform="translate(42.000000, 48.000000)">
                <g id="empty" transform="translate(0.000000, 2891.000000)">
                    <g id="Group-6">
                        <mask id="mask-2" fill="white">
                            <use xlink:href="#path-1"></use>
                        </mask>
                        <use id="Mask" fill-opacity="0.35" fill="#F0F5F8" xlink:href="#path-1"></use>
                        <g mask="url(#mask-2)">
                            <g transform="translate(3.000000, 0.000000)">
                                <g id="Group-11" transform="translate(60.000000, 21.000000)">
                                    <g id="Group-4" transform="translate(0.000000, 0.963542)" fill="#04CC99">
                                        <polygon id="Path-9" points="1.88405797 0 1.88405797 29.8697917 21.6666667 27.6572145 21.6666667 0"></polygon>
                                        <polygon id="Path-10" fill-opacity="0.3" points="1.88405797 29.8697917 0 26.5509259 0 0 1.88405797 0"></polygon>
                                    </g>
                                    <path d="M8.47826087,0 L16.0144928,0.373795827 C16.0144928,2.57203003 14.3274498,4.437728 12.2463768,4.54094887 C10.1653038,4.64416974 8.47826087,2.61111768 8.47826087,0 Z" id="Combined-Shape" stroke-opacity="0.478883605" stroke="#FFFFFF" stroke-width="0.575"></path>
                                </g>
                                <g id="hand" transform="translate(57.833333, 20.000000)">
                                    <path d="M2.333325,7.38993333 C2.11282917,7.062925 1.90730417,2.377975 2.49999583,1.72955833 C3.0927,1.08115 4.61507917,0.285241667 4.83332917,0.4717 C5.0516,0.65815 5.58855417,1.66833333 5.16667083,1.88679167 C4.74478333,2.10525 3.93964583,2.87054167 4,3.14465 C4.06034167,3.41876667 4.18442083,4.23136667 4.49999167,4.55975 C4.81557917,4.888125 2.848425,8.15383333 2.333325,7.38993333 Z" id="finger" fill="#C1CDE1"></path>
                                    <path d="M0,12.4042851 C1.10322627,11.0604524 1.79968798,10.1853549 2.08939637,9.7789928 C2.29355939,9.49260885 1.96536401,7.61177963 2.39880884,6.83884219 C2.83226489,6.06588546 3.13720631,5.82220332 3.45115724,5.37348687 C3.5535533,5.2271579 4.05316518,4.49947048 4.19020627,4.08083062 C4.55237265,2.97450251 4.66393549,2.44544026 4.74160596,1.81848432 C4.84864158,0.954313279 6.06909838,1.27970498 6.36043567,0.660297144 C6.65177296,0.0408893038 6.99935359,-0.354907862 7.35211728,0.459727537 C7.70489221,1.27434363 6.78605591,1.52287277 6.78605591,2.64678738 C6.78605591,2.71435353 7.80774728,1.16347877 8.44337798,1.00869438 C9.02237911,1.00869438 8.95132534,1.78651588 9.20298486,2.86436969 C9.44842086,3.91564104 10.8323797,5.19352926 10.8323797,6.56158933 C10.8323797,7.35502826 10.8345254,7.99748581 10.8323797,8.12014733 C10.8119005,9.28720776 6.47089173,12.592563 5.52332096,13.9181337 C4.89158839,14.801841 4.20087838,15.7180186 3.45115724,16.6666667 L0,12.4042851 Z" fill="#C1CDE1"></path>
                                </g>
                                <g id="shirt" transform="translate(4.500000, 25.000000)">
                                    <path d="M18.6618259,0.73871887 C20.3483665,1.16952107 24.279325,1.80429453 25.0807351,1.79034624 C25.8821665,1.77639794 27.2220324,7.67375042 27.1381315,8.19695556 C27.0542411,8.72013366 19.1980082,5.85829185 18.6618259,5.17990746 C18.1256543,4.50150504 16.9753066,0.307898645 18.6618259,0.73871887 Z" id="colar" fill="url(#linearGradient-3)"></path>
                                    <g transform="translate(0.000000, 4.158704)">
                                        <mask id="mask-7" fill="white">
                                            <use xlink:href="#path-6"></use>
                                        </mask>
                                        <g id="">
                                            <use fill="url(#linearGradient-4)" xlink:href="#path-6"></use>
                                            <use fill="url(#linearGradient-5)" xlink:href="#path-6"></use>
                                        </g>
                                        <path d="M32.5815084,48.7311529 C26.8694583,31.0214013 24.0134333,21.1907636 24.0134333,19.2392398 C24.0134333,17.2877159 27.1820997,16.8180077 33.5194324,17.8301151 L38.8370875,48.7311529 L32.5815084,48.7311529 Z" id="Path" fill="#DAE2F1" mask="url(#mask-7)"></path>
                                    </g>
                                    <path d="M50.238892,7.25420132 C51.4846248,6.18833282 53.2317095,4.06006938 54.2153967,2.79724882 C55.1990717,1.53442827 60.643509,7.28704469 59.5834395,8.72996311 C58.5234065,10.172895 56.38593,12.8501833 55.3470305,13.631139 C54.3081553,14.4120812 48.9931227,8.32005631 50.238892,7.25420132 Z" id="shirt-sleeve" fill="#DAE2F1"></path>
                                    <g id="sleeve" transform="translate(22.105634, 4.331983)">
                                        <mask id="mask-11" fill="white">
                                            <use xlink:href="#path-10"></use>
                                        </mask>
                                        <g id="">
                                            <use fill="url(#linearGradient-8)" xlink:href="#path-10"></use>
                                            <use fill="url(#linearGradient-9)" xlink:href="#path-10"></use>
                                        </g>
                                        <path d="M24.7617371,2.5125502 L40.3556338,11.8696337" id="Line-7" stroke="#FFFFFF" stroke-width="3" opacity="0.430245536" stroke-linecap="square" mask="url(#mask-11)"></path>
                                    </g>
                                </g>
                                <g id="face" transform="translate(20.333333, 4.166667)">
                                    <mask id="mask-14" fill="white">
                                        <use xlink:href="#path-13"></use>
                                    </mask>
                                    <use id="" fill="url(#linearGradient-12)" xlink:href="#path-13"></use>
                                    <path d="M13.4366219,5.87184418 C15.9861866,8.96746179 17.2895287,10.9575017 17.3466481,11.8419638 C17.4037675,12.726426 18.0503294,12.0630794 19.2863339,9.85192396 L19.2863339,7.86188407 L16.0535243,7.19853744 L13.4366219,5.87184418 Z" id="Path-7" fill="#6180AF" mask="url(#mask-14)"></path>
                                    <path d="M6.53886928,16.095074 C7.23887736,16.9638794 8.43962257,18.6125508 9.93765081,19.5417031 C11.3503308,20.417918 13.8529276,20.4385922 15.3600938,20.4385922 C17.4303531,20.4385922 16.0380681,22.4033542 11.1832388,26.3328782 L6.53886928,25.3825708 C5.63211322,18.0654984 5.63211322,14.9696661 6.53886928,16.095074 Z" id="Path-2" fill="#617FAE" mask="url(#mask-14)"></path>
                                </g>
                                <g id="hair" transform="translate(0.333333, 0.833333)">
                                    <mask id="mask-16" fill="white">
                                        <use xlink:href="#path-15"></use>
                                    </mask>
                                    <g id="">
                                        <use fill="#404E64" fill-rule="evenodd" xlink:href="#path-15"></use>
                                        <use fill="black" fill-opacity="1" filter="url(#filter-17)" xlink:href="#path-15"></use>
                                    </g>
                                    <path d="M24.4996912,17.7809867 C24.4996912,20.04146 20.2099698,48.4344264 16.3609539,50.6514724 C12.511938,52.8685185 28.2437238,52.7675642 28.2437238,48.5325607 C28.2437238,44.2975571 24.4996912,15.5205133 24.4996912,17.7809867 Z" id="Path-3" fill="url(#linearGradient-18)" mask="url(#mask-16)"></path>
                                </g>
                            </g>
                        </g>
                    </g>
                </g>
            </g>
        </g>
    </g>
</svg>