<?xml version="1.0" encoding="UTF-8"?>
<svg width="75px" height="82px" viewBox="0 0 75 82" version="1.1" xmlns="http://www.w3.org/2000/svg" xmlns:xlink="http://www.w3.org/1999/xlink">
    <!-- Generator: Sketch 55.2 (78181) - https://sketchapp.com -->
    <title>feed</title>
    <desc>Created with Sketch.</desc>
    <defs>
        <path d="M0.371720952,21.4458892 C2.11411227,17.5263903 0.632911901,15.2208762 4.66405153,9.60765675 C5.31468697,8.70166995 8.4057288,6.9835939 10.391425,4.80626357 C12.3292688,2.68140363 13.1640056,0.0849542021 13.6840562,0.11641828 C14.8009815,0.18490226 17.7330265,2.36276894 18.7831922,2.99868966 C19.6177422,3.50404581 22.0499668,5.68333488 26.164461,7.59931339 C30.2789553,9.51529191 32.8502278,14.18919 36.4674571,21.4458892 C33.0392178,20.7502067 31.0095022,21.546047 30.3783106,23.8334098 C30.3914708,18.9583617 29.9071287,17.5539606 28.9252844,19.6202065 C27.9434402,21.6864525 28.4277822,30.3289955 30.3783106,45.5478355 L3.60097787,45.5478355 L7.60918738,23.8334098 C1.62261555,24.8547286 -0.78987326,24.0588884 0.371720952,21.4458892 Z" id="path-1"></path>
        <linearGradient x1="151.692914%" y1="-16.0254632%" x2="26.7684537%" y2="56.9678237%" id="linearGradient-3">
            <stop stop-color="#A7CCFF" offset="0%"></stop>
            <stop stop-color="#6E9DFF" offset="100%"></stop>
        </linearGradient>
        <linearGradient x1="15.8312213%" y1="-26.1086492%" x2="70.9219471%" y2="63.9205475%" id="linearGradient-4">
            <stop stop-color="#E1EAF7" offset="0%"></stop>
            <stop stop-color="#E8EFFA" offset="100%"></stop>
        </linearGradient>
        <linearGradient x1="50%" y1="0%" x2="50%" y2="98.9545701%" id="linearGradient-5">
            <stop stop-color="#C3CEE1" offset="0%"></stop>
            <stop stop-color="#9AB0D8" offset="100%"></stop>
        </linearGradient>
        <linearGradient x1="100%" y1="-21.7956195%" x2="51.4654082%" y2="47.8958022%" id="linearGradient-6">
            <stop stop-color="#3A4860" offset="0%"></stop>
            <stop stop-color="#192C4B" offset="100%"></stop>
        </linearGradient>
        <linearGradient x1="65.3664106%" y1="60.1203068%" x2="9.99258674%" y2="46.977843%" id="linearGradient-7">
            <stop stop-color="#929FAA" offset="0%"></stop>
            <stop stop-color="#D4DBE0" offset="100%"></stop>
        </linearGradient>
        <linearGradient x1="65.3664106%" y1="60.1203068%" x2="9.99258674%" y2="46.977843%" id="linearGradient-8">
            <stop stop-color="#B8C6D1" offset="0%"></stop>
            <stop stop-color="#E3E7EB" offset="100%"></stop>
        </linearGradient>
        <linearGradient x1="65.3664106%" y1="60.1203068%" x2="9.99258674%" y2="46.977843%" id="linearGradient-9">
            <stop stop-color="#F8F9FA" offset="0%"></stop>
            <stop stop-color="#EFF1F3" offset="100%"></stop>
        </linearGradient>
        <linearGradient x1="93.4998803%" y1="48.3056977%" x2="5.55111512e-15%" y2="55.7787887%" id="linearGradient-10">
            <stop stop-color="#F1F3F7" offset="0%"></stop>
            <stop stop-color="#D6DCE2" offset="100%"></stop>
        </linearGradient>
        <linearGradient x1="100%" y1="100%" x2="0%" y2="100%" id="linearGradient-11">
            <stop stop-color="#D9DFE6" offset="0%"></stop>
            <stop stop-color="#C1CAD5" offset="100%"></stop>
        </linearGradient>
        <linearGradient x1="100%" y1="100%" x2="0%" y2="100%" id="linearGradient-12">
            <stop stop-color="#D9DFE6" offset="0%"></stop>
            <stop stop-color="#C1CAD5" offset="100%"></stop>
        </linearGradient>
    </defs>
    <g id="Page-1" stroke="none" stroke-width="1" fill="none" fill-rule="evenodd">
        <g id="feed">
            <g id="shirt" transform="translate(19.946809, 22.509804)">
                <g id="Mask" fill="#E3ECF7" fill-rule="nonzero">
                    <path d="M0.371720952,21.4458892 C2.11411227,17.5263903 0.632911901,15.2208762 4.66405153,9.60765675 C5.31468697,8.70166995 8.4057288,6.9835939 10.391425,4.80626357 C12.3292688,2.68140363 13.1640056,0.0849542021 13.6840562,0.11641828 C14.8009815,0.18490226 17.7330265,2.36276894 18.7831922,2.99868966 C19.6177422,3.50404581 22.0499668,5.68333488 26.164461,7.59931339 C30.2789553,9.51529191 32.8502278,14.18919 36.4674571,21.4458892 C33.0392178,20.7502067 31.0095022,21.546047 30.3783106,23.8334098 C30.3914708,18.9583617 29.9071287,17.5539606 28.9252844,19.6202065 C27.9434402,21.6864525 28.4277822,30.3289955 30.3783106,45.5478355 L3.60097787,45.5478355 L7.60918738,23.8334098 C1.62261555,24.8547286 -0.78987326,24.0588884 0.371720952,21.4458892 Z" id="path-3"></path>
                </g>
                <g id="Path-6-Clipped">
                    <g>
                        <mask id="mask-2" fill="white">
                            <use xlink:href="#path-1"></use>
                        </mask>
                        <g id="path-2"></g>
                        <path d="M6.88632234,6.79870069 C14.9685319,6.62964462 19.1934677,4.83855453 19.5611298,1.4254305 C19.928792,-1.98769356 17.8172592,-3.0751 13.2265315,-1.83678888 L6.88632234,6.79870069 Z" id="Path-6" fill="url(#linearGradient-3)" fill-rule="nonzero" opacity="0.184839221" style="mix-blend-mode: multiply;" mask="url(#mask-2)" transform="translate(13.244173, 2.233707) rotate(10.000000) translate(-13.244173, -2.233707) "></path>
                    </g>
                </g>
            </g>
            <path d="M46.996457,40.2031906 C50.6642398,48.4479243 53.7302992,54.4339773 56.0718084,54.6367583 C59.1290768,55.2969097 65.2644393,50.9742851 71.6494775,47.3522176 L72.119535,42.0329693 C68.8813488,46.1857041 62.2894316,46.8995034 59.193577,48.3099292 C58.1050931,47.7997772 55.7700341,45.0996126 52.5405745,33.8068569 L46.996457,40.2031906 Z" id="arm" fill="url(#linearGradient-4)" fill-rule="nonzero" transform="translate(59.557996, 44.255482) rotate(-12.000000) translate(-59.557996, -44.255482) "></path>
            <g id="head" transform="translate(27.127660, 0.000000)" fill-rule="nonzero">
                <path d="M9.27795457,3.11473178 C13.3446684,3.10487128 16.3225928,6.54257359 15.9293347,10.793076 L15.1681708,19.020065 C14.7749127,23.2705675 12.1129416,26.7219742 9.22249194,26.7290084 C6.33204222,26.7360212 3.68625344,23.2975119 3.3129573,19.0488721 L2.59043018,10.8254884 C2.21713404,6.57684859 5.21124067,3.12463478 9.27795457,3.11473178 Z" id="Rectangle-21" fill="url(#linearGradient-5)" transform="translate(9.261599, 14.921870) rotate(-4.000000) translate(-9.261599, -14.921870) "></path>
                <path d="M14.7644918,9.08214386 C13.5312422,9.85436816 12.1640158,10.4759356 10.8683449,10.334999 C6.82459615,9.89514009 8.46835282,10.3375905 7.66653322,11.3108225 L5.72238783,17.7010965 C5.68659052,20.8732546 6.94912943,24.695929 8.77969338,26.5785896 C6.3631297,25.9348783 4.18559382,23.0459162 3.61533298,19.454056 L2.32093166,11.301105 C1.65217471,7.08885447 4.39817361,3.43619178 8.45429187,3.1426545 C12.5104101,2.84911719 12.1560869,4.10342466 14.4646374,4.85581834 L14.7644918,9.08214386 Z" id="Combined-Shape" fill="#6380B1" opacity="0.275079257" style="mix-blend-mode: multiply;"></path>
                <path d="M3.61441905,20.0572312 C2.72346512,19.0738865 2.07805984,17.9229788 1.6782032,16.6045081 C0.443841109,12.5343736 -0.0329157932,7.78250038 0.154992368,5.73684573 C0.59235844,0.975477587 6.08513308,-1.43902707 11.149768,0.975477587 C16.2144029,3.38998225 17.2186129,7.9860692 15.993635,8.75673215 C14.768657,9.52739507 6.79562532,9.84193714 5.2050222,7.9860692 C3.49521277,8.49984449 2.96501171,12.5235652 3.61441905,20.0572312 Z" id="Path-43" fill="url(#linearGradient-6)"></path>
                <path d="M3.81484623,15.3444186 C4.86680515,15.3482193 5.59049187,14.7123179 5.58639605,13.5402622 C5.58226533,12.3682065 4.72614965,11.4149726 3.67419074,11.4111548 C2.62223183,11.4073369 2.02319114,11.4146716 2.02728337,12.5867273 C2.03141768,13.758783 2.76288731,15.3405836 3.81484623,15.3444186 Z" id="Oval-10" fill="#B1C1DD" transform="translate(3.806840, 13.377614) rotate(6.000000) translate(-3.806840, -13.377614) "></path>
            </g>
            <g id="paper" transform="translate(0.797872, 22.509804)" fill-rule="nonzero">
                <path d="M3.75341502,0 C8.98643851,5.28850351 13.5742096,8.48227448 17.5167283,9.58131294 C21.4592471,10.6803514 28.4396935,12.4078498 38.4580677,14.7638081 L38.4580677,58.5763568 C29.284998,57.2873582 22.3045516,55.8712469 17.5167283,54.328023 C12.7289051,52.7847988 9.87347935,50.2422652 8.9504512,46.7004222 L3.75341502,0 Z" id="Rectangle-22-Copy-3" fill="url(#linearGradient-7)"></path>
                <path d="M1.73234539,1.15514944 C8.31274864,6.25112804 13.5742096,9.34863656 17.5167283,10.447675 C21.4592471,11.5467135 28.4396935,12.9854245 38.4580677,14.7638081 L38.4580677,58.5763568 C29.284998,57.2873582 22.3045516,55.8712469 17.5167283,54.328023 C12.7289051,52.7847988 9.19978949,50.6273152 6.92938157,47.8555717 L1.73234539,1.15514944 Z" id="Rectangle-22-Copy-2" fill="url(#linearGradient-8)"></path>
                <path d="M0,3.75423567 C7.73530018,7.69506483 13.5742096,10.2149986 17.5167283,11.3140371 C21.4592471,12.4130756 28.4396935,13.4667368 38.4580677,14.4750207 L38.4580677,59.4427189 C29.284998,58.1537202 22.3045516,56.737609 17.5167283,55.1943851 C12.7289051,53.6511608 8.62234102,51.4936773 5.19703618,48.7219337 L0,3.75423567 Z" id="Rectangle-22" fill="url(#linearGradient-9)"></path>
                <path d="M74.2021277,5.13756279 L70.3909678,50.1052607 C63.2987931,50.9573821 57.9214986,51.9141057 54.2590843,52.9754313 C50.5966702,54.0367572 45.2334233,56.1925196 38.1693435,59.4427189 L38.1693435,14.4750207 C44.3997488,10.8435587 49.7629957,8.44527424 54.2590843,7.28016753 C58.7551731,6.11506085 65.4028542,5.40085924 74.2021277,5.13756279 Z M46.3095323,25.7054335 L46.5639618,27.6373487 L46.2508292,29.0123275 L45.9381486,30.3618618 L47.3917039,31.7569664 L46.0569549,34.2519953 L46.33919,35.6375376 L45.704996,36.7661798 L46.6648161,38.3092613 L46.0480809,40.1737782 L46.020808,41.9700038 L48.2296821,41.1808632 L49.4153455,41.0731267 L50.4762633,40.4295347 L51.7696762,39.43703 L53.4135464,39.4939904 L54.3549462,39.6969917 L56.0081199,38.7257022 L57.3412556,39.1790975 L58.7655504,38.3978466 L59.6575313,38.0030038 L61.4755868,38.7505951 L63.0265054,37.9844021 L65.0483234,37.6508313 L65.5128007,36.3464548 L64.8005677,34.7902222 L65.5848417,32.9956825 L65.0813751,31.6058301 L65.4675787,29.7745445 L66.1090584,28.5716313 L65.6232952,26.8492011 L65.1373402,25.1303712 L65.8031522,23.4703379 L65.9954315,19.8581086 L62.3600585,20.3292612 L60.1755525,21.1899529 L58.3850988,20.8444251 C57.2618766,21.0462914 56.4695503,21.1988315 56.0081199,21.3020454 C55.7278955,21.3647266 54.8409124,22.0785255 53.3471701,23.4434419 L50.948466,23.3175666 L49.5821805,23.3974392 L48.2301111,24.6256205 L46.3095323,25.7054335 Z" id="Combined-Shape" fill="url(#linearGradient-10)"></path>
                <path d="M44.752256,17.5347999 C47.3066403,16.1747049 50.510005,14.9459344 54.3623508,13.8484882 C58.2146963,12.7510421 62.1632834,12.1349082 66.2081119,12.0000866 L66.2081119,15.9234297 C62.2418779,15.949095 58.535816,16.3912441 55.0899261,17.2498768 C51.6440358,18.1085095 48.1981459,19.544717 44.752256,21.5584992 L44.752256,17.5347999 Z" id="Path-3" fill="url(#linearGradient-11)"></path>
                <path d="M45.6184287,46.7023233 C47.215911,45.5285736 49.940825,44.3929757 53.7931708,43.2955294 C57.6455163,42.1980835 61.4102046,41.6172856 65.0872353,41.5531364 L64.7985111,44.8989046 C61.754799,44.927349 58.5099977,45.3708877 55.0641078,46.2295203 C51.6182178,47.088153 48.4696581,48.4907248 45.6184287,50.4372351 L45.6184287,46.7023233 Z" id="Path-3-Copy" fill="url(#linearGradient-12)"></path>
                <path d="M7.12505306,17.1370065 C9.47781021,18.4553523 10.965908,19.5159749 15.0916374,20.746341 C21.1189561,22.5437949 27.1244684,23.2964707 32.9807799,22.706294 L32.6867114,19.8778387 C27.3739081,20.4132427 21.7593612,19.6824663 16.1648348,18.0140787 C12.3006035,16.861696 8.48756438,15.3667967 6.35307508,14.1707552 L7.12505306,17.1370065 Z" id="Path-4" fill="#D1D9E0" opacity="0.600000024" transform="translate(19.666927, 18.537434) rotate(4.000000) translate(-19.666927, -18.537434) "></path>
                <path d="M7.78805037,23.2065524 C10.1407956,24.5248816 11.6283566,25.5754274 15.7540735,26.8057632 C21.7813737,28.6031728 27.2108338,29.3960887 33.0671453,28.8058671 L32.7720433,25.9572793 C27.4592402,26.4927241 22.4218,25.741837 16.8272907,24.0734906 C12.9630713,22.9211363 9.43806737,21.4061221 7.30358887,20.2100959 L7.78805037,23.2065524 Z" id="Path-4-Copy" fill="#D1D9E0" opacity="0.600000024" transform="translate(20.185367, 24.604355) rotate(2.000000) translate(-20.185367, -24.604355) "></path>
                <path d="M8.4893344,28.9924222 C10.7892143,30.3107425 12.8847246,31.6450341 16.9177419,32.875354 C22.8096165,34.6727404 27.4337815,34.883018 33.1585178,34.2927736 L32.8568267,31.4341093 C27.6633876,31.9695748 23.4356643,31.8114014 17.9668564,30.1430766 C14.189461,28.9907372 10.0956711,27.1869466 8.00915358,25.9909284 L8.4893344,28.9924222 Z" id="Path-4-Copy-2" fill="#D1D9E0" opacity="0.600000024" transform="translate(20.583836, 30.289323) rotate(1.000000) translate(-20.583836, -30.289323) "></path>
                <path d="M9.02323344,32.7106188 L10.3958502,46.1661335 C13.7572372,48.1842278 17.4799216,49.4007899 21.5639036,49.8158195 C20.8682054,45.0710308 20.8682054,42.7008435 20.8682054,37.0424511 C16.1993012,36.325922 12.2509772,34.8819777 9.02323344,32.7106188 Z" id="Path-5" fill="#04CC99"></path>
            </g>
            <g id="fingers" transform="translate(71.808511, 37.784314)" fill="#A5B2CA" fill-rule="nonzero">
                <path d="M0.864001433,0.518384547 L2.29043798,0.562748259 C2.66401928,0.57436704 2.96381202,0.875137035 2.97421493,1.24875417 L2.97421493,1.24875417 C2.98386015,1.59515918 2.7108624,1.88379492 2.36445739,1.89344014 C2.35213627,1.89378321 2.33980772,1.89376315 2.32748778,1.89337998 L0.901051233,1.84901627 C0.527469924,1.83739749 0.22767719,1.5366275 0.217274282,1.16301035 L0.217274282,1.16301035 C0.207629061,0.816605347 0.480626808,0.527969608 0.827031816,0.518324388 C0.839352938,0.517981322 0.851681493,0.518001383 0.864001433,0.518384547 Z" id="Rectangle-23" transform="translate(1.595745, 1.205882) rotate(14.000000) translate(-1.595745, -1.205882) "></path>
                <path d="M0.86400138,2.12622767 L2.29043793,2.17059138 C2.66401923,2.18221016 2.96381197,2.48298016 2.97421488,2.8565973 L2.97421488,2.8565973 C2.9838601,3.20300231 2.71086235,3.49163804 2.36445734,3.50128327 C2.35213622,3.50162633 2.33980767,3.50160627 2.32748773,3.50122311 L0.90105118,3.45685939 C0.527469871,3.44524061 0.227677137,3.14447062 0.217274228,2.77085348 L0.217274228,2.77085348 C0.207629008,2.42444847 0.480626755,2.13581273 0.827031763,2.12616751 C0.839352884,2.12582444 0.85168144,2.1258445 0.86400138,2.12622767 Z" id="Rectangle-23-Copy" transform="translate(1.595745, 2.813725) rotate(14.000000) translate(-1.595745, -2.813725) "></path>
                <path d="M0.864001635,3.73407084 L2.29043818,3.77843455 C2.66401949,3.79005333 2.96381222,4.09082333 2.97421513,4.46444047 L2.97421513,4.46444047 C2.98386035,4.81084548 2.71086261,5.09948122 2.3644576,5.10912644 C2.35213648,5.1094695 2.33980792,5.10944944 2.32748798,5.10906628 L0.901051435,5.06470256 C0.527470127,5.05308378 0.227677393,4.75231379 0.217274484,4.37869665 L0.217274484,4.37869665 C0.207629264,4.03229164 0.480627011,3.7436559 0.827032018,3.73401068 C0.83935314,3.73366761 0.851681695,3.73368767 0.864001635,3.73407084 Z" id="Rectangle-23-Copy-2" transform="translate(1.595745, 4.421569) rotate(14.000000) translate(-1.595745, -4.421569) "></path>
                <path d="M0.864001573,5.34191398 L2.29043812,5.38627769 C2.66401942,5.39789647 2.96381216,5.69866647 2.97421507,6.07228361 L2.97421507,6.07228361 C2.98386029,6.41868862 2.71086254,6.70732436 2.36445753,6.71696958 C2.35213641,6.71731265 2.33980785,6.71729258 2.32748792,6.71690942 L0.901051373,6.67254571 C0.527470064,6.66092693 0.22767733,6.36015693 0.217274421,5.98653979 L0.217274421,5.98653979 C0.207629201,5.64013478 0.480626948,5.35149904 0.827031955,5.34185382 C0.839353077,5.34151076 0.851681633,5.34153082 0.864001573,5.34191398 Z" id="Rectangle-23-Copy-3" transform="translate(1.595745, 6.029412) rotate(14.000000) translate(-1.595745, -6.029412) "></path>
            </g>
            <g id="fingers" transform="translate(3.105272, 48.930534) rotate(170.000000) translate(-3.105272, -48.930534) translate(1.105272, 45.430534)" fill="#A5B2CA" fill-rule="nonzero">
                <path d="M0.868028251,0.57979089 L2.59510823,0.582115129 C2.91599753,0.582546872 3.17602146,0.842572571 3.17645156,1.16346187 L3.17645156,1.16346187 C3.17687912,1.48323993 2.91799481,1.74281829 2.59821676,1.74324689 C2.59769871,1.74324689 2.59718066,1.74324689 2.59666261,1.74324689 L0.869582638,1.74092265 C0.548693339,1.74049091 0.288669401,1.48046521 0.288239302,1.1595759 L0.288239302,1.1595759 C0.28781175,0.839797851 0.546696053,0.58021949 0.866474107,0.57979089 C0.866992155,0.57979089 0.867510203,0.57979089 0.868028251,0.57979089 Z" id="Rectangle-23" transform="translate(1.732345, 1.161519) rotate(14.000000) translate(-1.732345, -1.161519) "></path>
                <path d="M0.868028133,2.03168936 L2.59510811,2.0340136 C2.91599741,2.03444535 3.17602134,2.29447105 3.17645144,2.61536035 L3.17645144,2.61536035 C3.176879,2.9351384 2.91799469,3.19471676 2.59821664,3.19514536 C2.59769859,3.19514536 2.59718054,3.19514536 2.59666249,3.19514536 L0.86958252,3.19282112 C0.548693221,3.19238938 0.288669283,2.93236368 0.288239184,2.61147438 L0.288239184,2.61147438 C0.287811632,2.29169633 0.546695935,2.03211796 0.866473989,2.03168936 C0.866992037,2.03168936 0.867510085,2.03168936 0.868028133,2.03168936 Z" id="Rectangle-23-Copy" transform="translate(1.732345, 2.613417) rotate(14.000000) translate(-1.732345, -2.613417) "></path>
                <path d="M0.868028258,3.48358786 L2.59510824,3.4859121 C2.91599754,3.48634384 3.17602147,3.74636954 3.17645157,4.06725884 L3.17645157,4.06725884 C3.17687913,4.3870369 2.91799482,4.64661526 2.59821677,4.64704386 C2.59769872,4.64704386 2.59718067,4.64704386 2.59666262,4.64704386 L0.869582645,4.64471962 C0.548693346,4.64428788 0.288669408,4.38426218 0.288239309,4.06337287 L0.288239309,4.06337287 C0.287811757,3.74359482 0.54669606,3.48401646 0.866474114,3.48358786 C0.866992162,3.48358786 0.86751021,3.48358786 0.868028258,3.48358786 Z" id="Rectangle-23-Copy-2" transform="translate(1.732345, 4.065316) rotate(14.000000) translate(-1.732345, -4.065316) "></path>
                <path d="M0.918164696,4.93989773 L2.64524467,4.94222196 C2.96613397,4.9426537 3.22615791,5.2026794 3.22658801,5.52356871 L3.22658801,5.52356871 C3.22701556,5.84334676 2.96813125,6.10292512 2.6483532,6.10335372 C2.64783515,6.10335372 2.6473171,6.10335372 2.64679906,6.10335372 L0.919719083,6.10102948 C0.598829783,6.10059774 0.338805846,5.84057204 0.338375747,5.51968274 L0.338375747,5.51968274 C0.337948195,5.19990468 0.596832498,4.94032632 0.916610552,4.93989773 C0.9171286,4.93989773 0.917646648,4.93989773 0.918164696,4.93989773 Z" id="Rectangle-23-Copy-3" transform="translate(1.782482, 5.521626) rotate(14.000000) translate(-1.782482, -5.521626) "></path>
            </g>
        </g>
    </g>
</svg>