<?xml version="1.0" encoding="UTF-8"?>
<svg width="98px" height="70px" viewBox="0 0 98 70" version="1.1" xmlns="http://www.w3.org/2000/svg" xmlns:xlink="http://www.w3.org/1999/xlink">
    <!-- Generator: Sketch 52.4 (67378) - http://www.bohemiancoding.com/sketch -->
    <title>folder</title>
    <desc>Created with Sketch.</desc>
    <g id="Illustrations" stroke="none" stroke-width="1" fill="none" fill-rule="evenodd">
        <g transform="translate(-42.000000, -3580.000000)" id="Operations">
            <g transform="translate(42.000000, 48.000000)">
                <g id="folder" transform="translate(0.000000, 3532.000000)">
                    <path d="M62.2937331,19.4610429 L91.1998914,19.4610429 C94.4154628,19.4610429 97.0221977,22.1128947 97.0221977,25.3841198 C97.0221977,25.7424733 96.99023,26.1000876 96.9266875,26.4525627 L89.1351524,69.672897 L54.3065431,69.672897 C48.4600506,69.672897 43.7205319,64.8513482 43.7205319,58.9036662 C43.7205319,57.9108202 43.8554929,56.9227432 44.1215801,55.9675108 L52.1087702,27.2941181 C53.3997146,22.6597269 57.5588066,19.4610429 62.2937331,19.4610429 Z" id="Combined-Shape-Copy" fill="#A0B8D1"></path>
                    <path d="M38.6569348,8.83177572 L69.9090783,8.83177572 C75.1467663,8.83177572 77.5487746,12.3140982 78.6481483,18.6448598 L87.4190392,69.672897 L27.5285404,69.672897 C21.2744925,69.672897 15.8068531,65.3828689 14.2181539,59.2292798 L0.44676191,5.88785045 C0.200022121,2.63608045 2.5912322,5.30174195e-14 5.78767908,6.92779167e-14 L21.2505575,7.21474163e-14 C22.7774251,7.21474163e-14 24.2431908,0.610166652 25.3320733,1.69904695 L28.0489195,4.41588785 C30.8789666,7.24592928 34.6885477,8.83177572 38.6569348,8.83177572 Z" id="Combined-Shape" fill="#F8FAFC"></path>
                </g>
            </g>
        </g>
    </g>
</svg>