<?xml version="1.0" encoding="UTF-8"?>
<svg width="100px" height="110px" viewBox="0 0 100 110" version="1.1" xmlns="http://www.w3.org/2000/svg" xmlns:xlink="http://www.w3.org/1999/xlink">
    <!-- Generator: Sketch 53.2 (72643) - https://sketchapp.com -->
    <title>mobile/operations/geocoding</title>
    <desc>Created with Sketch.</desc>
    <defs>
        <filter x="-55.7%" y="-47.6%" width="211.4%" height="195.1%" filterUnits="objectBoundingBox" id="filter-1">
            <feOffset dx="0" dy="5" in="SourceAlpha" result="shadowOffsetOuter1"></feOffset>
            <feGaussianBlur stdDeviation="7.5" in="shadowOffsetOuter1" result="shadowBlurOuter1"></feGaussianBlur>
            <feColorMatrix values="0 0 0 0 0   0 0 0 0 0   0 0 0 0 0  0 0 0 0.1 0" type="matrix" in="shadowBlurOuter1" result="shadowMatrixOuter1"></feColorMatrix>
            <feMerge>
                <feMergeNode in="shadowMatrixOuter1"></feMergeNode>
                <feMergeNode in="SourceGraphic"></feMergeNode>
            </feMerge>
        </filter>
    </defs>
    <g id="Mobile-Illustrations" stroke="none" stroke-width="1" fill="none" fill-rule="evenodd">
        <g id="Illustrations" transform="translate(-495.000000, -3727.000000)">
            <g id="Operations" transform="translate(40.000000, 56.000000)">
                <g id="mobile/operations/geocoding" transform="translate(470.000000, 3681.000000)">
                    <g id="geocoding" filter="url(#filter-1)">
                        <path d="M62.2222222,0 L7.77777778,0 C3.48055556,0 0,3.4947619 0,7.80952381 L0,62.4761905 C0,66.7909524 3.48055556,70.2857143 7.77777778,70.2857143 L23.3333333,70.2857143 L35,82 L46.6666667,70.2857143 L62.2222222,70.2857143 C66.5194444,70.2857143 70,66.7909524 70,62.4761905 L70,7.80952381 C70,3.4947619 66.5194444,0 62.2222222,0 Z" id="Shape" fill="#FFFFFF" fill-rule="nonzero"></path>
                        <g id="single-neutral-circle" transform="translate(19.000000, 20.000000)" fill="#04CC99" fill-rule="nonzero">
                            <path d="M16,0 C7.163444,-5.41083001e-16 1.082166e-15,7.163444 0,16 C-1.082166e-15,24.836556 7.163444,32 16,32 C24.836556,32 32,24.836556 32,16 C31.9904469,7.16740407 24.8325959,0.00955313015 16,0 Z M25.9866667,24.3186667 C23.5180415,27.2840936 19.8591466,28.9989672 16.0006667,28.9989672 C12.1421867,28.9989672 8.48329188,27.2840936 6.01466667,24.3186667 C5.95052811,24.2421002 5.9241039,24.1408074 5.94266667,24.0426667 C5.96246496,23.9450084 6.02379225,23.8608051 6.11066667,23.812 C7.85511538,22.9520942 9.65461043,22.2086889 11.4973333,21.5866667 L12.396,21.2546667 C12.7482564,21.0517132 12.9840173,20.6943649 13.032,20.2906667 C13.2541894,19.4999211 13.1337076,18.652194 12.7,17.9546667 C11.5813333,16.7226667 10.488,15.2026667 10.488,11.4013333 C10.3516892,9.86976666 10.8759013,8.35288171 11.9287625,7.23227463 C12.9816238,6.11166755 14.4629172,5.49400391 16,5.53466667 C17.5373119,5.49361631 19.018968,6.11111061 20.0721284,7.23176495 C21.1252888,8.35241928 21.6496755,9.86952926 21.5133333,11.4013333 C21.5133333,15.2026667 20.42,16.7226667 19.3013333,17.9546667 C18.8676257,18.652194 18.7471439,19.4999211 18.9693333,20.2906667 C19.0173161,20.6943649 19.253077,21.0517132 19.6053333,21.2546667 L20.5053333,21.5866667 C22.3469737,22.2087443 24.1455492,22.9516923 25.8893333,23.8106667 C25.9759682,23.8597408 26.0372055,23.9438205 26.0573333,24.0413333 C26.0766812,24.1397009 26.0507286,24.2415526 25.9866667,24.3186667 L25.9866667,24.3186667 Z" id="Shape"></path>
                        </g>
                    </g>
                </g>
            </g>
        </g>
    </g>
</svg>