<?xml version="1.0" encoding="UTF-8"?>
<svg width="267px" height="248px" viewBox="0 0 267 248" version="1.1" xmlns="http://www.w3.org/2000/svg" xmlns:xlink="http://www.w3.org/1999/xlink">
    <!-- Generator: Sketch 52.6 (67491) - http://www.bohemiancoding.com/sketch -->
    <title>illustration/history</title>
    <desc>Created with Sketch.</desc>
    <defs>
        <filter x="-6.2%" y="-6.6%" width="112.4%" height="113.1%" filterUnits="objectBoundingBox" id="filter-1">
            <feOffset dx="0" dy="1" in="SourceAlpha" result="shadowOffsetOuter1"></feOffset>
            <feGaussianBlur stdDeviation="1" in="shadowOffsetOuter1" result="shadowBlurOuter1"></feGaussianBlur>
            <feColorMatrix values="0 0 0 0 0   0 0 0 0 0   0 0 0 0 0  0 0 0 0.05 0" type="matrix" in="shadowBlurOuter1" result="shadowMatrixOuter1"></feColorMatrix>
            <feMerge>
                <feMergeNode in="shadowMatrixOuter1"></feMergeNode>
                <feMergeNode in="SourceGraphic"></feMergeNode>
            </feMerge>
        </filter>
    </defs>
    <g id="Store-Manager" stroke="none" stroke-width="1" fill="none" fill-rule="evenodd">
        <g id="History---fullscreen" transform="translate(-786.000000, -169.000000)">
            <g id="container" transform="translate(185.000000, 68.000000)">
                <g id="right" transform="translate(340.000000, 0.000000)">
                    <g id="1">
                        <g id="illustrations/history" transform="translate(188.000000, 106.000000)">
                            <path d="M205.177349,194.33692 C266.575143,144.61266 339.017349,150.097716 339.017349,95.5258915 C339.017349,40.9540674 279.09514,-3.28513681 205.177349,-3.28513681 C131.259558,-3.28513681 71.3373487,40.9540674 71.3373487,95.5258915 C71.3373487,150.097716 143.779555,244.061179 205.177349,194.33692 Z" id="Oval" fill="#F0F5F8" fill-rule="nonzero" transform="translate(205.177349, 102.554863) rotate(10.000000) translate(-205.177349, -102.554863) "></path>
                            <g id="illustration" stroke-width="1" fill-rule="evenodd" transform="translate(14.560000, 25.760000)">
                                <g id="Rows" filter="url(#filter-1)" transform="translate(172.480000, 12.320000)">
                                    <g id="Row" transform="translate(52.500000, 15.500000) scale(-1, 1) translate(-52.500000, -15.500000) ">
                                        <rect id="Container" fill="#FFFFFF" x="0" y="0" width="104.72" height="30.4718471" rx="2.24"></rect>
                                        <g id="Text-Stuff" transform="translate(10.640000, 9.107938)" fill="#04CC99">
                                            <rect id="Label" x="0" y="0" width="72.3666667" height="3.6456" rx="1.68"></rect>
                                            <rect id="Label" x="23.8333333" y="7.751437" width="48.5748858" height="3.6456" rx="1.68"></rect>
                                        </g>
                                        <g id="Check" transform="translate(89.608550, 11.259897)" fill="#04CC99">
                                            <circle id="Background" cx="3.92" cy="3.92" r="3.92"></circle>
                                        </g>
                                    </g>
                                    <g id="Row" transform="translate(52.500000, 52.000000) scale(-1, 1) translate(-52.500000, -52.000000) translate(0.000000, 39.000000)">
                                        <rect id="Container" fill="#FFFFFF" x="0" y="0" width="104.72" height="25.4996178" rx="2.24"></rect>
                                        <g id="Text-Stuff" transform="translate(10.640000, 7.622315)" fill="#E3ECF3">
                                            <rect id="Label" x="0" y="0" width="72.3666667" height="3.6456" rx="1.68"></rect>
                                            <rect id="Label" x="23.8333333" y="6.51479955" width="48.5748858" height="3.6456" rx="1.68"></rect>
                                        </g>
                                        <g id="Check" transform="translate(89.608550, 8.783859)" fill="#E3ECF3">
                                            <circle id="Background" cx="3.92" cy="3.92" r="3.92"></circle>
                                        </g>
                                    </g>
                                    <g id="Row-Copy" transform="translate(52.500000, 86.000000) scale(-1, 1) translate(-52.500000, -86.000000) translate(0.000000, 73.000000)">
                                        <rect id="Container" fill="#FFFFFF" x="0" y="0" width="104.72" height="25.4996178" rx="2.24"></rect>
                                        <g id="Text-Stuff" transform="translate(10.640000, 7.622315)" fill="#E3ECF3">
                                            <rect id="Label" x="0" y="0" width="72.3666667" height="3.6456" rx="1.68"></rect>
                                            <rect id="Label" x="23.8333333" y="6.51479955" width="48.5748858" height="3.6456" rx="1.68"></rect>
                                        </g>
                                        <g id="Check" transform="translate(89.608550, 8.783859)" fill="#E3ECF3">
                                            <circle id="Background" cx="3.92" cy="3.92" r="3.92"></circle>
                                        </g>
                                    </g>
                                </g>
                                <g id="woman" transform="translate(40.880000, 14.560000)">
                                    <g id="Illustrations/A-Human/Standing">
                                        <g id="Illustrations/Head/Front/Wavy" transform="translate(45.920000, 0.000000)">
                                            <g id="Head" stroke-width="1" transform="translate(30.240000, 17.360000)" fill="#C4CFE2">
                                                <path d="M4.62687337,19.314471 C2.04644404,16.2855705 0.299955485,12.5736112 0.591794747,8.41425418 C1.43266492,-3.57001152 18.1151772,-0.93362576 21.3602712,5.11500244 C24.6053652,11.1636306 24.2197637,26.5064777 20.0257688,27.5875362 C18.3532094,28.0186609 14.7901607,26.9625781 11.1638083,24.7768114 L13.44,40.88 L0,40.88 L4.62687337,19.314471 Z"></path>
                                            </g>
                                            <path d="M52.8690938,25.1908344 C52.7359641,24.4068065 52.4106034,23.5361521 52.1480758,22.794388 C51.8096104,21.8381565 51.2973994,20.9759929 50.7337244,20.1634394 C49.6725052,18.6336406 48.3994414,17.2521945 46.9938554,16.1056325 C44.4263785,14.0113298 41.1581047,12.8033278 37.9441589,13.1956279 C36.3214343,13.3936861 34.7461817,14.0126655 33.4054248,15.0429304 C32.1940659,15.9737846 31.0288771,17.3440683 29.460307,17.442525 C27.7535736,17.549568 26.1890824,16.0431431 24.8202937,15.1127659 C23.2769783,14.0638973 21.6351609,13.299618 19.8314007,13.0025308 C16.8096859,12.5050003 13.9710027,13.5259156 11.888486,16.005077 C9.67240554,18.6432763 8.06148387,22.5121838 9.51679824,26.0077765 C9.78731019,26.6575713 10.135322,27.2053795 10.6347754,27.6594059 C11.0928319,28.0757478 11.7924139,28.5187073 11.9781359,29.1839575 C12.1754005,29.8910899 11.5861235,30.8033404 11.357616,31.4414006 C11.0302592,32.3555591 10.761483,33.3151298 10.8570344,34.3087597 C11.0140303,35.9405451 12.0394936,37.4982972 13.1223225,38.5708259 C14.2242443,39.6622446 15.580449,40.2880931 17.0289941,40.576594 C17.996224,40.7692141 18.9847165,40.8754939 19.9677415,40.8031778 C20.4557392,40.767306 20.8863713,40.6317373 21.3591814,40.5239311 C21.8189736,40.4190824 22.0759469,40.5411992 22.46605,40.7933512 C24.2782284,41.964909 26.2267476,42.4181722 28.3192447,42.243965 C30.085253,42.0968524 32.1207317,41.6688713 33.5613793,40.4588658 C35.1612791,39.1150088 35.1294286,37.2618868 34.752951,35.2819731 C35.1518194,35.4796497 36.2553034,35.6020527 35.5959034,34.8141132 C35.3346775,34.5020476 34.8411256,34.3750653 34.5059581,34.1915085 C34.1156814,33.9778041 33.7194166,33.7016103 33.4163599,33.3530051 C32.1926773,31.9454185 33.4285967,29.0808261 34.9666181,28.6087684 C37.2516934,27.9074556 37.7632969,31.1390661 39.3945264,31.9749936 C40.3324227,32.4556376 41.3135384,31.7986875 42.0162446,31.1279039 C42.9575255,30.2292962 43.5990476,29.0388484 44.1529158,27.8274118 C44.6091498,26.829775 45.0337069,25.8181139 45.4987063,24.8254381 C45.7158448,24.3618713 46.4675851,23.0514057 46.0900661,22.5272576 C47.7267632,22.2008814 49.549703,22.8810146 50.9592812,23.7729441 C51.5418756,24.1416795 51.9860463,24.5481948 52.296827,25.1991345 C52.3633918,25.3386147 52.5083244,25.7532393 52.6903147,25.7702212 C53.0291272,25.8018952 52.9025064,25.3878431 52.8690938,25.1908344" id="hair" fill="#191847"></path>
                                        </g>
                                        <g id="Illustrations/Bottom/Sitting/Sweat-Pants" transform="translate(0.000000, 104.720000)">
                                            <g id="Objects/Seat/Ball" transform="translate(5.600000, 23.520000)" fill="#E3ECF3">
                                                <ellipse id="Ballsy-Ball" cx="64.96" cy="32.76" rx="43.12" ry="41.16"></ellipse>
                                            </g>
                                            <path d="M152.045182,91.0895154 C144.870022,75.2088654 139.681019,61.3806374 137.598173,54.0848316 C134.031834,41.5926408 131.318778,30.6002423 130.633063,26.4951549 C128.99789,16.7060475 143.211754,16.1360082 145.090528,21.0010241 C147.934128,28.3644187 152.898409,52.5574607 158.863372,89.1001502 L152.045182,91.0895154 Z M68.817474,41.2515832 C75.4006751,38.649423 98.4546951,30.5059329 109.573649,28.2022886 C112.76879,27.5403136 115.865615,26.9252641 118.777173,26.3694304 C127.431355,24.717296 131.915033,40.3297598 123.580001,41.5293512 C102.822475,44.5168077 73.3951772,47.6018421 70.8768435,47.9480535 C67.3472914,48.4332836 64.6801373,42.8869597 68.817474,41.2515832 Z" id="Skin" fill="#C4CFE2"></path>
                                            <path d="M124.088788,22.0731042 L88.48,3.94616175 L88.48,0 L92.714824,0 C127.164731,8.77840442 144.768605,14.404135 145.526447,16.8771917 C145.5346,16.9037989 145.542076,16.9304409 145.548874,16.9571178 C145.566211,16.9798732 145.583254,17.0027662 145.6,17.0257967 C152.427243,26.4152144 156.516052,72.2551007 157.858073,75.687436 L144.775529,77.6391712 C139.771108,59.0818454 123.76,46.1541364 124.185313,23.9282459 C124.070469,23.2762743 124.041451,22.6579902 124.088788,22.0731042 Z" id="Leg-Back" fill="#E3ECF3"></path>
                                            <path d="M91.4385775,32.8386667 C88.1804558,32.1864617 85.180076,31.6043789 82.6127146,31.1540652 C66.0292022,28.2453266 61.1933089,19.3683002 64.0525472,4.85249773e-15 L94.607387,-4.97379915e-14 C99.5985723,1.43377812 125.53746,12.3115091 138.995708,18.0971487 C147.903066,21.9263815 145.095177,35.730509 140.050936,39.3229099 C140.023544,39.5432967 139.932765,39.6929991 139.771108,39.76 C112.636645,51.0062855 91.170795,45.1053882 84,46.9908137 L80.6831871,36.5279132 L91.4385775,32.8386667 Z" id="Leg-Front" fill="#F0F5F8"></path>
                                            <g id="Illustrations/Accessories/Shoe/Flat-Sneaker" transform="translate(80.617205, 52.265819) rotate(64.000000) translate(-80.617205, -52.265819) translate(63.537205, 41.065819)" fill="#DCE4F2">
                                                <path d="M1.4997548,14.2250749 C0.8732516,15.8975088 0.56,17.1488757 0.56,17.9791757 C0.56,18.9890159 0.728231955,20.4626241 1.06469586,22.4 C2.23618146,22.4 12.7645197,22.4 32.6497107,22.4 C33.4704933,19.6865241 32.99669,18.2216057 31.2283008,18.005245 C29.4599116,17.7888842 27.9908807,17.5935278 26.821208,17.4191757 L12.1407959,10.8745747 C11.8583156,10.7486436 11.5272327,10.8755518 11.4013015,11.1580321 C11.3991472,11.1628646 11.3970614,11.1677273 11.3950449,11.1726189 L10.4513993,13.4616692 C8.81433348,14.2254852 7.48404752,14.6073932 6.46054144,14.6073932 C5.6289608,14.6073932 4.48053853,14.271542 3.01527461,13.5998396 L3.01526182,13.5998675 C2.45298497,13.34211 1.78821581,13.5889718 1.53045834,14.1512486 C1.51934838,14.1754841 1.50910734,14.2001086 1.4997548,14.2250749 Z" id="shoe"></path>
                                            </g>
                                            <g id="Illustrations/Accessories/Shoe/Flat-Sneaker" transform="translate(147.280000, 73.920000)" fill="#DCE4F2">
                                                <path d="M1.4997548,14.2250749 C0.8732516,15.8975088 0.56,17.1488757 0.56,17.9791757 C0.56,18.9890159 0.728231955,20.4626241 1.06469586,22.4 C2.23618146,22.4 12.7645197,22.4 32.6497107,22.4 C33.4704933,19.6865241 32.99669,18.2216057 31.2283008,18.005245 C29.4599116,17.7888842 27.9908807,17.5935278 26.821208,17.4191757 L12.1407959,10.8745747 C11.8583156,10.7486436 11.5272327,10.8755518 11.4013015,11.1580321 C11.3991472,11.1628646 11.3970614,11.1677273 11.3950449,11.1726189 L10.4513993,13.4616692 C8.81433348,14.2254852 7.48404752,14.6073932 6.46054144,14.6073932 C5.6289608,14.6073932 4.48053853,14.271542 3.01527461,13.5998396 L3.01526182,13.5998675 C2.45298497,13.34211 1.78821581,13.5889718 1.53045834,14.1512486 C1.51934838,14.1754841 1.50910734,14.2001086 1.4997548,14.2250749 Z" id="shoe"></path>
                                            </g>
                                        </g>
                                        <g id="Illustrations/Body/Pointing-Forward" transform="translate(12.320000, 45.920000)">
                                            <path d="M88.8373021,23.9121303 L108.27478,13.2663002 C111.507113,9.42789245 114.691862,6.44683102 117.829026,4.32311593 C118.787643,3.92290927 120.46402,3.68067561 118.896289,6.46324392 C117.328557,9.24581223 115.804682,12.2431632 116.603379,13.1004123 C117.402076,13.9576613 119.3937,12.7601222 120.346534,14.1844488 C120.981756,15.1339999 117.579225,16.6340233 110.13894,18.684519 L96.0152437,31.6162796 L88.8373021,23.9121303 Z M119.28,32.8943102 L127.818053,28.2039556 C129.016062,23.64539 130.448137,21.3518215 132.114277,21.3232501 C133.394218,20.7277061 131.165209,26.4878795 133.591573,25.9883583 C136.017938,25.4888371 141.94,21.0843857 142.960401,21.9786558 C144.470018,23.3016706 143.123951,27.3640931 141.537964,29.3849307 C138.573755,33.1618737 136.119518,34.4534743 130.053491,36.144833 C126.881859,37.0291626 123.452764,38.8017252 119.766205,41.4625208 L119.28,32.8943102 Z" id="Skin" fill="#B5C1D7"></path>
                                            <path d="M80.0004724,19.4601694 C86.7361586,20.4541771 95.9281617,20.4541771 106.457996,15.8962439 L108.88833,24.8708921 C101.251253,30.3752713 91.1191197,34.2868489 83.0411087,32.7738299 C76.6751908,31.5814876 74.6321658,23.3293452 80.0004724,19.4601694 Z" id="Sleeve" fill="#04AD82" transform="translate(92.903038, 24.498913) rotate(-9.000000) translate(-92.903038, -24.498913) "></path>
                                            <path d="M88.5383897,35.1462912 C95.7661922,36.9488587 107.88677,34.8231335 124.900123,28.7691157 C129.120137,37.4995706 131.070944,43.7237153 130.752543,47.44155 C116.157593,55.0653876 103.648461,58.4644672 93.342607,58.6888583 C93.6701131,64.8039672 92.9257941,70.6226343 90.4254024,75.9393411 C85.285021,86.8695885 55.1852324,76.7469606 45.064761,78.7393411 C38.7270243,58.1567393 50.98123,49.7920531 50.99109,36.6221048 C51.0018876,22.199608 62.5824696,-1.42108547e-13 64.2863203,-1.42108547e-13 L79.8244999,1.96561859e-15 C80.6818323,11.0146508 84.9970243,23.1537503 88.5383897,35.1462912 Z" id="Clothes" fill="#04CC99"></path>
                                        </g>
                                    </g>
                                </g>
                            </g>
                        </g>
                    </g>
                </g>
            </g>
        </g>
    </g>
</svg>