<?xml version="1.0" encoding="UTF-8"?>
<svg width="64px" height="93px" viewBox="0 0 64 93" version="1.1" xmlns="http://www.w3.org/2000/svg" xmlns:xlink="http://www.w3.org/1999/xlink">
    <!-- Generator: Sketch 52.4 (67378) - http://www.bohemiancoding.com/sketch -->
    <title>mission</title>
    <desc>Created with Sketch.</desc>
    <defs>
        <linearGradient x1="60.881%" y1="74.0327464%" x2="32.4700625%" y2="-13.3084847%" id="linearGradient-1">
            <stop stop-color="#15DABA" offset="0%"></stop>
            <stop stop-color="#13DEB4" offset="20.5%"></stop>
            <stop stop-color="#0DE8A2" offset="49.01%"></stop>
            <stop stop-color="#04F884" offset="82.08%"></stop>
            <stop stop-color="#00FF78" offset="100%"></stop>
        </linearGradient>
    </defs>
    <g id="Illustrations" stroke="none" stroke-width="1" fill="none" fill-rule="evenodd">
        <g transform="translate(-42.000000, -4824.000000)" id="Operations">
            <g transform="translate(42.000000, 48.000000)">
                <g id="mission" transform="translate(0.000000, 4772.000000)">
                    <g id="folder" transform="translate(0.000000, 47.000000)">
                        <path d="M40.9358817,12.7886853 L59.9313572,12.7886853 C62.044447,12.7886853 63.7574442,14.5313308 63.7574442,16.680993 C63.7574442,16.9164825 63.7364369,17.1514861 63.6946803,17.3831126 L58.5745287,45.7850466 L35.6871569,45.7850466 C31.8451761,45.7850466 28.7306352,42.6166002 28.7306352,38.7081235 C28.7306352,38.0556818 28.8193239,37.4063741 28.9941812,36.77865 L34.2429061,17.9361348 C35.091241,14.8906777 37.8243586,12.7886853 40.9358817,12.7886853 Z" id="Combined-Shape-Copy" fill="#A0B8D1"></path>
                        <path d="M25.4031286,5.80373833 L45.9402515,5.80373833 C49.3821607,5.80373833 50.9606233,8.09212167 51.6830689,12.2523364 L57.4467972,45.7850466 L18.0901837,45.7850466 C13.9803808,45.7850466 10.3873606,42.9658853 9.3433583,38.9220982 L0.293586398,3.86915886 C0.131443108,1.73228144 1.70280973,5.85924471e-14 3.80333197,6.92779167e-14 L13.9646521,7.11635878e-14 C14.9680222,7.11635878e-14 15.9312397,0.400966657 16.646791,1.11651656 L18.4321471,2.90186916 C20.2918923,4.76161067 22.7953313,5.80373833 25.4031286,5.80373833 Z" id="Combined-Shape" fill="#F8FAFC"></path>
                    </g>
                    <g id="pink" transform="translate(32.571687, 38.242137) rotate(-3.000000) translate(-32.571687, -38.242137) translate(16.571687, 24.742137)">
                        <path d="M9.50496544,3.15372302 C10.3073543,8.21226934 6.74474207,13.393089 2.3093914,17.0908332 C6.02309803,19.1113719 12.7674079,21.9227328 18.2214553,23.6247771 C18.480911,23.7057455 19.2962976,23.6028528 19.5495891,23.6468686 C21.080899,23.9129723 21.9491978,22.7887224 22.5336828,22.4495488 C24.9450111,19.8943409 27.3157113,18.0474388 28.528268,14.4690039 C29.1499689,12.6342721 29.5029431,11.0723685 29.5196525,10.4020337 C27.5765559,8.58142956 22.9221478,8.64494969 9.50496544,3.15372302 Z" id="Path-10" fill="#A0B8D1" transform="translate(15.914522, 13.420474) rotate(-14.000000) translate(-15.914522, -13.420474) "></path>
                        <path d="M22.0880416,19.1699317 C23.0878415,20.1607467 22.1617986,22.8049122 20.1970875,22.7586033 C22.2843881,22.7869685 23.4102856,22.0197831 24.2212192,21.2500645 C25.0321528,20.4803459 28.8392669,16.9073597 28.3725518,7.21573557 C28.4336421,15.4088636 26.4412564,19.408523 22.0880416,19.1699317 Z" id="Path-11" fill="#8598AC"></path>
                    </g>
                    <g id="yellow" transform="translate(49.942774, 16.123581) rotate(21.000000) translate(-49.942774, -16.123581) translate(35.442774, 4.623581)">
                        <path d="M24.2219872,1.87000858 C25.1302171,2.77347211 25.9044305,3.64954507 26.5446274,4.49822749 C27.8773474,6.26495907 28.2362686,8.46783411 28.1436029,8.52950894 C27.6380594,8.86597961 24.7866231,7.16412604 24.2219872,5.58766211 C23.8834878,4.64257139 23.8834878,3.40335353 24.2219872,1.87000858 Z" id="Path-12" fill="#CDDAE7"></path>
                        <path d="M0,17.3701624 C6.6437401,12.7826411 10.1266425,7.067086 10.4487071,0.223497061 C12.1932253,-0.0396875313 15.5630347,0.288697669 24.0179352,1.77557595 C24.8053078,1.91404324 24.8749284,3.17732114 24.2267971,5.56540967 C27.0773794,6.62266361 28.3835215,7.62975796 28.1452234,8.58669269 C26.0791827,16.8833019 23.3458876,20.6659513 19.2207183,22.4434851 C14.4887906,23.0510714 8.08188449,21.3599638 0,17.3701624 Z" id="Path-9" fill="#DDEBF9"></path>
                    </g>
                    <g id="mark" transform="translate(51.000000, 85.000000)">
                        <g id="Oval-2" fill="#04CC99">
                            <g id="path-2-link">
                                <circle id="path-2" cx="5.83177571" cy="5.83177571" r="5.83177571"></circle>
                            </g>
                        </g>
                        <path d="M4.95019545,7.64113847 C5.04736651,7.73830953 5.17435993,7.7867708 5.30160185,7.7867708 C5.42884378,7.7867708 5.55583716,7.73830953 5.65300825,7.64113847 L8.13820207,5.15594465 C8.33229571,4.96185102 8.33229571,4.64722545 8.13820207,4.45313182 C7.94410844,4.25903818 7.62948291,4.25903818 7.43538927,4.45313182 L5.30160185,6.58667073 L4.16189196,5.44720935 C3.96779833,5.25311571 3.6531728,5.25311571 3.45907915,5.44720935 C3.26498551,5.64130298 3.26498551,5.95592855 3.45907915,6.15002218 L4.95019545,7.64113847 Z" id="Shape" fill="#FFFFFF"></path>
                    </g>
                </g>
            </g>
        </g>
    </g>
</svg>