<?xml version="1.0" encoding="UTF-8"?>
<svg width="95px" height="104px" viewBox="0 0 95 104" version="1.1" xmlns="http://www.w3.org/2000/svg" xmlns:xlink="http://www.w3.org/1999/xlink">
    <!-- Generator: Sketch 52.4 (67378) - http://www.bohemiancoding.com/sketch -->
    <title>file</title>
    <desc>Created with Sketch.</desc>
    <defs>
        <path d="M65,24.1633161 L65,76 C65,77.6568542 63.6568542,79 62,79 L60.9064985,79 L55.9029757,79 L48.5495241,79 L47.7017977,79 L40.6666667,79 L32.5878275,79 L32.2365174,79 L24.7962769,79 L16.542122,79 L15.8700505,79 L7.21301105,79 L4.4964335,79 L3,79 C1.34314575,79 7.85251895e-15,77.6568542 -4.4408921e-16,76 L0,7.20082902 C0.00811380786,5.99766517 0.970843518,5.02078888 2.16895782,5 L45.9146986,5 L46.0674421,5.15336788 L65,24.1633161 Z" id="path-1"></path>
        <filter x="-38.5%" y="-27.0%" width="176.9%" height="167.6%" filterUnits="objectBoundingBox" id="filter-2">
            <feOffset dx="0" dy="5" in="SourceAlpha" result="shadowOffsetOuter1"></feOffset>
            <feGaussianBlur stdDeviation="7.5" in="shadowOffsetOuter1" result="shadowBlurOuter1"></feGaussianBlur>
            <feColorMatrix values="0 0 0 0 0   0 0 0 0 0   0 0 0 0 0  0 0 0 0.1 0" type="matrix" in="shadowBlurOuter1"></feColorMatrix>
        </filter>
    </defs>
    <g id="Illustrations" stroke="none" stroke-width="1" fill="none" fill-rule="evenodd">
        <g transform="translate(-27.000000, -5828.000000)" id="Operations">
            <g transform="translate(42.000000, 48.000000)">
                <g id="file" transform="translate(0.000000, 5785.000000)">
                    <rect id="Rectangle" fill="#04CC99" x="8" y="0" width="62" height="71" rx="6"></rect>
                    <g id="Path">
                        <use fill="black" fill-opacity="1" filter="url(#filter-2)" xlink:href="#path-1"></use>
                        <use fill="#FFFFFF" fill-rule="evenodd" xlink:href="#path-1"></use>
                    </g>
                    <path d="M65,23.7426295 L65,24 L56.868092,24 C50.8745401,23.9792368 46.0210228,19.1856634 46,13.2661355 L46,5 L65,23.7426295 Z" id="Path" fill="#F0F5F8"></path>
                    <polygon id="Path" fill="#FFFFFF" points="48.59 78.52 48.41 78.52 48.48 78.48 48.49 78.48"></polygon>
                    <polygon id="Path" fill="#FFFFFF" points="48.59 78.52 48.41 78.52 48.48 78.48 48.49 78.48"></polygon>
                    <path d="M37.2428067,20 L8.75719334,20 C8.339007,20 8,19.5522847 8,19 C8,18.4477153 8.339007,18 8.75719334,18 L37.2428067,18 C37.660993,18 38,18.4477153 38,19 C38,19.5522847 37.660993,20 37.2428067,20 Z" id="Path" fill="#BFD0DA"></path>
                    <path d="M56.2300289,34 L9.76997113,34 C9.34472782,34 9,33.5522847 9,33 C9,32.4477153 9.34472782,32 9.76997113,32 L56.2300289,32 C56.6552722,32 57,32.4477153 57,33 C57,33.5522847 56.6552722,34 56.2300289,34 Z" id="Path" fill="#BFD0DA"></path>
                    <path d="M56.2300289,42 L48.2685274,42 C47.8432841,42 47.4985563,41.5522847 47.4985563,41 C47.4985563,40.4477153 47.8432841,40 48.2685274,40 L56.2300289,40 C56.6552722,40 57,40.4477153 57,41 C57,41.5522847 56.6552722,42 56.2300289,42 Z M43.6487007,42 L40.5688162,42 C40.1435729,42 39.798845,41.5522847 39.798845,41 C39.798845,40.4477153 40.1435729,40 40.5688162,40 L43.6487007,40 C44.073944,40 44.4186718,40.4477153 44.4186718,41 C44.4186718,41.5522847 44.073944,42 43.6487007,42 Z M34.4090472,42 L17.4696824,42 C17.0444391,42 16.6997113,41.5522847 16.6997113,41 C16.6997113,40.4477153 17.0444391,40 17.4696824,40 L34.4090472,40 C34.8342905,40 35.1790183,40.4477153 35.1790183,41 C35.1790183,41.5522847 34.8342905,42 34.4090472,42 Z M12.8498556,42 L9.76997113,42 C9.34472782,42 9,41.5522847 9,41 C9,40.4477153 9.34472782,40 9.76997113,40 L12.8498556,40 C13.2750989,40 13.6198268,40.4477153 13.6198268,41 C13.6198268,41.5522847 13.2750989,42 12.8498556,42 Z" id="Shape" fill="#BFD0DA" fill-rule="nonzero"></path>
                    <path d="M56.2300289,51 L9.76997113,51 C9.34472782,51 9,50.5522847 9,50 C9,49.4477153 9.34472782,49 9.76997113,49 L56.2300289,49 C56.6552722,49 57,49.4477153 57,50 C57,50.5522847 56.6552722,51 56.2300289,51 Z" id="Path" fill="#BFD0DA"></path>
                    <path d="M56.2300289,59 L23.6294514,59 C23.2042081,59 22.8594803,58.5522847 22.8594803,58 C22.8594803,57.4477153 23.2042081,57 23.6294514,57 L56.2300289,57 C56.6552722,57 57,57.4477153 57,58 C57,58.5522847 56.6552722,59 56.2300289,59 Z M19.0096246,59 L9.76997113,59 C9.34472782,59 9,58.5522847 9,58 C9,57.4477153 9.34472782,57 9.76997113,57 L19.0096246,57 C19.4348679,57 19.7795958,57.4477153 19.7795958,58 C19.7795958,58.5522847 19.4348679,59 19.0096246,59 Z" id="Shape" fill="#BFD0DA" fill-rule="nonzero"></path>
                </g>
            </g>
        </g>
    </g>
</svg>