<?xml version="1.0" encoding="UTF-8"?>
<svg width="74px" height="71px" viewBox="0 0 74 71" version="1.1" xmlns="http://www.w3.org/2000/svg" xmlns:xlink="http://www.w3.org/1999/xlink">
    <!-- Generator: Sketch 52.4 (67378) - http://www.bohemiancoding.com/sketch -->
    <title>paperplane</title>
    <desc>Created with Sketch.</desc>
    <g id="Illustrations" stroke="none" stroke-width="1" fill="none" fill-rule="evenodd">
        <g transform="translate(-42.000000, -5526.000000)" id="Operations">
            <g transform="translate(42.000000, 48.000000)">
                <g id="paperplane" transform="translate(0.000000, 5478.000000)">
                    <path d="M27.4222857,27.8376238 C27.4222857,27.9079208 28.8318095,37.6440594 28.8318095,37.7143564 C29.2052805,40.2940682 29.4853837,42.228852 29.6721192,43.5187079 C29.7359657,43.9597211 29.8317355,44.6212409 29.9594286,45.5032673 L67.8121905,7.54287129 L67.8121905,1.59574257 L27.4222857,27.8376238 Z" id="Path" fill="#FBFCFD"></path>
                    <polygon id="Path" fill-opacity="0.316972373" fill="#A0B8D1" points="39.9952381 31.9078218 29.9805714 45.5032673 68.2420952 9.08940594 70.060381 3.15633663"></polygon>
                    <path d="M62.7660952,0.435841584 L67.8333333,1.59574257 L27.4222857,27.8376238 L8.22320002,19.1993865 C7.71954642,18.9727778 7.49495713,18.3807832 7.7215658,17.8771296 C7.83917348,17.6157383 8.063292,17.4173795 8.33703558,17.3324005 L62.7660952,0.435841584 Z" id="Path" fill-opacity="0.596042799" fill="#A0B8D1"></path>
                    <path d="M39.9952381,31.9078218 L59.6423879,44.1359033 C61.0490486,45.011387 62.8990922,44.5807831 63.7745759,43.1741225 C63.9345769,42.9170452 64.0547352,42.6372259 64.1309664,42.3441766 L73.1723317,7.58720543 C73.5014955,6.32182812 72.9732249,4.98899818 71.866553,4.29271815 L70.060381,3.15633663 L39.9952381,31.9078218 Z" id="Path" fill="#A0B8D1"></path>
                    <path d="M7.04761905,70.5641584 C5.15264686,70.562266 3.27033912,70.2560708 1.47295238,69.6573267 C1.20960485,69.6006498 1.0016917,69.3991805 0.937275448,69.1382521 C0.872859194,68.8773237 0.963211683,68.6025945 1.17006373,68.4304273 C1.37691577,68.2582601 1.66407146,68.2187815 1.90990476,68.3287129 C4.66567838,69.2501389 7.62098422,69.4056696 10.4586667,68.7786139 C12.3383399,68.3401266 14.1238531,67.5686886 15.7302857,66.5009901 C15.940528,66.3616035 16.2093513,66.3446827 16.4354925,66.4566017 C16.6616336,66.5685207 16.8107365,66.7922762 16.8266353,67.0435819 C16.8425342,67.2948875 16.7228137,67.5355639 16.5125714,67.6749505 C14.7634414,68.8341948 12.820625,69.6721959 10.7758095,70.1494059 C9.55234097,70.4251124 8.30192256,70.5642185 7.04761905,70.5641584 Z M19.3175238,65.0458416 C19.1428586,65.0453868 18.9745855,64.9802528 18.8453333,64.8630693 C18.5579686,64.6026349 18.5359092,64.1594251 18.796,63.8718812 C19.3922569,63.2152566 19.9321256,62.509803 20.4099048,61.7629703 C20.543352,61.5494952 20.7808401,61.4232484 21.0329097,61.4317858 C21.2849793,61.4403231 21.513335,61.5823476 21.6319573,61.80436 C21.7505797,62.0263724 21.7414472,62.2946438 21.608,62.5081188 C21.0887224,63.3389301 20.4967634,64.1222817 19.8390476,64.8490099 C19.7066464,64.9763074 19.5296061,65.0469435 19.3457143,65.0458416 L19.3175238,65.0458416 Z M8.31619048,58.1356436 C8.25785244,58.1452169 8.19833804,58.1452169 8.14,58.1356436 C7.51484484,57.9672147 6.9098954,57.7315071 6.33580952,57.4326733 C6.00324839,57.2641565 5.68085631,57.0763769 5.37028571,56.870297 C5.15539506,56.7341544 5.03081518,56.4929989 5.04438463,56.2394341 C5.05795409,55.9858692 5.20756346,55.7593124 5.4357629,55.6467612 C5.66396233,55.53421 5.93527757,55.5531609 6.14552381,55.6963366 C6.41164048,55.8702258 6.68689075,56.0297936 6.97009524,56.1743564 C7.45695458,56.4149238 7.96698467,56.6056989 8.49238095,56.7437624 C8.86688918,56.8403447 9.09335733,57.2199695 8.99980952,57.5943564 C8.92484338,57.910759 8.64213579,58.1346058 8.31619048,58.1356436 Z M13.8908571,57.9388119 C13.5016279,57.9912243 13.1434983,57.7189823 13.0909524,57.3307426 C13.0384064,56.9425028 13.3113422,56.5852837 13.7005714,56.5328713 C16.9001905,55.6611881 20.128,53.629604 22.7074286,51.5136634 C22.4889524,48.9829703 21.608,45.510297 18.7114286,43.2467327 C18.5029114,42.9888521 18.5032113,42.620755 18.7121483,42.3632128 C18.9210853,42.1056706 19.2819404,42.0285969 19.5782857,42.1782178 C22.5100952,44.4628713 23.6165714,47.8019802 24.0041905,50.4381188 C24.7089524,49.8124752 25.3291429,49.1868317 25.8718095,48.6033663 L26.1325714,48.3151485 C26.393355,48.0259099 26.8398337,48.0023051 27.1298095,48.2624257 C27.4197853,48.5225464 27.4434503,48.9678901 27.1826667,49.2571287 L26.9007619,49.5664356 C26.0378633,50.4828781 25.1249872,51.3511914 24.1662857,52.1674257 C24.1662857,52.4837624 24.1662857,52.7860396 24.1662857,53.0672277 C24.1673783,54.4012986 24.0327844,55.7320388 23.7645714,57.0390099 C23.714214,57.290157 23.5333549,57.4954294 23.2901221,57.577503 C23.0468893,57.6595766 22.7782356,57.6059824 22.5853602,57.4369089 C22.3924849,57.2678354 22.3046902,57.0089689 22.3550476,56.7578218 C22.589156,55.6169896 22.7142243,54.4565758 22.7285714,53.2921782 C20.1670993,55.3604566 17.2383845,56.9295957 14.0952381,57.9177228 L13.8908571,57.9388119 Z M2.7767619,54.0373267 C2.54233971,54.037679 2.32308583,53.9217435 2.19180952,53.7280198 C1.00916839,52.0838498 0.34204719,50.1267167 0.274857143,48.1042574 C0.27012647,47.415519 0.37235368,46.7302037 0.577904762,46.0726733 C1.33904762,43.6544554 3.61542857,41.629901 6.82209524,40.5262376 C7.06279085,40.4336715 7.33495632,40.4796723 7.53164301,40.646164 C7.7283297,40.8126557 7.818105,41.073031 7.76569129,41.3249744 C7.71327758,41.5769177 7.52705114,41.7801658 7.28019048,41.8548515 C4.50342857,42.8108911 2.5512381,44.5050495 1.924,46.4944554 C1.76118912,47.0154769 1.68035587,47.5585285 1.68438095,48.1042574 C1.74646557,49.8505528 2.32787806,51.5389696 3.35466667,52.9547525 C3.57455028,53.2750568 3.49251624,53.7125085 3.17142857,53.9318812 C3.05319766,54.0051302 2.91586997,54.0418209 2.7767619,54.0373267 Z M29.2194286,46.1289109 C29.084388,46.1285618 28.9522911,46.0895215 28.8388571,46.0164356 C28.5123883,45.8064515 28.4178242,45.3725622 28.6274286,45.0463366 C29.1137143,44.2871287 29.6,43.4857426 29.987619,42.670297 C30.1609574,42.3229729 30.5836261,42.1813927 30.932,42.3539604 C31.2775539,42.5294047 31.4161181,42.9503228 31.2420952,43.2959406 C30.8180148,44.1572406 30.3474846,44.9950019 29.8325714,45.8055446 C29.6991868,46.0131284 29.4665202,46.1358348 29.2194286,46.1289109 Z M15.3779048,41.559604 L15.1946667,41.559604 C14.3364905,41.3224793 13.4551033,41.1787047 12.5659048,41.1307921 C12.3141176,41.116979 12.0888446,40.9702298 11.974944,40.7458235 C11.8610434,40.5214172 11.8758193,40.2534464 12.0137059,40.0428532 C12.1515925,39.83226 12.3916414,39.7110384 12.6434286,39.7248515 C13.6324244,39.7817456 14.6127088,39.9419622 15.5681905,40.2028713 C15.9574197,40.2552837 16.2303555,40.6125028 16.1778095,41.0007426 C16.1252636,41.3889823 15.767134,41.6612243 15.3779048,41.6088119 L15.3779048,41.559604 Z" id="Shape" fill="#BFD0DA" fill-rule="nonzero"></path>
                </g>
            </g>
        </g>
    </g>
</svg>