<?xml version="1.0" encoding="UTF-8"?>
<svg width="99px" height="105px" viewBox="0 0 99 105" version="1.1" xmlns="http://www.w3.org/2000/svg" xmlns:xlink="http://www.w3.org/1999/xlink">
    <!-- Generator: Sketch 52.4 (67378) - http://www.bohemiancoding.com/sketch -->
    <title>Group 5</title>
    <desc>Created with Sketch.</desc>
    <defs>
        <path d="M4.26672915,35.1854509 L39.6642708,2.69748689 C43.2427177,-0.586821801 48.7526846,-0.526091254 52.2580641,2.83629498 L86.0101063,35.2115062 C88.6006359,37.6963614 90.0654969,41.1326691 90.0654969,44.7247432 L90.0654969,90.8555481 C90.0654969,96.3123617 85.6476802,100.735983 80.198027,100.735983 L9.86746988,100.735983 C4.41781674,100.735983 1.00982026e-15,96.3123617 3.42430234e-16,90.8555481 L-3.55271368e-15,44.8969851 C-5.64219614e-15,41.2040835 1.54797112,37.6807347 4.26672915,35.1854509 Z" id="path-1"></path>
        <path d="M4.26672915,35.1854509 L39.6642708,2.69748689 C43.2427177,-0.586821801 48.7526846,-0.526091254 52.2580641,2.83629498 L86.0101063,35.2115062 C88.6006359,37.6963614 90.0654969,41.1326691 90.0654969,44.7247432 L90.0654969,90.8555481 C90.0654969,96.3123617 85.6476802,100.735983 80.198027,100.735983 L9.86746988,100.735983 C4.41781674,100.735983 1.00982026e-15,96.3123617 3.42430234e-16,90.8555481 L-3.55271368e-15,44.8969851 C-5.64219614e-15,41.2040835 1.54797112,37.6807347 4.26672915,35.1854509 Z" id="path-3"></path>
        <filter x="-42.9%" y="-121.9%" width="185.7%" height="343.8%" filterUnits="objectBoundingBox" id="filter-5">
            <feOffset dx="0" dy="5" in="SourceAlpha" result="shadowOffsetOuter1"></feOffset>
            <feGaussianBlur stdDeviation="7.5" in="shadowOffsetOuter1" result="shadowBlurOuter1"></feGaussianBlur>
            <feColorMatrix values="0 0 0 0 0   0 0 0 0 0   0 0 0 0 0  0 0 0 0.1 0" type="matrix" in="shadowBlurOuter1" result="shadowMatrixOuter1"></feColorMatrix>
            <feMerge>
                <feMergeNode in="shadowMatrixOuter1"></feMergeNode>
                <feMergeNode in="SourceGraphic"></feMergeNode>
            </feMerge>
        </filter>
        <path d="M4.26672915,35.1854509 L39.6642708,2.69748689 C43.2427177,-0.586821801 48.7526846,-0.526091254 52.2580641,2.83629498 L86.0101063,35.2115062 C88.6006359,37.6963614 90.0654969,41.1326691 90.0654969,44.7247432 L90.0654969,90.8555481 C90.0654969,96.3123617 85.6476802,100.735983 80.198027,100.735983 L9.86746988,100.735983 C4.41781674,100.735983 1.00982026e-15,96.3123617 3.42430234e-16,90.8555481 L-3.55271368e-15,44.8969851 C-5.64219614e-15,41.2040835 1.54797112,37.6807347 4.26672915,35.1854509 Z" id="path-6"></path>
        <path d="M4.26672915,35.1854509 L39.6642708,2.69748689 C43.2427177,-0.586821801 48.7526846,-0.526091254 52.2580641,2.83629498 L86.0101063,35.2115062 C88.6006359,37.6963614 90.0654969,41.1326691 90.0654969,44.7247432 L90.0654969,90.8555481 C90.0654969,96.3123617 85.6476802,100.735983 80.198027,100.735983 L9.86746988,100.735983 C4.41781674,100.735983 1.00982026e-15,96.3123617 3.42430234e-16,90.8555481 L-3.55271368e-15,44.8969851 C-5.64219614e-15,41.2040835 1.54797112,37.6807347 4.26672915,35.1854509 Z" id="path-8"></path>
        <filter x="-42.9%" y="-121.9%" width="185.7%" height="343.8%" filterUnits="objectBoundingBox" id="filter-10">
            <feOffset dx="0" dy="5" in="SourceAlpha" result="shadowOffsetOuter1"></feOffset>
            <feGaussianBlur stdDeviation="7.5" in="shadowOffsetOuter1" result="shadowBlurOuter1"></feGaussianBlur>
            <feColorMatrix values="0 0 0 0 0   0 0 0 0 0   0 0 0 0 0  0 0 0 0.1 0" type="matrix" in="shadowBlurOuter1" result="shadowMatrixOuter1"></feColorMatrix>
            <feMerge>
                <feMergeNode in="shadowMatrixOuter1"></feMergeNode>
                <feMergeNode in="SourceGraphic"></feMergeNode>
            </feMerge>
        </filter>
        <linearGradient x1="60.881%" y1="74.0327464%" x2="32.4700625%" y2="-13.3084847%" id="linearGradient-11">
            <stop stop-color="#15DABA" offset="0%"></stop>
            <stop stop-color="#13DEB4" offset="20.5%"></stop>
            <stop stop-color="#0DE8A2" offset="49.01%"></stop>
            <stop stop-color="#04F884" offset="82.08%"></stop>
            <stop stop-color="#00FF78" offset="100%"></stop>
        </linearGradient>
    </defs>
    <g id="Illustrations" stroke="none" stroke-width="1" fill="none" fill-rule="evenodd">
        <g transform="translate(-42.000000, -6324.000000)" id="Operations">
            <g transform="translate(42.000000, 48.000000)">
                <g id="Group-5" transform="translate(0.000000, 6276.000000)">
                    <g id="requestraised">
                        <g id="envelope">
                            <g id="Mask" fill="#E3ECF3">
                                <g id="path-1-link">
                                    <path d="M4.26672915,35.1854509 L39.6642708,2.69748689 C43.2427177,-0.586821801 48.7526846,-0.526091254 52.2580641,2.83629498 L86.0101063,35.2115062 C88.6006359,37.6963614 90.0654969,41.1326691 90.0654969,44.7247432 L90.0654969,90.8555481 C90.0654969,96.3123617 85.6476802,100.735983 80.198027,100.735983 L9.86746988,100.735983 C4.41781674,100.735983 1.00982026e-15,96.3123617 3.42430234e-16,90.8555481 L-3.55271368e-15,44.8969851 C-5.64219614e-15,41.2040835 1.54797112,37.6807347 4.26672915,35.1854509 Z" id="path-1"></path>
                                </g>
                            </g>
                            <g id="Rectangle-Clipped">
                                <mask id="mask-2" fill="white">
                                    <use xlink:href="#path-1"></use>
                                </mask>
                                <g id="path-1"></g>
                                <g id="Rectangle" mask="url(#mask-2)">
                                    <g transform="translate(0.000000, 38.423913)" id="path-4-link">
                                        <g>
                                            <path d="M0,0.677553999 L41.1883915,30.3794039 C43.484555,32.0352177 46.5809419,32.0352177 48.8771054,30.3794039 L90.0654969,0.677553999 L90.0654969,55.7251134 C90.0654969,59.362989 87.1202857,62.3120699 83.4871836,62.3120699 L6.57831325,62.3120699 C2.94521116,62.3120699 4.44926685e-16,59.362989 0,55.7251134 L0,0.677553999 Z" id="path-4" fill="#FDFEFF"></path>
                                        </g>
                                    </g>
                                </g>
                            </g>
                            <g id="Rectangle-Copy-Clipped">
                                <mask id="mask-4" fill="white">
                                    <use xlink:href="#path-3"></use>
                                </mask>
                                <g id="path-1"></g>
                                <g id="Rectangle-Copy" filter="url(#filter-5)" mask="url(#mask-4)">
                                    <g transform="translate(0.000000, 69.163043)" id="path-6-link">
                                        <g>
                                            <path d="M48.8771054,1.87108955 L90.0654969,31.5729394 L1.0658141e-14,31.5729394 L41.1883915,1.87108955 C43.484555,0.215275901 46.5809419,0.215275901 48.8771054,1.87108955 Z" id="path-6" fill="#FFFFFF"></path>
                                        </g>
                                    </g>
                                </g>
                            </g>
                        </g>
                    </g>
                    <g id="requestraised">
                        <g id="envelope">
                            <g id="Mask" fill="#E3ECF3">
                                <g id="path-1-link">
                                    <path d="M4.26672915,35.1854509 L39.6642708,2.69748689 C43.2427177,-0.586821801 48.7526846,-0.526091254 52.2580641,2.83629498 L86.0101063,35.2115062 C88.6006359,37.6963614 90.0654969,41.1326691 90.0654969,44.7247432 L90.0654969,90.8555481 C90.0654969,96.3123617 85.6476802,100.735983 80.198027,100.735983 L9.86746988,100.735983 C4.41781674,100.735983 1.00982026e-15,96.3123617 3.42430234e-16,90.8555481 L-3.55271368e-15,44.8969851 C-5.64219614e-15,41.2040835 1.54797112,37.6807347 4.26672915,35.1854509 Z" id="path-1"></path>
                                </g>
                            </g>
                            <g id="Rectangle-Clipped">
                                <mask id="mask-7" fill="white">
                                    <use xlink:href="#path-6"></use>
                                </mask>
                                <g id="path-1"></g>
                                <g id="Rectangle" mask="url(#mask-7)">
                                    <g transform="translate(0.000000, 38.423913)" id="path-4-link">
                                        <g>
                                            <path d="M0,0.677553999 L41.1883915,30.3794039 C43.484555,32.0352177 46.5809419,32.0352177 48.8771054,30.3794039 L90.0654969,0.677553999 L90.0654969,55.7251134 C90.0654969,59.362989 87.1202857,62.3120699 83.4871836,62.3120699 L6.57831325,62.3120699 C2.94521116,62.3120699 4.44926685e-16,59.362989 0,55.7251134 L0,0.677553999 Z" id="path-4" fill="#FDFEFF"></path>
                                        </g>
                                    </g>
                                </g>
                            </g>
                            <g id="Rectangle-Copy-Clipped">
                                <mask id="mask-9" fill="white">
                                    <use xlink:href="#path-8"></use>
                                </mask>
                                <g id="path-1"></g>
                                <g id="Rectangle-Copy" filter="url(#filter-10)" mask="url(#mask-9)">
                                    <g transform="translate(0.000000, 69.163043)" id="path-6-link">
                                        <g>
                                            <path d="M48.8771054,1.87108955 L90.0654969,31.5729394 L1.0658141e-14,31.5729394 L41.1883915,1.87108955 C43.484555,0.215275901 46.5809419,0.215275901 48.8771054,1.87108955 Z" id="path-6" fill="#FFFFFF"></path>
                                        </g>
                                    </g>
                                </g>
                            </g>
                        </g>
                    </g>
                    <g id="check" transform="translate(77.000000, 83.000000)">
                        <g id="success">
                            <path d="M11,0 C4.93476922,0 0,4.93434616 0,11 C0,17.0656538 4.93476922,22 11,22 C17.0652308,22 22,17.0656538 22,11 C22,4.93434616 17.0652308,0 11,0 Z" id="Shape" fill="#04CC99"></path>
                            <path d="M17.1325,7.3315 L10.3632692,14.9468846 C10.1965769,15.1343077 9.96430767,15.2307692 9.73034616,15.2307692 C9.54461539,15.2307692 9.35803845,15.1698462 9.20192306,15.0454616 L4.97115384,11.6608462 C4.60646155,11.3693462 4.54723078,10.8366923 4.83915384,10.4715769 C5.13065384,10.1064616 5.66373078,10.0472308 6.02842306,10.3391538 L9.63176922,13.2215769 L15.8675,6.20653845 C16.1771923,5.85707694 16.7128077,5.82576922 17.0618462,6.13630767 C17.4113077,6.44726922 17.4430384,6.98203845 17.1325,7.3315 Z" id="Shape-path" fill="#FFFFFF"></path>
                        </g>
                    </g>
                </g>
            </g>
        </g>
    </g>
</svg>