<?xml version="1.0" encoding="UTF-8"?>
<svg width="189px" height="156px" viewBox="0 0 189 156" version="1.1" xmlns="http://www.w3.org/2000/svg" xmlns:xlink="http://www.w3.org/1999/xlink">
    <!-- Generator: Sketch 52.4 (67378) - http://www.bohemiancoding.com/sketch -->
    <title>Group 3</title>
    <desc>Created with Sketch.</desc>
    <defs>
        <ellipse id="path-1" cx="13.4608623" cy="13.4087007" rx="13.4608623" ry="13.4087007"></ellipse>
        <filter x="-55.7%" y="-44.7%" width="211.4%" height="211.9%" filterUnits="objectBoundingBox" id="filter-2">
            <feOffset dx="0" dy="3" in="SourceAlpha" result="shadowOffsetOuter1"></feOffset>
            <feGaussianBlur stdDeviation="4.5" in="shadowOffsetOuter1" result="shadowBlurOuter1"></feGaussianBlur>
            <feColorMatrix values="0 0 0 0 0   0 0 0 0 0   0 0 0 0 0  0 0 0 0.1 0" type="matrix" in="shadowBlurOuter1"></feColorMatrix>
        </filter>
        <circle id="path-3" cx="66" cy="66" r="66"></circle>
        <linearGradient x1="64.7638847%" y1="27.3595669%" x2="50%" y2="50%" id="linearGradient-5">
            <stop stop-color="#6886B3" offset="0%"></stop>
            <stop stop-color="#90AADB" offset="100%"></stop>
        </linearGradient>
        <path d="M16.2018298,3.92802875 C16.2018298,6.4510667 15.1449806,15.4554053 16.2018298,18.1552888 C16.5603849,19.0711688 15.8677322,20.8854569 16.2018298,21.6098048 C17.4371815,24.2881651 10.3301153,30.4708235 10.3301153,30.4708235 L8.1634827,50.3054367 L0.655362526,50.3054367 C0.655362526,50.3054367 2.34439624,32.2287459 1.53179861,30.4708235 C0.719219009,28.7129011 0.655362526,25.5255273 0.655362526,22.5278118 C0.655362526,19.5300457 0.655362526,13.4631574 2.44336207,10.7437762 C4.23136161,8.02439508 16.2018298,0.469714512 16.2018298,3.92802875 Z" id="path-6"></path>
        <linearGradient x1="50%" y1="0%" x2="50%" y2="100%" id="linearGradient-8">
            <stop stop-color="#A9C4E5" offset="0%"></stop>
            <stop stop-color="#7192C7" offset="100%"></stop>
        </linearGradient>
        <linearGradient x1="28.9899876%" y1="27.9637841%" x2="28.9899876%" y2="97.4056683%" id="linearGradient-9">
            <stop stop-color="#C4CFE2" offset="0%"></stop>
            <stop stop-color="#99AFD7" offset="100%"></stop>
        </linearGradient>
        <linearGradient x1="66.4059369%" y1="96.8038727%" x2="60.7470739%" y2="22.5656568%" id="linearGradient-10">
            <stop stop-color="#F4F8FF" offset="0%"></stop>
            <stop stop-color="#C3D8F5" offset="100%"></stop>
        </linearGradient>
        <linearGradient x1="43.6361052%" y1="85.265527%" x2="6.77392332%" y2="100%" id="linearGradient-11">
            <stop stop-color="#FFFFFF" stop-opacity="0.5" offset="0%"></stop>
            <stop stop-color="#AFC3E5" offset="100%"></stop>
        </linearGradient>
        <linearGradient x1="17.2373684%" y1="41.5235058%" x2="-5.57070234%" y2="14.0163926%" id="linearGradient-12">
            <stop stop-color="#FFFFFF" stop-opacity="0" offset="0%"></stop>
            <stop stop-color="#A1B8E3" offset="100%"></stop>
        </linearGradient>
        <path d="M24.1423678,2.64891743 C24.1423678,2.64891743 17.9357878,7.65694882 16.3961522,8.07792855 C14.8565165,8.49890829 4.84858709,12.7199801 4.25859494,14.0138016 C3.66860278,15.3075251 0.566469114,20.1960469 0.669944051,21.5158487 C0.773418987,22.8357486 4.81145241,51.9094287 4.25859494,65.6321524 C3.70573747,79.354876 4.25859494,77.4888005 4.25859494,80.725168 C4.25859494,83.9616335 1.91567392,88.3890776 3.08713443,90.8240738 C4.25859494,93.25907 6.27173089,93.8320103 9.3383157,94.5278915 C12.4049005,95.2237728 14.6169911,96.0368107 18.9797218,94.5278915 C23.3425185,93.0189723 25.7842891,96.4542611 32.9970737,95.4911253 C40.2098582,94.5278915 46.4026944,97.5665142 51.8317587,90.1902512 C53.8281775,91.4962296 54.8623982,90.6344662 58.0491752,88.8159397 C61.2358861,86.997315 60.9918015,80.5228154 60.0364754,78.2768385 C59.0811494,76.0308616 54.79956,73.6735123 56.4243676,68.6737162 C58.0491752,63.6738221 60.0364754,46.9988481 60.0364754,39.4729775 C60.0364754,31.9470089 64.3918056,18.3739909 65.7421997,14.0138016 C61.8785408,11.0597866 45.1186405,1.65793859 41.9267096,0.678430313 C40.6787332,4.06567992 34.6107805,5.76812824 33.6113818,4.86518848 C32.6120491,3.96234675 33.2047504,11.2366491 33.2047504,11.2366491 C33.2047504,11.2366491 32.0040182,14.0138016 30.8794716,16.9288951 C29.7549251,19.8440866 27.1604529,24.4109423 27.1604529,27.5543687 C24.790639,25.1293725 27.6728719,18.1376187 27.1604529,15.4284073 C26.5709894,12.3121376 27.7498504,9.36812262 29.0483089,5.27763881 C27.1604529,4.8268552 26.994338,5.59548145 26.4091694,4.78009057 C24.8798415,2.64891743 24.1423678,2.64891743 24.1423678,2.64891743 Z" id="path-13"></path>
        <linearGradient x1="-30.2321633%" y1="83.8070478%" x2="83.6802978%" y2="73.1776026%" id="linearGradient-15">
            <stop stop-color="#EAF0F7" stop-opacity="0.115545743" offset="0%"></stop>
            <stop stop-color="#D1DDED" offset="100%"></stop>
        </linearGradient>
        <linearGradient x1="0%" y1="56.064794%" x2="57.5693573%" y2="20.6038007%" id="linearGradient-16">
            <stop stop-color="#E2E9F4" offset="0%"></stop>
            <stop stop-color="#E5EFFD" offset="100%"></stop>
        </linearGradient>
        <linearGradient x1="31.6087503%" y1="42.9700243%" x2="-16.9574129%" y2="61.3689591%" id="linearGradient-17">
            <stop stop-color="#FFFFFF" stop-opacity="0" offset="0%"></stop>
            <stop stop-color="#FFFFFF" offset="100%"></stop>
        </linearGradient>
        <path d="M65.6086382,103.725703 C60.8472428,87.0605602 58.8549075,75.1749872 59.0281653,71.0571483 C59.201423,66.9393094 63.8271844,58.9294739 69.0607938,59.4270277 C74.2944319,59.9245814 75.4032128,70.0215914 76.4882569,75.4449802 C77.5733011,80.8683689 85.5864504,108.732767 85.9922074,112.656819 C86.397993,116.580805 82.8461663,122.859248 78.3089665,123.402803 C73.7717667,123.946292 70.3700337,120.390779 65.6086382,103.725703 Z" id="path-18"></path>
        <filter x="-48.4%" y="-20.4%" width="195.6%" height="140.8%" filterUnits="objectBoundingBox" id="filter-19">
            <feGaussianBlur stdDeviation="7" in="SourceAlpha" result="shadowBlurInner1"></feGaussianBlur>
            <feOffset dx="-15" dy="6" in="shadowBlurInner1" result="shadowOffsetInner1"></feOffset>
            <feComposite in="shadowOffsetInner1" in2="SourceAlpha" operator="arithmetic" k2="-1" k3="1" result="shadowInnerInner1"></feComposite>
            <feColorMatrix values="0 0 0 0 0.631372549   0 0 0 0 0.721568627   0 0 0 0 0.890196078  0 0 0 0.137483016 0" type="matrix" in="shadowInnerInner1"></feColorMatrix>
        </filter>
        <linearGradient x1="50%" y1="0%" x2="50%" y2="100%" id="linearGradient-20">
            <stop stop-color="#B5CCEF" offset="0%"></stop>
            <stop stop-color="#E5EFFD" offset="100%"></stop>
        </linearGradient>
        <linearGradient x1="31.1750322%" y1="58.933311%" x2="49.752516%" y2="28.4521956%" id="linearGradient-21">
            <stop stop-color="#081E41" offset="0%"></stop>
            <stop stop-color="#3A4860" offset="100%"></stop>
        </linearGradient>
        <circle id="path-22" cx="14.0533592" cy="13.0274072" r="12.9226292"></circle>
        <filter x="-149.0%" y="-118.0%" width="397.9%" height="397.9%" filterUnits="objectBoundingBox" id="filter-24">
            <feOffset dx="0" dy="8" in="SourceAlpha" result="shadowOffsetOuter1"></feOffset>
            <feGaussianBlur stdDeviation="11.5" in="shadowOffsetOuter1" result="shadowBlurOuter1"></feGaussianBlur>
            <feColorMatrix values="0 0 0 0 0   0 0 0 0 0   0 0 0 0 0  0 0 0 0.0416666667 0" type="matrix" in="shadowBlurOuter1"></feColorMatrix>
        </filter>
        <linearGradient x1="19.6591829%" y1="10.4097304%" x2="35.6256825%" y2="60.9829464%" id="linearGradient-25">
            <stop stop-color="#000000" stop-opacity="0.288269928" offset="0%"></stop>
            <stop stop-color="#000000" stop-opacity="0" offset="100%"></stop>
        </linearGradient>
        <path d="M30.5057145,56.1669342 C30.887818,61.0060626 31.2143131,63.7847645 31.4851996,64.5030398 C31.7560862,65.2213151 33.5337469,67.9736071 36.8181818,72.7599158 C36.6486416,73.3262078 36.3879853,73.8160133 36.0362129,74.2293323 C35.5400837,74.8122649 35.0245161,75.1489057 34.6272079,75.4093098 C33.9837014,74.8679532 31.5639999,72.326148 27.3681032,67.7838943 C27.0136626,65.2995106 27.0136626,63.377043 27.3681032,62.0164914 C27.7225439,60.6559397 28.7684143,58.7060873 30.5057145,56.1669342 Z" id="path-26"></path>
        <path d="M0,2.05294871 C0,2.49137423 0.663250306,4.39178778 0.868557182,6.71295145 C1.01312381,8.34739649 0.69286276,10.1904603 0.78882457,11.87861 C0.94365281,14.6023316 1.37710277,21.8262697 2.08917446,33.5504242 C2.57472945,33.9079633 3.0912107,34.1278154 3.63861821,34.2099806 C4.18602572,34.2921459 4.90807845,34.2146871 5.8047764,33.9776044 C6.83570561,25.9622977 7.60029445,20.9752896 8.09854292,19.0165801 C8.45834282,17.6021383 8.15002987,14.5169434 9.47136722,12.170211 C9.73859896,11.6955999 9.98362642,11.1798933 10.2064496,10.6230914 L10.2064469,10.6230903 C11.1562081,8.24977884 11.1986141,5.60980386 10.3255685,3.20721256 L9.16014234,0 C3.05338078,0.870537532 0,1.55485377 0,2.05294871 Z" id="path-27"></path>
        <linearGradient x1="89.2651436%" y1="83.2202103%" x2="79.8543348%" y2="25.681003%" id="linearGradient-29">
            <stop stop-color="#CFDDF3" stop-opacity="0.477723053" offset="0%"></stop>
            <stop stop-color="#A1B8E3" offset="100%"></stop>
        </linearGradient>
        <linearGradient x1="112.999777%" y1="45.115866%" x2="50%" y2="88.6153495%" id="linearGradient-30">
            <stop stop-color="#F3D8CF" stop-opacity="0.174422554" offset="0%"></stop>
            <stop stop-color="#000000" offset="100%"></stop>
        </linearGradient>
        <linearGradient x1="76.5024701%" y1="87.9944211%" x2="20.6120218%" y2="12.0677904%" id="linearGradient-31">
            <stop stop-color="#99AFD7" offset="0%"></stop>
            <stop stop-color="#C3CEE1" offset="100%"></stop>
        </linearGradient>
        <path d="M0.00480840703,2.7610575 C0.105547723,3.05013626 1.00362317,3.823502 1.22254558,4.69000163 C1.35274272,5.20532468 1.25465466,5.7219226 1.25465466,6.11985379 C1.25465466,7.18689386 1.63960085,7.14623442 2.45806812,6.98475394 C3.22445551,7.40097415 3.35771549,8.33349316 4.21370599,8.81856099 C5.0696965,9.30362882 6.54834113,7.54897676 7.03615318,8.04893359 C7.19546557,8.21221229 7.28692413,8.52440187 7.60614168,8.81856099 C7.82774736,9.02277072 7.87817825,9.56650094 7.75743436,10.4497517 C9.69054324,10.1898439 10.767128,9.58642738 10.9871887,8.63950214 C10.6307295,7.98058009 9.80545365,5.93319736 9.80545365,5.37458013 C9.80545365,4.8159629 11.1689413,2.68504525 7.45309775,0.617377856 C3.73725418,-1.45028954 -0.155842407,2.30005834 0.00480840703,2.7610575 Z" id="path-32"></path>
        <linearGradient x1="50%" y1="100%" x2="50%" y2="3.061617e-15%" id="linearGradient-34">
            <stop stop-color="#EDF3FD" offset="0%"></stop>
            <stop stop-color="#FFFFFF" offset="100%"></stop>
        </linearGradient>
        <path d="M9.82652534,7.22901348 C7.71553219,9.98714197 6.60740593,11.3662062 6.50214657,11.3662062 C6.34425752,11.3662062 2.70779099,5.9888443 2.70779099,5.74331915 C2.70779099,5.49779399 2.96715966,4.53499916 2.24753977,3.50794819 C1.52791988,2.48089722 1.08856545,0.681945408 0.709903176,0.361659487 C0.331240905,0.0413735657 0.32852648,-0.0982458191 0.138177436,0.0751005735 C-0.0521716089,0.248446966 -0.0398435959,0.396912224 0.138177436,0.775175883 C0.316198467,1.15343954 0.709903176,2.2405808 0.709903176,2.52037619 C0.709903176,2.80017159 0.527810507,3.79694269 0.709903176,4.17649735 C0.891995845,4.55605201 0.717976447,6.03284121 0.944065419,6.7852608 C1.17015439,7.53768038 5.26943037,15.171067 6.47225989,15.0071097 C7.27414624,14.8978049 9.091416,13.3339317 11.9240692,10.3154902 C12.362769,8.9851819 12.2221184,8.07125552 11.5021172,7.57371108 C10.782116,7.07616664 10.2235854,6.96126744 9.82652534,7.22901348 Z" id="path-35"></path>
        <linearGradient x1="3.21749237%" y1="50%" x2="81.4761324%" y2="50%" id="linearGradient-37">
            <stop stop-color="#D9E1F1" offset="0%"></stop>
            <stop stop-color="#BBC7DF" offset="100%"></stop>
        </linearGradient>
        <linearGradient x1="0%" y1="36.5977503%" x2="72.482512%" y2="73.5971602%" id="linearGradient-38">
            <stop stop-color="#D9E1F1" offset="0%"></stop>
            <stop stop-color="#FCFCFE" offset="100%"></stop>
        </linearGradient>
        <linearGradient x1="-8.95546568%" y1="107.033068%" x2="114.296249%" y2="59.2322695%" id="linearGradient-39">
            <stop stop-color="#F3DFD1" stop-opacity="0.126387002" offset="0%"></stop>
            <stop stop-color="#A5B2CA" offset="100%"></stop>
        </linearGradient>
        <radialGradient cx="50%" cy="1.74148935%" fx="50%" fy="1.74148935%" r="37.9875646%" gradientTransform="translate(0.500000,0.017415),scale(0.924559,1.000000),rotate(90.000000),scale(1.000000,2.667525),translate(-0.500000,-0.017415)" id="radialGradient-40">
            <stop stop-color="#303E57" offset="0%"></stop>
            <stop stop-color="#081E41" offset="100%"></stop>
        </radialGradient>
        <path d="M1.0025532,0.112957339 C1.0025532,0.412013728 1.64926894,1.31066093 2.80763371,1.31066093 C3.96599848,1.31066093 7.43295047,0.383561493 8.582215,3.28162483 C9.73147953,6.17968816 8.14504425,6.31603718 10.0171792,8.40930874 C11.8893141,10.5025803 11.9607989,16.1697481 7.38421629,14.8145103 C2.80763371,13.4592725 3.52894748,7.29905573 3.52894748,5.65547729 C3.52894748,4.01189885 1.80894376,3.4244188 0.265495152,3.05380073 C-0.575631015,1.31066093 1.0025532,-0.18609905 1.0025532,0.112957339 Z" id="path-41"></path>
        <path d="M2.41485729,11.6431556 C2.09357229,10.3620592 0.233880021,3.51115702 0.6587005,1.79286102 C1.08352098,0.0745650116 4.35324581,-0.759813395 4.69519147,1.27237503 C4.91018341,2.55007545 5.37039855,6.00584917 6.0758369,11.6396962 L6.07583883,11.639696 C6.16096013,12.3195008 6.0406722,13.0092241 5.73045892,13.6200824 L2.96700029,19.0617635 L1.77175447,21.2543854 C1.02971849,21.1390489 0.48580202,20.6390878 0.140005059,19.7545021 C-0.0291530867,19.3217774 0.0755917347,18.8199559 0.317412648,18.301641 C1.35724521,16.0728814 2.6755226,12.6825363 2.41485729,11.6431556 Z" id="path-43"></path>
        <linearGradient x1="46.8853726%" y1="24.146356%" x2="-17.2552992%" y2="100%" id="linearGradient-45">
            <stop stop-color="#D9E1F1" offset="0%"></stop>
            <stop stop-color="#B4C1DB" offset="100%"></stop>
        </linearGradient>
        <linearGradient x1="139.364173%" y1="31.9049427%" x2="3.0552666%" y2="98.507159%" id="linearGradient-46">
            <stop stop-color="#C2CCDF" offset="0%"></stop>
            <stop stop-color="#DDE4F2" offset="100%"></stop>
        </linearGradient>
        <linearGradient x1="0%" y1="50%" x2="148.209635%" y2="55.2897135%" id="linearGradient-47">
            <stop stop-color="#05C896" offset="0%"></stop>
            <stop stop-color="#0AA981" offset="100%"></stop>
        </linearGradient>
        <ellipse id="path-48" cx="43.0029326" cy="27.5476292" rx="13.0205279" ry="13.1021101"></ellipse>
        <filter x="-147.8%" y="-116.4%" width="395.7%" height="393.8%" filterUnits="objectBoundingBox" id="filter-50">
            <feOffset dx="0" dy="8" in="SourceAlpha" result="shadowOffsetOuter1"></feOffset>
            <feGaussianBlur stdDeviation="11.5" in="shadowOffsetOuter1" result="shadowBlurOuter1"></feGaussianBlur>
            <feColorMatrix values="0 0 0 0 0   0 0 0 0 0   0 0 0 0 0  0 0 0 0.0416666667 0" type="matrix" in="shadowBlurOuter1"></feColorMatrix>
        </filter>
        <linearGradient x1="88.3600935%" y1="13.9302899%" x2="50%" y2="69.7278507%" id="linearGradient-51">
            <stop stop-color="#F1F7FF" offset="0%"></stop>
            <stop stop-color="#A7BCDE" offset="100%"></stop>
        </linearGradient>
        <linearGradient x1="56.9881582%" y1="50%" x2="-5.61092608%" y2="90.998156%" id="linearGradient-52">
            <stop stop-color="#FFFFFF" offset="0%"></stop>
            <stop stop-color="#EAEFFF" offset="100%"></stop>
        </linearGradient>
        <linearGradient x1="75.3175233%" y1="50%" x2="19.1162365%" y2="43.2760204%" id="linearGradient-53">
            <stop stop-color="#FFFFFF" stop-opacity="0" offset="0%"></stop>
            <stop stop-color="#D8E1F0" offset="100%"></stop>
        </linearGradient>
        <path d="M0.126616573,19.4059331 C0.632228504,18.3883224 4.11541922,8.92814077 4.15061897,6.7605382 C4.18583425,4.59295713 4.82679279,0.147047227 6.6945387,0.16179926 C8.56231568,0.176551292 12.4263658,1.96694483 13.0586099,2.44586977 C13.6908384,2.92477322 14.2755798,4.99601448 14.2755798,6.14101735 C14.2755798,6.70630405 14.2844963,10.1109054 14.2755798,13.5700205 C14.2669896,16.9003025 15.3379101,20.2797867 15.3962398,20.4170064 C12.4455191,21.4075861 0.908964396,20.9057159 0.126616573,19.4059331 Z" id="path-54"></path>
        <linearGradient x1="15.3723617%" y1="23.1243834%" x2="25.8702546%" y2="100%" id="linearGradient-56">
            <stop stop-color="#FFFFFF" offset="0%"></stop>
            <stop stop-color="#E9F0FC" offset="100%"></stop>
        </linearGradient>
        <linearGradient x1="47.8322148%" y1="65.529462%" x2="67.4520815%" y2="105.572982%" id="linearGradient-57">
            <stop stop-color="#FFFFFF" stop-opacity="0" offset="0%"></stop>
            <stop stop-color="#ABBFD6" offset="100%"></stop>
        </linearGradient>
        <path d="M1.23767215,8.79524123 C2.25833752,9.46341843 9.21027839,11.408286 9.98295916,11.1213102 C10.7556723,10.834346 15.5771544,4.94561924 15.8476477,4.3067396 C16.118141,3.66785995 12.7197609,0.130660859 12.3137294,0.670487438 C11.907698,1.210337 8.54546136,5.4414018 8.16799492,5.4414018 C7.79054467,5.4414018 3.75592876,2.01980677 2.57511138,1.82612572 C1.3943102,1.63245617 0.52241291,3.08856386 0.297924823,3.85157592 C0.0734043496,4.61458798 0.216990577,8.12705254 1.23767215,8.79524123 Z" id="path-58"></path>
        <linearGradient x1="50.7983741%" y1="8.9287466%" x2="85.3629416%" y2="59.7894059%" id="linearGradient-60">
            <stop stop-color="#C1CDE1" offset="0%"></stop>
            <stop stop-color="#90AADB" offset="100%"></stop>
        </linearGradient>
        <path d="M4.22730099,0.795494425 C4.87236825,1.58095671 4.99284297,1.93908865 5.68987771,2.57693756 C6.38691246,3.21478648 7.34366551,3.44099074 7.62055318,3.54123574 C7.89746636,3.64148075 7.06676083,4.27704245 7.34366551,5.1005077 C7.62055318,5.92397295 8.20637001,7.13621071 8.20637001,7.45842388 C8.20637001,7.78062353 7.11097744,8.34905748 6.0748523,8.82862838 C5.03873567,9.30821281 4.89222616,9.71184545 5.01227547,10.5251603 C5.1323333,11.3385023 5.30254638,12.3885102 6.0748523,12.8481728 C6.58972859,13.1546055 5.13274169,12.6100046 1.70390862,11.214343 C0.248231968,7.86250314 -0.115693575,5.13093173 0.612149004,3.0196288 C1.70390862,-0.147325583 3.58223373,0.0100321377 4.22730099,0.795494425 Z" id="path-61"></path>
        <path d="M11.4740226,5.28044713 C12.9684902,4.803005 11.6573884,2.7627235 12.1869887,2.7627235 C12.4066279,2.7627235 13.292527,2.59511999 13.5220035,2.12139957 C14.0306251,1.07137122 12.8652832,0.13524742 9.96645755,0.353587694 C5.01327235,0.726644737 4.75134965,5.80487899 5.1699752,8.34597091 C5.5886291,10.8870628 0.102214771,18.6033307 1.83150272,21.9075755 C3.56079067,25.2118203 7.02171959,23.9464392 9.96645755,21.0618867 C12.9111813,18.1773342 12.1357042,8.39939136 11.3637849,7.93329159 C10.5918515,7.46719181 9.9795551,5.75791457 11.4740226,5.28044713 Z" id="path-63"></path>
        <filter x="-63.5%" y="-40.2%" width="233.8%" height="176.0%" filterUnits="objectBoundingBox" id="filter-65">
            <feGaussianBlur stdDeviation="6.5" in="SourceAlpha" result="shadowBlurInner1"></feGaussianBlur>
            <feOffset dx="-8" dy="-8" in="shadowBlurInner1" result="shadowOffsetInner1"></feOffset>
            <feComposite in="shadowOffsetInner1" in2="SourceAlpha" operator="arithmetic" k2="-1" k3="1" result="shadowInnerInner1"></feComposite>
            <feColorMatrix values="0 0 0 0 0.0404334217   0 0 0 0 0.104773574   0 0 0 0 0.223875135  0 0 0 0.409561821 0" type="matrix" in="shadowInnerInner1"></feColorMatrix>
        </filter>
        <linearGradient x1="12.4459525%" y1="35.5856549%" x2="65.8717076%" y2="70.6376182%" id="linearGradient-66">
            <stop stop-color="#001630" stop-opacity="0.0615942029" offset="0%"></stop>
            <stop stop-color="#081E41" offset="100%"></stop>
        </linearGradient>
        <circle id="path-67" cx="12.9379093" cy="12.9226292" r="12.9226292"></circle>
        <filter x="-149.0%" y="-118.0%" width="397.9%" height="397.9%" filterUnits="objectBoundingBox" id="filter-69">
            <feOffset dx="0" dy="8" in="SourceAlpha" result="shadowOffsetOuter1"></feOffset>
            <feGaussianBlur stdDeviation="11.5" in="shadowOffsetOuter1" result="shadowBlurOuter1"></feGaussianBlur>
            <feColorMatrix values="0 0 0 0 0   0 0 0 0 0   0 0 0 0 0  0 0 0 0.0416666667 0" type="matrix" in="shadowBlurOuter1"></feColorMatrix>
        </filter>
        <path d="M0.609521479,1.26459808 C0.609521479,3.06972087 -0.860500724,6.607002 1.05641504,7.52408754 C2.33435888,8.1354779 3.53838026,6.85343357 4.66847918,3.67795456 C4.57106965,1.34616924 3.94470658,0.180276574 2.78938996,0.180276574 C1.05641504,0.180276574 0.609521479,-0.540524704 0.609521479,1.26459808 Z" id="path-70"></path>
        <path d="M14.2790495,0.0577625024 C16.789064,9.35922177 18.2074626,15.0681853 18.5342454,17.1846531 C19.0244196,20.3593548 20.2239381,31.0904121 20.0546132,32.8210464 C19.2352681,33.6660701 17.7592591,33.1601112 17.502149,33.0051202 C17.245039,32.8501292 15.6609593,24.0210358 14.2790495,20.5959884 C12.8971397,17.170941 9.78732476,14.0187042 7.73818703,10.5726944 C7.73818703,12.0679619 7.21074504,14.816348 6.15586107,18.8178529 C4.6176564,25.8843361 3.58682872,29.9894903 3.06337803,31.1333158 C2.69081109,31.7420126 0.810019024,31.2956641 0.0805104777,31.1333158 C0.0805104777,29.5256624 1.65341099,21.4035631 1.65341099,18.5839591 C1.65341099,15.764355 1.21841333,10.6544392 1.05589461,8.55964569 C0.893375897,6.46485216 0.49629868,2.4007526 1.05589461,0.0577625024 C2.00159552,0.0577625024 6.40931381,0.0577625024 14.2790495,0.0577625024 Z" id="path-72"></path>
        <linearGradient x1="50.4291761%" y1="11.68811%" x2="65.0303642%" y2="78.0458471%" id="linearGradient-74">
            <stop stop-color="#C2CDE0" offset="0%"></stop>
            <stop stop-color="#ADBEDE" offset="100%"></stop>
        </linearGradient>
        <path d="M4.62393543,0.0976984008 C4.96307462,0.7621968 5.41987732,1.23550075 5.99434353,1.51761026 C6.56880973,1.79971977 6.99958649,2.00979033 7.28667379,2.14782196 L6.92034223,3.58498777 C7.37554109,4.99390401 7.49765161,5.93586662 7.28667379,6.4108756 C6.97020706,7.12338908 5.99434353,7.59675701 5.42636558,8.23205247 C5.04771361,8.65558278 4.6833504,9.58574782 4.33327594,11.0225476 L0.589707588,11.0225476 L0.420198762,8.23205247 C-0.2453947,5.5476618 -0.0135669659,3.51958496 1.11568196,2.14782196 C2.24493089,0.77605895 3.41434872,0.0926844316 4.62393543,0.0976984008 Z" id="path-75"></path>
        <linearGradient x1="50%" y1="0%" x2="80.7999115%" y2="55.260103%" id="linearGradient-77">
            <stop stop-color="#414E65" offset="0%"></stop>
            <stop stop-color="#081E41" offset="100%"></stop>
        </linearGradient>
        <linearGradient x1="-1.11022302e-14%" y1="50%" x2="75.5130009%" y2="33.4689142%" id="linearGradient-78">
            <stop stop-color="#EDF3FD" offset="0%"></stop>
            <stop stop-color="#D6E3FA" offset="100%"></stop>
        </linearGradient>
        <linearGradient x1="50%" y1="100%" x2="50%" y2="0%" id="linearGradient-79">
            <stop stop-color="#EDF3FD" offset="0%"></stop>
            <stop stop-color="#D6E3FA" offset="100%"></stop>
        </linearGradient>
        <path d="M8.34412331,0.16509396 C10.1182616,0.638619118 11.5280367,1.50102183 12.5734485,2.75230211 C14.1415663,4.62922252 13.7921126,10.2759877 14.2362657,13.6367537 C14.6804188,16.9975198 16.6129953,19.440414 13.6278852,21.3370216 C10.642775,23.2336293 2.20265671,22.8029441 1.51242244,21.3370216 C1.05226626,20.35974 0.559942934,16.8678589 0.0354524624,10.8613783 C0.0354524624,5.45532749 0.349713353,2.52444664 0.978235135,2.06873569 C1.60675692,1.61302474 2.65465169,0.944806505 4.12191945,0.0640809697 C4.08902026,0.198088721 4.42646388,0.33149055 5.13425032,0.464286456 C5.84203676,0.597082363 6.91199442,0.497351531 8.34412331,0.16509396 Z" id="path-80"></path>
        <linearGradient x1="44.7356789%" y1="57.7816012%" x2="67.4239091%" y2="23.7180568%" id="linearGradient-82">
            <stop stop-color="#CFDDF3" offset="0%"></stop>
            <stop stop-color="#A1B8E3" offset="100%"></stop>
        </linearGradient>
        <linearGradient x1="86.2225509%" y1="231.608002%" x2="56.9641755%" y2="-57.1406441%" id="linearGradient-83">
            <stop stop-color="#CFDDF3" offset="0%"></stop>
            <stop stop-color="#A1B8E3" offset="100%"></stop>
        </linearGradient>
        <path d="M4.4374874,12.5756694 L6.86988914,14.3885426 C9.52523896,10.4841445 10.9699047,8.26453531 11.2038864,7.72971489 C11.5548589,6.92748426 11.1989425,5.57901572 11.1979109,5.1302437 C11.1968793,4.68147168 11.4568356,3.69211635 11.8372764,3.40255868 C12.2177173,3.113001 12.2628784,3.26242334 12.4940354,3.26296025 C13.6899577,3.70324884 15.5278711,1.73434324 15.9783372,1.56811623 C16.4288032,1.40188923 16.5807856,2.38423012 16.5885724,2.98479035 C16.5963592,3.58535057 16.3352848,4.99738272 15.8800403,5.78782866 C15.4247958,6.5782746 13.9085196,7.83552609 13.9093231,8.18506469 C13.9101266,8.53460329 11.397791,13.8161034 10.4868732,15.9522342 C9.57595551,18.0883649 8.7155632,19.5301309 6.8803213,18.9267681 C5.65682669,18.5245263 3.92632321,17.2973751 1.68881086,15.2453146 C2.12280173,14.2032429 2.55094963,13.5184937 2.97325457,13.1910669 C3.3955595,12.8636401 3.88363711,12.6585076 4.4374874,12.5756694 Z" id="path-84"></path>
        <linearGradient x1="22.1069515%" y1="11.2137508%" x2="22.1069515%" y2="79.6109734%" id="linearGradient-86">
            <stop stop-color="#D6E3FA" offset="0%"></stop>
            <stop stop-color="#E3EDFE" offset="100%"></stop>
        </linearGradient>
    </defs>
    <g id="Illustrations" stroke="none" stroke-width="1" fill="none" fill-rule="evenodd">
        <g transform="translate(-21.000000, -9836.000000)" id="Operations">
            <g transform="translate(42.000000, 48.000000)">
                <g id="Group-3" transform="translate(0.000000, 9788.000000)">
                    <g id="team" transform="translate(2.000000, 14.000000)">
                        <path d="M72.1991701,140.425666 C107.477966,140.425666 136.07708,111.937374 136.07708,76.795286 C136.07708,41.6531976 107.477966,13.1649062 72.1991701,13.1649062 C36.9203746,13.1649062 8.3212603,41.6531976 8.3212603,76.795286 C8.3212603,111.937374 36.9203746,140.425666 72.1991701,140.425666 Z" id="circle" stroke="#EBF0F3" stroke-width="1.46482759" stroke-linecap="round" stroke-linejoin="round" stroke-dasharray="2.441379261016845,9.277241134643555"></path>
                        <g id="heart" transform="translate(113.071242, 29.255347)">
                            <g id="Oval-Copy">
                                <use fill="black" fill-opacity="1" filter="url(#filter-2)" xlink:href="#path-1"></use>
                                <use fill="#FFFFFF" fill-rule="evenodd" xlink:href="#path-1"></use>
                            </g>
                            <path d="M13.1695977,18.3841323 C3.71385588,13.2654527 10.5691453,6.87116209 13.1814725,11.1657354 C15.8083613,6.86256532 22.6430676,13.2343927 13.1695977,18.3841323 Z" id="Shape" fill="#BFD0DA" transform="translate(13.179322, 14.065002) rotate(26.000000) translate(-13.179322, -14.065002) "></path>
                        </g>
                        <g id="mail" transform="translate(4.405373, 29.255347)">
                            <ellipse id="Oval-Copy-2" fill="#04CC99" cx="13.4608623" cy="13.4087007" rx="13.4608623" ry="13.4087007"></ellipse>
                            <path d="M17.1079092,9.82004444 L10.0459247,9.82004444 C9.56041322,9.82004444 9.16317657,10.2144532 9.16317657,10.6965083 L9.16317657,15.9552915 C9.16317657,16.4373467 9.56041322,16.8317554 10.0459247,16.8317554 L17.1079092,16.8317554 C17.5934207,16.8317554 17.9906573,16.4373467 17.9906573,15.9552915 L17.9906573,10.6965083 C17.9906573,10.2144532 17.5934207,9.82004444 17.1079092,9.82004444 Z M17.1079092,11.5729722 L13.5769169,13.7641319 L10.0459247,11.5729722 L10.0459247,10.6965083 L13.5769169,12.887668 L17.1079092,10.6965083 L17.1079092,11.5729722 Z" id="Shape" fill="#FFFFFF" fill-rule="nonzero" transform="translate(13.576917, 13.325900) rotate(-20.000000) translate(-13.576917, -13.325900) "></path>
                        </g>
                    </g>
                    <g id="man" transform="translate(9.000000, 24.000000)">
                        <mask id="mask-4" fill="white">
                            <use xlink:href="#path-3"></use>
                        </mask>
                        <g id="Mask"></g>
                        <g mask="url(#mask-4)">
                            <g transform="translate(26.000000, 34.000000)">
                                <g id="neck" stroke-width="1" fill="none" fill-rule="evenodd" transform="translate(28.632911, 26.437500)">
                                    <mask id="mask-7" fill="white">
                                        <use xlink:href="#path-6"></use>
                                    </mask>
                                    <use id="Path-23" fill="url(#linearGradient-5)" xlink:href="#path-6"></use>
                                    <path d="M4.29489507,16.2440724 C4.9329498,16.5051897 5.54778961,16.7486025 6.14013877,16.975005 C17.3664046,21.265811 20.5144232,19.4468381 20.5144232,16.2440724 C20.5144232,13.9962335 19.1991227,7.59538198 16.5685217,-2.95848214 C-0.100921023,6.36999375 -4.19212988,12.7708452 4.29489507,16.2440724 Z" id="Path-9" fill="url(#linearGradient-8)" style="mix-blend-mode: multiply;" opacity="0.153292411" mask="url(#mask-7)"></path>
                                </g>
                                <path d="M25.4771989,4.44873396 C23.8737273,8.48929605 22.1631971,10.5335063 22.9649759,15.6104151 C23.7666974,20.687281 22.9943819,20.2608507 22.5072216,23.0152482 C22.0200039,25.7695599 21.4010177,28.0420646 22.7592198,33.3289235 C24.117422,38.6158683 24.9595159,42.3118407 29.3337658,42.2947852 C33.7080443,42.2777727 39.3432876,41.3392051 41.1995306,38.0819497 C41.9489398,36.7669155 42.2515896,36.0431096 42.7800673,33.9822304 C43.1517225,32.5329432 43.4386529,31.5373665 43.4386529,29.4626109 C44.3880343,31.7518704 46.3850081,30.5301043 46.5332407,30.4106299 C47.70782,29.4638998 48.7624846,27.293771 48.863931,25.2460379 C49.067282,21.1421943 47.6991728,11.6379461 42.9479134,10.0672513 C38.196654,8.49659941 27.0807279,0.408128906 25.4771989,4.44873396 Z" id="face" fill="url(#linearGradient-9)" fill-rule="evenodd"></path>
                                <g id="shirt" stroke-width="1" fill="none" fill-rule="evenodd" transform="translate(5.506329, 48.468750)">
                                    <mask id="mask-14" fill="white">
                                        <use xlink:href="#path-13"></use>
                                    </mask>
                                    <g id="Path-26">
                                        <use fill="url(#linearGradient-10)" xlink:href="#path-13"></use>
                                        <use fill="url(#linearGradient-11)" xlink:href="#path-13"></use>
                                        <use fill="url(#linearGradient-12)" xlink:href="#path-13"></use>
                                    </g>
                                    <path d="M57.1961472,95.1093313 C47.5090072,74.6800539 51.8269736,45.1066566 56.6904888,40.4669057 C61.554004,35.8271549 72.3842862,84.8921855 68.8377675,89.2344307 C65.2912488,93.5766759 66.8832871,115.538609 57.1961472,95.1093313 Z" id="Path-10" fill="url(#linearGradient-15)" style="mix-blend-mode: multiply;" mask="url(#mask-14)"></path>
                                    <path d="M23.2644438,13.3462685 C25.4978908,11.1469311 29.2309632,8.30820236 29.2309632,8.30820236 C29.2309632,8.30820236 29.2309632,6.63988482 29.2309632,3.30324973 L24.8327725,6.91803808 C22.2982555,12.66975 21.7754792,14.8124934 23.2644438,13.3462685 Z" id="Path-14" fill="url(#linearGradient-15)" style="mix-blend-mode: multiply;" mask="url(#mask-14)"></path>
                                    <path d="M32.4854821,11.2534963 C33.2933372,11.7748831 34.9009531,12.0771189 37.3083297,12.1602037 C35.2744775,5.45803446 33.6668616,2.37366391 32.4854821,2.90709204 C30.7134128,3.70723424 31.2736994,10.471416 32.4854821,11.2534963 Z" id="Path-15" fill="url(#linearGradient-15)" style="mix-blend-mode: multiply;" mask="url(#mask-14)"></path>
                                </g>
                                <path d="M42.7759177,62.4719359 C40.4259332,61.2827738 39.9658067,53.6922041 37.8651267,52.6170879 C35.7644468,51.5419717 44.3874088,50.0271228 45.4632728,42.4935864 C46.5436234,42.4935864 48.4608633,47.3819661 50.3301542,50.1524288 C50.1111454,54.381628 43.8204992,57.5586289 42.7759177,62.4719359 Z" id="colar" fill="#FFFFFF" fill-rule="evenodd"></path>
                                <path d="M28.8263146,43.6066668 C28.8263146,45.5565701 27.8329739,51.0226477 31.6283236,52.258114 C30.1802372,52.5046492 29.000928,53.3820074 28.3906021,54.7111439 C27.5749506,56.4874332 26.6125842,60.05357 25.4505505,61.3646166 C25.4505505,58.3274303 24.7807816,52.3262412 25.4505505,50.0255519 C26.1203426,47.7248814 28.2781452,44.8449046 28.8263146,43.6066668 Z" id="colar" fill="#FFFFFF" fill-rule="evenodd"></path>
                                <g id="sleeve" fill="none">
                                    <use fill="url(#linearGradient-16)" fill-rule="evenodd" xlink:href="#path-18"></use>
                                    <use fill="url(#linearGradient-17)" fill-rule="evenodd" xlink:href="#path-18"></use>
                                    <use fill="black" fill-opacity="1" filter="url(#filter-19)" xlink:href="#path-18"></use>
                                </g>
                                <path d="M6.12269659e-14,124.10045 C6.12269659e-14,116.440042 3.14833257,83.2465947 6.09082162,69.6090819 C6.51420941,67.6468125 7.23503121,67.2107976 7.62216835,66.09375 C10.639765,76.8531879 11.5679459,123.792229 10.7047504,126.607321 C9.84150457,129.422413 4.79295873,126.607321 6.12269659e-14,124.10045 Z" id="sleeve" fill="url(#linearGradient-20)" fill-rule="evenodd"></path>
                                <path d="M25.7744042,11.323526 C24.0049354,11.8876858 23.0461227,16.8464101 23.3465987,20.5920916 C22.357151,18.4759747 21.3469896,9.88523791 24.700583,5.25795609 C28.0542149,0.630653344 27.5438883,10.7593663 25.7744042,11.323526 Z" id="hair" fill="#3A4860" fill-rule="evenodd"></path>
                                <path d="M27.1925967,1.5860385 C21.2744316,5.64163031 23.9648658,10.9754224 30.0308626,11.8749583 C36.0968308,12.7744678 36.7516369,13.013172 40.4788688,11.8749583 C41.3120293,14.7491904 38.7216384,17.4891201 40.4788688,19.5945497 C41.8869209,21.2747057 42.3171304,21.9014066 42.4010248,23.8035319 C42.4848906,25.7056307 43.1616581,26.0896354 43.1616581,26.0896354 C43.1616581,26.0896354 43.2418875,20.7976939 44.862768,20.6357906 C46.4836771,20.4738874 47.7348494,21.5620813 48.6336938,23.8035319 C48.8924781,24.4487655 48.5495989,23.1252249 48.6336938,21.8886109 C48.7156126,20.683854 49.2278267,19.5962681 49.2278267,17.9018094 C49.2278267,14.8386285 47.6470037,11.3051773 45.9650778,9.16609275 C42.0685681,4.21056844 31.3799023,0.483092438 27.1925967,1.5860385 Z" id="hair" fill="url(#linearGradient-21)" fill-rule="evenodd"></path>
                                <path d="M47.3189256,98.7615311 C50.0656499,98.5311161 50.0028249,96.3740188 50.0939833,96.990733 C50.1850888,97.6074472 56.5694528,101.652821 56.5694528,101.652821 C56.5694528,101.652821 57.7061177,112.490046 55.0883471,114.32177 C52.4705502,116.153494 49.1297237,112.19657 46.8769039,112.61688 C45.9226879,112.794928 43.4638697,112.883984 41.0158615,112.331461 C40.1944317,112.146066 37.4561651,111.407185 36.9515034,111.031309 C36.3183636,110.559701 35.9945122,109.967621 36.7174359,109.37935 C37.0048399,109.14544 40.5497089,110.0581 41.3942652,110.217793 C43.8091297,110.674312 45.8039891,110.099164 45.7337107,109.951149 C45.61969,109.710834 43.8199662,109.90479 41.3942652,109.37935 C40.5431277,109.195001 38.7826265,108.870738 37.9317005,108.631721 C36.0467651,108.102325 34.4411459,107.314448 34.2932151,107.177882 C33.8936142,106.808891 33.606501,106.246657 34.3600575,105.703197 C34.6793365,105.472949 35.4735166,105.703197 37.7405824,106.048662 C38.7239775,106.198519 40.7107756,106.675381 41.5956383,106.808891 C43.489005,107.094582 44.9273991,106.326776 44.9180956,106.169908 C44.9088185,106.013479 43.6155801,106.380209 41.7546434,106.048662 C40.7603326,105.871492 38.8503676,105.661212 37.7447584,105.472949 C34.8179374,104.97453 33.2467571,103.988595 33.0217817,103.828106 C32.608992,103.533563 32.5192344,102.514998 33.0217817,102.22056 C33.3127802,102.050045 34.7557996,102.386469 37.7089981,102.847508 C38.7788206,103.014527 40.8229461,103.325354 41.7546434,103.325354 C43.6155801,103.325354 44.7956172,102.930013 44.7956172,102.847508 C44.7956172,102.713872 41.2276217,102.34078 38.3576525,101.79575 C35.4795955,101.249171 35.2251238,100.680574 35.029169,100.460603 C34.7614293,100.160074 34.6754512,99.0566815 35.6044262,99.0566815 C36.9622341,99.0566815 37.518435,99.2225912 38.803903,99.3854032 C39.7158832,99.5009141 41.9001163,99.5892584 42.7732703,99.5892584 C44.5052531,99.5892584 46.4245215,98.8365431 47.3189256,98.7615311 Z" id="hand" fill="#FCDFDC" fill-rule="evenodd"></path>
                            </g>
                        </g>
                    </g>
                    <g id="person" transform="translate(0.000000, 99.000000)">
                        <mask id="mask-23" fill="white">
                            <use xlink:href="#path-22"></use>
                        </mask>
                        <g id="Mask">
                            <use fill="black" fill-opacity="1" filter="url(#filter-24)" xlink:href="#path-22"></use>
                            <use fill="#FFFFFF" fill-rule="evenodd" xlink:href="#path-22"></use>
                        </g>
                        <g mask="url(#mask-23)">
                            <g transform="translate(-9.000000, -10.285714)">
                                <g id="leg" fill="none">
                                    <use fill="#04CC99" xlink:href="#path-26"></use>
                                    <use fill-opacity="0.639999986" fill="url(#linearGradient-25)" xlink:href="#path-26"></use>
                                </g>
                                <g id="leg" stroke-width="1" fill="none" transform="translate(19.943182, 47.325843)">
                                    <mask id="mask-28" fill="white">
                                        <use xlink:href="#path-27"></use>
                                    </mask>
                                    <use id="Mask" fill="#04CC99" xlink:href="#path-27"></use>
                                    <path d="M0.859527584,2.55451945 C2.36247309,3.01084535 7.97725354,3.29531626 10.4472307,1.71344819 C12.0938821,0.658869482 10.0586434,0.303229421 4.34151453,0.646528011 C1.01822623,1.61430504 -0.142436089,2.25030219 0.859527584,2.55451945 Z" id="Path-98" fill="url(#linearGradient-29)" style="mix-blend-mode: multiply;" opacity="0.5" mask="url(#mask-28)"></path>
                                    <path d="M6.2712513,8.08711324 C5.72567644,7.95650138 5.22388631,7.90554882 4.77576501,7.43562611 C4.43032171,7.07337676 4.09090909,6.48316318 4.09090909,5.7083018 C4.09090909,4.5216091 4.2714743,3.65897024 4.63260472,3.12038523" id="Path-3" fill="url(#linearGradient-30)" style="mix-blend-mode: multiply;" opacity="0.5" mask="url(#mask-28)"></path>
                                </g>
                                <g id="face" stroke-width="1" fill="none" transform="translate(14.318182, 18.722311)">
                                    <mask id="mask-33" fill="white">
                                        <use xlink:href="#path-32"></use>
                                    </mask>
                                    <use id="Mask" fill="url(#linearGradient-31)" xlink:href="#path-32"></use>
                                    <path d="M5.73962599,8.08997535 C6.31742978,7.68727145 7.09034347,6.3471977 7.09034347,6.24384762 C7.09034347,6.17494757 7.22576139,7.26309323 7.49659724,9.50828461 C5.94008054,8.83121437 5.35442346,8.35844462 5.73962599,8.08997535 Z" id="Path-95" fill="#6A87B9" style="mix-blend-mode: multiply;" opacity="0.5" mask="url(#mask-33)"></path>
                                    <path d="M2.55681818,7.89063739 C2.70555835,7.57618631 2.96039055,7.38999253 3.37345542,7.28089888" id="Path-5" stroke="#728BBB" stroke-width="0.65" stroke-linecap="round" mask="url(#mask-33)"></path>
                                </g>
                                <path d="M9.67585421,38.366056 C8.85503113,37.6951576 7.83903241,37.4652308 7.20125058,36.5489115 C6.56346876,35.6325923 4.71091402,32.5530794 5.19264458,32.1550914 C5.67437514,31.7571034 6.88035768,30.6837881 7.33517358,30.6837881 C7.78998947,30.6837881 8.62618867,32.3114766 9.04199821,33.0520152 C9.45780775,33.7925539 10.1580755,35.3709138 10.1580755,36.0224168 C10.1580755,36.6739198 10.4966773,39.0369545 9.67585421,38.366056 Z" id="palm" fill="#C2CDE0"></path>
                                <g id="phone" stroke-width="1" fill="none" transform="translate(4.602273, 28.083467)">
                                    <path d="M0.371094353,1.24453109 L2.14954543,0.184216084 C2.49280653,-0.0204366622 2.93686998,0.0898856645 3.14444548,0.431387266 L6.00691177,5.14069464 C6.18591316,5.43518635 6.09228976,5.81902834 5.79779806,5.99802974 C5.79495382,5.99975855 5.79209579,6.00146459 5.78922425,6.00314768 L3.87930886,7.1226003 C3.5838528,7.29577502 3.20403558,7.19846435 3.02824825,6.90455521 L0.155117695,2.10080005 C-0.0217775948,1.80503845 0.0745825812,1.42187435 0.370344172,1.24497906 C0.370594128,1.24482956 0.370844188,1.24468023 0.371094353,1.24453109 Z" id="Rectangle-18" fill="#929FB8"></path>
                                    <path d="M0.736873059,1.21337244 L2.61041329,0.157084422 C2.75708982,0.0743892867 2.9429228,0.122998571 3.03032156,0.26692198 L5.85548964,4.91925139 C5.94492872,5.06653468 5.89803672,5.25843608 5.75075343,5.34787515 C5.74709852,5.35009463 5.74339836,5.35223874 5.73965531,5.35430611 L3.81796505,6.41570122 C3.67064156,6.49707149 3.48533171,6.44692984 3.39913982,6.30237434 L0.62212177,1.64493783 C0.53387547,1.49693679 0.582316252,1.30542049 0.730317285,1.21717419 C0.732487072,1.21588044 0.734672491,1.2146131 0.736873059,1.21337244 Z" id="Rectangle-18-Copy" fill="url(#linearGradient-34)"></path>
                                </g>
                                <g id="arm" stroke-width="1" fill="none" transform="translate(8.693182, 31.203852)">
                                    <mask id="mask-36" fill="white">
                                        <use xlink:href="#path-35"></use>
                                    </mask>
                                    <use id="Mask" fill="#C2CDE0" xlink:href="#path-35"></use>
                                    <path d="M8.69318182,7.77479199 C9.33951484,8.60655561 9.93578063,9.31090674 10.4819792,9.88784539 C10.9491038,11.1398417 10.5921028,12.0668108 10.9491038,11.9375308 C11.3061047,11.8082507 11.9902602,8.31489101 11.6481824,7.77479199 C11.5038483,7.54690601 10.4599676,6.62778413 9.66268135,6.77715562 C9.35438295,6.83491529 9.03121644,7.16746075 8.69318182,7.77479199 Z" id="Path-96" fill="#A5B2CA" style="mix-blend-mode: multiply;" opacity="0.5" mask="url(#mask-36)"></path>
                                    <path d="M6.13636364,11.4414125 C6.24729273,11.5407524 6.41082218,11.9103936 6.5450884,12.2117481" id="Path-6" stroke="#9FAEC9" stroke-width="0.65" stroke-linecap="round" mask="url(#mask-36)"></path>
                                </g>
                                <path d="M20.007808,39.5248796 C18.4966567,38.4689094 16.745005,36.528736 17.6208309,35.6701153 C18.4966567,34.8114945 21.8056252,30.6159906 22.4888748,29.7380219 C23.1721245,28.8600532 24.0558644,34.364126 23.1101308,35.6701153 C22.1643972,36.9761045 21.297145,38.4422521 20.007808,39.5248796 Z" id="sleeve" fill="url(#linearGradient-37)"></path>
                                <path d="M20.1955351,49.1909706 C20.0080874,47.8352962 21.1513962,43.7274991 20.1046602,41.2859896 C19.6538554,40.2344885 18.969658,39.3852691 18.9242485,38.2093362 C18.8614837,36.5839641 19.5924407,34.6807541 20.0080874,33.8725864 C21.604678,30.768236 21.5675682,29.0429071 22.0297833,28.5514963 C22.6980437,28.5514963 24.4916627,28.0380373 25.150623,27.0433387 C25.8897634,27.4627062 28.4510816,30.4503404 29.2269575,32.1135443 C30.0028335,33.7767482 29.7555924,38.8948859 29.7555924,41.9595756 C29.7555924,45.0242653 30.1704545,47.0403857 30.1704545,47.8352962 C30.1704545,48.6302067 20.4682602,51.1633962 20.1955351,49.1909706 Z" id="shirt" fill="url(#linearGradient-38)"></path>
                                <path d="M24.6130901,49.4060995 C25.0549754,47.8981952 25.2759181,46.8450749 25.2759181,46.2467386 C25.2759181,45.3492342 24.281676,38.7652818 24.6130901,38.0306015 C24.8340327,37.5408146 25.6637603,39.7806004 27.1022727,44.7499589 C26.4903033,46.8382122 26.0826587,48.1249786 25.8793389,48.6102583 C25.6760192,49.0955379 25.2539362,49.3608183 24.6130901,49.4060995 Z" id="hadow" fill="url(#linearGradient-39)" style="mix-blend-mode: multiply;"></path>
                                <path d="M17.8455029,20.4971976 C15.4453498,19.1771567 14.6848479,21.5807983 14.3339211,21.2753456 C13.4071115,20.1067641 13.89654,18.7782065 14.3339211,17.6682657 C15.069508,15.8015685 19.5678875,12.7213933 23.1136107,16.012684 C25.4774261,18.2068778 25.6846435,21.1903438 23.7352627,24.9630819 C23.1400648,24.7400038 22.7669456,24.323152 22.6159051,23.7125265 C22.4648647,23.1019009 21.6896617,22.6570107 20.2902962,22.3778557 C20.6825115,21.7750348 20.6825115,21.2907076 20.2902962,20.9248738 C19.7019733,20.3761232 19.4467293,20.55406 19.2653808,20.73712 C19.140523,20.7969486 19.0710129,21.0959628 19.0568503,21.6341627 C18.5584153,21.0361343 18.1546328,20.6571459 17.8455029,20.4971976 Z" id="hair" fill="url(#radialGradient-40)"></path>
                                <g id="hair" stroke-width="1" fill="none" transform="translate(23.011364, 21.842697)">
                                    <mask id="mask-42" fill="white">
                                        <use xlink:href="#path-41"></use>
                                    </mask>
                                    <use id="Mask" fill="#223762" xlink:href="#path-41"></use>
                                    <path d="M0.336045468,2.9184272 C1.5689988,2.5668966 4.26470475,2.58277409 5.05580292,4.15316175 C5.84690109,5.72354941 7.15515588,12.8135166 4.24349917,13.118305 C1.33184245,13.4230935 -0.896907859,3.26995781 0.336045468,2.9184272 Z" id="Path-2" fill="#223762" style="mix-blend-mode: multiply;" opacity="0.300000012" mask="url(#mask-42)"></path>
                                    <path d="M0.494913322,3.17752544 C0.494913322,2.48521796 0.529027819,1.29657902 1.60470302,0.715571592" id="Path-93" stroke="#38548E" stroke-width="0.65" stroke-linecap="round" stroke-linejoin="round" mask="url(#mask-42)"></path>
                                </g>
                                <g id="arm" stroke-width="1" fill="none" transform="translate(24.034091, 33.804173)">
                                    <mask id="mask-44" fill="white">
                                        <use xlink:href="#path-43"></use>
                                    </mask>
                                    <use id="Mask" fill="#C2CDE0" xlink:href="#path-43"></use>
                                    <path d="M0.872596232,4.07412384 C2.13789224,4.34172246 4.39803672,4.47638703 5.38613246,4.07412384 C6.04486294,3.80594838 5.94075809,3.25659247 5.0738179,2.42605612 C1.42947278,3.34636885 0.0290655619,3.89572476 0.872596232,4.07412384 Z" id="Path-94" fill="#B2BDCF" style="mix-blend-mode: multiply;" opacity="0.5" mask="url(#mask-44)"></path>
                                </g>
                                <path d="M23.6385814,37.9484973 C23.1038755,36.4511532 22.1081391,30.3582245 24.8247579,29.6884444 C27.5413768,29.0186642 29.1477273,36.0728139 29.1477273,36.7372563 C29.1477273,37.4016988 24.1732874,39.4458414 23.6385814,37.9484973 Z" id="sleeve" fill="url(#linearGradient-45)"></path>
                                <path d="M21.2828459,34.3341418 L22.6954109,34.7727714 C22.8027307,34.8060963 22.8688814,34.9154514 22.8497419,35.027899 L22.294547,38.2897579 C22.2769685,38.3930346 22.1919808,38.4705348 22.0891231,38.4770838 L21.2129541,38.5328703 C21.1457953,38.5371463 21.0803391,38.5102956 21.0348917,38.4598275 L20.512988,37.8802671 C20.4664287,37.8285642 20.4460513,37.7578396 20.4578096,37.6887574 L20.9985123,34.5120428 C21.0194811,34.3888479 21.1346781,34.3062664 21.255812,34.327592 C21.2649487,34.3292005 21.2739776,34.331388 21.2828459,34.3341418 Z" id="pocket" fill="url(#linearGradient-46)"></path>
                                <polygon id="Path-12" fill="url(#linearGradient-47)" points="29.1477273 69.6886035 29.1477273 65.0080257 27.1022727 67.3483146"></polygon>
                            </g>
                        </g>
                    </g>
                    <g id="Group-6" transform="translate(31.000000, 0.000000)">
                        <mask id="mask-49" fill="white">
                            <use xlink:href="#path-48"></use>
                        </mask>
                        <g id="Mask">
                            <use fill="black" fill-opacity="1" filter="url(#filter-50)" xlink:href="#path-48"></use>
                            <use fill="#FFFFFF" fill-rule="evenodd" xlink:href="#path-48"></use>
                        </g>
                        <g mask="url(#mask-49)">
                            <g transform="translate(32.386364, 19.553571)">
                                <g id="hand" transform="translate(25.066017, 8.002480)">
                                    <path d="M1.00321037,3.06943572 C0.908408447,2.93361162 0.820043212,0.987700576 1.07487031,0.718378352 C1.32970277,0.449059589 1.98424793,0.118476165 2.07808426,0.195922313 C2.17192956,0.273364999 2.40279238,0.692948325 2.22140413,0.783685789 C2.04001409,0.874423254 1.69384615,1.19228993 1.71979536,1.30614183 C1.74573919,1.41999718 1.79908688,1.75751355 1.93476619,1.89390877 C2.07045267,2.03030052 1.22467702,3.38672437 1.00321037,3.06943572 Z" id="finger" fill="#C1CDE1"></path>
                                    <path d="M0,5.15216501 C0.474330852,4.59399917 0.773773756,4.23052425 0.898333542,4.06174027 C0.986113198,3.94278965 0.845005976,3.16158039 1.03136507,2.84053801 C1.217729,2.51948761 1.34883821,2.41827335 1.48382105,2.23189734 C1.52784611,2.17111907 1.74265366,1.86887145 1.80157432,1.69498786 C1.95728734,1.23547045 2.00525365,1.01572252 2.03864798,0.755314083 C2.08466782,0.396377495 2.6094018,0.531530125 2.73466193,0.274256823 C2.85992206,0.0169835212 3.00936395,-0.147412273 3.16103429,0.190949507 C3.31270946,0.529303268 2.91765686,0.632530749 2.91765686,1.09935278 C2.91765686,1.12741662 3.35693188,0.483255144 3.63022056,0.418964882 C3.87916142,0.418964882 3.84861194,0.742035875 3.95681266,1.18972638 C4.06233758,1.62637577 4.65736908,2.15715129 4.65736908,2.72538002 C4.65736908,3.05493777 4.6582916,3.32178485 4.65736908,3.37273276 C4.64856407,3.85747556 2.78215239,5.23036692 2.37474543,5.7809475 C2.10313275,6.14799855 1.80616278,6.52853628 1.48382105,6.92256069 L0,5.15216501 Z" fill="#C1CDE1"></path>
                                </g>
                                <g id="shirt" transform="translate(1.891775, 10.356151)">
                                    <path d="M7.97966528,0.316127438 C8.70081816,0.500484983 10.3816683,0.772130009 10.7243456,0.766160975 C11.067032,0.760191941 11.6399493,3.28390564 11.6040738,3.50780611 C11.5682029,3.73169501 8.20893304,2.50699809 7.97966528,2.21669019 C7.75040207,1.92637459 7.25852149,0.131762182 7.97966528,0.316127438 Z" id="colar" fill="url(#linearGradient-51)"></path>
                                    <g transform="translate(0.000000, 1.779676)">
                                        <mask id="mask-55" fill="white">
                                            <use xlink:href="#path-54"></use>
                                        </mask>
                                        <g id="">
                                            <use fill="url(#linearGradient-52)" xlink:href="#path-54"></use>
                                            <use fill="url(#linearGradient-53)" xlink:href="#path-54"></use>
                                        </g>
                                        <path d="M13.9316235,20.8540152 C11.4891911,13.2753021 10.2679749,9.06837784 10.2679749,8.23324249 C10.2679749,7.39810715 11.6228743,7.19710016 14.3326732,7.63022153 L16.606465,20.8540152 L13.9316235,20.8540152 Z" id="Path" fill="#DAE2F1" mask="url(#mask-55)"></path>
                                    </g>
                                    <path d="M21.4817963,3.10436375 C22.0144629,2.64823586 22.761504,1.73746656 23.1821217,1.19705498 C23.6027342,0.656643411 25.9307372,3.11841874 25.477459,3.73590142 C25.0241963,4.35338988 24.1102264,5.49910892 23.6660003,5.83331119 C23.2217846,6.16750768 20.9491141,3.56048586 21.4817963,3.10436375 Z" id="shirt-sleeve" fill="#DAE2F1"></path>
                                    <g id="sleeve" transform="translate(9.452213, 1.853829)">
                                        <mask id="mask-59" fill="white">
                                            <use xlink:href="#path-58"></use>
                                        </mask>
                                        <g id="">
                                            <use fill="url(#linearGradient-56)" xlink:href="#path-58"></use>
                                            <use fill="url(#linearGradient-57)" xlink:href="#path-58"></use>
                                        </g>
                                        <path d="M10.5879443,1.07522102 L17.2557847,5.07949242" id="Line-7" stroke="#FFFFFF" stroke-width="1.404" opacity="0.430245536" stroke-linecap="square" mask="url(#mask-59)"></path>
                                    </g>
                                </g>
                                <g id="face" transform="translate(8.985931, 1.412202)">
                                    <mask id="mask-62" fill="white">
                                        <use xlink:href="#path-61"></use>
                                    </mask>
                                    <use id="" fill="url(#linearGradient-60)" xlink:href="#path-61"></use>
                                    <path d="M5.71928937,2.51008114 C6.80450996,3.83338794 7.35927667,4.68408518 7.3835895,5.06217283 C7.40790233,5.44026049 7.68311099,5.15669475 8.20921549,4.2114756 L8.20921549,3.36077837 L6.83317218,3.07721263 L5.71928937,2.51008114 Z" id="Path-7" fill="#6180AF" mask="url(#mask-62)"></path>
                                    <path d="M2.78326546,6.88028162 C3.08122345,7.25167637 3.59231986,7.95644627 4.22995461,8.35363793 C4.83126094,8.7282001 5.89648965,8.73703785 6.53801395,8.73703785 C7.4192185,8.73703785 6.82659329,9.57692935 4.76013832,11.2567124 L2.78326546,10.8504773 C2.39730533,7.72259368 2.39730533,6.39919511 2.78326546,6.88028162 Z" id="Path-2" fill="#617FAE" mask="url(#mask-62)"></path>
                                </g>
                                <g id="hair">
                                    <mask id="mask-64" fill="white">
                                        <use xlink:href="#path-63"></use>
                                    </mask>
                                    <g id="">
                                        <use fill="#404E64" fill-rule="evenodd" xlink:href="#path-63"></use>
                                        <use fill="black" fill-opacity="1" filter="url(#filter-65)" xlink:href="#path-63"></use>
                                    </g>
                                    <path d="M10.6956694,7.63920559 C10.6956694,8.6103677 8.82293385,20.8087744 7.14259424,21.761279 C5.46225463,22.7137835 12.3301771,22.6704108 12.3301771,20.8509357 C12.3301771,19.0314605 10.6956694,6.66804348 10.6956694,7.63920559 Z" id="Path-3" fill="url(#linearGradient-66)" mask="url(#mask-64)"></path>
                                </g>
                            </g>
                        </g>
                    </g>
                    <g id="person" transform="translate(120.000000, 99.000000)">
                        <mask id="mask-68" fill="white">
                            <use xlink:href="#path-67"></use>
                        </mask>
                        <g id="Mask">
                            <use fill="black" fill-opacity="1" filter="url(#filter-69)" xlink:href="#path-67"></use>
                            <use fill="#FFFFFF" fill-rule="evenodd" xlink:href="#path-67"></use>
                        </g>
                        <g mask="url(#mask-68)" id="Group-7">
                            <g transform="translate(3.857143, 6.428571)">
                                <g>
                                    <g id="Path-7" transform="translate(0.099872, 23.738053)">
                                        <mask id="mask-71" fill="white">
                                            <use xlink:href="#path-70"></use>
                                        </mask>
                                        <use id="Mask" fill="#C2CDE0" xlink:href="#path-70"></use>
                                        <path d="M0.499179647,2.07290697 C0.653764952,2.39063154 2.76031725,4.07137779 3.10865131,4.46881245 C3.45698537,4.86624711 3.53662231,5.90505862 3.73664549,5.79773243 C3.86999428,5.72618164 3.86999428,4.67467789 3.73664549,2.64322118 C1.47527806,2.05119533 0.396122776,1.86109059 0.499179647,2.07290697 Z" fill="#9DACC8" style="mix-blend-mode: multiply;" opacity="0.5" mask="url(#mask-71)"></path>
                                    </g>
                                    <g id="Path-5" transform="translate(3.994871, 34.445430)">
                                        <mask id="mask-73" fill="white">
                                            <use xlink:href="#path-72"></use>
                                        </mask>
                                        <use id="Mask" fill="#01C08F" xlink:href="#path-72"></use>
                                        <path d="M5.7525196,20.4471913 C5.7525196,19.0815183 6.4481956,7.92239213 6.6080153,8.38033521 C6.71456177,8.6856306 7.18270154,9.6625746 8.01243464,11.3111672 C6.50582461,18.3122986 5.7525196,21.3576399 5.7525196,20.4471913 Z" id="Path-10" fill="#A1B8E3" style="mix-blend-mode: multiply;" opacity="0.5" mask="url(#mask-73)"></path>
                                        <path d="M1.92713623,2.3887198 C2.80722654,2.86745577 6.25373501,4.90517849 10.6947011,4.08856839 C12.8889239,3.68509212 14.3004137,3.15705291 14.933563,2.3887198 C14.933563,2.01026088 14.4013529,0.418390583 14.2527317,-0.190641153 C14.1041105,-0.79967289 0.849337398,1.80243784 1.92713623,2.3887198 Z" id="Path-6" fill="url(#linearGradient-29)" style="mix-blend-mode: multiply;" opacity="0.5" mask="url(#mask-73)"></path>
                                    </g>
                                    <g id="Path-3" transform="translate(6.991024, 4.747611)">
                                        <mask id="mask-76" fill="white">
                                            <use xlink:href="#path-75"></use>
                                        </mask>
                                        <use id="Mask" fill="url(#linearGradient-74)" xlink:href="#path-75"></use>
                                        <path d="M5.89284571,7.85265832 C4.94787715,7.85265832 3.4737706,7.00637083 3.19005106,6.71723372 C2.90633152,6.4280966 5.55242434,9.55603761 5.33154755,10.054214 C5.15729532,10.447231 4.53520775,10.5674593 4.92754704,10.5674593 C6.34253667,10.5674593 6.83781427,7.85265832 5.89284571,7.85265832 Z" fill="#758CBC" style="mix-blend-mode: multiply;" opacity="0.5" mask="url(#mask-76)"></path>
                                        <path d="M5.45457374,0.949468238 C6.42298909,2.24636422 6.94155565,3.21903622 7.01027344,3.86748421 C7.07899122,4.5159322 7.59755779,3.86748421 8.56597314,1.92214023 L8.56597314,-0.0232037525 L5.45457374,0.949468238 Z" id="Path-15" fill="#728BBB" mask="url(#mask-76)"></path>
                                    </g>
                                    <path d="M7.41139362,12.8619412 C4.11069159,9.74160318 1.49710131,7.07864551 3.75114601,3.36802425 C6.00519071,-0.342597003 11.2498486,-1.58997314 12.2301776,2.92060837 C12.2301776,4.21083342 11.7592319,5.20057621 10.8173406,5.88983674 C10.6411353,6.252502 10.7853046,6.62619018 11.2498486,7.01090128 C11.7143925,7.39561239 11.7143925,7.74693572 11.2498486,8.06487126 C10.3325132,7.46810784 9.75406785,7.5670832 9.51451252,8.36179733 C9.15517954,9.55386853 10.4815545,9.98057206 10.4815545,10.27895 C10.7863329,11.0099752 10.6242144,11.7098354 9.99519881,12.3785305 C9.67317308,12.7008043 8.81190468,12.8619412 7.41139362,12.8619412 Z" id="Path-82" fill="url(#linearGradient-77)"></path>
                                    <path d="M4.0068411,17.0711954 C1.65128859,21.2506169 0.331410588,23.8001632 0.047207103,24.7198345 C-0.236996382,25.6395057 1.08288162,26.3652695 4.0068411,26.8971257 L5.8370971,19.0111488 L4.0068411,17.0711954 Z" id="Path-86" fill="url(#linearGradient-78)"></path>
                                    <g id="Path-4" transform="translate(3.295768, 14.747897)">
                                        <mask id="mask-81" fill="white">
                                            <use xlink:href="#path-80"></use>
                                        </mask>
                                        <use id="Mask" fill="url(#linearGradient-79)" xlink:href="#path-80"></use>
                                        <path d="M10.5544251,6.57981663 C11.5113834,11.10398 12.2777844,13.7900563 12.8536279,14.6380455 C13.7173931,15.9100294 14.2790217,19.759121 14.9703961,20.2180876 C15.6617705,20.6770543 16.6549524,15.4264157 16.1583615,13.6286853 C15.8273009,12.4301983 14.9156478,10.363183 13.4234024,7.4276393 L10.5544251,6.57981663 Z" fill="url(#linearGradient-82)" opacity="0.5" mask="url(#mask-81)"></path>
                                        <path d="M4.75401126,0.528961506 C5.39286262,0.957540147 7.05747875,1.18953349 8.45666403,1.18953349 C9.85584931,1.18953349 10.2934633,1.20452003 10.9629493,0.99842996 C11.6324354,0.792339893 11.3728462,0.528961506 10.9629493,0.528961506 C10.5530525,0.528961506 9.28167163,0.226709875 8.5973711,0.226709875 C7.91307057,0.226709875 4.11515991,0.100382865 4.75401126,0.528961506 Z" id="Path-11" fill="url(#linearGradient-83)" opacity="0.5" mask="url(#mask-81)"></path>
                                    </g>
                                    <path d="M7.2966795,14.9129164 C7.24179354,14.2209285 7.21435056,13.7633405 7.21435056,13.5401523 C7.21435056,13.2053701 9.97073517,13.6781335 11.9543077,13.8657659 C12.1695419,14.7008833 12.1314282,14.7561333 12.1314282,14.9129164 C12.1314282,14.9912872 11.6360613,15.6631027 8.9708993,15.4452848 C8.32230714,15.3922768 7.76423387,15.2148207 7.2966795,14.9129164 Z" id="Path-8" fill="#E1ECFF"></path>
                                    <g id="Group-2" transform="translate(22.997092, 16.292185) rotate(-26.000000) translate(-22.997092, -16.292185) translate(12.244182, 5.932473)">
                                        <path d="M5.2648218,15.2340811 C6.73340068,15.2258568 8.7669144,14.6793018 8.7707938,13.9852078 C8.7746732,13.2911138 7.10527107,13.0616135 5.63669218,13.0698378 C4.16811329,13.0780621 3.52123273,13.7754665 3.33696486,14.2591645 C3.42423632,14.6692177 3.79624291,15.2423054 5.2648218,15.2340811 Z" id="Oval" fill="#A1B8E3" transform="translate(6.053883, 14.151897) rotate(-40.000000) translate(-6.053883, -14.151897) "></path>
                                        <g id="Path-2" transform="translate(3.195897, -0.000000)">
                                            <mask id="mask-85" fill="white">
                                                <use xlink:href="#path-84"></use>
                                            </mask>
                                            <use id="Mask" fill="#C2CDE0" transform="translate(9.138776, 10.307204) rotate(12.000000) translate(-9.138776, -10.307204) " xlink:href="#path-84"></use>
                                            <path d="M4.75703176,12.2318362 C3.39301973,14.1516691 2.67349145,15.4744968 2.59844693,16.2003194 C2.52340241,16.9261419 2.08642723,16.5537571 1.28752139,15.083165 C1.7440212,14.1973735 2.16423065,13.5967207 2.54814972,13.2812066 C2.93206879,12.9656924 3.66836281,12.6159023 4.75703176,12.2318362 Z" fill="#9FAEC9" style="mix-blend-mode: multiply;" opacity="0.5" mask="url(#mask-85)"></path>
                                            <path d="M6.05423331,13.7270888 C6.16372133,13.8621845 6.3819248,14.096022 6.45972169,14.5500452" id="Path-9" stroke="#9DACC8" stroke-width="1.04" stroke-linecap="round" mask="url(#mask-85)"></path>
                                        </g>
                                        <path d="M4.02371683,15.9601629 C4.99444754,14.6713736 6.34875508,12.9067852 8.04566753,12.287906 C4.86215475,8.54104396 3.89242047,7.2910186 2.88906622,6.11820128 C1.88571197,4.94538397 -1.00688728,7.98340105 0.54859195,10.9717186 C2.10407118,13.9600361 3.49592289,15.3277948 4.02371683,15.9601629 Z" id="Path-85" fill="url(#linearGradient-86)"></path>
                                    </g>
                                </g>
                            </g>
                        </g>
                    </g>
                </g>
            </g>
        </g>
    </g>
</svg>