<?xml version="1.0" encoding="UTF-8"?>
<svg width="173px" height="56px" viewBox="0 0 173 56" version="1.1" xmlns="http://www.w3.org/2000/svg" xmlns:xlink="http://www.w3.org/1999/xlink">
    <!-- Generator: Sketch 52.6 (67491) - http://www.bohemiancoding.com/sketch -->
    <title>Group</title>
    <desc>Created with Sketch.</desc>
    <g id="Traceability" stroke="none" stroke-width="1" fill="none" fill-rule="evenodd">
        <g id="Scan---Keyboard" transform="translate(-101.000000, -160.000000)" fill="#000000" fill-rule="nonzero">
            <g id="Group" transform="translate(101.000000, 160.000000)">
                <g id="002-barcode">
                    <rect id="Rectangle-path" x="0" y="0.631" width="9.483" height="54.876"></rect>
                    <polygon id="Rectangle-path" points="61.893 0.631 71.388 0.631 71.388 55.507 61.893 55.507"></polygon>
                    <polygon id="Rectangle-path" points="15.423 0.631 20.16 0.631 20.16 55.507 15.423 55.507"></polygon>
                    <polygon id="Rectangle-path" points="44.985 0.631 49.728 0.631 49.728 55.507 44.985 55.507"></polygon>
                    <polygon id="Rectangle-path" points="53.298 0.631 58.026 0.631 58.026 55.507 53.298 55.507"></polygon>
                    <polygon id="Rectangle-path" points="73.458 0.631 78.21 0.631 78.21 55.507 73.458 55.507"></polygon>
                    <polygon id="Rectangle-path" points="81.765 0.631 84.138 0.631 84.138 55.507 81.765 55.507"></polygon>
                    <rect id="Rectangle-path" x="26.295" y="0.631" width="14.238" height="54.876"></rect>
                </g>
                <g id="002-barcode-copy" transform="translate(88.000000, 0.000000)">
                    <rect id="Rectangle-path" x="0" y="0.631" width="9.483" height="54.876"></rect>
                    <polygon id="Rectangle-path" points="61.893 0.631 71.388 0.631 71.388 55.507 61.893 55.507"></polygon>
                    <polygon id="Rectangle-path" points="15.423 0.631 20.16 0.631 20.16 55.507 15.423 55.507"></polygon>
                    <polygon id="Rectangle-path" points="44.985 0.631 49.728 0.631 49.728 55.507 44.985 55.507"></polygon>
                    <polygon id="Rectangle-path" points="53.298 0.631 58.026 0.631 58.026 55.507 53.298 55.507"></polygon>
                    <polygon id="Rectangle-path" points="73.458 0.631 78.21 0.631 78.21 55.507 73.458 55.507"></polygon>
                    <polygon id="Rectangle-path" points="81.765 0.631 84.138 0.631 84.138 55.507 81.765 55.507"></polygon>
                    <rect id="Rectangle-path" x="26.295" y="0.631" width="14.238" height="54.876"></rect>
                </g>
            </g>
        </g>
    </g>
</svg>