<?xml version="1.0" encoding="UTF-8"?>
<svg width="133px" height="114px" viewBox="0 0 133 114" version="1.1" xmlns="http://www.w3.org/2000/svg" xmlns:xlink="http://www.w3.org/1999/xlink">
    <!-- Generator: Sketch 52.6 (67491) - http://www.bohemiancoding.com/sketch -->
    <title>barcode</title>
    <desc>Created with Sketch.</desc>
    <defs>
        <rect id="path-1" x="0" y="0" width="95" height="76" rx="4"></rect>
        <filter x="-26.3%" y="-26.3%" width="152.6%" height="165.8%" filterUnits="objectBoundingBox" id="filter-3">
            <feOffset dx="0" dy="5" in="SourceAlpha" result="shadowOffsetOuter1"></feOffset>
            <feGaussianBlur stdDeviation="7.5" in="shadowOffsetOuter1" result="shadowBlurOuter1"></feGaussianBlur>
            <feColorMatrix values="0 0 0 0 0   0 0 0 0 0   0 0 0 0 0  0 0 0 0.1 0" type="matrix" in="shadowBlurOuter1"></feColorMatrix>
        </filter>
        <rect id="path-4" x="0" y="0" width="95" height="76" rx="4"></rect>
        <filter x="-26.3%" y="-26.3%" width="152.6%" height="165.8%" filterUnits="objectBoundingBox" id="filter-6">
            <feOffset dx="0" dy="5" in="SourceAlpha" result="shadowOffsetOuter1"></feOffset>
            <feGaussianBlur stdDeviation="7.5" in="shadowOffsetOuter1" result="shadowBlurOuter1"></feGaussianBlur>
            <feColorMatrix values="0 0 0 0 0   0 0 0 0 0   0 0 0 0 0  0 0 0 0.1 0" type="matrix" in="shadowBlurOuter1"></feColorMatrix>
        </filter>
        <path d="M92,62 C85.9347692,62 81,66.9343462 81,73 C81,79.0656538 85.9347692,84 92,84 C98.0652308,84 103,79.0656538 103,73 C103,66.9343462 98.0652308,62 92,62 Z" id="path-7"></path>
        <filter x="-113.6%" y="-90.9%" width="327.3%" height="327.3%" filterUnits="objectBoundingBox" id="filter-8">
            <feOffset dx="0" dy="5" in="SourceAlpha" result="shadowOffsetOuter1"></feOffset>
            <feGaussianBlur stdDeviation="7.5" in="shadowOffsetOuter1" result="shadowBlurOuter1"></feGaussianBlur>
            <feColorMatrix values="0 0 0 0 0   0 0 0 0 0   0 0 0 0 0  0 0 0 0.1 0" type="matrix" in="shadowBlurOuter1"></feColorMatrix>
        </filter>
    </defs>
    <g id="Mobile-Illustrations" stroke="none" stroke-width="1" fill="none" fill-rule="evenodd">
        <g id="Illustrations" transform="translate(-27.000000, -11127.000000)">
            <g id="barcode" transform="translate(42.000000, 11137.000000)">
                <g id="Rectangle">
                    <mask id="mask-2" fill="white">
                        <use xlink:href="#path-1"></use>
                    </mask>
                    <g id="Mask">
                        <use fill="black" fill-opacity="1" filter="url(#filter-3)" xlink:href="#path-1"></use>
                        <use fill="#FFFFFF" fill-rule="evenodd" xlink:href="#path-1"></use>
                    </g>
                    <mask id="mask-5" fill="white">
                        <use xlink:href="#path-4"></use>
                    </mask>
                    <g id="Mask">
                        <use fill="black" fill-opacity="1" filter="url(#filter-6)" xlink:href="#path-4"></use>
                        <use fill="#FFFFFF" fill-rule="evenodd" xlink:href="#path-4"></use>
                    </g>
                    <rect fill="#E7EFF5" mask="url(#mask-5)" x="-1.31944444" y="0" width="96.3194444" height="14.4137931"></rect>
                </g>
                <path d="M66.6666667,61 L62.6666667,61 C61.930287,61 61.3333333,60.4030463 61.3333333,59.6666667 C61.3333333,58.930287 61.930287,58.3333333 62.6666667,58.3333333 L65.3333333,58.3333333 L65.3333333,55.6666667 C65.3333333,54.930287 65.930287,54.3333333 66.6666667,54.3333333 C67.4030463,54.3333333 68,54.930287 68,55.6666667 L68,59.6666667 C68,60.4030463 67.4030463,61 66.6666667,61 Z M66.6666667,46.3333333 L29.3333333,46.3333333 C28.5969537,46.3333333 28,45.7363797 28,45 C28,44.2636203 28.5969537,43.6666667 29.3333333,43.6666667 L66.6666667,43.6666667 C67.4030463,43.6666667 68,44.2636203 68,45 C68,45.7363797 67.4030463,46.3333333 66.6666667,46.3333333 Z M66.6666667,35.6666667 C65.930287,35.6666667 65.3333333,35.069713 65.3333333,34.3333333 L65.3333333,31.6666667 L62.6666667,31.6666667 C61.930287,31.6666667 61.3333333,31.069713 61.3333333,30.3333333 C61.3333333,29.5969537 61.930287,29 62.6666667,29 L66.6666667,29 C67.4030463,29 68,29.5969537 68,30.3333333 L68,34.3333333 C68,35.069713 67.4030463,35.6666667 66.6666667,35.6666667 Z M36,42.3333333 L34.6666667,42.3333333 C33.930287,42.3333333 33.3333333,41.7363797 33.3333333,41 L33.3333333,35.6666667 C33.3333333,34.930287 33.930287,34.3333333 34.6666667,34.3333333 L36,34.3333333 C36.7363797,34.3333333 37.3333333,34.930287 37.3333333,35.6666667 L37.3333333,41 C37.3333333,41.353622 37.1928575,41.6927605 36.942809,41.942809 C36.6927605,42.1928575 36.353622,42.3333333 36,42.3333333 Z M62.6666667,35.6666667 L62.6666667,41 C62.6666667,41.7363797 62.069713,42.3333333 61.3333333,42.3333333 C60.5969537,42.3333333 60,41.7363797 60,41 L60,35.6666667 C60,34.930287 60.5969537,34.3333333 61.3333333,34.3333333 C62.069713,34.3333333 62.6666667,34.930287 62.6666667,35.6666667 Z M57.3333333,34.3333333 C58.069713,34.3333333 58.6666667,34.930287 58.6666667,35.6666667 L58.6666667,41 C58.6666667,41.7363797 58.069713,42.3333333 57.3333333,42.3333333 L56,42.3333333 C55.2636203,42.3333333 54.6666667,41.7363797 54.6666667,41 L54.6666667,35.6666667 C54.6666667,34.930287 55.2636203,34.3333333 56,34.3333333 L57.3333333,34.3333333 Z M50.6666667,34.3333333 C51.4030463,34.3333333 52,34.930287 52,35.6666667 L52,41 C52,41.7363797 51.4030463,42.3333333 50.6666667,42.3333333 L50,42.3333333 C49.2636203,42.3333333 48.6666667,41.7363797 48.6666667,41 L48.6666667,35.6666667 C48.6666667,34.930287 49.2636203,34.3333333 50,34.3333333 L50.6666667,34.3333333 Z M47.3333333,35.6666667 L47.3333333,41 C47.3333333,41.7363797 46.7363797,42.3333333 46,42.3333333 C45.2636203,42.3333333 44.6666667,41.7363797 44.6666667,41 L44.6666667,35.6666667 C44.6666667,34.930287 45.2636203,34.3333333 46,34.3333333 C46.7363797,34.3333333 47.3333333,34.930287 47.3333333,35.6666667 Z M41.3333333,35.6666667 L41.3333333,41 C41.3333333,41.7363797 40.7363797,42.3333333 40,42.3333333 C39.2636203,42.3333333 38.6666667,41.7363797 38.6666667,41 L38.6666667,35.6666667 C38.6666667,34.930287 39.2636203,34.3333333 40,34.3333333 C40.7363797,34.3333333 41.3333333,34.930287 41.3333333,35.6666667 Z M34.6666667,30.3333333 C34.6666667,31.069713 34.069713,31.6666667 33.3333333,31.6666667 L30.6666667,31.6666667 L30.6666667,34.3333333 C30.6666667,35.069713 30.069713,35.6666667 29.3333333,35.6666667 C28.5969537,35.6666667 28,35.069713 28,34.3333333 L28,30.3333333 C28,29.5969537 28.5969537,29 29.3333333,29 L33.3333333,29 C34.069713,29 34.6666667,29.5969537 34.6666667,30.3333333 Z M34.6666667,59.6666667 C34.6666667,60.4030463 34.069713,61 33.3333333,61 L29.3333333,61 C28.5969537,61 28,60.4030463 28,59.6666667 L28,55.6666667 C28,54.930287 28.5969537,54.3333333 29.3333333,54.3333333 C30.069713,54.3333333 30.6666667,54.930287 30.6666667,55.6666667 L30.6666667,58.3333333 L33.3333333,58.3333333 C34.069713,58.3333333 34.6666667,58.930287 34.6666667,59.6666667 Z M34.6666667,47.6666667 L36,47.6666667 C36.7363797,47.6666667 37.3333333,48.2636203 37.3333333,49 L37.3333333,54.3333333 C37.3333333,55.069713 36.7363797,55.6666667 36,55.6666667 L34.6666667,55.6666667 C33.930287,55.6666667 33.3333333,55.069713 33.3333333,54.3333333 L33.3333333,49 C33.3333333,48.2636203 33.930287,47.6666667 34.6666667,47.6666667 Z M38.6666667,54.3333333 L38.6666667,49 C38.6666667,48.2636203 39.2636203,47.6666667 40,47.6666667 C40.7363797,47.6666667 41.3333333,48.2636203 41.3333333,49 L41.3333333,54.3333333 C41.3333333,55.069713 40.7363797,55.6666667 40,55.6666667 C39.2636203,55.6666667 38.6666667,55.069713 38.6666667,54.3333333 Z M44.6666667,54.3333333 L44.6666667,49 C44.6666667,48.2636203 45.2636203,47.6666667 46,47.6666667 C46.7363797,47.6666667 47.3333333,48.2636203 47.3333333,49 L47.3333333,54.3333333 C47.3333333,55.069713 46.7363797,55.6666667 46,55.6666667 C45.2636203,55.6666667 44.6666667,55.069713 44.6666667,54.3333333 Z M50,55.6666667 C49.2636203,55.6666667 48.6666667,55.069713 48.6666667,54.3333333 L48.6666667,49 C48.6666667,48.2636203 49.2636203,47.6666667 50,47.6666667 L50.6666667,47.6666667 C51.4030463,47.6666667 52,48.2636203 52,49 L52,54.3333333 C52,55.069713 51.4030463,55.6666667 50.6666667,55.6666667 L50,55.6666667 Z M56,55.6666667 C55.2636203,55.6666667 54.6666667,55.069713 54.6666667,54.3333333 L54.6666667,49 C54.6666667,48.2636203 55.2636203,47.6666667 56,47.6666667 L57.3333333,47.6666667 C58.069713,47.6666667 58.6666667,48.2636203 58.6666667,49 L58.6666667,54.3333333 C58.6666667,55.069713 58.069713,55.6666667 57.3333333,55.6666667 L56,55.6666667 Z M60,49 C60,48.2636203 60.5969537,47.6666667 61.3333333,47.6666667 C62.069713,47.6666667 62.6666667,48.2636203 62.6666667,49 L62.6666667,54.3333333 C62.6666667,55.069713 62.069713,55.6666667 61.3333333,55.6666667 C60.5969537,55.6666667 60,55.069713 60,54.3333333 L60,49 Z" id="Shape" fill="#BFD0DA" fill-rule="nonzero"></path>
                <g id="Shape">
                    <use fill="black" fill-opacity="1" filter="url(#filter-8)" xlink:href="#path-7"></use>
                    <use fill="#04CC99" fill-rule="evenodd" xlink:href="#path-7"></use>
                </g>
                <path d="M97.7073933,77.2983937 L95.3863189,74.9760478 C96.8505372,72.7830256 96.4133245,69.8363476 94.3755096,68.1635084 C92.3376948,66.4906691 89.3639629,66.6373076 87.5004232,68.5025275 C85.6368835,70.3677473 85.4913767,73.34316 87.1640204,75.3814996 C88.8366641,77.4198392 91.7818831,77.8562497 93.9731868,76.390454 L96.2942612,78.7122999 C96.6872934,79.0959 97.314361,79.0959 97.7073933,78.7122999 C98.0975356,78.321826 98.0975356,77.6888677 97.7073933,77.2983937 Z M91.1294334,68.5059771 C93.1302368,68.5059771 94.7522083,70.1288372 94.7522083,72.1307366 C94.7522083,74.132636 93.1302368,75.7554961 91.1294334,75.7554961 C89.1286301,75.7554961 87.5066585,74.132636 87.5066585,72.1307366 C87.5088617,70.129751 89.1295434,68.5081814 91.1294334,68.5059771 Z" id="Shape" fill="#FFFFFF" fill-rule="nonzero"></path>
            </g>
        </g>
    </g>
</svg>