<?xml version="1.0" encoding="UTF-8"?>
<svg width="109px" height="102px" viewBox="0 0 109 102" version="1.1" xmlns="http://www.w3.org/2000/svg" xmlns:xlink="http://www.w3.org/1999/xlink">
    <!-- Generator: Sketch 52.4 (67378) - http://www.bohemiancoding.com/sketch -->
    <title>calendar</title>
    <desc>Created with Sketch.</desc>
    <defs>
        <rect id="path-1" x="0" y="6.98021978" width="79.4" height="72.4197802" rx="11.45"></rect>
        <filter x="-31.5%" y="-27.6%" width="163.0%" height="169.0%" filterUnits="objectBoundingBox" id="filter-2">
            <feOffset dx="0" dy="5" in="SourceAlpha" result="shadowOffsetOuter1"></feOffset>
            <feGaussianBlur stdDeviation="7.5" in="shadowOffsetOuter1" result="shadowBlurOuter1"></feGaussianBlur>
            <feColorMatrix values="0 0 0 0 0   0 0 0 0 0   0 0 0 0 0  0 0 0 0.1 0" type="matrix" in="shadowBlurOuter1"></feColorMatrix>
        </filter>
    </defs>
    <g id="Illustrations" stroke="none" stroke-width="1" fill="none" fill-rule="evenodd">
        <g transform="translate(-27.000000, -1132.000000)" id="Operations">
            <g transform="translate(42.000000, 48.000000)">
                <g id="calendar" transform="translate(0.000000, 1087.000000)">
                    <g id="Rectangle">
                        <use fill="black" fill-opacity="1" filter="url(#filter-2)" xlink:href="#path-1"></use>
                        <use fill="#FFFFFF" fill-rule="evenodd" xlink:href="#path-1"></use>
                    </g>
                    <path d="M79.3999869,15.5588071 L79.3999869,23.4212688 C61.205077,23.4884056 14.4443788,23.6450581 1.31159192e-05,23.4958652 L1.31159192e-05,15.5588071 C-0.00810489719,10.8321274 3.75325492,6.99256455 8.40387427,6.98021978 L70.9961257,6.98021978 C75.6467451,6.99256455 79.4081049,10.8321274 79.3999869,15.5588071 Z" id="Path" fill="#EDF2F6"></path>
                    <path d="M19.1919332,2.37582725e-15 C17.7499839,0.00367358678 16.5820554,1.0674003 16.578022,2.38069987 L16.578022,10.8268345 C16.6517631,12.0944903 17.8018181,13.0879121 19.1956044,13.0879121 C20.5893907,13.0879121 21.7394457,12.0944903 21.8131868,10.8268345 L21.8131868,2.38069987 C21.80513,1.0663193 20.6350863,0.00365102825 19.1919332,2.37582725e-15 Z" id="Path" fill="#BFD0DA"></path>
                    <path d="M39.2637363,0 C37.8197618,0.00364031464 36.650193,1.05773272 36.6461538,2.35913757 L36.6461538,10.7287745 C36.6461538,12.0316902 37.8180854,13.0879121 39.2637363,13.0879121 C40.7093871,13.0879121 41.8813187,12.0316902 41.8813187,10.7287745 L41.8813187,2.35913757 C41.8772796,1.05773272 40.7077107,0.00364031464 39.2637363,0 Z" id="Path" fill="#BFD0DA"></path>
                    <path d="M61.0732519,0 C59.6313026,0.00367358678 58.4633741,1.0674003 58.4593407,2.38069987 L58.4593407,10.8268345 C58.5330818,12.0944903 59.6831367,13.0879121 61.0769231,13.0879121 C62.4707094,13.0879121 63.6207643,12.0944903 63.6945055,10.8268345 L63.6945055,2.38069987 C63.6864487,1.0663193 62.5164049,0.00365102825 61.0732519,0 Z" id="Path" fill="#BFD0DA"></path>
                    <circle id="Oval" fill="#E3EBF1" cx="16.578022" cy="35.7736264" r="4.36263736"></circle>
                    <circle id="Oval" fill="#E3EBF1" cx="16.578022" cy="50.6065934" r="4.36263736"></circle>
                    <circle id="Oval" fill="#E3EBF1" cx="16.578022" cy="65.4395604" r="4.36263736"></circle>
                    <circle id="Oval" fill="#E3EBF1" cx="32.2835165" cy="35.7736264" r="4.36263736"></circle>
                    <circle id="Oval" fill="#04CC99" cx="32.2835165" cy="50.6065934" r="4.36263736"></circle>
                    <circle id="Oval" fill="#E3EBF1" cx="32.2835165" cy="65.4395604" r="4.36263736"></circle>
                    <circle id="Oval" fill="#E3EBF1" cx="47.1164835" cy="35.7736264" r="4.36263736"></circle>
                    <circle id="Oval" fill="#E3EBF1" cx="47.1164835" cy="50.6065934" r="4.36263736"></circle>
                    <circle id="Oval" fill="#E3EBF1" cx="47.1164835" cy="65.4395604" r="4.36263736"></circle>
                    <circle id="Oval" fill="#04CC99" cx="62.821978" cy="35.7736264" r="4.36263736"></circle>
                    <circle id="Oval" fill="#E3EBF1" cx="62.821978" cy="50.6065934" r="4.36263736"></circle>
                </g>
            </g>
        </g>
    </g>
</svg>