<?xml version="1.0" encoding="UTF-8"?>
<svg width="107px" height="100px" viewBox="0 0 107 100" version="1.1" xmlns="http://www.w3.org/2000/svg" xmlns:xlink="http://www.w3.org/1999/xlink">
    <!-- Generator: Sketch 52.4 (67378) - http://www.bohemiancoding.com/sketch -->
    <title>person</title>
    <desc>Created with Sketch.</desc>
    <defs>
        <path d="M37.289504,17.0308658 C38.017846,17.0102886 38.8032397,17 39.645685,17 C52.0855458,17 65.6118776,24.477946 80.2246805,39.4338379 C88.548577,51.3985515 89.8064477,60.9200655 83.9982925,67.9983799 C78.1922686,75.0740972 65.7561613,81.3708575 46.6899706,86.8886611 C43.2530881,87.9864079 39.5904784,88.5789474 35.7894737,88.5789474 C16.0234932,88.5789474 0,72.5554542 0,52.7894737 C0,33.0234932 16.0234932,17 35.7894737,17 C36.2919698,17 36.7920471,17.0103559 37.289504,17.0308658 Z" id="path-1"></path>
        <linearGradient x1="76.5024701%" y1="87.9944211%" x2="20.6120218%" y2="12.0677904%" id="linearGradient-3">
            <stop stop-color="#99AFD7" offset="0%"></stop>
            <stop stop-color="#C3CEE1" offset="100%"></stop>
        </linearGradient>
        <path d="M0.00940310708,5.30907043 C0.206404436,5.86492251 1.96264086,7.35198069 2.39075581,9.01812042 C2.64536353,10.0090039 2.45354688,11.0023388 2.45354688,11.7674966 C2.45354688,13.8192434 3.20633056,13.7410619 4.80688876,13.4305608 C6.30560189,14.2308855 6.56619917,16.0239699 8.24013617,16.9566775 C9.91407316,17.889385 12.8056449,14.5154707 13.7595884,15.4768075 C14.0711327,15.7907662 14.249985,16.3910567 14.8742326,16.9566775 C15.3075948,17.34934 15.4062153,18.3948459 15.1700939,20.0931953 C18.9503957,19.5934344 21.055717,18.4331613 21.4860579,16.612376 C20.7889821,15.3453747 19.1751094,11.4085863 19.1751094,10.334455 C19.1751094,9.26032372 21.8414852,5.16291109 14.5749467,1.18711853 C7.30840818,-2.78867402 -0.304758485,4.42264305 0.00940310708,5.30907043 Z" id="path-4"></path>
        <linearGradient x1="50%" y1="100%" x2="50%" y2="3.061617e-15%" id="linearGradient-6">
            <stop stop-color="#EDF3FD" offset="0%"></stop>
            <stop stop-color="#FFFFFF" offset="100%"></stop>
        </linearGradient>
        <path d="M19.2163162,13.9002327 C15.0881518,19.2036711 12.9211494,21.8553904 12.7153088,21.8553904 C12.406548,21.8553904 5.29523571,11.5155864 5.29523571,11.043481 C5.29523571,10.5713755 5.80244557,8.72007554 4.39518889,6.74522137 C2.9879322,4.77036719 2.12875021,1.31127157 1.3882551,0.695413149 C0.647759993,0.0795547267 0.642451784,-0.188910942 0.270213652,0.14440635 C-0.10202448,0.477723642 -0.0779163653,0.763198506 0.270213652,1.49053881 C0.61834367,2.21787912 1.3882551,4.30827727 1.3882551,4.84627891 C1.3882551,5.38428055 1.03216277,7.3009114 1.3882551,8.0307341 C1.74434743,8.76055679 1.40404283,11.6001854 1.84617237,13.0469675 C2.28830192,14.4937496 10.3046638,29.171527 12.6568638,28.8562635 C14.2249971,28.6460878 17.7787691,25.6390107 23.3181797,19.8350321 C24.1760817,17.2770627 23.9010315,15.519729 22.4930292,14.5630309 C21.0850268,13.6063328 19.9927892,13.3854 19.2163162,13.9002327 Z" id="path-7"></path>
        <linearGradient x1="3.21749237%" y1="50%" x2="81.4761324%" y2="50%" id="linearGradient-9">
            <stop stop-color="#D9E1F1" offset="0%"></stop>
            <stop stop-color="#BBC7DF" offset="100%"></stop>
        </linearGradient>
        <linearGradient x1="0%" y1="36.5977503%" x2="72.482512%" y2="73.5971602%" id="linearGradient-10">
            <stop stop-color="#D9E1F1" offset="0%"></stop>
            <stop stop-color="#FCFCFE" offset="100%"></stop>
        </linearGradient>
        <linearGradient x1="-8.95546568%" y1="107.033068%" x2="114.296249%" y2="59.2322695%" id="linearGradient-11">
            <stop stop-color="#F3DFD1" stop-opacity="0.126387002" offset="0%"></stop>
            <stop stop-color="#A5B2CA" offset="100%"></stop>
        </linearGradient>
        <radialGradient cx="50%" cy="1.74148935%" fx="50%" fy="1.74148935%" r="37.9875646%" gradientTransform="translate(0.500000,0.017415),scale(0.909091,1.000000),rotate(90.000000),scale(1.000000,2.667525),translate(-0.500000,-0.017415)" id="radialGradient-12">
            <stop stop-color="#303E57" offset="0%"></stop>
            <stop stop-color="#081E41" offset="100%"></stop>
        </radialGradient>
        <path d="M1.96054847,0.217198834 C1.96054847,0.792236273 3.22523704,2.52019062 5.4904837,2.52019062 C7.75573036,2.52019062 14.5355476,0.737527192 16.7829982,6.31003786 C19.0304489,11.8825485 15.9280865,12.1447258 19.5891504,16.1697511 C23.2502142,20.1947763 23.3900067,31.0918305 14.4402452,28.4859257 C5.4904837,25.8800208 6.90105284,14.0349127 6.90105284,10.8745752 C6.90105284,7.71423761 3.53749003,6.58460775 0.51919052,5.87196868 C-1.12567843,2.52019062 1.96054847,-0.357838605 1.96054847,0.217198834 Z" id="path-13"></path>
        <path d="M4.72238758,22.3879197 C4.09409693,19.9245768 0.457365375,6.75139143 1.28812542,3.44738399 C2.11888547,0.14337655 8.51301403,-1.46099921 9.18170777,2.44657297 C9.60172456,4.90097897 10.5003498,11.5352685 11.8775836,22.3494416 L11.8775784,22.3494423 C12.0465712,23.6763901 11.8083685,25.023366 11.1945356,26.2118769 L5.8021339,36.652712 L3.46476431,40.8687719 C2.01367172,40.6469984 0.950012838,39.6856534 0.273787671,37.9847371 C-0.0570104807,37.152677 0.147823837,36.1877548 0.620718068,35.1911184 C2.6541684,30.9055714 5.23213308,24.3864818 4.72238758,22.3879197 Z" id="path-15"></path>
        <linearGradient x1="46.8853726%" y1="24.146356%" x2="-17.2552992%" y2="100%" id="linearGradient-17">
            <stop stop-color="#D9E1F1" offset="0%"></stop>
            <stop stop-color="#B4C1DB" offset="100%"></stop>
        </linearGradient>
        <linearGradient x1="139.364173%" y1="31.9049427%" x2="3.0552666%" y2="98.507159%" id="linearGradient-18">
            <stop stop-color="#C2CCDF" offset="0%"></stop>
            <stop stop-color="#DDE4F2" offset="100%"></stop>
        </linearGradient>
        <circle id="path-19" cx="10.9303905" cy="26.1324278" r="10.0509338"></circle>
        <filter x="-149.2%" y="-119.4%" width="398.5%" height="398.5%" filterUnits="objectBoundingBox" id="filter-20">
            <feOffset dx="0" dy="6" in="SourceAlpha" result="shadowOffsetOuter1"></feOffset>
            <feGaussianBlur stdDeviation="9" in="shadowOffsetOuter1" result="shadowBlurOuter1"></feGaussianBlur>
            <feColorMatrix values="0 0 0 0 0   0 0 0 0 0   0 0 0 0 0  0 0 0 0.0416666667 0" type="matrix" in="shadowBlurOuter1"></feColorMatrix>
        </filter>
        <linearGradient x1="60.881%" y1="74.0327464%" x2="32.4700625%" y2="-13.3084847%" id="linearGradient-21">
            <stop stop-color="#15DABA" offset="0%"></stop>
            <stop stop-color="#13DEB4" offset="20.5%"></stop>
            <stop stop-color="#0DE8A2" offset="49.01%"></stop>
            <stop stop-color="#04F884" offset="82.08%"></stop>
            <stop stop-color="#00FF78" offset="100%"></stop>
        </linearGradient>
        <circle id="path-22" cx="37.0118846" cy="10" r="10"></circle>
        <filter x="-150.0%" y="-120.0%" width="400.0%" height="400.0%" filterUnits="objectBoundingBox" id="filter-23">
            <feOffset dx="0" dy="6" in="SourceAlpha" result="shadowOffsetOuter1"></feOffset>
            <feGaussianBlur stdDeviation="9" in="shadowOffsetOuter1" result="shadowBlurOuter1"></feGaussianBlur>
            <feColorMatrix values="0 0 0 0 0   0 0 0 0 0   0 0 0 0 0  0 0 0 0.0416666667 0" type="matrix" in="shadowBlurOuter1"></feColorMatrix>
        </filter>
        <circle id="path-24" cx="63.1952462" cy="26.1324278" r="10.0509338"></circle>
        <filter x="-149.2%" y="-119.4%" width="398.5%" height="398.5%" filterUnits="objectBoundingBox" id="filter-25">
            <feOffset dx="0" dy="6" in="SourceAlpha" result="shadowOffsetOuter1"></feOffset>
            <feGaussianBlur stdDeviation="9" in="shadowOffsetOuter1" result="shadowBlurOuter1"></feGaussianBlur>
            <feColorMatrix values="0 0 0 0 0   0 0 0 0 0   0 0 0 0 0  0 0 0 0.0416666667 0" type="matrix" in="shadowBlurOuter1"></feColorMatrix>
        </filter>
    </defs>
    <g id="Illustrations" stroke="none" stroke-width="1" fill="none" fill-rule="evenodd">
        <g transform="translate(-25.000000, -3088.000000)" id="Operations">
            <g transform="translate(42.000000, 48.000000)">
                <g id="person" transform="translate(0.000000, 3051.000000)">
                    <mask id="mask-2" fill="white">
                        <use xlink:href="#path-1"></use>
                    </mask>
                    <use id="Mask" fill-opacity="0.5" fill="#F0F5F8" xlink:href="#path-1"></use>
                    <g id="face" mask="url(#mask-2)">
                        <g transform="translate(28.000000, 36.000000)">
                            <mask id="mask-5" fill="white">
                                <use xlink:href="#path-4"></use>
                            </mask>
                            <use id="Mask" stroke="none" fill="url(#linearGradient-3)" fill-rule="evenodd" xlink:href="#path-4"></use>
                            <path d="M11.2241575,15.5557242 C12.3540849,14.7813892 13.8655606,12.2046425 13.8655606,12.0059169 C13.8655606,11.8734331 14.1303778,13.9657626 14.6600124,18.2829053 C11.6161575,16.9810079 10.4708725,16.0719475 11.2241575,15.5557242 Z" id="Path-95" stroke="none" fill="#6A87B9" fill-rule="evenodd" style="mix-blend-mode: multiply;" opacity="0.5" mask="url(#mask-5)"></path>
                            <path d="M5,15.1724293 C5.29086967,14.5677903 5.78920818,14.2097696 6.59697949,14" id="Path-5" stroke="#728BBB" stroke-width="0.5" fill="none" stroke-linecap="round" mask="url(#mask-5)"></path>
                        </g>
                    </g>
                    <path d="M18.9216705,73.7717683 C17.3165053,72.4817383 15.3296634,72.0396259 14.0824456,70.277691 C12.8352278,68.5157561 9.21245408,62.5943471 10.154505,61.8290801 C11.0965558,61.063813 13.4549217,59 14.3443394,59 C15.2337572,59 16.8689912,62.1297836 17.6821298,63.5537207 C18.4952685,64.9776577 19.864681,68.0125905 19.864681,69.2653262 C19.864681,70.5180619 20.5268356,75.0617982 18.9216705,73.7717683 Z" id="palm" fill="#C2CDE0" mask="url(#mask-2)"></path>
                    <g id="phone" mask="url(#mask-2)">
                        <g transform="translate(9.000000, 54.000000)">
                            <path d="M0.72829652,2.39150882 L4.2361931,0.335084925 C4.89219285,-0.0494798847 5.73521791,0.159903253 6.13505529,0.80670759 L11.7401385,9.87387426 C12.0886194,10.4376008 11.9141283,11.1770911 11.3504017,11.525572 C11.3399055,11.5320604 11.3293098,11.5383866 11.3186185,11.5445483 L7.55812194,13.7118015 C6.99349705,14.0372067 6.27236623,13.8525008 5.93369598,13.2957313 L0.309946748,4.05036064 C-0.0344709245,3.48414246 0.145333914,2.74592624 0.711552094,2.40150857 C0.71710639,2.39813002 0.72268805,2.39479666 0.72829652,2.39150882 Z" id="Rectangle-18" fill="#929FB8"></path>
                            <path d="M1.44203942,2.33254214 L5.11873662,0.294326776 C5.3989542,0.13898524 5.75178042,0.231213993 5.9201346,0.503812161 L11.4473652,9.45347408 C11.6214868,9.73541081 11.5340853,10.1051191 11.2521486,10.2792407 C11.2426637,10.2850985 11.2330174,10.2906908 11.2232209,10.2960111 L7.45226386,12.3439555 C7.17081755,12.4968043 6.8189409,12.4016573 6.65287498,12.1278017 L1.2199042,3.16841074 C1.04808388,2.88506569 1.13849255,2.51608125 1.4218376,2.34426093 C1.42849487,2.34022397 1.43523008,2.33631696 1.44203942,2.33254214 Z" id="Rectangle-18-Copy" fill="url(#linearGradient-6)"></path>
                        </g>
                    </g>
                    <g id="arm" mask="url(#mask-2)">
                        <g transform="translate(17.000000, 60.000000)">
                            <mask id="mask-8" fill="white">
                                <use xlink:href="#path-7"></use>
                            </mask>
                            <use id="Mask" stroke="none" fill="#C2CDE0" fill-rule="evenodd" xlink:href="#path-7"></use>
                            <path d="M17,14.9496772 C18.2639401,16.5490251 19.429971,17.9033793 20.4980927,19.0127397 C21.4115807,21.4201276 20.7134455,23.2025406 21.4115807,22.9539558 C22.1097158,22.7053709 23.4476199,15.9882009 22.7786679,14.9496772 C22.4964144,14.511489 20.4550478,12.7441652 18.8959102,13.0313826 C18.2930156,13.1424451 17.6610455,13.7818767 17,14.9496772 Z" id="Path-96" stroke="none" fill="#A5B2CA" fill-rule="evenodd" style="mix-blend-mode: multiply;" opacity="0.5" mask="url(#mask-8)"></path>
                            <path d="M12,22 C12.216928,22.1910147 12.5367189,22.9017753 12.799284,23.4812316" id="Path-6" stroke="#9FAEC9" stroke-width="0.5" fill="none" stroke-linecap="round" mask="url(#mask-8)"></path>
                        </g>
                    </g>
                    <path d="M39.1263801,76 C36.1712398,73.9695387 32.7457876,70.2388968 34.4585137,68.5879069 C36.1712398,66.936917 42.6421114,58.8696363 43.9782441,57.1814433 C45.3143768,55.4932504 47.0425793,66.0766992 45.1931447,68.5879069 C43.3437101,71.0991146 41.6477501,73.9182811 39.1263801,76 Z" id="sleeve" fill="url(#linearGradient-9)" mask="url(#mask-2)"></path>
                    <path d="M39.4934908,94.5863417 C39.1269265,91.9795973 41.3627304,84.0809627 39.31578,79.3863319 C38.4342062,77.364464 37.0962201,75.7315513 37.0074193,73.4704211 C36.8846792,70.3450914 38.3141063,66.6855241 39.1269265,65.1315473 C42.249148,59.1623798 42.1765778,55.8448491 43.0804651,54.899945 C44.3872854,54.899945 47.8948071,53.9126457 49.1834405,52 C50.6288706,52.8063765 55.6376706,58.5511175 57.1549392,61.7491916 C58.6722077,64.9472658 58.1887141,74.7886233 58.1887141,80.6815296 C58.1887141,86.574436 59,90.4511119 59,91.9795973 C59,93.5080826 40.0268199,98.3789995 39.4934908,94.5863417 Z" id="shirt" fill="url(#linearGradient-10)" mask="url(#mask-2)"></path>
                    <path d="M48.132265,95 C48.9963964,92.1005419 49.4284621,90.0755606 49.4284621,88.925056 C49.4284621,87.1992991 47.4841665,74.5394153 48.132265,73.126743 C48.5643307,72.1849614 50.186909,76.4917101 53,86.046989 C51.8032597,90.0623648 51.006088,92.5366102 50.608485,93.469725 C50.2108819,94.4028398 49.3854752,94.9129315 48.132265,95 Z" id="hadow" fill="url(#linearGradient-11)" style="mix-blend-mode: multiply;" mask="url(#mask-2)"></path>
                    <path d="M34.8978723,39.4128213 C30.2042396,36.8745945 28.7170359,41.4964116 28.030779,40.9090751 C26.2183514,38.6620804 27.1754561,36.1074773 28.030779,33.9732394 C29.4692601,30.3838803 38.2660912,24.4611976 45.1999498,30.7898214 C49.8225222,35.0089039 50.2277472,40.7456301 46.4156249,48 C45.2516823,47.5710567 44.522027,46.7695176 44.2266589,45.5953827 C43.9312909,44.4212478 42.4153384,43.5657952 39.6788015,43.0290249 C40.4458003,41.8698972 40.4458003,40.9386136 39.6788015,40.235174 C38.5283033,39.1800147 38.0291596,39.5221585 37.6745224,39.8741537 C37.4303562,39.9891944 37.2944252,40.5641507 37.2667294,41.5990227 C36.2920121,40.44911 35.5023931,39.7203762 34.8978723,39.4128213 Z" id="hair" fill="url(#radialGradient-12)" mask="url(#mask-2)"></path>
                    <g id="hair" mask="url(#mask-2)">
                        <g transform="translate(45.000000, 42.000000)">
                            <mask id="mask-14" fill="white">
                                <use xlink:href="#path-13"></use>
                            </mask>
                            <use id="Mask" stroke="none" fill="#223762" fill-rule="evenodd" xlink:href="#path-13"></use>
                            <path d="M0.657155582,5.61166712 C3.06826431,4.93573019 8.33986707,4.96626006 9.88690349,7.98586349 C11.4339399,11.0054669 13.9923048,24.6383359 8.29839837,25.2243952 C2.60449191,25.8104545 -1.75395315,6.28760405 0.657155582,5.61166712 Z" id="Path-2" stroke="none" fill="#223762" fill-rule="evenodd" style="mix-blend-mode: multiply;" opacity="0.300000012" mask="url(#mask-14)"></path>
                            <path d="M0.967830496,6.10987146 C0.967830496,4.77867528 1.03454329,2.49311337 3.13808591,1.37592933" id="Path-93" stroke="#38548E" stroke-width="1.2" fill="none" stroke-linecap="round" stroke-linejoin="round" mask="url(#mask-14)"></path>
                        </g>
                    </g>
                    <g id="arm" mask="url(#mask-2)">
                        <g transform="translate(47.000000, 65.000000)">
                            <mask id="mask-16" fill="white">
                                <use xlink:href="#path-15"></use>
                            </mask>
                            <use id="Mask" stroke="none" fill="#C2CDE0" fill-rule="evenodd" xlink:href="#path-15"></use>
                            <path d="M1.70641041,7.83388627 C4.18076704,8.34843548 8.60060515,8.60737382 10.5328812,7.83388627 C11.8210653,7.3182279 11.6174825,6.26190466 9.92213278,4.66491655 C2.79541344,6.43453022 0.0568393211,7.49085346 1.70641041,7.83388627 Z" id="Path-94" stroke="none" fill="#B2BDCF" fill-rule="evenodd" style="mix-blend-mode: multiply;" opacity="0.5" mask="url(#mask-16)"></path>
                        </g>
                    </g>
                    <path d="M46.2265592,72.9688699 C45.180912,70.0897175 43.2336942,58.3739935 48.5461933,57.0861137 C53.8586924,55.7982339 57,69.3622316 57,70.6398478 C57,71.917464 47.2722064,75.8480223 46.2265592,72.9688699 Z" id="sleeve" fill="url(#linearGradient-17)" mask="url(#mask-2)"></path>
                    <path d="M41.6197876,66.0190443 L44.3821368,66.8624586 C44.5920067,66.9265371 44.7213682,67.1368093 44.6839398,67.353028 L43.5982252,73.6250592 C43.5638494,73.8236437 43.3976513,73.9726641 43.1965074,73.9852568 L41.4831102,74.0925252 C41.3517775,74.1007474 41.2237742,74.0491178 41.1348993,73.9520757 L40.1142876,72.8376742 C40.0232383,72.7382578 39.9833892,72.6022657 40.0063833,72.4694317 L41.0637575,66.3611193 C41.1047631,66.1242352 41.3300372,65.9654444 41.5669212,66.00645 C41.5847885,66.0095429 41.602445,66.0137492 41.6197876,66.0190443 Z" id="pocket" fill="url(#linearGradient-18)" mask="url(#mask-2)"></path>
                    <g id="bubbles">
                        <g id="Oval">
                            <use fill="black" fill-opacity="1" filter="url(#filter-20)" xlink:href="#path-19"></use>
                            <use fill="#FFFFFF" fill-rule="evenodd" xlink:href="#path-19"></use>
                        </g>
                        <g id="check" transform="translate(6.000000, 22.000000)">
                            <path d="M3.31718292,5.86915828 C3.39538488,5.9558054 3.49758744,5.99935861 3.59998999,5.99999293 C3.70239256,6.00062758 3.80459512,5.95851897 3.88279706,5.87340259 L5.88284708,3.74328868 C6.03905097,3.58073955 6.03905097,3.30960141 5.88284708,3.13661986 C5.72664316,2.9630918 5.47343684,2.95339858 5.31723294,3.11596364 L3.59998999,4.93931009 L2.68276706,3.90732723 C2.52656316,3.7296886 2.27335684,3.72240497 2.11715292,3.89203661 C1.96094903,4.06221201 1.96094903,4.34489799 2.11715292,4.52252493 L3.31718292,5.86915828 Z" id="Shape" fill="#FFFFFF"></path>
                            <g id="success" fill="#04CC99">
                                <path d="M4.5,0 C2.01876923,0 0,2.01859616 0,4.5 C0,6.98140384 2.01876923,9 4.5,9 C6.98123077,9 9,6.98140384 9,4.5 C9,2.01859616 6.98123077,0 4.5,0 Z M7.00875,2.99925 L4.23951923,6.11463461 C4.17132693,6.19130768 4.07630768,6.23076923 3.98059616,6.23076923 C3.90461539,6.23076923 3.82828846,6.20584616 3.76442307,6.15496154 L2.03365384,4.77034616 C1.88446154,4.65109616 1.86023077,4.43319232 1.97965384,4.28382693 C2.09890384,4.13446154 2.31698077,4.11023077 2.46617307,4.22965384 L3.94026923,5.40882693 L6.49125,2.53903846 C6.61794232,2.39607693 6.83705768,2.38326923 6.97984616,2.51030768 C7.12280768,2.63751923 7.13578846,2.85628846 7.00875,2.99925 Z" id="Shape"></path>
                            </g>
                        </g>
                        <g id="Oval">
                            <use fill="black" fill-opacity="1" filter="url(#filter-23)" xlink:href="#path-22"></use>
                            <use fill="#FFFFFF" fill-rule="evenodd" xlink:href="#path-22"></use>
                        </g>
                        <g id="Oval">
                            <use fill="black" fill-opacity="1" filter="url(#filter-25)" xlink:href="#path-24"></use>
                            <use fill="#FFFFFF" fill-rule="evenodd" xlink:href="#path-24"></use>
                        </g>
                        <rect id="Rectangle" fill="#E3ECF3" x="61" y="25" width="8" height="2" rx="1"></rect>
                        <rect id="Rectangle" fill="#04CC99" x="56" y="25" width="7" height="2" rx="1"></rect>
                        <path d="M41,13.2195122 L41,6.7804878 C41,6.34943629 40.6505637,6 40.2195122,6 L33.7804878,6 C33.3494363,6 33,6.34943629 33,6.7804878 L33,13.2195122 C33,13.6505637 33.3494363,14 33.7804878,14 L40.2195122,14 C40.6505637,14 41,13.6505637 41,13.2195122 Z" id="Shape" fill="#04CC99" fill-rule="nonzero"></path>
                        <path d="M38.88963,9.26200593 C38.8550442,9.11213005 38.7109609,9.00359924 38.5419125,9.00008757 C38.3728641,8.99657591 38.2234359,9.09900956 38.1812961,9.24729162 L37.5179623,10.5678069 C37.5031008,10.5973743 37.4724819,10.617936 37.4369204,10.6222294 C37.4013588,10.6265229 37.36586,10.6139438 37.3429622,10.5889351 L36.8846285,10.093176 C36.7853687,9.97139999 36.6238073,9.90454168 36.4571614,9.91627897 C36.2905156,9.92801626 36.1423148,10.0166919 36.0650445,10.1509013 L35.0296271,11.7143914 C34.991055,11.7726792 34.9900829,11.845247 35.0270822,11.9043648 C35.0640815,11.9634827 35.1333342,12.0000143 35.2083772,12 L39.791714,12 C39.8608597,11.9999854 39.925492,11.9689071 39.9642316,11.9170454 C40.0029712,11.8651836 40.0107697,11.7992966 39.9850475,11.741179 L38.88963,9.26200593 Z" id="Path" fill="#FFFFFF"></path>
                        <circle id="Oval" fill="#FFFFFF" cx="35" cy="8" r="1"></circle>
                    </g>
                </g>
            </g>
        </g>
    </g>
</svg>