<?xml version="1.0" encoding="UTF-8"?>
<svg width="105px" height="110px" viewBox="0 0 105 110" version="1.1" xmlns="http://www.w3.org/2000/svg" xmlns:xlink="http://www.w3.org/1999/xlink">
    <!-- Generator: Sketch 55.2 (78181) - https://sketchapp.com -->
    <title>analytics</title>
    <desc>Created with Sketch.</desc>
    <defs>
        <path d="M73.5166269,80 L1.83213466,80 C0.820278593,80 0,79.1802203 0,78.1688539 L0,1.83114609 C0,0.819779651 0.820278593,0 1.83213466,0 L73.5166269,0 C74.5285586,0 75.3488372,0.819779651 75.3488372,1.83114609 L75.3488372,78.1688539 C75.3488372,79.1768507 74.5340842,79.9945444 73.5166269,80 Z" id="path-1"></path>
        <filter x="-33.2%" y="-25.0%" width="166.4%" height="162.5%" filterUnits="objectBoundingBox" id="filter-2">
            <feOffset dx="0" dy="5" in="SourceAlpha" result="shadowOffsetOuter1"></feOffset>
            <feGaussianBlur stdDeviation="7.5" in="shadowOffsetOuter1" result="shadowBlurOuter1"></feGaussianBlur>
            <feColorMatrix values="0 0 0 0 0   0 0 0 0 0   0 0 0 0 0  0 0 0 0.1 0" type="matrix" in="shadowBlurOuter1"></feColorMatrix>
        </filter>
        <path d="M73.5166269,80 L1.83213466,80 C0.820278593,80 0,79.1802203 0,78.1688539 L0,1.83114609 C0,0.819779651 0.820278593,0 1.83213466,0 L73.5166269,0 C74.5285586,0 75.3488372,0.819779651 75.3488372,1.83114609 L75.3488372,78.1688539 C75.3488372,79.1768507 74.5340842,79.9945444 73.5166269,80 Z" id="path-3"></path>
        <filter x="-33.2%" y="-25.0%" width="166.4%" height="162.5%" filterUnits="objectBoundingBox" id="filter-4">
            <feOffset dx="0" dy="5" in="SourceAlpha" result="shadowOffsetOuter1"></feOffset>
            <feGaussianBlur stdDeviation="7.5" in="shadowOffsetOuter1" result="shadowBlurOuter1"></feGaussianBlur>
            <feColorMatrix values="0 0 0 0 0   0 0 0 0 0   0 0 0 0 0  0 0 0 0.1 0" type="matrix" in="shadowBlurOuter1"></feColorMatrix>
        </filter>
        <linearGradient x1="56.5924134%" y1="-10.2329426%" x2="50%" y2="58.3020252%" id="linearGradient-5">
            <stop stop-color="#D0D0D0" offset="0%"></stop>
            <stop stop-color="#FFFFFF" offset="100%"></stop>
        </linearGradient>
    </defs>
    <g id="Mobile-Illustrations" stroke="none" stroke-width="1" fill="none" fill-rule="evenodd">
        <g id="Illustrations" transform="translate(-26.000000, -6974.000000)">
            <g id="Operations" transform="translate(40.000000, 56.000000)">
                <g id="analytics" transform="translate(1.000000, 6928.000000)">
                    <g id="base">
                        <use fill="black" fill-opacity="1" filter="url(#filter-2)" xlink:href="#path-1"></use>
                        <use fill="#FFFFFF" fill-rule="evenodd" xlink:href="#path-1"></use>
                    </g>
                    <g id="base">
                        <use fill="black" fill-opacity="1" filter="url(#filter-4)" xlink:href="#path-3"></use>
                        <use fill="#FFFFFF" fill-rule="evenodd" xlink:href="#path-3"></use>
                    </g>
                    <g id="shadow" opacity="0.872367932" transform="translate(13.023256, 39.023256)" fill="#E3ECF3">
                        <path d="M12.1321549,13.8102322 L1.26697559,13.8102322 C0.635336702,13.8102322 0.123269653,13.3009845 0.123269653,12.6728072 L0.123269653,1.86715421 C0.123269653,1.23897667 0.635336702,0.729729093 1.26697559,0.729729093 L12.1321549,0.729729093 C12.7637938,0.729729093 13.2758474,1.23897667 13.2758474,1.86715421 L13.2758474,12.6728072 C13.2758474,13.2972533 12.7698669,13.8041788 12.1321549,13.8102322 Z" id="-copy-7"></path>
                        <path d="M12.1321549,29.7343332 L1.26697559,29.7343332 C0.635336702,29.7343332 0.123269653,29.225076 0.123269653,28.5968987 L0.123269653,17.7912604 C0.123269653,17.1630698 0.635336702,16.6538263 1.26697559,16.6538263 L12.1321549,16.6538263 C12.7637938,16.6538263 13.2758474,17.1630698 13.2758474,17.7912604 L13.2758474,28.5968987 C13.2758474,29.2213498 12.7698669,29.7282779 12.1321549,29.7343332 Z" id="-copy-8"></path>
                        <path d="M50.3318138,4.36952444 L15.563251,4.36952444 C15.3737728,4.36952444 15.220164,4.21675174 15.220164,4.02828666 L15.220164,1.29844826 C15.220164,1.10998318 15.3737728,0.957210479 15.563251,0.957210479 L50.3318138,0.957210479 C50.5213277,0.957210479 50.6749367,1.10998318 50.6749367,1.29844826 L50.6749367,4.02828666 C50.6749367,4.21321591 50.5270197,4.36377777 50.3318138,4.36952444 Z" id="-copy"></path>
                        <path d="M42.3258981,10.9869264 L15.5632532,10.9869264 C15.3737675,10.9869264 15.2201612,10.8341607 15.2201612,10.6457031 L15.2201612,7.91585093 C15.2201612,7.72739337 15.3737675,7.57462762 15.5632532,7.57462762 L42.3258981,7.57462762 C42.5154116,7.57462762 42.6690179,7.72739337 42.6690179,7.91585093 L42.6690179,10.6457031 C42.6690179,10.8306264 42.521109,10.9811865 42.3258981,10.9869264 Z" id="-copy-3"></path>
                        <path d="M49.9953708,20.3138893 L15.226808,20.3138893 C15.0373297,20.3138893 14.8837209,20.1611166 14.8837209,19.9726515 L14.8837209,17.2428131 C14.8837209,17.054348 15.0373297,16.9015753 15.226808,16.9015753 L49.9953708,16.9015753 C50.1848846,16.9015753 50.3384936,17.054348 50.3384936,17.2428131 L50.3384936,19.9726515 C50.3384936,20.1575807 50.1905767,20.3081426 49.9953708,20.3138893 Z" id="-copy"></path>
                        <path d="M41.9894578,26.825502 L15.2268129,26.825502 C15.0373272,26.825502 14.8837209,26.6727363 14.8837209,26.4842787 L14.8837209,23.7544265 C14.8837209,23.565969 15.0373272,23.4132032 15.2268129,23.4132032 L41.9894578,23.4132032 C42.1789713,23.4132032 42.3325777,23.565969 42.3325777,23.7544265 L42.3325777,26.4842787 C42.3325777,26.6692021 42.1846687,26.8197621 41.9894578,26.825502 Z" id="-copy-3"></path>
                    </g>
                    <g id="chart" transform="translate(12.093023, 12.093023)">
                        <path d="M21.7203357,21.1740776 L1.28618286,21.1740776 C0.644962899,21.1740776 0.125134124,20.6616415 0.125134124,20.0295213 L0.125134124,1.25900335 C0.125134124,0.626883186 0.644962899,0.114447109 1.28618286,0.114447109 L21.7203357,0.114447109 C22.3615326,0.114447109 22.8813614,0.626883186 22.8813614,1.25900335 L22.8813614,20.0295213 C22.8813614,20.6578734 22.3677015,21.1679678 21.7203357,21.1740776 Z" id="base" fill="#FFFFFF"></path>
                        <g id="Group" transform="translate(1.664732, 1.419036)">
                            <polygon id="Path-18" fill="url(#linearGradient-5)" points="0.297778591 14.4879406 3.24224496 8.48794063 7.24224496 9.48794063 9.2592994 5.48794063 15.242245 3.48794063 19.242245 6.48794063 24.242245 3.48794063 28.242245 8.48794063 34.242245 6.48794063 39.242245 8.48794063 44.2152171 6.48794063 48.242245 1.48794063 50.242245 7.48794063 50.242245 21.4879406 0.297778591 21.4879406"></polygon>
                            <path d="M0.151603574,14.5247917 C0.151603574,14.5247917 0.982368093,12.7182457 2.6438565,9.10516554 L6.6722964,9.89299478 L9.77094159,5.71716414 L14.9051509,3.68555124 L19.3902797,6.62540677 L24.242245,3.68555124 L28.242245,8.48794063 L34.242245,6.62540677 L39.242245,8.48794063 L44.2152171,6.62540677 L48.242245,2.48794063 L50.242245,7.48794063" id="Path" stroke="#E7EFF5" stroke-width="1.5"></path>
                            <path d="M6.84412993,11.001245 C7.54152402,11.001245 8.10686446,10.4439227 8.10686446,9.7564215 C8.10686446,9.06895015 7.54152402,8.51162791 6.84412993,8.51162791 C6.14673578,8.51162791 5.58139535,9.06895015 5.58139535,9.7564215 C5.58139535,10.4439227 6.14673578,11.001245 6.84412993,11.001245 Z" id="Path" fill="#04CC99"></path>
                            <path d="M2.19296709,10.0710112 C2.89036122,10.0710112 3.45570162,9.51368922 3.45570162,8.82622111 C3.45570162,8.13873356 2.89036122,7.58139535 2.19296709,7.58139535 C1.49557296,7.58139535 0.930232558,8.13873356 0.930232558,8.82622111 C0.930232558,9.51368922 1.49557296,10.0710112 2.19296709,10.0710112 Z" id="Path" fill="#04CC99"></path>
                            <path d="M9.63482755,7.28031479 C10.3322184,7.28031479 10.8975818,6.72299254 10.8975818,6.03549129 C10.8975818,5.34801992 10.3322184,4.79069767 9.63482755,4.79069767 C8.93745313,4.79069767 8.37209302,5.34801992 8.37209302,6.03549129 C8.37209302,6.72299254 8.93745313,7.28031479 9.63482755,7.28031479 Z" id="Path" fill="#04CC99"></path>
                            <path d="M15.2162229,4.48961712 C15.913617,4.48961712 16.4789575,3.93227992 16.4789575,3.24479362 C16.4789575,2.55732225 15.913617,2 15.2162229,2 C14.5188288,2 13.9534884,2.55732225 13.9534884,3.24479362 C13.9534884,3.93227992 14.5188288,4.48961712 15.2162229,4.48961712 Z" id="Path" fill="#04CC99"></path>
                            <path d="M19.2627345,7.48961712 C19.9601287,7.48961712 20.5254691,6.93227992 20.5254691,6.24479362 C20.5254691,5.55732225 19.9601287,5 19.2627345,5 C18.5653404,5 18,5.55732225 18,6.24479362 C18,6.93227992 18.5653404,7.48961712 19.2627345,7.48961712 Z" id="Path" fill="#04CC99"></path>
                            <path d="M24.2627345,4.48961712 C24.9601287,4.48961712 25.5254691,3.93227992 25.5254691,3.24479362 C25.5254691,2.55732225 24.9601287,2 24.2627345,2 C23.5653404,2 23,2.55732225 23,3.24479362 C23,3.93227992 23.5653404,4.48961712 24.2627345,4.48961712 Z" id="Path" fill="#04CC99"></path>
                            <path d="M28.2627345,9.48961712 C28.9601287,9.48961712 29.5254691,8.93227992 29.5254691,8.24479362 C29.5254691,7.55732225 28.9601287,7 28.2627345,7 C27.5653404,7 27,7.55732225 27,8.24479362 C27,8.93227992 27.5653404,9.48961712 28.2627345,9.48961712 Z" id="Path" fill="#04CC99"></path>
                            <path d="M34.2627345,7.48961712 C34.9601287,7.48961712 35.5254691,6.93227992 35.5254691,6.24479362 C35.5254691,5.55732225 34.9601287,5 34.2627345,5 C33.5653404,5 33,5.55732225 33,6.24479362 C33,6.93227992 33.5653404,7.48961712 34.2627345,7.48961712 Z" id="Path" fill="#04CC99"></path>
                            <path d="M39.2627345,9.48961712 C39.9601287,9.48961712 40.5254691,8.93227992 40.5254691,8.24479362 C40.5254691,7.55732225 39.9601287,7 39.2627345,7 C38.5653404,7 38,7.55732225 38,8.24479362 C38,8.93227992 38.5653404,9.48961712 39.2627345,9.48961712 Z" id="Path" fill="#04CC99"></path>
                            <path d="M44.2627345,7.48961712 C44.9601287,7.48961712 45.5254691,6.93227992 45.5254691,6.24479362 C45.5254691,5.55732225 44.9601287,5 44.2627345,5 C43.5653404,5 43,5.55732225 43,6.24479362 C43,6.93227992 43.5653404,7.48961712 44.2627345,7.48961712 Z" id="Path" fill="#04CC99"></path>
                            <path d="M48.2627345,2.48961712 C48.9601287,2.48961712 49.5254691,1.93227992 49.5254691,1.24479362 C49.5254691,0.557322252 48.9601287,0 48.2627345,0 C47.5653404,0 47,0.557322252 47,1.24479362 C47,1.93227992 47.5653404,2.48961712 48.2627345,2.48961712 Z" id="Path" fill="#04CC99"></path>
                        </g>
                    </g>
                </g>
            </g>
        </g>
    </g>
</svg>