<?xml version="1.0" encoding="UTF-8"?>
<svg width="92px" height="87px" viewBox="0 0 92 87" version="1.1" xmlns="http://www.w3.org/2000/svg" xmlns:xlink="http://www.w3.org/1999/xlink">
    <!-- Generator: Sketch 55.2 (78181) - https://sketchapp.com -->
    <title>note</title>
    <desc>Created with Sketch.</desc>
    <defs>
        <linearGradient x1="-58.3455064%" y1="-8.43573356%" x2="94.6551997%" y2="71.6657063%" id="linearGradient-1">
            <stop stop-color="#626C76" offset="0%"></stop>
            <stop stop-color="#A2B9D1" offset="100%"></stop>
        </linearGradient>
        <linearGradient x1="50%" y1="100%" x2="102.742279%" y2="-18.6035779%" id="linearGradient-2">
            <stop stop-color="#95ABC2" stop-opacity="0.244084013" offset="0%"></stop>
            <stop stop-color="#FFFFFF" offset="100%"></stop>
        </linearGradient>
        <path d="M1.69926606,0 L3.61986637,0 L3.61986637,1.91357688 C3.61986637,2.8539262 2.85907905,3.61622994 1.92060033,3.61622994 L0,3.61622994 L0,1.70265306 C0,0.762303742 0.760787327,0 1.69926606,0 Z" id="path-3"></path>
        <path d="M1.69926606,0 L3.61986637,0 L3.61986637,1.91357688 C3.61986637,2.8539262 2.85907905,3.61622994 1.92060033,3.61622994 L0,3.61622994 L0,1.70265306 C0,0.762303742 0.760787327,0 1.69926606,0 Z" id="path-5"></path>
        <linearGradient x1="-26.6372833%" y1="50%" x2="100%" y2="50%" id="linearGradient-7">
            <stop stop-color="#F5F7FA" offset="0%"></stop>
            <stop stop-color="#C3CFE2" offset="100%"></stop>
        </linearGradient>
        <linearGradient x1="-26.6372833%" y1="50%" x2="100%" y2="50%" id="linearGradient-8">
            <stop stop-color="#F5F7FA" offset="0%"></stop>
            <stop stop-color="#C3CFE2" offset="100%"></stop>
        </linearGradient>
        <linearGradient x1="-26.6372833%" y1="50%" x2="100%" y2="50%" id="linearGradient-9">
            <stop stop-color="#7D8B9B" offset="0%"></stop>
            <stop stop-color="#A2B9D1" offset="100%"></stop>
        </linearGradient>
        <linearGradient x1="100%" y1="83.0841856%" x2="0%" y2="16.9158144%" id="linearGradient-10">
            <stop stop-color="#93A5CF" offset="0%"></stop>
            <stop stop-color="#E4EFE9" offset="100%"></stop>
        </linearGradient>
        <linearGradient x1="100%" y1="100%" x2="-1.11022302e-14%" y2="0%" id="linearGradient-11">
            <stop stop-color="#93A5CF" offset="0%"></stop>
            <stop stop-color="#E4EFE9" offset="100%"></stop>
        </linearGradient>
        <linearGradient x1="100%" y1="100%" x2="-2.22044605e-14%" y2="0%" id="linearGradient-12">
            <stop stop-color="#93A5CF" offset="0%"></stop>
            <stop stop-color="#E4EFE9" offset="100%"></stop>
        </linearGradient>
        <linearGradient x1="100%" y1="100%" x2="-1.11022302e-14%" y2="0%" id="linearGradient-13">
            <stop stop-color="#93A5CF" offset="0%"></stop>
            <stop stop-color="#E4EFE9" offset="100%"></stop>
        </linearGradient>
        <linearGradient x1="-26.6372833%" y1="50%" x2="100%" y2="50%" id="linearGradient-14">
            <stop stop-color="#F5F7FA" offset="0%"></stop>
            <stop stop-color="#C3CFE2" offset="100%"></stop>
        </linearGradient>
    </defs>
    <g id="Page-1" stroke="none" stroke-width="1" fill="none" fill-rule="evenodd">
        <g id="note" transform="translate(-5.000000, -11.000000)">
            <ellipse id="hole" fill="url(#linearGradient-1)" fill-rule="nonzero" cx="62.2874618" cy="86.9435889" rx="33.7155963" ry="10.8707026"></ellipse>
            <g id="fly" transform="translate(49.876947, 51.959308) rotate(-22.000000) translate(-49.876947, -51.959308) translate(13.376947, 10.959308)">
                <path d="M11.1280482,65.535623 C21.0246069,76.6353522 29.5462696,78.0095973 36.6930363,69.6583582 C41.5230267,60.1050049 36.2265057,53.3554006 37.4416425,48.1122117 C39.7668221,38.079303 50.8019523,33.1306213 57.7271078,37.8443472 C60.3410957,39.6236028 59.1509548,50.2070347 45.2231083,46.9098894 C40.3164235,45.7483276 36.8764576,41.1457639 38.1883625,32.385282 C40.1940364,18.9920313 61.2762573,19.1284913 61.9016846,18.6998494" id="path" stroke="url(#linearGradient-2)" stroke-width="1.2" stroke-linecap="round" stroke-linejoin="round" stroke-dasharray="1.2,3" transform="translate(36.514866, 46.868296) scale(-1, 1) rotate(-65.000000) translate(-36.514866, -46.868296) "></path>
                <g id="bee" transform="translate(49.379344, 8.068983) rotate(-78.000000) translate(-49.379344, -8.068983) translate(42.879344, 1.568983)">
                    <path d="M3.43235589,6.39840281 C4.83239466,4.8854254 5.53279742,3.74389769 5.53356518,2.97381964 C5.53471418,1.81870259 4.59642908,0.883230288 3.43784574,0.884382727 C2.2792624,0.885537297 1.33911272,1.82287979 1.33796204,2.97799685 C1.33719597,3.7480749 2.03532704,4.8882102 3.43235589,6.39840281 Z" id="Oval" fill="#8EA8C0" fill-rule="nonzero" opacity="0.400000006" transform="translate(3.435764, 3.641393) rotate(-45.000000) translate(-3.435764, -3.641393) "></path>
                    <path d="M8.76595869,11.538193 C10.1659974,10.0252156 10.8664002,8.88368787 10.867168,8.11360981 C10.8683169,6.95849276 9.93003188,6.02302047 8.77144854,6.0241729 C7.6128652,6.02532748 6.67271552,6.96266997 6.67156484,8.11778702 C6.67079877,8.88786508 7.36892984,10.0280004 8.76595869,11.538193 Z" id="Oval-Copy" fill="#D2DCE6" fill-rule="nonzero" opacity="0.989541487" transform="translate(8.769366, 8.781183) rotate(135.000000) translate(-8.769366, -8.781183) "></path>
                    <g id="Rectangle-4" transform="translate(4.381944, 4.206903)">
                        <g id="Mask" fill="#A8B7C5" fill-rule="nonzero">
                            <path d="M1.69926606,0 L3.61986637,0 L3.61986637,1.91357688 C3.61986637,2.8539262 2.85907905,3.61622994 1.92060033,3.61622994 L0,3.61622994 L0,1.70265306 C0,0.762303742 0.760787327,0 1.69926606,0 Z" id="path-3"></path>
                        </g>
                        <g id="Clipped">
                            <g id="Rectangle-Clipped">
                                <mask id="mask-4" fill="white">
                                    <use xlink:href="#path-3"></use>
                                </mask>
                                <g id="path-3"></g>
                                <polygon id="Rectangle" fill="#DDE5F2" fill-rule="nonzero" mask="url(#mask-4)" transform="translate(1.047856, 2.283935) rotate(-45.000000) translate(-1.047856, -2.283935) " points="0.763874554 0.192695067 1.33600202 0.192125448 1.33183731 4.37517437 0.759709842 4.37574399"></polygon>
                            </g>
                        </g>
                        <g id="Rectangle-4-Copy-Clipped">
                            <g>
                                <mask id="mask-6" fill="white">
                                    <use xlink:href="#path-5"></use>
                                </mask>
                                <g id="path-5"></g>
                                <polygon id="Rectangle-4-Copy" fill="#DDE5F2" fill-rule="nonzero" mask="url(#mask-6)" points="0.509357994 0.0540861684 0.913510426 -0.350302829 3.87258553 2.61050432 3.46843308 3.0148933"></polygon>
                            </g>
                        </g>
                    </g>
                    <path d="M9.94546482,3.3008689 L11.3358974,2.96977142" id="Path-7-Copy" stroke="#8696C5" stroke-width="0.5"></path>
                    <path d="M9.37390697,2.72988522 L9.90887548,1.35276492" id="Path-7" stroke="#8696C5" stroke-width="0.5"></path>
                    <ellipse id="Oval-4" fill="#8B9AA8" fill-rule="nonzero" cx="8.57336775" cy="3.82624694" rx="1.52415427" ry="1.52262314"></ellipse>
                </g>
            </g>
            <g id="tube" transform="translate(58.241590, 50.848397)" fill-rule="nonzero">
                <path d="M7.49235474,4.26325641e-14 C11.630268,4.26325641e-14 14.9847095,3.36112762 14.9847095,7.50728863 L14.9847095,46.4348375 C12.3803784,46.7668365 10.182621,46.9567499 8.39143731,47.0045773 C6.60025364,47.0524047 3.80310788,47.034886 -3.55271368e-15,46.9520209 L-3.55271368e-15,7.50728863 C-3.55271368e-15,3.36112762 3.35444149,4.26325641e-14 7.49235474,4.26325641e-14 Z" id="Combined-Shape" fill="url(#linearGradient-7)"></path>
                <path d="M7.49235474,0 L27.8715596,0 L27.8715596,15.0145773 L11.883224,15.0145773 L0,15.0145773 L0,7.50728863 C0,3.36112762 3.35444149,0 7.49235474,0 Z" id="Rectangle-2" fill="url(#linearGradient-8)"></path>
                <ellipse id="Oval" fill="url(#linearGradient-9)" cx="27.7217125" cy="7.50728863" rx="3.44648318" ry="7.50728863"></ellipse>
            </g>
            <g id="lines" opacity="0.5" transform="translate(91.949514, 50.399965) rotate(89.000000) translate(-91.949514, -50.399965) translate(85.449514, 45.399965)" fill-rule="nonzero">
                <path d="M7.37690199,4.86052493 L5.86481872,1.93168139 C5.70629905,1.6246353 5.33246468,1.50610671 5.02983624,1.66694038 C4.72720781,1.82777404 4.61038456,2.20706554 4.76890423,2.51411163 L6.2809875,5.44295515 C6.43950714,5.75000128 6.81334151,5.86852986 7.11596995,5.70769617 C7.41859838,5.54686251 7.53542163,5.16757102 7.37690199,4.86052493 Z" id="Line" fill="url(#linearGradient-11)"></path>
                <path d="M3.57259249,8.21957265 L2.06217547,5.29281286 C1.9038305,4.98598522 1.52996046,4.86777251 1.22711336,5.02877737 C0.924266255,5.18978224 0.807124135,5.56903543 0.965469104,5.87586308 L2.47588612,8.80262286 C2.63423109,9.10945053 3.00810114,9.22766324 3.31094825,9.06665835 C3.61379535,8.90565348 3.73093745,8.52640029 3.57259249,8.21957265 Z" id="Line-Copy" fill="url(#linearGradient-12)" transform="translate(2.269031, 7.047718) rotate(-24.000000) translate(-2.269031, -7.047718) "></path>
                <path d="M11.9978355,3.78163037 L10.4824759,0.852938325 C10.3236128,0.54590811 9.94948998,0.427115812 9.64684928,0.587608303 C9.34420858,0.748100792 9.22765385,1.12710283 9.38651697,1.43413304 L10.9018766,4.3628251 C11.0607397,4.66985531 11.4348625,4.7886476 11.7375032,4.62815513 C12.0401438,4.46766262 12.1566986,4.08866058 11.9978355,3.78163037 Z" id="Line-Copy-2" fill="url(#linearGradient-13)" transform="translate(10.692176, 2.607882) rotate(30.000000) translate(-10.692176, -2.607882) "></path>
            </g>
            <g id="yellow-note" transform="translate(2.896024, 56.755102)" fill-rule="nonzero">
                <polygon id="Path-70" fill-opacity="0.299999982" fill="url(#linearGradient-14)" style="mix-blend-mode: multiply;" points="6.82872499 11.2823502 13.5953234 17.4314081 25.9506186 15.2325609 18.2230503 9.15776054"></polygon>
                <g id="yellow" transform="translate(11.970995, 9.969563) rotate(15.000000) translate(-11.970995, -9.969563) translate(2.470995, 2.969563)">
                    <path d="M15.8759012,1.13526181 C16.4337515,1.68534939 16.9092867,2.21875981 17.3025065,2.73549307 C18.1210859,3.81119459 18.3654898,5.29804679 18.3085729,5.33559846 C17.9980595,5.54046375 16.2227102,4.35866613 15.8759012,3.39881199 C15.6679891,2.82337905 15.6679891,2.06886232 15.8759012,1.13526181 Z" id="Path-12" fill="#04CC99"></path>
                    <g id="Path-12-2" transform="translate(15.719967, 1.135262)" fill="#000000" fill-opacity="0.2">
                        <path d="M0.155934075,-1.15463195e-14 C0.713784375,0.55008758 1.18931957,1.083498 1.58253937,1.60023126 C2.40111877,2.67593278 2.64552267,4.16278498 2.58860577,4.20033665 C2.27809237,4.40520194 0.502743075,3.22340432 0.155934075,2.26355018 C-0.051978025,1.68811724 -0.051978025,0.93360051 0.155934075,-1.15463195e-14 Z" id="Path-12"></path>
                    </g>
                    <path d="M0.998342677,10.5727674 C5.07904143,7.77958492 7.21829958,4.29958182 7.41611717,0.132758106 C8.48763005,-0.0274858555 10.5574246,0.172456493 15.750569,1.07776506 C16.2341867,1.16207298 16.2769489,1.93123904 15.8788556,3.38526325 C17.6297319,4.02898848 18.4319867,4.64217324 18.28562,5.22481761 C17.0166224,10.2763349 15.3377859,12.5794588 12.8040364,13.6617375 C9.89760553,14.0316757 5.96237426,13.002019 0.998342677,10.5727674 Z" id="Path-9" fill="#04CC99"></path>
                </g>
            </g>
        </g>
    </g>
</svg>