<?xml version="1.0" encoding="UTF-8"?>
<svg width="110px" height="129px" viewBox="0 0 110 129" version="1.1" xmlns="http://www.w3.org/2000/svg" xmlns:xlink="http://www.w3.org/1999/xlink">
    <!-- Generator: Sketch 55.2 (78181) - https://sketchapp.com -->
    <title>poll</title>
    <desc>Created with Sketch.</desc>
    <defs>
        <filter x="-48.8%" y="-100.0%" width="197.5%" height="300.0%" filterUnits="objectBoundingBox" id="filter-1">
            <feOffset dx="0" dy="5" in="SourceAlpha" result="shadowOffsetOuter1"></feOffset>
            <feGaussianBlur stdDeviation="7.5" in="shadowOffsetOuter1" result="shadowBlurOuter1"></feGaussianBlur>
            <feColorMatrix values="0 0 0 0 0   0 0 0 0 0   0 0 0 0 0  0 0 0 0.1 0" type="matrix" in="shadowBlurOuter1" result="shadowMatrixOuter1"></feColorMatrix>
            <feMerge>
                <feMergeNode in="shadowMatrixOuter1"></feMergeNode>
                <feMergeNode in="SourceGraphic"></feMergeNode>
            </feMerge>
        </filter>
        <path d="M2.9186966,18.2907395 C4.4618925,19.8067544 3.032541,23.8525088 1.4033219e-13,23.781653 C3.2217583,23.8250538 4.9595865,22.6512074 6.2112664,21.4734852 C7.4629462,20.295763 13.339245,14.8288493 12.6188681,-1.24344979e-14 C12.7131611,12.5360476 9.6379044,18.6558005 2.9186966,18.2907395 Z" id="path-2"></path>
    </defs>
    <g id="Mobile-Illustrations" stroke="none" stroke-width="1" fill="none" fill-rule="evenodd">
        <g id="Illustrations" transform="translate(-26.000000, -5344.000000)">
            <g id="Operations" transform="translate(40.000000, 56.000000)">
                <g id="poll" transform="translate(1.000000, 5284.000000)">
                    <g id="box" transform="translate(0.000000, 51.145109)">
                        <g id="Group-7">
                            <rect id="Rectangle-19-Copy-2" fill="#1B3554" x="9.32515337" y="50.1615489" width="60.8588957" height="5.9013587"></rect>
                            <rect id="Rectangle-19-Copy" fill="#EDF0F6" x="9.81595092" y="0" width="60.8588957" height="38.8506114"></rect>
                            <polygon id="Rectangle-3" fill-opacity="0.362856658" fill="#A0B8D1" points="9.81595092 0 9.81595092 59.013587 0 59.013587 0 23.3283621"></polygon>
                            <polygon id="Rectangle-3-Copy" fill-opacity="0.362856658" fill="#A0B8D1" transform="translate(75.337423, 29.260904) scale(-1, 1) translate(-75.337423, -29.260904) " points="79.9999994 0 79.9999994 58.5218071 70.674846 58.5218071 70.674846 23.3283621"></polygon>
                            <g id="Rectangle-19" filter="url(#filter-1)" transform="translate(0.000000, 23.000000)" fill="#FFFFFF">
                                <g id="path-2-link">
                                    <path d="M4,0.1136549 L76,0.1136549 C78.209139,0.1136549 80,1.9045159 80,4.1136549 L80,36.508126 C80,37.8646148 78.9003485,38.9642663 77.5438596,38.9642663 L2.45614035,38.9642663 C1.09965149,38.9642663 -4.4408921e-16,37.8646148 -4.4408921e-16,36.508126 L-4.4408921e-16,4.1136549 C-7.1463071e-16,1.9045159 1.790861,0.1136549 4,0.1136549 Z" id="path-2"></path>
                                </g>
                            </g>
                        </g>
                    </g>
                    <g id="pink" transform="translate(38.762444, 52.385714) rotate(6.000000) translate(-38.762444, -52.385714) translate(14.262444, 31.885714)">
                        <path d="M14.6362786,4.79044636 C15.8935788,12.5383741 10.4181657,20.4565741 3.59077745,26.1007473 C9.32713894,29.2086702 19.7413872,33.5391263 28.1610601,36.1661741 C28.5615942,36.2911459 29.8189619,36.1367766 30.2098445,36.2051489 C32.5729806,36.6185034 33.9080135,34.9006048 34.8082915,34.3835853 C38.5179685,30.4808246 42.1677172,27.6623478 44.0242802,22.1883397 C44.9761754,19.3817115 45.5146053,16.9917505 45.5377852,15.9655087 C42.5334336,13.1705613 35.3540711,13.2497577 14.6362786,4.79044636 Z" id="Path-10" fill="#04CC99" transform="translate(24.564281, 20.529585) rotate(-14.000000) translate(-24.564281, -20.529585) "></path>
                        <g id="Path-11" transform="translate(31.174300, 11.040570)">
                            <mask id="mask-3" fill="white">
                                <use xlink:href="#path-2"></use>
                            </mask>
                            <use id="Mask" fill="#04CC99" xlink:href="#path-2"></use>
                            <path d="M2.9186966,18.2907395 C4.4618925,19.8067544 3.032541,23.8525088 -8.70414851e-14,23.781653 C3.2217583,23.8250538 4.9595865,22.6512074 6.2112664,21.4734852 C7.4629462,20.295763 13.339245,14.8288493 12.6188681,-1.24344979e-14 C12.7131611,12.5360476 9.6379044,18.6558005 2.9186966,18.2907395 Z" fill="#FFFFFF" opacity="0.2" mask="url(#mask-3)"></path>
                        </g>
                    </g>
                    <g id="yellow" transform="translate(40.123060, 23.604089) rotate(18.000000) translate(-40.123060, -23.604089) translate(20.123060, 5.604089)">
                        <path d="M32.3458419,2.47545597 C33.5586846,3.67143133 34.5925628,4.83114797 35.4474764,5.95460588 C37.2271797,8.29334714 37.758547,11.5259935 37.634802,11.6076366 C36.9597034,12.0530454 33.0998519,9.48363486 32.3458419,7.39676365 C31.8938125,6.14568358 31.8938125,4.50524768 32.3458419,2.47545597 Z" id="Path-12" fill="#D1D4D8"></path>
                        <g id="Path-9">
                            <g id="path-4-link">
                                <path d="M2,28.807275 C10.8719957,22.7344649 15.5230348,15.1684007 15.9531172,6.10908238 C18.2827324,5.76068726 22.7827482,6.19539281 34.0733526,8.16367347 C35.1248033,8.34697191 35.2177742,10.0192577 34.352265,13.1805309 C38.1589091,14.580089 39.9031204,15.9132474 39.5848991,17.1800062 C36.8259254,28.1627851 33.1759058,33.1701322 27.6671887,35.5231731 C21.3482114,36.3274759 12.7924819,34.0888432 2,28.807275 Z" id="path-4" fill-opacity="0.62927423" fill="#C8CED8"></path>
                                <path d="M0,22.9940507 C8.87199575,16.9212406 13.5230348,9.35517643 13.9531172,0.295858072 C16.2827324,-0.0525370512 20.7827482,0.382168496 32.0733526,2.35044916 C33.1248033,2.5337476 33.2177742,4.20603341 32.352265,7.3673066 C36.1589091,8.76686468 37.9031204,10.1000231 37.5848991,11.3667819 C34.8259254,22.3495608 31.1759058,27.3569079 25.6671887,29.7099488 C19.3482114,30.5142516 10.7924819,28.2756189 0,22.9940507 Z" id="path-4" fill="#EEF1F7"></path>
                            </g>
                        </g>
                    </g>
                </g>
            </g>
        </g>
    </g>
</svg>