<?xml version="1.0" encoding="UTF-8"?>
<svg width="88px" height="125px" viewBox="0 0 88 125" version="1.1" xmlns="http://www.w3.org/2000/svg" xmlns:xlink="http://www.w3.org/1999/xlink">
    <!-- Generator: Sketch 52.4 (67378) - http://www.bohemiancoding.com/sketch -->
    <title>publish</title>
    <desc>Created with Sketch.</desc>
    <defs>
        <path d="M55.84,37.07 C55.84,52.99 49.69,65.89 42.1,65.89 C34.51,65.89 28.35,53 28.35,37.07 C28.35,24.84 36.47,8.18 40.23,1.12 C40.6002715,0.434961674 41.3162969,0.00805505802 42.095,0.00805505802 C42.8737031,0.00805505802 43.5897285,0.434961674 43.96,1.12 C47.72,8.18 55.84,24.84 55.84,37.07 Z" id="path-1"></path>
        <filter x="-90.9%" y="-30.4%" width="281.9%" height="175.9%" filterUnits="objectBoundingBox" id="filter-2">
            <feOffset dx="0" dy="5" in="SourceAlpha" result="shadowOffsetOuter1"></feOffset>
            <feGaussianBlur stdDeviation="7.5" in="shadowOffsetOuter1" result="shadowBlurOuter1"></feGaussianBlur>
            <feColorMatrix values="0 0 0 0 0   0 0 0 0 0   0 0 0 0 0  0 0 0 0.1 0" type="matrix" in="shadowBlurOuter1"></feColorMatrix>
        </filter>
    </defs>
    <g id="Illustrations" stroke="none" stroke-width="1" fill="none" fill-rule="evenodd">
        <g transform="translate(-42.000000, -5976.000000)" id="Operations">
            <g transform="translate(42.000000, 48.000000)">
                <g id="publish" transform="translate(0.000000, 5937.000000)">
                    <path d="M87.88,115.56 L0.37,115.56 C0.44,115.34 0.52,115.13 0.59,114.91 C0.82,114.31 1.05,113.72 1.29,113.14 C1.53,112.56 1.67,112.25 1.87,111.81 C1.98,111.57 2.09,111.32 2.21,111.08 C2.90069916,109.608697 3.67186579,108.17653 4.52,106.79 L5.15,105.79 L5.69,104.99 C6.89593491,103.18122 8.23285128,101.463283 9.69,99.85 L10.16,99.34 C11.257509,98.1633335 12.4192848,97.0482959 13.64,96 C14.7140951,95.050584 15.835528,94.1561077 17,93.32 C17.29,93.1 17.59,92.89 17.89,92.69 C18.19,92.49 18.54,92.24 18.89,92.02 C19.24,91.8 19.44,91.67 19.72,91.5 L20.58,90.97 L20.7,90.9 L21.6,90.39 C21.76,90.29 21.93,90.2 22.1,90.11 L22.81,89.73 L23.53,89.37 L24.41,88.94 L25.09,88.63 L25.84,88.3 C26.28,88.1 26.72,87.92 27.17,87.75 L27.99,87.43 C28.58,87.21 29.19,87 29.8,86.8 L30.71,86.52 C31.06,86.41 31.42,86.3 31.78,86.21 C32.59,85.98 33.42,85.78 34.25,85.6 L35.05,85.43 C35.4233333,85.35 35.7933333,85.28 36.16,85.22 C36.53,85.15 36.9,85.09 37.28,85.04 C38.8445902,84.8073381 40.4199284,84.6538094 42,84.58 C42.7,84.58 43.41,84.58 44.12,84.58 L45.32,84.58 C45.62,84.58 45.91,84.58 46.2,84.58 L47.2,84.58 L48.48,84.69 C48.97,84.69 49.48,84.79 49.92,84.85 C50.36,84.91 50.92,84.97 51.35,85.05 L52.26,85.2 L52.39,85.2 C52.9566667,85.3 53.5166667,85.41 54.07,85.53 C54.8,85.69 55.51,85.87 56.22,86.06 L57.33,86.38 L57.84,86.53 C58.35,86.69 58.84,86.85 59.35,87.03 C59.86,87.21 60.35,87.4 60.9,87.6 L61.05,87.66 C61.62,87.88 62.17,88.11 62.72,88.36 C63.27,88.61 63.72,88.79 64.16,89.02 L64.46,89.16 C64.97,89.41 65.46,89.67 65.96,89.93 C74.7657465,94.6587491 81.8164609,102.095132 86.07,111.14 C86.7566667,112.606667 87.36,114.08 87.88,115.56 Z" id="Path" fill="#E1DFFF"></path>
                    <path d="M74.83,115.56 L0.37,115.56 C0.44,115.34 0.52,115.13 0.59,114.91 C0.82,114.31 1.05,113.72 1.29,113.14 C1.53,112.56 1.67,112.25 1.87,111.81 C1.98,111.57 2.09,111.32 2.21,111.08 C2.90069916,109.608697 3.67186579,108.17653 4.52,106.79 L5.15,105.79 L5.69,104.99 C6.89593491,103.18122 8.23285128,101.463283 9.69,99.85 L10.16,99.34 C11.257509,98.1633335 12.4192848,97.0482959 13.64,96 C14.7140951,95.050584 15.835528,94.1561077 17,93.32 C17.29,93.1 17.59,92.89 17.89,92.69 C18.19,92.49 18.54,92.24 18.89,92.02 C19.24,91.8 19.44,91.67 19.72,91.5 L20.58,90.97 L20.7,90.9 L21.6,90.39 C21.76,90.29 21.93,90.2 22.1,90.11 L22.81,89.73 L23.53,89.37 L24.41,88.94 L25.09,88.63 L25.84,88.3 C26.28,88.1 26.72,87.92 27.17,87.75 L27.99,87.43 C28.58,87.21 29.19,87 29.8,86.8 L30.71,86.52 C31.06,86.41 31.42,86.3 31.78,86.21 C32.59,85.98 33.42,85.78 34.25,85.6 L35.05,85.43 C35.4233333,85.35 35.7933333,85.28 36.16,85.22 C36.53,85.15 36.9,85.09 37.28,85.04 C38.8445902,84.8073381 40.4199284,84.6538094 42,84.58 C42.7,84.58 43.41,84.58 44.12,84.58 L45.32,84.58 C45.62,84.58 45.91,84.58 46.2,84.58 L47.2,84.58 L48.48,84.69 C48.97,84.69 49.48,84.79 49.92,84.85 C50.36,84.91 50.92,84.97 51.35,85.05 L52.26,85.2 L52.39,85.2 C52.9566667,85.3 53.5166667,85.41 54.07,85.53 C54.8,85.69 55.51,85.87 56.22,86.06 L57.33,86.38 L57.84,86.53 C58.35,86.69 58.84,86.85 59.35,87.03 C59.86,87.21 60.35,87.4 60.9,87.6 L61.05,87.66 C61.62,87.88 62.17,88.11 62.72,88.36 C63.27,88.61 63.72,88.79 64.16,89.02 L64.46,89.16 C64.97,89.41 65.46,89.67 65.96,89.93 C71.6040721,97.2927979 74.7155675,106.283511 74.83,115.56 Z" id="Path" fill="#EEF1F7"></path>
                    <path d="M86.11,111.22 C85.3075784,111.579827 84.5786466,112.084994 83.96,112.71 C83.1498109,113.511629 82.5310914,114.485856 82.15,115.56 L70.87,115.56 C70.2723291,114.85333 69.7897442,114.056896 69.44,113.2 C67.44,108.2 71.27,103.73 68.95,101.65 C67.57,100.43 64.71,100.65 63.34,101.98 C61.34,103.98 63.93,107.33 61.85,109.57 C59.77,111.81 57.07,111.57 52.62,111.38 C47.44,111.18 42.7,111.01 40.57,107.59 C39.18,105.34 38.98,101.78 40.57,100.5 C42.83,98.68 46.8,102.91 50.81,101.16 C54.06,99.73 54.99,95.38 55.09,94.89 C55.86,91.04 54.09,87.83 52.3,85.25 L52.43,85.25 C52.9966667,85.35 53.5566667,85.46 54.11,85.58 C54.84,85.74 55.55,85.92 56.26,86.11 L57.37,86.43 L57.88,86.58 C58.39,86.74 58.88,86.9 59.39,87.08 C59.9,87.26 60.39,87.45 60.94,87.65 L61.09,87.71 C61.66,87.93 62.21,88.16 62.76,88.41 C63.31,88.66 63.76,88.84 64.2,89.07 L64.5,89.21 C65.01,89.46 65.5,89.72 66,89.98 C74.810482,94.7165083 81.8617418,102.163985 86.11,111.22 Z" id="Path" fill="#DAE3EC"></path>
                    <path d="M26.32,100.56 C26.42,101.42 25.32,102.32 24.57,102.73 C22.77,103.65 21.57,102.43 20.15,103.23 C18.59,104.13 19.4,106.11 18.07,106.9 C16.19,108 13.79,104.58 10.65,105.4 C8.41,105.98 7.95,108.16 6.73,107.9 C6.04,107.75 5.5,106.9 5.15,105.77 L5.69,104.97 C6.89593491,103.16122 8.23285128,101.443283 9.69,99.83 L10.16,99.32 C11.2580588,98.1501745 12.4198244,97.0418235 13.64,96 C13.719311,96.9862724 14.2462994,97.8817841 15.07,98.43 C16.58,99.29 17.75,97.85 21.32,98.26 C23.17,98.44 26.15,99.21 26.32,100.56 Z" id="Path" fill="#DAE3EC"></path>
                    <path d="M20.2641567,57.1611826 L21.2391368,71.1525029 C21.3159221,72.2544002 22.2714332,73.0854177 23.3733306,73.0086324 C23.8471353,72.9756155 24.2937261,72.7750593 24.6331727,72.442859 L36.53,60.8 L31.52,50.33 L21.3897315,55.22109 C20.6530925,55.5767536 20.2072921,56.3451556 20.2641567,57.1611826 Z" id="Path" fill="#04CC99"></path>
                    <path d="M64.5151077,57.1618714 L63.5328473,71.1555236 C63.4555042,72.2573819 62.4995726,73.0879157 61.3977142,73.0105726 C60.9242736,72.9773402 60.4780798,72.7768266 60.138882,72.4448698 L48.24,60.8 L53.26,50.33 L63.3896036,55.2207689 C64.126575,55.5765931 64.5724111,56.345505 64.5151077,57.1618714 Z" id="Path" fill="#04CC99"></path>
                    <g id="Path">
                        <use fill="black" fill-opacity="1" filter="url(#filter-2)" xlink:href="#path-1"></use>
                        <use fill="#FFFFFF" fill-rule="evenodd" xlink:href="#path-1"></use>
                    </g>
                    <circle id="Oval" fill="#EDF0F6" cx="42.1" cy="34.77" r="7.32"></circle>
                    <circle id="Oval" fill="#CCD5DE" cx="42.1" cy="34.77" r="5.33"></circle>
                    <polygon id="Path" fill="#EEF1F7" points="6.31430945 33.4904131 8.98162926 32.1325995 8.47548123 35.0121008 10.6286189 37.0566247 7.64796936 37.4780151 6.31430945 40.1 4.98064955 37.4780151 2 37.0566247 4.16117177 35.0121008 3.64698964 32.1325995"></polygon>
                    <polygon id="Path" fill="#EEF1F7" points="72.3143095 10.4982166 74.9816293 9.1325995 74.4674471 12.0199043 76.6286189 14.0644282 73.6479694 14.4858186 72.3143095 17.1078035 70.9806495 14.4858186 68 14.0644282 70.1531377 12.0199043 69.6469896 9.1325995"></polygon>
                </g>
            </g>
        </g>
    </g>
</svg>