<?xml version="1.0" encoding="UTF-8"?>
<svg width="227px" height="228px" viewBox="0 0 227 228" version="1.1" xmlns="http://www.w3.org/2000/svg" xmlns:xlink="http://www.w3.org/1999/xlink">
    <!-- Generator: Sketch 52.5 (67469) - http://www.bohemiancoding.com/sketch -->
    <title>conversation</title>
    <desc>Created with Sketch.</desc>
    <defs>
        <filter x="-46.4%" y="-46.4%" width="192.9%" height="192.9%" filterUnits="objectBoundingBox" id="filter-1">
            <feOffset dx="0" dy="11" in="SourceAlpha" result="shadowOffsetOuter1"></feOffset>
            <feGaussianBlur stdDeviation="15" in="shadowOffsetOuter1" result="shadowBlurOuter1"></feGaussianBlur>
            <feColorMatrix values="0 0 0 0 0   0 0 0 0 0   0 0 0 0 0  0 0 0 0.15 0" type="matrix" in="shadowBlurOuter1" result="shadowMatrixOuter1"></feColorMatrix>
            <feMerge>
                <feMergeNode in="shadowMatrixOuter1"></feMergeNode>
                <feMergeNode in="SourceGraphic"></feMergeNode>
            </feMerge>
        </filter>
        <linearGradient x1="0%" y1="50%" x2="100%" y2="50%" id="linearGradient-2">
            <stop stop-color="#F46885" offset="0%"></stop>
            <stop stop-color="#F46885" offset="27.475%"></stop>
            <stop stop-color="#FDB93F" offset="100%"></stop>
        </linearGradient>
    </defs>
    <g id="Home" stroke="none" stroke-width="1" fill="none" fill-rule="evenodd">
        <g id="Questions---Empty" transform="translate(-74.000000, -172.000000)" fill-rule="nonzero">
            <g id="conversation" filter="url(#filter-1)" transform="translate(103.000000, 190.000000)">
                <path d="M12.4918066,90.0291387 C-3.79523828,63.5707363 4.4468125,28.9148437 30.9048848,12.6238379 C57.362957,-3.66716797 92.0188496,4.57455273 108.310186,31.0329551 C113.915902,40.1348594 116.809367,50.6475176 116.656541,61.3367676 C115.651783,92.4443203 89.9895293,117.053955 58.8697637,116.752594 L6.94649414,116.752594 L12.4115977,107.469807 C15.666498,102.11693 15.6948848,95.4097422 12.4918066,90.0291387 Z" id="Shape" fill="#FFFFFF"></path>
                <path d="M156.516775,138.251572 C172.795898,111.785578 164.537674,77.1336465 138.07168,60.8545234 C131.372744,56.7354785 123.886242,54.063166 116.090127,53.0184687 C116.48391,55.7752812 116.668754,58.5518984 116.65258,61.3367676 C115.647822,92.4443203 89.9855684,117.053955 58.8658027,116.752594 L52.9986641,116.752594 C57.5877402,144.697668 81.8237266,165.151949 110.142449,164.975027 L162.062088,164.975027 L156.596984,155.69224 C153.346045,150.339363 153.314027,143.632506 156.516775,138.251572 Z" id="Shape" fill="url(#linearGradient-2)"></path>
                <g id="Group" fill="#F46885">
                    <path d="M160.052902,153.642455 C157.589529,149.56368 157.589529,144.460012 160.052902,140.381236 C177.49324,112.026205 168.648467,74.8990176 140.293766,57.4586797 C134.024922,53.6007266 127.100873,50.9244531 119.867541,49.5622207 C117.536859,36.9278203 111.227746,25.3665039 101.86442,16.5699219 C89.4914414,4.73133984 72.6333613,-1.22425977 55.5706328,0.214550781 C22.3816074,2.81457617 -2.41287109,31.8244824 0.187154297,65.0135078 C0.938742187,74.6300039 3.98866406,83.9246738 9.08011914,92.1185332 C11.5434922,96.1973086 11.5434922,101.300977 9.08011914,105.379752 L3.49420703,114.702809 C2.36104883,116.61165 2.99182812,119.078984 4.90066992,120.208182 C5.51956641,120.573908 6.22692383,120.770635 6.950125,120.770635 L49.7074551,120.770635 C56.0165684,148.984723 81.0760996,169.029377 109.985662,168.993068 L162.066049,168.993068 C164.284174,168.993068 166.08475,167.192822 166.08475,164.974367 C166.08475,164.255127 165.891984,163.543809 165.522297,162.924912 L160.052902,153.642455 Z M13.9788086,112.733893 L15.9077852,109.478992 C19.9182344,102.844422 19.9182344,94.5340449 15.9077852,87.8994746 C0.785916016,63.3258184 8.44933984,31.1491426 33.0187051,16.0276035 C57.5880703,0.906064453 89.768707,8.56519727 104.890576,33.1385234 C110.090627,41.5855527 112.774822,51.3383711 112.634209,61.2562285 C111.673682,90.1737129 87.7994609,113.035254 58.8661328,112.733893 L13.9788086,112.733893 Z" id="Shape"></path>
                    <path d="M64.85375,50.8079355 C64.85375,54.8266367 61.0763359,57.3982754 51.3915137,57.8003105 L50.9898086,58.2020156 L52.7580371,70.6594941 L60.7951094,70.6594941 L61.6391191,65.9578613 C69.8369395,64.5111289 76.4675488,60.4927578 76.4675488,50.6471875 C76.4675488,40.4401816 68.9529902,34.573043 57.8617051,34.573043 C50.6643516,34.400082 43.7686895,37.450334 39.0548437,42.8913418 L46.1274277,50.6471875 C49.065123,47.3480566 53.2442422,45.423041 57.6606875,45.342832 C62.2415117,45.342832 64.85375,47.3520176 64.85375,50.8079355 Z" id="Shape"></path>
                    <polygon id="Rectangle-path" points="50.2260078 76.7517461 62.6834863 76.7517461 62.6834863 89.0484766 50.2260078 89.0484766"></polygon>
                </g>
            </g>
        </g>
    </g>
</svg>