<?xml version="1.0" encoding="UTF-8"?>
<svg width="107px" height="112px" viewBox="0 0 107 112" version="1.1" xmlns="http://www.w3.org/2000/svg" xmlns:xlink="http://www.w3.org/1999/xlink">
    <!-- Generator: Sketch 52.4 (67378) - http://www.bohemiancoding.com/sketch -->
    <title>storemanager</title>
    <desc>Created with Sketch.</desc>
    <defs>
        <path d="M41.8293966,21.04109 C42.7127731,21.0136967 43.6728966,21 44.7097672,21 C58.7181294,21 73.9499522,29.3333333 90.4052357,46 C99.7786651,59.3333333 101.195137,69.9439944 94.6546502,77.8319831 C88.2443281,85.5629904 74.6569027,92.4595326 53.892374,98.5216096 C49.5650138,100.124407 44.8847597,101 40,101 C17.90861,101 0,83.09139 0,61 C0,38.90861 17.90861,21 40,21 C40.6131186,21 41.2230153,21.0137945 41.8293966,21.04109 Z" id="path-1"></path>
        <linearGradient x1="88.3600935%" y1="13.9302899%" x2="50%" y2="69.7278507%" id="linearGradient-3">
            <stop stop-color="#F1F7FF" offset="0%"></stop>
            <stop stop-color="#A7BCDE" offset="100%"></stop>
        </linearGradient>
        <linearGradient x1="56.9881582%" y1="50%" x2="-5.61092608%" y2="90.998156%" id="linearGradient-4">
            <stop stop-color="#FFFFFF" offset="0%"></stop>
            <stop stop-color="#EAEFFF" offset="100%"></stop>
        </linearGradient>
        <linearGradient x1="75.3175233%" y1="50%" x2="19.1162365%" y2="43.2760204%" id="linearGradient-5">
            <stop stop-color="#FFFFFF" stop-opacity="0" offset="0%"></stop>
            <stop stop-color="#D8E1F0" offset="100%"></stop>
        </linearGradient>
        <path d="M0.267720169,41.2248273 C1.33679437,39.0630748 8.7017102,18.9664192 8.77613713,14.3616913 C8.8505969,9.75700904 10.2058502,0.312378514 14.1550429,0.343716867 C18.1043014,0.375055221 26.2745126,4.17846235 27.6113398,5.19586245 C28.9481342,6.21321687 30.1845212,10.6132405 30.1845212,13.0456175 C30.1845212,14.2464794 30.2033743,21.4790151 30.1845212,28.8273564 C30.1663579,35.9020126 32.4307299,43.0811908 32.5540631,43.3726923 C26.3150106,45.4770216 1.9219293,44.410878 0.267720169,41.2248273 Z" id="path-6"></path>
        <linearGradient x1="15.3723617%" y1="23.1243834%" x2="25.8702546%" y2="100%" id="linearGradient-8">
            <stop stop-color="#FFFFFF" offset="0%"></stop>
            <stop stop-color="#E9F0FC" offset="100%"></stop>
        </linearGradient>
        <linearGradient x1="47.8322148%" y1="65.529462%" x2="67.4520815%" y2="105.572982%" id="linearGradient-9">
            <stop stop-color="#FFFFFF" stop-opacity="0" offset="0%"></stop>
            <stop stop-color="#ABBFD6" offset="100%"></stop>
        </linearGradient>
        <path d="M2.61695438,18.6840952 C4.77506607,20.1035317 19.4743644,24.2350944 21.1081333,23.6254599 C22.7419708,23.0158499 32.9365918,10.5061838 33.5085274,9.14898528 C34.0804629,7.79178679 26.894872,0.277568273 26.0363524,1.42434423 C25.1778328,2.57116902 18.0686643,11.5593952 17.270543,11.5593952 C16.472456,11.5593952 7.94159765,4.29075917 5.44485793,3.8793145 C2.94815245,3.46789425 1.10459846,6.56116411 0.629937155,8.18206223 C0.155207366,9.80296035 0.458808451,17.2646343 2.61695438,18.6840952 Z" id="path-10"></path>
        <linearGradient x1="50.7983741%" y1="8.9287466%" x2="85.3629416%" y2="59.7894059%" id="linearGradient-12">
            <stop stop-color="#C1CDE1" offset="0%"></stop>
            <stop stop-color="#90AADB" offset="100%"></stop>
        </linearGradient>
        <path d="M8.93827487,1.68990175 C10.3022157,3.35849182 10.5569494,4.11928631 12.0307712,5.47429518 C13.5045929,6.82930405 15.5275674,7.30983913 16.1130232,7.52279374 C16.698533,7.73574835 14.9420755,9.08589839 15.5275674,10.8352197 C16.1130232,12.5845411 17.351684,15.1597479 17.351684,15.8442387 C17.351684,16.5287008 15.0355679,17.7362486 12.8447678,18.7550209 C10.6539857,19.7738219 10.3442036,20.6312755 10.5980378,22.359034 C10.8518901,24.08685 11.2117914,26.3174251 12.8447678,27.2939055 C13.9334307,27.9448733 10.8527536,26.7879551 3.60277246,23.8230933 C0.524865764,16.702641 -0.244624402,10.8998507 1.29433794,6.41472251 C3.60277246,-0.312969836 7.57433403,0.0213116856 8.93827487,1.68990175 Z" id="path-13"></path>
        <path d="M24.2608625,11.2174725 C27.4207893,10.2032224 24.6485741,5.86896793 25.7683698,5.86896793 C26.2327784,5.86896793 28.1059382,5.51292087 28.591147,4.50657697 C29.666585,2.27595825 27.2025667,0.287311694 21.073242,0.751140981 C10.6001456,1.54364151 10.046332,12.3315448 10.9314807,17.7296916 C11.8166894,23.1278384 0.216124596,39.5198257 3.87255953,46.5391699 C7.52899446,53.558514 14.8468396,50.8704125 21.073242,44.7426381 C27.2996145,38.6148638 25.6599329,17.8431749 24.0277741,16.8530199 C22.3955853,15.8628648 21.1009357,12.2317764 24.2608625,11.2174725 Z" id="path-15"></path>
        <filter x="-64.5%" y="-40.6%" width="235.8%" height="176.7%" filterUnits="objectBoundingBox" id="filter-17">
            <feGaussianBlur stdDeviation="13.5" in="SourceAlpha" result="shadowBlurInner1"></feGaussianBlur>
            <feOffset dx="-18" dy="-15" in="shadowBlurInner1" result="shadowOffsetInner1"></feOffset>
            <feComposite in="shadowOffsetInner1" in2="SourceAlpha" operator="arithmetic" k2="-1" k3="1" result="shadowInnerInner1"></feComposite>
            <feColorMatrix values="0 0 0 0 0.0404334217   0 0 0 0 0.104773574   0 0 0 0 0.223875135  0 0 0 0.409561821 0" type="matrix" in="shadowInnerInner1"></feColorMatrix>
        </filter>
        <linearGradient x1="12.4459525%" y1="35.5856549%" x2="65.8717076%" y2="70.6376182%" id="linearGradient-18">
            <stop stop-color="#001630" stop-opacity="0.0615942029" offset="0%"></stop>
            <stop stop-color="#081E41" offset="100%"></stop>
        </linearGradient>
        <circle id="path-19" cx="10.9303905" cy="26.1324278" r="10.0509338"></circle>
        <filter x="-149.2%" y="-119.4%" width="398.5%" height="398.5%" filterUnits="objectBoundingBox" id="filter-20">
            <feOffset dx="0" dy="6" in="SourceAlpha" result="shadowOffsetOuter1"></feOffset>
            <feGaussianBlur stdDeviation="9" in="shadowOffsetOuter1" result="shadowBlurOuter1"></feGaussianBlur>
            <feColorMatrix values="0 0 0 0 0   0 0 0 0 0   0 0 0 0 0  0 0 0 0.0416666667 0" type="matrix" in="shadowBlurOuter1"></feColorMatrix>
        </filter>
        <circle id="path-21" cx="37.0628183" cy="10.0509338" r="10.0509338"></circle>
        <filter x="-149.2%" y="-119.4%" width="398.5%" height="398.5%" filterUnits="objectBoundingBox" id="filter-22">
            <feOffset dx="0" dy="6" in="SourceAlpha" result="shadowOffsetOuter1"></feOffset>
            <feGaussianBlur stdDeviation="9" in="shadowOffsetOuter1" result="shadowBlurOuter1"></feGaussianBlur>
            <feColorMatrix values="0 0 0 0 0   0 0 0 0 0   0 0 0 0 0  0 0 0 0.0416666667 0" type="matrix" in="shadowBlurOuter1"></feColorMatrix>
        </filter>
        <circle id="path-23" cx="63.1952462" cy="26.1324278" r="10.0509338"></circle>
        <filter x="-149.2%" y="-119.4%" width="398.5%" height="398.5%" filterUnits="objectBoundingBox" id="filter-24">
            <feOffset dx="0" dy="6" in="SourceAlpha" result="shadowOffsetOuter1"></feOffset>
            <feGaussianBlur stdDeviation="9" in="shadowOffsetOuter1" result="shadowBlurOuter1"></feGaussianBlur>
            <feColorMatrix values="0 0 0 0 0   0 0 0 0 0   0 0 0 0 0  0 0 0 0.0416666667 0" type="matrix" in="shadowBlurOuter1"></feColorMatrix>
        </filter>
        <linearGradient x1="50%" y1="100%" x2="50%" y2="3.061617e-15%" id="linearGradient-25">
            <stop stop-color="#F46885" offset="0%"></stop>
            <stop stop-color="#F46885" offset="27.475%"></stop>
            <stop stop-color="#FDB93F" offset="100%"></stop>
        </linearGradient>
        <circle id="path-26" cx="5.02546689" cy="5.02546689" r="5.02546689"></circle>
    </defs>
    <g id="Illustrations" stroke="none" stroke-width="1" fill="none" fill-rule="evenodd">
        <g transform="translate(-35.000000, -7856.000000)" id="Operations">
            <g transform="translate(42.000000, 48.000000)">
                <g id="storemanager" transform="translate(0.000000, 7819.000000)">
                    <mask id="mask-2" fill="white">
                        <use xlink:href="#path-1"></use>
                    </mask>
                    <use id="Mask" fill-opacity="0.35" fill="#F0F5F8" xlink:href="#path-1"></use>
                    <g id="Group-6" mask="url(#mask-2)">
                        <g transform="translate(23.000000, 29.000000)">
                            <g id="hand" transform="translate(53.000000, 17.000000)">
                                <path d="M2.12120455,6.52052941 C1.92075379,6.23199265 1.73391288,2.09821324 2.27272348,1.52608088 C2.81154545,0.953955882 4.19552652,0.251683824 4.39393561,0.416205882 C4.59236364,0.580720588 5.08050379,1.47205882 4.69697348,1.66481618 C4.31343939,1.85757353 3.58149621,2.53283088 3.63636364,2.77469118 C3.6912197,3.01655882 3.80401894,3.73355882 4.09090152,4.02330882 C4.37779924,4.31305147 2.58947727,7.19455882 2.12120455,6.52052941 Z" id="finger" fill="#C1CDE1"></path>
                                <path d="M0,10.9449575 C1.00293297,9.75922268 1.63607998,8.98707787 1.89945124,8.62852306 C2.08505399,8.37583134 1.78669456,6.71627614 2.18073531,6.03427252 C2.57478627,5.35225187 2.85200574,5.13723822 3.13741567,4.74131195 C3.230503,4.61219815 3.68469562,3.97012101 3.80927843,3.6007329 C4.13852059,2.62456104 4.23994136,2.15774141 4.31055088,1.60454499 C4.40785598,0.842041128 5.51736216,1.12915146 5.78221424,0.582615127 C6.04706633,0.0360787975 6.36304871,-0.313153996 6.68374298,0.405641945 C7.00444746,1.12442085 6.16914173,1.34371126 6.16914173,2.33540063 C6.16914173,2.39501782 7.09795207,1.02659891 7.67579816,0.890024449 C8.20216282,0.890024449 8.13756849,1.57633754 8.36634987,2.52738502 C8.58947351,3.45497739 9.84761792,4.58252582 9.84761792,5.78963764 C9.84761792,6.48973082 9.84956851,7.05660513 9.84761792,7.16483588 C9.82900045,8.19459508 5.88262885,11.111085 5.02120087,12.2807062 C4.44689853,13.0604479 3.81898034,13.86884 3.13741567,14.7058824 L0,10.9449575 Z" fill="#C1CDE1"></path>
                            </g>
                            <g id="shirt" transform="translate(4.000000, 22.000000)">
                                <path d="M16.8723357,0.671562609 C18.3971533,1.06320098 21.9511705,1.64026775 22.6757331,1.62758749 C23.4003149,1.61490722 24.6117006,6.97613675 24.5358449,7.45177778 C24.4599988,7.92739424 17.3571033,5.32571987 16.8723357,4.70900678 C16.3875778,4.09227731 15.3475374,0.279907859 16.8723357,0.671562609 Z" id="colar" fill="url(#linearGradient-3)"></path>
                                <g transform="translate(0.000000, 3.780640)">
                                    <mask id="mask-7" fill="white">
                                        <use xlink:href="#path-6"></use>
                                    </mask>
                                    <g id="">
                                        <use fill="url(#linearGradient-4)" xlink:href="#path-6"></use>
                                        <use fill="url(#linearGradient-5)" xlink:href="#path-6"></use>
                                    </g>
                                    <path d="M29.4572542,44.3010481 C24.2929349,28.2012739 21.7107753,19.2643306 21.7107753,17.490218 C21.7107753,15.7161054 24.5755969,15.2890979 30.3052403,16.2091956 L35.1129832,44.3010481 L29.4572542,44.3010481 Z" id="Path" fill="#DAE2F1" mask="url(#mask-7)"></path>
                                </g>
                                <path d="M45.421464,6.59472848 C46.547743,5.62575711 48.127299,3.69097216 49.01666,2.54295348 C49.90601,1.39493479 54.828378,6.62458608 53.869959,7.9363301 C52.911573,9.2480864 50.97906,11.6819848 50.039781,12.3919445 C49.100524,13.101892 44.295152,7.56368755 45.421464,6.59472848 Z" id="shirt-sleeve" fill="#DAE2F1"></path>
                                <g id="sleeve" transform="translate(19.985915, 3.938166)">
                                    <mask id="mask-11" fill="white">
                                        <use xlink:href="#path-10"></use>
                                    </mask>
                                    <g id="">
                                        <use fill="url(#linearGradient-8)" xlink:href="#path-10"></use>
                                        <use fill="url(#linearGradient-9)" xlink:href="#path-10"></use>
                                    </g>
                                    <path d="M22.3873239,2.28413655 L36.4859155,10.7905761" id="Line-7" stroke="#FFFFFF" stroke-width="3" opacity="0.430245536" stroke-linecap="square" mask="url(#mask-11)"></path>
                                </g>
                            </g>
                            <g id="face" transform="translate(19.000000, 3.000000)">
                                <mask id="mask-14" fill="white">
                                    <use xlink:href="#path-13"></use>
                                </mask>
                                <use id="" fill="url(#linearGradient-12)" xlink:href="#path-13"></use>
                                <path d="M12.0929597,5.33226931 C14.387568,8.14342476 15.5605758,9.95059612 15.6119833,10.7537834 C15.6633907,11.5569707 16.2452965,10.9545802 17.3577005,8.94661203 L17.3577005,7.13944067 L14.4481718,6.53705022 L12.0929597,5.33226931 Z" id="Path-7" fill="#6180AF" mask="url(#mask-14)"></path>
                                <path d="M5.88498235,14.6160672 C6.51498963,15.4050364 7.59566031,16.9022083 8.94388573,17.745979 C10.2152977,18.5416769 12.4676349,18.5604513 13.8240844,18.5604513 C15.6873178,18.5604513 14.4342613,20.3446676 10.0649149,23.9131002 L5.88498235,23.0501184 C5.0689019,16.4054256 5.0689019,13.5940752 5.88498235,14.6160672 Z" id="Path-2" fill="#617FAE" mask="url(#mask-14)"></path>
                            </g>
                            <g id="hair">
                                <mask id="mask-16" fill="white">
                                    <use xlink:href="#path-15"></use>
                                </mask>
                                <g id="">
                                    <use fill="#404E64" fill-rule="evenodd" xlink:href="#path-15"></use>
                                    <use fill="black" fill-opacity="1" filter="url(#filter-17)" xlink:href="#path-15"></use>
                                </g>
                                <path d="M22.6150996,16.2282808 C22.6150996,18.2913607 18.6553567,44.2049412 15.1024189,46.2283861 C11.5494812,48.251831 26.0711296,48.1596924 26.0711296,44.2945061 C26.0711296,40.4293197 22.6150996,14.1652009 22.6150996,16.2282808 Z" id="Path-3" fill="url(#linearGradient-18)" mask="url(#mask-16)"></path>
                            </g>
                        </g>
                    </g>
                    <g id="bubbles" transform="translate(10.000000, 0.000000)">
                        <g id="Oval">
                            <use fill="black" fill-opacity="1" filter="url(#filter-20)" xlink:href="#path-19"></use>
                            <use fill="#FFFFFF" fill-rule="evenodd" xlink:href="#path-19"></use>
                        </g>
                        <g id="Oval">
                            <use fill="black" fill-opacity="1" filter="url(#filter-22)" xlink:href="#path-21"></use>
                            <use fill="#FFFFFF" fill-rule="evenodd" xlink:href="#path-21"></use>
                        </g>
                        <g id="Oval">
                            <use fill="black" fill-opacity="1" filter="url(#filter-24)" xlink:href="#path-23"></use>
                            <use fill="#FFFFFF" fill-rule="evenodd" xlink:href="#path-23"></use>
                        </g>
                        <g id="chart" transform="translate(3.894737, 21.106961)">
                            <g id="Group" transform="translate(0.146076, 0.399064)">
                                <path d="M0.104834515,8.82569292 C0.104834515,8.82569292 0.679311706,7.55269606 1.82823799,5.00671073 L4.61392128,5.5618608 L6.75664758,2.61932892 L10.3069751,1.18773693 L13.4084607,3.25932923" id="Path" stroke="#E3ECF3" stroke-width="1.26"></path>
                                <path d="M4.7327449,6.34279801 C5.21499587,6.34279801 5.60593118,5.95007651 5.60593118,5.46562336 C5.60593118,4.98119127 5.21499587,4.58846977 4.7327449,4.58846977 C4.25049388,4.58846977 3.85955857,4.98119127 3.85955857,5.46562336 C3.85955857,5.95007651 4.25049388,6.34279801 4.7327449,6.34279801 Z" id="Path" fill="#04CC99"></path>
                                <path d="M1.51644605,5.68730148 C1.99869705,5.68730148 2.38963234,5.29458015 2.38963234,4.81015035 C2.38963234,4.32570684 1.99869705,3.93297409 1.51644605,3.93297409 C1.03419505,3.93297409 0.643259762,4.32570684 0.643259762,4.81015035 C0.643259762,5.29458015 1.03419505,5.68730148 1.51644605,5.68730148 Z" id="Path" fill="#04CC99"></path>
                                <path d="M6.66252414,3.72081531 C7.14477288,3.72081531 7.53572407,3.3280938 7.53572407,2.84364065 C7.53572407,2.35920855 7.14477288,1.96648705 6.66252414,1.96648705 C6.18028677,1.96648705 5.78933786,2.35920855 5.78933786,2.84364065 C5.78933786,3.3280938 6.18028677,3.72081531 6.66252414,3.72081531 Z" id="Path" fill="#04CC99"></path>
                                <path d="M10.5220827,1.75432827 C11.0043337,1.75432827 11.395269,1.36159623 11.395269,0.877153605 C11.395269,0.392721505 11.0043337,0 10.5220827,0 C10.0398317,0 9.64889643,0.392721505 9.64889643,0.877153605 C9.64889643,1.36159623 10.0398317,1.75432827 10.5220827,1.75432827 Z" id="Path" fill="#04CC99"></path>
                            </g>
                        </g>
                        <g id="Group" transform="translate(33.042445, 7.035654)" fill="#04CC99">
                            <path d="M1.7508053,6.03056027 L0.25937277,6.03056027 C0.116131225,6.03056027 0,5.92467786 0,5.79406309 L0,0.236497184 C0,0.10588861 0.116131225,0 0.25937277,0 L1.7508053,0 C1.89405553,0 2.01018676,0.10588861 2.01018676,0.236497184 L2.01018676,5.79406309 C2.01018676,5.92284032 1.89730529,6.02757426 1.7508053,6.03056027 Z" id="Path"></path>
                            <path d="M4.76608542,6.03056027 L3.2746529,6.03056027 C3.13141134,6.03056027 3.01528014,5.959972 3.01528014,5.87289549 L3.01528014,2.16785155 C3.01528014,2.08077916 3.13141134,2.01018676 3.2746529,2.01018676 L4.76608542,2.01018676 C4.90933566,2.01018676 5.02546689,2.08077916 5.02546689,2.16785155 L5.02546689,5.87289549 C5.02546689,5.95874698 4.91258544,6.0285696 4.76608542,6.03056027 Z" id="-copy-9"></path>
                            <path d="M7.78136556,6.03056027 L6.28993304,6.03056027 C6.1466915,6.03056027 6.03056027,5.97761907 6.03056027,5.91231168 L6.03056027,3.13352872 C6.03056027,3.06822444 6.1466915,3.01528014 6.28993304,3.01528014 L7.78136556,3.01528014 C7.9246158,3.01528014 8.04074703,3.06822444 8.04074703,3.13352872 L8.04074703,5.91231168 C8.04074703,5.9767003 7.92786555,6.02906726 7.78136556,6.03056027 Z" id="-copy-10"></path>
                        </g>
                        <g id="Path-17" transform="translate(63.195246, 26.132428) rotate(54.000000) translate(-63.195246, -26.132428) translate(58.169779, 21.106961)">
                            <mask id="mask-27" fill="white">
                                <use xlink:href="#path-26"></use>
                            </mask>
                            <use id="Mask" fill="#04CC99" xlink:href="#path-26"></use>
                            <polygon fill="#FFFFFF" mask="url(#mask-27)" transform="translate(9.030001, 6.098479) rotate(-300.000000) translate(-9.030001, -6.098479) " points="6.09847855 4.00453401 6.09847855 9.0300009 11.1239454 9.0300009 11.9615233 8.19242309 10.2863676 4.84211182 6.93605636 3.16695619"></polygon>
                        </g>
                    </g>
                </g>
            </g>
        </g>
    </g>
</svg>