<?xml version="1.0" encoding="UTF-8"?>
<svg width="89px" height="72px" viewBox="0 0 89 72" version="1.1" xmlns="http://www.w3.org/2000/svg" xmlns:xlink="http://www.w3.org/1999/xlink">
    <!-- Generator: Sketch 52.4 (67378) - http://www.bohemiancoding.com/sketch -->
    <title>team</title>
    <desc>Created with Sketch.</desc>
    <defs>
        <path d="M37.289504,0.0308657775 C38.017846,0.0102885925 38.8032397,0 39.645685,0 C52.0855458,0 65.6118776,7.47794598 80.2246805,22.4338379 C88.548577,34.3985515 89.8064477,43.9200655 83.9982925,50.9983799 C78.1922686,58.0740972 65.7561613,64.3708575 46.6899706,69.8886611 C43.2530881,70.9864079 39.5904784,71.5789474 35.7894737,71.5789474 C16.0234932,71.5789474 0,55.5554542 0,35.7894737 C0,16.0234932 16.0234932,0 35.7894737,0 C36.2919698,0 36.7920471,0.0103558523 37.289504,0.0308657775 Z" id="path-1"></path>
        <linearGradient x1="64.7638847%" y1="27.3595669%" x2="50%" y2="50%" id="linearGradient-3">
            <stop stop-color="#6886B3" offset="0%"></stop>
            <stop stop-color="#90AADB" offset="100%"></stop>
        </linearGradient>
        <path d="M7.78870924,1.74500025 C7.78870924,2.86584282 7.28064992,6.86595942 7.78870924,8.06536446 C7.96107753,8.47223797 7.62809845,9.27822322 7.78870924,9.60000987 C8.38258013,10.7898533 4.96599864,13.5364576 4.96599864,13.5364576 L3.92443286,22.3478505 L0.315052573,22.3478505 C0.315052573,22.3478505 1.12702213,14.3174027 0.736381888,13.5364576 C0.345750315,12.7555124 0.315052573,11.3395431 0.315052573,10.0078283 C0.315052573,8.67609093 0.315052573,5.98091675 1.17459799,4.77285004 C2.03414341,3.56478333 7.78870924,0.2086675 7.78870924,1.74500025 Z" id="path-4"></path>
        <linearGradient x1="50%" y1="0%" x2="50%" y2="100%" id="linearGradient-6">
            <stop stop-color="#A9C4E5" offset="0%"></stop>
            <stop stop-color="#7192C7" offset="100%"></stop>
        </linearGradient>
        <linearGradient x1="28.9899876%" y1="27.9637841%" x2="28.9899876%" y2="97.4056683%" id="linearGradient-7">
            <stop stop-color="#C4CFE2" offset="0%"></stop>
            <stop stop-color="#99AFD7" offset="100%"></stop>
        </linearGradient>
        <linearGradient x1="66.4059369%" y1="96.8038727%" x2="60.7470739%" y2="22.5656568%" id="linearGradient-8">
            <stop stop-color="#F4F8FF" offset="0%"></stop>
            <stop stop-color="#C3D8F5" offset="100%"></stop>
        </linearGradient>
        <linearGradient x1="43.6361052%" y1="85.265527%" x2="6.77392332%" y2="100%" id="linearGradient-9">
            <stop stop-color="#FFFFFF" stop-opacity="0.5" offset="0%"></stop>
            <stop stop-color="#AFC3E5" offset="100%"></stop>
        </linearGradient>
        <linearGradient x1="17.2373684%" y1="41.5235058%" x2="-5.57070234%" y2="14.0163926%" id="linearGradient-10">
            <stop stop-color="#FFFFFF" stop-opacity="0" offset="0%"></stop>
            <stop stop-color="#A1B8E3" offset="100%"></stop>
        </linearGradient>
        <path d="M10.595817,1.188836 C10.595817,1.188836 7.871818,3.436444 7.196089,3.62538 C6.52036,3.814316 2.127991,5.708736 1.86905,6.289404 C1.610109,6.870028 0.248617,9.064 0.294031,9.656328 C0.339445,10.2487 2.111693,23.296988 1.86905,29.455756 C1.626407,35.614524 1.86905,34.777028 1.86905,36.229512 C1.86905,37.68204 0.840768,39.66908 1.354909,40.761908 C1.86905,41.854736 2.752593,42.111872 4.098483,42.424184 C5.444373,42.736496 6.415235,43.101388 8.329989,42.424184 C10.244772,41.74698 11.316438,43.28874 14.482049,42.856484 C17.64766,42.424184 20.365627,43.78792 22.748383,40.477448 C23.624589,41.063572 24.078497,40.676812 25.477138,39.860656 C26.87575,39.044456 26.768624,36.138696 26.349342,35.1307 C25.93006,34.122704 24.050918,33.064724 24.764028,30.820812 C25.477138,28.576856 26.349342,21.093116 26.349342,17.7155 C26.349342,14.33784 28.260848,8.24626 28.853521,6.289404 C27.157804,4.96364 19.80207,0.744084 18.401167,0.30448 C17.853444,1.82468 15.190287,2.58874 14.751662,2.1835 C14.313066,1.778304 14.573196,5.043016 14.573196,5.043016 C14.573196,5.043016 14.046208,6.289404 13.552657,7.5977 C13.059106,8.90604 11.920421,10.955648 11.920421,12.36642 C10.880336,11.27808 12.145316,8.140176 11.920421,6.92428 C11.661712,5.525696 12.179101,4.20442 12.74898,2.368608 C11.920421,2.166296 11.847515,2.511256 11.590691,2.145308 C10.919486,1.188836 10.595817,1.188836 10.595817,1.188836 Z" id="path-11"></path>
        <linearGradient x1="-30.2321633%" y1="83.8070478%" x2="83.6802978%" y2="73.1776026%" id="linearGradient-13">
            <stop stop-color="#EAF0F7" stop-opacity="0.115545743" offset="0%"></stop>
            <stop stop-color="#D1DDED" offset="100%"></stop>
        </linearGradient>
        <linearGradient x1="0%" y1="56.064794%" x2="57.5693573%" y2="20.6038007%" id="linearGradient-14">
            <stop stop-color="#E2E9F4" offset="0%"></stop>
            <stop stop-color="#E5EFFD" offset="100%"></stop>
        </linearGradient>
        <linearGradient x1="31.6087503%" y1="42.9700243%" x2="-16.9574129%" y2="61.3689591%" id="linearGradient-15">
            <stop stop-color="#FFFFFF" stop-opacity="0" offset="0%"></stop>
            <stop stop-color="#FFFFFF" offset="100%"></stop>
        </linearGradient>
        <path d="M29.28783,47.1601174 C27.126047,39.5957974 26.221481,34.2009274 26.300144,32.3318374 C26.378807,30.4627474 28.479009,26.8270774 30.855188,27.0529174 C33.23138,27.2787574 33.734792,31.8617974 34.227427,34.3234774 C34.720062,36.7851574 38.358216,49.4328274 38.542439,51.2139574 C38.726675,52.9950574 37.114064,55.8448474 35.054071,56.0915674 C32.994078,56.3382574 31.449613,54.7244074 29.28783,47.1601174 Z" id="path-16"></path>
        <filter x="-101.6%" y="-43.5%" width="302.0%" height="186.9%" filterUnits="objectBoundingBox" id="filter-17">
            <feGaussianBlur stdDeviation="6.5" in="SourceAlpha" result="shadowBlurInner1"></feGaussianBlur>
            <feOffset dx="-14" dy="5" in="shadowBlurInner1" result="shadowOffsetInner1"></feOffset>
            <feComposite in="shadowOffsetInner1" in2="SourceAlpha" operator="arithmetic" k2="-1" k3="1" result="shadowInnerInner1"></feComposite>
            <feColorMatrix values="0 0 0 0 0.631372549   0 0 0 0 0.721568627   0 0 0 0 0.890196078  0 0 0 0.137483016 0" type="matrix" in="shadowInnerInner1"></feColorMatrix>
        </filter>
        <linearGradient x1="100%" y1="50%" x2="34.6598307%" y2="78.0273438%" id="linearGradient-18">
            <stop stop-color="#F9C5C1" offset="0%"></stop>
            <stop stop-color="#F9C5C1" stop-opacity="0" offset="100%"></stop>
        </linearGradient>
        <path d="M23.950684,45.8906234 C23.950684,45.8906234 28.24139,47.2539554 29.180524,46.7995154 C30.119644,46.3450634 34.781644,46.5538154 35.811694,50.2587674 C36.841758,53.9637434 35.942552,54.7657274 34.781644,56.0476874 C33.620764,57.3296594 25.086574,53.9645354 23.294728,52.2097754 C24.64101,48.0479834 23.950684,45.8906234 23.950684,45.8906234 Z" id="path-19"></path>
        <linearGradient x1="50%" y1="0%" x2="50%" y2="100%" id="linearGradient-20">
            <stop stop-color="#B5CCEF" offset="0%"></stop>
            <stop stop-color="#E5EFFD" offset="100%"></stop>
        </linearGradient>
        <linearGradient x1="31.1750322%" y1="58.933311%" x2="49.752516%" y2="28.4521956%" id="linearGradient-21">
            <stop stop-color="#081E41" offset="0%"></stop>
            <stop stop-color="#3A4860" offset="100%"></stop>
        </linearGradient>
        <rect id="path-22" x="0" y="4.3956044" width="50" height="45.6043956" rx="7.2135"></rect>
        <filter x="-34.0%" y="-28.5%" width="168.0%" height="174.6%" filterUnits="objectBoundingBox" id="filter-23">
            <feOffset dx="0" dy="4" in="SourceAlpha" result="shadowOffsetOuter1"></feOffset>
            <feGaussianBlur stdDeviation="5" in="shadowOffsetOuter1" result="shadowBlurOuter1"></feGaussianBlur>
            <feColorMatrix values="0 0 0 0 0   0 0 0 0 0   0 0 0 0 0  0 0 0 0.1 0" type="matrix" in="shadowBlurOuter1"></feColorMatrix>
        </filter>
    </defs>
    <g id="Illustrations" stroke="none" stroke-width="1" fill="none" fill-rule="evenodd">
        <g transform="translate(-41.000000, -9314.000000)" id="Operations">
            <g transform="translate(42.000000, 48.000000)">
                <g id="team" transform="translate(0.000000, 9266.000000)">
                    <g id="man" transform="translate(0.000000, 0.421053)">
                        <mask id="mask-2" fill="white">
                            <use xlink:href="#path-1"></use>
                        </mask>
                        <use id="Mask" fill-opacity="0.5" fill="#F0F5F8" xlink:href="#path-1"></use>
                        <g id="Group-12" mask="url(#mask-2)">
                            <g transform="translate(43.000000, 3.578947)"></g>
                        </g>
                        <g mask="url(#mask-2)">
                            <g transform="translate(55.000000, 17.000000)">
                                <g id="neck" stroke-width="1" fill="none" fill-rule="evenodd" transform="translate(13.000000, 12.578947)">
                                    <mask id="mask-5" fill="white">
                                        <use xlink:href="#path-4"></use>
                                    </mask>
                                    <use id="Path-23" fill="url(#linearGradient-3)" xlink:href="#path-4"></use>
                                    <path d="M2.06468587,7.21631946 C2.37141806,7.33231905 2.66699014,7.44045354 2.95175028,7.54103135 C8.34855558,9.44719293 9.86190323,8.63912651 9.86190323,7.21631946 C9.86190323,6.21773221 9.22959852,3.37419716 7.96498911,-1.31428571 C-0.0485157857,2.82982671 -2.01528353,5.67336176 2.06468587,7.21631946 Z" id="Path-9" fill="url(#linearGradient-6)" style="mix-blend-mode: multiply;" opacity="0.153292411" mask="url(#mask-5)"></path>
                                </g>
                                <path d="M11.067234,2.54645437 C10.339221,4.33344237 9.562601,5.23751937 9.926627,7.48284437 C10.290627,9.72815037 9.939978,9.53955637 9.718796,10.7577224 C9.497588,11.9758504 9.216554,12.9808934 9.833209,15.3190714 C10.449864,17.6572874 10.832194,19.2918764 12.818204,19.2843334 C14.804227,19.2768094 17.362757,18.8617164 18.205534,17.4211554 C18.545783,16.8395654 18.683193,16.5194534 18.923134,15.6080044 C19.091874,14.9670394 19.222147,14.5267334 19.222147,13.6091474 C19.653188,14.6216004 20.55986,14.0812594 20.627161,14.0284204 C21.160447,13.6097174 21.639289,12.6499514 21.685348,11.7443164 C21.777674,9.92934137 21.156521,5.72597137 18.99934,5.03131237 C16.842159,4.33667237 11.795273,0.759447368 11.067234,2.54645437 Z" id="face" fill="url(#linearGradient-7)" fill-rule="evenodd"></path>
                                <g id="shirt" stroke-width="1" fill="none" fill-rule="evenodd" transform="translate(2.000000, 22.578947)">
                                    <mask id="mask-12" fill="white">
                                        <use xlink:href="#path-11"></use>
                                    </mask>
                                    <g id="Path-26">
                                        <use fill="url(#linearGradient-8)" xlink:href="#path-11"></use>
                                        <use fill="url(#linearGradient-9)" xlink:href="#path-11"></use>
                                        <use fill="url(#linearGradient-10)" xlink:href="#path-11"></use>
                                    </g>
                                    <path d="M25.1027535,42.6851346 C20.8511754,33.5164605 22.7462829,20.2438991 24.8808257,18.1615757 C27.0153684,16.0792523 31.768659,38.0996724 30.2121313,40.0484751 C28.6556037,41.9972777 29.3543316,51.8538086 25.1027535,42.6851346 Z" id="Path-10" fill="url(#linearGradient-13)" style="mix-blend-mode: multiply;" mask="url(#mask-12)"></path>
                                    <path d="M10.2105059,5.98981465 C11.190741,5.00275048 12.829145,3.72872705 12.829145,3.72872705 C12.829145,3.72872705 12.829145,2.97998496 12.829145,1.48250079 L10.8988279,3.10482034 C9.78645656,5.68619267 9.55701588,6.64785744 10.2105059,5.98981465 Z" id="Path-14" fill="url(#linearGradient-13)" style="mix-blend-mode: multiply;" mask="url(#mask-12)"></path>
                                    <path d="M14.2575171,5.05057702 C14.6120758,5.28457581 15.3176405,5.42021945 16.3742114,5.45750794 C15.4815762,2.44956969 14.7760115,1.06530203 14.2575171,1.30470495 C13.4797756,1.66380932 13.7256792,4.69957883 14.2575171,5.05057702 Z" id="Path-15" fill="url(#linearGradient-13)" style="mix-blend-mode: multiply;" mask="url(#mask-12)"></path>
                                </g>
                                <path d="M19.42125,28.4425794 C18.354303,27.9312264 18.145395,24.6671964 17.191638,24.2048844 C16.237881,23.7425724 20.152904,23.0911704 20.641371,19.8516654 C21.131875,19.8516654 22.002346,21.9537234 22.851047,23.1450534 C22.751612,24.9636564 19.895514,26.3298024 19.42125,28.4425794 Z" id="colar" fill="#FFFFFF" fill-rule="evenodd"></path>
                                <path d="M12.386068,20.8548034 C12.386068,21.6878034 11.87064,24.0229154 13.839984,24.5507074 C13.088596,24.6560274 12.476672,25.0308354 12.159984,25.5986434 C11.736756,26.3574754 11.2374,27.8809314 10.63444,28.4410114 C10.63444,27.1435234 10.286908,24.5798114 10.63444,23.5969554 C10.981984,22.6141074 12.101632,21.3837794 12.386068,20.8548034 Z" id="colar" fill="#FFFFFF" fill-rule="evenodd"></path>
                                <g id="sleeve" fill="none">
                                    <use fill="url(#linearGradient-14)" fill-rule="evenodd" xlink:href="#path-16"></use>
                                    <use fill="url(#linearGradient-15)" fill-rule="evenodd" xlink:href="#path-16"></use>
                                    <use fill="black" fill-opacity="1" filter="url(#filter-17)" xlink:href="#path-16"></use>
                                </g>
                                <g id="arm" fill="none" fill-rule="evenodd">
                                    <use fill="#FCDFDC" xlink:href="#path-19"></use>
                                    <use fill="url(#linearGradient-18)" xlink:href="#path-19"></use>
                                </g>
                                <path d="M2.779845e-14,55.9678981 C2.779845e-14,52.6150146 1.42941536,38.0865754 2.76537304,32.1175729 C2.95760083,31.2587072 3.28487049,31.0678679 3.46063965,30.5789474 C4.83069789,35.2882454 5.25211335,55.8329931 4.86020275,57.0651306 C4.46826932,58.297268 2.17611345,57.0651306 2.779845e-14,55.9678981 Z" id="sleeve" fill="url(#linearGradient-20)" fill-rule="evenodd"></path>
                                <path d="M11.516768,6.44819037 C10.59862,6.69078537 10.101108,8.82309237 10.25702,10.4337774 C9.743612,9.52382337 9.219456,5.82971037 10.95958,3.83992737 C12.699724,1.85013537 12.434924,6.20559537 11.516768,6.44819037 Z" id="hair" fill="#3A4860" fill-rule="evenodd"></path>
                                <path d="M11.846064,1.29885137 C9.159081,3.13968737 10.3806,5.56069937 13.134702,5.96899937 C15.888791,6.37728737 16.186088,6.48563537 17.878337,5.96899937 C18.256611,7.27361537 17.080514,8.51727137 17.878337,9.47292737 C18.517625,10.2355514 18.71295,10.5200114 18.75104,11.3833874 C18.789117,12.2467514 19.096385,12.4210514 19.096385,12.4210514 C19.096385,12.4210514 19.132811,10.0190354 19.868728,9.94554737 C20.604658,9.87205937 21.172719,10.3659914 21.580815,11.3833874 C21.698309,11.6762594 21.542634,11.0755034 21.580815,10.5142034 C21.618008,9.96736337 21.850565,9.47370737 21.850565,8.70459137 C21.850565,7.31421137 21.132835,5.71037537 20.369202,4.73944337 C18.600097,2.49012737 13.747197,0.798223368 11.846064,1.29885137 Z" id="hair" fill="url(#linearGradient-21)" fill-rule="evenodd"></path>
                                <path d="M20.98388,44.8369854 C22.230956,44.7379044 22.202432,43.8103284 22.24382,44.0755224 C22.285184,44.3407164 25.183832,46.0802724 25.183832,46.0802724 C25.183832,46.0802724 25.699904,50.7404004 24.511376,51.5280624 C23.322836,52.3157244 21.806024,50.6142024 20.783192,50.7949404 C20.349956,50.8715034 19.233596,50.9097984 18.122144,50.6722074 C17.749196,50.5924854 16.50596,50.2747584 16.276832,50.1131274 C15.989372,49.9103304 15.842336,49.6557294 16.17056,49.4027664 C16.301048,49.3021824 17.9105,49.6946364 18.293948,49.7633064 C19.390352,49.9596144 20.296064,49.7122944 20.264156,49.6486464 C20.212388,49.5453084 19.395272,49.6287114 18.293948,49.4027664 C17.907512,49.3234944 17.108204,49.1840574 16.721864,49.0812774 C15.86606,48.8536314 15.137072,48.5148354 15.069908,48.4561104 C14.88848,48.2974404 14.758124,48.0556734 15.100256,47.8219794 C15.245216,47.7229704 15.605792,47.8219794 16.635092,47.9705334 C17.081576,48.0349734 17.983628,48.2400294 18.385376,48.2974404 C19.245008,48.4202904 19.898072,48.0901254 19.893848,48.0226704 C19.889636,47.9554044 19.302476,48.1131024 18.457568,47.9705334 C18.006128,47.8943484 17.13896,47.8039254 16.636988,47.7229704 C15.308144,47.5086444 14.594792,47.0846814 14.492648,47.0156694 C14.305232,46.8890124 14.26448,46.4510184 14.492648,46.3244064 C14.624768,46.2510834 15.279932,46.3957494 16.620752,46.5940014 C17.106476,46.6658214 18.034556,46.7994804 18.457568,46.7994804 C19.302476,46.7994804 19.83824,46.6294794 19.83824,46.5940014 C19.83824,46.5365364 18.218288,46.3761024 16.915256,46.1417334 C15.608552,45.9066984 15.493016,45.6621954 15.404048,45.5676054 C15.282488,45.4383744 15.243452,44.9639034 15.665228,44.9639034 C16.281704,44.9639034 16.534232,45.0352464 17.117864,45.1052574 C17.531924,45.1549284 18.523616,45.1929174 18.920048,45.1929174 C19.706408,45.1929174 20.5778,44.8692414 20.98388,44.8369854 Z" id="hand" fill="#FCDFDC" fill-rule="evenodd"></path>
                            </g>
                        </g>
                    </g>
                    <g id="calendar" transform="translate(9.000000, 7.000000)">
                        <g id="Rectangle">
                            <use fill="black" fill-opacity="1" filter="url(#filter-23)" xlink:href="#path-22"></use>
                            <use fill="#FFFFFF" fill-rule="evenodd" xlink:href="#path-22"></use>
                        </g>
                        <path d="M49.9999917,9.79773746 L49.9999917,14.7489098 C38.5422399,14.7911874 9.09595645,14.8898351 8.25939499e-06,14.7958849 L8.25939499e-06,9.79773746 C-0.00510383954,6.82123895 2.36351065,4.40337818 5.29211226,4.3956044 L44.7078877,4.3956044 C47.6364893,4.40337818 50.0051038,6.82123895 49.9999917,9.79773746 Z" id="Path" fill="#EDF2F6"></path>
                        <path d="M12.0856002,1.49611288e-15 C11.1775717,0.0023133418 10.4421004,0.672166435 10.4395604,1.49918128 L10.4395604,6.81790588 C10.4859969,7.61617778 11.2102129,8.24175824 12.0879121,8.24175824 C12.9656113,8.24175824 13.6898272,7.61617778 13.7362637,6.81790588 L13.7362637,1.49918128 C13.7311902,0.671485707 12.9943868,0.00229913618 12.0856002,1.49611288e-15 Z" id="Path" fill="#BFD0DA"></path>
                        <path d="M24.7252747,0 C23.8159709,0.00229238957 23.0794666,0.666078538 23.0769231,1.485603 L23.0769231,6.75615524 C23.0769231,7.57663112 23.8149152,8.24175824 24.7252747,8.24175824 C25.6356342,8.24175824 26.3736264,7.57663112 26.3736264,6.75615524 L26.3736264,1.485603 C26.3710829,0.666078538 25.6345786,0.00229238957 24.7252747,0 Z" id="Path" fill="#BFD0DA"></path>
                        <path d="M38.4592266,0 C37.5511981,0.0023133418 36.8157268,0.672166435 36.8131868,1.49918128 L36.8131868,6.81790588 C36.8596233,7.61617778 37.5838393,8.24175824 38.4615385,8.24175824 C39.3392377,8.24175824 40.0634536,7.61617778 40.1098901,6.81790588 L40.1098901,1.49918128 C40.1048166,0.671485707 39.3680132,0.00229913618 38.4592266,0 Z" id="Path" fill="#BFD0DA"></path>
                        <circle id="Oval" fill="#E3EBF1" cx="10.4395604" cy="22.5274725" r="2.74725275"></circle>
                        <circle id="Oval" fill="#E3EBF1" cx="10.4395604" cy="31.8681319" r="2.74725275"></circle>
                        <circle id="Oval" fill="#E3EBF1" cx="10.4395604" cy="41.2087912" r="2.74725275"></circle>
                        <circle id="Oval" fill="#E3EBF1" cx="20.3296703" cy="22.5274725" r="2.74725275"></circle>
                        <circle id="Oval" fill="#04CC99" cx="20.3296703" cy="31.8681319" r="2.74725275"></circle>
                        <circle id="Oval" fill="#E3EBF1" cx="20.3296703" cy="41.2087912" r="2.74725275"></circle>
                        <circle id="Oval" fill="#E3EBF1" cx="29.6703297" cy="22.5274725" r="2.74725275"></circle>
                        <circle id="Oval" fill="#E3EBF1" cx="29.6703297" cy="31.8681319" r="2.74725275"></circle>
                        <circle id="Oval" fill="#E3EBF1" cx="29.6703297" cy="41.2087912" r="2.74725275"></circle>
                        <circle id="Oval" fill="#04CC99" cx="39.5604396" cy="22.5274725" r="2.74725275"></circle>
                        <circle id="Oval" fill="#E3EBF1" cx="39.5604396" cy="31.8681319" r="2.74725275"></circle>
                    </g>
                </g>
            </g>
        </g>
    </g>
</svg>