<?xml version="1.0" encoding="UTF-8"?>
<svg width="795px" height="600px" viewBox="0 0 795 600" version="1.1" xmlns="http://www.w3.org/2000/svg" xmlns:xlink="http://www.w3.org/1999/xlink">
    <!-- Generator: Sketch 55.1 (78136) - https://sketchapp.com -->
    <title>web/boost/group messages</title>
    <desc>Created with Sketch.</desc>
    <defs>
        <rect id="path-1" x="0" y="0" width="191.217604" height="275.104335" rx="5.5296"></rect>
        <filter x="-58.8%" y="-40.9%" width="217.7%" height="181.8%" filterUnits="objectBoundingBox" id="filter-3">
            <feOffset dx="0" dy="0" in="SourceAlpha" result="shadowOffsetOuter1"></feOffset>
            <feGaussianBlur stdDeviation="37.5" in="shadowOffsetOuter1" result="shadowBlurOuter1"></feGaussianBlur>
            <feColorMatrix values="0 0 0 0 1   0 0 0 0 1   0 0 0 0 1  0 0 0 1 0" type="matrix" in="shadowBlurOuter1"></feColorMatrix>
        </filter>
        <filter x="-58.2%" y="-86.8%" width="216.5%" height="273.6%" filterUnits="objectBoundingBox" id="filter-4">
            <feOffset dx="0" dy="6" in="SourceAlpha" result="shadowOffsetOuter1"></feOffset>
            <feGaussianBlur stdDeviation="9" in="shadowOffsetOuter1" result="shadowBlurOuter1"></feGaussianBlur>
            <feColorMatrix values="0 0 0 0 0   0 0 0 0 0   0 0 0 0 0  0 0 0 0.1 0" type="matrix" in="shadowBlurOuter1" result="shadowMatrixOuter1"></feColorMatrix>
            <feMerge>
                <feMergeNode in="shadowMatrixOuter1"></feMergeNode>
                <feMergeNode in="SourceGraphic"></feMergeNode>
            </feMerge>
        </filter>
        <rect id="path-5" x="0.579462103" y="0.334230194" width="78" height="52" rx="4"></rect>
        <filter x="-58.2%" y="-86.8%" width="216.5%" height="273.6%" filterUnits="objectBoundingBox" id="filter-7">
            <feOffset dx="0" dy="6" in="SourceAlpha" result="shadowOffsetOuter1"></feOffset>
            <feGaussianBlur stdDeviation="9" in="shadowOffsetOuter1" result="shadowBlurOuter1"></feGaussianBlur>
            <feColorMatrix values="0 0 0 0 0   0 0 0 0 0   0 0 0 0 0  0 0 0 0.1 0" type="matrix" in="shadowBlurOuter1" result="shadowMatrixOuter1"></feColorMatrix>
            <feMerge>
                <feMergeNode in="shadowMatrixOuter1"></feMergeNode>
                <feMergeNode in="SourceGraphic"></feMergeNode>
            </feMerge>
        </filter>
        <rect id="path-8" x="0.579462103" y="0.334230194" width="78" height="52" rx="4"></rect>
        <filter x="-58.2%" y="-86.8%" width="216.5%" height="273.6%" filterUnits="objectBoundingBox" id="filter-10">
            <feOffset dx="0" dy="6" in="SourceAlpha" result="shadowOffsetOuter1"></feOffset>
            <feGaussianBlur stdDeviation="9" in="shadowOffsetOuter1" result="shadowBlurOuter1"></feGaussianBlur>
            <feColorMatrix values="0 0 0 0 0   0 0 0 0 0   0 0 0 0 0  0 0 0 0.1 0" type="matrix" in="shadowBlurOuter1" result="shadowMatrixOuter1"></feColorMatrix>
            <feMerge>
                <feMergeNode in="shadowMatrixOuter1"></feMergeNode>
                <feMergeNode in="SourceGraphic"></feMergeNode>
            </feMerge>
        </filter>
        <rect id="path-11" x="0.579462103" y="0.334230194" width="78" height="52" rx="4"></rect>
    </defs>
    <g id="web/boost/group-messages" stroke="none" stroke-width="1" fill="none" fill-rule="evenodd">
        <g id="web/operations/chat">
            <g id="illustration" transform="translate(90.000000, 50.000000)">
                <g id="Group-2" transform="translate(261.000000, 83.000000)"></g>
                <ellipse id="shadow" fill="#E3ECF3" opacity="0.432593936" cx="142.5" cy="470" rx="95.5" ry="8"></ellipse>
                <g id="woman" transform="translate(16.000000, 122.000000)">
                    <g id="components/A-Human/Standing" transform="translate(0.102564, 0.000000)">
                        <g id="components/Head/Front/Long" transform="translate(67.420870, 0.000000)">
                            <path d="M57.5663268,73.9537385 C48.6860986,72.6084136 41.8803419,64.9422336 41.8803419,55.686484 L41.8803419,40.4810593 C41.8803419,30.2767031 50.1526071,22.0044379 60.3569633,22.0044379 C67.413822,22.0044379 73.5466654,25.9606181 76.6585889,31.7760743 C77.0990335,32.3801425 77.5472236,33.3529562 78.0124015,34.7918406 C80.8662305,43.6192798 85.4431625,70.2544869 81.3934333,74.1814146 L57.5791213,74.1814146 C57.5746995,74.1051692 57.5704349,74.0292763 57.5663265,73.9537335 Z" id="Hair-Back" fill="#191847"></path>
                            <g id="Head" stroke-width="1" transform="translate(44.343891, 25.264355)" fill="#BBC8E0">
                                <path d="M6.78484029,28.1087352 C3.00090252,23.7007159 0.43985428,18.2986274 0.867806944,12.2454321 C2.10085773,-5.19550904 26.5640691,-1.35872421 31.3226701,7.44396516 C36.0812712,16.2466545 35.5158257,38.5754061 29.3657578,40.1486923 C26.9131192,40.7761166 21.6882698,39.2391783 16.370592,36.0581882 L19.7083962,59.4934802 L0,59.4934802 L6.78484029,28.1087352 Z"></path>
                            </g>
                            <path d="M56.4563141,50.4267015 C57.36436,60.1070291 57.0005696,71.161753 54.2943886,73.7858735 L30.4800766,73.7858735 C29.1532139,50.9064396 41.976641,59.7663806 41.976641,38.2247995 C42.7761319,37.4495518 43.5315861,36.6822337 44.2791147,36.0204981 L44.2526391,35.3869669 C48.3763531,27.0086003 53.6079856,22.8194171 59.9475364,22.8194171 C69.4568627,22.8194171 72.4583992,27.2107875 75.0139998,30.9391245 C73.1029765,37.4468063 65.6867954,38.4117509 59.0970553,42.4681672 C58.3203091,41.8418496 57.3298484,41.4664773 56.2510474,41.4664773 C53.7566492,41.4664773 51.73454,43.4733097 51.73454,45.9488628 C51.73454,48.424416 53.7566492,50.4312483 56.2510474,50.4312483 C56.3198397,50.4312483 56.3882728,50.4297219 56.4563141,50.4267015 Z" id="Hair-Front" fill="#191847"></path>
                        </g>
                        <g id="components/Bottom/Standing/Shorts" transform="translate(0.000000, 153.601411)">
                            <polygon id="Leg" fill="#B5C1D7" points="105.242334 9.9475983e-14 136.182625 100.931139 151.170874 186.766571 162.922695 186.766571 147.085185 9.9475983e-14"></polygon>
                            <path d="M94.1735765,0 C96.275116,55.4166202 93.801888,84.0015164 93.3315383,89.0363573 C92.8611886,94.0711982 86.420562,126.717376 71.1731604,188.456767 L83.6956045,184.165353 C107.792701,127.541195 116.004132,98.11262 118.767887,90.6771916 C121.531642,83.2417632 128.872036,53.0160326 140.789072,0 L94.1735765,0 Z" id="Leg" fill="#C4CFE2"></path>
                            <g id="components/Accessories/Shoe/Flat-Sneaker" transform="translate(69.065282, 163.263012)" fill="#DCE4F2">
                                <path d="M1.97968917,21.5212564 C1.20979584,23.667468 0.82484917,25.2976213 0.82484917,26.4117164 C0.82484917,27.895189 1.07264558,30.0599445 1.56823839,32.9059829 C3.29377218,32.9059829 18.8014348,32.9059829 48.0912264,32.9059829 C49.3001939,28.9198404 48.6023078,26.7678503 45.9975679,26.4500126 C43.392828,26.132175 41.2290263,25.8451931 39.5061628,25.5890668 L18.1601651,16.098291 C17.594049,15.8465866 16.9310746,16.1014677 16.6793703,16.6675837 C16.6753581,16.6766076 16.6714653,16.685684 16.6676928,16.6948107 L15.3943358,19.7754222 C12.983028,20.8974809 11.02359,21.4585103 9.51602187,21.4585103 C8.39593566,21.4585103 6.88559317,21.0459429 4.98499441,20.2208082 L4.98499765,20.2208007 C3.84838667,19.7273472 2.52695827,20.2487293 2.03350471,21.3853403 C2.01409462,21.4300491 1.99614658,21.4753785 1.97968917,21.5212564 Z" id="shoe"></path>
                            </g>
                            <g id="components/Accessories/Shoe/Flat-Sneaker" transform="translate(146.352621, 163.263012)" fill="#DCE4F2">
                                <path d="M1.97968917,21.5212564 C1.20979584,23.667468 0.82484917,25.2976213 0.82484917,26.4117164 C0.82484917,27.895189 1.07264558,30.0599445 1.56823839,32.9059829 C3.29377218,32.9059829 18.8014348,32.9059829 48.0912264,32.9059829 C49.3001939,28.9198404 48.6023078,26.7678503 45.9975679,26.4500126 C43.392828,26.132175 41.2290263,25.8451931 39.5061628,25.5890668 L18.1601651,16.098291 C17.594049,15.8465866 16.9310746,16.1014677 16.6793703,16.6675837 C16.6753581,16.6766076 16.6714653,16.685684 16.6676928,16.6948107 L15.3943358,19.7754222 C12.983028,20.8974809 11.02359,21.4585103 9.51602187,21.4585103 C8.39593566,21.4585103 6.88559317,21.0459429 4.98499441,20.2208082 L4.98499765,20.2208007 C3.84838667,19.7273472 2.52695827,20.2487293 2.03350471,21.3853403 C2.01409462,21.4300491 1.99614658,21.4753785 1.97968917,21.5212564 Z" id="shoe"></path>
                            </g>
                            <polygon id="Bottom" fill="#E3ECF3" points="101.131306 0 114.286597 51.4233529 154.468053 51.4233529 148.476834 0"></polygon>
                            <path d="M93.731454,-3.55271368e-15 C89.4029019,12.9466306 88.5806961,30.0877482 91.2648368,51.4233529 L132.268498,51.4233529 L143.5436,-3.55271368e-15 L93.731454,-3.55271368e-15 Z" id="Bottom" fill="#F0F5F8"></path>
                        </g>
                        <g id="components/Body/Pointing-Forward" transform="translate(18.088526, 67.354629)">
                            <path d="M130.214151,35.1273281 L158.704825,19.4884218 C163.44265,13.8497352 168.110727,9.47050497 172.709056,6.35073121 C174.114157,5.76282078 176.571324,5.40697539 174.273406,9.4946158 C171.975489,13.5822562 169.741853,17.985416 170.912551,19.2447296 C172.08325,20.5040431 175.002492,18.7448376 176.399117,20.8371978 C177.330201,22.2321045 172.342908,24.4356645 161.437236,27.4478777 L140.735289,46.4448552 L130.214151,35.1273281 Z M174.835835,48.322304 L187.35057,41.432093 C189.106564,34.7354821 191.205642,31.3661907 193.647802,31.3242189 C195.523889,30.4493545 192.256697,38.9111478 195.813164,38.1773426 C199.369632,37.4435373 208.049954,30.973323 209.545616,32.287021 C211.758353,34.2305525 209.785341,40.1983205 207.460664,43.1669655 C203.115847,48.7153594 199.518525,50.6127427 190.627186,53.0973775 C185.978335,54.3964728 180.952105,57.0003976 175.548495,60.9091518 L174.835835,48.322304 Z" id="Skin" fill="#B5C1D7"></path>
                            <path d="M117.262701,28.5942891 C127.135637,30.0510342 140.609638,30.0464082 156.046981,23.3457904 L159.604943,36.5277635 C148.407443,44.6171953 133.553393,50.3681572 121.713086,48.1496925 C112.382272,46.40142 109.391678,34.2805678 117.262701,28.5942891 Z" id="Sleeve" fill="#C53E5A" transform="translate(136.172939, 35.987540) rotate(-9.000000) translate(-136.172939, -35.987540) "></path>
                            <path d="M129.776017,51.6305025 C140.370239,54.278505 158.136096,51.1557784 183.073585,42.2623227 C189.259113,55.0875102 192.118527,64.2308852 191.651828,69.6924479 C170.259136,80.8919956 151.923752,85.8853018 136.817846,86.2149361 C137.297891,95.1981356 136.206898,103.745857 132.541924,111.55619 C125.00736,127.61291 80.8882979,112.742597 66.0541174,115.669438 C56.7645174,85.4332442 74.7262401,73.1453772 74.7406924,53.798498 C74.7565191,32.6116037 91.7308713,-1.42108547e-13 94.2283072,-1.42108547e-13 L117.003547,-1.42108547e-13 C118.26019,16.1807103 124.585226,34.013255 129.776017,51.6305025 Z" id="Clothes" fill="#F46885"></path>
                        </g>
                    </g>
                </g>
                <g id="bubble" transform="translate(180.000000, 144.000000)">
                    <rect id="BG" fill="#F0F5F8" x="0" y="0" width="45" height="29" rx="14.4"></rect>
                    <g id="dots" transform="translate(9.642857, 11.277778)">
                        <ellipse id="100%" fill="#C5CFD6" cx="3.21428571" cy="3.22222222" rx="3.21428571" ry="3.22222222"></ellipse>
                        <ellipse id="50%" fill="#DDE3E9" cx="12.8571429" cy="3.22222222" rx="3.21428571" ry="3.22222222"></ellipse>
                        <ellipse id="30%" fill="#DDE3E9" cx="22.5" cy="3.22222222" rx="3.21428571" ry="3.22222222"></ellipse>
                    </g>
                </g>
                <path d="M613.980481,101.659775 C610.569531,100.91462 606.803318,100.971651 603.328853,101.033121 C584.695311,101.286515 566.397488,110.108514 554.488828,124.204657 C544.350902,136.205007 541.563234,151.124851 539.560426,166.206908 C539.361855,167.70439 539.276704,169.192311 539.164681,170.692867 C539.140601,171.014903 539.104656,171.302105 539.066268,171.572574 C538.278615,172.276749 537.865421,173.097718 538.331661,173.999623 C536.596522,177.796774 535.128704,181.690229 533.869228,185.705941 C530.162342,197.525979 526.391592,209.570724 528.714416,222 C529.257083,215.160073 530.398603,208.165788 531.76382,201.438216 C531.842341,201.051978 531.927144,200.668814 532.015436,200.287015 C532.02451,200.246718 532.032885,200.206421 532.041959,200.166465 C532.525299,198.106189 533.153466,196.107724 533.917388,194.140678 C533.925414,194.119163 533.933092,194.09799 533.941468,194.076817 C534.042323,193.817959 534.149461,193.560467 534.255202,193.302975 C534.474014,192.769892 534.698758,192.237833 534.937113,191.708506 C535.017728,191.528194 535.095202,191.346174 535.169535,191.162788 C536.281741,188.436925 536.75147,185.365464 537.747814,182.545006 C537.986169,181.903667 538.235342,181.264718 538.49638,180.629185 C538.511735,180.591961 538.52744,180.554737 538.543144,180.517514 C539.248785,178.807276 540.028411,177.11787 540.852706,175.446222 C541.300799,175.109501 541.540201,174.27419 541.926524,173.515033 C542.006441,173.365455 542.631118,172.36793 542.817126,171.793184 C543.30256,170.854056 543.786249,169.914586 544.275172,168.977165 C544.260515,168.982629 544.245858,168.988093 544.231201,168.993557 C544.720473,168.09336 545.211142,167.19692 545.697972,166.304236 C545.805109,166.108214 545.913294,165.911851 546.021129,165.715146 C546.195969,165.40199 546.370809,165.089175 546.5453,164.777043 C548.177489,161.856183 549.90809,158.993721 551.705347,156.166774 C552.346776,155.15798 553.879156,153.711381 554.172999,152.578622 C554.183817,152.536275 554.18626,152.497344 554.192891,152.456706 C558.092764,146.979369 562.582417,141.927201 567.966511,137.924124 C567.31566,138.627616 565.932295,141.015051 565.566562,141.487689 C564.447377,142.93497 563.232222,144.282193 562.01253,145.645807 C559.828252,148.088564 557.695623,150.608843 555.800651,153.273918 C552.33526,158.147822 549.345531,163.27717 546.519475,168.50965 C546.492604,168.540385 546.463289,168.569413 546.437814,168.600831 C545.017457,170.351707 544.123365,172.998 543.100848,175.000904 C547.147294,173.126746 551.621592,171.905879 555.774477,170.241744 C559.915846,168.582731 563.944494,166.73521 567.833898,164.565653 C573.003368,161.682359 578.365825,158.426829 583.250176,154.742714 C588.847498,151.270672 593.551077,146.491705 597.702915,141.476761 C602.615185,135.543178 607.117053,129.557687 609.901231,122.353038 C611.268891,118.812695 612.344803,115.121068 612.982742,111.386411 C613.01066,111.223515 613.046256,111.046959 613.084993,110.863573 C613.73759,109.573723 614.321087,108.254846 614.810709,106.905575 C615.588241,104.765728 617.424584,102.411761 613.980481,101.659775" id="Fill-10" fill="#EDF0F5"></path>
                <path d="M293.225393,349.334154 C292.69196,348.94624 291.426405,348.808691 290.837645,348.692486 C288.390395,348.21005 285.869376,348 283.374455,348 C275.681258,348.011519 267.863142,348.766681 260.297649,350.073733 C255.494316,350.903429 249.687447,353.695735 244.909168,352.179311 C236.58476,349.53709 228.17162,349.666846 220.273819,353.438932 C213.053162,356.888151 207.571642,363.438992 204.372783,370.517328 C203.890154,371.585871 201.932145,375.518544 201.377834,378.169574 C201.140868,378.711638 200.913298,379.257428 200.707998,379.81135 C200.125501,381.384012 199.603203,382.984455 199.11779,384.587948 C198.910402,385.271964 198.388799,386.78229 199.00818,387.074326 C198.018563,388.900742 197.141339,390.783059 196.410609,392.726357 C194.285576,398.378049 191.962202,404.577565 191.215465,410.567708 C190.938832,412.785765 190.928393,415.016696 191.185192,417.239158 C191.3122,418.337514 191.259657,420.546424 192.004306,421.381541 C193.584771,423.153751 194.396229,420.672793 194.21807,419.491094 C192.85752,410.484704 195.484669,402.027155 198.598275,393.561135 C200.611611,388.08663 203.919731,383.0783 207.625576,378.542582 C210.624702,374.871116 213.842002,371.979884 217.953229,369.545679 C222.980652,366.569071 228.355695,364.162647 233.681326,361.748769 C237.183959,360.160523 240.690767,358.614963 244.291179,357.246591 C245.091851,356.942019 246.35149,356.161447 247.239153,356.158398 C249.116434,356.151622 251.77664,357.536934 253.589894,358.052233 C259.554044,359.747877 265.594399,361.918842 271.758281,362.784789 C275.711879,363.340743 279.415985,362.714998 283.11348,361.397783 C283.491372,361.263622 284.124671,360.917718 284.900637,360.423762 C287.645747,359.367754 290.242622,358.038682 292.50371,356.12147 C293.806498,355.016676 294.988541,353.589016 296.066542,352.282304 C296.389107,351.891679 296.531773,351.443799 296.536645,351.018279 C296.780917,350.890555 296.94307,350.741487 296.979606,350.567349 C297.248585,349.281303 294.795767,349.257588 293.225393,349.334154" id="Twisted-Leaf" fill="#DBE0EB" transform="translate(244.000000, 385.000000) scale(-1, 1) translate(-244.000000, -385.000000) "></path>
                <path d="M233.226459,386.096804 C231.284335,386.096804 229.348131,386.135613 227.408445,386.236039 C225.929909,386.312976 223.670482,386.007952 222.419386,386.925066 C221.119528,387.877583 221.209041,389.827556 221.412101,391.204588 C222.485563,398.486686 225.105481,404.943926 230.58634,410.103114 C239.025317,418.047345 248.699717,422.083801 260.147664,423.881262 C268.18923,425.14391 275.61291,423.390705 281.532629,417.699768 C285.857826,425.688595 289.139167,434.529173 290.785584,443.451794 C291.597821,447.854551 291.845812,452.204201 291.703008,456.687299 C291.611057,459.55881 291.451883,462.423513 291.142592,465.281407 C291.008497,466.523289 290.372151,468.403133 290.860817,469.576589 C291.43412,470.954642 293.367537,471.088089 294.235502,469.912932 C294.957878,468.934882 294.825175,467.014186 294.973552,465.85673 C295.219452,463.933992 295.44724,462.009893 295.610245,460.078303 C295.874954,456.951812 296.070699,453.816469 296.057152,450.678062 C296.02333,443.626774 294.447966,436.547912 292.29303,429.854414 C288.159049,417.013124 281.451474,405.600612 271.019521,396.646331 C264.605216,391.140247 257.264082,388.910442 248.935168,387.713497 C243.749668,386.9683 238.47953,386.096804 233.226459,386.096804" id="Fill-16" fill="#EDF0F5" transform="translate(258.675502, 428.403558) rotate(-39.000000) translate(-258.675502, -428.403558) "></path>
                <path d="M620.985552,167.375543 C617.041234,164.700897 611.796053,164 607.075943,164 C588.640081,164 571.311227,170.840049 556.341136,181.031869 C548.13827,186.616354 540.800186,193.727973 534.321713,201.132413 C530.582329,205.406588 527.248011,210.030491 524.887402,215.173043 C523.294462,218.644032 522.201116,222.260531 521.460033,225.990844 C520.55685,230.53695 519.839399,235.17526 519.51483,239.797002 C519.387069,241.616957 518.32954,251.27428 521.355536,251.437799 C521.338181,251.675873 521.334119,251.902782 521.352582,252.10628 C514.782166,262.379859 510.722643,274.420088 506.958149,285.835416 C503.682911,295.768992 500.764367,305.786488 498.869751,316.062949 C496.375474,329.592494 494.737117,343.325536 493.958001,357.049575 C493.790732,359.999033 493.675895,362.949932 493.576936,365.903351 C493.493117,368.422403 493.40819,370.941454 493.325478,373.460505 C493.233166,376.283542 492.736156,379.533745 493.185163,382.340214 C493.575829,384.784349 495.691256,384.414451 495.784676,381.982202 C495.897666,379.04499 495.879204,376.102015 496.007702,373.162642 C496.178665,369.261606 496.354796,365.360571 496.545698,361.460615 C497.874625,334.36875 502.860224,307.675236 512.06117,282.084213 C515.784677,271.728154 520.051348,261.9246 525.535065,252.344715 C530.356348,243.921705 536.155772,235.767384 542.083695,228.172773 C547.845456,220.792465 553.835782,213.582879 560.895453,207.329912 C566.62435,202.255793 572.925953,197.835387 579.403688,193.72221 C587.631293,188.498258 595.843021,183.401088 604.755213,179.39092 C609.387811,177.306598 614.10792,175.44054 618.776704,173.440499 C619.616746,173.080686 620.517344,172.731678 621.325261,172.314958 C624.020409,170.925049 623.133103,168.831723 620.985552,167.375543" id="Fill-1" fill="#DAE0EB"></path>
                <path d="M561.1822,262 C553.704911,262 547.05129,262.971586 540.161789,265.943116 C534.214766,268.507723 528.795086,271.902835 523.533123,275.599146 C516.131565,280.797709 510.301613,286.848195 506.220786,294.86497 C503.782781,299.65423 501.994401,306.431196 503.631665,311.654916 C505.560392,317.807388 510.856053,322.93864 517.830664,321.85453 C522.14355,321.184822 526.097231,318.329896 529.375233,315.642906 C533.296606,312.428309 536.435651,308.563042 539.027551,304.270114 C543.255673,297.267419 545.740228,289.35093 549.331926,282.033439 C551.036237,278.560477 552.683227,275.062699 554.724509,271.762094 C555.735076,270.1276 556.810953,268.508743 558.343998,267.29409 C559.164194,266.64444 562.622492,265.519875 561.299967,264.060796 C580.690409,264.315421 597.868304,279.207408 601.590622,297.640687 C601.93732,299.358811 602.208287,301.090872 602.494539,302.819534 C602.675183,303.911123 602.60223,307.936508 603.578058,308.633752 C605.730158,310.17204 604.825546,305.499044 604.73314,304.826277 C604.494481,303.087417 604.239842,301.349916 603.972696,299.615475 C602.519203,290.181436 598.319221,281.411324 591.31508,274.683312 C583.305584,266.989832 572.498879,262 561.1822,262" id="Fill-20" fill="#EDF0F5" transform="translate(554.000000, 292.000000) scale(-1, 1) translate(-554.000000, -292.000000) "></path>
                <g id="phone" transform="translate(280.000000, 82.000000)">
                    <g>
                        <path d="M58.9161467,0 L202.629086,0 C220.443582,-3.27246999e-15 234.885086,14.4415031 234.885086,32.256 L234.885086,353.628604 C234.885086,371.443101 220.443582,385.884604 202.629086,385.884604 L58.9161467,385.884604 C41.1016498,385.884604 26.6601467,371.443101 26.6601467,353.628604 L26.6601467,32.256 C26.6601467,14.4415031 41.1016498,3.27246999e-15 58.9161467,0 Z" id="side" fill="#B5C1D7"></path>
                        <path d="M41.9088117,0 L185.621751,0 C203.436248,-3.27246999e-15 217.877751,14.4415031 217.877751,32.256 L217.877751,353.628604 C217.877751,371.443101 203.436248,385.884604 185.621751,385.884604 L41.9088117,385.884604 C24.0943148,385.884604 9.65281174,371.443101 9.65281174,353.628604 L9.65281174,32.256 C9.65281174,14.4415031 24.0943148,3.27246999e-15 41.9088117,0 Z" id="front" fill="#C4CFE2"></path>
                        <rect id="speaker" fill="#B1BED4" x="59.2958435" y="24.9255605" width="109.398533" height="6.92376682" rx="3.46188341"></rect>
                        <ellipse id="button" fill="#B7C2D8" cx="113.535452" cy="358.189537" rx="19.3056235" ry="19.3865471"></ellipse>
                        <g id="screen" transform="translate(18.386308, 55.390135)">
                            <mask id="mask-2" fill="white">
                                <use xlink:href="#path-1"></use>
                            </mask>
                            <g>
                                <use fill="black" fill-opacity="1" filter="url(#filter-3)" xlink:href="#path-1"></use>
                                <use fill="#FFFFFF" fill-rule="evenodd" xlink:href="#path-1"></use>
                            </g>
                            <g id="woman" mask="url(#mask-2)">
                                <g transform="translate(-101.386308, -12.390135)" id="components/A-Human/Standing">
                                    <g transform="translate(224.000000, 318.000000) scale(-1, 1) translate(-224.000000, -318.000000) ">
                                        <g id="components/Head/Front/Short-2" transform="translate(122.410176, 0.000000)">
                                            <g id="Head" stroke-width="1" transform="translate(80.564493, 46.080502)" fill="#BBC8E0">
                                                <path d="M12.326776,51.2684627 C5.45207428,43.2285287 0.799132327,33.3754787 1.57664166,22.3348533 C3.81686254,-9.47626278 48.2619069,-2.47822254 56.9073882,13.5772971 C65.5528694,29.6328168 64.5255615,70.3589739 53.3520473,73.2285431 C48.8960652,74.3729234 39.4034985,71.5696501 29.7422803,65.767736 L35.8064414,108.512149 L0,108.512149 L12.326776,51.2684627 Z"></path>
                                            </g>
                                            <path d="M90.1399387,104.509864 C85.6458778,84.5896183 72.843032,71.010654 74.7983336,62.1071559 C76.1018681,56.1714905 79.5761782,52.4803086 85.2212638,51.0336102 C88.1408487,39.2657913 97.557109,34.2604793 113.470045,36.0176741 C137.339448,38.6534663 151.908003,48.5298419 145.616564,70.2621782 C139.833252,70.2621782 132.851559,68.178312 123.197328,71.748646 C120.134079,72.8814985 117.943154,76.3945737 116.624553,82.2878716 L112.261844,82.2878716 C108.027651,75.2941382 103.85271,72.7241321 99.7370203,74.5778531 C95.6213307,76.4315742 94.6857676,80.93427 96.9303308,88.0859405 L94.7812556,104.509864 L90.1399387,104.509864 Z" id="Hair" fill="#191847"></path>
                                        </g>
                                        <g id="components/Bottom/Standing/Shorts" transform="translate(0.000000, 279.184674)">
                                            <polygon id="Leg" fill="#B5C1D7" points="191.079299 9.9475983e-14 247.254878 183.712401 274.467729 339.947964 295.804484 339.947964 267.049702 9.9475983e-14"></polygon>
                                            <path d="M170.982724,0 C174.798305,100.867982 170.307881,152.897514 169.453909,162.061809 C168.599936,171.226103 156.906254,230.647881 129.22288,343.024416 L151.958787,335.21329 C195.709777,232.147376 210.618554,178.582201 215.636462,165.048415 C220.654369,151.51463 233.981682,96.4984912 255.6184,0 L170.982724,0 Z" id="Leg" fill="#C4CFE2"></path>
                                            <g id="components/Accessories/Shoe/Flat-Sneaker" transform="translate(125.395790, 297.167357)" fill="#DCE4F2">
                                                <path d="M3.9299291,38.218113 C2.30388521,42.6069343 1.49086326,45.8977599 1.49086326,48.0905898 C1.49086326,50.7917045 1.93873977,54.7333025 2.83449277,59.9153839 C5.95328711,59.9153839 33.9824171,59.9153839 86.9218826,59.9153839 C89.1070158,52.657395 87.8456302,48.7390403 83.1377258,48.1603199 C78.4298214,47.5815994 74.5188853,47.0590612 71.4049174,46.5927052 L32.4027539,29.1234592 C31.6100186,28.7683895 30.6795388,29.1231875 30.324469,29.9159228 C30.3176655,29.9311126 30.3111035,29.9464093 30.3047855,29.9618074 L27.8242988,36.0071911 C23.4660107,38.0502414 19.9244491,39.0717666 17.1996141,39.0717666 C15.0160023,39.0717666 12.0117846,38.1978302 8.18696101,36.4499576 L8.18695951,36.4499608 C6.60688614,35.7278969 4.74063513,36.423451 4.01857121,38.0035244 C3.98639318,38.0739387 3.95682567,38.145517 3.9299291,38.218113 Z" id="shoe"></path>
                                            </g>
                                            <g id="components/Accessories/Shoe/Flat-Sneaker" transform="translate(265.719650, 297.167357)" fill="#DCE4F2">
                                                <path d="M3.9299291,38.218113 C2.30388521,42.6069343 1.49086326,45.8977599 1.49086326,48.0905898 C1.49086326,50.7917045 1.93873977,54.7333025 2.83449277,59.9153839 C5.95328711,59.9153839 33.9824171,59.9153839 86.9218826,59.9153839 C89.1070158,52.657395 87.8456302,48.7390403 83.1377258,48.1603199 C78.4298214,47.5815994 74.5188853,47.0590612 71.4049174,46.5927052 L32.4027539,29.1234592 C31.6100186,28.7683895 30.6795388,29.1231875 30.324469,29.9159228 C30.3176655,29.9311126 30.3111035,29.9464093 30.3047855,29.9618074 L27.8242988,36.0071911 C23.4660107,38.0502414 19.9244491,39.0717666 17.1996141,39.0717666 C15.0160023,39.0717666 12.0117846,38.1978302 8.18696101,36.4499576 L8.18695951,36.4499608 C6.60688614,35.7278969 4.74063513,36.423451 4.01857121,38.0035244 C3.98639318,38.0739387 3.95682567,38.145517 3.9299291,38.218113 Z" id="shoe"></path>
                                            </g>
                                            <polygon id="Bottom" fill="#E3ECF3" points="183.615264 0 207.500176 93.5995344 280.45413 93.5995344 269.576398 0"></polygon>
                                            <path d="M170.180001,-3.55271368e-15 C162.321027,23.5651416 160.82822,54.7649864 165.70158,93.5995344 L240.14834,93.5995344 L260.619556,-3.55271368e-15 L170.180001,-3.55271368e-15 Z" id="Bottom" fill="#F0F5F8"></path>
                                        </g>
                                        <g id="components/Body/Jacket-2" transform="translate(32.841755, 122.423226)">
                                            <path d="M295.182877,115.846221 L349.202189,92.0956398 C358.665113,82.6551292 367.802914,75.4799046 376.615594,70.5699659 C379.250753,69.7300556 383.752798,69.4763088 378.949468,76.5001332 C374.146137,83.5239577 369.409279,91.1282387 371.328564,93.5898501 C373.247849,96.0514616 378.807598,93.3345128 381.004085,97.3375759 C382.46841,100.006285 373.096675,103.198618 352.888881,106.914575 L312.431605,137.968872 L295.182877,115.846221 Z M76.7897128,122.387871 L107.339228,128.456286 C76.6164784,185.777413 60.1404197,216.157644 57.9110518,219.596978 C52.8949742,227.33548 57.5750762,241.517893 59.3038863,248.98645 C48.458301,251.51397 52.7354667,235.171286 39.0105882,238.58349 C26.4831555,241.697991 15.8614032,249.690911 4.18008532,238.911183 C2.74393593,237.585879 1.69260667,233.443353 6.58916744,231.318672 C18.788286,226.025315 36.8114562,216.113611 39.7339147,212.265488 C43.7192091,207.017885 56.0711418,177.058679 76.7897128,122.387871 Z" id="Skin" fill="#C4CFE2"></path>
                                            <path d="M183.781444,14.734402 L196.43078,11.4055922 C226.779107,36.1233876 243.903628,100.388013 263.300549,107.395808 C281.639553,114.021394 305.932025,103.931981 334.695736,90.6618846 L345.570181,110.209501 C321.144158,141.795818 265.820399,171.516145 241.286497,159.458992 C202.061887,140.182111 186.419643,60.4419984 183.781444,14.734402 Z" id="Coat-Back" fill="#C53E5A" transform="translate(264.675812, 86.804381) rotate(5.000000) translate(-264.675812, -86.804381) "></path>
                                            <path d="M134.174035,170.148991 C185.863473,170.148991 223.88514,170.148991 248.239036,170.148991 C253.451225,170.148991 252.469087,162.614133 251.715634,158.812002 C243.01987,114.930817 209.074907,67.6290232 209.074907,5.16526113 L176.173192,0 C148.959246,43.81845 139.548192,97.7678341 134.174035,170.148991 Z" id="Shirt" fill="#E3ECF3"></path>
                                            <path d="M122.797202,125.720955 C99.5442847,167.712924 79.9989496,197.945131 64.1611964,216.417576 L40.2522105,211.729255 C55.6532917,116.105302 100.252767,45.5288832 174.050638,-9.9475983e-14 L179.989195,-9.9475983e-14 L187.07796,0 C216.61492,100.801259 224.757737,167.965334 211.506411,201.492226 L108.830051,201.492226 C110.454493,176.960101 115.663081,151.016482 122.797204,125.72095 Z" id="Coat-Front" fill="#F46885"></path>
                                        </g>
                                    </g>
                                </g>
                            </g>
                            <g id="4" mask="url(#mask-2)">
                                <g transform="translate(135.193154, 210.944096)"></g>
                            </g>
                        </g>
                    </g>
                </g>
                <g id="Head/Front/Rad" filter="url(#filter-4)" transform="translate(332.000000, 347.000000)">
                    <mask id="mask-6" fill="white">
                        <use xlink:href="#path-5"></use>
                    </mask>
                    <use id="Mask" fill="#FFFFFF" xlink:href="#path-5"></use>
                    <g id="components/Head/Front/Short-1" mask="url(#mask-6)">
                        <g transform="translate(46.000000, 26.000000) scale(-1, 1) translate(-46.000000, -26.000000) translate(5.000000, -5.000000)">
                            <g id="Head" stroke-width="1" fill="none" transform="translate(32.400000, 18.600000)">
                                <path d="M4.95736433,20.6940761 C2.19261861,17.4488255 0.321380876,13.4717263 0.6340658,9.01527233 C1.53499813,-3.82501234 19.4091184,-1.00031331 22.8860048,5.48035975 C26.3628913,11.9610328 25.9497468,28.3997975 21.4561808,29.5580745 C19.6641529,30.0199938 15.8466007,28.8884766 11.9612232,26.5465836 L14.4,43.8 L0,43.8 L4.95736433,20.6940761 Z" fill="#BBC8E0"></path>
                            </g>
                            <path d="M48.935214,25.0202457 C46.9810918,26.1133329 45.5904056,28.1615759 43.9163565,30.8482621 C43.5086343,30.688008 43.0645948,30.6 42.6,30.6 C40.6117749,30.6 39,32.2117749 39,34.2 C39,35.209331 39.4153751,36.1216459 40.084509,36.7753284 C39.2515165,37.9510915 38.3179729,39.1793308 37.2482318,40.4467141 C33.2562229,38.0516712 30.2870637,31.071243 34.0986662,24.3325488 C37.3781372,10.8344559 55.961012,19.2125752 59.5362027,16.9360665 C60.317671,21.8342912 57.7970683,25.7838355 48.935214,25.0202457 Z" id="Hair" fill="#191847"></path>
                        </g>
                    </g>
                </g>
                <g id="Head/Front/Rad-Copy" filter="url(#filter-7)" transform="translate(419.000000, 347.000000)">
                    <mask id="mask-9" fill="white">
                        <use xlink:href="#path-8"></use>
                    </mask>
                    <use id="Mask" fill="#FFFFFF" xlink:href="#path-8"></use>
                    <g id="components/Head/Front/Wavy" mask="url(#mask-9)">
                        <g transform="translate(36.000000, 26.000000) scale(-1, 1) translate(-36.000000, -26.000000) translate(-5.000000, -5.000000)">
                            <g id="Head" stroke-width="1" fill="none" transform="translate(32.400000, 18.600000)">
                                <path d="M4.95736433,20.6940761 C2.19261861,17.4488255 0.321380876,13.4717263 0.6340658,9.01527233 C1.53499813,-3.82501234 19.4091184,-1.00031331 22.8860048,5.48035975 C26.3628913,11.9610328 25.9497468,28.3997975 21.4561808,29.5580745 C19.6641529,30.0199938 15.8466007,28.8884766 11.9612232,26.5465836 L14.4,43.8 L0,43.8 L4.95736433,20.6940761 Z" fill="#C4CFE2"></path>
                            </g>
                            <path d="M56.6454577,26.9901797 C56.5028187,26.1501498 56.1542179,25.2173058 55.8729383,24.4225586 C55.5102968,23.3980248 54.9614994,22.4742782 54.3575618,21.603685 C53.2205413,19.9646149 51.8565444,18.4844941 50.3505594,17.2560348 C47.5996913,15.0121391 44.0979693,13.7178512 40.6544559,14.1381728 C38.9158225,14.3503779 37.2280518,15.0135701 35.7915266,16.1174254 C34.493642,17.1147692 33.2452255,18.5829304 31.5646146,18.6884196 C29.7359717,18.8031085 28.0597312,17.1890819 26.5931718,16.1922492 C24.9396196,15.0684614 23.1805295,14.2495907 21.2479293,13.931283 C18.0103777,13.3982146 14.9689315,14.4920525 12.7376635,17.1482968 C10.3632916,19.9749389 8.63730415,24.1201969 10.1965695,27.8654748 C10.4864038,28.5616835 10.8592736,29.1486209 11.3944023,29.6350777 C11.8851771,30.0811583 12.6347291,30.5557578 12.833717,31.2685259 C13.0450719,32.0261678 12.4137038,33.003579 12.1688743,33.6872149 C11.8181349,34.6666705 11.5301604,35.694782 11.6325368,36.7593854 C11.8007467,38.5077269 12.8994574,40.176747 14.0596312,41.3258849 C15.2402617,42.4952621 16.6933382,43.165814 18.2453508,43.4749221 C19.2816686,43.6813008 20.3407677,43.795172 21.3940088,43.7176905 C21.9168634,43.6792565 22.3782549,43.5340043 22.8848372,43.4184976 C23.3774717,43.3061597 23.6528003,43.4369991 24.0707678,43.707162 C26.0123875,44.9624026 28.1000867,45.4480416 30.3420479,45.261391 C32.2341996,45.1037704 34.4150697,44.6452192 35.9586206,43.3487847 C37.672799,41.908938 37.6386736,39.9234501 37.2353046,37.8021141 C37.6626637,38.0139104 38.8449679,38.1450564 38.1384679,37.3008356 C37.8585831,36.9664796 37.3297774,36.8304271 36.9706693,36.6337591 C36.5525158,36.4047901 36.1279463,36.1088682 35.8032427,35.7353626 C34.4921543,34.2272341 35.8163536,31.1580279 37.4642337,30.6522519 C39.9125286,29.9008453 40.4606752,33.3632852 42.2084212,34.2589217 C43.21331,34.7738975 44.2645054,34.0700224 45.0174049,33.3513256 C46.0259202,32.3885316 46.7132653,31.1130519 47.3066955,29.8150841 C47.7955177,28.7461875 48.2504003,27.6622649 48.7486139,26.5986836 C48.9812623,26.102005 49.7866984,24.6979347 49.3822136,24.1363474 C51.1358177,23.7866587 53.0889675,24.5153728 54.5992298,25.4710115 C55.2234381,25.8660852 55.6993353,26.3016373 56.0323146,26.9990727 C56.1036341,27.1485158 56.258919,27.5927564 56.4539086,27.6109513 C56.816922,27.6448878 56.6812569,27.2012604 56.6454577,26.9901797" id="hair" fill="#191847"></path>
                        </g>
                    </g>
                </g>
                <g id="Head/Front/Rad-Copy-2" filter="url(#filter-10)" transform="translate(506.000000, 347.000000)">
                    <mask id="mask-12" fill="white">
                        <use xlink:href="#path-11"></use>
                    </mask>
                    <use id="Mask" fill="#DAE0EB" xlink:href="#path-11"></use>
                    <g id="components/Head/Front/Short-Beard" mask="url(#mask-12)">
                        <g transform="translate(46.000000, 26.000000) scale(-1, 1) translate(-46.000000, -26.000000) translate(5.000000, -5.000000)">
                            <g id="Head" stroke-width="1" fill="none" transform="translate(32.400000, 18.600000)">
                                <path d="M4.95736433,20.6940761 C2.19261861,17.4488255 0.321380876,13.4717263 0.6340658,9.01527233 C1.53499813,-3.82501234 19.4091184,-1.00031331 22.8860048,5.48035975 C26.3628913,11.9610328 25.9497468,28.3997975 21.4561808,29.5580745 C19.6641529,30.0199938 15.8466007,28.8884766 11.9612232,26.5465836 L14.4,43.8 L0,43.8 L4.95736433,20.6940761 Z" fill="#E3ECF3"></path>
                            </g>
                            <path d="M45.0811832,29.0333574 C45.6323936,36.7116633 47.0904908,40.5508162 49.4554749,40.5508162 C53.0031587,40.5508162 56.0131164,38.2986266 57.5697549,38.2986266 C58.7044915,38.2986266 58.4511396,39.7186443 57.6989769,40.7714865 C57.0784184,41.6401153 54.0563504,42.4773695 54.0563504,43.8240357 C54.0563504,45.1707019 56.4440348,44.1288605 56.4440348,44.9275419 C56.4440348,46.2486584 56.8636667,48.7325937 54.5707345,48.7325937 C52.2502106,48.7325937 45.5968575,47.8869502 44.456653,44.4428833 C43.7207983,42.2201832 43.2450154,37.6143329 43.0293043,30.6253322 C42.8885338,30.6086047 42.7452718,30.6 42.6,30.6 C40.6117749,30.6 39,32.2117749 39,34.2 C39,35.209331 39.4153751,36.1216459 40.084509,36.7753284 C39.2515178,37.9510897 38.3179737,39.1793299 37.2482318,40.4467141 C33.2294432,38.0356045 30.2472736,30.9773828 34.1762917,24.196967 C35.2622846,20.8753467 37.7208208,19.1011445 40.6244111,18.2773255 C42.9764689,17.2934522 45.4181275,17.1825196 47.479235,17.7723428 C51.5195767,18.1188982 55.1274079,19.3509079 56.1498963,20.0825682 C56.1498963,23.9077027 55.4087221,25.0426089 49.0780834,24.9425712 C47.5225428,25.7640817 46.3267217,27.1787218 45.0811832,29.0333574 Z" id="Hair" fill="#191847"></path>
                        </g>
                    </g>
                </g>
                <g id="bubble" transform="translate(307.000000, 192.000000)">
                    <rect id="BG" fill="#F0F5F8" x="0" y="0" width="61" height="40" rx="19.44"></rect>
                    <g id="dots" transform="translate(13.071429, 15.555556)">
                        <ellipse id="100%" fill="#C5CFD6" cx="4.35714286" cy="4.44444444" rx="4.35714286" ry="4.44444444"></ellipse>
                        <ellipse id="50%" fill="#DDE3E9" cx="17.4285714" cy="4.44444444" rx="4.35714286" ry="4.44444444"></ellipse>
                        <ellipse id="30%" fill="#DDE3E9" cx="30.5" cy="4.44444444" rx="4.35714286" ry="4.44444444"></ellipse>
                    </g>
                </g>
            </g>
        </g>
    </g>
</svg>