<?xml version="1.0" encoding="UTF-8"?>
<svg width="631px" height="560px" viewBox="0 0 631 560" version="1.1" xmlns="http://www.w3.org/2000/svg" xmlns:xlink="http://www.w3.org/1999/xlink">
    <!-- Generator: Sketch 55.1 (78136) - https://sketchapp.com -->
    <title>web/boost/contacts</title>
    <desc>Created with Sketch.</desc>
    <defs>
        <rect id="path-1" x="0.00891104489" y="0.726173429" width="211.592761" height="118.234845" rx="6"></rect>
        <filter x="-3.3%" y="-4.2%" width="106.6%" height="111.8%" filterUnits="objectBoundingBox" id="filter-2">
            <feOffset dx="0" dy="2" in="SourceAlpha" result="shadowOffsetOuter1"></feOffset>
            <feGaussianBlur stdDeviation="2" in="shadowOffsetOuter1" result="shadowBlurOuter1"></feGaussianBlur>
            <feColorMatrix values="0 0 0 0 0   0 0 0 0 0   0 0 0 0 0  0 0 0 0.05 0" type="matrix" in="shadowBlurOuter1"></feColorMatrix>
        </filter>
        <rect id="path-3" x="0.153715524" y="0.46778043" width="201.300504" height="112.481146" rx="6"></rect>
        <filter x="-3.5%" y="-4.4%" width="107.0%" height="112.4%" filterUnits="objectBoundingBox" id="filter-4">
            <feOffset dx="0" dy="2" in="SourceAlpha" result="shadowOffsetOuter1"></feOffset>
            <feGaussianBlur stdDeviation="2" in="shadowOffsetOuter1" result="shadowBlurOuter1"></feGaussianBlur>
            <feColorMatrix values="0 0 0 0 0   0 0 0 0 0   0 0 0 0 0  0 0 0 0.05 0" type="matrix" in="shadowBlurOuter1"></feColorMatrix>
        </filter>
    </defs>
    <g id="web/boost/contacts" stroke="none" stroke-width="1" fill="none" fill-rule="evenodd">
        <g id="web/operations/contacts">
            <path d="M254.445022,466.776437 C334.322795,345.435183 316.491281,433.803177 503.627639,297.05616 C690.763997,160.309143 494.515042,-4.77556842 255.347375,67.9274172 C16.1797088,140.630403 7.05086273,170.529456 7.04466386,297.080483 C7.03846499,423.63151 174.56725,588.117692 254.445022,466.776437 Z" id="Oval" fill="#F0F5F8" fill-rule="nonzero" transform="translate(292.585248, 279.705936) rotate(34.000000) translate(-292.585248, -279.705936) "></path>
            <g id="illustration" stroke-width="1" fill-rule="evenodd" transform="translate(29.869822, 91.466667)">
                <g id="card" transform="translate(102.677515, 0.000000)">
                    <g id="Rectangle">
                        <use fill="black" fill-opacity="1" filter="url(#filter-2)" xlink:href="#path-1"></use>
                        <use fill="#FFFFFF" fill-rule="evenodd" xlink:href="#path-1"></use>
                    </g>
                    <g id="single-neutral-circle" transform="translate(19.602071, 33.600000)"></g>
                    <g id="text" transform="translate(88.676036, 42.000000)" fill="#E3ECF3">
                        <rect id="Rectangle" x="0.0668328367" y="0.505648369" width="48.8949033" height="6.076" rx="3.038"></rect>
                        <rect id="Rectangle" x="0.0668328367" y="15.8956245" width="79.0832957" height="6.076" rx="3.038"></rect>
                        <rect id="Rectangle" x="0.0668328367" y="31.2856006" width="95.9853201" height="6.076" rx="3.038"></rect>
                    </g>
                    <rect id="Rectangle" fill="#C8D8E4" x="158.162136" y="95.4984885" width="26.5593693" height="11.6677804" rx="4"></rect>
                    <ellipse id="Oval" fill="#C8D8E4" cx="39.8412817" cy="53.2178202" rx="22.028103" ry="22.0257757"></ellipse>
                </g>
                <g id="card" transform="translate(208.155325, 144.666667)">
                    <g id="Rectangle">
                        <use fill="black" fill-opacity="1" filter="url(#filter-4)" xlink:href="#path-3"></use>
                        <use fill="#FFFFFF" fill-rule="evenodd" xlink:href="#path-3"></use>
                    </g>
                    <ellipse id="Oval" fill="#C8D8E4" cx="38.0546172" cy="50.4066826" rx="20.9587776" ry="20.9565632"></ellipse>
                    <rect id="Rectangle" fill="#E3ECF3" x="84.5702716" y="25.5675418" width="91.3137048" height="6.076" rx="3.038"></rect>
                    <rect id="Rectangle" fill="#E3ECF3" x="84.5702716" y="40.2157518" width="46.5156543" height="6.076" rx="3.038"></rect>
                    <rect id="Rectangle" fill="#E3ECF3" x="84.5702716" y="54.8572792" width="75.2337243" height="6.076" rx="3.038"></rect>
                    <rect id="Rectangle" fill="#E3ECF3" x="84.5702716" y="69.4988067" width="91.3137048" height="6.076" rx="3.038"></rect>
                    <rect id="Rectangle" fill="#C8D8E4" x="150.614481" y="90.6291169" width="25.2694956" height="11.0997613" rx="4"></rect>
                </g>
                <g id="people" transform="translate(297.298077, 277.666667) scale(-1, 1) translate(-297.298077, -277.666667) translate(0.000000, 86.800000)">
                    <g id="man" transform="translate(370.572485, 0.000000)">
                        <ellipse id="shadow" fill="#E3ECF3" opacity="0.432593936" cx="112.011834" cy="321.066667" rx="93.3431953" ry="7.46666667"></ellipse>
                        <g id="components/Head/Front/Short-Beard" transform="translate(105.944527, 38.733333) scale(-1, 1) translate(-105.944527, -38.733333) translate(55.072485, 0.000000)">
                            <g id="Head" stroke-width="1" transform="translate(40.500000, 22.951923)" fill="#C4CFE2">
                                <path d="M6.19670541,25.5359592 C2.74077326,21.5314033 0.401726096,16.6237648 0.792582251,11.1246149 C1.91874767,-4.71996716 24.261398,-1.23436098 28.607506,6.76262341 C32.9536141,14.7596078 32.4371835,35.0446219 26.820226,36.4739061 C24.5801912,37.0439026 19.8082509,35.6476393 14.951529,32.7578035 L18,54.0480769 L0,54.0480769 L6.19670541,25.5359592 Z"></path>
                            </g>
                            <path d="M56.351479,35.8264186 C57.040492,45.3012512 58.8631135,50.0386674 61.8193436,50.0386674 C66.2539484,50.0386674 70.0163955,47.2595232 71.9621936,47.2595232 C73.3806144,47.2595232 73.0639246,49.0117887 72.1237211,50.310969 C71.348023,51.3828345 67.570438,52.4159848 67.570438,54.0777363 C67.570438,55.7394879 70.5550434,54.4538823 70.5550434,55.4394347 C70.5550434,57.0696586 71.0795834,60.134771 68.2134181,60.134771 C65.3127632,60.134771 56.9960718,59.0912687 55.5708162,54.8413784 C54.6509979,52.0986235 54.0562693,46.4151223 53.7866303,37.7908747 C53.6106673,37.7702334 53.4315897,37.7596154 53.25,37.7596154 C50.7647186,37.7596154 48.75,39.7485043 48.75,42.2019231 C48.75,43.4474116 49.2692189,44.5731848 50.1056363,45.3798123 C49.0643973,46.8306716 47.8974671,48.3462885 46.5602897,49.9102081 C41.536804,46.9349607 37.809092,38.2252961 42.7203646,29.8584369 C44.0778558,25.7596426 47.1510259,23.5703225 50.7805138,22.553751 C53.7205861,21.3396766 56.7726594,21.2027886 59.3490438,21.9306153 C64.3994708,22.3582558 68.9092599,23.8785242 70.1873704,24.7813742 C70.1873704,29.5014921 69.2609026,30.9019373 61.3476042,30.7784933 C59.4031785,31.7922162 57.9084021,33.5378458 56.351479,35.8264186 Z" id="Hair" fill="#191847"></path>
                        </g>
                        <g id="components/Bottom/Standing/Shorts" transform="translate(112.011834, 230.533333) scale(-1, 1) translate(-112.011834, -230.533333) translate(0.000000, 140.933333)">
                            <polygon id="Leg" fill="#B5C1D7" points="95.5733333 9.9475983e-14 123.671025 92.1394418 137.282248 170.498102 147.954387 170.498102 133.571927 9.9475983e-14"></polygon>
                            <path d="M85.5215031,0 C87.4299664,50.5895059 85.1839629,76.6844891 84.756826,81.2807657 C84.3296891,85.8770422 78.4807866,115.679546 64.6342199,172.041071 L76.006181,168.123465 C97.8893885,116.431605 105.346405,89.5664324 107.856244,82.7786736 C110.366082,75.9909149 117.032088,48.3980236 127.854261,0 L85.5215031,0 Z" id="Leg" fill="#C4CFE2"></path>
                            <g id="components/Accessories/Shoe/Flat-Sneaker" transform="translate(62.720000, 149.041841)" fill="#DCE4F2">
                                <path d="M1.82897503,19.5677263 C1.11239058,21.5505608 0.754098361,23.0544031 0.754098361,24.0792531 C0.754098361,25.4317178 0.98064022,27.4053001 1.43372394,30 C3.01125137,30 17.1887561,30 43.9662381,30 C45.0715073,26.3658804 44.4334818,24.4039362 42.0521615,24.1141674 C39.6708412,23.8243985 37.692638,23.5627604 36.1175518,23.3292531 L16.5770385,14.6653387 C16.0721555,14.4414825 15.4813956,14.6692999 15.2575395,15.1741829 C15.2542433,15.1816173 15.2510378,15.1890916 15.2479239,15.1966042 L14.0738984,18.0290213 C11.8694186,19.0519891 10.0780499,19.563473 8.69979233,19.563473 C7.66613186,19.563473 6.26893375,19.1802185 4.50819802,18.4137095 L4.50819034,18.4137271 C3.49543696,17.9728406 2.31702901,18.4364303 1.87614251,19.4491837 C1.85916336,19.4881862 1.84343286,19.5277205 1.82897503,19.5677263 Z" id="shoe"></path>
                            </g>
                            <g id="components/Accessories/Shoe/Flat-Sneaker" transform="translate(132.906667, 149.041841)" fill="#DCE4F2">
                                <path d="M1.82897503,19.5677263 C1.11239058,21.5505608 0.754098361,23.0544031 0.754098361,24.0792531 C0.754098361,25.4317178 0.98064022,27.4053001 1.43372394,30 C3.01125137,30 17.1887561,30 43.9662381,30 C45.0715073,26.3658804 44.4334818,24.4039362 42.0521615,24.1141674 C39.6708412,23.8243985 37.692638,23.5627604 36.1175518,23.3292531 L16.5770385,14.6653387 C16.0721555,14.4414825 15.4813956,14.6692999 15.2575395,15.1741829 C15.2542433,15.1816173 15.2510378,15.1890916 15.2479239,15.1966042 L14.0738984,18.0290213 C11.8694186,19.0519891 10.0780499,19.563473 8.69979233,19.563473 C7.66613186,19.563473 6.26893375,19.1802185 4.50819802,18.4137095 L4.50819034,18.4137271 C3.49543696,17.9728406 2.31702901,18.4364303 1.87614251,19.4491837 C1.85916336,19.4881862 1.84343286,19.5277205 1.82897503,19.5677263 Z" id="shoe"></path>
                            </g>
                            <polygon id="Bottom" fill="#E3ECF3" points="91.84 0 103.786667 46.9440757 140.276504 46.9440757 134.835721 0"></polygon>
                            <path d="M85.12,-3.55271368e-15 C81.1891279,11.8189027 80.4424612,27.466928 82.88,46.9440757 L120.116504,46.9440757 L130.355721,-3.55271368e-15 L85.12,-3.55271368e-15 Z" id="Bottom" fill="#F0F5F8"></path>
                        </g>
                        <g id="components/Body/Turtle-Neck" transform="translate(114.770366, 137.496548) scale(-1, 1) rotate(8.000000) translate(-114.770366, -137.496548) translate(19.049952, 67.707787)">
                            <path d="M148.840573,69.2216407 L169.975845,89.9109628 C176.12543,92.5431207 181.164139,95.4495545 185.091972,98.6302642 C185.975283,99.699409 186.936911,101.747946 182.780977,100.831255 C178.625044,99.914564 174.21254,99.1378942 173.43144,100.494089 C172.65034,101.850283 174.951915,103.928455 173.508345,105.703365 C172.545965,106.886638 169.309406,103.122878 163.798668,94.4120848 L141.82078,81.4098425 L148.840573,69.2216407 Z M45.4891807,50.4970892 L61.8266878,50.5586141 C49.383522,91.0117313 42.7782904,112.192342 42.0109932,114.100447 C40.2845744,118.393682 43.9379087,124.932206 45.5002195,128.445959 C40.4118254,130.730705 40.9539992,122.269359 34.535127,125.26593 C28.6762781,128.001062 24.2194663,132.956937 17.450413,128.76584 C16.6181977,128.250569 15.7062252,126.310481 17.9096659,124.794406 C23.3992401,121.017308 31.3100492,114.406707 32.3789241,112.230776 C33.836526,109.263506 38.2066115,88.6856103 45.4891807,50.4970892 Z" id="Skin" fill="#C4CFE2"></path>
                            <path d="M91.58364,7.26166499 L97.9138772,5.59320621 C111.180294,40.6197711 165.341336,60.5479507 169.709269,73.6935058 C171.311106,78.5143282 167.997726,81.3120175 169.952931,82.6520225 L162.135932,89.5193102 C160.57638,87.9868708 157.822573,91.2805742 151.332821,89.7129371 C144.843069,88.1452999 95.3039419,49.7849106 91.58364,7.26166499 Z" id="Clothes-Back" fill="#C5CFD6" transform="translate(130.873072, 47.870447) rotate(5.000000) translate(-130.873072, -47.870447) "></path>
                            <path d="M106.124903,8.78455809 C105.381083,56.5113925 132.876187,68.685767 126.751825,87.8318414 C121.694427,103.642354 73.2867978,120.638588 64.9101562,105.140554 C61.5193987,98.8671482 59.9809981,91.2799068 59.8064474,83.0309362 C57.6655533,89.3683148 55.9723438,94.8240384 54.7268173,99.3981125 C52.5781099,107.28903 44.2480298,108.543326 44.2480298,111.583191 L33.2732669,108.543326 C34.0176592,104.413544 28.8438908,102.402586 30.231113,93.1762923 C36.4466832,51.8370775 53.1468006,21.8715799 80.3314652,3.27979922 L80.5428108,0.247007216 C80.6944775,-1.95692018 82.6055034,-3.61895103 84.8092978,-3.46537558 C84.8099342,-3.46533124 84.8105705,-3.46528674 84.811073,-3.46333342 L102.880365,-2.19545417 C105.083206,-2.03896706 106.744095,-0.128331273 106.592481,2.07485065 L106.124903,8.78455809 Z" id="Clothes-Front" fill="#D2DEE4"></path>
                        </g>
                    </g>
                    <g id="woman" transform="translate(0.000000, 32.666667)">
                        <g id="components/Head/Front/Short-2" transform="translate(60.673077, 0.000000)">
                            <g id="Head" stroke-width="1" transform="translate(44.073529, 25.336538)" fill="#BBC8E0">
                                <path d="M6.74347353,28.1890459 C2.9826062,23.7684322 0.437172516,18.3509092 0.862515978,12.280419 C2.08804893,-5.21035335 26.4021096,-1.36260628 31.1316977,7.46523364 C35.8612859,16.2930736 35.2992879,38.6856216 29.1867166,40.2634028 C26.7490316,40.8926198 21.5560377,39.3512902 16.2707815,36.1612116 L19.5882353,59.6634615 L0,59.6634615 L6.74347353,28.1890459 Z"></path>
                            </g>
                            <path d="M49.3118629,57.462877 C46.8533466,46.5100865 39.8494348,39.0439362 40.9191001,34.1485073 C41.6322103,30.884888 43.5328629,28.8553577 46.6210577,28.0599165 C48.2182428,21.589592 53.3694926,18.8375109 62.0748069,19.803673 C75.1327784,21.2529161 83.1026374,26.6832643 79.6608492,38.6324002 C76.4970365,38.6324002 72.6776384,37.4866237 67.3962046,39.4497079 C65.720427,40.0725866 64.5218617,42.004188 63.8005088,45.2445123 L61.4138497,45.2445123 C59.0974966,41.3991333 56.8135575,39.9860614 54.5620326,41.0052968 C52.3105077,42.0245321 51.7986994,44.5002587 53.0266079,48.4324767 L51.8509371,57.462877 L49.3118629,57.462877 Z" id="Hair" fill="#191847"></path>
                        </g>
                        <g id="components/Bottom/Sitting/Baggy-Pants" transform="translate(0.000000, 154.000000)">
                            <g id="components/Objects/Seat/Cube-2" transform="translate(8.166667, 34.267782)" fill="#E3ECF3">
                                <path d="M51.0301724,0 L138.784483,0 C147.621039,6.22518934e-15 154.784483,7.163444 154.784483,16 L154.784483,85 C154.784483,93.836556 147.621039,101 138.784483,101 L51.0301724,101 C42.1936164,101 35.0301724,93.836556 35.0301724,85 L35.0301724,16 C35.0301724,7.163444 42.1936164,1.623249e-15 51.0301724,0 Z M61.8405172,22.8064516 C59.6313782,22.8064516 57.8405172,24.5973126 57.8405172,26.8064516 L57.8405172,74.1935484 C57.8405172,76.4026874 59.6313782,78.1935484 61.8405172,78.1935484 L127.974138,78.1935484 C130.183277,78.1935484 131.974138,76.4026874 131.974138,74.1935484 L131.974138,26.8064516 C131.974138,24.5973126 130.183277,22.8064516 127.974138,22.8064516 L61.8405172,22.8064516 Z" id="Seat"></path>
                            </g>
                            <path d="M244.313154,131.359833 C228.211861,111.716377 217.317341,97.1535973 211.629595,87.6714937 C201.890793,71.4358302 193.920049,56.9890883 191.404681,51.470498 C185.406463,38.3107114 205.213548,32.1485797 209.696342,38.2867406 C216.481227,47.5770909 230.971336,76.8112077 253.166667,125.989091 L244.313154,131.359833 Z" id="LegLower" fill="#C4CFE2"></path>
                            <path d="M211.31868,125.648536 L181.353244,50.2894205 C174.944234,36.5519562 205.894535,27.5219871 210.604674,33.9151276 C221.298146,48.4295359 246.714057,105.686771 249.9,110.011098 L211.31868,125.648536 Z" id="LegLower" fill="#C4CFE2"></path>
                            <g id="Lower-Leg" stroke-width="1" transform="translate(179.807918, 80.365524) rotate(39.000000) translate(-179.807918, -80.365524) translate(157.349585, 21.620754)" fill="#C4CFE2">
                                <path d="M3.9285438,112.557454 C3.10645739,102.276617 1.57912272,66.6865019 3.10728313,50.2131559 C3.54641515,45.479377 4.00907021,40.9025721 4.47531525,36.6091232 C5.86116049,23.8474737 29.546206,24.2508775 27.6653165,36.3750841 C22.9811581,66.5691503 14.7365053,108.884386 14.1455801,112.54066 C13.3173732,117.665085 4.44519948,119.018639 3.9285438,112.557454 Z" id="LegLower"></path>
                            </g>
                            <g id="components/Accessories/Shoe/Flat-Sneaker" transform="translate(154.758333, 114.225941) rotate(30.000000) translate(-154.758333, -114.225941) translate(129.850000, 97.907950)" fill="#DCE4F2">
                                <path d="M2.05646067,21.3342463 C1.23193498,23.6096483 0.819672131,25.3272924 0.819672131,26.4871784 C0.819672131,27.9748896 1.06591328,30.1458301 1.55839559,33 C3.27309932,33 18.6834305,33 47.7893892,33 C48.9907688,29.0024685 48.2972628,26.8443299 45.7088712,26.5255841 C43.1204795,26.2068384 40.9702586,25.9190365 39.2582085,25.6621784 L17.9433264,16.0981329 C17.4394417,15.8720385 16.8476768,16.097232 16.6215823,16.6011166 C16.6170741,16.6111639 16.6127322,16.6212849 16.6085583,16.6314755 L15.2977157,19.8319234 C12.901542,20.957188 10.9544021,21.5198203 9.45629602,21.5198203 C8.30411391,21.5198203 6.73638147,21.0764751 4.75309871,20.1897846 L4.7530934,20.1897965 C3.74472121,19.7389712 2.56180793,20.1909522 2.11098263,21.1993244 C2.09117794,21.2436221 2.07299192,21.2886258 2.05646067,21.3342463 Z" id="shoe"></path>
                            </g>
                            <g id="components/Accessories/Shoe/Flat-Sneaker" transform="translate(235.200000, 107.698745)" fill="#DCE4F2">
                                <path d="M2.05646067,21.3342463 C1.23193498,23.6096483 0.819672131,25.3272924 0.819672131,26.4871784 C0.819672131,27.9748896 1.06591328,30.1458301 1.55839559,33 C3.27309932,33 18.6834305,33 47.7893892,33 C48.9907688,29.0024685 48.2972628,26.8443299 45.7088712,26.5255841 C43.1204795,26.2068384 40.9702586,25.9190365 39.2582085,25.6621784 L17.9433264,16.0981329 C17.4394417,15.8720385 16.8476768,16.097232 16.6215823,16.6011166 C16.6170741,16.6111639 16.6127322,16.6212849 16.6085583,16.6314755 L15.2977157,19.8319234 C12.901542,20.957188 10.9544021,21.5198203 9.45629602,21.5198203 C8.30411391,21.5198203 6.73638147,21.0764751 4.75309871,20.1897846 L4.7530934,20.1897965 C3.74472121,19.7389712 2.56180793,20.1909522 2.11098263,21.1993244 C2.09117794,21.2436221 2.07299192,21.2886258 2.05646067,21.3342463 Z" id="shoe"></path>
                            </g>
                            <path d="M170.570707,54.0533899 C145.664972,49.9997421 128.982773,47.2278733 120.52411,45.7377837 C96.413585,41.4904409 89.3827509,28.5281986 93.5397554,0.246588236 L137.962987,0.246588236 C143.841688,1.94265169 168.405181,12.4322539 211.653465,31.715395 C219.434684,35.5744728 217.985566,46.9529797 216.563297,50.7016944 C216.505291,50.8545813 203.387646,73.3110372 177.210362,118.071062 L140.870285,94.9425549 L170.638954,56.7787681 C171.425117,55.1968203 171.402368,54.2883609 170.570707,54.0533899 Z" id="Leg-and-Butt" fill="#B5C1D7"></path>
                        </g>
                        <g id="components/Body/Turtle-Neck" transform="translate(16.801775, 67.200000)">
                            <path d="M162.867433,75.6493645 L185.994511,98.2598379 C192.723638,101.13641 198.237199,104.312727 202.535195,107.788789 C203.501749,108.957211 204.554002,111.195969 200.00641,110.194157 C195.458817,109.192345 190.630475,108.343556 189.775764,109.825683 C188.921052,111.307809 191.43953,113.578954 189.859917,115.518677 C188.806842,116.811825 185.265266,112.698573 179.235191,103.178921 L155.186089,88.9693279 L162.867433,75.6493645 Z M49.7761192,55.1861046 L67.6532867,55.2533425 C54.0374665,99.4628206 46.8097524,122.610203 45.9701444,124.695488 C44.0810264,129.387381 48.078654,136.533053 49.7881983,140.373084 C44.2202697,142.869985 44.8135384,133.622942 37.7897463,136.897766 C31.3787546,139.886874 26.5019291,145.302938 19.0949545,140.722668 C18.1843105,140.15955 17.1863931,138.039312 19.5974878,136.382458 C25.6044041,132.254629 34.2607345,125.030187 35.430341,122.652205 C37.0253085,119.409403 41.8072346,96.9207027 49.7761192,55.1861046 Z" id="Skin" fill="#C4CFE2"></path>
                            <path d="M100.219801,7.94031676 L107.146739,6.11615163 C121.659046,44.3939576 180.921307,66.1663137 185.699252,80.5321408 C187.451451,85.8004693 183.825515,88.8583715 185.964798,90.3225847 L177.410376,97.8285604 C175.704051,96.1539944 172.690356,99.7539071 165.589261,98.0414669 C158.488166,96.3290266 104.285559,54.4121494 100.219801,7.94031676 Z" id="Clothes-Back" fill="#C53E5A" transform="translate(143.207333, 52.316162) rotate(5.000000) translate(-143.207333, -52.316162) "></path>
                            <path d="M116.126203,9.60026706 C115.312285,61.7588789 145.39855,75.0637311 138.697023,95.9876553 C133.163012,113.266287 80.193407,131.840743 71.0273437,114.903606 C67.3170384,108.047669 65.6336576,99.7558981 65.4426571,90.7409517 C63.1000033,97.6668012 61.2472244,103.629128 59.8843184,108.627937 C57.533115,117.251582 48.4180012,118.622349 48.4180012,121.944487 L36.4089674,118.622349 C37.2235119,114.109087 31.5621632,111.911398 33.0801184,101.828377 C39.8814491,56.6505204 58.1553996,23.9025123 87.9019697,3.58435201 L88.1590882,-0.100610799 C88.3116509,-2.30447586 90.2228227,-3.9663389 92.4266035,-3.81256995 C92.4270057,-3.81254189 92.4274079,-3.81251377 92.4277255,-3.81127932 L112.951911,-2.37296712 C115.15509,-2.21735824 116.816231,-0.306432994 116.663702,1.89696095 L116.126203,9.60026706 Z" id="Clothes-Front" fill="#F46885"></path>
                        </g>
                    </g>
                </g>
            </g>
        </g>
    </g>
</svg>