<?xml version="1.0" encoding="UTF-8"?>
<svg width="575px" height="516px" viewBox="0 0 575 516" version="1.1" xmlns="http://www.w3.org/2000/svg" xmlns:xlink="http://www.w3.org/1999/xlink">
    <!-- Generator: Sketch 55.1 (78136) - https://sketchapp.com -->
    <title>web/boost/notes</title>
    <desc>Created with Sketch.</desc>
    <defs>
        <filter x="-3.7%" y="-4.4%" width="107.4%" height="108.9%" filterUnits="objectBoundingBox" id="filter-1">
            <feOffset dx="0" dy="2" in="SourceAlpha" result="shadowOffsetOuter1"></feOffset>
            <feGaussianBlur stdDeviation="2" in="shadowOffsetOuter1" result="shadowBlurOuter1"></feGaussianBlur>
            <feColorMatrix values="0 0 0 0 0   0 0 0 0 0   0 0 0 0 0  0 0 0 0.05 0" type="matrix" in="shadowBlurOuter1" result="shadowMatrixOuter1"></feColorMatrix>
            <feMerge>
                <feMergeNode in="shadowMatrixOuter1"></feMergeNode>
                <feMergeNode in="SourceGraphic"></feMergeNode>
            </feMerge>
        </filter>
    </defs>
    <g id="web/boost/notes" stroke="none" stroke-width="1" fill="none" fill-rule="evenodd">
        <g id="web/operations/notes">
            <path d="M338.5,363 C474.638191,363 585,276.814814 585,170.5 C585,64.1851857 363.46644,4.56 227.328249,4.56 C91.1900583,4.56 151.517722,95.0950556 73.1666768,173.030286 C-5.1843681,250.965517 202.361809,363 338.5,363 Z" id="Oval" fill="#F0F5F8" fill-rule="nonzero"></path>
            <g id="illustrations" stroke-width="1" fill-rule="evenodd" transform="translate(20.000000, 59.000000)">
                <g id="notes" filter="url(#filter-1)" transform="translate(180.000000, 0.000000)">
                    <g id="3" transform="translate(210.000000, 34.000000)">
                        <rect id="Rectangle" fill="#FFFFFF" x="0.445633803" y="11.2042254" width="112.337915" height="136.306424" rx="5.4"></rect>
                        <g id="text" transform="translate(18.984000, 83.926829)" fill="#E3ECF3">
                            <rect id="Rectangle" x="0.064725537" y="0.48891088" width="47.3532029" height="5.87487805" rx="2.90942721"></rect>
                            <rect id="Rectangle" x="0.064725537" y="15.3694627" width="63.28" height="5.87487805" rx="2.90942721"></rect>
                            <rect id="Rectangle" x="0.064725537" y="30.2500146" width="54.24" height="5.87487805" rx="2.90942721"></rect>
                        </g>
                        <g id="icons8-video-playlist" transform="translate(18.984000, 31.585366)" fill-rule="nonzero">
                            <path d="M5.424,0 C2.42724,0 0,2.42304878 0,5.41463415 L0,32.4878049 C0,35.4793902 2.42724,37.902439 5.424,37.902439 L48.816,37.902439 C51.81276,37.902439 54.24,35.4793902 54.24,32.4878049 L54.24,5.41463415 C54.24,2.42304878 51.81276,0 48.816,0 L5.424,0 Z" id="Shape" fill="#E3ECF3"></path>
                            <polygon id="Path" fill="#C5CFD6" points="21.696 10.8292683 35.256 18.9512195 21.696 27.0731707"></polygon>
                        </g>
                    </g>
                    <g id="2">
                        <rect id="Rectangle" fill="#FFFFFF" x="2" y="7.11971831" width="150" height="92.0633803" rx="6"></rect>
                        <g id="text" transform="translate(26.000000, 34.000000)" fill="#E3ECF3">
                            <rect id="Rectangle" x="0.0715990453" y="0.54176611" width="52.3818616" height="6.51" rx="3.2326969"></rect>
                            <rect id="Rectangle" x="0.0715990453" y="17.0310263" width="84.7231504" height="6.51" rx="3.2326969"></rect>
                            <rect id="Rectangle" x="0.0715990453" y="33.5202864" width="102.830549" height="6.51" rx="3.2326969"></rect>
                        </g>
                        <g id="Group-2" transform="translate(65.000000, 0.000000)"></g>
                    </g>
                    <g id="1" transform="translate(47.000000, 114.000000)">
                        <rect id="Rectangle" fill="#FFFFFF" x="0.0915492958" y="17.1267606" width="136" height="138.070423" rx="6"></rect>
                        <g id="Group-4" transform="translate(21.000000, 93.000000)">
                            <path d="M50.4,0 L5.6,0 C2.506,0 0,2.573125 0,5.75 L0,40.25 C0,43.426875 2.506,46 5.6,46 L50.4,46 C53.494,46 56,43.426875 56,40.25 L56,5.75 C56,2.573125 53.494,0 50.4,0 Z" id="Shape" fill="#E3ECF3"></path>
                            <path d="M9,38 L17.2127904,27.2601972 C17.8837612,26.3827738 19.1389828,26.2154109 20.0164063,26.8863818 C20.1400239,26.9809129 20.2521862,27.0895489 20.3506165,27.2100849 L24.1119064,31.8160897 C24.8105535,32.6716398 26.0704793,32.7988349 26.9260294,32.1001877 C27.0471202,32.0013043 27.1561993,31.8885639 27.2510325,31.7642756 L33.8469551,23.1196707 C34.516986,22.2415293 35.7720277,22.0728225 36.6501691,22.7428534 C36.8007499,22.8577481 36.9342461,22.9934506 37.0466573,23.1458943 L48,38 L9,38 Z" id="Path" fill="#C5CFD6" fill-rule="nonzero"></path>
                            <circle id="Oval" fill="#C5CFD6" cx="18" cy="13" r="4"></circle>
                        </g>
                        <g id="text" transform="translate(21.000000, 37.000000)" fill="#E3ECF3">
                            <rect id="Rectangle" x="0.0715990453" y="0.54176611" width="52.3818616" height="6.51" rx="3.2326969"></rect>
                            <rect id="Rectangle" x="0.0715990453" y="17.0310263" width="84.7231504" height="6.51" rx="3.2326969"></rect>
                            <rect id="Rectangle" x="0.0715990453" y="33.5202864" width="60" height="6.51" rx="3.2326969"></rect>
                        </g>
                    </g>
                </g>
                <g id="woman" transform="translate(128.000000, 237.000000) scale(-1, 1) translate(-128.000000, -237.000000) translate(0.000000, 50.000000)">
                    <ellipse id="shadow" fill="#E3ECF3" opacity="0.432593936" cx="124" cy="366" rx="100" ry="8"></ellipse>
                    <g id="components/Head/Front/Top" transform="translate(121.000000, 44.500000) scale(-1, 1) translate(-121.000000, -44.500000) translate(63.000000, 0.000000)">
                        <g id="Head" stroke-width="1" transform="translate(46.058824, 26.528846)" fill="#BBC8E0">
                            <path d="M7.0472336,29.5155893 C3.11695783,24.8869467 0.456864971,19.2144814 0.90136805,12.8583211 C2.18210519,-5.45554645 27.5913938,-1.42672893 32.5340265,7.81653875 C37.4766592,17.0598064 36.8893459,40.5061214 30.5014335,42.1581512 C27.9539429,42.8169784 22.5270304,41.2031156 17.0036996,37.8629157 L20.4705882,62.4711538 L0,62.4711538 L7.0472336,29.5155893 Z"></path>
                        </g>
                        <path d="M57.1457866,26.3461866 C67.4293191,22.7717985 80.7743039,26.9487577 78.9884464,35.3267187 C77.8416865,40.7064925 71.6316878,43.3935952 65.5221553,46.2692496 C64.6228898,44.7027397 62.9077692,43.6442308 60.9398054,43.6442308 C58.0396267,43.6442308 55.6885674,45.9430764 55.6885674,48.7788462 C55.6885674,49.8002994 55.9936087,50.7520886 56.5194775,51.5518705 C54.4642338,53.3456424 53.0140687,55.5047619 52.6633507,58.3050746 C49.3507321,58.3050746 43.9966164,48.5465965 45.7642218,39.2881753 C45.300791,39.3391973 44.8299142,39.3653846 44.3529412,39.3653846 C37.2869451,39.3653846 31.5588235,33.6182706 31.5588235,26.5288462 C31.5588235,19.4394217 37.2869451,13.6923077 44.3529412,13.6923077 C51.3581516,13.6923077 57.0484069,19.3409673 57.1457899,26.3461855 Z" id="Hair" fill="#191847"></path>
                    </g>
                    <g id="components/Bottom/Standing/Shorts" transform="translate(128.000000, 263.500000) scale(-1, 1) translate(-128.000000, -263.500000) translate(0.000000, 161.000000)">
                        <polygon id="Leg" fill="#B5C1D7" points="109.226667 9.9475983e-14 141.338315 105.522824 156.893998 195.263189 169.090728 195.263189 152.653631 9.9475983e-14"></polygon>
                        <path d="M97.7388606,0 C99.9199616,57.9377022 97.3531005,87.8230183 96.864944,93.0869104 C96.3767875,98.3508026 89.6923275,132.482161 73.8676799,197.030277 L86.8642068,192.543633 C111.873587,133.343458 120.395892,102.576082 123.264278,94.8023916 C126.132665,87.0287014 133.750957,55.4279042 146.119155,0 L97.7388606,0 Z" id="Leg" fill="#C4CFE2"></path>
                        <g id="components/Accessories/Shoe/Flat-Sneaker" transform="translate(71.680000, 170.690377)" fill="#DCE4F2">
                            <path d="M2.16813617,21.9005464 C1.29101807,24.2847734 0.852459016,26.081198 0.852459016,27.2898202 C0.852459016,28.8226135 1.10854981,31.0593401 1.62073141,34 C3.40402329,34 19.4307677,34 49.7009648,34 C50.9503996,29.8813312 50.2291533,27.6577944 47.537226,27.3293897 C44.8452987,27.000985 42.609069,26.7044618 40.8285368,26.4398202 L18.6184199,16.5670011 C18.1137497,16.3426655 17.5227738,16.5699217 17.2984383,17.0745919 C17.2948839,17.0825881 17.2914345,17.0906307 17.2880912,17.0987174 L15.9096243,20.4328908 C13.4176037,21.5922543 11.3925782,22.1719361 9.83454786,22.1719361 C8.62026453,22.1719361 6.96218038,21.7028656 4.86029541,20.7647245 L4.86029086,20.7647347 C3.85163644,20.3145387 2.66900453,20.7672587 2.21880855,21.7759131 C2.20052478,21.8168775 2.18362443,21.8584455 2.16813617,21.9005464 Z" id="shoe"></path>
                        </g>
                        <g id="components/Accessories/Shoe/Flat-Sneaker" transform="translate(151.893333, 170.690377)" fill="#DCE4F2">
                            <path d="M2.16813617,21.9005464 C1.29101807,24.2847734 0.852459016,26.081198 0.852459016,27.2898202 C0.852459016,28.8226135 1.10854981,31.0593401 1.62073141,34 C3.40402329,34 19.4307677,34 49.7009648,34 C50.9503996,29.8813312 50.2291533,27.6577944 47.537226,27.3293897 C44.8452987,27.000985 42.609069,26.7044618 40.8285368,26.4398202 L18.6184199,16.5670011 C18.1137497,16.3426655 17.5227738,16.5699217 17.2984383,17.0745919 C17.2948839,17.0825881 17.2914345,17.0906307 17.2880912,17.0987174 L15.9096243,20.4328908 C13.4176037,21.5922543 11.3925782,22.1719361 9.83454786,22.1719361 C8.62026453,22.1719361 6.96218038,21.7028656 4.86029541,20.7647245 L4.86029086,20.7647347 C3.85163644,20.3145387 2.66900453,20.7672587 2.21880855,21.7759131 C2.20052478,21.8168775 2.18362443,21.8584455 2.16813617,21.9005464 Z" id="shoe"></path>
                        </g>
                        <polygon id="Bottom" fill="#E3ECF3" points="104.96 0 118.613333 53.7627683 160.316005 53.7627683 154.097966 0"></polygon>
                        <path d="M97.28,-3.55271368e-15 C92.7875748,13.5356148 91.9342414,31.4565376 94.72,53.7627683 L137.276005,53.7627683 L148.977966,-3.55271368e-15 L97.28,-3.55271368e-15 Z" id="Bottom" fill="#F0F5F8"></path>
                    </g>
                    <g id="components/Body/Pointing-Forward" transform="translate(131.152274, 157.196178) scale(-1, 1) rotate(8.000000) translate(-131.152274, -157.196178) translate(21.769073, 77.408527)">
                        <path d="M135.709885,36.5349584 L165.403019,20.2693663 C170.340805,14.4047249 175.2059,9.8500092 179.998303,6.60521915 C181.462708,5.99374984 184.02358,5.62364494 181.628678,9.8750862 C179.233776,14.1265275 176.905868,18.7061317 178.125977,20.0159087 C179.346085,21.3256858 182.388535,19.495985 183.844105,21.6721907 C184.814486,23.1229945 179.616701,25.414856 168.250753,28.5477753 L146.675072,48.306004 L135.709885,36.5349584 Z M182.214844,50.2586864 L195.257768,43.0923692 C197.087874,36.1274102 199.275544,32.6231038 201.820777,32.5794501 C203.776045,31.669528 200.370959,40.4704041 204.077529,39.7071937 C207.784099,38.9439833 216.830776,32.214493 218.389564,33.5808338 C220.69569,35.602247 218.639406,41.8091568 216.216616,44.896762 C211.688423,50.6674923 207.939276,52.640908 198.672674,55.2251076 C193.827617,56.5762606 188.589253,59.2845305 182.957582,63.3499172 L182.214844,50.2586864 Z" id="Skin" fill="#B5C1D7"></path>
                        <path d="M122.210641,29.7334377 C132.500231,31.2518879 146.542203,31.2515171 162.62807,24.2871288 L166.340356,37.9991937 C154.673512,46.4095188 139.195213,52.3863391 126.855069,50.0749573 C117.130355,48.2534611 114.009703,35.6452809 122.210641,29.7334377 Z" id="Sleeve" fill="#C53E5A" transform="translate(141.920747, 37.431352) rotate(-9.000000) translate(-141.920747, -37.431352) "></path>
                        <path d="M135.25326,53.6994517 C146.294616,56.4535656 164.810286,53.2057044 190.800271,43.9558681 C197.246861,57.2949894 200.226958,66.8047599 199.740562,72.4851795 C177.444984,84.1335181 158.335749,89.3269171 142.592292,89.6697606 C143.092597,99.0129369 141.955559,107.903185 138.135903,116.026495 C130.28334,132.726644 84.3022174,117.260444 68.841955,120.30457 C59.1602841,88.8567445 77.8800878,76.0764754 77.89515,55.9543236 C77.9116447,33.9184232 95.6024055,-1.42108547e-13 98.2052466,-1.42108547e-13 L121.941723,-1.42108547e-13 C123.251404,16.8291074 129.843389,35.3762419 135.25326,53.6994517 Z" id="Clothes" fill="#F46885"></path>
                    </g>
                </g>
            </g>
        </g>
    </g>
</svg>