<?xml version="1.0" encoding="UTF-8"?>
<svg width="636px" height="382px" viewBox="0 0 636 382" version="1.1" xmlns="http://www.w3.org/2000/svg" xmlns:xlink="http://www.w3.org/1999/xlink">
    <!-- Generator: Sketch 55.1 (78136) - https://sketchapp.com -->
    <title>web/boost/home</title>
    <desc>Created with Sketch.</desc>
    <defs>
        <polygon id="path-1" points="0.430320528 0.392812015 9.46675213 0.392812015 9.46675213 117.462578 0.430320528 117.462578"></polygon>
        <polygon id="path-3" points="-29.6911749 117.425257 39.5881908 117.425257 39.5881908 126.457959 -29.6911749 126.457959"></polygon>
        <polygon id="path-5" points="-55.0792818 -8.60258579 65.4065748 -8.60258579 65.4065748 0.430121848 -55.0792818 0.430121848"></polygon>
        <polygon id="path-7" points="0.43035065 63.6590779 13.0756712 0.860269934 86.0613508 2.15064279 74.0127495 63.6590779"></polygon>
        <filter x="-35.2%" y="-42.1%" width="170.4%" height="184.2%" filterUnits="objectBoundingBox" id="filter-9">
            <feGaussianBlur stdDeviation="11.77" in="SourceGraphic"></feGaussianBlur>
        </filter>
        <path d="M2.68050272,20.6463323 C1.83045885,16.7807355 0.551715385,13.905332 1.83045885,8.68702199 C3.10920231,3.46871203 17.8223773,0.511152259 19.678681,2.18250622 C21.5350521,3.85382889 21.2329447,4.74840793 28.5868331,8.64420689 C35.9407214,12.5399745 57.0194071,17.0711146 61.531111,22.1248931 C66.0428148,27.1786404 66.8826017,30.520159 57.5057345,30.520159 L28.5010661,30.520159 C23.2954668,28.638047 21.5445668,27.624412 18.6263325,25.8822002 C18.03116,28.0652698 18.6263325,29.9242528 18.6263325,29.9242528 L6.13520194,29.9242528 C6.13520194,29.9242528 3.53047911,24.5118978 2.68050272,20.6463323 Z" id="path-10"></path>
        <path d="M9.51111434,34.3831113 C6.74334554,31.7767744 4.17125331,30.1855856 2.36135863,25.3626547 C0.551528848,20.5396423 10.6324741,10.284993 13.0112262,10.6113604 C15.3900432,10.9377685 15.6345254,11.8090999 23.5825636,10.9424525 C31.5307316,10.075805 45.7471048,0.433282994 52.0655434,2.01241582 C58.383982,3.5916301 64.0559415,3.62384733 56.6107564,8.6655377 C53.1114233,11.0352348 39.5634008,25.477146 35.3582042,28.3248881 C30.2061018,29.6322313 28.2670541,29.7703459 25.0066866,29.9588024 C25.7160547,32.008771 27.195084,33.1620337 27.195084,33.1620337 L17.2771701,39.8781645 C17.2771701,39.8781645 12.2788831,36.9894482 9.51111434,34.3831113 Z" id="path-12"></path>
        <linearGradient x1="60.5921271%" y1="16.2692604%" x2="52.2297606%" y2="80.0144172%" id="linearGradient-14">
            <stop stop-color="#F5F8FF" offset="0%"></stop>
            <stop stop-color="#FFFFFF" offset="100%"></stop>
        </linearGradient>
        <path d="M6.14025519,40.7324241 C11.7661204,33.1614767 25.5397539,17.3692705 55.1898698,11.6163638 C84.8398094,5.86345707 112.071817,0.491695875 162.055933,15.3235038 C166.171229,63.4637127 170.860654,111.932585 175.593253,121.748316 C171.98336,126.12993 158.942807,129.477749 151.292512,129.477749 C148.517026,118.639395 139.820152,92.5275506 135.402108,79.6119926 C130.983887,66.6963046 129.41728,50.6637714 130.270896,45.0107627 C115.207851,49.2794884 84.3523813,62.2546735 73.5345078,66.0983452 C62.716458,69.9421469 25.5994929,82.1278906 13.3138721,72.3173562 C1.0280751,62.5069518 0.514213772,48.3033714 6.14025519,40.7324241 Z" id="path-15"></path>
        <path d="M5.99240122,26.6489128 C4.50113271,19.1880815 1.62432419,6.11049882 1.05001465,3.31619844 C0.475668584,0.521898051 28.299285,10.1739808 28.299285,10.1739808 L31.7980795,28.4672428 L35.8028656,59.4050831 C35.8028656,59.4050831 7.48374279,34.109744 5.99240122,26.6489128 Z" id="path-17"></path>
        <path d="M53.0344021,0.556008138 C53.0344021,0.556008138 63.5990087,2.27110756 64.3267597,3.58952159 C71.1968462,8.5670236 77.8066959,23.380796 80.6289669,31.0552775 C83.451238,38.7297589 88.8632505,46.6553071 93.7419296,52.8174255 C98.6204918,58.9795439 100.960752,60.250883 107.353036,64.8101497 C113.745321,69.3694164 116.093414,72.9866599 112.475819,76.3855801 C108.858224,79.7846048 88.0263076,78.4647262 73.1966709,96.9471062 C60.2416507,102.244823 60.257667,104.182221 56.4084779,92.7349392 C52.5594058,81.2876574 20.9094265,52.6659486 15.7758884,48.6316205 C10.6422333,44.5972924 12.6254571,40.7209271 11.3315217,28.3641562 C10.0375862,16.00749 0.703784916,5.98835933 8.55449397,5.98835933 C14.7413713,8.28551506 20.768085,3.58952159 23.4882955,3.58952159 C33.3991537,6.05081217 35.6559417,15.7807977 39.7702777,13.7403576 C43.8846137,11.6999176 46.5190139,11.6999176 46.5190139,11.6999176 C47.4789438,13.6426508 47.7876973,16.9701216 48.7476272,18.9128548 C49.707674,20.855588 53.724275,24.7521433 55.5092232,28.3641562 L52.3537649,17.8530395 L53.2340806,11.5681076 L53.0344021,0.556008138 Z" id="path-19"></path>
        <path d="M27.2896315,22.5810963 C34.8154074,25.6205464 59.1876882,13.5221388 66.9218196,14.5965474 C74.0312584,15.5842595 65.0104236,4.49388477 62.3405418,2.53135389 C59.6706601,0.568875306 6.2874593,1.45830526 3.48542964,5.554197 C0.683474766,9.6501149 21.0484651,20.0603865 27.2896315,22.5810963 Z" id="path-21"></path>
        <path d="M133.645223,54.8713951 C133.645223,54.8713951 130.01281,49.3661591 132.820753,43.9060195 C135.628696,38.4458799 150.452487,45.728576 162.457585,32.2665148 C174.462619,18.8043709 163.795528,0.637224529 151.453543,4.18039481 C139.111494,7.72356509 142.137943,14.0700765 144.375353,18.8043709 C146.612637,23.5386653 135.100974,25.3167874 126.868807,28.6493699 C118.63664,31.9820352 111.91722,40.9491852 113.367819,54.8713951 C114.818417,68.793605 127.766557,80.1928163 131.887507,82.2902539 C130.689255,74.0629331 130.635949,70.2828619 130.635949,67.9914684 C125.908908,70.1700795 120.40307,59.3658098 123.608649,56.5234127 C129.732283,51.0935581 132.820753,63.4609765 132.820753,63.4609765 C132.820753,63.4609765 133.645223,61.7000656 135.100974,60.0311679 C134.546344,57.0525714 133.645223,54.8713951 133.645223,54.8713951 Z" id="path-23"></path>
        <filter x="-5.0%" y="-1.5%" width="101.5%" height="107.0%" filterUnits="objectBoundingBox" id="filter-24">
            <feGaussianBlur stdDeviation="3" in="SourceAlpha" result="shadowBlurInner1"></feGaussianBlur>
            <feOffset dx="4" dy="4" in="shadowBlurInner1" result="shadowOffsetInner1"></feOffset>
            <feComposite in="shadowOffsetInner1" in2="SourceAlpha" operator="arithmetic" k2="-1" k3="1" result="shadowInnerInner1"></feComposite>
            <feColorMatrix values="0 0 0 0 0   0 0 0 0 0   0 0 0 0 0  0 0 0 0.13988904 0" type="matrix" in="shadowInnerInner1"></feColorMatrix>
        </filter>
        <linearGradient x1="86.8780841%" y1="16.2692604%" x2="57.7632472%" y2="80.0144172%" id="linearGradient-25">
            <stop stop-color="#F5F8FF" offset="0%"></stop>
            <stop stop-color="#FFFFFF" offset="100%"></stop>
        </linearGradient>
        <path d="M96.1687703,136.38211 C154.33488,172.637681 214.407521,176.599736 234.606275,144.355977 C258.863939,97.351366 175.686276,117.689835 117.520167,81.4342648 C59.3537979,45.1788715 60.7914852,14.9159633 20.6699357,0.503402032 C0.471440992,32.747338 38.0024015,100.126717 96.1687703,136.38211 Z" id="path-26"></path>
        <path d="M27.5,0.43307 C42.213215,0.43307 54.140625,12.45442 54.140625,27.283465 C54.140625,42.11251 42.213215,54.13386 27.5,54.13386 C12.786785,54.13386 0.859375,42.11251 0.859375,27.283465 C0.859375,12.45442 12.786785,0.43307 27.5,0.43307 Z" id="path-28"></path>
    </defs>
    <g id="web/boost/home" stroke="none" stroke-width="1" fill="none" fill-rule="evenodd">
        <g id="Artwork">
            <path d="M464.846014,56.469421 C546.547785,56.7774506 614.422394,93.3675224 631.810437,153.762285 C654.920157,234.030014 580.100067,325.950162 464.694402,359.071776 C381.374993,382.984412 299.679829,369.710906 251.996717,330.274733 C146.124365,343.649754 53.1146991,304.607204 32.2391872,232.099337 C7.92844488,147.659728 90.6516288,49.8104176 217.006268,13.5460349 C318.523953,-15.5895433 417.319857,3.89274642 464.846014,56.469421 Z" id="background" fill="#F0F5F8"></path>
            <g id="laptop" transform="translate(506.000000, 180.000000)">
                <g id="table" opacity="0.200000003" transform="translate(55.939879, 71.831570)">
                    <mask id="mask-2" fill="white">
                        <use xlink:href="#path-1"></use>
                    </mask>
                    <use id="Rectangle-3" fill="#8CA4D4" xlink:href="#path-1"></use>
                    <mask id="mask-4" fill="white">
                        <use xlink:href="#path-3"></use>
                    </mask>
                    <use id="Rectangle-2-copy" fill="#8CA4D4" xlink:href="#path-3"></use>
                    <mask id="mask-6" fill="white">
                        <use xlink:href="#path-5"></use>
                    </mask>
                    <use id="Rectangle-2" fill="#8CA4D4" xlink:href="#path-5"></use>
                </g>
                <polygon id="front" fill="#C5CFD6" points="36.5760555 63.2289749 49.2214325 0.860269934 122.207138 2.15064279 109.728255 63.2289749"></polygon>
                <polygon id="bottom" fill="#C5CFD6" points="0.860655256 59.7230227 114.451409 59.7230227 114.451409 63.6591071 4.3030465 63.6591071"></polygon>
                <g id="back" transform="translate(40.448835, 0.000000)">
                    <mask id="mask-8" fill="white">
                        <use xlink:href="#path-7"></use>
                    </mask>
                    <use id="Shape-9" fill="#DDE3E7" xlink:href="#path-7"></use>
                    <path d="M43.8912825,26.2378753 C47.4560813,26.2378753 50.3459058,28.645057 50.3459058,31.614483 C50.3459058,34.5839089 47.4560813,36.9911147 43.8912825,36.9911147 C40.3265262,36.9911147 37.4367017,34.5839089 37.4367017,31.614483 C37.4367017,28.645057 40.3265262,26.2378753 43.8912825,26.2378753 Z" id="Ellipse-5" fill="#FFFFFF" mask="url(#mask-8)"></path>
                </g>
            </g>
            <g id="message" transform="translate(0.000000, 71.000000)">
                <path d="M36.9328891,1.72029203 C-68.0875285,112.200945 86.2436998,268.472079 179.887275,151.082461 C337.637639,-46.670065 471.969446,101.922152 471.969446,101.922152" id="line" stroke="#8CA4D4" stroke-width="1.6" fill-opacity="0" fill="#000000" opacity="0.5" stroke-linecap="round" stroke-dasharray="1.6,6.4"></path>
                <g id="rocket" transform="translate(463.380258, 91.170919)">
                    <polygon id="Shape-5" fill="#DDE3E7" points="0.434524852 29.6874295 9.12783533 18.3227602 38.3783018 36.1548528 16.506411 10.6206686 26.9643751 0.430073008 54.1111339 48.1657471"></polygon>
                    <polygon id="Shape-6" fill="#C5CFD6" opacity="0.5" points="9.07218152 18.2924545 15.8588642 17.3685297 38.3579619 36.1377356"></polygon>
                    <polygon id="Shape-7" fill="#C5CFD6" points="15.5503848 17.3685138 16.4758076 10.5931435 38.3641264 36.1375067"></polygon>
                </g>
            </g>
            <g id="Person" transform="translate(24.000000, 79.000000)">
                <path d="M170.848719,301.40005 C219.86696,301.40005 259.604043,293.434078 259.604043,283.607589 C259.604043,273.781099 219.86696,265.815128 170.848719,265.815128 C121.830478,265.815128 82.0933952,273.781099 82.0933952,283.607589 C82.0933952,293.434078 121.830478,301.40005 170.848719,301.40005 Z" id="chair-shadow" fill="#E3ECF3" opacity="0.432593936"></path>
                <path d="M109.41997,272.580703 C163.811343,298.607525 243.671029,295.169761 279.493858,224.5391 C303.160197,179.092818 252.665708,124.674072 197.201051,86.8342165 C147.420667,52.8727014 103.14375,45.1712842 77.1643207,64.2907443 C74.1975959,66.4740137 68.9244651,66.044898 66.529024,69.015601 C0.588300647,144.095059 55.0289011,246.553626 109.41997,272.580703 Z" id="chair" fill="#C4CFE2"></path>
                <path d="M143.017719,207.551978 C201.183956,243.807552 261.256588,247.769537 281.455223,215.525844 C300.196565,180.690026 254.729886,117.687179 196.563649,81.4316049 C138.397411,45.1762404 87.7178042,39.4294972 67.518915,71.6733997 C47.3205337,103.917093 84.8514813,171.296614 143.017719,207.551978 Z" id="cushion" fill="#E3ECF3"></path>
                <path d="M156.162615,182.117354 C182.242892,198.38291 209.177948,200.160399 218.234508,185.694717 C226.637654,170.066114 206.251539,141.800767 180.171263,125.53521 C154.090986,109.269747 131.367526,106.691551 122.310852,121.157328 C113.254407,135.62301 130.082339,165.851891 156.162615,182.117354 Z" id="shadow" filter="url(#filter-9)"></path>
                <g id="shoe" transform="translate(321.066624, 267.530094)">
                    <mask id="mask-11" fill="white">
                        <use xlink:href="#path-10"></use>
                    </mask>
                    <use id="Path-17" fill="#DCE4F2" xlink:href="#path-10"></use>
                </g>
                <g id="shoe" transform="translate(338.688754, 148.770741)">
                    <mask id="mask-13" fill="white">
                        <use xlink:href="#path-12"></use>
                    </mask>
                    <use id="Path-17-Copy" fill="#DCE4F2" xlink:href="#path-12"></use>
                </g>
                <path d="M168.144783,87.6869293 C187.461056,77.427049 198.468172,47.4761838 206.446269,39.0545645 C214.42442,30.6329452 217.947288,46.7453516 216.628422,51.4889311 C215.309556,56.2325106 205.586653,88.1156342 185.290955,113.864948 C185.290955,130.686534 165.64921,101.184205 168.144783,87.6869293 Z" id="sleeve" fill="url(#linearGradient-14)"></path>
                <path d="M159.88182,53.7020069 C159.88182,53.7020069 205.66701,35.6402288 211.856597,36.8343091 C218.046124,38.0283542 199.546844,59.0753154 195.761866,60.7736059 C191.976887,62.4719667 186.83251,66.6152653 181.139927,66.762851 C175.447344,66.910507 162.362303,69.7218779 162.362303,69.7218779 L159.88182,53.7020069 Z" id="arm" fill="#B5C1D7"></path>
                <g id="leg" transform="translate(165.046297, 148.342007)">
                    <mask id="mask-16" fill="white">
                        <use xlink:href="#path-15"></use>
                    </mask>
                    <use id="Path-7" fill="#C53E5A" xlink:href="#path-15"></use>
                </g>
                <g id="neck" transform="translate(128.082803, 65.167587)">
                    <mask id="mask-18" fill="white">
                        <use xlink:href="#path-17"></use>
                    </mask>
                    <use id="Path-4" fill="#C4CFE2" xlink:href="#path-17"></use>
                </g>
                <g id="shirt" transform="translate(105.302976, 84.889357)">
                    <mask id="mask-20" fill="white">
                        <use xlink:href="#path-19"></use>
                    </mask>
                    <use id="Path-9" fill="#FFFFFF" xlink:href="#path-19"></use>
                    <path d="M40.7905332,24.9450138 C43.9178048,19.2719551 46.3919847,16.4354258 48.2130731,16.4354258 C50.0341615,16.4354258 49.7153865,13.6770852 47.2567483,8.16040386 L38.7390214,14.5856912 L40.7905332,24.9450138 Z" id="Path-23" fill="#CCDFFD" opacity="0.300000012" mask="url(#mask-20)"></path>
                </g>
                <g id="top" transform="translate(57.000000, 34.000000)">
                    <path d="M159.592131,122.597458 C175.162099,108.341259 219.728581,80.7498586 245.143545,76.5364757 C259.702824,78.9522038 297.591638,119.915596 297.591638,119.915596 C295.883176,121.711336 291.379948,137.633452 284.267502,142.638432 C266.354615,127.805734 247.678801,120.879867 242.663897,113.210355 C236.408711,117.008854 220.329268,128.101426 211.080556,144.397916 C201.832027,160.694405 195.696501,179.260637 185.156669,179.725388 C174.616837,180.190139 159.753268,181.39088 146.061342,172.60335 C138.109439,167.499592 115.2156,156.123554 126.337767,148.669672 C132.711879,144.397916 153.064772,128.57394 159.592131,122.597458 Z" id="leg" fill="#F46885"></path>
                    <path d="M98.900997,3.61733537 C99.9556003,6.27212781 105.741725,17.9233682 106.299076,20.8275943 C106.856375,23.7319225 112.362776,43.104535 109.082657,46.0877901 C105.802488,49.0711472 95.9664799,50.5816264 93.2177292,49.6262889 C90.4689274,48.6710024 84.5595892,48.0590252 82.2578136,44.0296181 C80.4888379,40.9327939 74.8685834,33.7440129 73.3943689,34.1556371 C72.8557893,35.2597471 70.9785351,36.4394678 70.0385014,35.6815241 C65.9768032,32.4066424 62.4951649,28.8598784 64.1478319,20.8275943 C65.8004989,12.7953613 71.594756,8.8324324 77.8071923,6.22488388 C84.0196286,3.61733537 97.8463426,0.962593942 98.900997,3.61733537 Z" id="face" fill="#C4CFE2"></path>
                    <g id="arm" transform="translate(0.594281, 25.594043)">
                        <mask id="mask-22" fill="white">
                            <use xlink:href="#path-21"></use>
                        </mask>
                        <use id="Path-13" fill="#C4CFE2" xlink:href="#path-21"></use>
                        <path d="M12.4718752,5.93617964 C14.0541825,6.51049883 46.1519433,20.4628381 54.093337,18.5302395 C59.3875995,17.2418404 52.7909752,19.6771746 34.3034641,25.8362421 C18.6942,12.1866543 11.4170037,5.55330018 12.4718752,5.93617964 Z" id="Path-24" fill="#C4CFE2" opacity="0.5" mask="url(#mask-22)"></path>
                    </g>
                </g>
                <g id="hair">
                    <use fill="#191847" fill-rule="evenodd" xlink:href="#path-23"></use>
                    <use fill="black" fill-opacity="1" filter="url(#filter-24)" xlink:href="#path-23"></use>
                </g>
                <path d="M158.594121,96.1632829 C162.352543,97.4951369 163.072541,104.419763 163.717751,106.372649 C164.36291,108.325508 161.009015,91.0662494 161.009015,91.0662494 C159.828908,92.6899341 157.304207,81.6678614 157.77887,83.2843842 C159.055211,87.6308843 157.985908,92.5544691 158.594121,96.1632829 Z" id="colar" fill="#E3ECF3"></path>
                <path d="M146.33083,113.611441 C146.33083,107.477251 148.775419,99.4340582 151.793581,96.5644584 C147.416579,96.8339088 134.540951,89.1603547 133.166578,84.8829035 C131.79223,80.6054175 131.536852,79.9941795 131.536852,79.9941795 C131.536852,79.9941795 128.886323,85.1099516 128.886323,88.3545734 C130.761751,95.3938651 139.12889,107.613835 146.33083,113.611441 Z" id="colar" fill="#E3ECF3"></path>
                <path d="M108.707349,89.1928999 C95.9952671,82.2223223 70.6021195,62.4051605 63.927817,64.0226037 C57.2535872,65.6400469 58.9856299,68.6447288 58.9856299,75.5365677 C58.9856299,82.4284799 93.8669139,105.702375 99.23759,117.218612 C101.536642,122.14836 107.426676,134.325812 117.970018,132.341581 C128.513288,130.35735 125.314911,119.907166 123.04259,111.478162 C120.371562,101.570131 116.535209,93.4852608 108.707349,89.1928999 Z" id="sleeve" fill="url(#linearGradient-25)"></path>
                <g id="cushion" transform="translate(46.849079, 71.169865)">
                    <g id="Mask-by-Oval">
                        <g id="Oval-3-+-Oval-3-Copy-+-Oval-3-Copy-2-+-Oval-3-Copy-4-+-Oval-3-Copy-3-Mask">
                            <mask id="mask-27" fill="white">
                                <use xlink:href="#path-26"></use>
                            </mask>
                            <use id="Mask" fill-opacity="0" fill="#000000" xlink:href="#path-26"></use>
                            <path d="M-7.87836118,90.6133912 C22.4813571,110.280012 57.2590905,110.607538 69.799599,91.3449883 C82.3402439,72.0824382 67.8948358,40.5241021 37.5351176,20.8574813 C7.17539935,1.19086048 -27.602334,0.863223577 -40.1429789,20.1258843 C-52.6834875,39.3884343 -38.2382157,70.9467704 -7.87836118,90.6133912 Z" id="Oval-3" fill="#E3ECF3" mask="url(#mask-27)"></path>
                            <path d="M98.6306503,169.001351 C121.00472,158.594197 127.960441,126.237103 114.16649,96.7297972 C100.37254,67.2224917 71.0525037,51.7388089 48.6783249,62.1459632 C26.3041461,72.5531176 19.3485342,104.910211 33.1424848,134.417517 C46.9364353,163.924822 76.2564715,179.408505 98.6306503,169.001351 Z" id="Oval-3-Copy" fill="#E3ECF3" mask="url(#mask-27)"></path>
                            <path d="M156.654739,218.734509 C179.028808,208.327355 185.98453,175.970261 172.190579,146.462956 C158.396629,116.95565 129.076592,101.471967 106.702414,111.879122 C84.3282347,122.286276 77.3726229,154.64337 91.1665734,184.150675 C104.960524,213.657981 134.28056,229.141664 156.654739,218.734509 Z" id="Oval-3-Copy-2" fill="#E3ECF3" mask="url(#mask-27)"></path>
                            <path d="M264.966261,235.45514 C287.34044,225.047986 294.296052,192.690892 280.502211,163.183587 C266.708261,133.676281 237.388115,118.192598 215.014046,128.599753 C192.639867,139.006907 185.684255,171.364001 199.478206,200.871306 C213.272156,230.378612 242.592192,245.862295 264.966261,235.45514 Z" id="Oval-3-Copy-4" fill="#DCE5EC" mask="url(#mask-27)"></path>
                            <path d="M188.32728,202.754987 C212.830509,205.756059 234.558656,193.042101 236.858585,174.357627 C239.158514,155.673153 221.159158,138.0935 196.656023,135.092428 C172.152889,132.091355 150.424742,144.805314 148.124908,163.489713 C145.824979,182.174187 163.82424,199.753839 188.32728,202.754987 Z" id="Oval-3-Copy-3" fill="#E3ECF3" mask="url(#mask-27)"></path>
                        </g>
                    </g>
                </g>
            </g>
            <g id="Clock" opacity="0.600000024" transform="translate(40.000000, 25.000000)">
                <g id="Ellipse-4">
                    <mask id="mask-29" fill="white">
                        <use xlink:href="#path-28"></use>
                    </mask>
                    <use fill="#C8D8E4" xlink:href="#path-28"></use>
                </g>
                <path d="M28.784903,15.2563885 L28.784903,27.8703557 L34.5123073,33.6428513 L28.784903,15.2563885 Z" id="Shape-8" stroke="#FFFFFF" stroke-width="1.92"></path>
            </g>
        </g>
    </g>
</svg>