<?xml version="1.0" encoding="UTF-8"?>
<svg width="488px" height="128px" viewBox="0 0 488 128" version="1.1" xmlns="http://www.w3.org/2000/svg" xmlns:xlink="http://www.w3.org/1999/xlink">
    <!-- Generator: Sketch 53.2 (72643) - https://sketchapp.com -->
    <title>Operations Logo_White</title>
    <desc>Created with Sketch.</desc>
    <defs>
        <linearGradient x1="60.881%" y1="74.624%" x2="30.576%" y2="-20.832%" id="linearGradient-1">
            <stop stop-color="#15DABA" offset="0%"></stop>
            <stop stop-color="#13DEB4" offset="20.5%"></stop>
            <stop stop-color="#0DE8A2" offset="49.01%"></stop>
            <stop stop-color="#04F884" offset="82.08%"></stop>
            <stop stop-color="#00FF78" offset="93.75%"></stop>
        </linearGradient>
        <linearGradient x1="55.835%" y1="67.554%" x2="45.052%" y2="-5.163%" id="linearGradient-2">
            <stop stop-color="#15DABA" offset="0%"></stop>
            <stop stop-color="#10D4BD" offset="37.62%"></stop>
            <stop stop-color="#01C2C4" offset="89.85%"></stop>
            <stop stop-color="#00C0C5" offset="93.75%"></stop>
        </linearGradient>
    </defs>
    <g id="Page-1" stroke="none" stroke-width="1" fill="none" fill-rule="evenodd">
        <g id="Operations-Logo_White" transform="translate(-157.000000, -236.000000)" fill-rule="nonzero">
            <g transform="translate(157.000000, 236.000000)">
                <g id="Operations_icon">
                    <path d="M15.7234568,22.2814815 C-7.19012346,49.0271605 -4.0691358,89.2444444 22.6765432,112.118519 C49.4222222,134.992593 89.6395062,131.911111 112.51358,105.165432 C135.42716,78.4197531 132.306173,38.2024691 105.560494,15.3283951 C78.8148148,-7.54567901 38.637037,-4.46419753 15.7234568,22.2814815 Z M41.5604938,44.4049383 C52.2271605,31.9604938 70.9925926,30.4987654 83.437037,41.1654321 C95.8814815,51.8320988 97.3432099,70.5975309 86.6765432,83.0419753 C76.0098765,95.4864198 57.2444444,96.9481481 44.8,86.2814815 C32.3555556,75.6148148 30.8938272,56.8888889 41.5604938,44.4049383 Z" id="Shape" fill="#15DABA"></path>
                    <path d="M15.7234568,22.2419753 C8.7308642,30.4197531 4.14814815,39.8617284 1.93580247,49.6592593 C1.97530864,49.5802469 2.05432099,49.5407407 2.09382716,49.4617284 C22.4395062,25.6790123 61.0765432,23.2296296 82.2518519,40.1777778 L82.0148148,39.9802469 C82.0148148,39.9802469 82.4098765,40.2962963 82.6469136,40.4938272 C82.5283951,40.3753086 82.3703704,40.2962963 82.2518519,40.1777778 L82.5283951,40.4148148 C82.8444444,40.6518519 83.1604938,40.8888889 83.437037,41.1654321 C95.8814815,51.8320988 97.3432099,70.5975309 86.6765432,83.0419753 C77.8666667,93.3530864 63.5259259,96.1185185 51.7530864,90.745679 C51.6740741,90.7061728 51.5555556,90.6666667 51.4765432,90.6271605 C51.2395062,90.508642 50.962963,90.3901235 50.7259259,90.2716049 C50.4493827,90.1530864 50.2123457,89.9950617 49.9358025,89.837037 C49.8567901,89.7975309 49.7382716,89.7185185 49.6592593,89.6790123 C49.145679,89.4024691 48.6320988,89.0864198 48.1185185,88.7703704 L28.9975309,116.898765 C31.2493827,118.4 33.5802469,119.74321 35.9506173,120.888889 C36.0296296,120.928395 36.1481481,120.967901 36.2271605,121.046914 C36.5037037,121.204938 36.8197531,121.323457 37.0962963,121.441975 C37.3333333,121.560494 37.5703704,121.679012 37.8074074,121.758025 C37.9259259,121.797531 38.0444444,121.876543 38.162963,121.916049 C63.2493827,133.05679 93.6691358,127.051852 112.434568,105.125926 C135.348148,78.3802469 132.22716,38.162963 105.481481,15.2493827 C104.651852,14.5382716 103.782716,13.8271605 102.91358,13.1555556 L102.874074,13.1950617 C93.3135802,5.84691358 82.2123457,1.58024691 70.9135802,0.355555556 C70.8345679,0.355555556 70.7160494,0.355555556 70.637037,0.316049383 C70.2814815,0.27654321 69.9654321,0.237037037 69.6098765,0.237037037 C69.254321,0.197530864 68.8987654,0.158024691 68.5432099,0.158024691 C68.4641975,0.158024691 68.3851852,0.158024691 68.3061728,0.158024691 C48.9876543,-1.14567901 29.3135802,6.4 15.7234568,22.2419753 Z M84.345679,41.7580247 C84.5037037,41.8765432 84.6617284,42.0345679 84.8592593,42.1530864 C84.7012346,42.0345679 84.5037037,41.8765432 84.345679,41.7580247 Z M83.1604938,40.8098765 C83.3975309,40.9679012 83.5950617,41.1654321 83.8320988,41.3234568 C83.5950617,41.1654321 83.3975309,41.0074074 83.1604938,40.8098765 Z" id="Shape" fill="url(#linearGradient-1)"></path>
                    <path d="M83.5160494,41.2049383 C71.0320988,30.4987654 52.2666667,31.9604938 41.6,44.4049383 C30.9333333,56.8493827 32.3950617,75.6148148 44.8790123,86.3209877 C46.0246914,87.308642 47.2493827,88.217284 48.5135802,89.0074074 C48.3950617,88.9283951 48.3160494,88.8888889 48.1975309,88.8098765 L29.037037,116.938272 L22.7160494,112.158025 C4.10864198,96.237037 -3.04197531,71.9407407 1.97530864,49.6592593 C2.01481481,49.6197531 2.05432099,49.5407407 2.13333333,49.5012346 C22.4790123,25.7185185 61.1555556,23.308642 82.3703704,40.2567901 L82.6469136,40.4938272 C82.9234568,40.7308642 83.2,40.9679012 83.5160494,41.2049383" id="Path" fill="url(#linearGradient-2)"></path>
                </g>
                <g id="Operations" transform="translate(161.391699, 23.820312)" fill="#FFFFFF">
                    <polygon id="Path" points="9.23199725 15.4582812 0.160382145 1.28984375 6.2348559 1.28984375 11.8682788 10.6759375 17.6019405 1.28984375 23.5160321 1.28984375 14.4343931 15.3590625 14.4343931 24.685625 9.23199725 24.685625"></polygon>
                    <path d="M25.8716448,12.9877344 C25.7370093,7.9290399 28.7135723,3.29437469 33.3983682,1.26823003 C38.0831641,-0.757914626 43.5412039,0.228838112 47.199909,3.76339472 C50.8586141,7.29795134 51.9877822,12.6748869 50.0551941,17.3598504 C48.1226059,22.0448139 43.5139664,25.1027828 38.4014999,25.0924219 C35.1055503,25.1754161 31.9155883,23.9365158 29.5561041,21.6570944 C27.1966199,19.377673 25.8678738,16.2511958 25.8716448,12.9877344 L25.8716448,12.9877344 Z M45.5585532,12.9877344 C45.6236156,11.0652319 44.8993667,9.19859149 43.5509374,7.81341253 C42.2025081,6.42823357 40.3448448,5.64259511 38.4014999,5.635625 C34.2115164,5.635625 31.3146139,8.90984375 31.3146139,12.9877344 C31.2467767,14.9092934 31.9687348,16.7760074 33.3155891,18.1615089 C34.6624434,19.5470104 36.5191558,20.3329604 38.4616433,20.3398437 C40.4035092,20.3447867 42.2623593,19.5607987 43.6038508,18.1710681 C44.9453424,16.7813376 45.6519453,14.9076208 45.5585532,12.9877344 Z" id="Shape"></path>
                    <path d="M55.5824373,12.9877344 C55.4477877,7.92813821 58.4254326,3.29282747 63.1114747,1.26725403 C67.7975168,-0.758319411 73.2563691,0.230258296 76.9142972,3.76689348 C80.5722252,7.30352866 81.6989089,12.6821179 79.7631407,17.3667692 C77.8273724,22.0514205 73.215636,25.1068243 68.1022685,25.0924219 C64.8080338,25.1726954 61.6206865,23.932588 59.2633993,21.6534659 C56.9061121,19.3743437 55.5787359,16.2494309 55.5824373,12.9877344 L55.5824373,12.9877344 Z M75.2593217,12.9877344 C75.3272117,11.0644594 74.6038971,9.19620872 73.2548595,7.81040487 C71.9058219,6.42460102 70.0464982,5.63982695 68.1022685,5.635625 C66.162142,5.63340302 64.3059265,6.41858255 62.9666308,7.80800082 C61.627335,9.19741908 60.9220794,11.0695725 61.0153825,12.9877344 C60.9475453,14.9092934 61.6695034,16.7760074 63.0163577,18.1615089 C64.363212,19.5470104 66.2199243,20.3329604 68.1624118,20.3398437 C70.1042777,20.3447867 71.9631278,19.5607987 73.3046194,18.1710681 C74.6461109,16.7813376 75.3527138,14.9076208 75.2593217,12.9877344 L75.2593217,12.9877344 Z" id="Shape"></path>
                    <path d="M86.3357137,1.28984375 L97.3018429,1.28984375 C99.55462,1.14391022 101.774282,1.8857793 103.476555,3.35359375 C104.565122,4.41936115 105.153896,5.88710957 105.100425,7.40171875 C105.15566,9.54286803 103.940347,11.5180268 101.993021,12.4519531 C104.729541,13.4441406 106.413553,15.0614062 106.413553,18.2661719 C106.413553,22.5524219 102.905194,24.685625 97.5724877,24.685625 L86.3357137,24.685625 L86.3357137,1.28984375 Z M96.2292873,10.7453906 C98.5247567,10.7453906 99.9782199,10.0111719 99.9782199,8.20539062 C99.9782199,6.6675 98.7653299,5.794375 96.5700993,5.794375 L91.4378707,5.794375 L91.4378707,10.7553125 L96.2292873,10.7453906 Z M97.6125833,20.1711719 C99.9080527,20.1711719 101.291349,19.3675 101.291349,17.5617187 C101.291349,15.9940625 100.10853,15.0217187 97.4421772,15.0217187 L91.4278468,15.0217187 L91.4278468,20.1711719 L97.6125833,20.1711719 Z" id="Shape"></path>
                    <polygon id="Path" points="112.628362 1.28984375 117.820734 1.28984375 117.820734 24.685625 112.628362 24.685625"></polygon>
                    <path d="M123.69473,12.9877344 C123.79468,7.99297682 126.926574,3.55040276 131.628267,1.73405606 C136.329959,-0.0822906345 141.674158,1.08581951 145.165889,4.69304687 L142.058485,8.23515625 C140.234138,6.59804687 138.680436,5.635625 135.984012,5.635625 C131.974458,5.635625 129.137699,8.90984375 129.137699,12.9877344 C129.137699,17.065625 131.934362,20.3398437 135.984012,20.3398437 C138.680436,20.3398437 140.334377,19.2682812 142.19882,17.6014062 L145.506701,21.11375 C143.070898,23.6835156 140.374473,25.0825 135.813606,25.0825 C132.567768,25.1291571 129.442458,23.8665961 127.156536,21.5852214 C124.870613,19.3038466 123.620858,16.200047 123.69473,12.9877344 L123.69473,12.9877344 Z" id="Path"></path>
                    <path d="M0.340812059,66.9528125 C0.177703897,59.9602855 4.31249674,53.5675683 10.7965804,50.7873667 C17.2806641,48.007165 24.8201738,49.3942535 29.8619532,54.2949368 C34.9037326,59.1956201 36.4417212,66.6319926 33.7511086,73.0995036 C31.0604961,79.5670147 24.67818,83.7751064 17.6119643,83.740625 C13.0665718,83.8015491 8.68499808,82.0623076 5.44158038,78.9096582 C2.19816269,75.7570088 0.361787385,71.452313 0.340812059,66.9528125 L0.340812059,66.9528125 Z M27.5957529,66.9528125 C27.5957529,61.2775 23.4659127,56.5745313 17.5718688,56.5745313 C11.677825,56.5745313 7.76851017,61.2179688 7.76851017,66.9528125 C7.76851017,72.6876563 11.8983504,77.3310938 17.6921554,77.3310938 C23.7766531,77.3310938 27.5957529,72.628125 27.5957529,66.9528125 Z" id="Shape"></path>
                    <path d="M42.6416029,50.7801563 L50.1194204,50.7801563 L50.1194204,56.1478906 C52.5251526,52.7942969 55.9132255,50.1054688 61.1456929,50.1054688 C68.8540598,50.1054688 76.3118296,56.1478906 76.3118296,66.9726562 C76.3118296,77.7974219 68.9142031,83.6910156 61.1456929,83.6910156 C56.7467893,83.7265043 52.6163918,81.600555 50.1194204,78.0157031 L50.1194204,92.7695312 L42.6616507,92.7695312 L42.6416029,50.7801563 Z M68.7037016,66.83375 C68.7037016,60.6028125 64.4535747,56.515 59.4015371,56.515 C54.3494995,56.515 49.898895,60.6722656 49.898895,66.9528125 C49.898895,73.2333594 54.3394757,77.2715625 59.4015371,77.2715625 C64.4635986,77.2715625 68.7137254,73.3028125 68.7137254,66.83375 L68.7037016,66.83375 Z" id="Shape"></path>
                    <path d="M82.1958495,66.8932813 C82.1958495,57.6758594 88.7915653,50.1054688 98.1037536,50.1054688 C108.458426,50.1054688 113.700917,58.1620312 113.700917,67.4389844 C113.700917,67.9350781 113.640774,69.1554687 113.580631,69.5126562 L89.6135238,69.5126562 C90.4154345,74.7613281 94.1844149,77.6982031 98.9858554,77.6982031 C102.624525,77.6982031 105.220711,76.3488281 107.806873,73.8485156 L112.187311,77.6982031 C108.945479,81.6633003 104.016375,83.8990237 98.8655688,83.740625 C89.4330939,83.740625 82.1958495,76.9639844 82.1958495,66.8932813 Z M106.253171,64.6310938 C105.762001,59.8785156 102.925242,56.1478906 97.9934909,56.1478906 C93.4326236,56.1478906 90.2249807,59.6304688 89.5433566,64.6310938 L106.253171,64.6310938 Z" id="Shape"></path>
                    <path d="M121.178735,50.7801563 L128.646528,50.7801563 L128.646528,58.0429688 C130.651305,53.2209375 134.440333,49.926875 140.173995,50.1749219 L140.173995,57.9834375 L139.742968,57.9834375 C133.207396,57.9834375 128.646528,62.1903125 128.646528,70.7330469 L128.646528,83.0064062 L121.178735,83.0064062 L121.178735,50.7801563 Z" id="Path"></path>
                    <path d="M165.023204,83.0064062 L165.023204,79.0376562 C162.413973,82.1036746 158.525613,83.8122151 154.478078,83.6711719 C148.313389,83.6711719 142.880444,80.1985156 142.880444,73.6103906 C142.880444,66.4666406 148.493819,63.0435937 156.081899,63.0435937 C159.144126,62.9910709 162.193574,63.4471869 165.103395,64.3929687 L165.103395,63.7778125 C165.103395,59.3228906 162.266636,56.8325 157.084288,56.8325 C153.873385,56.8347345 150.699478,57.5110762 147.772099,58.816875 L145.767322,52.86375 C149.637309,51.0375876 153.88,50.1175646 158.166867,50.1749219 C167.779772,50.1749219 172.47095,55.1358594 172.47095,63.7877344 L172.47095,82.8873437 L165.023204,83.0064062 Z M165.203634,69.5126562 C162.813732,68.65286 160.288693,68.2195061 157.745864,68.2327344 C153.054686,68.2327344 150.288094,70.1278125 150.288094,73.3623438 C150.288094,76.4083594 153.054686,78.1248437 156.573069,78.1248437 C161.50482,78.1248437 165.203634,75.3764844 165.203634,71.3482031 L165.203634,69.5126562 Z" id="Shape"></path>
                    <path d="M182.835646,74.0965625 L182.835646,57.1301562 L178.705806,57.1301562 L178.705806,50.7801562 L182.835646,50.7801562 L182.835646,41.9298437 L190.293416,41.9298437 L190.293416,50.7801562 L199.05429,50.7801562 L199.05429,57.1301562 L190.293416,57.1301562 L190.293416,72.9357031 C190.293416,75.803125 191.77695,76.9639844 194.302969,76.9639844 C195.910233,76.9688901 197.495123,76.5911624 198.92398,75.8626563 L198.92398,81.9050781 C196.876155,83.0430878 194.555686,83.6121592 192.207977,83.5521094 C186.724913,83.5521094 182.835646,81.1708594 182.835646,74.0965625 Z" id="Path"></path>
                    <path d="M206.69249,38.8242969 L214.711597,38.8242969 L214.711597,45.8390625 L206.69249,45.8390625 L206.69249,38.8242969 Z M207.00323,50.7801563 L214.51112,50.7801563 L214.51112,83.0064063 L207.05335,83.0064063 L207.00323,50.7801563 Z" id="Shape"></path>
                    <path d="M222.419964,66.9528125 C222.260956,59.965091 226.395981,53.5789915 232.876725,50.8034778 C239.357468,48.027964 246.891063,49.4167327 251.927877,54.3154322 C256.96469,59.2141316 258.499911,66.6455037 255.810183,73.1080794 C253.120454,79.5706551 246.74236,83.7751932 239.681092,83.740625 C235.137425,83.7988799 230.758441,82.058456 227.517204,78.9060963 C224.275966,75.7537366 222.440967,71.4505702 222.419964,66.9528125 L222.419964,66.9528125 Z M249.664881,66.9528125 C249.664881,61.2775 245.535041,56.5745313 239.640997,56.5745313 C233.746953,56.5745313 229.837638,61.2179688 229.837638,66.9528125 C229.837638,72.6876563 233.967479,77.3310938 239.761284,77.3310938 C245.845781,77.3310938 249.664881,72.628125 249.664881,66.9528125 Z" id="Shape"></path>
                    <path d="M264.710731,50.7801563 L272.168501,50.7801563 L272.168501,55.7410938 C274.263493,52.6851563 277.290706,50.0558594 282.342743,50.0558594 C289.680226,50.0558594 293.930353,54.9473438 293.930353,62.4482813 L293.930353,82.9567969 L286.472583,82.9567969 L286.472583,64.7005469 C286.472583,59.7396094 283.946565,56.8225781 279.455865,56.8225781 C274.965164,56.8225781 272.118381,59.7991406 272.118381,64.8196094 L272.118381,83.0064063 L264.660612,83.0064063 L264.710731,50.7801563 Z" id="Path"></path>
                    <path d="M300.285496,78.7896094 L303.613425,73.8286719 C306.651072,76.241694 310.387513,77.6320762 314.278838,77.7974219 C317.486481,77.7974219 319.29078,76.4480469 319.29078,74.1957813 C319.29078,71.9435156 316.153304,70.96125 312.574778,69.9194531 L312.023464,69.7408594 C307.212,68.3319531 301.849222,66.3872656 301.849222,60.0967969 C301.849222,53.9948438 306.961402,50.2741406 313.436832,50.2741406 C317.692585,50.350535 321.839185,51.6200438 325.395325,53.9353125 L322.38816,59.1839844 C319.648024,57.3924652 316.483282,56.3391672 313.206282,56.1280469 C310.299356,56.1280469 308.635391,57.4774219 308.635391,59.4915625 C308.635391,61.6842969 311.782891,62.6566406 315.361417,63.8175 L315.972874,64.0060156 C320.724195,65.4645313 326.086973,67.6076563 326.086973,73.5210938 C326.086973,80.2977344 320.784339,83.6513281 314.058312,83.6513281 C309.053365,83.5674212 304.214664,81.8593896 300.285496,78.7896094 L300.285496,78.7896094 Z" id="Path"></path>
                </g>
            </g>
        </g>
    </g>
</svg>