<?xml version="1.0" encoding="UTF-8"?>
<svg width="226px" height="228px" viewBox="0 0 226 228" version="1.1" xmlns="http://www.w3.org/2000/svg" xmlns:xlink="http://www.w3.org/1999/xlink">
    <!-- Generator: Sketch 53.2 (72643) - https://sketchapp.com -->
    <title>Operations_Logo_vertical</title>
    <desc>Created with Sketch.</desc>
    <defs>
        <linearGradient x1="60.881%" y1="74.624%" x2="30.576%" y2="-20.832%" id="linearGradient-1">
            <stop stop-color="#15DABA" offset="0%"></stop>
            <stop stop-color="#13DEB4" offset="20.5%"></stop>
            <stop stop-color="#0DE8A2" offset="49.01%"></stop>
            <stop stop-color="#04F884" offset="82.08%"></stop>
            <stop stop-color="#00FF78" offset="93.75%"></stop>
        </linearGradient>
        <linearGradient x1="55.835%" y1="67.554%" x2="45.052%" y2="-5.163%" id="linearGradient-2">
            <stop stop-color="#15DABA" offset="0%"></stop>
            <stop stop-color="#10D4BD" offset="37.62%"></stop>
            <stop stop-color="#01C2C4" offset="89.85%"></stop>
            <stop stop-color="#00C0C5" offset="93.75%"></stop>
        </linearGradient>
    </defs>
    <g id="Page-1" stroke="none" stroke-width="1" fill="none" fill-rule="evenodd">
        <g id="Operations_Logo_vertical" transform="translate(-287.000000, -186.000000)" fill-rule="nonzero">
            <g transform="translate(287.000000, 186.000000)">
                <g id="Operations_icon" transform="translate(49.000000, 0.000000)">
                    <path d="M15.7234568,22.2814815 C-7.19012346,49.0271605 -4.0691358,89.2444444 22.6765432,112.118519 C49.4222222,134.992593 89.6395062,131.911111 112.51358,105.165432 C135.42716,78.4197531 132.306173,38.2024691 105.560494,15.3283951 C78.8148148,-7.54567901 38.637037,-4.46419753 15.7234568,22.2814815 Z M41.5604938,44.4049383 C52.2271605,31.9604938 70.9925926,30.4987654 83.437037,41.1654321 C95.8814815,51.8320988 97.3432099,70.5975309 86.6765432,83.0419753 C76.0098765,95.4864198 57.2444444,96.9481481 44.8,86.2814815 C32.3555556,75.6148148 30.8938272,56.8888889 41.5604938,44.4049383 Z" id="Shape" fill="#15DABA"></path>
                    <path d="M15.7234568,22.2419753 C8.7308642,30.4197531 4.14814815,39.8617284 1.93580247,49.6592593 C1.97530864,49.5802469 2.05432099,49.5407407 2.09382716,49.4617284 C22.4395062,25.6790123 61.0765432,23.2296296 82.2518519,40.1777778 L82.0148148,39.9802469 C82.0148148,39.9802469 82.4098765,40.2962963 82.6469136,40.4938272 C82.5283951,40.3753086 82.3703704,40.2962963 82.2518519,40.1777778 L82.5283951,40.4148148 C82.8444444,40.6518519 83.1604938,40.8888889 83.437037,41.1654321 C95.8814815,51.8320988 97.3432099,70.5975309 86.6765432,83.0419753 C77.8666667,93.3530864 63.5259259,96.1185185 51.7530864,90.745679 C51.6740741,90.7061728 51.5555556,90.6666667 51.4765432,90.6271605 C51.2395062,90.508642 50.962963,90.3901235 50.7259259,90.2716049 C50.4493827,90.1530864 50.2123457,89.9950617 49.9358025,89.837037 C49.8567901,89.7975309 49.7382716,89.7185185 49.6592593,89.6790123 C49.145679,89.4024691 48.6320988,89.0864198 48.1185185,88.7703704 L28.9975309,116.898765 C31.2493827,118.4 33.5802469,119.74321 35.9506173,120.888889 C36.0296296,120.928395 36.1481481,120.967901 36.2271605,121.046914 C36.5037037,121.204938 36.8197531,121.323457 37.0962963,121.441975 C37.3333333,121.560494 37.5703704,121.679012 37.8074074,121.758025 C37.9259259,121.797531 38.0444444,121.876543 38.162963,121.916049 C63.2493827,133.05679 93.6691358,127.051852 112.434568,105.125926 C135.348148,78.3802469 132.22716,38.162963 105.481481,15.2493827 C104.651852,14.5382716 103.782716,13.8271605 102.91358,13.1555556 L102.874074,13.1950617 C93.3135802,5.84691358 82.2123457,1.58024691 70.9135802,0.355555556 C70.8345679,0.355555556 70.7160494,0.355555556 70.637037,0.316049383 C70.2814815,0.27654321 69.9654321,0.237037037 69.6098765,0.237037037 C69.254321,0.197530864 68.8987654,0.158024691 68.5432099,0.158024691 C68.4641975,0.158024691 68.3851852,0.158024691 68.3061728,0.158024691 C48.9876543,-1.14567901 29.3135802,6.4 15.7234568,22.2419753 Z M84.345679,41.7580247 C84.5037037,41.8765432 84.6617284,42.0345679 84.8592593,42.1530864 C84.7012346,42.0345679 84.5037037,41.8765432 84.345679,41.7580247 Z M83.1604938,40.8098765 C83.3975309,40.9679012 83.5950617,41.1654321 83.8320988,41.3234568 C83.5950617,41.1654321 83.3975309,41.0074074 83.1604938,40.8098765 Z" id="Shape" fill="url(#linearGradient-1)"></path>
                    <path d="M83.5160494,41.2049383 C71.0320988,30.4987654 52.2666667,31.9604938 41.6,44.4049383 C30.9333333,56.8493827 32.3950617,75.6148148 44.8790123,86.3209877 C46.0246914,87.308642 47.2493827,88.217284 48.5135802,89.0074074 C48.3950617,88.9283951 48.3160494,88.8888889 48.1975309,88.8098765 L29.037037,116.938272 L22.7160494,112.158025 C4.10864198,96.237037 -3.04197531,71.9407407 1.97530864,49.6592593 C2.01481481,49.6197531 2.05432099,49.5407407 2.13333333,49.5012346 C22.4790123,25.7185185 61.1555556,23.308642 82.3703704,40.2567901 L82.6469136,40.4938272 C82.9234568,40.7308642 83.2,40.9679012 83.5160494,41.2049383" id="Path" fill="url(#linearGradient-2)"></path>
                </g>
                <g id="Operations" transform="translate(0.000000, 157.000000)" fill="#20274F">
                    <g id="Group-2" transform="translate(62.000000, 0.000000)">
                        <polygon id="Path" points="6.29575255 10.9658742 -1.24344979e-14 0.764599182 4.21571939 0.764599182 8.12534694 7.52258668 12.1045408 0.764599182 16.2089541 0.764599182 9.9062449 10.8944367 9.9062449 17.6095617 6.29575255 17.6095617"></polygon>
                        <path d="M17.8437628,9.18708043 C17.7503249,5.54482041 19.8160766,2.20786146 23.0673516,0.749037305 C26.3186267,-0.709786848 30.1065374,0.000675123327 32.6456996,2.54555588 C35.1848618,5.09043664 35.9685109,8.96183029 34.6272837,12.335004 C33.2860565,15.7081777 30.0876344,17.9099153 26.5395536,17.9024554 C24.2521457,17.9622113 22.038294,17.070203 20.4007985,15.4290197 C18.763303,13.7878363 17.8411456,11.5367727 17.8437628,9.18708043 L17.8437628,9.18708043 Z M31.5065893,9.18708043 C31.551743,7.80287866 31.0491101,6.45889755 30.1132925,5.4615687 C29.1774749,4.46423985 27.888246,3.89858016 26.5395536,3.89356168 C23.6316811,3.89356168 21.6212143,6.25099918 21.6212143,9.18708043 C21.5741349,10.5706029 22.0751779,11.914637 23.0099025,12.9121981 C23.9446271,13.9097592 25.233196,14.4756432 26.5812934,14.4805992 C27.9289594,14.4841581 29.2190119,13.9196868 30.1500147,12.9190807 C31.0810175,11.9184747 31.5714039,10.5693987 31.5065893,9.18708043 Z" id="Shape"></path>
                        <path d="M38.4632219,9.18708043 C38.3697744,5.54417119 40.4362769,2.20674746 43.6884168,0.748334582 C46.9405567,-0.710078294 50.7290313,0.00169765572 53.2676542,2.54807499 C55.8062771,5.09445232 56.588202,8.9670366 55.2447678,12.3399855 C53.9013336,15.7129344 50.7007623,17.9128252 47.1520561,17.9024554 C44.8658385,17.9602524 42.6538013,17.0673751 41.0178305,15.4264071 C39.3818598,13.7854391 38.4606532,11.5355019 38.4632219,9.18708043 L38.4632219,9.18708043 Z M52.1190918,9.18708043 C52.1662078,7.80232245 51.6642234,6.45718196 50.7279836,5.45940319 C49.7917438,4.46162442 48.5013626,3.89658709 47.1520561,3.89356168 C45.8055973,3.89196186 44.5173732,4.45729112 43.5878943,5.45767227 C42.6584154,6.45805342 42.168964,7.80600388 42.2337168,9.18708043 C42.1866375,10.5706029 42.6876805,11.914637 43.622405,12.9121981 C44.5571296,13.9097592 45.8456985,14.4756432 47.1937959,14.4805992 C48.5414619,14.4841581 49.8315145,13.9196868 50.7625173,12.9190807 C51.69352,11.9184747 52.1839065,10.5693987 52.1190918,9.18708043 L52.1190918,9.18708043 Z" id="Shape"></path>
                        <path d="M59.8061709,0.764599182 L67.416727,0.764599182 C68.9801672,0.659527043 70.5206256,1.19367278 71.7020128,2.25049918 C72.4574843,3.01785171 72.8660969,4.07463057 72.8289872,5.16514918 C72.8673209,6.70677666 72.0238866,8.12889099 70.6724311,8.80131793 C72.5715918,9.51569293 73.7403061,10.6801242 73.7403061,12.9875554 C73.7403061,16.0736554 71.3054847,17.6095617 67.6045561,17.6095617 L59.8061709,17.6095617 L59.8061709,0.764599182 Z M66.6723673,7.57259293 C68.2654362,7.57259293 69.274148,7.04395543 69.274148,5.74379293 C69.274148,4.63651168 68.4323954,4.00786168 66.9088929,4.00786168 L63.3470969,4.00786168 L63.3470969,7.57973668 L66.6723673,7.57259293 Z M67.6323827,14.3591554 C69.2254515,14.3591554 70.1854668,13.7805117 70.1854668,12.4803492 C70.1854668,11.3516367 69.3645842,10.6515492 67.5141199,10.6515492 L63.3401403,10.6515492 L63.3401403,14.3591554 L67.6323827,14.3591554 Z" id="Shape"></path>
                        <polygon id="Path" points="78.0534184 0.764599182 81.6569541 0.764599182 81.6569541 17.6095617 78.0534184 17.6095617"></polygon>
                        <path d="M85.7335408,9.18708043 C85.8029072,5.59085499 87.9764594,2.39220167 91.2394608,1.08443205 C94.5024622,-0.223337574 98.2113664,0.617701731 100.634648,3.21490543 L98.4780918,5.76522418 C97.2119847,4.58650543 96.1337066,3.89356168 94.2623724,3.89356168 C91.4797194,3.89356168 89.5109923,6.25099918 89.5109923,9.18708043 C89.5109923,12.1231617 91.4518929,14.4805992 94.2623724,14.4805992 C96.1337066,14.4805992 97.281551,13.7090742 98.5754847,12.5089242 L100.871173,15.0378117 C99.1807117,16.8880429 97.3093776,17.8953117 94.1441097,17.8953117 C91.8914799,17.9289048 89.7224971,17.0198609 88.1360539,15.3772711 C86.5496107,13.7346813 85.6822736,11.4999455 85.7335408,9.18708043 L85.7335408,9.18708043 Z" id="Path"></path>
                    </g>
                    <g id="Group" transform="translate(0.000000, 33.000000)">
                        <path d="M0.00322342856,19.7941406 C-0.109700444,14.8734735 2.75292038,10.3748947 7.24201419,8.41845653 C11.731108,6.46201834 16.9508997,7.43811764 20.4414501,10.8867466 C23.9320005,14.3353756 24.9967885,19.5683785 23.13401,24.11959 C21.2712314,28.6708014 16.8525939,31.6320512 11.9604755,31.6077865 C8.81358618,31.650659 5.78011276,30.4267483 3.53461331,28.2082172 C1.28911387,25.9896862 0.0177451727,22.9604558 0.00322342856,19.7941406 L0.00322342856,19.7941406 Z M18.8725028,19.7941406 C18.8725028,15.8004022 16.0133107,12.4909057 11.9327163,12.4909057 C7.85212189,12.4909057 5.14560518,15.7585098 5.14560518,19.7941406 C5.14560518,23.8297714 8.00479719,27.0973756 12.0159938,27.0973756 C16.2284441,27.0973756 18.8725028,23.7878791 18.8725028,19.7941406 Z" id="Shape"></path>
                        <path d="M29.2891222,8.41338252 L34.4662029,8.41338252 L34.4662029,12.1906771 C36.1317516,9.83074074 38.4773995,7.93860243 42.099968,7.93860243 C47.4366638,7.93860243 52.5998649,12.1906771 52.5998649,19.8081047 C52.5998649,27.4255324 47.4783025,31.5728762 42.099968,31.5728762 C39.0544966,31.5978497 36.1949188,30.1018113 34.4662029,27.5791377 L34.4662029,37.9614612 L29.3030018,37.9614612 L29.2891222,8.41338252 Z M47.332567,19.7103559 C47.332567,15.3256221 44.3900975,12.4490133 40.8924451,12.4490133 C37.3947928,12.4490133 34.3135276,15.3744965 34.3135276,19.7941406 C34.3135276,24.2137847 37.387853,27.0554832 40.8924451,27.0554832 C44.3970373,27.0554832 47.3395067,24.2626591 47.3395067,19.7103559 L47.332567,19.7103559 Z" id="Shape"></path>
                        <path d="M56.6735195,19.7522483 C56.6735195,13.2659144 61.239899,7.93860243 67.6869606,7.93860243 C74.85576,7.93860243 78.4852683,13.6080353 78.4852683,20.1362616 C78.4852683,20.4853646 78.4436296,21.344158 78.4019909,21.5955122 L61.8089615,21.5955122 C62.3641444,25.289022 64.9735041,27.3557118 68.2976618,27.3557118 C70.8168043,27.3557118 72.614209,26.4061516 74.4046739,24.6466725 L77.4373605,27.3557118 C75.1929594,30.1459654 71.7804165,31.7192522 68.2143844,31.6077865 C61.6840453,31.6077865 56.6735195,26.8390394 56.6735195,19.7522483 Z M73.329007,18.1603385 C72.9889574,14.8159317 71.0249979,12.1906771 67.6106229,12.1906771 C64.4530201,12.1906771 62.2322884,14.6413802 61.760383,18.1603385 L73.329007,18.1603385 Z" id="Shape"></path>
                        <path d="M83.662349,8.41338252 L88.8324899,8.41338252 L88.8324899,13.5242506 C90.2204472,10.1309693 92.8436864,7.81292535 96.8132443,7.98747685 L96.8132443,13.4823582 L96.5148335,13.4823582 C91.9900927,13.4823582 88.8324899,16.4427517 88.8324899,22.4543056 L88.8324899,31.091114 L83.662349,31.091114 L83.662349,8.41338252 Z" id="Path"></path>
                        <path d="M114.016975,31.091114 L114.016975,28.2982899 C112.210539,30.4558584 109.51853,31.6581647 106.71632,31.558912 C102.448351,31.558912 98.6869866,29.115191 98.6869866,24.479103 C98.6869866,19.4520197 102.573267,17.0432089 107.826685,17.0432089 C109.946742,17.0062484 112.057951,17.3272189 114.072493,17.9927691 L114.072493,17.5598814 C114.072493,14.4249363 112.108534,12.6724392 108.520664,12.6724392 C106.297676,12.6740117 104.1003,13.1499558 102.073602,14.0688513 L100.685645,9.87961516 C103.364934,8.59453789 106.302255,7.94711431 109.270161,7.98747685 C115.925416,7.98747685 119.173236,11.4785069 119.173236,17.5668634 L119.173236,31.0073293 L114.016975,31.091114 Z M114.141891,21.5955122 C112.487302,20.9904703 110.739154,20.6855176 108.97869,20.6948264 C105.73087,20.6948264 103.815489,22.0283999 103.815489,24.3045515 C103.815489,26.448044 105.73087,27.6559404 108.166735,27.6559404 C111.58111,27.6559404 114.141891,25.7219097 114.141891,22.8871933 L114.141891,21.5955122 Z" id="Shape"></path>
                        <path d="M126.348975,24.821224 L126.348975,12.881901 L123.489783,12.881901 L123.489783,8.41338252 L126.348975,8.41338252 L126.348975,2.18538484 L131.512176,2.18538484 L131.512176,8.41338252 L137.57755,8.41338252 L137.57755,12.881901 L131.512176,12.881901 L131.512176,24.0043229 C131.512176,26.0221383 132.539265,26.8390394 134.288091,26.8390394 C135.40084,26.8424915 136.498099,26.5766832 137.487333,26.0640307 L137.487333,30.3161053 C136.069572,31.1169269 134.463053,31.5173846 132.837676,31.4751273 C129.041613,31.4751273 126.348975,29.7994329 126.348975,24.821224 Z" id="Path"></path>
                        <path d="M142.865667,0 L148.417496,0 L148.417496,4.93631655 L142.865667,4.93631655 L142.865667,0 Z M143.0808,8.41338252 L148.278701,8.41338252 L148.278701,31.091114 L143.115499,31.091114 L143.0808,8.41338252 Z" id="Shape"></path>
                        <path d="M153.754192,19.7941406 C153.644107,14.8768551 156.506889,10.3829333 160.99367,8.42979397 C165.480451,6.47665468 170.696148,7.45393634 174.18326,10.9011693 C177.670373,14.3484022 178.733244,19.5778863 176.871078,24.1256247 C175.008912,28.6733632 170.593197,31.6321123 165.704504,31.6077865 C162.558809,31.6487807 159.527129,30.4240379 157.283139,28.2057107 C155.039149,25.9873835 153.768733,22.9592294 153.754192,19.7941406 L153.754192,19.7941406 Z M172.616532,19.7941406 C172.616532,15.8004022 169.75734,12.4909057 165.676745,12.4909057 C161.596151,12.4909057 158.889634,15.7585098 158.889634,19.7941406 C158.889634,23.8297714 161.748826,27.0973756 165.760023,27.0973756 C169.972473,27.0973756 172.616532,23.7878791 172.616532,19.7941406 Z" id="Shape"></path>
                        <path d="M183.033151,8.41338252 L188.196352,8.41338252 L188.196352,11.9044126 C189.646767,9.75393808 191.742583,7.90369213 195.240235,7.90369213 C200.320159,7.90369213 203.262628,11.3458478 203.262628,16.6242853 L203.262628,31.0562037 L198.099427,31.0562037 L198.099427,18.209213 C198.099427,14.7181829 196.350601,12.6654572 193.241577,12.6654572 C190.132553,12.6654572 188.161653,14.7600752 188.161653,18.2929977 L188.161653,31.091114 L182.998452,31.091114 L183.033151,8.41338252 Z" id="Path"></path>
                        <path d="M207.662453,28.1237384 L209.966462,24.6327083 C212.069501,26.3307609 214.656333,27.309178 217.350395,27.4255324 C219.571127,27.4255324 220.820288,26.4759722 220.820288,24.8910446 C220.820288,23.3061169 218.648135,22.6148929 216.170631,21.8817766 L215.788943,21.7560995 C212.457846,20.764647 208.74506,19.3961632 208.74506,14.969537 C208.74506,10.67557 212.284351,8.05729745 216.767453,8.05729745 C219.713818,8.11105648 222.584613,9.00441453 225.046618,10.6336777 L222.964682,14.3271875 C221.067617,13.0664889 218.876587,12.3252791 216.607838,12.176713 C214.5953,12.176713 213.443295,13.1262731 213.443295,14.5436314 C213.443295,16.0866667 215.622388,16.7709086 218.099892,17.5878096 L218.523219,17.7204687 C221.812678,18.7468316 225.525463,20.2549566 225.525463,24.4162645 C225.525463,29.1850116 221.854316,31.5449479 217.19772,31.5449479 C213.732669,31.4859023 210.382715,30.2839541 207.662453,28.1237384 L207.662453,28.1237384 Z" id="Path"></path>
                    </g>
                </g>
            </g>
        </g>
    </g>
</svg>