<?xml version="1.0" encoding="UTF-8"?>
<svg width="295px" height="84px" viewBox="0 0 295 84" version="1.1" xmlns="http://www.w3.org/2000/svg" xmlns:xlink="http://www.w3.org/1999/xlink">
    <!-- Generator: Sketch 55.1 (78136) - https://sketchapp.com -->
    <title>Operations_Logo_horizzontal</title>
    <desc>Created with Sketch.</desc>
    <defs>
        <linearGradient x1="60.881%" y1="74.624%" x2="30.576%" y2="-20.832%" id="linearGradient-1">
            <stop stop-color="#15DABA" offset="0%"></stop>
            <stop stop-color="#13DEB4" offset="20.5%"></stop>
            <stop stop-color="#0DE8A2" offset="49.01%"></stop>
            <stop stop-color="#04F884" offset="82.08%"></stop>
            <stop stop-color="#00FF78" offset="93.75%"></stop>
        </linearGradient>
        <linearGradient x1="55.835%" y1="67.554%" x2="45.052%" y2="-5.163%" id="linearGradient-2">
            <stop stop-color="#15DABA" offset="0%"></stop>
            <stop stop-color="#10D4BD" offset="37.62%"></stop>
            <stop stop-color="#01C2C4" offset="89.85%"></stop>
            <stop stop-color="#00C0C5" offset="93.75%"></stop>
        </linearGradient>
    </defs>
    <g id="Yoobic" stroke="none" stroke-width="1" fill="none" fill-rule="evenodd">
        <g id="Preview" transform="translate(-600.000000, -207.000000)" fill-rule="nonzero">
            <g id="Operations_Logo_horizzontal" transform="translate(600.000000, 207.848397)">
                <g id="Yoobic_Logo_vertical" transform="translate(98.888889, 7.777778)" fill="#20274F">
                    <g id="Group">
                        <g id="Yoobic_Tagline">
                            <path d="M16.5052374,55.9077739 C10.5699307,55.9077739 6.18296485,51.373347 6.18296485,45.7698277 C6.18296485,40.2031736 10.6067959,35.5950162 16.5789679,35.5950162 C22.5511398,35.5950162 26.9381056,40.1294431 26.9381056,45.7698277 C26.9381056,51.2996165 22.5142746,55.9077739 16.5052374,55.9077739 Z M16.5789679,52.0369217 C20.1917632,52.0369217 22.4774093,49.1982968 22.4774093,45.7698277 C22.4774093,42.3413586 20.0074369,39.5027337 16.5052374,39.5027337 C12.9293072,39.5027337 10.6436612,42.3044933 10.6436612,45.7698277 C10.6436612,49.1614315 13.1136335,52.0369217 16.5789679,52.0369217 Z M30.8938418,61.3638322 L30.8938418,36.0005341 L35.3545382,36.0005341 L35.3545382,39.2446768 C36.7922833,37.2170876 38.8198725,35.5950162 41.9534195,35.5950162 C46.5615769,35.5950162 51.0222732,39.2446768 51.0222732,45.7698277 C51.0222732,52.221248 46.5984421,55.8709086 41.9534195,55.8709086 C38.746142,55.8709086 36.7185527,54.2488372 35.3545382,52.4424395 L35.3545382,61.3638322 L30.8938418,61.3638322 Z M40.9211923,52.0000564 C43.9810088,52.0000564 46.4878464,49.6038146 46.4878464,45.6960972 C46.4878464,41.9358407 43.9441435,39.4658684 40.9211923,39.4658684 C37.898241,39.4658684 35.2439424,41.972706 35.2439424,45.7698277 C35.2439424,49.5300841 37.898241,52.0000564 40.9211923,52.0000564 Z M63.9362673,55.9077739 C58.2958827,55.9077739 53.9457822,51.8157301 53.9457822,45.7329624 C53.9457822,40.1663083 57.8903649,35.5950162 63.457019,35.5950162 C69.6503825,35.5950162 72.7839295,40.4612304 72.7839295,46.0647497 C72.7839295,46.3596718 72.7470642,47.096977 72.710199,47.3181685 L58.4064785,47.3181685 C58.8857269,50.4885808 61.1345077,52.2581132 64.0099978,52.2581132 C66.1850481,52.2581132 67.733389,51.4470775 69.2817299,49.9356019 L71.8991633,52.2581132 C70.0559003,54.4700288 67.5121974,55.9077739 63.9362673,55.9077739 Z M58.3696132,44.3689478 L68.3600984,44.3689478 C68.0651763,41.4934576 66.3693744,39.2446768 63.4201537,39.2446768 C60.6921245,39.2446768 58.7751311,41.3459966 58.3696132,44.3689478 Z M76.7028004,55.4653908 L76.7028004,36.0005341 L81.1634967,36.0005341 L81.1634967,40.3874999 C82.3800503,37.4751444 84.6288311,35.4844204 88.0573002,35.6318815 L88.0573002,40.3506346 L87.7992434,40.3506346 C83.8915259,40.3506346 81.1634967,42.8943375 81.1634967,48.0554737 L81.1634967,55.4653908 L76.7028004,55.4653908 Z M106.75914,55.4653908 L102.335309,55.4653908 L102.335309,53.0691489 C101.00816,54.6543551 98.9805703,55.8709086 96.0313496,55.8709086 C92.3448237,55.8709086 89.1006809,53.7695889 89.1006809,49.7881409 C89.1006809,45.4749056 92.4554195,43.4104511 96.9898463,43.4104511 C99.3492229,43.4104511 100.860699,43.7422384 102.372174,44.2214868 L102.372174,43.8528342 C102.372174,41.1616703 100.676372,39.68706 97.5796905,39.68706 C95.4046402,39.68706 93.7825688,40.1663083 92.0130364,40.9036135 L90.7964828,37.3276834 C92.9346678,36.3691866 95.0359876,35.705612 98.2063999,35.705612 C103.95738,35.705612 106.75914,38.7285632 106.75914,43.9265647 L106.75914,55.4653908 Z M102.445905,48.4241263 L102.445905,47.3181685 C101.303082,46.8757854 99.7178755,46.5439981 97.9852083,46.5439981 C95.1834486,46.5439981 93.524512,47.6868211 93.524512,49.6406799 C93.524512,51.4839428 95.1834486,52.5161701 97.2847684,52.5161701 C100.233989,52.5161701 102.445905,50.8572334 102.445905,48.4241263 Z M118.014197,55.7971781 C114.733189,55.7971781 112.410678,54.359433 112.410678,50.083063 L112.410678,39.834521 L109.940706,39.834521 L109.940706,36.0005341 L112.410678,36.0005341 L112.410678,30.6550715 L116.871374,30.6550715 L116.871374,36.0005341 L122.106241,36.0005341 L122.106241,39.834521 L116.871374,39.834521 L116.871374,49.382623 C116.871374,51.1152902 117.756141,51.8157301 119.267616,51.8157301 C120.262978,51.8157301 121.147744,51.5945386 122.032511,51.1521555 L122.032511,54.8018161 C120.926553,55.4285255 119.673134,55.7971781 118.014197,55.7971781 Z M126.098843,33.0144481 L126.098843,28.7749433 L130.891326,28.7749433 L130.891326,33.0144481 L126.098843,33.0144481 Z M126.283169,55.4653908 L126.283169,36.0005341 L130.743865,36.0005341 L130.743865,55.4653908 L126.283169,55.4653908 Z M145.243066,55.9077739 C139.307759,55.9077739 134.920793,51.373347 134.920793,45.7698277 C134.920793,40.2031736 139.344624,35.5950162 145.316796,35.5950162 C151.288968,35.5950162 155.675934,40.1294431 155.675934,45.7698277 C155.675934,51.2996165 151.252103,55.9077739 145.243066,55.9077739 Z M145.316796,52.0369217 C148.929591,52.0369217 151.215237,49.1982968 151.215237,45.7698277 C151.215237,42.3413586 148.745265,39.5027337 145.243066,39.5027337 C141.667135,39.5027337 139.381489,42.3044933 139.381489,45.7698277 C139.381489,49.1614315 141.851462,52.0369217 145.316796,52.0369217 Z M159.63167,55.4653908 L159.63167,36.0005341 L164.092366,36.0005341 L164.092366,39.0234853 C165.345785,37.1802223 167.152183,35.5950162 170.175134,35.5950162 C174.5621,35.5950162 177.105803,38.5442369 177.105803,43.0786638 L177.105803,55.4653908 L172.645106,55.4653908 L172.645106,44.4058131 C172.645106,41.3828619 171.133631,39.6501947 168.479332,39.6501947 C165.898764,39.6501947 164.092366,41.4565924 164.092366,44.4795436 L164.092366,55.4653908 L159.63167,55.4653908 Z M188.582052,55.8340434 C185.817157,55.8340434 182.757341,54.8386814 180.324234,52.9216879 L182.314958,49.8987367 C184.416277,51.4839428 186.701924,52.2949785 188.692648,52.2949785 C190.609641,52.2949785 191.715599,51.4839428 191.715599,50.1199282 C191.715599,48.6821831 189.835471,48.1660695 187.697286,47.5393601 C187.58669,47.5024948 187.476094,47.4656296 187.365498,47.4287643 C184.490008,46.5808634 181.28273,45.4011751 181.28273,41.6040534 C181.28273,37.9175275 184.342547,35.6687467 188.213399,35.6687467 C190.646506,35.6687467 193.300805,36.5166477 195.365259,37.8806623 L193.595727,41.0510745 C191.715599,39.9082515 189.724875,39.2078116 188.102803,39.2078116 C186.370136,39.2078116 185.374774,40.0188473 185.374774,41.2354008 C185.374774,42.5625501 187.254902,43.1523943 189.393087,43.8528342 C189.503683,43.8896995 189.651144,43.9265647 189.76174,43.96343 C192.600365,44.8481962 195.807642,46.1384803 195.807642,49.7144104 C195.807642,53.8064541 192.63723,55.8340434 188.582052,55.8340434 Z" id="operations"></path>
                        </g>
                    </g>
                </g>
                <g id="Operations_icon">
                    <path d="M10.2366255,14.5061729 C-4.68106996,31.9187243 -2.64917695,58.1018518 14.7633745,72.9938275 C32.1759259,87.8858027 58.3590535,85.8796296 73.2510286,68.4670781 C88.168724,51.0545268 86.1368314,24.8713992 68.7242799,9.97942389 C51.3117284,-4.91255144 25.154321,-2.9063786 10.2366255,14.5061729 Z M27.0576132,28.909465 C34.0020576,20.8076132 46.2191358,19.8559671 54.3209876,26.8004115 C62.4228395,33.744856 63.3744856,45.9619342 56.4300411,54.063786 C49.4855967,62.1656379 37.2685185,63.1172839 29.1666667,56.1728395 C21.0648148,49.2283951 20.1131687,37.037037 27.0576132,28.909465 Z" id="Shape" fill="#15DABA"></path>
                    <path d="M10.2366255,14.4804527 C5.68415638,19.8045268 2.70061729,25.9516461 1.26028807,32.3302469 C1.28600823,32.2788066 1.33744856,32.2530864 1.36316872,32.2016461 C14.6090535,16.718107 39.7633745,15.1234568 53.5493827,26.1574074 L53.3950617,26.0288066 C53.3950617,26.0288066 53.6522633,26.2345679 53.8065844,26.3631688 C53.7294239,26.2860082 53.6265432,26.2345679 53.5493827,26.1574074 L53.7294239,26.3117284 C53.9351852,26.4660494 54.1409465,26.6203704 54.3209876,26.8004115 C62.4228395,33.744856 63.3744856,45.9619342 56.4300411,54.063786 C50.6944445,60.776749 41.3580247,62.5771605 33.6934156,59.0792181 C33.6419753,59.0534979 33.5648148,59.0277778 33.5133745,59.0020576 C33.3590535,58.9248971 33.1790124,58.8477367 33.0246913,58.7705761 C32.8446502,58.6934156 32.6903292,58.590535 32.5102881,58.4876543 C32.4588477,58.4619342 32.3816872,58.4104938 32.3302469,58.3847736 C31.9958848,58.2047325 31.6615227,57.9989712 31.3271605,57.7932099 L18.8786008,76.1059668 C20.3446502,77.0833333 21.8621399,77.957819 23.4053498,78.7037038 C23.4567901,78.7294238 23.5339506,78.7551439 23.585391,78.8065846 C23.7654321,78.9094648 23.9711934,78.9866257 24.1512346,79.0637858 C24.3055555,79.1409466 24.4598766,79.2181068 24.6141975,79.2695475 C24.691358,79.2952676 24.7685185,79.3467077 24.845679,79.3724277 C41.1779835,86.6255143 60.9825103,82.7160495 73.1995885,68.4413581 C88.1172839,51.0288066 86.0853906,24.845679 68.6728392,9.92798353 C68.1327161,9.46502057 67.5668724,9.00205762 67.0010286,8.56481484 L66.9753086,8.59053496 C60.7510288,3.80658436 53.5236626,1.02880658 46.1676954,0.231481482 C46.1162551,0.231481482 46.0390947,0.231481482 45.9876543,0.205761317 C45.7561729,0.180041152 45.5504115,0.154320988 45.31893,0.154320988 C45.0874486,0.128600823 44.8559671,0.102880658 44.6244856,0.102880658 C44.5730452,0.102880658 44.5216049,0.102880658 44.4701646,0.102880658 C31.8930041,-0.745884772 19.0843621,4.16666667 10.2366255,14.4804527 Z M54.9125514,27.186214 C55.0154321,27.2633745 55.1183128,27.3662551 55.2469136,27.4434156 C55.1440329,27.3662551 55.0154321,27.2633745 54.9125514,27.186214 Z M54.1409465,26.56893 C54.2952675,26.6718107 54.4238683,26.8004115 54.5781893,26.9032922 C54.4238683,26.8004115 54.2952675,26.6975309 54.1409465,26.56893 Z" id="Shape" fill="url(#linearGradient-1)"></path>
                    <path d="M54.372428,26.8261317 C46.244856,19.8559671 34.0277778,20.8076132 27.0833333,28.909465 C20.1388889,37.0113169 21.090535,49.2283951 29.218107,56.1985597 C29.9639918,56.8415638 30.7613169,57.4331276 31.5843621,57.9475309 C31.5072016,57.8960906 31.4557613,57.8703704 31.3786008,57.81893 L18.904321,76.1316875 L14.7890947,73.0195475 C2.67489712,62.654321 -1.98045268,46.8364197 1.28600823,32.3302469 C1.31172839,32.3045268 1.33744856,32.2530864 1.38888889,32.2273663 C14.6347736,16.7438271 39.8148148,15.1748971 53.6265432,26.2088477 L53.8065844,26.3631687 C53.9866255,26.5174897 54.1666667,26.6718107 54.372428,26.8261317" id="Path" fill="url(#linearGradient-2)"></path>
                </g>
                <g id="yoobic" transform="translate(100.000000, 14.444444)" fill="#20274F">
                    <polygon id="Path" points="6.04196471 10.0932994 0 0 4.04577968 0 7.79780636 6.68645745 11.6165952 0 15.5555556 0 9.50691465 10.022618 9.50691465 16.6666667 6.04196471 16.6666667"></polygon>
                    <path d="M17.7806865,8.55155829 C17.6913592,5.16125392 19.6662328,2.05513123 22.7744753,0.697222171 C25.8827178,-0.660686889 29.5039879,0.000628421663 31.9314453,2.36946543 C34.3589028,4.73830244 35.1080769,8.34188992 33.825854,11.4817222 C32.5436311,14.6215545 29.4859165,16.6709855 26.0939255,16.6640417 C23.9071471,16.7196638 21.7906887,15.8893609 20.2252311,14.3617074 C18.6597736,12.8340539 17.7781845,10.738709 17.7806865,8.55155829 L17.7806865,8.55155829 Z M30.8424476,8.55155829 C30.8856148,7.26310953 30.4050942,6.01209919 29.5104458,5.0837612 C28.6157974,4.15542321 27.3832852,3.62889339 26.0939255,3.62422207 C23.3139784,3.62422207 21.3919575,5.81858232 21.3919575,8.55155829 C21.3469493,9.83937472 21.82595,11.0904344 22.7195535,12.0189885 C23.6131569,12.9475427 24.8450382,13.4742813 26.133829,13.47891 C27.4222075,13.4822072 28.6555071,12.9567835 29.5455525,12.0253951 C30.4355979,11.0940066 30.9044109,9.83825375 30.8424476,8.55155829 Z" id="Shape"></path>
                    <path d="M37.780686,8.55163623 C37.6913495,5.16069049 39.666941,2.05410122 42.7760104,0.696560147 C45.8850799,-0.660980925 49.5068892,0.00156470901 51.9338311,2.37182067 C54.3607731,4.74207663 55.108299,8.34681179 53.8239662,11.4864691 C52.5396333,14.6261265 49.4798638,16.6738608 46.0872749,16.6642083 C43.9016341,16.7180076 41.7869104,15.8868866 40.2229105,14.359417 C38.6589106,12.8319473 37.7782304,10.737628 37.780686,8.55163623 L37.780686,8.55163623 Z M50.8357971,8.55163623 C50.8808404,7.26265566 50.4009396,6.01055244 49.5058875,5.0817855 C48.6108355,4.15301856 47.3772216,3.6270623 46.0872749,3.624243 C44.8000504,3.62275698 43.5684987,4.14898498 42.6799102,5.0801743 C41.7913216,6.01136362 41.3234024,7.26608247 41.3853066,8.55163623 C41.3402985,9.83946674 41.8192992,11.0905401 42.7129027,12.0191044 C43.6065062,12.9476687 44.8383875,13.4744131 46.1271784,13.4790418 C47.4155569,13.482339 48.6488565,12.9569096 49.538902,12.025511 C50.4289474,11.0941124 50.8977604,9.83834576 50.8357971,8.55163623 L50.8357971,8.55163623 Z" id="Shape"></path>
                    <path d="M58.8888889,0.0128712007 L66.1712985,0.0128712007 C67.6673274,-0.0910085174 69.1413653,0.437075405 70.2718143,1.48190829 C70.994712,2.24055243 71.3857061,3.28533831 71.350197,4.36348104 C71.3868779,5.88761318 70.5798096,7.29358847 69.2866256,7.95838429 C71.1038995,8.66465212 72.2222222,9.81586867 72.2222222,12.0971138 C72.2222222,15.1481908 69.8923834,16.6666667 66.3510289,16.6666667 L58.8888889,16.6666667 L58.8888889,0.0128712007 Z M65.3390715,6.65999998 C66.8322901,6.65999998 67.7777778,6.16666668 67.7777778,4.95333333 C67.7777778,3.92 66.9887846,3.33333333 65.560772,3.33333333 L62.2222222,3.33333333 L62.2222222,6.66666667 L65.3390715,6.65999998 Z M66.402439,13.3333333 C67.9539295,13.3333333 68.8888889,12.8131021 68.8888889,11.6441875 C68.8888889,10.6294156 68.0894309,10 66.2872629,10 L62.2222222,10 L62.2222222,13.3333333 L66.402439,13.3333333 Z" id="Shape"></path>
                    <polygon id="Path" points="76.6666667 0 80 0 80 16.6666667 76.6666667 16.6666667"></polygon>
                    <path d="M84.446496,8.33429218 C84.5126768,4.89363895 86.5864024,1.83335894 89.699541,0.582163256 C92.8126796,-0.669032426 96.3512413,0.13562363 98.6632268,2.62047265 L96.6057167,5.06046495 C95.3977591,3.93273741 94.369004,3.26977032 92.5836161,3.26977032 C89.9287644,3.26977032 88.0504575,5.52522539 88.0504575,8.33429218 C88.0504575,11.1433589 89.9022162,13.398814 92.5836161,13.398814 C94.369004,13.398814 95.4641306,12.660665 96.6986364,11.5124334 L98.8888889,13.9319216 C97.2760667,15.702112 95.4906788,16.6658065 92.4707851,16.6658065 C90.321614,16.6979464 88.252248,15.8282276 86.7386666,14.256696 C85.2250858,12.6851644 84.3975832,10.547103 84.446496,8.33429218 L84.446496,8.33429218 Z" id="Path"></path>
                </g>
            </g>
        </g>
    </g>
</svg>