<?xml version="1.0" encoding="UTF-8"?>
<svg width="375px" height="542px" viewBox="0 0 375 542" version="1.1" xmlns="http://www.w3.org/2000/svg" xmlns:xlink="http://www.w3.org/1999/xlink">
    <!-- Generator: Sketch 55.1 (78136) - https://sketchapp.com -->
    <title>productbatch</title>
    <desc>Created with Sketch.</desc>
    <defs>
        <rect id="path-1" x="0" y="0" width="375" height="542"></rect>
        <rect id="path-3" x="0" y="0" width="375" height="542"></rect>
        <linearGradient x1="50%" y1="59.3995395%" x2="50%" y2="100%" id="linearGradient-5">
            <stop stop-color="#C74D75" stop-opacity="0" offset="0%"></stop>
            <stop stop-color="#AF3B6E" stop-opacity="0.28943048" offset="99.2797146%"></stop>
        </linearGradient>
        <linearGradient x1="50%" y1="59.3995395%" x2="50%" y2="100%" id="linearGradient-6">
            <stop stop-color="#C74D75" stop-opacity="0" offset="0%"></stop>
            <stop stop-color="#AF3B6E" stop-opacity="0.28943048" offset="99.2797146%"></stop>
        </linearGradient>
        <path d="M89.6813354,33.5974277 C89.6036234,16.1745135 90.46004,0 109.256449,0 C110.210893,0 110.316985,1.39830926 110.622155,2.27009646 C112.174156,20.0684367 116.976011,55.0631407 135.660091,99.8842444 C141.692915,114.187224 132.107655,147.962456 135.660091,166.62508 C139.326918,185.436194 144.987092,190.200453 167.07132,228.371704 C189.050194,266.188075 91.9366184,304.346838 79.6661608,259.245016 C66.9655728,213.984286 66.0552853,200.734482 45.9787557,187.055949 C32.8846313,177.979044 17.5583794,161.48301 0,137.567846 L71.4719272,137.567846 C83.5869083,73.8865376 89.656711,39.2297316 89.6813354,33.5974277 Z" id="path-7"></path>
        <linearGradient x1="100%" y1="57.6160871%" x2="-2.02450821%" y2="42.3839129%" id="linearGradient-9">
            <stop stop-color="#FF6663" stop-opacity="0" offset="0%"></stop>
            <stop stop-color="#000000" stop-opacity="0.3" offset="100%"></stop>
        </linearGradient>
        <linearGradient x1="50%" y1="0%" x2="50%" y2="100%" id="linearGradient-10">
            <stop stop-color="#393E41" stop-opacity="0" offset="0%"></stop>
            <stop stop-color="#000000" stop-opacity="0.3" offset="100%"></stop>
        </linearGradient>
        <linearGradient x1="50%" y1="0%" x2="50%" y2="100%" id="linearGradient-11">
            <stop stop-color="#393E41" stop-opacity="0" offset="0%"></stop>
            <stop stop-color="#000000" stop-opacity="0.3" offset="100%"></stop>
        </linearGradient>
        <path d="M19.0379363,0.3562701 C19.9484067,0.3562701 20.4036419,0.81028939 20.4036419,1.71832797 C20.4036419,5.8591078 23.1219736,7.6205788 27.23217,7.6205788 C33.9556397,7.6205788 60.1299934,7.6205788 65.016692,7.6205788 C69.4133889,7.6205788 71.84522,5.8591078 71.84522,1.71832797 C71.84522,0.81028939 72.3004552,0.3562701 73.2109256,0.3562701 L82.7708649,0.3562701 C87.7992542,0.3562701 91.875569,4.4216973 91.875569,9.4366559 L91.875569,187.866238 C91.875569,192.881197 87.7992542,196.946624 82.7708649,196.946624 L9.477997,196.946624 C4.4496077,196.946624 0.37329287,192.881197 0.37329287,187.866238 L0.37329287,9.4366559 C0.37329287,4.4216973 4.4496077,0.3562701 9.477997,0.3562701 L19.0379363,0.3562701 Z" id="path-12"></path>
        <ellipse id="path-14" cx="11.3808801" cy="11.3504823" rx="11.3808801" ry="11.3504823"></ellipse>
        <rect id="path-16" x="0" y="0" width="91.5022762" height="68.1028939"></rect>
        <linearGradient x1="54.6753109%" y1="100%" x2="54.6753109%" y2="-6.88367696%" id="linearGradient-18">
            <stop stop-color="#C74D75" stop-opacity="0" offset="0%"></stop>
            <stop stop-color="#AF3B6E" stop-opacity="0.2" offset="100%"></stop>
        </linearGradient>
        <linearGradient x1="57.3640216%" y1="49.9952106%" x2="50%" y2="50.0047894%" id="linearGradient-19">
            <stop stop-color="#C74D75" stop-opacity="0" offset="0%"></stop>
            <stop stop-color="#AF3B6E" stop-opacity="0.2" offset="100%"></stop>
        </linearGradient>
        <linearGradient x1="53.5251615%" y1="49.5768125%" x2="50%" y2="50.4231875%" id="linearGradient-20">
            <stop stop-color="#C74D75" stop-opacity="0" offset="0%"></stop>
            <stop stop-color="#AF3B6E" stop-opacity="0.2" offset="100%"></stop>
        </linearGradient>
        <linearGradient x1="50%" y1="59.3995395%" x2="50%" y2="100%" id="linearGradient-21">
            <stop stop-color="#C74D75" stop-opacity="0" offset="0%"></stop>
            <stop stop-color="#AF3B6E" stop-opacity="0.28943048" offset="100%"></stop>
        </linearGradient>
        <linearGradient x1="50%" y1="59.3995395%" x2="50%" y2="100%" id="linearGradient-22">
            <stop stop-color="#C74D75" stop-opacity="0" offset="0%"></stop>
            <stop stop-color="#AF3B6E" stop-opacity="0.28943048" offset="100%"></stop>
        </linearGradient>
        <linearGradient x1="50%" y1="59.3995395%" x2="50%" y2="100%" id="linearGradient-23">
            <stop stop-color="#C74D75" stop-opacity="0" offset="0%"></stop>
            <stop stop-color="#AF3B6E" stop-opacity="0.28943048" offset="100%"></stop>
        </linearGradient>
        <linearGradient x1="50%" y1="59.3995395%" x2="50%" y2="100%" id="linearGradient-24">
            <stop stop-color="#C74D75" stop-opacity="0" offset="0%"></stop>
            <stop stop-color="#AF3B6E" stop-opacity="0.28943048" offset="100%"></stop>
        </linearGradient>
        <linearGradient x1="46.2313457%" y1="0%" x2="53.7686543%" y2="100%" id="linearGradient-25">
            <stop stop-color="#FF6663" stop-opacity="0" offset="0%"></stop>
            <stop stop-color="#000000" stop-opacity="0.1" offset="100%"></stop>
        </linearGradient>
        <linearGradient x1="50%" y1="59.3995395%" x2="50%" y2="100%" id="linearGradient-26">
            <stop stop-color="#C74D75" stop-opacity="0" offset="0%"></stop>
            <stop stop-color="#AF3B6E" stop-opacity="0.28943048" offset="100%"></stop>
        </linearGradient>
        <linearGradient x1="50%" y1="59.3995395%" x2="50%" y2="100%" id="linearGradient-27">
            <stop stop-color="#C74D75" stop-opacity="0" offset="0%"></stop>
            <stop stop-color="#AF3B6E" stop-opacity="0.28943048" offset="100%"></stop>
        </linearGradient>
        <path d="M91.5022762,203.854662 C101.332271,188.140082 129.743989,184.603141 144.30956,163.446945 C158.553057,142.409041 185.062943,81.0764738 183.004552,74.9131833 C180.731432,68.7205715 163.562377,68.0251542 154.77997,84.4475884 C146.332535,100.923888 138.105263,119.591586 134.749621,118.045016 C131.302201,116.486594 148.605288,81.8486138 154.77997,70.8270096 C161.289624,59.6340751 201.536315,18.8846447 197.572079,5.9022508 C194.024582,-7.15885173 180.060535,3.00294462 161.153263,21.792926 C142.518712,40.3987216 131.897413,52.0814543 127.465857,53.5742765 C123.239936,54.6309555 111.279479,48.8172461 98.7860395,56.2983923 C86.735226,63.4063294 84.4696322,68.5842949 77.84522,70.8270096 C71.6060093,72.898394 55.8314098,74.8985227 49.6206373,91.7118971 C42.9580531,108.576309 35.5391556,167.502671 31.4112291,174.797428 C27.054469,181.88272 4.17954792,211.608341 0.455235205,227.009646 C-5.86794364,252.808594 57.4478597,277.48794 77.84522,246.986495 C89.1975569,230.276788 81.8712932,219.700484 91.5022762,203.854662 Z" id="path-28"></path>
        <linearGradient x1="26.4242767%" y1="0%" x2="73.5757233%" y2="100%" id="linearGradient-30">
            <stop stop-color="#FF6663" stop-opacity="0" offset="0%"></stop>
            <stop stop-color="#000000" stop-opacity="0.1" offset="100%"></stop>
        </linearGradient>
        <path d="M91.5022762,203.854662 C101.332271,188.140082 129.743989,184.603141 144.30956,163.446945 C158.553057,142.409041 185.062943,81.0764738 183.004552,74.9131833 C180.731432,68.7205715 163.562377,68.0251542 154.77997,84.4475884 C146.332535,100.923888 138.105263,119.591586 134.749621,118.045016 C131.302201,116.486594 148.605288,81.8486138 154.77997,70.8270096 C161.289624,59.6340751 201.536315,18.8846447 197.572079,5.9022508 C194.024582,-7.15885173 180.060535,3.00294462 161.153263,21.792926 C142.518712,40.3987216 131.897413,52.0814543 127.465857,53.5742765 C123.239936,54.6309555 111.279479,48.8172461 98.7860395,56.2983923 C86.735226,63.4063294 84.4696322,68.5842949 77.84522,70.8270096 C71.6060093,72.898394 55.8314098,74.8985227 49.6206373,91.7118971 C42.9580531,108.576309 35.5391556,167.502671 31.4112291,174.797428 C27.054469,181.88272 4.17954792,211.608341 0.455235205,227.009646 C-5.86794364,252.808594 57.4478597,277.48794 77.84522,246.986495 C89.1975569,230.276788 81.8712932,219.700484 91.5022762,203.854662 Z" id="path-31"></path>
        <linearGradient x1="67.8984955%" y1="100%" x2="32.1015045%" y2="0%" id="linearGradient-33">
            <stop stop-color="#FF6663" stop-opacity="0" offset="0%"></stop>
            <stop stop-color="#000000" stop-opacity="0.1" offset="100%"></stop>
        </linearGradient>
        <path d="M91.5022762,203.854662 C101.332271,188.140082 129.743989,184.603141 144.30956,163.446945 C158.553057,142.409041 185.062943,81.0764738 183.004552,74.9131833 C180.731432,68.7205715 163.562377,68.0251542 154.77997,84.4475884 C146.332535,100.923888 138.105263,119.591586 134.749621,118.045016 C131.302201,116.486594 148.605288,81.8486138 154.77997,70.8270096 C161.289624,59.6340751 201.536315,18.8846447 197.572079,5.9022508 C194.024582,-7.15885173 180.060535,3.00294462 161.153263,21.792926 C142.518712,40.3987216 131.897413,52.0814543 127.465857,53.5742765 C123.239936,54.6309555 111.279479,48.8172461 98.7860395,56.2983923 C86.735226,63.4063294 84.4696322,68.5842949 77.84522,70.8270096 C71.6060093,72.898394 55.8314098,74.8985227 49.6206373,91.7118971 C42.9580531,108.576309 35.5391556,167.502671 31.4112291,174.797428 C27.054469,181.88272 4.17954792,211.608341 0.455235205,227.009646 C-5.86794364,252.808594 57.4478597,277.48794 77.84522,246.986495 C89.1975569,230.276788 81.8712932,219.700484 91.5022762,203.854662 Z" id="path-34"></path>
        <path d="M91.5022762,203.854662 C101.332271,188.140082 129.743989,184.603141 144.30956,163.446945 C158.553057,142.409041 185.062943,81.0764738 183.004552,74.9131833 C180.731432,68.7205715 163.562377,68.0251542 154.77997,84.4475884 C146.332535,100.923888 138.105263,119.591586 134.749621,118.045016 C131.302201,116.486594 148.605288,81.8486138 154.77997,70.8270096 C161.289624,59.6340751 201.536315,18.8846447 197.572079,5.9022508 C194.024582,-7.15885173 180.060535,3.00294462 161.153263,21.792926 C142.518712,40.3987216 131.897413,52.0814543 127.465857,53.5742765 C123.239936,54.6309555 111.279479,48.8172461 98.7860395,56.2983923 C86.735226,63.4063294 84.4696322,68.5842949 77.84522,70.8270096 C71.6060093,72.898394 55.8314098,74.8985227 49.6206373,91.7118971 C42.9580531,108.576309 35.5391556,167.502671 31.4112291,174.797428 C27.054469,181.88272 4.17954792,211.608341 0.455235205,227.009646 C-5.86794364,252.808594 57.4478597,277.48794 77.84522,246.986495 C89.1975569,230.276788 81.8712932,219.700484 91.5022762,203.854662 Z" id="path-36"></path>
    </defs>
    <g id="Page-1" stroke="none" stroke-width="1" fill="none" fill-rule="evenodd">
        <g id="productbatch">
            <g id="aisles-Clipped">
                <mask id="mask-2" fill="white">
                    <use xlink:href="#path-1"></use>
                </mask>
                <g id="path-1"></g>
                <g id="aisles" opacity="0.400181362" mask="url(#mask-2)">
                    <g transform="translate(-238.000000, 0.000000)" id="Group">
                        <g>
                            <g id="Group-2-Copy" transform="translate(290.000000, 0.000000)" fill-rule="nonzero">
                                <rect id="Rectangle" fill="#F1F1F1" x="0" y="0" width="270" height="768" rx="12"></rect>
                                <g id="Group-Copy-5" opacity="0.1" transform="translate(30.000000, 480.000000)" fill="#000000">
                                    <rect id="Rectangle" x="0" y="0" width="60" height="60" rx="6"></rect>
                                    <rect id="Rectangle-Copy-3" x="75" y="0" width="60" height="60" rx="6"></rect>
                                    <rect id="Rectangle-Copy-4" x="150" y="0" width="60" height="60" rx="6"></rect>
                                </g>
                                <g id="Group-Copy-4" opacity="0.1" transform="translate(30.000000, 390.000000)" fill="#000000">
                                    <rect id="Rectangle" x="0" y="72" width="210" height="6"></rect>
                                    <rect id="Rectangle" x="0" y="0" width="60" height="60" rx="6"></rect>
                                    <rect id="Rectangle-Copy-3" x="75" y="0" width="60" height="60" rx="6"></rect>
                                    <rect id="Rectangle-Copy-4" x="150" y="0" width="60" height="60" rx="6"></rect>
                                </g>
                                <g id="Group-Copy-3" opacity="0.1" transform="translate(30.000000, 300.000000)" fill="#000000">
                                    <rect id="Rectangle" x="0" y="72" width="210" height="6"></rect>
                                    <rect id="Rectangle" x="0" y="0" width="60" height="60" rx="6"></rect>
                                    <rect id="Rectangle-Copy-3" x="75" y="0" width="60" height="60" rx="6"></rect>
                                    <rect id="Rectangle-Copy-4" x="150" y="0" width="60" height="60" rx="6"></rect>
                                </g>
                                <g id="Group-Copy-2" opacity="0.1" transform="translate(30.000000, 210.000000)" fill="#000000">
                                    <rect id="Rectangle" x="0" y="72" width="210" height="6"></rect>
                                    <rect id="Rectangle" x="0" y="0" width="60" height="60" rx="6"></rect>
                                    <rect id="Rectangle-Copy-3" x="75" y="0" width="60" height="60" rx="6"></rect>
                                    <rect id="Rectangle-Copy-4" x="150" y="0" width="60" height="60" rx="6"></rect>
                                </g>
                                <g id="Group-Copy" opacity="0.1" transform="translate(30.000000, 120.000000)" fill="#000000">
                                    <rect id="Rectangle" x="0" y="72" width="210" height="6"></rect>
                                    <rect id="Rectangle" x="0" y="0" width="60" height="60" rx="6"></rect>
                                    <rect id="Rectangle-Copy-3" x="75" y="0" width="60" height="60" rx="6"></rect>
                                    <rect id="Rectangle-Copy-4" x="150" y="0" width="60" height="60" rx="6"></rect>
                                </g>
                                <g id="Group" opacity="0.1" transform="translate(30.000000, 30.000000)" fill="#000000">
                                    <rect id="Rectangle" x="0" y="72" width="210" height="6"></rect>
                                    <rect id="Rectangle" x="0" y="0" width="60" height="60" rx="6"></rect>
                                    <rect id="Rectangle-Copy-3" x="75" y="0" width="60" height="60" rx="6"></rect>
                                    <rect id="Rectangle-Copy-4" x="150" y="0" width="60" height="60" rx="6"></rect>
                                </g>
                            </g>
                            <g id="Group-2-Copy-3" transform="translate(580.000000, 0.000000)" fill-rule="nonzero">
                                <rect id="Rectangle" fill="#F1F1F1" x="0" y="0" width="270" height="768" rx="12"></rect>
                                <g id="Group-Copy-5" opacity="0.1" transform="translate(30.000000, 480.000000)" fill="#000000">
                                    <rect id="Rectangle" x="0" y="0" width="60" height="60" rx="6"></rect>
                                </g>
                                <g id="Group-Copy-4" opacity="0.1" transform="translate(30.000000, 390.000000)" fill="#000000">
                                    <rect id="Rectangle" x="0" y="72" width="210" height="6"></rect>
                                    <rect id="Rectangle" x="0" y="0" width="60" height="60" rx="6"></rect>
                                </g>
                                <g id="Group-Copy-3" opacity="0.1" transform="translate(30.000000, 300.000000)" fill="#000000">
                                    <rect id="Rectangle" x="0" y="72" width="210" height="6"></rect>
                                    <rect id="Rectangle" x="0" y="0" width="60" height="60" rx="6"></rect>
                                </g>
                                <g id="Group-Copy-2" opacity="0.1" transform="translate(30.000000, 210.000000)" fill="#000000">
                                    <rect id="Rectangle" x="0" y="72" width="210" height="6"></rect>
                                    <rect id="Rectangle" x="0" y="0" width="60" height="60" rx="6"></rect>
                                </g>
                                <g id="Group-Copy" opacity="0.1" transform="translate(30.000000, 120.000000)" fill="#000000">
                                    <rect id="Rectangle" x="0" y="72" width="210" height="6"></rect>
                                    <rect id="Rectangle" x="0" y="0" width="60" height="60" rx="6"></rect>
                                </g>
                                <g id="Group" opacity="0.1" transform="translate(30.000000, 30.000000)" fill="#000000">
                                    <rect id="Rectangle" x="0" y="72" width="210" height="6"></rect>
                                    <rect id="Rectangle" x="0" y="0" width="60" height="60" rx="6"></rect>
                                </g>
                            </g>
                            <g id="Group-2-Copy-2" fill-rule="nonzero">
                                <rect id="Rectangle" fill="#F1F1F1" x="0" y="0" width="270" height="768" rx="12"></rect>
                                <g id="Group-Copy-5" opacity="0.1" transform="translate(180.000000, 480.000000)" fill="#000000">
                                    <rect id="Rectangle-Copy-4" x="0" y="0" width="60" height="60" rx="6"></rect>
                                </g>
                                <g id="Group-Copy-4" opacity="0.1" transform="translate(30.000000, 390.000000)" fill="#000000">
                                    <rect id="Rectangle" x="0" y="72" width="210" height="6"></rect>
                                    <rect id="Rectangle-Copy-4" x="150" y="0" width="60" height="60" rx="6"></rect>
                                </g>
                                <g id="Group-Copy-3" opacity="0.1" transform="translate(30.000000, 300.000000)" fill="#000000">
                                    <rect id="Rectangle" x="0" y="72" width="210" height="6"></rect>
                                    <rect id="Rectangle-Copy-4" x="150" y="0" width="60" height="60" rx="6"></rect>
                                </g>
                                <g id="Group-Copy-2" opacity="0.1" transform="translate(30.000000, 210.000000)" fill="#000000">
                                    <rect id="Rectangle" x="0" y="72" width="210" height="6"></rect>
                                    <rect id="Rectangle-Copy-4" x="150" y="0" width="60" height="60" rx="6"></rect>
                                </g>
                                <g id="Group-Copy" opacity="0.1" transform="translate(30.000000, 120.000000)" fill="#000000">
                                    <rect id="Rectangle" x="0" y="72" width="210" height="6"></rect>
                                    <rect id="Rectangle-Copy-4" x="150" y="0" width="60" height="60" rx="6"></rect>
                                </g>
                                <g id="Group" opacity="0.1" transform="translate(30.000000, 30.000000)" fill="#000000">
                                    <rect id="Rectangle" x="0" y="72" width="210" height="6"></rect>
                                    <rect id="Rectangle-Copy-4" x="150" y="0" width="60" height="60" rx="6"></rect>
                                </g>
                            </g>
                        </g>
                    </g>
                </g>
            </g>
            <g id="Hidden-mask-🌈linear;lrgb;15-Clipped">
                <mask id="mask-4" fill="white">
                    <use xlink:href="#path-3"></use>
                </mask>
                <g id="path-1"></g>
            </g>
            <g id="Hands-and-iPhone-Clipped" transform="translate(37.000000, 69.000000)">
                <g id="Hands-and-iPhone">
                    <g id="Group">
                        <g id="Hand-R" transform="translate(129.286798, 71.735048)">
                            <g id="Hand" fill-rule="nonzero">
                                <g id="path-5-link" fill="#FFAB27">
                                    <path d="M89.6813354,33.5974277 C89.6036234,16.1745135 90.46004,0 109.256449,0 C110.210893,0 110.316985,1.39830926 110.622155,2.27009646 C112.174156,20.0684367 116.976011,55.0631407 135.660091,99.8842444 C141.692915,114.187224 132.107655,147.962456 135.660091,166.62508 C139.326918,185.436194 144.987092,190.200453 167.07132,228.371704 C189.050194,266.188075 91.9366184,304.346838 79.6661608,259.245016 C66.9655728,213.984286 66.0552853,200.734482 45.9787557,187.055949 C32.8846313,177.979044 17.5583794,161.48301 0,137.567846 L71.4719272,137.567846 C83.5869083,73.8865376 89.656711,39.2297316 89.6813354,33.5974277 Z" id="path-5"></path>
                                </g>
                                <g id="path-5-link" fill="url(#linearGradient-6)">
                                    <path d="M89.6813354,33.5974277 C89.6036234,16.1745135 90.46004,0 109.256449,0 C110.210893,0 110.316985,1.39830926 110.622155,2.27009646 C112.174156,20.0684367 116.976011,55.0631407 135.660091,99.8842444 C141.692915,114.187224 132.107655,147.962456 135.660091,166.62508 C139.326918,185.436194 144.987092,190.200453 167.07132,228.371704 C189.050194,266.188075 91.9366184,304.346838 79.6661608,259.245016 C66.9655728,213.984286 66.0552853,200.734482 45.9787557,187.055949 C32.8846313,177.979044 17.5583794,161.48301 0,137.567846 L71.4719272,137.567846 C83.5869083,73.8865376 89.656711,39.2297316 89.6813354,33.5974277 Z" id="path-5"></path>
                                </g>
                            </g>
                            <g id="Sh-Clipped">
                                <mask id="mask-8" fill="white">
                                    <use xlink:href="#path-7"></use>
                                </mask>
                                <g id="path-5"></g>
                                <path d="M47.3444613,163.446945 C28.7990399,163.446945 18.2001989,151.37376 10.563135,137.567847 L73.292868,137.567846 C77.5952294,137.567846 81.9545457,137.229218 84.8213443,134.465141 C82.1171375,150.561393 71.3775721,163.446945 47.3444613,163.446945 Z" id="Sh" fill="url(#linearGradient-9)" fill-rule="nonzero" mask="url(#mask-8)"></path>
                            </g>
                        </g>
                        <g id="iPhone" transform="translate(116.540212, 0.000000)">
                            <g id="Group" fill-rule="nonzero">
                                <g id="path-9-link" fill="#393E41">
                                    <path d="M15.9332322,0 L88.3156297,0 C97.1153109,0 104.248862,7.11449764 104.248862,15.8906752 L104.248862,193.412219 C104.248862,202.188396 97.1153109,209.302894 88.3156297,209.302894 L15.9332322,209.302894 C7.13355103,209.302894 0,202.188396 0,193.412219 L0,15.8906752 C0,7.11449764 7.13355103,0 15.9332322,0 Z" id="path-9"></path>
                                </g>
                                <g id="path-9-link" fill="url(#linearGradient-11)">
                                    <path d="M15.9332322,0 L88.3156297,0 C97.1153109,0 104.248862,7.11449764 104.248862,15.8906752 L104.248862,193.412219 C104.248862,202.188396 97.1153109,209.302894 88.3156297,209.302894 L15.9332322,209.302894 C7.13355103,209.302894 0,202.188396 0,193.412219 L0,15.8906752 C0,7.11449764 7.13355103,0 15.9332322,0 Z" id="path-9"></path>
                                </g>
                            </g>
                            <g id="Screen" transform="translate(6.000000, 6.000000)" fill="#FFFFFF" fill-rule="nonzero">
                                <path d="M19.0379363,0.3562701 C19.9484067,0.3562701 20.4036419,0.81028939 20.4036419,1.71832797 C20.4036419,5.8591078 23.1219736,7.6205788 27.23217,7.6205788 C33.9556397,7.6205788 60.1299934,7.6205788 65.016692,7.6205788 C69.4133889,7.6205788 71.84522,5.8591078 71.84522,1.71832797 C71.84522,0.81028939 72.3004552,0.3562701 73.2109256,0.3562701 L82.7708649,0.3562701 C87.7992542,0.3562701 91.875569,4.4216973 91.875569,9.4366559 L91.875569,187.866238 C91.875569,192.881197 87.7992542,196.946624 82.7708649,196.946624 L9.477997,196.946624 C4.4496077,196.946624 0.37329287,192.881197 0.37329287,187.866238 L0.37329287,9.4366559 C0.37329287,4.4216973 4.4496077,0.3562701 9.477997,0.3562701 L19.0379363,0.3562701 Z" id="path-10"></path>
                            </g>
                            <g id="Content-Clipped" transform="translate(6.000000, 6.000000)">
                                <mask id="mask-13" fill="white">
                                    <use xlink:href="#path-12"></use>
                                </mask>
                                <g id="path-10"></g>
                                <g id="Content" mask="url(#mask-13)">
                                    <g id="Group" transform="translate(0.373293, 0.356270)">
                                        <path d="M6.82852807,186.14791 L84.6737481,186.14791 C85.9308454,186.14791 86.9499241,187.164267 86.9499241,188.418006 C86.9499241,189.671746 85.9308454,190.688103 84.6737481,190.688103 L6.82852807,190.688103 C5.57143077,190.688103 4.55235205,189.671746 4.55235205,188.418006 C4.55235205,187.164267 5.57143077,186.14791 6.82852807,186.14791 Z" id="Text" fill="#CAF3E8" fill-rule="nonzero"></path>
                                        <path d="M6.82852807,174.797428 L84.6737481,174.797428 C85.9308454,174.797428 86.9499241,175.813784 86.9499241,177.067524 C86.9499241,178.321264 85.9308454,179.337621 84.6737481,179.337621 L6.82852807,179.337621 C5.57143077,179.337621 4.55235205,178.321264 4.55235205,177.067524 C4.55235205,175.813784 5.57143077,174.797428 6.82852807,174.797428 Z" id="Text" fill="#CAF3E8" fill-rule="nonzero"></path>
                                        <path d="M6.82852807,163.446945 L84.6737481,163.446945 C85.9308454,163.446945 86.9499241,164.463302 86.9499241,165.717042 C86.9499241,166.970781 85.9308454,167.987138 84.6737481,167.987138 L6.82852807,167.987138 C5.57143077,167.987138 4.55235205,166.970781 4.55235205,165.717042 C4.55235205,164.463302 5.57143077,163.446945 6.82852807,163.446945 Z" id="Text" fill="#CAF3E8" fill-rule="nonzero"></path>
                                        <path d="M6.82852807,152.096463 L84.6737481,152.096463 C85.9308454,152.096463 86.9499241,153.11282 86.9499241,154.366559 C86.9499241,155.620299 85.9308454,156.636656 84.6737481,156.636656 L6.82852807,156.636656 C5.57143077,156.636656 4.55235205,155.620299 4.55235205,154.366559 C4.55235205,153.11282 5.57143077,152.096463 6.82852807,152.096463 Z" id="Text" fill="#CAF3E8" fill-rule="nonzero"></path>
                                        <path d="M6.82852807,140.745981 L84.6737481,140.745981 C85.9308454,140.745981 86.9499241,141.762338 86.9499241,143.016077 C86.9499241,144.269817 85.9308454,145.286174 84.6737481,145.286174 L6.82852807,145.286174 C5.57143077,145.286174 4.55235205,144.269817 4.55235205,143.016077 C4.55235205,141.762338 5.57143077,140.745981 6.82852807,140.745981 Z" id="Text" fill="#CAF3E8" fill-rule="nonzero"></path>
                                        <path d="M6.82852807,129.395498 L84.6737481,129.395498 C85.9308454,129.395498 86.9499241,130.411855 86.9499241,131.665595 C86.9499241,132.919335 85.9308454,133.935691 84.6737481,133.935691 L6.82852807,133.935691 C5.57143077,133.935691 4.55235205,132.919335 4.55235205,131.665595 C4.55235205,130.411855 5.57143077,129.395498 6.82852807,129.395498 Z" id="Text" fill="#CAF3E8" fill-rule="nonzero"></path>
                                        <path d="M10.0151745,111.688746 L81.4871017,111.688746 C84.5041352,111.688746 86.9499241,114.128002 86.9499241,117.136977 C86.9499241,120.145953 84.5041352,122.585209 81.4871017,122.585209 L10.0151745,122.585209 C6.99814097,122.585209 4.55235205,120.145953 4.55235205,117.136977 C4.55235205,114.128002 6.99814097,111.688746 10.0151745,111.688746 Z" id="Button" fill="#04CC99" fill-rule="nonzero"></path>
                                        <path d="M34.1426404,93.5279743 L61.9119879,93.5279743 C63.1690852,93.5279743 64.1881639,94.5443311 64.1881639,95.7980707 C64.1881639,97.0518104 63.1690852,98.0681672 61.9119879,98.0681672 L34.1426404,98.0681672 C32.8855431,98.0681672 31.8664643,97.0518104 31.8664643,95.7980707 C31.8664643,94.5443311 32.8855431,93.5279743 34.1426404,93.5279743 Z" id="Text" fill="#CAF3E8" fill-rule="nonzero"></path>
                                        <path d="M34.1426404,84.4475884 L84.6737481,84.4475884 C85.9308454,84.4475884 86.9499241,85.4639452 86.9499241,86.7176849 C86.9499241,87.9714245 85.9308454,88.9877814 84.6737481,88.9877814 L34.1426404,88.9877814 C32.8855431,88.9877814 31.8664643,87.9714245 31.8664643,86.7176849 C31.8664643,85.4639452 32.8855431,84.4475884 34.1426404,84.4475884 Z" id="Text" fill="#CAF3E8" fill-rule="nonzero"></path>
                                        <g id="Photo" transform="translate(4.552352, 79.907395)">
                                            <g id="Mask" opacity="0.5" fill="#F1F1F1" fill-rule="nonzero">
                                                <ellipse id="path-12" cx="11.3808801" cy="11.3504823" rx="11.3808801" ry="11.3504823"></ellipse>
                                            </g>
                                            <g id="milk-Clipped">
                                                <mask id="mask-15" fill="white">
                                                    <use xlink:href="#path-14"></use>
                                                </mask>
                                                <g id="path-12"></g>
                                                <g id="milk" mask="url(#mask-15)">
                                                    <g transform="translate(5.000000, 3.000000)" id="Path">
                                                        <g transform="translate(0.488688, 0.405145)">
                                                            <polygon fill="#C6C6C6" fill-rule="nonzero" points="5.11695906 20.4308682 0 18.2802505 0 6.45185311 5.11695906 8.24403452"></polygon>
                                                            <polygon fill="#E6E6E6" fill-rule="nonzero" points="12.0614035 18.6386867 5.11695906 20.4308682 5.11695906 8.24403452 12.0614035 6.45185311"></polygon>
                                                            <polygon fill="#E2E2E2" fill-rule="nonzero" points="9.50292398 1.43374513 2.55847953 2.86749027 2.55847953 1.43374513 9.50292398 0"></polygon>
                                                            <polygon fill="#D1D1D1" fill-rule="nonzero" points="5.11695906 8.24403452 0 6.45185311 2.55847953 2.86749027 2.55847953 2.86749027"></polygon>
                                                            <polygon fill="#EAEAEA" fill-rule="nonzero" points="12.0614035 6.45185311 5.11695906 8.24403452 2.55847953 2.86749027 9.50292398 1.43374513"></polygon>
                                                            <polygon fill="#1FB6FF" fill-rule="nonzero" points="12.0614035 13.2621425 5.11695906 18.6386867 5.11695906 13.2621425 12.0614035 7.52716196"></polygon>
                                                            <polygon fill="#1091D0" fill-rule="nonzero" points="0 16.488069 5.11695906 18.6386867 5.11695906 13.2621425 0 11.1115248"></polygon>
                                                            <path d="M8.11951754,6.04861229 L8.11951754,6.04861229 C7.30921053,6.25650533 7.03910819,5.53855745 6.91154971,5.0618372 L6.91154971,5.0618372 C6.78435673,4.58511694 6.66154971,3.82917482 7.47185673,3.62128177 L7.47185673,3.62128177 C8.28216374,3.41338873 8.55226608,4.13133661 8.67945906,4.60805686 L8.67945906,4.60805686 C8.80665205,5.08477712 8.92982456,5.84071924 8.11951754,6.04861229 Z" fill="#FFFFFF" fill-rule="nonzero"></path>
                                                            <polygon fill="#EDEDED" fill-rule="nonzero" points="8.04093567 1.73554849 8.77192982 1.58464681 8.77192982 0.150901675 8.04093567 0.301803351"></polygon>
                                                            <polygon fill="#EDEDED" fill-rule="nonzero" points="6.57894737 2.03735184 7.30994152 1.88645016 7.30994152 0.452705026 6.57894737 0.603606702"></polygon>
                                                            <polygon fill="#EDEDED" fill-rule="nonzero" points="5.11695906 2.33915519 5.84795322 2.18825351 5.84795322 0.754508377 5.11695906 0.905410052"></polygon>
                                                            <polygon fill="#EDEDED" fill-rule="nonzero" points="3.65497076 2.64095854 4.38596491 2.49005686 4.38596491 1.05631173 3.65497076 1.2072134"></polygon>
                                                        </g>
                                                    </g>
                                                </g>
                                            </g>
                                        </g>
                                        <g id="Bg">
                                            <g id="path-14-link" fill="#FFFFFF" fill-rule="nonzero">
                                                <rect id="path-14" x="0" y="0" width="91.5022762" height="68.1028939"></rect>
                                            </g>
                                            <g id="Scan-Clipped">
                                                <mask id="mask-17" fill="white">
                                                    <use xlink:href="#path-16"></use>
                                                </mask>
                                                <g id="path-14"></g>
                                                <g id="Scan" mask="url(#mask-17)">
                                                    <g transform="translate(21.000000, 13.000000)" id="Group">
                                                        <g transform="translate(0.590909, 0.620579)">
                                                            <path d="M34.4834031,1.83698595 C33.9755456,1.83698595 33.5638457,1.42576264 33.5638457,0.918492977 C33.5638457,0.411223313 33.9755456,0 34.4834031,0 L43.8322368,0 C45.3558095,0 46.5909091,1.23366994 46.5909091,2.75547893 L46.5909091,12.0934909 C46.5909091,12.6007605 46.1792092,13.0119838 45.6713517,13.0119838 C45.1634941,13.0119838 44.7517943,12.6007605 44.7517943,12.0934909 L44.7517943,2.75547893 C44.7517943,2.24820927 44.3400944,1.83698595 43.8322368,1.83698595 L34.4834031,1.83698595 Z M44.7517943,34.4434866 C44.7517943,33.936217 45.1634941,33.5249937 45.6713517,33.5249937 C46.1792092,33.5249937 46.5909091,33.936217 46.5909091,34.4434866 L46.5909091,43.7814986 C46.5909091,45.3033076 45.3558095,46.5369775 43.8322368,46.5369775 L34.4834031,46.5369775 C33.9755456,46.5369775 33.5638457,46.1257542 33.5638457,45.6184845 C33.5638457,45.1112149 33.9755456,44.6999915 34.4834031,44.6999915 L43.8322368,44.6999915 C44.3400944,44.6999915 44.7517943,44.2887682 44.7517943,43.7814986 L44.7517943,34.4434866 Z M12.107506,44.6999915 C12.6153635,44.6999915 13.0270634,45.1112149 13.0270634,45.6184845 C13.0270634,46.1257542 12.6153635,46.5369775 12.107506,46.5369775 L2.75867225,46.5369775 C1.23509964,46.5369775 1.42108547e-14,45.3033076 1.42108547e-14,43.7814986 L1.42108547e-14,34.4434866 C1.42108547e-14,33.936217 0.411699879,33.5249937 0.919557416,33.5249937 C1.42741495,33.5249937 1.83911483,33.936217 1.83911483,34.4434866 L1.83911483,43.7814986 C1.83911483,44.2887682 2.25081471,44.6999915 2.75867225,44.6999915 L12.107506,44.6999915 Z M1.83911483,12.0934909 C1.83911483,12.6007605 1.42741495,13.0119838 0.919557416,13.0119838 C0.411699879,13.0119838 0,12.6007605 0,12.0934909 L0,2.75547893 C0,1.23366994 1.23509964,0 2.75867225,0 L12.107506,0 C12.6153635,0 13.0270634,0.411223313 13.0270634,0.918492977 C13.0270634,1.42576264 12.6153635,1.83698595 12.107506,1.83698595 L2.75867225,1.83698595 C2.25081471,1.83698595 1.83911483,2.24820927 1.83911483,2.75547893 L1.83911483,12.0934909 Z" id="Detail" fill="#393E41" fill-rule="nonzero"></path>
                                                            <polygon id="Bg" fill="url(#linearGradient-18)" points="0 21.4927357 46.5909091 21.4927357 46.5909091 45.3123202 0 45.3123202"></polygon>
                                                            <g id="barcode-2" transform="translate(6.077075, 12.140081)" fill="#393E41" fill-rule="nonzero">
                                                                <rect id="Rectangle" x="0" y="0" width="3.03853755" height="19.2217951"></rect>
                                                                <rect id="Rectangle" x="11.1413043" y="0" width="5.06422925" height="19.2217951"></rect>
                                                                <rect id="Rectangle" x="26.3339921" y="0" width="2.0256917" height="19.2217951"></rect>
                                                                <rect id="Rectangle" x="7.08992095" y="0" width="2.0256917" height="19.2217951"></rect>
                                                                <rect id="Rectangle" x="32.4110672" y="0" width="3.03853755" height="19.2217951"></rect>
                                                                <rect id="Rectangle" x="19.2440711" y="0" width="4.0513834" height="19.2217951"></rect>
                                                            </g>
                                                            <g id="Detail" transform="translate(0.000000, 19.000000)" fill-rule="nonzero">
                                                                <g id="path-18-link" fill="#FF6663">
                                                                    <path d="M42.4781766,3.4724615 L4.11273278,3.4724615 C3.78163679,4.2293814 3.02548078,4.7583517 2.14563397,4.7583517 C0.96063305,4.7583517 0,3.7988306 0,2.6152014 C0,1.4315722 0.96063305,0.4720511 2.14563397,0.4720511 C3.02548078,0.4720511 3.78163679,1.0010214 4.11273242,1.7579412 L42.4781766,1.7579413 C42.8092723,1.0010214 43.5654283,0.4720511 44.4452751,0.4720511 C45.630276,0.4720511 46.5909091,1.4315722 46.5909091,2.6152014 C46.5909091,3.7988306 45.630276,4.7583517 44.4452751,4.7583517 C43.5654283,4.7583517 42.8092723,4.2293814 42.4781766,3.4724615 L42.4781766,3.4724615 Z" id="path-18"></path>
                                                                </g>
                                                                <g id="path-18-link" fill="url(#linearGradient-20)">
                                                                    <path d="M42.4781766,3.4724615 L4.11273278,3.4724615 C3.78163679,4.2293814 3.02548078,4.7583517 2.14563397,4.7583517 C0.96063305,4.7583517 0,3.7988306 0,2.6152014 C0,1.4315722 0.96063305,0.4720511 2.14563397,0.4720511 C3.02548078,0.4720511 3.78163679,1.0010214 4.11273242,1.7579412 L42.4781766,1.7579413 C42.8092723,1.0010214 43.5654283,0.4720511 44.4452751,0.4720511 C45.630276,0.4720511 46.5909091,1.4315722 46.5909091,2.6152014 C46.5909091,3.7988306 45.630276,4.7583517 44.4452751,4.7583517 C43.5654283,4.7583517 42.8092723,4.2293814 42.4781766,3.4724615 L42.4781766,3.4724615 Z" id="path-18"></path>
                                                                </g>
                                                            </g>
                                                        </g>
                                                    </g>
                                                </g>
                                            </g>
                                        </g>
                                        <g id="Timeline" transform="translate(0.000000, 67.648875)" fill="#04CC99" fill-rule="nonzero">
                                            <rect id="Rectangle" x="0" y="0.454019293" width="91.5022762" height="2.27009646"></rect>
                                        </g>
                                    </g>
                                </g>
                            </g>
                        </g>
                        <g id="Fingers" transform="translate(95.599393, 69.372990)" fill-rule="nonzero">
                            <g id="Finger" transform="translate(0.000000, 39.000000)">
                                <g id="path-20-link" fill="#FFAB27">
                                    <path d="M20.9408194,0.1376206 C9.18550001,2.1235534 0,10.2830028 0,18.2983923 C0,26.5568233 12.400343,35.9771446 17.754173,39.637299 C23.0446845,43.1513888 33.18943,39.8900698 32.3216995,30.1028939 C31.198655,19.9950745 20.9022986,13.3774876 20.9408194,9.2180064 C20.9022986,5.0483045 20.9022986,6.2144054 20.9408194,0.1376206 Z" id="path-20"></path>
                                </g>
                                <g id="path-20-link" fill="url(#linearGradient-22)">
                                    <path d="M20.9408194,0.1376206 C9.18550001,2.1235534 0,10.2830028 0,18.2983923 C0,26.5568233 12.400343,35.9771446 17.754173,39.637299 C23.0446845,43.1513888 33.18943,39.8900698 32.3216995,30.1028939 C31.198655,19.9950745 20.9022986,13.3774876 20.9408194,9.2180064 C20.9022986,5.0483045 20.9022986,6.2144054 20.9408194,0.1376206 Z" id="path-20"></path>
                                </g>
                            </g>
                            <g id="Finger" transform="translate(2.000000, 0.000000)">
                                <g id="path-22-link" fill="#FFAB27">
                                    <path d="M18.9408194,1.45401929 C13.0976675,0.756877964 4.16497367,-0.06637653 1.18664643,6.44823151 C-2.22637829,13.3845938 4.59858874,20.3766566 18.9408194,27.7871383 L18.9408194,1.45401929 Z" id="path-22"></path>
                                </g>
                                <g id="path-22-link" fill="url(#linearGradient-24)">
                                    <path d="M18.9408194,1.45401929 C13.0976675,0.756877964 4.16497367,-0.06637653 1.18664643,6.44823151 C-2.22637829,13.3845938 4.59858874,20.3766566 18.9408194,27.7871383 L18.9408194,1.45401929 Z" id="path-22"></path>
                                </g>
                            </g>
                        </g>
                        <path d="M239.908953,74.0051447 C241.71526,91.8227222 246.530856,126.854906 264.946889,171.619293 C271.31849,186.042312 261.705801,219.853719 264.946889,238.360129 C265.325909,238.837956 200.621609,231.797613 210.318665,176.613505 C220.491005,121.615433 219.145062,114.080562 218.968134,105.332476 C219.145151,88.0631809 219.994737,71.9539251 238.543247,71.7350482 C239.751446,71.7977498 239.859907,73.1529373 239.908953,74.0051447 Z" id="Finger" fill="#FFAB27" fill-rule="nonzero"></path>
                        <path d="M229.124398,73.6330125 C231.61192,72.4101269 234.703201,71.7350482 238.543247,71.7350482 C239.497691,71.7350482 239.603784,73.1333575 239.908953,74.0051447 C241.460954,91.8034849 246.262809,126.798189 264.946889,171.619293 C270.979713,185.922272 261.394453,219.697505 264.946889,238.360129 C268.613717,257.171242 274.27389,261.935502 296.358118,300.106752 C302.111927,310.00663 299.703969,319.929972 292.79308,328.376848 C274.77082,298.463582 261.207235,275.350171 252.102321,259.036617 C236.767068,231.559973 255.539651,207.432983 245.02752,177.748361 C235.355914,150.437248 229.930216,91.9977445 229.124398,73.6330125 L229.124398,73.6330125 Z" id="Sh" fill="url(#linearGradient-25)" fill-rule="nonzero"></path>
                        <g id="Hand-L" transform="translate(0.000000, 90.349839)">
                            <g id="Hand" fill-rule="nonzero">
                                <g id="path-25-link" fill="#FFAB27">
                                    <path d="M91.5022762,203.854662 C101.332271,188.140082 129.743989,184.603141 144.30956,163.446945 C158.553057,142.409041 185.062943,81.0764738 183.004552,74.9131833 C180.731432,68.7205715 163.562377,68.0251542 154.77997,84.4475884 C146.332535,100.923888 138.105263,119.591586 134.749621,118.045016 C131.302201,116.486594 148.605288,81.8486138 154.77997,70.8270096 C161.289624,59.6340751 201.536315,18.8846447 197.572079,5.9022508 C194.024582,-7.15885173 180.060535,3.00294462 161.153263,21.792926 C142.518712,40.3987216 131.897413,52.0814543 127.465857,53.5742765 C123.239936,54.6309555 111.279479,48.8172461 98.7860395,56.2983923 C86.735226,63.4063294 84.4696322,68.5842949 77.84522,70.8270096 C71.6060093,72.898394 55.8314098,74.8985227 49.6206373,91.7118971 C42.9580531,108.576309 35.5391556,167.502671 31.4112291,174.797428 C27.054469,181.88272 4.17954792,211.608341 0.455235205,227.009646 C-5.86794364,252.808594 57.4478597,277.48794 77.84522,246.986495 C89.1975569,230.276788 81.8712932,219.700484 91.5022762,203.854662 Z" id="path-25"></path>
                                </g>
                                <g id="path-25-link" fill="url(#linearGradient-27)">
                                    <path d="M91.5022762,203.854662 C101.332271,188.140082 129.743989,184.603141 144.30956,163.446945 C158.553057,142.409041 185.062943,81.0764738 183.004552,74.9131833 C180.731432,68.7205715 163.562377,68.0251542 154.77997,84.4475884 C146.332535,100.923888 138.105263,119.591586 134.749621,118.045016 C131.302201,116.486594 148.605288,81.8486138 154.77997,70.8270096 C161.289624,59.6340751 201.536315,18.8846447 197.572079,5.9022508 C194.024582,-7.15885173 180.060535,3.00294462 161.153263,21.792926 C142.518712,40.3987216 131.897413,52.0814543 127.465857,53.5742765 C123.239936,54.6309555 111.279479,48.8172461 98.7860395,56.2983923 C86.735226,63.4063294 84.4696322,68.5842949 77.84522,70.8270096 C71.6060093,72.898394 55.8314098,74.8985227 49.6206373,91.7118971 C42.9580531,108.576309 35.5391556,167.502671 31.4112291,174.797428 C27.054469,181.88272 4.17954792,211.608341 0.455235205,227.009646 C-5.86794364,252.808594 57.4478597,277.48794 77.84522,246.986495 C89.1975569,230.276788 81.8712932,219.700484 91.5022762,203.854662 Z" id="path-25"></path>
                                </g>
                            </g>
                            <g id="Sh-Clipped">
                                <mask id="mask-29" fill="white">
                                    <use xlink:href="#path-28"></use>
                                </mask>
                                <g id="path-25"></g>
                                <path d="M54.4414274,260.649834 C63.8256269,224.855723 72.5373615,201.535146 80.5766313,190.688103 C96.510521,169.734366 120.861302,163.194506 131.107739,153.004502 C140.116578,143.709008 163.271128,93.5571162 181.924898,73.2577653 C182.413913,73.7491277 182.781164,74.3046101 183.004552,74.9131833 C185.062943,81.0764738 158.553057,142.409041 144.30956,163.446945 C129.743989,184.603141 101.332271,188.140082 91.5022762,203.854662 C81.8712932,219.700484 89.1975569,230.276788 77.84522,246.986495 C72.3935182,255.138765 63.8759007,259.349147 54.4414274,260.649834 L54.4414274,260.649834 Z" id="Sh" fill="url(#linearGradient-30)" fill-rule="nonzero" mask="url(#mask-29)"></path>
                            </g>
                            <g id="Sh-Clipped">
                                <mask id="mask-32" fill="white">
                                    <use xlink:href="#path-31"></use>
                                </mask>
                                <g id="path-25"></g>
                                <path d="M154.77997,70.8270096 C149.123811,80.8443048 135.279373,110.820131 134.749621,118.045016 C127.163856,118.045016 133.626297,86.6901193 149.317147,64.9247588 C159.791487,50.2760688 179.991396,22.7442787 197.572079,7.71832797 C198.012595,22.2828292 160.83827,60.2579296 154.77997,70.8270096 Z" id="Sh" fill="url(#linearGradient-33)" fill-rule="nonzero" mask="url(#mask-32)"></path>
                            </g>
                            <g id="Line-Clipped">
                                <mask id="mask-35" fill="white">
                                    <use xlink:href="#path-34"></use>
                                </mask>
                                <g id="path-25"></g>
                                <path d="M132.572456,47.5624787 C132.941174,47.2214947 133.517242,47.2431794 133.85914,47.610913 C134.201037,47.9786465 134.179294,48.5531757 133.810576,48.8941597 C133.545448,49.1393446 133.272078,49.3889698 132.988306,49.6451513 C133.066369,49.5746781 124.350769,57.1125676 121.580191,59.7753475 C116.778301,64.3904054 112.560655,69.3029724 108.41139,75.3876391 C108.12861,75.8023201 107.562306,75.9098593 107.146515,75.6278348 C106.730723,75.3458103 106.622896,74.7810189 106.905676,74.366338 C111.128306,68.1740845 115.427393,63.1666583 120.316632,58.4676498 C123.128324,55.7653555 131.875691,48.1999919 131.766295,48.2987514 C132.044802,48.0473233 132.312816,47.8025893 132.572456,47.5624787 Z" id="Line" fill="#FFFFFF" fill-rule="nonzero" mask="url(#mask-35)"></path>
                            </g>
                            <g id="Line-Clipped">
                                <mask id="mask-37" fill="white">
                                    <use xlink:href="#path-36"></use>
                                </mask>
                                <g id="path-25"></g>
                                <path d="M88.5788685,63.1942366 C83.1568159,67.7418793 78.5530702,72.3637549 74.0671492,78.0550904 C73.7563911,78.4493525 73.1840032,78.5177188 72.7886852,78.2077906 C72.3933671,77.8978625 72.3248178,77.3270035 72.635576,76.9327413 C77.2041467,71.1365472 81.8945836,66.427639 87.4068556,61.8043265 C89.680529,59.8973265 90.8153514,61.3184294 88.5788685,63.1942366 Z" id="Line" fill="#FFFFFF" fill-rule="nonzero" mask="url(#mask-37)"></path>
                            </g>
                        </g>
                    </g>
                </g>
            </g>
        </g>
    </g>
</svg>