<?xml version="1.0" encoding="UTF-8"?>
<svg width="50px" height="50px" viewBox="0 0 50 50" version="1.1" xmlns="http://www.w3.org/2000/svg" xmlns:xlink="http://www.w3.org/1999/xlink">
    <!-- Generator: Sketch 52.5 (67469) - http://www.bohemiancoding.com/sketch -->
    <title>Shape</title>
    <desc>Created with Sketch.</desc>
    <g id="Page-1" stroke="none" stroke-width="1" fill="none" fill-rule="evenodd">
        <path d="M42.3913043,0 L7.60869565,0 C3.41304348,0 0,3.41304348 0,7.60869565 L0,31.5217391 C0,35.7173913 3.41304348,39.1304348 7.60869565,39.1304348 L31.0717391,39.1304348 L41.623913,49.6826087 C41.8304348,49.8891304 42.1086957,50 42.3913043,50 C42.5304348,50 42.673913,49.973913 42.8065217,49.9173913 C43.2130435,49.75 43.4782609,49.3521739 43.4782609,48.9130435 L43.4782609,39.0521739 C47.1608696,38.523913 50,35.3478261 50,31.5217391 L50,7.60869565 C50,3.41304348 46.5869565,0 42.3913043,0 Z M25,32.6086957 C23.2021739,32.6086957 21.7391304,31.1456522 21.7391304,29.3478261 C21.7391304,27.55 23.2021739,26.0869565 25,26.0869565 C26.7978261,26.0869565 28.2608696,27.55 28.2608696,29.3478261 C28.2608696,31.1456522 26.7978261,32.6086957 25,32.6086957 Z M28.4021739,20.7608696 C28.2782609,22.5195652 26.7804348,23.9130435 25,23.9130435 C23.2,23.9130435 21.7043478,22.5195652 21.5804348,20.7413043 L20.6630435,10.0304348 C20.5978261,9.1173913 20.9108696,8.22173913 21.523913,7.56304348 C22.1413043,6.9 23.0108696,6.52173913 23.9130435,6.52173913 L26.0869565,6.52173913 C26.9891304,6.52173913 27.8586957,6.9 28.476087,7.56304348 C29.0891304,8.22391304 29.4043478,9.1173913 29.3391304,10.0173913 L28.4021739,20.7608696 Z" id="Shape" fill="#FF625F" fill-rule="nonzero"></path>
    </g>
</svg>