<?xml version="1.0" encoding="UTF-8"?>
<svg width="600px" height="517px" viewBox="0 0 600 517" version="1.1" xmlns="http://www.w3.org/2000/svg" xmlns:xlink="http://www.w3.org/1999/xlink">
    <!-- Generator: Sketch 54.1 (76490) - https://sketchapp.com -->
    <title>web/operations/dashboard</title>
    <desc>Created with Sketch.</desc>
    <defs>
        <rect id="path-1" x="0" y="0" width="380" height="46" rx="4"></rect>
        <filter x="-6.6%" y="-43.5%" width="113.2%" height="208.7%" filterUnits="objectBoundingBox" id="filter-2">
            <feOffset dx="0" dy="5" in="SourceAlpha" result="shadowOffsetOuter1"></feOffset>
            <feGaussianBlur stdDeviation="7.5" in="shadowOffsetOuter1" result="shadowBlurOuter1"></feGaussianBlur>
            <feColorMatrix values="0 0 0 0 0.156862745   0 0 0 0 0.184313725   0 0 0 0 0.211764706  0 0 0 0.08 0" type="matrix" in="shadowBlurOuter1"></feColorMatrix>
        </filter>
        <rect id="path-3" x="0" y="0" width="380" height="46" rx="4"></rect>
        <filter x="-6.6%" y="-43.5%" width="113.2%" height="208.7%" filterUnits="objectBoundingBox" id="filter-4">
            <feOffset dx="0" dy="5" in="SourceAlpha" result="shadowOffsetOuter1"></feOffset>
            <feGaussianBlur stdDeviation="7.5" in="shadowOffsetOuter1" result="shadowBlurOuter1"></feGaussianBlur>
            <feColorMatrix values="0 0 0 0 0.156862745   0 0 0 0 0.184313725   0 0 0 0 0.211764706  0 0 0 0.08 0" type="matrix" in="shadowBlurOuter1"></feColorMatrix>
        </filter>
        <rect id="path-5" x="0" y="0" width="380" height="46" rx="4"></rect>
        <filter x="-6.6%" y="-43.5%" width="113.2%" height="208.7%" filterUnits="objectBoundingBox" id="filter-6">
            <feOffset dx="0" dy="5" in="SourceAlpha" result="shadowOffsetOuter1"></feOffset>
            <feGaussianBlur stdDeviation="7.5" in="shadowOffsetOuter1" result="shadowBlurOuter1"></feGaussianBlur>
            <feColorMatrix values="0 0 0 0 0.156862745   0 0 0 0 0.184313725   0 0 0 0 0.211764706  0 0 0 0.08 0" type="matrix" in="shadowBlurOuter1"></feColorMatrix>
        </filter>
        <rect id="path-7" x="0" y="0" width="380" height="46" rx="4"></rect>
        <filter x="-6.6%" y="-43.5%" width="113.2%" height="208.7%" filterUnits="objectBoundingBox" id="filter-8">
            <feOffset dx="0" dy="5" in="SourceAlpha" result="shadowOffsetOuter1"></feOffset>
            <feGaussianBlur stdDeviation="7.5" in="shadowOffsetOuter1" result="shadowBlurOuter1"></feGaussianBlur>
            <feColorMatrix values="0 0 0 0 0.156862745   0 0 0 0 0.184313725   0 0 0 0 0.211764706  0 0 0 0.08 0" type="matrix" in="shadowBlurOuter1"></feColorMatrix>
        </filter>
        <rect id="path-9" x="0" y="0" width="380" height="46" rx="4"></rect>
        <filter x="-6.6%" y="-43.5%" width="113.2%" height="208.7%" filterUnits="objectBoundingBox" id="filter-10">
            <feOffset dx="0" dy="5" in="SourceAlpha" result="shadowOffsetOuter1"></feOffset>
            <feGaussianBlur stdDeviation="7.5" in="shadowOffsetOuter1" result="shadowBlurOuter1"></feGaussianBlur>
            <feColorMatrix values="0 0 0 0 0.156862745   0 0 0 0 0.184313725   0 0 0 0 0.211764706  0 0 0 0.08 0" type="matrix" in="shadowBlurOuter1"></feColorMatrix>
        </filter>
        <rect id="path-11" x="0" y="0" width="380" height="46" rx="4"></rect>
        <filter x="-6.6%" y="-43.5%" width="113.2%" height="208.7%" filterUnits="objectBoundingBox" id="filter-12">
            <feOffset dx="0" dy="5" in="SourceAlpha" result="shadowOffsetOuter1"></feOffset>
            <feGaussianBlur stdDeviation="7.5" in="shadowOffsetOuter1" result="shadowBlurOuter1"></feGaussianBlur>
            <feColorMatrix values="0 0 0 0 0.156862745   0 0 0 0 0.184313725   0 0 0 0 0.211764706  0 0 0 0.08 0" type="matrix" in="shadowBlurOuter1"></feColorMatrix>
        </filter>
        <rect id="path-13" x="0" y="0" width="120" height="75" rx="4"></rect>
        <filter x="-20.8%" y="-26.7%" width="141.7%" height="166.7%" filterUnits="objectBoundingBox" id="filter-14">
            <feOffset dx="0" dy="5" in="SourceAlpha" result="shadowOffsetOuter1"></feOffset>
            <feGaussianBlur stdDeviation="7.5" in="shadowOffsetOuter1" result="shadowBlurOuter1"></feGaussianBlur>
            <feColorMatrix values="0 0 0 0 0.156862745   0 0 0 0 0.184313725   0 0 0 0 0.211764706  0 0 0 0.08 0" type="matrix" in="shadowBlurOuter1"></feColorMatrix>
        </filter>
        <rect id="path-15" x="0" y="0" width="120" height="75" rx="4"></rect>
        <filter x="-20.8%" y="-26.7%" width="141.7%" height="166.7%" filterUnits="objectBoundingBox" id="filter-16">
            <feOffset dx="0" dy="5" in="SourceAlpha" result="shadowOffsetOuter1"></feOffset>
            <feGaussianBlur stdDeviation="7.5" in="shadowOffsetOuter1" result="shadowBlurOuter1"></feGaussianBlur>
            <feColorMatrix values="0 0 0 0 0.156862745   0 0 0 0 0.184313725   0 0 0 0 0.211764706  0 0 0 0.08 0" type="matrix" in="shadowBlurOuter1"></feColorMatrix>
        </filter>
        <rect id="path-17" x="0" y="0" width="120" height="75" rx="4"></rect>
        <filter x="-20.8%" y="-26.7%" width="141.7%" height="166.7%" filterUnits="objectBoundingBox" id="filter-18">
            <feOffset dx="0" dy="5" in="SourceAlpha" result="shadowOffsetOuter1"></feOffset>
            <feGaussianBlur stdDeviation="7.5" in="shadowOffsetOuter1" result="shadowBlurOuter1"></feGaussianBlur>
            <feColorMatrix values="0 0 0 0 0.156862745   0 0 0 0 0.184313725   0 0 0 0 0.211764706  0 0 0 0.08 0" type="matrix" in="shadowBlurOuter1"></feColorMatrix>
        </filter>
        <rect id="path-19" x="0" y="0" width="120" height="75" rx="4"></rect>
        <filter x="-20.8%" y="-26.7%" width="141.7%" height="166.7%" filterUnits="objectBoundingBox" id="filter-20">
            <feOffset dx="0" dy="5" in="SourceAlpha" result="shadowOffsetOuter1"></feOffset>
            <feGaussianBlur stdDeviation="7.5" in="shadowOffsetOuter1" result="shadowBlurOuter1"></feGaussianBlur>
            <feColorMatrix values="0 0 0 0 0.156862745   0 0 0 0 0.184313725   0 0 0 0 0.211764706  0 0 0 0.08 0" type="matrix" in="shadowBlurOuter1"></feColorMatrix>
        </filter>
    </defs>
    <g id="Web-Illustrations" stroke="none" stroke-width="1" fill="none" fill-rule="evenodd">
        <g id="Scoring" transform="translate(-89.000000, -41.000000)">
            <g id="web/operations/scoring" transform="translate(44.000000, 31.000000)">
                <g id="Group" transform="translate(126.000000, 131.000000)">
                    <g id="lateral-cell" transform="translate(30.000000, 330.000000)">
                        <g id="Rectangle">
                            <use fill="black" fill-opacity="1" filter="url(#filter-2)" xlink:href="#path-1"></use>
                            <use fill="#FFFFFF" fill-rule="evenodd" xlink:href="#path-1"></use>
                        </g>
                        <rect id="Rectangle" fill="#C8D8E4" opacity="0.5" x="46" y="17" width="83" height="12" rx="2"></rect>
                        <g id="variable" transform="translate(149.000000, 13.000000)" fill="#000000">
                            <path d="M20,3.48196535 C20,4.44816813 19.7017893,5.21755183 19.1028827,5.78756035 C18.5039761,6.35756887 17.7733598,6.64385118 16.9110338,6.64385118 C16.3941352,6.64385118 15.8846918,6.57739279 15.3827038,6.444476 C14.8832008,6.31155922 14.4483101,6.17864243 14.0805169,6.04572565 C13.9090457,6.16841806 13.6555666,6.43425163 13.3225646,6.84578245 C12.9870775,7.25731326 12.611829,7.75575121 12.1893638,8.34365237 C12.5745527,10.0434536 12.887674,11.249929 13.1262425,11.9656348 C13.362326,12.6787844 13.5884692,13.4047146 13.8021869,14.138313 C13.9860835,14.721102 14.2569583,15.1786424 14.609841,15.5083783 C14.9676938,15.8381142 15.526839,16.0017041 16.2947316,16.0017041 C16.5755467,16.0017041 16.9259443,15.9480261 17.3459245,15.8355581 C17.7683897,15.7256461 18.1138171,15.6131781 18.3822068,15.5032661 L18.0243539,17.0088043 C16.9557654,17.4791252 16.0238569,17.8190855 15.2286282,18.028685 C14.4309145,18.2433968 13.7201789,18.3481965 13.0939364,18.3481965 C12.639165,18.3481965 12.194334,18.3021869 11.749503,18.2152798 C11.3071571,18.1258165 10.9020875,17.9647827 10.5392644,17.7321784 C10.1416501,17.4867935 9.80367793,17.1826186 9.527833,16.8196535 C9.25447316,16.4515763 9.01838966,15.9403579 8.82455268,15.2859983 C8.69284294,14.8770236 8.57355865,14.4092587 8.4666998,13.887816 C8.35735586,13.3663732 8.24801193,12.9037205 8.13866799,12.5049702 C7.82554672,12.9855155 7.59940358,13.3382562 7.46023857,13.5708606 C7.31858847,13.806021 7.11481113,14.1332008 6.84642147,14.554956 C5.99403579,15.8969043 5.25347913,16.8528827 4.62723658,17.4254473 C4.00099404,17.9980119 3.25049702,18.2817381 2.37823062,18.2817381 C1.71968191,18.2817381 1.16053678,18.054246 0.69582505,17.5992616 C0.23111332,17.1442772 0,16.5512638 0,15.8202215 C0,14.8310139 0.298210736,14.0539619 0.897117296,13.4788412 C1.49850895,12.9088327 2.22912525,12.6225504 3.09642147,12.6225504 C3.61332008,12.6225504 4.11033797,12.6864527 4.58747515,12.8142573 C5.06461233,12.9420619 5.51192843,13.082647 5.93190855,13.2385686 C6.09343936,13.1030957 6.34691849,12.8449304 6.68737575,12.4538483 C7.027833,12.0678784 7.39562624,11.5847771 7.79572565,11.0071003 C7.43538767,9.52201079 7.14463221,8.3998864 6.91600398,7.64583925 C6.68489066,6.8917921 6.45377734,6.14285714 6.21520875,5.39903437 C6.02137177,4.80602102 5.74055666,4.34592445 5.37276342,4.02385686 C5.00745527,3.69667708 4.45576541,3.53564328 3.72266402,3.53564328 C3.3971173,3.53564328 3.03677932,3.5944334 2.63667992,3.70945754 C2.23658052,3.82703777 1.90357853,3.93439364 1.63518887,4.03408123 L1.99055666,2.52854303 C2.96222664,2.08122692 3.87922465,1.74382278 4.74652087,1.52144277 C5.61630219,1.29650667 6.34194831,1.18659472 6.92345924,1.18659472 C7.4527833,1.18659472 7.90506958,1.22749219 8.28280318,1.30417495 C8.65805169,1.38085771 9.05815109,1.54700369 9.47564612,1.80261289 C9.86332008,2.04544164 10.2012922,2.35472877 10.4870775,2.72536211 C10.7728628,3.09599546 11.0089463,3.60465777 11.1903579,4.24879296 C11.3245527,4.69355297 11.443837,5.15364953 11.5531809,5.62908265 C11.6625249,6.10962795 11.7544732,6.51860267 11.8315109,6.861119 C12.0576541,6.50582221 12.2937376,6.14030105 12.5347913,5.76199943 C12.7758449,5.38369781 12.9845924,5.05140585 13.1560636,4.76256745 C13.9885686,3.42061914 14.7316103,2.45697245 15.390159,1.87418347 C16.0462227,1.2888384 16.7892644,1 17.6192843,1 C18.2977137,1 18.8643141,1.23004828 19.3190855,1.69014485 C19.7738569,2.1527975 20,2.75092303 20,3.48196535 Z"></path>
                        </g>
                        <g id="colours/info" transform="translate(13.000000, 13.000000)" fill="#1FB6FF">
                            <g id="Info">
                                <rect x="0" y="0" width="20" height="20" rx="4"></rect>
                            </g>
                        </g>
                        <rect id="Rectangle" fill="#FFFFFF" opacity="0.4" x="17" y="17" width="12" height="12" rx="1"></rect>
                    </g>
                    <g id="lateral-cell" transform="translate(90.000000, 264.000000)">
                        <g id="Rectangle">
                            <use fill="black" fill-opacity="1" filter="url(#filter-4)" xlink:href="#path-3"></use>
                            <use fill="#FFFFFF" fill-rule="evenodd" xlink:href="#path-3"></use>
                        </g>
                        <rect id="Rectangle" fill="#C8D8E4" opacity="0.5" x="46" y="17" width="275" height="12" rx="2"></rect>
                        <g id="variable" transform="translate(341.000000, 13.000000)" fill="#000000">
                            <path d="M20,3.48196535 C20,4.44816813 19.7017893,5.21755183 19.1028827,5.78756035 C18.5039761,6.35756887 17.7733598,6.64385118 16.9110338,6.64385118 C16.3941352,6.64385118 15.8846918,6.57739279 15.3827038,6.444476 C14.8832008,6.31155922 14.4483101,6.17864243 14.0805169,6.04572565 C13.9090457,6.16841806 13.6555666,6.43425163 13.3225646,6.84578245 C12.9870775,7.25731326 12.611829,7.75575121 12.1893638,8.34365237 C12.5745527,10.0434536 12.887674,11.249929 13.1262425,11.9656348 C13.362326,12.6787844 13.5884692,13.4047146 13.8021869,14.138313 C13.9860835,14.721102 14.2569583,15.1786424 14.609841,15.5083783 C14.9676938,15.8381142 15.526839,16.0017041 16.2947316,16.0017041 C16.5755467,16.0017041 16.9259443,15.9480261 17.3459245,15.8355581 C17.7683897,15.7256461 18.1138171,15.6131781 18.3822068,15.5032661 L18.0243539,17.0088043 C16.9557654,17.4791252 16.0238569,17.8190855 15.2286282,18.028685 C14.4309145,18.2433968 13.7201789,18.3481965 13.0939364,18.3481965 C12.639165,18.3481965 12.194334,18.3021869 11.749503,18.2152798 C11.3071571,18.1258165 10.9020875,17.9647827 10.5392644,17.7321784 C10.1416501,17.4867935 9.80367793,17.1826186 9.527833,16.8196535 C9.25447316,16.4515763 9.01838966,15.9403579 8.82455268,15.2859983 C8.69284294,14.8770236 8.57355865,14.4092587 8.4666998,13.887816 C8.35735586,13.3663732 8.24801193,12.9037205 8.13866799,12.5049702 C7.82554672,12.9855155 7.59940358,13.3382562 7.46023857,13.5708606 C7.31858847,13.806021 7.11481113,14.1332008 6.84642147,14.554956 C5.99403579,15.8969043 5.25347913,16.8528827 4.62723658,17.4254473 C4.00099404,17.9980119 3.25049702,18.2817381 2.37823062,18.2817381 C1.71968191,18.2817381 1.16053678,18.054246 0.69582505,17.5992616 C0.23111332,17.1442772 0,16.5512638 0,15.8202215 C0,14.8310139 0.298210736,14.0539619 0.897117296,13.4788412 C1.49850895,12.9088327 2.22912525,12.6225504 3.09642147,12.6225504 C3.61332008,12.6225504 4.11033797,12.6864527 4.58747515,12.8142573 C5.06461233,12.9420619 5.51192843,13.082647 5.93190855,13.2385686 C6.09343936,13.1030957 6.34691849,12.8449304 6.68737575,12.4538483 C7.027833,12.0678784 7.39562624,11.5847771 7.79572565,11.0071003 C7.43538767,9.52201079 7.14463221,8.3998864 6.91600398,7.64583925 C6.68489066,6.8917921 6.45377734,6.14285714 6.21520875,5.39903437 C6.02137177,4.80602102 5.74055666,4.34592445 5.37276342,4.02385686 C5.00745527,3.69667708 4.45576541,3.53564328 3.72266402,3.53564328 C3.3971173,3.53564328 3.03677932,3.5944334 2.63667992,3.70945754 C2.23658052,3.82703777 1.90357853,3.93439364 1.63518887,4.03408123 L1.99055666,2.52854303 C2.96222664,2.08122692 3.87922465,1.74382278 4.74652087,1.52144277 C5.61630219,1.29650667 6.34194831,1.18659472 6.92345924,1.18659472 C7.4527833,1.18659472 7.90506958,1.22749219 8.28280318,1.30417495 C8.65805169,1.38085771 9.05815109,1.54700369 9.47564612,1.80261289 C9.86332008,2.04544164 10.2012922,2.35472877 10.4870775,2.72536211 C10.7728628,3.09599546 11.0089463,3.60465777 11.1903579,4.24879296 C11.3245527,4.69355297 11.443837,5.15364953 11.5531809,5.62908265 C11.6625249,6.10962795 11.7544732,6.51860267 11.8315109,6.861119 C12.0576541,6.50582221 12.2937376,6.14030105 12.5347913,5.76199943 C12.7758449,5.38369781 12.9845924,5.05140585 13.1560636,4.76256745 C13.9885686,3.42061914 14.7316103,2.45697245 15.390159,1.87418347 C16.0462227,1.2888384 16.7892644,1 17.6192843,1 C18.2977137,1 18.8643141,1.23004828 19.3190855,1.69014485 C19.7738569,2.1527975 20,2.75092303 20,3.48196535 Z"></path>
                        </g>
                        <g id="colours/info" transform="translate(13.000000, 13.000000)" fill="#FF6402">
                            <g id="Info">
                                <rect x="0" y="0" width="20" height="20" rx="4"></rect>
                            </g>
                        </g>
                        <rect id="Rectangle" fill="#FFFFFF" opacity="0.4" x="17" y="17" width="12" height="12" rx="1"></rect>
                    </g>
                    <g id="lateral-cell" transform="translate(40.000000, 198.000000)">
                        <g id="Rectangle">
                            <use fill="black" fill-opacity="1" filter="url(#filter-6)" xlink:href="#path-5"></use>
                            <use fill="#FFFFFF" fill-rule="evenodd" xlink:href="#path-5"></use>
                        </g>
                        <rect id="Rectangle" fill="#C8D8E4" opacity="0.5" x="46" y="17" width="239" height="12" rx="2"></rect>
                        <g id="variable" transform="translate(305.000000, 13.000000)" fill="#000000">
                            <path d="M20,3.48196535 C20,4.44816813 19.7017893,5.21755183 19.1028827,5.78756035 C18.5039761,6.35756887 17.7733598,6.64385118 16.9110338,6.64385118 C16.3941352,6.64385118 15.8846918,6.57739279 15.3827038,6.444476 C14.8832008,6.31155922 14.4483101,6.17864243 14.0805169,6.04572565 C13.9090457,6.16841806 13.6555666,6.43425163 13.3225646,6.84578245 C12.9870775,7.25731326 12.611829,7.75575121 12.1893638,8.34365237 C12.5745527,10.0434536 12.887674,11.249929 13.1262425,11.9656348 C13.362326,12.6787844 13.5884692,13.4047146 13.8021869,14.138313 C13.9860835,14.721102 14.2569583,15.1786424 14.609841,15.5083783 C14.9676938,15.8381142 15.526839,16.0017041 16.2947316,16.0017041 C16.5755467,16.0017041 16.9259443,15.9480261 17.3459245,15.8355581 C17.7683897,15.7256461 18.1138171,15.6131781 18.3822068,15.5032661 L18.0243539,17.0088043 C16.9557654,17.4791252 16.0238569,17.8190855 15.2286282,18.028685 C14.4309145,18.2433968 13.7201789,18.3481965 13.0939364,18.3481965 C12.639165,18.3481965 12.194334,18.3021869 11.749503,18.2152798 C11.3071571,18.1258165 10.9020875,17.9647827 10.5392644,17.7321784 C10.1416501,17.4867935 9.80367793,17.1826186 9.527833,16.8196535 C9.25447316,16.4515763 9.01838966,15.9403579 8.82455268,15.2859983 C8.69284294,14.8770236 8.57355865,14.4092587 8.4666998,13.887816 C8.35735586,13.3663732 8.24801193,12.9037205 8.13866799,12.5049702 C7.82554672,12.9855155 7.59940358,13.3382562 7.46023857,13.5708606 C7.31858847,13.806021 7.11481113,14.1332008 6.84642147,14.554956 C5.99403579,15.8969043 5.25347913,16.8528827 4.62723658,17.4254473 C4.00099404,17.9980119 3.25049702,18.2817381 2.37823062,18.2817381 C1.71968191,18.2817381 1.16053678,18.054246 0.69582505,17.5992616 C0.23111332,17.1442772 0,16.5512638 0,15.8202215 C0,14.8310139 0.298210736,14.0539619 0.897117296,13.4788412 C1.49850895,12.9088327 2.22912525,12.6225504 3.09642147,12.6225504 C3.61332008,12.6225504 4.11033797,12.6864527 4.58747515,12.8142573 C5.06461233,12.9420619 5.51192843,13.082647 5.93190855,13.2385686 C6.09343936,13.1030957 6.34691849,12.8449304 6.68737575,12.4538483 C7.027833,12.0678784 7.39562624,11.5847771 7.79572565,11.0071003 C7.43538767,9.52201079 7.14463221,8.3998864 6.91600398,7.64583925 C6.68489066,6.8917921 6.45377734,6.14285714 6.21520875,5.39903437 C6.02137177,4.80602102 5.74055666,4.34592445 5.37276342,4.02385686 C5.00745527,3.69667708 4.45576541,3.53564328 3.72266402,3.53564328 C3.3971173,3.53564328 3.03677932,3.5944334 2.63667992,3.70945754 C2.23658052,3.82703777 1.90357853,3.93439364 1.63518887,4.03408123 L1.99055666,2.52854303 C2.96222664,2.08122692 3.87922465,1.74382278 4.74652087,1.52144277 C5.61630219,1.29650667 6.34194831,1.18659472 6.92345924,1.18659472 C7.4527833,1.18659472 7.90506958,1.22749219 8.28280318,1.30417495 C8.65805169,1.38085771 9.05815109,1.54700369 9.47564612,1.80261289 C9.86332008,2.04544164 10.2012922,2.35472877 10.4870775,2.72536211 C10.7728628,3.09599546 11.0089463,3.60465777 11.1903579,4.24879296 C11.3245527,4.69355297 11.443837,5.15364953 11.5531809,5.62908265 C11.6625249,6.10962795 11.7544732,6.51860267 11.8315109,6.861119 C12.0576541,6.50582221 12.2937376,6.14030105 12.5347913,5.76199943 C12.7758449,5.38369781 12.9845924,5.05140585 13.1560636,4.76256745 C13.9885686,3.42061914 14.7316103,2.45697245 15.390159,1.87418347 C16.0462227,1.2888384 16.7892644,1 17.6192843,1 C18.2977137,1 18.8643141,1.23004828 19.3190855,1.69014485 C19.7738569,2.1527975 20,2.75092303 20,3.48196535 Z"></path>
                        </g>
                        <g id="colours/info" transform="translate(13.000000, 13.000000)" fill="#FED05B">
                            <g id="Info">
                                <rect x="0" y="0" width="20" height="20" rx="4"></rect>
                            </g>
                        </g>
                        <rect id="Rectangle" fill="#FFFFFF" opacity="0.4" x="17" y="17" width="12" height="12" rx="1"></rect>
                    </g>
                    <g id="lateral-cell" transform="translate(0.000000, 132.000000)">
                        <g id="Rectangle">
                            <use fill="black" fill-opacity="1" filter="url(#filter-8)" xlink:href="#path-7"></use>
                            <use fill="#FFFFFF" fill-rule="evenodd" xlink:href="#path-7"></use>
                        </g>
                        <rect id="Rectangle" fill="#C8D8E4" opacity="0.5" x="46" y="17" width="175" height="12" rx="2"></rect>
                        <g id="variable" transform="translate(241.000000, 13.000000)" fill="#000000">
                            <path d="M20,3.48196535 C20,4.44816813 19.7017893,5.21755183 19.1028827,5.78756035 C18.5039761,6.35756887 17.7733598,6.64385118 16.9110338,6.64385118 C16.3941352,6.64385118 15.8846918,6.57739279 15.3827038,6.444476 C14.8832008,6.31155922 14.4483101,6.17864243 14.0805169,6.04572565 C13.9090457,6.16841806 13.6555666,6.43425163 13.3225646,6.84578245 C12.9870775,7.25731326 12.611829,7.75575121 12.1893638,8.34365237 C12.5745527,10.0434536 12.887674,11.249929 13.1262425,11.9656348 C13.362326,12.6787844 13.5884692,13.4047146 13.8021869,14.138313 C13.9860835,14.721102 14.2569583,15.1786424 14.609841,15.5083783 C14.9676938,15.8381142 15.526839,16.0017041 16.2947316,16.0017041 C16.5755467,16.0017041 16.9259443,15.9480261 17.3459245,15.8355581 C17.7683897,15.7256461 18.1138171,15.6131781 18.3822068,15.5032661 L18.0243539,17.0088043 C16.9557654,17.4791252 16.0238569,17.8190855 15.2286282,18.028685 C14.4309145,18.2433968 13.7201789,18.3481965 13.0939364,18.3481965 C12.639165,18.3481965 12.194334,18.3021869 11.749503,18.2152798 C11.3071571,18.1258165 10.9020875,17.9647827 10.5392644,17.7321784 C10.1416501,17.4867935 9.80367793,17.1826186 9.527833,16.8196535 C9.25447316,16.4515763 9.01838966,15.9403579 8.82455268,15.2859983 C8.69284294,14.8770236 8.57355865,14.4092587 8.4666998,13.887816 C8.35735586,13.3663732 8.24801193,12.9037205 8.13866799,12.5049702 C7.82554672,12.9855155 7.59940358,13.3382562 7.46023857,13.5708606 C7.31858847,13.806021 7.11481113,14.1332008 6.84642147,14.554956 C5.99403579,15.8969043 5.25347913,16.8528827 4.62723658,17.4254473 C4.00099404,17.9980119 3.25049702,18.2817381 2.37823062,18.2817381 C1.71968191,18.2817381 1.16053678,18.054246 0.69582505,17.5992616 C0.23111332,17.1442772 0,16.5512638 0,15.8202215 C0,14.8310139 0.298210736,14.0539619 0.897117296,13.4788412 C1.49850895,12.9088327 2.22912525,12.6225504 3.09642147,12.6225504 C3.61332008,12.6225504 4.11033797,12.6864527 4.58747515,12.8142573 C5.06461233,12.9420619 5.51192843,13.082647 5.93190855,13.2385686 C6.09343936,13.1030957 6.34691849,12.8449304 6.68737575,12.4538483 C7.027833,12.0678784 7.39562624,11.5847771 7.79572565,11.0071003 C7.43538767,9.52201079 7.14463221,8.3998864 6.91600398,7.64583925 C6.68489066,6.8917921 6.45377734,6.14285714 6.21520875,5.39903437 C6.02137177,4.80602102 5.74055666,4.34592445 5.37276342,4.02385686 C5.00745527,3.69667708 4.45576541,3.53564328 3.72266402,3.53564328 C3.3971173,3.53564328 3.03677932,3.5944334 2.63667992,3.70945754 C2.23658052,3.82703777 1.90357853,3.93439364 1.63518887,4.03408123 L1.99055666,2.52854303 C2.96222664,2.08122692 3.87922465,1.74382278 4.74652087,1.52144277 C5.61630219,1.29650667 6.34194831,1.18659472 6.92345924,1.18659472 C7.4527833,1.18659472 7.90506958,1.22749219 8.28280318,1.30417495 C8.65805169,1.38085771 9.05815109,1.54700369 9.47564612,1.80261289 C9.86332008,2.04544164 10.2012922,2.35472877 10.4870775,2.72536211 C10.7728628,3.09599546 11.0089463,3.60465777 11.1903579,4.24879296 C11.3245527,4.69355297 11.443837,5.15364953 11.5531809,5.62908265 C11.6625249,6.10962795 11.7544732,6.51860267 11.8315109,6.861119 C12.0576541,6.50582221 12.2937376,6.14030105 12.5347913,5.76199943 C12.7758449,5.38369781 12.9845924,5.05140585 13.1560636,4.76256745 C13.9885686,3.42061914 14.7316103,2.45697245 15.390159,1.87418347 C16.0462227,1.2888384 16.7892644,1 17.6192843,1 C18.2977137,1 18.8643141,1.23004828 19.3190855,1.69014485 C19.7738569,2.1527975 20,2.75092303 20,3.48196535 Z"></path>
                        </g>
                        <g id="colours/info" transform="translate(13.000000, 13.000000)" fill="#FC459E">
                            <g id="Info">
                                <rect x="0" y="0" width="20" height="20" rx="4"></rect>
                            </g>
                        </g>
                        <rect id="Rectangle" fill="#FFFFFF" opacity="0.4" x="17" y="17" width="12" height="12" rx="1"></rect>
                    </g>
                    <g id="lateral-cell" transform="translate(80.000000, 66.000000)">
                        <g id="Rectangle">
                            <use fill="black" fill-opacity="1" filter="url(#filter-10)" xlink:href="#path-9"></use>
                            <use fill="#FFFFFF" fill-rule="evenodd" xlink:href="#path-9"></use>
                        </g>
                        <rect id="Rectangle" fill="#C8D8E4" opacity="0.5" x="46" y="17" width="201" height="12" rx="2"></rect>
                        <g id="variable" transform="translate(267.000000, 13.000000)" fill="#000000">
                            <path d="M20,3.48196535 C20,4.44816813 19.7017893,5.21755183 19.1028827,5.78756035 C18.5039761,6.35756887 17.7733598,6.64385118 16.9110338,6.64385118 C16.3941352,6.64385118 15.8846918,6.57739279 15.3827038,6.444476 C14.8832008,6.31155922 14.4483101,6.17864243 14.0805169,6.04572565 C13.9090457,6.16841806 13.6555666,6.43425163 13.3225646,6.84578245 C12.9870775,7.25731326 12.611829,7.75575121 12.1893638,8.34365237 C12.5745527,10.0434536 12.887674,11.249929 13.1262425,11.9656348 C13.362326,12.6787844 13.5884692,13.4047146 13.8021869,14.138313 C13.9860835,14.721102 14.2569583,15.1786424 14.609841,15.5083783 C14.9676938,15.8381142 15.526839,16.0017041 16.2947316,16.0017041 C16.5755467,16.0017041 16.9259443,15.9480261 17.3459245,15.8355581 C17.7683897,15.7256461 18.1138171,15.6131781 18.3822068,15.5032661 L18.0243539,17.0088043 C16.9557654,17.4791252 16.0238569,17.8190855 15.2286282,18.028685 C14.4309145,18.2433968 13.7201789,18.3481965 13.0939364,18.3481965 C12.639165,18.3481965 12.194334,18.3021869 11.749503,18.2152798 C11.3071571,18.1258165 10.9020875,17.9647827 10.5392644,17.7321784 C10.1416501,17.4867935 9.80367793,17.1826186 9.527833,16.8196535 C9.25447316,16.4515763 9.01838966,15.9403579 8.82455268,15.2859983 C8.69284294,14.8770236 8.57355865,14.4092587 8.4666998,13.887816 C8.35735586,13.3663732 8.24801193,12.9037205 8.13866799,12.5049702 C7.82554672,12.9855155 7.59940358,13.3382562 7.46023857,13.5708606 C7.31858847,13.806021 7.11481113,14.1332008 6.84642147,14.554956 C5.99403579,15.8969043 5.25347913,16.8528827 4.62723658,17.4254473 C4.00099404,17.9980119 3.25049702,18.2817381 2.37823062,18.2817381 C1.71968191,18.2817381 1.16053678,18.054246 0.69582505,17.5992616 C0.23111332,17.1442772 0,16.5512638 0,15.8202215 C0,14.8310139 0.298210736,14.0539619 0.897117296,13.4788412 C1.49850895,12.9088327 2.22912525,12.6225504 3.09642147,12.6225504 C3.61332008,12.6225504 4.11033797,12.6864527 4.58747515,12.8142573 C5.06461233,12.9420619 5.51192843,13.082647 5.93190855,13.2385686 C6.09343936,13.1030957 6.34691849,12.8449304 6.68737575,12.4538483 C7.027833,12.0678784 7.39562624,11.5847771 7.79572565,11.0071003 C7.43538767,9.52201079 7.14463221,8.3998864 6.91600398,7.64583925 C6.68489066,6.8917921 6.45377734,6.14285714 6.21520875,5.39903437 C6.02137177,4.80602102 5.74055666,4.34592445 5.37276342,4.02385686 C5.00745527,3.69667708 4.45576541,3.53564328 3.72266402,3.53564328 C3.3971173,3.53564328 3.03677932,3.5944334 2.63667992,3.70945754 C2.23658052,3.82703777 1.90357853,3.93439364 1.63518887,4.03408123 L1.99055666,2.52854303 C2.96222664,2.08122692 3.87922465,1.74382278 4.74652087,1.52144277 C5.61630219,1.29650667 6.34194831,1.18659472 6.92345924,1.18659472 C7.4527833,1.18659472 7.90506958,1.22749219 8.28280318,1.30417495 C8.65805169,1.38085771 9.05815109,1.54700369 9.47564612,1.80261289 C9.86332008,2.04544164 10.2012922,2.35472877 10.4870775,2.72536211 C10.7728628,3.09599546 11.0089463,3.60465777 11.1903579,4.24879296 C11.3245527,4.69355297 11.443837,5.15364953 11.5531809,5.62908265 C11.6625249,6.10962795 11.7544732,6.51860267 11.8315109,6.861119 C12.0576541,6.50582221 12.2937376,6.14030105 12.5347913,5.76199943 C12.7758449,5.38369781 12.9845924,5.05140585 13.1560636,4.76256745 C13.9885686,3.42061914 14.7316103,2.45697245 15.390159,1.87418347 C16.0462227,1.2888384 16.7892644,1 17.6192843,1 C18.2977137,1 18.8643141,1.23004828 19.3190855,1.69014485 C19.7738569,2.1527975 20,2.75092303 20,3.48196535 Z"></path>
                        </g>
                        <g id="colours/info" transform="translate(13.000000, 13.000000)" fill="#845CFF">
                            <g id="Info">
                                <rect x="0" y="0" width="20" height="20" rx="4"></rect>
                            </g>
                        </g>
                        <rect id="Rectangle" fill="#FFFFFF" opacity="0.4" x="17" y="17" width="12" height="12" rx="1"></rect>
                    </g>
                    <g id="lateral-cell" transform="translate(40.000000, 0.000000)">
                        <g id="Rectangle">
                            <use fill="black" fill-opacity="1" filter="url(#filter-12)" xlink:href="#path-11"></use>
                            <use fill="#FFFFFF" fill-rule="evenodd" xlink:href="#path-11"></use>
                        </g>
                        <g id="variable" transform="translate(316.000000, 13.000000)" fill="#000000">
                            <path d="M20,3.48196535 C20,4.44816813 19.7017893,5.21755183 19.1028827,5.78756035 C18.5039761,6.35756887 17.7733598,6.64385118 16.9110338,6.64385118 C16.3941352,6.64385118 15.8846918,6.57739279 15.3827038,6.444476 C14.8832008,6.31155922 14.4483101,6.17864243 14.0805169,6.04572565 C13.9090457,6.16841806 13.6555666,6.43425163 13.3225646,6.84578245 C12.9870775,7.25731326 12.611829,7.75575121 12.1893638,8.34365237 C12.5745527,10.0434536 12.887674,11.249929 13.1262425,11.9656348 C13.362326,12.6787844 13.5884692,13.4047146 13.8021869,14.138313 C13.9860835,14.721102 14.2569583,15.1786424 14.609841,15.5083783 C14.9676938,15.8381142 15.526839,16.0017041 16.2947316,16.0017041 C16.5755467,16.0017041 16.9259443,15.9480261 17.3459245,15.8355581 C17.7683897,15.7256461 18.1138171,15.6131781 18.3822068,15.5032661 L18.0243539,17.0088043 C16.9557654,17.4791252 16.0238569,17.8190855 15.2286282,18.028685 C14.4309145,18.2433968 13.7201789,18.3481965 13.0939364,18.3481965 C12.639165,18.3481965 12.194334,18.3021869 11.749503,18.2152798 C11.3071571,18.1258165 10.9020875,17.9647827 10.5392644,17.7321784 C10.1416501,17.4867935 9.80367793,17.1826186 9.527833,16.8196535 C9.25447316,16.4515763 9.01838966,15.9403579 8.82455268,15.2859983 C8.69284294,14.8770236 8.57355865,14.4092587 8.4666998,13.887816 C8.35735586,13.3663732 8.24801193,12.9037205 8.13866799,12.5049702 C7.82554672,12.9855155 7.59940358,13.3382562 7.46023857,13.5708606 C7.31858847,13.806021 7.11481113,14.1332008 6.84642147,14.554956 C5.99403579,15.8969043 5.25347913,16.8528827 4.62723658,17.4254473 C4.00099404,17.9980119 3.25049702,18.2817381 2.37823062,18.2817381 C1.71968191,18.2817381 1.16053678,18.054246 0.69582505,17.5992616 C0.23111332,17.1442772 0,16.5512638 0,15.8202215 C0,14.8310139 0.298210736,14.0539619 0.897117296,13.4788412 C1.49850895,12.9088327 2.22912525,12.6225504 3.09642147,12.6225504 C3.61332008,12.6225504 4.11033797,12.6864527 4.58747515,12.8142573 C5.06461233,12.9420619 5.51192843,13.082647 5.93190855,13.2385686 C6.09343936,13.1030957 6.34691849,12.8449304 6.68737575,12.4538483 C7.027833,12.0678784 7.39562624,11.5847771 7.79572565,11.0071003 C7.43538767,9.52201079 7.14463221,8.3998864 6.91600398,7.64583925 C6.68489066,6.8917921 6.45377734,6.14285714 6.21520875,5.39903437 C6.02137177,4.80602102 5.74055666,4.34592445 5.37276342,4.02385686 C5.00745527,3.69667708 4.45576541,3.53564328 3.72266402,3.53564328 C3.3971173,3.53564328 3.03677932,3.5944334 2.63667992,3.70945754 C2.23658052,3.82703777 1.90357853,3.93439364 1.63518887,4.03408123 L1.99055666,2.52854303 C2.96222664,2.08122692 3.87922465,1.74382278 4.74652087,1.52144277 C5.61630219,1.29650667 6.34194831,1.18659472 6.92345924,1.18659472 C7.4527833,1.18659472 7.90506958,1.22749219 8.28280318,1.30417495 C8.65805169,1.38085771 9.05815109,1.54700369 9.47564612,1.80261289 C9.86332008,2.04544164 10.2012922,2.35472877 10.4870775,2.72536211 C10.7728628,3.09599546 11.0089463,3.60465777 11.1903579,4.24879296 C11.3245527,4.69355297 11.443837,5.15364953 11.5531809,5.62908265 C11.6625249,6.10962795 11.7544732,6.51860267 11.8315109,6.861119 C12.0576541,6.50582221 12.2937376,6.14030105 12.5347913,5.76199943 C12.7758449,5.38369781 12.9845924,5.05140585 13.1560636,4.76256745 C13.9885686,3.42061914 14.7316103,2.45697245 15.390159,1.87418347 C16.0462227,1.2888384 16.7892644,1 17.6192843,1 C18.2977137,1 18.8643141,1.23004828 19.3190855,1.69014485 C19.7738569,2.1527975 20,2.75092303 20,3.48196535 Z"></path>
                        </g>
                        <rect id="Rectangle" fill="#C8D8E4" opacity="0.5" x="46" y="17" width="250" height="12" rx="2"></rect>
                        <g id="colours/info" transform="translate(13.000000, 13.000000)" fill="#2B3648">
                            <g id="Info">
                                <rect x="0" y="0" width="20" height="20" rx="4"></rect>
                            </g>
                        </g>
                        <rect id="Rectangle" fill="#FFFFFF" opacity="0.4" x="17" y="17" width="12" height="12" rx="1"></rect>
                    </g>
                </g>
                <g id="Group-2" transform="translate(510.000000, 20.000000)">
                    <g id="bg">
                        <use fill="black" fill-opacity="1" filter="url(#filter-14)" xlink:href="#path-13"></use>
                        <use fill="#FFFFFF" fill-rule="evenodd" xlink:href="#path-13"></use>
                    </g>
                    <rect id="Rectangle" fill="#C8D8E4" opacity="0.5" x="16" y="20" width="83" height="12" rx="2"></rect>
                    <rect id="Rectangle" fill="#C8D8E4" opacity="0.197544643" x="16" y="42" width="50" height="12" rx="2"></rect>
                </g>
                <g id="Group-2" transform="translate(360.000000, 20.000000)">
                    <g id="bg">
                        <use fill="black" fill-opacity="1" filter="url(#filter-16)" xlink:href="#path-15"></use>
                        <use fill="#FFFFFF" fill-rule="evenodd" xlink:href="#path-15"></use>
                    </g>
                    <rect id="Rectangle" fill="#C8D8E4" opacity="0.5" x="16" y="20" width="83" height="12" rx="2"></rect>
                    <rect id="Rectangle" fill="#C8D8E4" opacity="0.197544643" x="16" y="42" width="50" height="12" rx="2"></rect>
                </g>
                <g id="Group-2" transform="translate(210.000000, 20.000000)">
                    <g id="bg">
                        <use fill="black" fill-opacity="1" filter="url(#filter-18)" xlink:href="#path-17"></use>
                        <use fill="#FFFFFF" fill-rule="evenodd" xlink:href="#path-17"></use>
                    </g>
                    <rect id="Rectangle" fill="#C8D8E4" opacity="0.5" x="16" y="20" width="83" height="12" rx="2"></rect>
                    <rect id="Rectangle" fill="#C8D8E4" opacity="0.197544643" x="16" y="42" width="50" height="12" rx="2"></rect>
                </g>
                <g id="Group-2" transform="translate(60.000000, 20.000000)">
                    <g id="bg">
                        <use fill="black" fill-opacity="1" filter="url(#filter-20)" xlink:href="#path-19"></use>
                        <use fill="#FFFFFF" fill-rule="evenodd" xlink:href="#path-19"></use>
                    </g>
                    <rect id="Rectangle" fill="#C8D8E4" opacity="0.5" x="16" y="20" width="83" height="12" rx="2"></rect>
                    <rect id="Rectangle" fill="#C8D8E4" opacity="0.197544643" x="16" y="42" width="50" height="12" rx="2"></rect>
                </g>
            </g>
        </g>
    </g>
</svg>