<?xml version="1.0" encoding="UTF-8"?>
<svg width="322px" height="209px" viewBox="0 0 322 209" version="1.1" xmlns="http://www.w3.org/2000/svg" xmlns:xlink="http://www.w3.org/1999/xlink">
    <!-- Generator: Sketch 53.2 (72643) - https://sketchapp.com -->
    <title>Illustration</title>
    <desc>Created with Sketch.</desc>
    <defs>
        <linearGradient x1="50%" y1="0%" x2="50%" y2="100%" id="linearGradient-1">
            <stop stop-color="#FFFFFF" offset="0%"></stop>
            <stop stop-color="#FFFFFF" stop-opacity="0.941176471" offset="5.72157434%"></stop>
            <stop stop-color="#FFFFFF" stop-opacity="0.878431373" offset="12.0991254%"></stop>
            <stop stop-color="#FFFFFF" stop-opacity="0.807843137" offset="19.0233236%"></stop>
            <stop stop-color="#FFFFFF" stop-opacity="0.737254902" offset="26.3848397%"></stop>
            <stop stop-color="#FFFFFF" stop-opacity="0.658823529" offset="34.074344%"></stop>
            <stop stop-color="#FFFFFF" stop-opacity="0.580392157" offset="41.9825073%"></stop>
            <stop stop-color="#FFFFFF" stop-opacity="0.501960784" offset="50%"></stop>
            <stop stop-color="#FFFFFF" stop-opacity="0.419607843" offset="58.0174927%"></stop>
            <stop stop-color="#FFFFFF" stop-opacity="0.341176471" offset="65.925656%"></stop>
            <stop stop-color="#FFFFFF" stop-opacity="0.262745098" offset="73.6151603%"></stop>
            <stop stop-color="#FFFFFF" stop-opacity="0.192156863" offset="80.9766764%"></stop>
            <stop stop-color="#FFFFFF" stop-opacity="0.121568627" offset="87.9008746%"></stop>
            <stop stop-color="#FFFFFF" stop-opacity="0.0588235294" offset="94.2784257%"></stop>
            <stop stop-color="#FFFFFF" stop-opacity="0" offset="100%"></stop>
        </linearGradient>
        <filter x="-33.3%" y="-46.0%" width="166.7%" height="194.0%" filterUnits="objectBoundingBox" id="filter-2">
            <feOffset dx="0" dy="3" in="SourceAlpha" result="shadowOffsetOuter1"></feOffset>
            <feGaussianBlur stdDeviation="4.5" in="shadowOffsetOuter1" result="shadowBlurOuter1"></feGaussianBlur>
            <feColorMatrix values="0 0 0 0 0.156862745   0 0 0 0 0.184313725   0 0 0 0 0.211764706  0 0 0 0.120820586 0" type="matrix" in="shadowBlurOuter1" result="shadowMatrixOuter1"></feColorMatrix>
            <feMerge>
                <feMergeNode in="shadowMatrixOuter1"></feMergeNode>
                <feMergeNode in="SourceGraphic"></feMergeNode>
            </feMerge>
        </filter>
        <rect id="path-3" x="0" y="0" width="104.448383" height="23.5508656" rx="1.97938144"></rect>
        <filter x="-11.0%" y="-40.3%" width="122.0%" height="197.7%" filterUnits="objectBoundingBox" id="filter-4">
            <feOffset dx="0" dy="2" in="SourceAlpha" result="shadowOffsetOuter1"></feOffset>
            <feGaussianBlur stdDeviation="3.5" in="shadowOffsetOuter1" result="shadowBlurOuter1"></feGaussianBlur>
            <feColorMatrix values="0 0 0 0 0.156862745   0 0 0 0 0.184313725   0 0 0 0 0.211764706  0 0 0 0.120820586 0" type="matrix" in="shadowBlurOuter1"></feColorMatrix>
        </filter>
        <rect id="path-5" x="0" y="0" width="104.448383" height="23.5508656" rx="1.97938144"></rect>
        <filter x="-11.0%" y="-40.3%" width="122.0%" height="197.7%" filterUnits="objectBoundingBox" id="filter-6">
            <feOffset dx="0" dy="2" in="SourceAlpha" result="shadowOffsetOuter1"></feOffset>
            <feGaussianBlur stdDeviation="3.5" in="shadowOffsetOuter1" result="shadowBlurOuter1"></feGaussianBlur>
            <feColorMatrix values="0 0 0 0 0.156862745   0 0 0 0 0.184313725   0 0 0 0 0.211764706  0 0 0 0.120820586 0" type="matrix" in="shadowBlurOuter1"></feColorMatrix>
        </filter>
        <rect id="path-7" x="0" y="0" width="104.448383" height="23.5508656" rx="1.97938144"></rect>
        <filter x="-11.0%" y="-40.3%" width="122.0%" height="197.7%" filterUnits="objectBoundingBox" id="filter-8">
            <feOffset dx="0" dy="2" in="SourceAlpha" result="shadowOffsetOuter1"></feOffset>
            <feGaussianBlur stdDeviation="3.5" in="shadowOffsetOuter1" result="shadowBlurOuter1"></feGaussianBlur>
            <feColorMatrix values="0 0 0 0 0.156862745   0 0 0 0 0.184313725   0 0 0 0 0.211764706  0 0 0 0.120820586 0" type="matrix" in="shadowBlurOuter1"></feColorMatrix>
        </filter>
    </defs>
    <g id="Admin" stroke="none" stroke-width="1" fill="none" fill-rule="evenodd">
        <g id="Create-Campaign---step-1" transform="translate(-559.000000, -197.000000)">
            <g id="Views/Action-Sheet" transform="translate(400.000000, 68.000000)">
                <g id="modal">
                    <g id="Header" transform="translate(0.000000, 48.000000)">
                        <g id="Illustration" transform="translate(159.000000, 81.000000)">
                            <path d="M10,0 L312,0 C317.522847,-1.01453063e-15 322,4.4771525 322,10 L322,209 L0,209 L0,10 C-6.76353751e-16,4.4771525 4.4771525,1.01453063e-15 10,0 Z" id="Rectangle-🌈linear;lrgb;15" fill="url(#linearGradient-1)" opacity="0.223144531"></path>
                            <g id="Group" transform="translate(34.000000, 31.000000)">
                                <g id="Illustration/images2" transform="translate(165.000000, 103.000000)">
                                    <g id="Group-2" filter="url(#filter-2)">
                                        <g id="Image" opacity="0.803036644" transform="translate(16.724458, 13.157895)">
                                            <path d="M26.5685873,28.9000211 C26.5665928,28.9050741 26.5645983,28.910127 26.5616066,28.9161906 C26.5645983,28.9111376 26.5685873,28.8909258 26.5685873,28.9000211" id="Fill-35" fill="#C5CFD6"></path>
                                            <path d="M26.5639434,28.9077003 C26.5639434,28.9087109 26.5629461,28.9107321 26.5629461,28.9127532 C26.5629461,28.9077003 26.5719212,28.8925414 26.5639434,28.9077003" id="Fill-37" fill="#C5CFD6"></path>
                                            <path d="M26.5985755,28.8222076 C26.5915949,28.8424194 26.5826198,28.8616206 26.574642,28.8818325 C26.5786309,28.8717265 26.5826198,28.8636418 26.5866087,28.8535359 C26.4828968,29.1162896 26.548714,28.9454997 26.5985755,28.8222076" id="Fill-39" fill="#C5CFD6"></path>
                                            <path d="M26.5762535,28.8830696 C26.5722646,28.8921649 26.5682757,28.9022708 26.5642868,28.9113661 C26.5353671,28.9679592 26.5762535,28.8830696 26.5762535,28.8830696" id="Fill-41" fill="#C5CFD6"></path>
                                            <polygon id="Fill-43" fill="#C5CFD6" points="26.565097 28.9074501 26.565097 28.9074501 26.565097 28.9064395"></polygon>
                                            <path d="M26.5645983,28.9079554 C26.5645983,28.9069448 26.5645983,28.9069448 26.5655956,28.9059342 C26.5645983,28.9069448 26.5645983,28.9069448 26.5645983,28.9079554" id="Fill-45" fill="#C5CFD6"></path>
                                            <path d="M26.5598673,28.9152068 C26.553884,28.9273339 26.5877898,28.8687196 26.5598673,28.9152068" id="Fill-47" fill="#C5CFD6"></path>
                                            <path d="M26.5640997,28.9079554 L26.5660942,28.9059342 C26.565097,28.9069448 26.565097,28.9079554 26.5640997,28.9079554" id="Fill-49" fill="#C5CFD6"></path>
                                            <rect id="Photo-Background" fill="#FFFFFF" opacity="0.5" x="13.1578947" y="11.8421053" width="38.1578947" height="25" rx="1.60401003"></rect>
                                            <rect id="Photo-Background" fill="#FFFFFF" opacity="0.8" x="0" y="0" width="47.3684211" height="31.8336163" rx="2.00501253"></rect>
                                        </g>
                                        <g id="Image" transform="translate(0.953560, 0.000000)">
                                            <path d="M29.9212604,32.5728683 C29.9187673,32.579134 29.9162742,32.5853996 29.9125346,32.5929184 C29.9162742,32.5866528 29.9212604,32.5615901 29.9212604,32.5728683" id="Fill-35" fill="#C5CFD6"></path>
                                            <path d="M29.9154555,32.5823905 C29.9154555,32.5836436 29.914209,32.5861499 29.914209,32.5886561 C29.914209,32.5823905 29.9254278,32.5635935 29.9154555,32.5823905" id="Fill-37" fill="#C5CFD6"></path>
                                            <path d="M29.9587457,32.4763795 C29.9500199,32.5014422 29.9388011,32.5252517 29.9288288,32.5503144 C29.9338149,32.537783 29.9388011,32.527758 29.9437872,32.5152266 C29.8141473,32.8410412 29.8964188,32.6292617 29.9587457,32.4763795" id="Fill-39" fill="#C5CFD6"></path>
                                            <path d="M29.9308432,32.5518484 C29.9258571,32.5631266 29.9208709,32.5756579 29.9158848,32.5869361 C29.8797352,32.6571115 29.9308432,32.5518484 29.9308432,32.5518484" id="Fill-41" fill="#C5CFD6"></path>
                                            <polygon id="Fill-43" fill="#C5CFD6" points="29.9168975 32.5820802 29.9168975 32.5820802 29.9168975 32.5808271"></polygon>
                                            <path d="M29.9162742,32.5827068 C29.9162742,32.5814536 29.9162742,32.5814536 29.9175208,32.5802005 C29.9162742,32.5814536 29.9162742,32.5814536 29.9162742,32.5827068" id="Fill-45" fill="#C5CFD6"></path>
                                            <path d="M29.9103605,32.5916986 C29.9028813,32.6067362 29.9452635,32.5340545 29.9103605,32.5916986" id="Fill-47" fill="#C5CFD6"></path>
                                            <path d="M29.915651,32.5827068 L29.918144,32.5802005 C29.9168975,32.5814536 29.9168975,32.5827068 29.915651,32.5827068" id="Fill-49" fill="#C5CFD6"></path>
                                            <rect id="Photo-Background" fill="#FFFFFF" x="0" y="0" width="59.2105263" height="39.4736842" rx="2.50626566"></rect>
                                            <g id="icons8-night_landscape" transform="translate(4.986150, 11.278195)" fill="#E3EBF1">
                                                <polygon id="Mountains" points="17.4515235 0 0 28.1954887 34.9030471 28.1954887"></polygon>
                                                <polygon id="Mountains" opacity="0.7" points="34.5914127 7.51879699 19.3213296 28.1954887 49.8614958 28.1954887"></polygon>
                                            </g>
                                            <ellipse id="Sun" fill="#E3EBF1" cx="46.1218837" cy="13.1578947" rx="5.60941828" ry="5.63909774"></ellipse>
                                        </g>
                                    </g>
                                </g>
                                <g id="illustration/blocks">
                                    <g>
                                        <g id="Group-4" transform="translate(32.989691, 56.082474)">
                                            <g id="Rectangle">
                                                <use fill="black" fill-opacity="1" filter="url(#filter-4)" xlink:href="#path-3"></use>
                                                <use fill="#FFFFFF" fill-rule="evenodd" xlink:href="#path-3"></use>
                                            </g>
                                            <rect id="Info" fill="#DADFEA" x="5.83510521" y="5.8877164" width="11.6702104" height="11.7754328" rx="1.48453608"></rect>
                                            <rect id="Rectangle" fill="#C8D8E4" opacity="0.5" x="23.3404208" y="8.8315746" width="75.8762887" height="5.8877164" rx="0.989690722"></rect>
                                            <rect id="Rectangle-Copy" fill="#FFFFFF" opacity="0.4" x="8.75265781" y="8.8315746" width="5.83510521" height="5.8877164" rx="0.494845361"></rect>
                                        </g>
                                        <g id="Group-4-Copy" transform="translate(0.000000, 28.041237)">
                                            <g id="Rectangle">
                                                <use fill="black" fill-opacity="1" filter="url(#filter-6)" xlink:href="#path-5"></use>
                                                <use fill="#FFFFFF" fill-rule="evenodd" xlink:href="#path-5"></use>
                                            </g>
                                            <rect id="Info" fill="#CBD9F2" x="5.83510521" y="5.8877164" width="11.6702104" height="11.7754328" rx="1.48453608"></rect>
                                            <rect id="Rectangle" fill="#C8D8E4" opacity="0.5" x="23.3404208" y="8.8315746" width="73.4020619" height="5.8877164" rx="0.989690722"></rect>
                                            <rect id="Rectangle-Copy" fill="#FFFFFF" opacity="0.4" x="8.75265781" y="8.8315746" width="5.83510521" height="5.8877164" rx="0.494845361"></rect>
                                        </g>
                                        <g id="Group-4-Copy-2" transform="translate(24.742268, 0.000000)">
                                            <g id="Rectangle">
                                                <use fill="black" fill-opacity="1" filter="url(#filter-8)" xlink:href="#path-7"></use>
                                                <use fill="#FFFFFF" fill-rule="evenodd" xlink:href="#path-7"></use>
                                            </g>
                                            <rect id="Info" fill="#CBD9F2" x="5.83510521" y="5.8877164" width="11.6702104" height="11.7754328" rx="1.48453608"></rect>
                                            <rect id="Rectangle" fill="#C8D8E4" opacity="0.5" x="23.3404208" y="8.8315746" width="75.8762887" height="5.8877164" rx="0.989690722"></rect>
                                            <rect id="Rectangle-Copy" fill="#FFFFFF" opacity="0.4" x="8.75265781" y="8.8315746" width="5.83510521" height="5.8877164" rx="0.494845361"></rect>
                                        </g>
                                    </g>
                                </g>
                                <g id="Illustration/chart1" transform="translate(53.000000, 103.000000)" fill="#FFFFFF">
                                    <g id="Graph">
                                        <rect id="Value" opacity="0.2" x="0" y="28.0701754" width="5.26315789" height="21.9298246" rx="2.63157895"></rect>
                                        <rect id="Value" opacity="0.4" x="12.2807018" y="14.0350877" width="5.26315789" height="35.9649123" rx="2.63157895"></rect>
                                        <rect id="Value" opacity="0.6" x="24.5614035" y="7.01754386" width="5.26315789" height="42.9824561" rx="2.63157895"></rect>
                                        <rect id="Value" opacity="0.8" x="36.8421053" y="14.0350877" width="5.26315789" height="35.9649123" rx="2.63157895"></rect>
                                        <rect id="Value" x="49.122807" y="0" width="5.26315789" height="50" rx="2.63157895"></rect>
                                    </g>
                                </g>
                                <g id="Illustration/chart2" transform="translate(182.000000, 4.000000)" fill="#FFFFFF">
                                    <g id="Chart">
                                        <path d="M45.7555343,44.6148 C43.4274677,47.0628 40.1295251,48.6 36.4614984,48.6 C29.4134908,48.6 23.699974,42.9588 23.699974,36 C23.699974,29.0412 29.4134908,23.4 36.4614984,23.4 L36.4614984,0 C16.4113204,0 0,16.2036 0,36 C0,55.7964 16.4113204,72 36.4614984,72 C46.9934022,72 56.5116764,67.6008 63,60.6024 L45.7555343,44.6148 Z" id="Value"></path>
                                        <path d="M36,0 L36,23.4 C42.9588,23.4 48.6,29.0412 48.6,36 L72,36 C72,16.2036 55.7964,0 36,0 Z" id="Value" opacity="0.8"></path>
                                        <path d="M48.7797908,36 C48.7797908,39.974814 46.9078847,43.5079819 44,45.789226 L58.3054351,64 C66.6325593,57.4803791 72,47.3741652 72,36 L48.7797908,36 Z" id="Value" opacity="0.6"></path>
                                    </g>
                                </g>
                            </g>
                        </g>
                    </g>
                </g>
            </g>
        </g>
    </g>
</svg>