<?xml version="1.0" encoding="UTF-8"?>
<svg width="400px" height="242px" viewBox="0 0 400 242" version="1.1" xmlns="http://www.w3.org/2000/svg" xmlns:xlink="http://www.w3.org/1999/xlink">
    <!-- Generator: Sketch 53.2 (72643) - https://sketchapp.com -->
    <title>create_store_manager</title>
    <desc>Created with Sketch.</desc>
    <defs>
        <linearGradient x1="50%" y1="0%" x2="50%" y2="100%" id="linearGradient-1">
            <stop stop-color="#FFFFFF" offset="0%"></stop>
            <stop stop-color="#FFFFFF" stop-opacity="0.941176471" offset="5.72157434%"></stop>
            <stop stop-color="#FFFFFF" stop-opacity="0.878431373" offset="12.0991254%"></stop>
            <stop stop-color="#FFFFFF" stop-opacity="0.807843137" offset="19.0233236%"></stop>
            <stop stop-color="#FFFFFF" stop-opacity="0.737254902" offset="26.3848397%"></stop>
            <stop stop-color="#FFFFFF" stop-opacity="0.658823529" offset="34.074344%"></stop>
            <stop stop-color="#FFFFFF" stop-opacity="0.580392157" offset="41.9825073%"></stop>
            <stop stop-color="#FFFFFF" stop-opacity="0.501960784" offset="50%"></stop>
            <stop stop-color="#FFFFFF" stop-opacity="0.419607843" offset="58.0174927%"></stop>
            <stop stop-color="#FFFFFF" stop-opacity="0.341176471" offset="65.925656%"></stop>
            <stop stop-color="#FFFFFF" stop-opacity="0.262745098" offset="73.6151603%"></stop>
            <stop stop-color="#FFFFFF" stop-opacity="0.192156863" offset="80.9766764%"></stop>
            <stop stop-color="#FFFFFF" stop-opacity="0.121568627" offset="87.9008746%"></stop>
            <stop stop-color="#FFFFFF" stop-opacity="0.0588235294" offset="94.2784257%"></stop>
            <stop stop-color="#FFFFFF" stop-opacity="0" offset="100%"></stop>
        </linearGradient>
        <polygon id="path-2" points="0.0163636364 0.194273237 120.185714 0.194273237 120.185714 137.696293 0.0163636364 137.696293"></polygon>
        <linearGradient x1="50%" y1="0%" x2="50%" y2="100%" id="linearGradient-4">
            <stop stop-color="#FFFFFF" offset="0%"></stop>
            <stop stop-color="#FFFFFF" stop-opacity="0.941176471" offset="5.72157434%"></stop>
            <stop stop-color="#FFFFFF" stop-opacity="0.878431373" offset="12.0991254%"></stop>
            <stop stop-color="#FFFFFF" stop-opacity="0.807843137" offset="19.0233236%"></stop>
            <stop stop-color="#FFFFFF" stop-opacity="0.737254902" offset="26.3848397%"></stop>
            <stop stop-color="#FFFFFF" stop-opacity="0.658823529" offset="34.074344%"></stop>
            <stop stop-color="#FFFFFF" stop-opacity="0.580392157" offset="41.9825073%"></stop>
            <stop stop-color="#FFFFFF" stop-opacity="0.501960784" offset="50%"></stop>
            <stop stop-color="#FFFFFF" stop-opacity="0.419607843" offset="58.0174927%"></stop>
            <stop stop-color="#FFFFFF" stop-opacity="0.341176471" offset="65.925656%"></stop>
            <stop stop-color="#FFFFFF" stop-opacity="0.262745098" offset="73.6151603%"></stop>
            <stop stop-color="#FFFFFF" stop-opacity="0.192156863" offset="80.9766764%"></stop>
            <stop stop-color="#FFFFFF" stop-opacity="0.121568627" offset="87.9008746%"></stop>
            <stop stop-color="#FFFFFF" stop-opacity="0.0588235294" offset="94.2784257%"></stop>
            <stop stop-color="#FFFFFF" stop-opacity="0" offset="100%"></stop>
        </linearGradient>
        <polygon id="path-5" points="0.0165194805 0.194273237 120.185714 0.194273237 120.185714 12.4496701 0.0165194805 12.4496701"></polygon>
        <linearGradient x1="50%" y1="0%" x2="50%" y2="100%" id="linearGradient-7">
            <stop stop-color="#FFFFFF" offset="0%"></stop>
            <stop stop-color="#FFFFFF" stop-opacity="0.941176471" offset="5.72157434%"></stop>
            <stop stop-color="#FFFFFF" stop-opacity="0.878431373" offset="12.0991254%"></stop>
            <stop stop-color="#FFFFFF" stop-opacity="0.807843137" offset="19.0233236%"></stop>
            <stop stop-color="#FFFFFF" stop-opacity="0.737254902" offset="26.3848397%"></stop>
            <stop stop-color="#FFFFFF" stop-opacity="0.658823529" offset="34.074344%"></stop>
            <stop stop-color="#FFFFFF" stop-opacity="0.580392157" offset="41.9825073%"></stop>
            <stop stop-color="#FFFFFF" stop-opacity="0.501960784" offset="50%"></stop>
            <stop stop-color="#FFFFFF" stop-opacity="0.419607843" offset="58.0174927%"></stop>
            <stop stop-color="#FFFFFF" stop-opacity="0.341176471" offset="65.925656%"></stop>
            <stop stop-color="#FFFFFF" stop-opacity="0.262745098" offset="73.6151603%"></stop>
            <stop stop-color="#FFFFFF" stop-opacity="0.192156863" offset="80.9766764%"></stop>
            <stop stop-color="#FFFFFF" stop-opacity="0.121568627" offset="87.9008746%"></stop>
            <stop stop-color="#FFFFFF" stop-opacity="0.0588235294" offset="94.2784257%"></stop>
            <stop stop-color="#FFFFFF" stop-opacity="0" offset="100%"></stop>
        </linearGradient>
        <polygon id="path-8" points="0 0.0618744283 131.947974 0.0618744283 131.947974 13.208502 0 13.208502"></polygon>
        <path d="M351.488364,198.754717 L68.890961,198.754717 C65.6247273,198.754717 62.9769351,196.106741 62.9769351,192.84002 L62.9769351,6.13380274 C62.9769351,2.86734205 65.6247273,0.219365889 68.890961,0.219365889 L351.488364,0.219365889 C354.754597,0.219365889 357.402649,2.86734205 357.402649,6.13380274 L357.402649,192.84002 C357.402649,196.106741 354.754597,198.754717 351.488364,198.754717" id="path-10"></path>
        <filter x="-5.4%" y="-7.1%" width="110.9%" height="116.1%" filterUnits="objectBoundingBox" id="filter-11">
            <feOffset dx="0" dy="2" in="SourceAlpha" result="shadowOffsetOuter1"></feOffset>
            <feGaussianBlur stdDeviation="5" in="shadowOffsetOuter1" result="shadowBlurOuter1"></feGaussianBlur>
            <feColorMatrix values="0 0 0 0 0   0 0 0 0 0   0 0 0 0 0  0 0 0 0.05 0" type="matrix" in="shadowBlurOuter1"></feColorMatrix>
        </filter>
        <polygon id="path-12" points="0.119688312 0.21923601 294.545403 0.21923601 294.545403 12.7676402 0.119688312 12.7676402"></polygon>
    </defs>
    <g id="Store-Manager" stroke="none" stroke-width="1" fill="none" fill-rule="evenodd">
        <g id="Action-sheet" transform="translate(-520.000000, -166.000000)">
            <g id="Views/Action-Sheet" transform="translate(400.000000, 68.000000)">
                <g id="Actions-+-Nav-Bar/page-Mask">
                    <g id="Header" transform="translate(0.000000, 48.000000)">
                        <g id="Illustration" transform="translate(120.000000, 58.000000)">
                            <g id="create_store_manager">
                                <g id="BG">
                                    <path d="M231.187273,234.402617 L43.2280519,234.402617 C39.9618182,234.402617 37.314026,231.513963 37.314026,227.950327 L37.314026,90.8549061 C37.314026,87.2915535 39.9618182,84.4026167 43.2280519,84.4026167 L231.187273,84.4026167 C234.453506,84.4026167 237.101558,87.2915535 237.101558,90.8549061 L237.101558,227.950327 C237.101558,231.513963 234.453506,234.402617 231.187273,234.402617" id="Fill-1" fill="url(#linearGradient-1)" opacity="0.4"></path>
                                    <g id="Group-5" transform="translate(279.740260, 71.953051)">
                                        <mask id="mask-3" fill="white">
                                            <use xlink:href="#path-2"></use>
                                        </mask>
                                        <g id="Clip-4"></g>
                                        <path d="M114.271688,137.696293 L5.93064935,137.696293 C2.66441558,137.696293 0.0163636364,135.048577 0.0163636364,131.781856 L0.0163636364,6.10871009 C0.0163636364,2.84250916 2.66441558,0.194273237 5.93064935,0.194273237 L114.271688,0.194273237 C117.537922,0.194273237 120.185974,2.84250916 120.185974,6.10871009 L120.185974,131.781856 C120.185974,135.048577 117.537922,137.696293 114.271688,137.696293" id="Fill-3" fill="url(#linearGradient-4)" opacity="0.223144531" mask="url(#mask-3)"></path>
                                    </g>
                                    <g id="Group-8" transform="translate(279.740260, 71.953051)">
                                        <mask id="mask-6" fill="white">
                                            <use xlink:href="#path-5"></use>
                                        </mask>
                                        <g id="Clip-7"></g>
                                        <path d="M120.18587,12.4496701 L0.0165194805,12.4496701 L0.0165194805,6.10871009 C0.0165194805,2.84250916 2.66431169,0.194273237 5.93054545,0.194273237 L114.271584,0.194273237 C117.538078,0.194273237 120.18587,2.84250916 120.18587,6.10871009 L120.18587,12.4496701 Z" id="Fill-6" fill="#EAFAF6" opacity="0.3" mask="url(#mask-6)"></path>
                                    </g>
                                    <path d="M126.033818,178.475308 L5.91407792,178.475308 C2.64784416,178.475308 5.19480519e-05,175.827332 5.19480519e-05,172.560611 L5.19480519e-05,36.8878094 C5.19480519e-05,33.6213487 2.64784416,30.9731128 5.91407792,30.9731128 L126.033818,30.9731128 C129.300052,30.9731128 131.948104,33.6213487 131.948104,36.8878094 L131.948104,172.560611 C131.948104,175.827332 129.300052,178.475308 126.033818,178.475308" id="Fill-9" fill="url(#linearGradient-7)" opacity="0.223144531"></path>
                                    <g id="Group-13" transform="translate(0.000000, 30.911238)">
                                        <mask id="mask-9" fill="white">
                                            <use xlink:href="#path-8"></use>
                                        </mask>
                                        <g id="Clip-12"></g>
                                        <path d="M131.947974,13.208502 L-7.79220779e-05,13.208502 L-7.79220779e-05,5.97657104 C-7.79220779e-05,2.70985059 2.64771429,0.0618744283 5.91420779,0.0618744283 L126.033688,0.0618744283 C129.300182,0.0618744283 131.947974,2.70985059 131.947974,5.97657104 L131.947974,13.208502 Z" id="Fill-11" fill-opacity="0.8" fill="#FFFFFF" opacity="0.300965" mask="url(#mask-9)"></path>
                                    </g>
                                    <g id="Fill-14">
                                        <use fill="black" fill-opacity="1" filter="url(#filter-11)" xlink:href="#path-10"></use>
                                        <use fill="#FFFFFF" fill-rule="evenodd" xlink:href="#path-10"></use>
                                    </g>
                                    <g id="Group-18" transform="translate(62.857143, 0.000000)">
                                        <mask id="mask-13" fill="white">
                                            <use xlink:href="#path-12"></use>
                                        </mask>
                                        <g id="Clip-17"></g>
                                        <path d="M294.545403,12.7676402 L0.119688312,12.7676402 L0.119688312,6.13367286 C0.119688312,2.86747193 2.76748052,0.21923601 6.03371429,0.21923601 L288.631117,0.21923601 C291.89761,0.21923601 294.545403,2.86747193 294.545403,6.13367286 L294.545403,12.7676402 Z" id="Fill-16" fill="#E1FFF7" mask="url(#mask-13)"></path>
                                    </g>
                                    <path d="M92.1477403,33.6148807 L77.1760519,33.6148807 C75.4617662,33.6148807 74.0591688,32.2121858 74.0591688,30.497781 L74.0591688,26.821162 C74.0591688,25.1067572 75.4617662,23.7040623 77.1760519,23.7040623 L92.1477403,23.7040623 C93.862026,23.7040623 95.2646234,25.1067572 95.2646234,26.821162 L95.2646234,30.497781 C95.2646234,32.2121858 93.862026,33.6148807 92.1477403,33.6148807" id="Fill-29" fill="#04CC99" opacity="0.4"></path>
                                    <g id="btn" transform="translate(83.354987, 135.091668)">
                                        <path d="M52.1161039,17.8066916 L8.9025974,17.8066916 C4.00597403,17.8066916 -1.49213975e-13,13.8001795 -1.49213975e-13,8.90347567 C-1.49213975e-13,4.0065121 4.00597403,-1.56319402e-13 8.9025974,-1.56319402e-13 L52.1161039,-1.56319402e-13 C57.0127273,-1.56319402e-13 61.018961,4.0065121 61.018961,8.90347567 C61.018961,13.8001795 57.0127273,17.8066916 52.1161039,17.8066916" id="Fill-31" fill="#04CC99"></path>
                                        <path d="M13.8831688,8.90337177 L47.1356364,8.90337177" id="Stroke-47" stroke="#FFFFFF" stroke-width="3.63636364" stroke-linecap="round" stroke-linejoin="round"></path>
                                    </g>
                                    <path d="M279.478416,88.4878096 C279.478416,106.705439 264.711143,121.473738 246.494779,121.473738 C228.278416,121.473738 213.511143,106.705439 213.511143,88.4878096 C213.511143,70.2701804 228.278416,55.5018817 246.494779,55.5018817 C264.711143,55.5018817 279.478416,70.2701804 279.478416,88.4878096" id="Fill-33" fill="#9BEBD6"></path>
                                    <path d="M289.875636,131.547061 C289.875636,122.409803 297.28239,115.002535 306.419013,115.002535 C315.555636,115.002535 322.962649,122.409803 322.962649,131.547061 C322.962649,140.684579 315.555636,148.091587 306.419013,148.091587 C297.28239,148.091587 289.875636,140.684579 289.875636,131.547061" id="Fill-35" fill="#9BEBD6"></path>
                                    <g id="action" transform="translate(325.000000, 98.000000)">
                                        <path d="M0,7.50078318 C0,3.35826231 3.35802901,1.98063788e-13 7.5,1.98063788e-13 C11.6422331,1.98063788e-13 15,3.35826231 15,7.50078318 C15,11.6433041 11.6422331,15.0013042 7.5,15.0013042 C3.35802901,15.0013042 0,11.6433041 0,7.50078318" id="Fill-37" fill="#04CC99"></path>
                                        <g id="visit" transform="translate(4.000000, 4.000000)" fill="#FFFFFF">
                                            <path d="M6.10533951,3.85375926 C6.16650674,4.00246101 6.16595735,4.1693963 6.10381267,4.31769223 C6.041668,4.46598815 5.92304158,4.58344226 5.7741358,4.64411111 C5.48731984,4.76784638 5.17905185,4.83422675 4.8667284,4.83950617 C4.71135591,4.84009067 4.55661269,4.8197431 4.40667284,4.77901235 C4.37934708,4.77159014 4.35016445,4.78005658 4.33105383,4.80095085 C4.31194322,4.82184512 4.30610749,4.85166543 4.3159321,4.87822222 L4.90272222,6.44259259 C5.01120697,6.7531919 4.85157562,7.09354596 4.54339523,7.20872283 C4.23521483,7.3238997 3.89148795,7.1716667 3.76967284,6.86604938 L3.41669136,5.92567284 C3.40563946,5.89603291 3.37724375,5.87645799 3.34561111,5.87667284 C3.31394111,5.87698835 3.285766,5.89685542 3.27483333,5.92658025 L2.93939506,6.85909259 C2.86618319,7.06246493 2.69003477,7.21133065 2.47730322,7.24961347 C2.26457167,7.2878963 2.04757597,7.20978015 1.9080563,7.04469063 C1.76853663,6.87960111 1.72768935,6.65261925 1.80090123,6.44924691 L2.84351235,3.55370988 C2.8521816,3.52941452 2.8478677,3.50237591 2.83206883,3.48198435 C2.81626996,3.46159279 2.79116598,3.45066181 2.76547531,3.45298765 C2.61634123,3.46450289 2.47380423,3.51926822 2.35532716,3.61057407 C2.15768345,3.76935501 2.00407406,3.97618094 1.90918519,4.21127778 C1.82897414,4.41484899 1.64508743,4.55924011 1.42830022,4.58887721 C1.21151302,4.61851431 0.995618549,4.52877751 0.863711271,4.35420512 C0.731803994,4.17963272 0.704445888,3.94743744 0.792166667,3.74698765 C0.970727345,3.30756422 1.2630395,2.92359133 1.63908025,2.63450617 C2.08068519,2.31237654 2.83080864,2.01988889 3.90185185,2.46361111 C4.10060448,2.54199438 4.24258489,2.7202766 4.27449383,2.93153086 C4.3124179,3.18565782 4.44445046,3.41625596 4.64441358,3.57760494 C4.86533673,3.6597398 5.11127962,3.6399182 5.31619753,3.52346296 C5.62532182,3.39677103 5.97862226,3.54464535 6.10533951,3.85375926 Z M4.18466049,2.11728395 C3.59998868,2.11728395 3.12601852,1.64331379 3.12601852,1.05864198 C3.12601852,0.473970157 3.59998868,-3.8191672e-14 4.18466049,-3.8191672e-14 C4.76933231,-3.8191672e-14 5.24330247,0.473970157 5.24330247,1.05864198 C5.24330247,1.64331379 4.76933231,2.11728395 4.18466049,2.11728395 Z" id="Combined-Shape"></path>
                                        </g>
                                    </g>
                                    <g id="action" transform="translate(171.000000, 39.000000)">
                                        <path d="M0,12.5819589 C0,5.63321419 5.59671501,1.98063788e-13 12.5,1.98063788e-13 C19.4037218,1.98063788e-13 25,5.63321419 25,12.5819589 C25,19.5307036 19.4037218,25.1634781 12.5,25.1634781 C5.59671501,25.1634781 0,19.5307036 0,12.5819589" id="Fill-37" fill="#04CC99"></path>
                                        <g id="request" transform="translate(6.666667, 6.709677)" fill="#FFFFFF">
                                            <path d="M12.4475556,4.92268389 L12.4467774,5.44444464 C12.4467774,5.44522281 12.4467774,5.44600097 12.4467774,5.44677914 C12.4467774,5.89383589 12.1639138,6.27474847 11.7604344,6.42298922 L11.7623798,6.42221106 C11.7343658,6.43232722 11.7040173,6.43816347 11.6725016,6.43816347 C11.5293189,6.43816347 11.4133721,6.32221664 11.412983,6.17942306 L11.4094812,4.19548714 C11.4094812,4.19548714 11.4094812,4.19509806 11.4094812,4.19509806 C11.4094812,4.05152631 11.5258171,3.93557947 11.6689998,3.93557947 C11.7009046,3.93557947 11.7312531,3.94141572 11.7573217,3.95114281 L11.7647143,3.95347731 C12.1611902,4.09743814 12.444832,4.47679439 12.4475556,4.92268389 Z M10.6317036,1.81274081 L10.6297582,8.49563614 L10.6297582,8.49524706 C10.6297582,8.49680339 10.6297582,8.49874881 10.6297582,8.50030514 C10.6297582,8.77188531 10.4896882,9.01117156 10.2753033,9.15124156 C9.85081339,9.42865797 9.55938997,9.22750189 8.84542206,8.89172297 L8.90611906,8.92168239 C7.55989072,8.19915464 6.05141464,7.74003631 4.40987206,7.61047156 L4.40987206,7.61591872 C4.45150397,8.83919672 5.16702822,9.89205622 6.21521872,10.4227659 L6.21833139,10.4239331 C6.38952806,10.5087533 6.50703122,10.6850081 6.50703122,10.8888877 C6.50703122,11.1752531 6.27474847,11.4075358 5.98838314,11.4075358 C5.90317389,11.4075358 5.82302272,11.3869144 5.75493314,11.3518969 L5.73042089,11.3406135 C4.34450606,10.6367617 3.39008464,9.20571322 3.36868506,7.54705097 L3.36868506,3.08231972 C3.36868506,3.08231972 3.36868506,3.08193064 3.36868506,3.08193064 C3.36868506,2.94380606 3.47646114,2.83058281 3.61341847,2.82280114 L3.62898181,2.82241206 C5.54132639,2.77183122 7.33889139,2.26135389 8.85437097,1.42832647 C9.50647464,1.11433622 9.83602822,0.883998889 10.2686889,1.15908081 L10.2718016,1.16102622 C10.4873537,1.29798356 10.6309255,1.53843706 10.6317036,1.81274081 Z M2.59090747,3.11850447 L2.59129656,7.27274722 C2.59129656,7.41631897 2.47496064,7.53226581 2.33177797,7.53226581 L1.82635872,7.53226581 C1.82324606,7.53226581 1.82052247,7.53226581 1.81740981,7.53226581 C0.817465639,7.53226581 0.00661597222,6.72452881 0.00155788889,5.72536281 L-0.00311111111,4.68767756 L-0.00311111111,4.68806664 C-0.00311111111,4.68573214 -0.00311111111,4.68378672 -0.00311111111,4.68145222 C-0.00311111111,3.68072989 0.805404056,2.86871297 1.80573731,2.86326581 L2.33138889,2.85898589 C2.47496064,2.85898589 2.59090747,2.97532181 2.59090747,3.11850447 Z" id="Combined-Shape"></path>
                                        </g>
                                    </g>
                                    <g id="action" transform="translate(103.000000, 45.000000)">
                                        <path d="M0,17.8460805 C0,7.99007491 7.83540101,1.98063788e-13 17.5,1.98063788e-13 C27.1652106,1.98063788e-13 35,7.99007491 35,17.8460805 C35,27.7020861 27.1652106,35.6915374 17.5,35.6915374 C7.83540101,35.6915374 0,27.7020861 0,17.8460805" id="Fill-37" fill="#04CC99"></path>
                                        <g id="thick" transform="translate(9.333333, 9.516916)" fill="#FFFFFF">
                                            <path d="M15.23722,4.25170455 L7.22392066,13.5804818 C7.02672222,13.8099598 6.75158345,13.9281908 6.47456659,13.9281908 C6.25483119,13.9281908 6.03368723,13.853361 5.84916583,13.7012072 L0.840795037,9.55513938 C0.409306074,9.19795197 0.338878061,8.54543642 0.684444847,8.0984533 C1.02954211,7.65097131 1.66057711,7.57863587 2.09206608,7.93632214 L6.35765609,11.4672893 L13.7389814,2.87383916 C14.1056766,2.4458129 14.7395287,2.40740029 15.1527064,2.78803436 C15.5663536,3.16916729 15.6039152,3.82417716 15.236281,4.25220341 L15.23722,4.25170455 Z"></path>
                                        </g>
                                    </g>
                                    <g id="action" transform="translate(180.000000, 135.000000)">
                                        <path d="M0,10.4102136 C0,4.66087703 4.47737201,1.98063788e-13 10,1.98063788e-13 C15.5229775,1.98063788e-13 20,4.66087703 20,10.4102136 C20,16.1595502 15.5229775,20.8200635 10,20.8200635 C4.47737201,20.8200635 0,16.1595502 0,10.4102136" id="Fill-37" fill="#04CC99"></path>
                                        <g id="calendar" transform="translate(5.333333, 5.551534)" fill="#FFFFFF">
                                            <path d="M8.3630556,1.29435185 L7.29297917,1.29435185 C7.23928567,1.29435185 7.1958056,1.24604067 7.1958056,1.18638123 L7.1958056,0.42993838 C7.1958056,0.191300602 7.02159354,-0.00226835648 6.80681954,-0.00226835648 C6.59204554,-0.00226835648 6.41783348,0.191300602 6.41783348,0.42993838 L6.41783348,2.48332567 C6.41783348,2.662304 6.28710148,2.80756178 6.12602098,2.80756178 C5.96494048,2.80756178 5.83420848,2.662304 5.83420848,2.48332567 L5.83420848,1.51061734 C5.83420848,1.39129845 5.74724835,1.29435185 5.63956954,1.29435185 L3.20789598,1.29435185 C3.15420248,1.29435185 3.11072242,1.24636491 3.11072242,1.18670546 L3.11072242,0.429614144 C3.11072242,0.190976366 2.93651035,-0.00259259259 2.72173635,-0.00259259259 C2.50696235,-0.00259259259 2.33275029,0.190976366 2.33275029,0.429614144 L2.33275029,2.48300144 C2.33275029,2.66197977 2.20201829,2.80723755 2.04093779,2.80723755 C1.87985729,2.80723755 1.74912529,2.66197977 1.74912529,2.48300144 L1.74912529,1.5102931 C1.74912529,1.39097421 1.66216517,1.29402762 1.55448635,1.29402762 L0.970861354,1.29402762 C0.541021542,1.29402762 0.192597417,1.68116553 0.192597417,2.15876532 L0.192597417,9.50822525 C0.192597417,9.98582505 0.541021542,10.372963 0.970861354,10.372963 L8.36334742,10.372963 C8.79318723,10.372963 9.14161135,9.98582505 9.14161135,9.50822525 L9.14161135,2.15876532 C9.14161135,1.68116553 8.79318723,1.29402762 8.36334742,1.29402762 L8.3630556,1.29435185 Z M7.7630891,9.07601852 L1.57053604,9.07601852 C1.47540517,9.07601852 1.39865848,8.99560796 1.39865848,8.89639171 L1.39865848,4.58664532 C1.39865848,4.48742907 1.47569698,4.40701852 1.57053604,4.40701852 L7.7630891,4.40701852 C7.85821998,4.40701852 7.93496667,4.48742907 7.93496667,4.58664532 L7.93496667,8.89639171 C7.93496667,8.99560796 7.85792817,9.07601852 7.7630891,9.07601852 Z"></path>
                                        </g>
                                    </g>
                                    <path d="M104.002571,28.6595754 L164.209065,28.6595754" id="Stroke-39" stroke="#D5F7EF" stroke-width="2.85714286" stroke-linecap="round"></path>
                                    <g id="Group-2" transform="translate(83.552701, 107.840320)" stroke="#D5F7EF" stroke-linecap="round" stroke-width="2.85714286">
                                        <path d="M-1.42108547e-14,0.129879153 L97.6067532,0.129879153" id="Stroke-41"></path>
                                        <path d="M-1.38555833e-13,8.18238662 L60.0202597,8.18238662" id="Stroke-43"></path>
                                        <path d="M4.97379915e-14,16.2348941 L83.7428571,16.2348941" id="Stroke-45"></path>
                                    </g>
                                    <path d="M245.520675,169.911388 L301.377299,169.911388 C304.504571,169.911388 307.125351,167.546289 307.445351,164.435164 L320.061195,41.8009299 C320.430805,38.2035371 317.608727,35.0760471 313.992883,35.0760471 L258.138078,35.0760471 C255.010805,35.0760471 252.390026,37.4408868 252.070026,40.552012 L239.452623,163.186505 C239.082494,166.783638 241.904831,169.911388 245.520675,169.911388" id="Fill-57" fill="#D5F7EF"></path>
                                    <path d="M313.040468,41.7996831 L300.424104,164.434436 C300.103325,167.546341 297.483065,169.910661 294.355273,169.910661 L238.499688,169.910661 C234.883325,169.910661 232.060468,166.782911 232.430857,163.186298 L245.049299,40.5512847 C245.368,37.4396399 247.988779,35.0753198 251.116312,35.0753198 L306.971896,35.0753198 C310.58826,35.0753198 313.409299,38.2030696 313.040468,41.7996831" id="Fill-59" fill="#04CC99"></path>
                                    <path d="M241.247143,164.878078 L292.094416,164.878078 C294.219351,164.878078 296.00039,163.270953 296.217792,161.15678 L308.241169,44.2785306 C308.492857,41.8342049 306.574935,39.7088625 304.117792,39.7088625 L253.272338,39.7088625 C251.147143,39.7088625 249.366364,41.3159871 249.148961,43.43016 L237.123766,160.308409 C236.872078,162.752735 238.79,164.878078 241.247143,164.878078" id="Fill-61" fill="#FFFFFF"></path>
                                    <path d="M296.156597,35.7570035 L295.489325,42.2488831 C295.266727,44.4090332 293.447506,46.0520045 291.277896,46.0520045 L267.034779,46.0520045 C264.526208,46.0520045 262.566727,43.8799055 262.823091,41.3833684 L263.402052,35.7570035 L296.156597,35.7570035 Z" id="Fill-67" fill="#04CC99"></path>
                                    <path d="M283.621325,41.7649274 L272.715351,41.7649274 C272.285481,41.7649274 271.934312,41.4134744 271.934312,40.9838342 L271.934312,40.9124006 C271.934312,40.4827604 272.285481,40.1310477 272.715351,40.1310477 L283.621325,40.1310477 C284.050935,40.1310477 284.402623,40.4827604 284.402623,40.9124006 L284.402623,40.9838342 C284.402623,41.4134744 284.050935,41.7649274 283.621325,41.7649274" id="Fill-69" fill="#FFFFFF"></path>
                                    <path d="M288.782649,40.9481174 C288.782649,41.7001177 288.173039,42.3097704 287.421351,42.3097704 C286.669143,42.3097704 286.059792,41.7001177 286.059792,40.9481174 C286.059792,40.1961171 286.669143,39.5864644 287.421351,39.5864644 C288.173039,39.5864644 288.782649,40.1961171 288.782649,40.9481174" id="Fill-71" fill="#FFFFFF"></path>
                                    <path d="M302.238935,57.5505695 L298.568805,93.2239568 C298.400753,94.8583561 297.02387,96.1005203 295.381273,96.1005203 L252.311922,96.1005203 C250.412442,96.1005203 248.929844,94.457549 249.12439,92.5678074 L252.794519,56.9066287 C252.962571,55.2727489 254.338675,54.0303249 255.981013,54.0300652 L299.050623,54.0178565 C300.950364,54.0170773 302.433481,55.6605681 302.238935,57.5505695" id="Fill-73" fill="#E1FFF7"></path>
                                    <path d="M295.860571,118.096334 L292.190182,153.769721 C292.02239,155.404121 290.645506,156.646545 289.002649,156.646545 L245.933299,156.646545 C244.034078,156.646545 242.551481,155.003314 242.745766,153.113572 L246.415896,117.452393 C246.583948,115.818514 247.960312,114.576349 249.602649,114.57583 L292.672,114.563621 C294.57174,114.563102 296.054857,116.206333 295.860571,118.096334" id="Fill-75" fill="#E1FFF7"></path>
                                    <path d="M268.478779,102.478626 L268.131766,105.851587 C268.04761,106.669566 267.358779,107.291428 266.536442,107.291428 L262.018,107.291428 C261.067351,107.291428 260.325273,106.469033 260.422675,105.523253 L260.769688,102.15159 C260.853584,101.333871 261.542675,100.71201 262.364494,100.71175 L266.882935,100.710451 C267.834104,100.710191 268.576182,101.532586 268.478779,102.478626" id="Fill-77" fill="#9BEBD6"></path>
                                    <path d="M264.559844,104.724236 C264.544779,104.739043 264.536727,104.747355 264.521922,104.762161 L264.521922,106.197066 C264.521922,107.46105 265.08426,108.306044 266.19361,108.486056 C266.379065,108.516188 267.014909,108.533332 267.546857,108.542164 C267.684,108.544761 267.692312,108.356956 267.560623,108.318512 C266.488156,108.005243 266.19361,107.03115 266.19361,106.197066 L266.19361,104.762161 C266.178805,104.747355 266.170494,104.739043 266.155948,104.724236 L264.559844,104.724236 Z" id="Fill-79" fill="#9BEBD6"></path>
                                    <polyline id="Stroke-81" stroke="#9BEBD6" stroke-width="4.41558442" stroke-linecap="round" points="251.091143 102.621934 252.581273 104.963915 254.941532 102.621934"></polyline>
                                    <path d="M255.384208,43.1219308 C255.384208,44.0243311 254.652779,44.7558105 253.750442,44.7558105 C252.848104,44.7558105 252.116935,44.0243311 252.116935,43.1219308 C252.116935,42.2195304 252.848104,41.488051 253.750442,41.488051 C254.652779,41.488051 255.384208,42.2195304 255.384208,43.1219308" id="Fill-83" fill="#9BEBD6"></path>
                                    <path d="M259.884519,43.1219308 C259.884519,44.0243311 259.153091,44.7558105 258.250753,44.7558105 C257.348416,44.7558105 256.617247,44.0243311 256.617247,43.1219308 C256.617247,42.2195304 257.348416,41.488051 258.250753,41.488051 C259.153091,41.488051 259.884519,42.2195304 259.884519,43.1219308" id="Fill-85" fill="#9BEBD6"></path>
                                    <path d="M305.458026,43.1219308 C305.458026,44.0243311 304.726597,44.7558105 303.82426,44.7558105 C302.921922,44.7558105 302.190753,44.0243311 302.190753,43.1219308 C302.190753,42.2195304 302.921922,41.488051 303.82426,41.488051 C304.726597,41.488051 305.458026,42.2195304 305.458026,43.1219308" id="Fill-87" fill="#9BEBD6"></path>
                                </g>
                            </g>
                        </g>
                    </g>
                </g>
            </g>
        </g>
    </g>
</svg>