<?xml version="1.0" encoding="UTF-8"?>
<svg width="314px" height="128px" viewBox="0 0 314 128" version="1.1" xmlns="http://www.w3.org/2000/svg" xmlns:xlink="http://www.w3.org/1999/xlink">
    <!-- Generator: Sketch 51 (57462) - http://www.bohemiancoding.com/sketch -->
    <title>boost_landscape_dark</title>
    <desc>Created with Sketch.</desc>
    <defs>
        <linearGradient x1="0%" y1="50%" x2="100%" y2="50%" id="linearGradient-1">
            <stop stop-color="#F46885" offset="0%"></stop>
            <stop stop-color="#F46885" offset="27.475%"></stop>
            <stop stop-color="#FDB93F" offset="100%"></stop>
        </linearGradient>
        <linearGradient x1="0%" y1="50%" x2="79.352%" y2="50%" id="linearGradient-2">
            <stop stop-color="#D45485" offset="0%"></stop>
            <stop stop-color="#FDB93F" stop-opacity="0" offset="100%"></stop>
        </linearGradient>
        <linearGradient x1="49.255%" y1="-1.531%" x2="51.437%" y2="149.424%" id="linearGradient-3">
            <stop stop-color="#F46885" offset="0%"></stop>
            <stop stop-color="#F46885" offset="18.069%"></stop>
            <stop stop-color="#FDB93F" offset="100%"></stop>
        </linearGradient>
    </defs>
    <g id="Styles" stroke="none" stroke-width="1" fill="none" fill-rule="evenodd">
        <g id="Logo---Design-System-white---1-Copy" transform="translate(-150.000000, -448.000000)" fill-rule="nonzero">
            <g id="boost_landscape_dark" transform="translate(150.000000, 448.000000)">
                <g id="Group">
                    <path d="M9.16944856e-15,75.914938 C9.16944856e-15,47.2126123 23.2677701,23.944197 51.9700957,23.944197 C80.672744,23.944197 103.940837,47.2126123 103.940837,75.914938 C103.940837,104.617586 80.672744,127.885679 51.9700957,127.885679 C23.2677701,127.885679 0,104.617586 0,75.914938 M30.2683294,76.7308473 C30.2683294,88.7468772 40.009234,98.4877818 52.025264,98.4877818 C64.0419392,98.4877818 73.7825212,88.7468772 73.7825212,76.7308473 C73.7825212,64.7148173 64.0419392,54.9739127 52.025264,54.9739127 C40.009234,54.9739127 30.2683294,64.7148173 30.2683294,76.7308473" id="Shape" fill="url(#linearGradient-1)" transform="translate(51.970419, 75.914938) scale(-1, 1) rotate(-180.000000) translate(-51.970419, -75.914938) "></path>
                    <path d="M29.9044134,71.3000851 L29.9044134,26.1408474 C29.9586155,26.1408474 30.0737913,26.1408474 30.2499408,26.1408474 C30.2499408,38.0659472 39.9908454,47.897782 52.0068753,47.897782 C64.0232279,47.897782 73.7638099,38.1568774 73.7638099,26.1408474 C73.7638099,25.3991411 73.7260632,24.6661455 73.6534734,23.9434738 L103.903736,23.9434738 C103.915673,24.4025639 103.922448,24.8629445 103.922448,25.3249382 C103.922448,54.0275865 80.6540328,77.2956792 51.9517071,77.2956792 C44.0603903,77.2956792 36.5817062,75.5331991 29.8827977,72.386351 C29.8957026,72.025983 29.9044134,71.6640019 29.9044134,71.3000851 Z" id="Shape" fill="url(#linearGradient-2)" transform="translate(66.902623, 50.619576) scale(-1, 1) rotate(-180.000000) translate(-66.902623, -50.619576) "></path>
                    <path d="M0,81.6972098 L6.71590487e-16,5.49471829 C6.71590487e-16,0.580550801 4.02667903,0.017241997 8.99350348,0.017241997 L30.2457467,0.0166157 L30.2457467,53.7433655 C30.2457467,69.1820847 17.5953612,81.6972098 1.99051254,81.6972098 L0,81.6972098 Z" id="Shape" fill="url(#linearGradient-3)" transform="translate(15.122873, 40.856913) scale(-1, 1) rotate(-180.000000) translate(-15.122873, -40.856913) "></path>
                </g>
                <g id="Group" transform="translate(137.732000, 18.325000)" fill="#000000">
                    <polygon id="Shape" transform="translate(10.854500, 12.386000) scale(-1, 1) rotate(-180.000000) translate(-10.854500, -12.386000) " points="21.38 24.508 12.342 11.105 12.342 0.264 9.365 0.264 9.365 11.105 0.329 24.508 3.687 24.508 10.854 13.702 18.021 24.508"></polygon>
                    <path d="M33.8099506,21.8060281 C31.5012489,21.8060281 29.459149,20.9173136 27.6815734,19.1391919 C25.9039978,17.3610702 25.0155563,15.1098448 25.0155563,12.3855158 C25.0155563,9.66118671 25.9039978,7.40996134 27.6815734,5.63183963 C29.459149,3.85371793 31.5012489,2.9656961 33.8099506,2.9656961 C36.2564541,2.9656961 38.3394098,3.84817645 40.0595103,5.61452251 C41.7789182,7.38156126 42.6389684,9.63832812 42.6389684,12.3855158 C42.6389684,15.1333961 41.7789182,17.390163 40.0595103,19.1572017 C38.3394098,20.9235478 36.2564541,21.8060281 33.8099506,21.8060281 M33.8099506,24.7499382 C36.9953217,24.7499382 39.8109128,23.5730669 42.2581089,21.2172461 C44.7039199,18.862118 45.9282104,15.9182079 45.9282104,12.3855158 C45.9282104,8.85351632 44.7039199,5.90960621 42.2581089,3.55378544 C39.8109128,1.19865735 36.9953217,0.021786 33.8099506,0.021786 C30.6938266,0.021786 27.8948548,1.20419883 25.4137276,3.57179524 C22.931908,5.93800628 21.6916907,8.87568223 21.6916907,12.3855158 C21.6916907,15.8953493 22.931908,18.8330253 25.4137276,21.199929 C27.8948548,23.5668327 30.6938266,24.7499382 33.8099506,24.7499382" id="Shape" transform="translate(33.809951, 12.385862) scale(-1, 1) rotate(-180.000000) translate(-33.809951, -12.385862) "></path>
                    <path d="M61.8550662,21.8060281 C59.5463646,21.8060281 57.5042647,20.9173136 55.7266891,19.1391919 C53.9491135,17.3610702 53.0606719,15.1098448 53.0606719,12.3855158 C53.0606719,9.66118671 53.9491135,7.40996134 55.7266891,5.63183963 C57.5042647,3.85371793 59.5463646,2.9656961 61.8550662,2.9656961 C64.3015698,2.9656961 66.3845255,3.84817645 68.104626,5.61452251 C69.8240339,7.38156126 70.6840841,9.63832812 70.6840841,12.3855158 C70.6840841,15.1333961 69.8240339,17.390163 68.104626,19.1572017 C66.3845255,20.9235478 64.3015698,21.8060281 61.8550662,21.8060281 M61.8550662,24.7499382 C65.0404374,24.7499382 67.8560285,23.5730669 70.3032245,21.2172461 C72.7490356,18.862118 73.9733261,15.9182079 73.9733261,12.3855158 C73.9733261,8.85351632 72.7490356,5.90960621 70.3032245,3.55378544 C67.8560285,1.19865735 65.0404374,0.021786 61.8550662,0.021786 C58.7389423,0.021786 55.9399705,1.20419883 53.4588433,3.57179524 C50.9770237,5.93800628 49.7368064,8.87568223 49.7368064,12.3855158 C49.7368064,15.8953493 50.9770237,18.8330253 53.4588433,21.199929 C55.9399705,23.5668327 58.7389423,24.7499382 61.8550662,24.7499382" id="Shape" transform="translate(61.855066, 12.385862) scale(-1, 1) rotate(-180.000000) translate(-61.855066, -12.385862) "></path>
                    <path d="M86.818543,2.89687347 C90.5807434,2.89687347 92.4621898,4.40900424 92.4621898,7.43395846 C92.4621898,8.79646933 91.9829992,9.90407221 91.0253104,10.7595378 C90.0669292,11.6129254 88.6653658,12.0403119 86.818543,12.0403119 L81.2441435,12.0403119 L81.2441435,2.89687347 L86.818543,2.89687347 Z M81.2441435,14.6725139 L86.472307,14.6725139 C87.9728939,14.6725139 89.0746168,14.9613634 89.7788608,15.5383698 C90.4831048,16.1153762 90.8348806,17.0276419 90.8348806,18.2744745 C90.8348806,20.6760124 89.3806894,21.8764351 86.472307,21.8764351 L81.2441435,21.8764351 L81.2441435,14.6725139 Z M90.454021,13.5642183 C92.1159538,12.9865192 93.3624034,12.1552975 94.1933698,11.0705533 C95.0250286,9.98511633 95.4398193,8.73828381 95.4398193,7.33005575 C95.4398193,5.06705474 94.6787926,3.32356727 93.1546618,2.10097872 C91.6312234,0.876312117 89.4499366,0.2646715 86.6108014,0.2646715 L78.1972667,0.2646715 L78.1972667,24.508637 L86.472307,24.508637 C88.8031678,24.508637 90.6105197,23.9718064 91.8909004,22.898145 C93.1719736,21.8244837 93.8132026,20.3061188 93.8132026,18.3437429 C93.8132026,15.942205 92.6927829,14.3490301 90.454021,13.5642183 Z" id="Shape" transform="translate(86.818543, 12.386654) scale(-1, 1) rotate(-180.000000) translate(-86.818543, -12.386654) "></path>
                    <polygon id="Shape" transform="translate(101.030500, 12.386000) scale(-1, 1) rotate(-180.000000) translate(-101.030500, -12.386000) " points="102.571 0.264 99.49 0.264 99.49 24.508 102.571 24.508"></polygon>
                    <path d="M118.6019,24.7499382 C121.625232,24.7499382 124.233774,23.7462381 126.426833,21.7367597 L124.557851,19.5201685 C122.964473,21.0440749 120.990928,21.8060281 118.636523,21.8060281 C116.30497,21.8060281 114.239326,20.8993038 112.439591,19.0872406 C110.638472,17.2744846 109.738258,15.0405764 109.738258,12.3855158 C109.738258,9.7297625 110.638472,7.49654693 112.439591,5.68448367 C114.239326,3.87103505 116.30497,2.9656961 118.636523,2.9656961 C120.944532,2.9656961 122.929849,3.73873226 124.591782,5.28549727 L126.462149,3.06890613 C124.245546,1.03726181 121.625232,0.021786 118.6019,0.021786 C115.462924,0.021786 112.65218,1.19865735 110.171053,3.55378544 C107.689233,5.90960621 106.449016,8.84104799 106.449016,12.3515742 C106.449016,14.7060096 107.043157,16.8477908 108.232131,18.7755324 C109.420413,20.7032741 110.938312,22.1814633 112.785827,23.2087147 C114.631958,24.2359662 116.570187,24.7499382 118.6019,24.7499382" id="Shape" transform="translate(116.455582, 12.385862) scale(-1, 1) rotate(-180.000000) translate(-116.455582, -12.385862) "></path>
                    <g transform="translate(0.000000, 34.286000)" id="Shape">
                        <path d="M9.55156718,9.22001998 C11.977464,6.79048626 14.7773443,5.57645562 17.9497807,5.57645562 C21.1215033,5.57645562 23.9684884,6.84054938 26.4914497,9.36800067 C29.0144109,11.8969244 30.2755346,15.3917718 30.2755346,19.852543 C30.2755346,24.3147866 29.0144109,27.796382 26.4914497,30.3002742 C23.9684884,32.8026939 21.1215033,34.0550081 17.9497807,34.0550081 C14.7773443,34.0550081 11.977464,32.8534933 9.55156718,30.4489911 C7.12495668,28.0437527 5.91093771,24.5120942 5.91093771,19.852543 C5.91093771,15.1922556 7.12495668,11.6480812 9.55156718,9.22001998 M18.7427113,39.6326286 C23.2119569,39.6326286 27.2843803,37.872321 30.9606952,34.3531782 C34.6370102,30.8318267 36.4755245,25.9992633 36.4755245,19.852543 C36.4755245,13.6550233 34.6484295,8.79816458 30.9970944,5.27828557 C27.3443319,1.75840657 23.2590617,-0.0004286 18.7427113,-0.0004286 C15.9057182,-0.0004286 13.3363659,0.74241974 11.0289448,2.23032509 C8.72295107,3.71675799 7.11210991,5.57645562 6.19998985,7.80720931 L6.19998985,0.520080594 L0,0.520080594 L0,52.571 L6.19998985,52.571 L6.19998985,32.1216883 C7.11210991,34.3023788 8.7101043,36.1002338 10.9932593,37.5130445 C13.2749869,38.9258551 15.8593271,39.6326286 18.7427113,39.6326286" transform="translate(18.237762, 26.285286) scale(-1, 1) rotate(-180.000000) translate(-18.237762, -26.285286) "></path>
                        <path d="M69.9589161,43.3859732 C67.4887489,45.8155822 64.6863576,47.0311085 61.5524476,47.0311085 C58.4178322,47.0311085 55.6147355,45.8155822 53.1452737,43.3859732 C50.6758118,40.9549205 49.4407282,37.5284933 49.4407282,33.1066915 C49.4407282,28.7318073 50.6758118,25.3291997 53.1452737,22.8995907 C55.6147355,20.4692599 58.4178322,19.2544553 61.5524476,19.2544553 C64.6863576,19.2544553 67.4887489,20.4692599 69.9589161,22.8995907 C72.4276726,25.3291997 73.6634615,28.7318073 73.6634615,33.1066915 C73.6634615,37.5284933 72.4276726,40.9549205 69.9589161,43.3859732 M55.354458,51.3323683 C57.4437314,52.1573959 59.5097279,52.5717143 61.5524476,52.5717143 C63.5937565,52.5717143 65.659753,52.1573959 67.7497317,51.3323683 C69.8397104,50.5051752 71.7865012,49.3271829 73.5915149,47.7962261 C75.3965286,46.2652692 76.8806039,44.2117227 78.0444463,41.6355864 C79.2075833,39.0594502 79.7902098,36.2155228 79.7902098,33.1066915 C79.7902098,29.9956948 79.2075833,27.1524892 78.0444463,24.576353 C76.8806039,22.0002167 75.3965286,19.9589409 73.5915149,18.4532474 C71.7865012,16.9461102 69.8397104,15.7796669 67.7497317,14.9531956 C65.659753,14.128168 63.5937565,13.7145714 61.5524476,13.7145714 C59.5097279,13.7145714 57.4437314,14.128168 55.354458,14.9531956 C53.263774,15.7796669 51.3162778,16.9461102 49.5126748,18.4532474 C47.7069558,19.9589409 46.2235858,22.0002167 45.0597435,24.576353 C43.8959011,27.1524892 43.3146853,29.9956948 43.3146853,33.1066915 C43.3146853,36.2155228 43.8959011,39.0594502 45.0597435,41.6355864 C46.2235858,44.2117227 47.7069558,46.2652692 49.5126748,47.7962261 C51.3162778,49.3271829 53.263774,50.5051752 55.354458,51.3323683" transform="translate(61.552448, 33.143143) scale(-1, 1) rotate(-180.000000) translate(-61.552448, -33.143143) "></path>
                        <path d="M110.993881,43.3859732 C108.523714,45.8155822 105.721323,47.0311085 102.587413,47.0311085 C99.4535026,47.0311085 96.6497005,45.8155822 94.1809441,43.3859732 C91.7107768,40.9549205 90.4763986,37.5284933 90.4763986,33.1066915 C90.4763986,28.7318073 91.7107768,25.3291997 94.1809441,22.8995907 C96.6497005,20.4692599 99.4535026,19.2544553 102.587413,19.2544553 C105.721323,19.2544553 108.523714,20.4692599 110.993881,22.8995907 C113.462638,25.3291997 114.698427,28.7318073 114.698427,33.1066915 C114.698427,37.5284933 113.462638,40.9549205 110.993881,43.3859732 M96.3894231,51.3323683 C98.4794018,52.1573959 100.544693,52.5717143 102.587413,52.5717143 C104.629427,52.5717143 106.695423,52.1573959 108.785402,51.3323683 C110.875381,50.5051752 112.822172,49.3271829 114.62648,47.7962261 C116.431494,46.2652692 117.915569,44.2117227 119.079411,41.6355864 C120.243254,39.0594502 120.825175,36.2155228 120.825175,33.1066915 C120.825175,29.9956948 120.243254,27.1524892 119.079411,24.576353 C117.915569,22.0002167 116.431494,19.9589409 114.62648,18.4532474 C112.822172,16.9461102 110.875381,15.7796669 108.785402,14.9531956 C106.695423,14.128168 104.629427,13.7145714 102.587413,13.7145714 C100.544693,13.7145714 98.4794018,14.128168 96.3894231,14.9531956 C94.2994444,15.7796669 92.3512428,16.9461102 90.5483452,18.4532474 C88.7419208,19.9589409 87.2585509,22.0002167 86.0954139,24.576353 C84.9308662,27.1524892 84.3496503,29.9956948 84.3496503,33.1066915 C84.3496503,36.2155228 84.9308662,39.0594502 86.0954139,41.6355864 C87.2585509,44.2117227 88.7419208,46.2652692 90.5483452,47.7962261 C92.3512428,49.3271829 94.2994444,50.5051752 96.3894231,51.3323683" transform="translate(102.587413, 33.143143) scale(-1, 1) rotate(-180.000000) translate(-102.587413, -33.143143) "></path>
                        <path d="M146.093075,42.8756542 C144.476801,45.7917625 142.121993,47.2498167 139.027965,47.2498167 C137.411691,47.2498167 136.085483,46.8001297 135.046597,45.9007557 C134.007026,45.0006599 133.48724,43.8962921 133.48724,42.5840434 C133.48724,41.4168783 133.845193,40.4207819 134.561784,39.5950324 C135.277004,38.7678393 136.535324,38.0149926 138.335374,37.3343267 L142.144622,35.8769944 C145.65352,34.612385 148.297707,33.2034139 150.075128,31.6479155 C151.851863,30.0924172 152.741259,27.7847939 152.741259,24.7228802 C152.741259,21.3202726 151.356763,18.6351432 148.587087,16.6667701 C145.816038,14.6983971 142.72201,13.7145714 139.305687,13.7145714 C136.073826,13.7145714 133.14163,14.6132236 130.509786,16.4119716 C127.878627,18.2092759 126.169094,20.6150653 125.384615,23.6293396 L130.509786,25.1602964 C131.108431,23.3117436 132.252234,21.8428623 133.938452,20.7493217 C135.623299,19.6557811 137.435692,19.1086499 139.374946,19.1086499 C141.22094,19.1086499 142.872185,19.6189689 144.326626,20.6396068 C145.781066,21.6602447 146.507943,23.0208546 146.507943,24.7228802 C146.507943,27.3466558 144.638634,29.3157507 140.899331,30.6272776 L136.743101,32.231859 C133.419352,33.4950247 131.017914,34.9169884 129.540159,36.4963065 C128.061718,38.0756245 127.323869,40.0800881 127.323869,42.5111407 C127.323869,45.4265272 128.453958,47.8323165 130.717563,49.7277869 C132.979797,51.6239791 135.726845,52.5717143 138.960077,52.5717143 C144.821725,52.5717143 148.977955,49.8252311 151.426022,44.3337084 L146.093075,42.8756542 Z" transform="translate(139.062937, 33.143143) scale(-1, 1) rotate(-180.000000) translate(-139.062937, -33.143143) "></path>
                        <path d="M170.789939,12.4233446 C172.257627,12.4233446 173.840468,12.7943962 175.538462,13.537234 L175.538462,8.19335698 C173.886801,7.30283326 171.821545,6.8575714 169.344736,6.8575714 C167.095507,6.8575714 165.319155,7.47623557 164.010909,8.71282915 C162.704026,9.94942273 162.049222,12.2007137 162.049222,15.4667021 L162.049222,40.6232624 L157.300699,40.6232624 L157.300699,45.8921944 L162.049222,45.8921944 L162.049222,52.5718571 L167.96699,52.5718571 L167.96699,45.8921944 L175.468961,45.8921944 L175.468961,40.6232624 L167.96699,40.6232624 L167.96699,15.9861742 C167.96699,13.6107096 168.907973,12.4233446 170.789939,12.4233446" transform="translate(166.419580, 29.714714) scale(-1, 1) rotate(-180.000000) translate(-166.419580, -29.714714) "></path>
                    </g>
                </g>
            </g>
        </g>
    </g>
</svg>