<?xml version="1.0" encoding="UTF-8"?>
<svg width="311px" height="128px" viewBox="0 0 311 128" version="1.1" xmlns="http://www.w3.org/2000/svg" xmlns:xlink="http://www.w3.org/1999/xlink">
    <!-- Generator: Sketch 53.2 (72643) - https://sketchapp.com -->
    <title>Boost_Logo_White</title>
    <desc>Created with Sketch.</desc>
    <defs>
        <linearGradient x1="0%" y1="50%" x2="100%" y2="50%" id="linearGradient-1">
            <stop stop-color="#F46885" offset="0%"></stop>
            <stop stop-color="#F46885" offset="27.475%"></stop>
            <stop stop-color="#FDB93F" offset="100%"></stop>
        </linearGradient>
        <linearGradient x1="0%" y1="50%" x2="79.352%" y2="50%" id="linearGradient-2">
            <stop stop-color="#D45485" offset="0%"></stop>
            <stop stop-color="#FDB93F" stop-opacity="0" offset="100%"></stop>
        </linearGradient>
        <linearGradient x1="49.255%" y1="-1.531%" x2="51.437%" y2="149.424%" id="linearGradient-3">
            <stop stop-color="#F46885" offset="0%"></stop>
            <stop stop-color="#F46885" offset="18.069%"></stop>
            <stop stop-color="#FDB93F" offset="100%"></stop>
        </linearGradient>
    </defs>
    <g id="Page-1" stroke="none" stroke-width="1" fill="none" fill-rule="evenodd">
        <g id="Boost_Logo_White" transform="translate(-242.000000, -236.000000)" fill-rule="nonzero">
            <g transform="translate(242.000000, 236.000000)">
                <g id="Boost_icon">
                    <path d="M9.16944856e-15,75.914938 C9.16944856e-15,47.2126123 23.2677701,23.944197 51.9700957,23.944197 C80.672744,23.944197 103.940837,47.2126123 103.940837,75.914938 C103.940837,104.617586 80.672744,127.885679 51.9700957,127.885679 C23.2677701,127.885679 0,104.617586 0,75.914938 M30.2683294,76.7308473 C30.2683294,88.7468772 40.009234,98.4877818 52.025264,98.4877818 C64.0419392,98.4877818 73.7825212,88.7468772 73.7825212,76.7308473 C73.7825212,64.7148173 64.0419392,54.9739127 52.025264,54.9739127 C40.009234,54.9739127 30.2683294,64.7148173 30.2683294,76.7308473" id="Shape" fill="url(#linearGradient-1)" transform="translate(51.970419, 75.914938) scale(-1, 1) rotate(-180.000000) translate(-51.970419, -75.914938) "></path>
                    <path d="M29.9044134,71.3000851 L29.9044134,26.1408474 C29.9586155,26.1408474 30.0737913,26.1408474 30.2499408,26.1408474 C30.2499408,38.0659472 39.9908454,47.897782 52.0068753,47.897782 C64.0232279,47.897782 73.7638099,38.1568774 73.7638099,26.1408474 C73.7638099,25.3991411 73.7260632,24.6661455 73.6534734,23.9434738 L103.903736,23.9434738 C103.915673,24.4025639 103.922448,24.8629445 103.922448,25.3249382 C103.922448,54.0275865 80.6540328,77.2956792 51.9517071,77.2956792 C44.0603903,77.2956792 36.5817062,75.5331991 29.8827977,72.386351 C29.8957026,72.025983 29.9044134,71.6640019 29.9044134,71.3000851 Z" id="Path" fill="url(#linearGradient-2)" transform="translate(66.902623, 50.619576) scale(-1, 1) rotate(-180.000000) translate(-66.902623, -50.619576) "></path>
                    <path d="M0,81.6972098 L6.71590487e-16,5.49471829 C6.71590487e-16,0.580550801 4.02667903,0.017241997 8.99350348,0.017241997 L30.2457467,0.0166157 L30.2457467,53.7433655 C30.2457467,69.1820847 17.5953612,81.6972098 1.99051254,81.6972098 L0,81.6972098 Z" id="Path" fill="url(#linearGradient-3)" transform="translate(15.122873, 40.856913) scale(-1, 1) rotate(-180.000000) translate(-15.122873, -40.856913) "></path>
                </g>
                <polygon id="Path" fill="#FFFFFF" points="149.63 36.85 140.57 22.56 146.64 22.56 152.26 32 158 22.56 163.9 22.56 154.84 36.75 154.84 46.15 149.65 46.15"></polygon>
                <path d="M166.23,34.35 C166.095685,29.2514733 169.065156,24.5803146 173.738789,22.5382161 C178.412423,20.4961175 183.857457,21.49064 187.507445,25.0530278 C191.157432,28.6154155 192.28391,34.0346892 190.355927,38.7565422 C188.427943,43.4783951 183.830285,46.5604425 178.73,46.55 C175.441904,46.6336477 172.259542,45.3849923 169.90568,43.0876227 C167.551818,40.7902532 166.226238,37.639158 166.23,34.35 L166.23,34.35 Z M185.86,34.35 C185.927676,32.4133106 185.207438,30.5318981 183.863793,29.1354871 C182.520147,27.7390761 180.667859,26.9469375 178.73,26.94 C176.792761,26.9350182 174.93834,27.7251793 173.600045,29.1258526 C172.26175,30.5265259 171.55683,32.4149963 171.65,34.35 C171.582326,36.2893421 172.303619,38.1732974 173.649139,39.5715831 C174.994659,40.9698688 176.84949,41.763061 178.79,41.77 C183,41.77 185.86,38.46 185.86,34.35 L185.86,34.35 Z" id="Shape" fill="#FFFFFF"></path>
                <path d="M195.87,34.35 C195.735671,29.2505645 198.706221,24.5787552 203.381098,22.5372324 C208.055974,20.4957096 213.50182,21.4920714 217.151032,25.0565541 C220.800244,28.6210368 221.924243,34.0419771 219.993088,38.7635154 C218.061932,43.4850537 213.461184,46.5645158 208.36,46.55 C205.073614,46.6309056 201.893862,45.3810336 199.542191,43.0839656 C197.190521,40.7868976 195.866307,37.6373792 195.87,34.35 L195.87,34.35 Z M215.5,34.35 C215.567728,32.4115811 214.846137,30.5286198 213.500314,29.1319041 C212.154491,27.7351884 210.299597,26.944235 208.36,26.94 C204.18,26.94 201.29,30.24 201.29,34.35 C201.219498,36.2901195 201.939855,38.1757017 203.285983,39.5746198 C204.632112,40.9735378 206.488604,41.7658577 208.43,41.77 C212.6,41.77 215.5,38.46 215.5,34.35 Z" id="Shape" fill="#FFFFFF"></path>
                <path d="M226.55,22.56 L237.49,22.56 C239.739228,22.41234 241.955008,23.1641222 243.65,24.65 C244.738066,25.7227734 245.325818,27.2030373 245.27,28.73 C245.326238,30.8857924 244.112877,32.8741401 242.17,33.81 C244.9,34.81 246.58,36.44 246.58,39.68 C246.58,43.99 243.08,46.15 237.76,46.15 L226.55,46.15 L226.55,22.56 Z M236.38,32.1 C238.67,32.1 240.12,31.35 240.12,29.54 C240.12,27.99 238.9,27.11 236.72,27.11 L231.6,27.11 L231.6,32.11 L236.38,32.1 Z M237.76,41.6 C240.05,41.6 241.43,40.79 241.43,38.97 C241.43,37.39 240.25,36.41 237.59,36.41 L231.59,36.41 L231.59,41.6 L237.76,41.6 Z" id="Shape" fill="#FFFFFF"></path>
                <polygon id="Path" fill="#FFFFFF" points="252.78 22.56 258 22.56 258 46.15 252.82 46.15"></polygon>
                <path d="M263.82,34.35 C263.767312,31.0836858 265.04854,27.9370633 267.36789,25.6365851 C269.68724,23.3361069 272.844225,22.0806289 276.11,22.16 C279.567987,22.0457675 282.903187,23.4485245 285.24,26 L282.14,29.57 C280.32,27.92 278.77,26.94 276.08,26.94 C272.08,26.94 269.24,30.24 269.24,34.35 C269.24,38.46 272.04,41.77 276.08,41.77 C278.77,41.77 280.42,40.69 282.27,39 L285.57,42.54 C283.15,45.14 280.46,46.54 275.91,46.54 C272.671896,46.5870245 269.554033,45.314522 267.273557,43.0151837 C264.993082,40.7158454 263.746305,37.5876064 263.82,34.35 L263.82,34.35 Z" id="Path" fill="#FFFFFF"></path>
                <path d="M148.31,99.84 L148.31,104.84 L140.87,104.84 L140.87,60 L148.31,60 L148.31,77.82 C150.71,74.44 154.09,71.73 159.31,71.73 C167,71.73 174.44,77.82 174.44,88.73 C174.44,99.64 167.06,105.58 159.31,105.58 C154.91784,105.611253 150.796518,103.460672 148.31,99.84 L148.31,99.84 Z M166.89,88.59 C166.89,82.31 162.64,78.19 157.6,78.19 C152.56,78.19 148.13,82.37 148.13,88.71 C148.13,95.05 152.55,99.1 157.6,99.1 C162.65,99.1 166.89,95.11 166.89,88.59 Z" id="Shape" fill="#FFFFFF"></path>
                <path d="M180.29,88.71 C180.515934,79.3092709 188.201556,71.806143 197.605,71.806143 C207.008444,71.806143 214.694066,79.3092709 214.92,88.71 C214.92,97.93 207.54,105.62 197.51,105.62 C192.964507,105.7282 188.568839,103.991558 185.324711,100.805832 C182.080583,97.6201064 180.264384,93.2567085 180.29,88.71 L180.29,88.71 Z M207.48,88.71 C207.48,82.99 203.36,78.25 197.48,78.25 C191.6,78.25 187.7,82.93 187.7,88.71 C187.7,94.49 191.83,99.17 197.61,99.17 C203.67,99.17 207.48,94.43 207.48,88.71 Z" id="Shape" fill="#FFFFFF"></path>
                <path d="M220.7,88.71 C220.925934,79.3092709 228.611556,71.806143 238.015,71.806143 C247.418444,71.806143 255.104066,79.3092709 255.33,88.71 C255.33,97.93 247.95,105.62 237.92,105.62 C233.374507,105.7282 228.978839,103.991558 225.734711,100.805832 C222.490583,97.6201064 220.674384,93.2567085 220.7,88.71 L220.7,88.71 Z M247.89,88.71 C247.89,82.99 243.77,78.25 237.89,78.25 C232.01,78.25 228.11,82.93 228.11,88.71 C228.11,94.49 232.24,99.17 238.02,99.17 C244.07,99.17 247.89,94.43 247.89,88.71 Z" id="Shape" fill="#FFFFFF"></path>
                <path d="M260.25,100.64 L263.57,95.64 C266.601107,98.0707959 270.328229,99.4719694 274.21,99.64 C277.41,99.64 279.26,98.28 279.26,96.01 C279.26,93.74 276.12,92.75 272.55,91.7 L272,91.52 C267.2,90.1 261.85,88.13 261.85,81.8 C261.85,75.65 266.95,71.9 273.41,71.9 C277.655613,71.9769959 281.792333,73.2565009 285.34,75.59 L282.39,80.88 C279.657006,79.0731178 276.499462,78.0114108 273.23,77.8 C270.34,77.8 268.68,79.15 268.68,81.18 C268.68,83.4 271.81,84.38 275.38,85.55 L276,85.73 C280.73,87.21 286.08,89.36 286.08,95.33 C286.08,102.16 280.79,105.54 274.03,105.54 C269.023218,105.464169 264.180639,103.742207 260.25,100.64 Z" id="Path" fill="#FFFFFF"></path>
                <path d="M294.57,95.91 L294.57,78.81 L290.45,78.81 L290.45,72.41 L294.57,72.41 L294.57,63.49 L302,63.49 L302,72.41 L310.74,72.41 L310.74,78.81 L302,78.81 L302,94.74 C302,97.63 303.48,98.8 306,98.8 C307.603434,98.8049443 309.184548,98.4242424 310.61,97.69 L310.61,103.78 C308.567055,104.92697 306.252115,105.500523 303.91,105.44 C298.45,105.44 294.57,103 294.57,95.91 Z" id="Path" fill="#FFFFFF"></path>
            </g>
        </g>
    </g>
</svg>