<svg xmlns="http://www.w3.org/2000/svg" width="128" height="128" viewBox="0 0 128 128">
  <defs>
    <linearGradient id="boost_simple-a" x1="0%" y1="50%" y2="50%">
      <stop offset="0%" stop-color="#F46885"/>
      <stop offset="27.475%" stop-color="#F46885"/>
      <stop offset="100%" stop-color="#FDB93F"/>
    </linearGradient>
    <linearGradient id="boost_simple-b" x1="0%" x2="79.352%" y1="50%" y2="50%">
      <stop offset="0%" stop-color="#D45485"/>
      <stop offset="100%" stop-color="#FDB93F" stop-opacity="0"/>
    </linearGradient>
    <linearGradient id="boost_simple-c" x1="49.255%" x2="51.437%" y1="-1.531%" y2="149.424%">
      <stop offset="0%" stop-color="#F46885"/>
      <stop offset="18.069%" stop-color="#F46885"/>
      <stop offset="100%" stop-color="#FDB93F"/>
    </linearGradient>
  </defs>
  <g fill="none" fill-rule="evenodd" transform="translate(12)">
    <path fill="url(#boost_simple-a)" fill-rule="nonzero" d="M9.16944856e-15,75.9150618 C9.16944856e-15,47.2127361 23.2677701,23.9443208 51.9700957,23.9443208 C80.672744,23.9443208 103.940837,47.2127361 103.940837,75.9150618 C103.940837,104.61771 80.672744,127.885803 51.9700957,127.885803 C23.2677701,127.885803 0,104.61771 0,75.9150618 M30.2683294,76.7309711 C30.2683294,88.747001 40.009234,98.4879056 52.025264,98.4879056 C64.0419392,98.4879056 73.7825212,88.747001 73.7825212,76.7309711 C73.7825212,64.7149411 64.0419392,54.9740365 52.025264,54.9740365 C40.009234,54.9740365 30.2683294,64.7149411 30.2683294,76.7309711" transform="matrix(1 0 0 -1 0 151.83)"/>
    <path fill="url(#boost_simple-b)" fill-rule="nonzero" d="M29.9044134,71.3009321 L29.9044134,26.1416944 C29.9586155,26.1416944 30.0737913,26.1416944 30.2499408,26.1416944 C30.2499408,38.0667942 39.9908454,47.898629 52.0068753,47.898629 C64.0232279,47.898629 73.7638099,38.1577244 73.7638099,26.1416944 C73.7638099,25.3999881 73.7260632,24.6669925 73.6534734,23.9443208 L103.903736,23.9443208 C103.915673,24.4034109 103.922448,24.8637915 103.922448,25.3257852 C103.922448,54.0284335 80.6540328,77.2965262 51.9517071,77.2965262 C44.0603903,77.2965262 36.5817062,75.5340461 29.8827977,72.387198 C29.8957026,72.02683 29.9044134,71.6648489 29.9044134,71.3009321 Z" transform="matrix(1 0 0 -1 0 101.24)"/>
    <path fill="url(#boost_simple-c)" fill-rule="nonzero" d="M0,81.6973843 L6.71590487e-16,5.49489283 C6.71590487e-16,0.580725345 4.02667903,0.0174165413 8.99350348,0.0174165413 L30.2457467,0.0167902443 L30.2457467,53.74354 C30.2457467,69.1822592 17.5953612,81.6973843 1.99051254,81.6973843 L0,81.6973843 Z" transform="matrix(1 0 0 -1 0 81.714)"/>
  </g>
</svg>
