<?xml version="1.0" encoding="UTF-8"?>
<svg width="119px" height="220px" viewBox="0 0 119 220" version="1.1" xmlns="http://www.w3.org/2000/svg" xmlns:xlink="http://www.w3.org/1999/xlink">
    <!-- Generator: Sketch 53.2 (72643) - https://sketchapp.com -->
    <title>Boost_Logo_vertical</title>
    <desc>Created with Sketch.</desc>
    <defs>
        <linearGradient x1="-4.44630389%" y1="43.0194466%" x2="95.7895871%" y2="43.0194466%" id="linearGradient-1">
            <stop stop-color="#F46885" offset="0%"></stop>
            <stop stop-color="#F46885" offset="27%"></stop>
            <stop stop-color="#FDB93F" offset="100%"></stop>
        </linearGradient>
        <linearGradient x1="2.35258359%" y1="30.681718%" x2="82.1414755%" y2="30.681718%" id="linearGradient-2">
            <stop stop-color="#D45485" offset="0%"></stop>
            <stop stop-color="#FDB93F" stop-opacity="0" offset="100%"></stop>
        </linearGradient>
        <linearGradient x1="59.2382302%" y1="97.8660038%" x2="59.518809%" y2="-52.5025854%" id="linearGradient-3">
            <stop stop-color="#F46885" offset="0%"></stop>
            <stop stop-color="#F46885" offset="18%"></stop>
            <stop stop-color="#FDB93F" offset="100%"></stop>
        </linearGradient>
    </defs>
    <g id="Page-1" stroke="none" stroke-width="1" fill="none" fill-rule="evenodd">
        <g id="Boost_Logo_vertical" transform="translate(-341.000000, -190.000000)" fill-rule="nonzero">
            <g transform="translate(341.000000, 190.000000)">
                <g id="Group-4" transform="translate(0.000000, 156.000000)" fill="#20274F">
                    <g id="Group-2" transform="translate(9.100000, 0.000000)">
                        <polygon id="Path" points="6.342 10.6618588 1.77635684e-15 0.742917635 4.249 0.742917635 8.183 7.29538822 12.201 0.742917635 16.331 0.742917635 9.989 10.592447 9.989 17.1171529 6.356 17.1171529"></polygon>
                        <path d="M17.962,8.92656469 C17.8679797,5.38758733 19.9466092,2.14525368 23.2181525,0.727797042 C26.4896958,-0.6896596 30.3012202,0.000655979024 32.8562114,2.47337219 C35.4112027,4.94608841 36.199737,8.70770191 34.8501487,11.9852234 C33.5005603,15.2627448 30.2821994,17.4020483 26.712,17.3948 C24.4103326,17.4528614 22.1826797,16.5861476 20.5349762,14.9915028 C18.8872726,13.3968581 17.9593666,11.2096273 17.962,8.92656469 L17.962,8.92656469 Z M31.703,8.92656469 C31.7503729,7.58227439 31.2462064,6.27635277 30.3056548,5.30707926 C29.3651032,4.33780574 28.0685014,3.78796838 26.712,3.78315293 C25.3559327,3.77969495 24.057838,4.3281597 23.1210314,5.30039178 C22.1842248,6.27262385 21.6907813,7.58344451 21.756,8.92656469 C21.7086285,10.2726963 22.2135332,11.5803829 23.1553974,12.5509577 C24.0972615,13.5215325 25.3956429,14.0721012 26.754,14.0769176 C29.701,14.0769176 31.703,11.7793882 31.703,8.92656469 L31.703,8.92656469 Z" id="Shape"></path>
                        <path d="M38.71,8.92656469 C38.6159699,5.38695652 40.6953549,2.14417127 43.9677685,0.727114246 C47.2401821,-0.689942781 51.0522739,0.00164951572 53.6067224,2.47581986 C56.161171,4.94999021 56.9479704,8.71276059 55.5961613,11.9900636 C54.2443522,15.2673667 51.0238286,17.4048757 47.453,17.3948 C45.1525301,17.450958 42.9267032,16.5833998 41.2805339,14.9889643 C39.6343646,13.3945289 38.7074152,11.2083926 38.71,8.92656469 L38.71,8.92656469 Z M52.451,8.92656469 C52.4984097,7.58107394 51.9932959,6.27407727 51.0512197,5.30459226 C50.1091434,4.33510725 48.810718,3.78609254 47.453,3.78315293 C44.527,3.78315293 42.504,6.07374116 42.504,8.92656469 C42.4546485,10.2732359 42.9588983,11.5820518 43.9011884,12.5530655 C44.8434785,13.5240792 46.143023,14.0740424 47.502,14.0769176 C50.421,14.0769176 52.451,11.7793882 52.451,8.92656469 Z" id="Shape"></path>
                        <path d="M60.186,0.742917635 L67.844,0.742917635 C69.4184599,0.640424195 70.9695054,1.16224953 72.156,2.19362352 C72.9176463,2.93825446 73.3290726,3.96573175 73.29,5.02562352 C73.3293669,6.52199706 72.4800137,7.90214429 71.12,8.55174116 C73.031,9.24585881 74.207,10.3772706 74.207,12.6262118 C74.207,15.6178588 71.757,17.1171529 68.033,17.1171529 L60.186,17.1171529 L60.186,0.742917635 Z M67.067,7.36479999 C68.67,7.36479999 69.685,6.84421175 69.685,5.58785881 C69.685,4.51197646 68.831,3.90115293 67.305,3.90115293 L63.721,3.90115293 L63.721,7.37174116 L67.067,7.36479999 Z M68.033,13.9589176 C69.636,13.9589176 70.602,13.3966823 70.602,12.1333882 C70.602,11.0366823 69.776,10.356447 67.914,10.356447 L63.714,10.356447 L63.714,13.9589176 L68.033,13.9589176 Z" id="Shape"></path>
                        <polygon id="Path" points="78.547 0.742917635 82.201 0.742917635 82.201 17.1171529 78.575 17.1171529"></polygon>
                        <path d="M86.275,8.92656469 C86.2381186,6.65935837 87.1349782,4.47523215 88.7585232,2.87842965 C90.3820683,1.28162714 92.5919577,0.410177687 94.878,0.465270576 C97.2985906,0.385979805 99.6332312,1.35965816 101.269,3.13068234 L99.099,5.60868234 C97.825,4.46338822 96.74,3.78315293 94.857,3.78315293 C92.057,3.78315293 90.069,6.07374116 90.069,8.92656469 C90.069,11.7793882 92.029,14.0769176 94.857,14.0769176 C96.74,14.0769176 97.895,13.3272706 99.19,12.1542118 L101.5,14.6113882 C99.806,16.4160941 97.923,17.3878588 94.738,17.3878588 C92.4713274,17.4204994 90.2888233,16.5372329 88.6924902,14.9412216 C87.0961572,13.3452104 86.2234132,11.1738445 86.275,8.92656469 L86.275,8.92656469 Z" id="Path"></path>
                    </g>
                    <g id="Group-3" transform="translate(-0.000000, 32.070588)">
                        <path d="M5.208,27.6536471 L5.208,31.1242353 L0,31.1242353 L0,-1.77635684e-14 L5.208,-1.77635684e-14 L5.208,12.3691765 C6.888,10.0230588 9.254,8.142 12.908,8.142 C18.291,8.142 23.499,12.3691765 23.499,19.942 C23.499,27.5148235 18.333,31.6378824 12.908,31.6378824 C9.83348832,31.6595758 6.94856279,30.1668197 5.208,27.6536471 L5.208,27.6536471 Z M18.214,19.8448235 C18.214,15.4857647 15.239,12.626 11.711,12.626 C8.183,12.626 5.082,15.5274118 5.082,19.9281176 C5.082,24.3288235 8.176,27.14 11.711,27.14 C15.246,27.14 18.214,24.3704706 18.214,19.8448235 Z" id="Shape"></path>
                        <path d="M27.594,19.9281176 C27.7521538,13.4029057 33.1320894,8.1948522 39.7145,8.1948522 C46.2969106,8.1948522 51.6768462,13.4029057 51.835,19.9281176 C51.835,26.3278824 46.669,31.6656471 39.648,31.6656471 C36.4661549,31.7407507 33.3891872,30.5353169 31.1182978,28.3240483 C28.8474084,26.1127797 27.5760685,23.0840682 27.594,19.9281176 L27.594,19.9281176 Z M46.627,19.9281176 C46.627,15.9577647 43.743,12.6676471 39.627,12.6676471 C35.511,12.6676471 32.781,15.9161176 32.781,19.9281176 C32.781,23.9401176 35.672,27.1885882 39.718,27.1885882 C43.96,27.1885882 46.627,23.8984706 46.627,19.9281176 Z" id="Shape"></path>
                        <path d="M55.881,19.9281176 C56.0391538,13.4029057 61.4190894,8.1948522 68.0015,8.1948522 C74.5839106,8.1948522 79.9638462,13.4029057 80.122,19.9281176 C80.122,26.3278824 74.956,31.6656471 67.935,31.6656471 C64.7531549,31.7407507 61.6761872,30.5353169 59.4052978,28.3240483 C57.1344084,26.1127797 55.8630685,23.0840682 55.881,19.9281176 L55.881,19.9281176 Z M74.914,19.9281176 C74.914,15.9577647 72.03,12.6676471 67.914,12.6676471 C63.798,12.6676471 61.068,15.9161176 61.068,19.9281176 C61.068,23.9401176 63.959,27.1885882 68.005,27.1885882 C72.24,27.1885882 74.914,23.8984706 74.914,19.9281176 Z" id="Shape"></path>
                        <path d="M83.566,28.2089412 L85.89,24.7383529 C88.0117752,26.4256112 90.6207603,27.3981905 93.338,27.5148235 C95.578,27.5148235 96.873,26.5708235 96.873,24.9951765 C96.873,23.4195294 94.675,22.7323529 92.176,22.0035294 L91.791,21.8785882 C88.431,20.8929412 84.686,19.5255294 84.686,15.1317647 C84.686,10.8629412 88.256,8.26 92.778,8.26 C95.7499294,8.31344423 98.6456329,9.2015712 101.129,10.8212941 L99.064,14.4931765 C97.1509045,13.2389877 94.9406235,12.5020381 92.652,12.3552941 C90.629,12.3552941 89.467,13.2923529 89.467,14.7014118 C89.467,16.2423529 91.658,16.9225882 94.157,17.7347059 L94.591,17.8596471 C97.902,18.8869412 101.647,20.3792941 101.647,24.5231765 C101.647,29.264 97.944,31.6101176 93.212,31.6101176 C89.7072529,31.5574819 86.3174475,30.3622376 83.566,28.2089412 Z" id="Path"></path>
                        <path d="M107.59,24.9257647 L107.59,13.0563529 L104.706,13.0563529 L104.706,8.614 L107.59,8.614 L107.59,2.42247059 L112.791,2.42247059 L112.791,8.614 L118.909,8.614 L118.909,13.0563529 L112.791,13.0563529 L112.791,24.1136471 C112.791,26.1196471 113.827,26.9317647 115.591,26.9317647 C116.713404,26.9351967 117.820183,26.6709447 118.818,26.1612941 L118.818,30.3884706 C117.387938,31.1846029 115.76748,31.5827157 114.128,31.5407059 C110.306,31.5407059 107.59,29.8470588 107.59,24.9257647 Z" id="Path"></path>
                    </g>
                </g>
                <g id="Logo---Design-System-white---1-Copy" transform="translate(8.000000, 0.000000)">
                    <g id="boost_landscape_dark">
                        <g id="Group">
                            <path d="M0,74.2 C3.98032042e-07,94.7516366 12.3805417,113.279439 31.3681652,121.143275 C50.3557887,129.007111 72.2108599,124.65819 86.7416313,110.124559 C101.272403,95.5909268 105.617022,73.735 97.7494483,54.7489247 C89.8818748,35.7628495 71.3516362,23.3859552 50.8,23.39 C22.7423172,23.3955221 -5.43404733e-07,46.1423166 5.64104319e-15,74.2 M29.59,73.4 C29.59,61.6529034 39.1129034,52.13 50.86,52.13 C62.6070966,52.13 72.13,61.6529034 72.13,73.4 C72.13,85.1470966 62.6070966,94.67 50.86,94.67 C45.2188453,94.67 39.8087375,92.42906 35.8198388,88.4401612 C31.83094,84.4512625 29.59,79.0411547 29.59,73.4" id="Shape" fill="url(#linearGradient-1)"></path>
                            <path d="M29.23,29.25 L29.23,73.4 L29.57,73.4 C29.57,61.6529034 39.0929034,52.13 50.84,52.13 C62.5870966,52.13 72.11,61.6529034 72.11,73.4 C72.11,74.12 72.11,74.84 72,75.55 L101.57,75.55 C101.57,75.1 101.57,74.65 101.57,74.19 C101.563167,56.8110668 92.6761474,40.6406755 78.008705,31.3190072 C63.3412626,21.9973389 44.9274702,20.8171173 29.19,28.19 C29.22,28.54 29.23,28.9 29.23,29.25 Z" id="Path" fill="url(#linearGradient-2)"></path>
                            <path d="M0,-0.000187266758 L0,74.49 C0,79.3 3.94,79.85 8.79,79.85 L29.57,79.85 L29.57,27.33 C29.4928598,12.1743425 17.1557527,-0.0553686989 2,3.04969808e-15 L0,-0.000187266758 Z" id="Path" fill="url(#linearGradient-3)"></path>
                        </g>
                    </g>
                </g>
            </g>
        </g>
    </g>
</svg>