<?xml version="1.0" encoding="UTF-8"?>
<svg width="199px" height="268px" viewBox="0 0 199 268" version="1.1" xmlns="http://www.w3.org/2000/svg" xmlns:xlink="http://www.w3.org/1999/xlink">
    <!-- Generator: Sketch 52.5 (67469) - http://www.bohemiancoding.com/sketch -->
    <title>1</title>
    <desc>Created with Sketch.</desc>
    <defs>
        <filter x="-22.8%" y="-16.2%" width="146.2%" height="132.5%" filterUnits="objectBoundingBox" id="filter-1">
            <feOffset dx="0" dy="5" in="SourceAlpha" result="shadowOffsetOuter1"></feOffset>
            <feGaussianBlur stdDeviation="7.5" in="shadowOffsetOuter1" result="shadowBlurOuter1"></feGaussianBlur>
            <feColorMatrix values="0 0 0 0 0   0 0 0 0 0   0 0 0 0 0  0 0 0 0.1 0" type="matrix" in="shadowBlurOuter1" result="shadowMatrixOuter1"></feColorMatrix>
            <feMerge>
                <feMergeNode in="shadowMatrixOuter1"></feMergeNode>
                <feMergeNode in="SourceGraphic"></feMergeNode>
            </feMerge>
        </filter>
    </defs>
    <g id="Page-1" stroke="none" stroke-width="1" fill="none" fill-rule="evenodd">
        <g id="1" filter="url(#filter-1)" transform="translate(14.000000, 9.000000)">
            <g id="3" transform="translate(0.738840, 176.832250)">
                <g id="Rectangle-18" fill="#FFFFFF">
                    <g id="path-1-link">
                        <g id="path-1">
                            <g id="path-1-link">
                                <rect id="path-1" x="0" y="0" width="169.412214" height="62.4297264" rx="8.1"></rect>
                            </g>
                        </g>
                    </g>
                </g>
                <rect id="Rectangle" fill="#1B3554" opacity="0.300000012" x="58.9620104" y="12.9233511" width="94.8888596" height="6.54440537" rx="1.9722458"></rect>
                <rect id="Rectangle-Copy" fill="#1B3554" opacity="0.300000012" x="58.9620104" y="24.8525983" width="69.8849729" height="6.54440537" rx="1.9722458"></rect>
                <rect id="Rectangle-Copy-2" fill="#1B3554" opacity="0.149999991" x="58.9620104" y="42.7464692" width="27.1352898" height="6.54440537" rx="1.9722458"></rect>
                <ellipse id="Oval-8" fill="#BAC2CB" cx="30.391452" cy="23.2231106" rx="15.4011104" ry="15.2702791"></ellipse>
                <path d="M27.921446,28.889221 C28.2145145,29.1807493 28.5975272,29.3261407 28.9812897,29.3261407 C29.365052,29.3261407 29.7480649,29.1807493 30.0411333,28.889221 L37.5364915,21.4332551 C38.1218791,20.8509443 38.1218791,19.9070189 37.5364915,19.3247079 C36.9511041,18.7423969 36.0021917,18.7423969 35.4168042,19.3247079 L28.9812897,25.7256547 L25.5439184,22.3070943 C24.958531,21.7247833 24.0096185,21.7247833 23.4242311,22.3070943 C22.8388436,22.8894053 22.8388436,23.8333305 23.4242311,24.4156415 L27.921446,28.889221 Z" id="Shape" fill="#FFFFFF"></path>
            </g>
            <g id="2" transform="translate(0.738840, 104.264417)">
                <g id="Rectangle-18" fill="#FFFFFF">
                    <g id="path-3-link">
                        <g id="path-3">
                            <g id="path-3-link">
                                <rect id="path-3" x="0" y="0" width="169.412214" height="62.4297264" rx="8.1"></rect>
                            </g>
                        </g>
                    </g>
                </g>
                <rect id="Rectangle" fill="#1B3554" opacity="0.300000012" x="58.9620104" y="12.9233511" width="94.8888596" height="6.54440537" rx="1.9722458"></rect>
                <rect id="Rectangle-Copy" fill="#1B3554" opacity="0.300000012" x="58.9620104" y="24.8525983" width="69.8849729" height="6.54440537" rx="1.9722458"></rect>
                <rect id="Rectangle-Copy-2" fill="#1B3554" opacity="0.149999991" x="58.9620104" y="42.7464692" width="27.1352898" height="6.54440537" rx="1.9722458"></rect>
                <ellipse id="Oval-8" fill="#BAC2CB" cx="30.391452" cy="23.2231106" rx="15.4011104" ry="15.2702791"></ellipse>
                <path d="M27.921446,28.889221 C28.2145145,29.1807493 28.5975272,29.3261407 28.9812897,29.3261407 C29.365052,29.3261407 29.7480649,29.1807493 30.0411333,28.889221 L37.5364915,21.4332551 C38.1218791,20.8509443 38.1218791,19.9070189 37.5364915,19.3247079 C36.9511041,18.7423969 36.0021917,18.7423969 35.4168042,19.3247079 L28.9812897,25.7256547 L25.5439184,22.3070943 C24.958531,21.7247833 24.0096185,21.7247833 23.4242311,22.3070943 C22.8388436,22.8894053 22.8388436,23.8333305 23.4242311,24.4156415 L27.921446,28.889221 Z" id="Shape" fill="#FFFFFF"></path>
            </g>
            <g id="Group" transform="translate(0.738840, 0.666048)">
                <g id="Rectangle-18" fill="#FFFFFF">
                    <g id="path-5-link">
                        <g id="path-5">
                            <g id="path-5-link">
                                <path d="M14.4906635,0.293960533 L155.920907,20.2626617 C163.371951,21.3968956 169.412214,26.57657 169.412214,31.8237238 L169.412214,66.8741477 C169.412214,72.1213014 163.371951,77.2933838 155.920907,78.4182933 L15.4900197,93.2469467 C8.03897631,94.1935796 9.12489639e-16,87.9724816 0,78.1334698 L0,15.3922372 C8.6272342e-16,5.55322525 7.03962021,-0.661085712 14.4906635,0.293960533 Z" id="path-5"></path>
                            </g>
                        </g>
                    </g>
                </g>
                <path d="M62.2515011,28.9083849 L150.56138,35.0164689 C152.378115,35.1484383 153.85087,36.3834678 153.85087,37.7747547 C153.85087,39.1660414 152.378115,40.2247438 150.56138,40.1395811 L62.2515011,36.1975373 C60.4347655,36.1205064 58.9620104,34.4093121 58.9620104,32.3753295 C58.9620104,30.3413468 60.4347655,28.7890398 62.2515011,28.9083849 Z" id="Rectangle" fill="#1B3554" opacity="0.300000012"></path>
                <path d="M62.2515011,42.195169 L125.557493,43.7220013 C127.374228,43.7674202 128.846983,45.0748215 128.846983,46.6420824 C128.846983,48.2093437 127.374228,49.4799749 125.557493,49.4801162 L62.2515011,49.4843213 C60.4347655,49.4844215 58.9620104,47.8356332 58.9620104,45.8016506 C58.9620104,43.7676679 60.4347655,42.1529549 62.2515011,42.195169 Z" id="Rectangle-Copy" fill="#1B3554" opacity="0.300000012"></path>
                <path d="M62.2515011,62.1253451 L82.8078094,61.2828714 C84.6245451,61.2074407 86.0973004,62.6516984 86.0973004,64.5088544 C86.0973004,66.3660104 84.6245451,67.9680703 82.8078094,68.0869304 L62.2515011,69.4144974 C60.4347655,69.5302943 58.9620104,67.9751147 58.9620104,65.9411323 C58.9620104,63.9071495 60.4347655,62.1988276 62.2515011,62.1253451 Z" id="Rectangle-Copy-2" fill="#1B3554" opacity="0.149999991"></path>
                <path d="M32.5477794,58.1905789 C42.2444845,57.9873862 50.1052172,49.7913804 50.1052172,39.8865347 C50.1052172,29.9816892 42.2444845,21.4022816 32.5477794,20.7312046 C22.8510744,20.0682056 14.9903416,28.2705859 14.9903416,39.0444209 C14.9903416,49.8182561 22.8510744,58.3912891 32.5477794,58.1905789 Z" id="Oval-8" fill="#04CC99"></path>
                <path d="M29.7319449,46.3899561 C30.0660464,46.752098 30.5026853,46.9341286 30.9401787,46.9367798 C31.3776719,46.9394323 31.8143108,46.7634393 32.1484122,46.4076953 L40.6932042,37.50488 C41.3605525,36.8255057 41.3605525,35.6922832 40.6932042,34.9693065 C40.0258559,34.2440456 38.9440853,34.2035328 38.276737,34.8829737 L30.9401787,42.5036538 L27.021537,38.1904795 C26.3541887,37.4480384 25.272418,37.4175965 24.6050698,38.1265723 C23.9377215,38.8378206 23.9377215,40.0193073 24.6050698,40.7616995 L29.7319449,46.3899561 Z" id="Shape" fill="#FFFFFF"></path>
            </g>
        </g>
    </g>
</svg>