<?xml version="1.0" encoding="UTF-8"?>
<svg width="302px" height="268px" viewBox="0 0 302 268" version="1.1" xmlns="http://www.w3.org/2000/svg" xmlns:xlink="http://www.w3.org/1999/xlink">
    <!-- Generator: Sketch 52.5 (67469) - http://www.bohemiancoding.com/sketch -->
    <title>team</title>
    <desc>Created with Sketch.</desc>
    <defs>
        <path d="M105.936091,0.087820486 C108.005244,0.0292734953 110.236477,0 112.629787,0 C147.970301,0 186.39738,21.2765368 227.911024,63.8296103 C251.558457,97.8720691 255.131954,124.963043 238.631513,145.102533 C222.137127,165.234634 186.807276,183.150416 132.641962,198.849881 C122.878091,201.973232 112.47295,203.659148 101.674641,203.659148 C45.5212874,203.659148 0,158.068495 0,101.829574 C0,45.5906532 45.5212874,0 101.674641,0 C103.102187,0 104.522861,0.0294648655 105.936091,0.087820486 Z" id="path-1"></path>
        <linearGradient x1="64.7638847%" y1="27.3595669%" x2="50%" y2="50%" id="linearGradient-3">
            <stop stop-color="#6886B3" offset="0%"></stop>
            <stop stop-color="#90AADB" offset="100%"></stop>
        </linearGradient>
        <path d="M26.9147315,6.36239602 C26.9147315,10.4490684 25.1590774,25.0337804 26.9147315,29.4068971 C27.5103689,30.8903871 26.3597235,33.8290671 26.9147315,35.0023243 C28.966917,39.3405789 17.1605482,49.3548949 17.1605482,49.3548949 L13.5613044,81.4818654 L1.08869842,81.4818654 C1.08869842,81.4818654 3.89454748,52.2022769 2.54464767,49.3548949 C1.1947778,46.5075129 1.08869842,41.3447874 1.08869842,36.4892595 C1.08869842,31.6336496 1.08869842,21.8068513 4.05895107,17.4021535 C7.02920371,12.9974556 26.9147315,0.760816667 26.9147315,6.36239602 Z" id="path-4"></path>
        <linearGradient x1="50%" y1="0%" x2="50%" y2="100%" id="linearGradient-6">
            <stop stop-color="#A9C4E5" offset="0%"></stop>
            <stop stop-color="#7192C7" offset="100%"></stop>
        </linearGradient>
        <linearGradient x1="28.9899876%" y1="27.9637841%" x2="28.9899876%" y2="97.4056683%" id="linearGradient-7">
            <stop stop-color="#C4CFE2" offset="0%"></stop>
            <stop stop-color="#99AFD7" offset="100%"></stop>
        </linearGradient>
        <linearGradient x1="66.4059369%" y1="96.8038727%" x2="60.7470739%" y2="22.5656568%" id="linearGradient-8">
            <stop stop-color="#F4F8FF" offset="0%"></stop>
            <stop stop-color="#C3D8F5" offset="100%"></stop>
        </linearGradient>
        <linearGradient x1="43.6361052%" y1="85.265527%" x2="6.77392332%" y2="100%" id="linearGradient-9">
            <stop stop-color="#FFFFFF" stop-opacity="0.5" offset="0%"></stop>
            <stop stop-color="#AFC3E5" offset="100%"></stop>
        </linearGradient>
        <linearGradient x1="17.2373684%" y1="41.5235058%" x2="-5.57070234%" y2="14.0163926%" id="linearGradient-10">
            <stop stop-color="#FFFFFF" stop-opacity="0" offset="0%"></stop>
            <stop stop-color="#A1B8E3" offset="100%"></stop>
        </linearGradient>
        <path d="M39.0695357,4.31602045 C39.0695357,4.31602045 29.0254422,12.4758693 26.5338535,13.1617937 C24.0422648,13.8477182 7.84645679,20.7253325 6.89167392,22.8334239 C5.93689104,24.9413555 0.916715601,32.9064811 1.08416884,35.0569037 C1.25162208,37.207486 7.78636182,84.5787616 6.89167392,106.937917 C5.99698601,129.297072 6.89167392,126.256577 6.89167392,131.529761 C6.89167392,136.803104 3.10013049,144.016972 4.9959022,147.984439 C6.89167392,151.951906 10.149527,152.885428 15.1121738,154.019264 C20.0748206,155.1531 23.6546415,156.477825 30.714838,154.019264 C37.7751414,151.560703 41.7266529,157.157999 53.3990847,155.588712 C65.0715166,154.019264 75.0933685,158.970252 83.8792102,146.951719 C87.1100098,149.079618 88.7836867,147.675502 93.9408402,144.712481 C99.0978868,141.7493 98.7028853,131.200057 97.1568834,127.540569 C95.6108815,123.881081 88.6819958,120.040128 91.311418,111.893697 C93.9408402,103.747106 97.1568834,76.5776945 97.1568834,64.3153978 C97.1568834,52.0529414 104.205104,29.9377095 106.390443,22.8334239 C100.137893,18.0202919 73.0153871,2.70136651 67.8498931,1.10540218 C65.8302958,6.62442608 56.0105426,9.39831464 54.3932181,7.9271074 C52.7760004,6.45605991 53.7351675,18.3084632 53.7351675,18.3084632 C53.7351675,18.3084632 51.7920255,22.8334239 49.9721745,27.583139 C48.1523235,32.3330138 43.9536954,39.7740318 43.9536954,44.8957818 C40.1186313,40.944608 44.7829419,29.5525759 43.9536954,25.1383152 C42.999768,20.0608132 44.9075159,15.2639748 47.0088082,8.59913442 C43.9536954,7.86464898 43.684872,9.11701215 42.7378951,7.78845291 C40.2629875,4.31602045 39.0695357,4.31602045 39.0695357,4.31602045 Z" id="path-11"></path>
        <linearGradient x1="-30.2321633%" y1="83.8070478%" x2="83.6802978%" y2="73.1776026%" id="linearGradient-13">
            <stop stop-color="#EAF0F7" stop-opacity="0.115545743" offset="0%"></stop>
            <stop stop-color="#D1DDED" offset="100%"></stop>
        </linearGradient>
        <linearGradient x1="0%" y1="56.064794%" x2="57.5693573%" y2="20.6038007%" id="linearGradient-14">
            <stop stop-color="#E2E9F4" offset="0%"></stop>
            <stop stop-color="#E5EFFD" offset="100%"></stop>
        </linearGradient>
        <linearGradient x1="31.6087503%" y1="42.9700243%" x2="-16.9574129%" y2="61.3689591%" id="linearGradient-15">
            <stop stop-color="#FFFFFF" stop-opacity="0" offset="0%"></stop>
            <stop stop-color="#FFFFFF" offset="100%"></stop>
        </linearGradient>
        <path d="M105.998158,169.02661 C98.1742592,141.81206 94.9004649,122.402655 95.1851611,115.678132 C95.4698573,108.953609 103.070883,95.8733695 111.670721,96.6858858 C120.270606,97.4984022 122.092549,113.987045 123.875487,122.843559 C125.658426,131.700074 138.825589,177.203257 139.492326,183.611322 C140.159111,190.019278 134.322769,200.272117 126.867267,201.159754 C119.411766,202.047283 113.822057,196.241051 105.998158,169.02661 Z" id="path-16"></path>
        <filter x="-79.6%" y="-34.1%" width="258.0%" height="168.2%" filterUnits="objectBoundingBox" id="filter-17">
            <feGaussianBlur stdDeviation="18.5" in="SourceAlpha" result="shadowBlurInner1"></feGaussianBlur>
            <feOffset dx="-40" dy="14" in="shadowBlurInner1" result="shadowOffsetInner1"></feOffset>
            <feComposite in="shadowOffsetInner1" in2="SourceAlpha" operator="arithmetic" k2="-1" k3="1" result="shadowInnerInner1"></feComposite>
            <feColorMatrix values="0 0 0 0 0.631372549   0 0 0 0 0.721568627   0 0 0 0 0.890196078  0 0 0 0.137483016 0" type="matrix" in="shadowInnerInner1"></feColorMatrix>
        </filter>
        <linearGradient x1="50%" y1="0%" x2="50%" y2="100%" id="linearGradient-18">
            <stop stop-color="#B5CCEF" offset="0%"></stop>
            <stop stop-color="#E5EFFD" offset="100%"></stop>
        </linearGradient>
        <linearGradient x1="31.1750322%" y1="58.933311%" x2="49.752516%" y2="28.4521956%" id="linearGradient-19">
            <stop stop-color="#081E41" offset="0%"></stop>
            <stop stop-color="#3A4860" offset="100%"></stop>
        </linearGradient>
        <ellipse id="path-20" cx="31.0522457" cy="28.8291697" rx="28.5537892" ry="28.5972997"></ellipse>
        <filter x="-148.8%" y="-118.9%" width="397.7%" height="397.2%" filterUnits="objectBoundingBox" id="filter-22">
            <feOffset dx="0" dy="17" in="SourceAlpha" result="shadowOffsetOuter1"></feOffset>
            <feGaussianBlur stdDeviation="25.5" in="shadowOffsetOuter1" result="shadowBlurOuter1"></feGaussianBlur>
            <feColorMatrix values="0 0 0 0 0   0 0 0 0 0   0 0 0 0 0  0 0 0 0.0416666667 0" type="matrix" in="shadowBlurOuter1"></feColorMatrix>
        </filter>
        <linearGradient x1="19.6591829%" y1="10.4097304%" x2="35.6256825%" y2="60.9829464%" id="linearGradient-23">
            <stop stop-color="#000000" stop-opacity="0.288269928" offset="0%"></stop>
            <stop stop-color="#000000" stop-opacity="0" offset="100%"></stop>
        </linearGradient>
        <path d="M67.4053035,124.295345 C68.2495979,135.004157 68.97102,141.153321 69.5695699,142.742838 C70.1681197,144.332355 74.0960317,150.423075 81.3533058,161.014999 C80.9786904,162.268182 80.4027454,163.352104 79.6254705,164.266763 C78.5292254,165.556771 77.3900293,166.301745 76.5121386,166.87801 C75.0902493,165.680008 69.7436866,160.055087 60.4724503,150.003248 C59.6892796,144.505399 59.6892796,140.251049 60.4724503,137.240198 C61.255621,134.229348 63.5665721,129.914397 67.4053035,124.295345 Z" id="path-24"></path>
        <path d="M0,4.54309946 C0,5.5133189 1.4655152,9.71886369 1.91916044,14.8555129 C2.23859428,18.4724793 1.53094676,22.5511112 1.74298358,26.2869241 C2.08509144,32.314419 3.04284073,48.3007264 4.61623145,74.2458462 C5.68911179,75.0370669 6.83032668,75.5235915 8.0398761,75.7054201 C9.24942553,75.8872487 10.8448703,75.7158354 12.8262105,75.1911801 C15.1041475,57.4536032 16.7935799,46.417539 17.8945077,42.0829875 C18.6895201,38.9528802 18.0082731,32.125458 20.9278947,26.9322261 C21.5733851,25.7840702 22.1602444,24.5272354 22.6884728,23.1617217 L22.6884712,23.1617211 C24.6698828,18.0396098 24.729531,12.3732724 22.8563853,7.21058509 L20.2402135,0 C6.74673783,1.92646732 0,3.4408338 0,4.54309946 Z" id="path-25"></path>
        <linearGradient x1="89.2651436%" y1="83.2202103%" x2="79.8543348%" y2="25.681003%" id="linearGradient-27">
            <stop stop-color="#CFDDF3" stop-opacity="0.477723053" offset="0%"></stop>
            <stop stop-color="#A1B8E3" offset="100%"></stop>
        </linearGradient>
        <linearGradient x1="112.999777%" y1="45.115866%" x2="50%" y2="88.6153495%" id="linearGradient-28">
            <stop stop-color="#F3D8CF" stop-opacity="0.174422554" offset="0%"></stop>
            <stop stop-color="#000000" offset="100%"></stop>
        </linearGradient>
        <linearGradient x1="41.7005915%" y1="13.9922531%" x2="41.7005915%" y2="100%" id="linearGradient-29">
            <stop stop-color="#DCE4F2" offset="0%"></stop>
            <stop stop-color="#C8D2E7" offset="100%"></stop>
        </linearGradient>
        <linearGradient x1="50.494446%" y1="32.3730469%" x2="50.494446%" y2="98.267438%" id="linearGradient-30">
            <stop stop-color="#DCE4F2" offset="0%"></stop>
            <stop stop-color="#C0CBE2" offset="100%"></stop>
        </linearGradient>
        <linearGradient x1="76.5024701%" y1="87.9944211%" x2="20.6120218%" y2="12.0677904%" id="linearGradient-31">
            <stop stop-color="#99AFD7" offset="0%"></stop>
            <stop stop-color="#C3CEE1" offset="100%"></stop>
        </linearGradient>
        <path d="M0.0106246367,6.11011798 C0.233217822,6.74983858 2.21760169,8.46126831 2.70133178,10.3787999 C2.98901484,11.5191907 2.77227986,12.6624028 2.77227986,13.5430098 C2.77227986,15.9043299 3.62285542,15.8143521 5.43133738,15.4570018 C7.12474387,16.3780817 7.41919457,18.4417117 9.31058774,19.5151488 C11.2019809,20.588586 14.4691881,16.705606 15.5470556,17.8119919 C15.8990717,18.1733216 16.1011581,18.8641856 16.8064999,19.5151488 C17.2961589,19.9670574 17.4075908,21.1703123 17.1407956,23.1249134 C21.4121852,22.5497471 23.7910026,21.2144087 24.2772478,19.1188983 C23.4896169,17.6607282 21.6660908,13.129946 21.6660908,11.8937468 C21.6660908,10.6575475 24.6788476,5.9419057 16.4683347,1.36623433 C8.25782175,-3.20943704 -0.344348753,5.08994393 0.0106246367,6.11011798 Z" id="path-32"></path>
        <linearGradient x1="50%" y1="100%" x2="50%" y2="3.061617e-15%" id="linearGradient-34">
            <stop stop-color="#EDF3FD" offset="0%"></stop>
            <stop stop-color="#FFFFFF" offset="100%"></stop>
        </linearGradient>
        <path d="M21.7126507,15.9975391 C17.0482087,22.1011753 14.5996974,25.1529934 14.3671168,25.1529934 C14.0182458,25.1529934 5.98312402,13.2530906 5.98312402,12.7097526 C5.98312402,12.1664145 6.55622401,10.0357852 4.9661548,7.76295942 C3.37608559,5.49013366 2.40528981,1.50911993 1.56859919,0.800339049 C0.731908566,0.0915581686 0.725910784,-0.217414359 0.305316304,0.166194788 C-0.115278176,0.549803934 -0.0880382484,0.878352052 0.305316304,1.71543552 C0.698670856,2.55251898 1.56859919,4.95832232 1.56859919,5.57749917 C1.56859919,6.19667602 1.16624796,8.40249354 1.56859919,9.24243394 C1.97095042,10.0823744 1.58643786,13.3504542 2.08600314,15.0155308 C2.58556841,16.6806075 11.643312,33.5730094 14.3010793,33.210178 C16.0729241,32.9682904 20.0883561,29.507497 26.347375,22.8277978 C27.3167245,19.8838748 27.0059434,17.8613895 25.4150317,16.7603421 C23.8241199,15.6592947 22.5899929,15.405027 21.7126507,15.9975391 Z" id="path-35"></path>
        <linearGradient x1="3.21749237%" y1="50%" x2="81.4761324%" y2="50%" id="linearGradient-37">
            <stop stop-color="#D9E1F1" offset="0%"></stop>
            <stop stop-color="#BBC7DF" offset="100%"></stop>
        </linearGradient>
        <linearGradient x1="0%" y1="36.5977503%" x2="72.482512%" y2="73.5971602%" id="linearGradient-38">
            <stop stop-color="#D9E1F1" offset="0%"></stop>
            <stop stop-color="#FCFCFE" offset="100%"></stop>
        </linearGradient>
        <linearGradient x1="-8.95546568%" y1="107.033068%" x2="114.296249%" y2="59.2322695%" id="linearGradient-39">
            <stop stop-color="#F3DFD1" stop-opacity="0.126387002" offset="0%"></stop>
            <stop stop-color="#A5B2CA" offset="100%"></stop>
        </linearGradient>
        <radialGradient cx="50%" cy="1.74148935%" fx="50%" fy="1.74148935%" r="37.9875646%" gradientTransform="translate(0.500000,0.017415),scale(0.925967,1.000000),rotate(90.000000),scale(1.000000,2.667525),translate(-0.500000,-0.017415)" id="radialGradient-40">
            <stop stop-color="#303E57" offset="0%"></stop>
            <stop stop-color="#081E41" offset="100%"></stop>
        </radialGradient>
        <path d="M2.21523749,0.249970408 C2.21523749,0.91177112 3.64421799,2.9004441 6.2037361,2.9004441 C8.76325422,2.9004441 16.4238173,0.848807379 18.9632276,7.2621142 C21.5026378,13.675421 17.9972569,13.9771564 22.1339186,18.6094888 C26.2705804,23.2418212 26.4285328,35.7830537 16.3161345,32.7839626 C6.2037361,29.7848715 7.79754809,16.15254 7.79754809,12.5153618 C7.79754809,8.87818357 3.99703483,7.57811197 0.586637015,6.7579479 C-1.27191196,2.9004441 2.21523749,-0.411830305 2.21523749,0.249970408 Z" id="path-41"></path>
        <path d="M5.3358589,25.7658722 C4.62594888,22.9308533 0.51678035,7.77006044 1.45546196,3.96753503 C2.39414358,0.165009609 9.61891435,-1.6814389 10.3744761,2.81571882 C10.8499292,5.64564943 11.868157,13.3038533 13.4291595,25.7903305 L13.4291624,25.7903302 C13.6146314,27.2738987 13.3524584,28.7790437 12.6763018,30.1125303 L6.55587185,42.1829767 L3.91486153,47.0351677 C2.27526182,46.7799323 1.07342618,45.6735369 0.309354612,43.7159815 C-0.0644165426,42.7583779 0.167027192,41.6478654 0.701353706,40.5008538 C2.99896352,35.5686913 5.91182392,28.065983 5.3358589,25.7658722 Z" id="path-43"></path>
        <linearGradient x1="46.8853726%" y1="24.146356%" x2="-17.2552992%" y2="100%" id="linearGradient-45">
            <stop stop-color="#D9E1F1" offset="0%"></stop>
            <stop stop-color="#B4C1DB" offset="100%"></stop>
        </linearGradient>
        <linearGradient x1="139.364173%" y1="31.9049427%" x2="3.0552666%" y2="98.507159%" id="linearGradient-46">
            <stop stop-color="#C2CCDF" offset="0%"></stop>
            <stop stop-color="#DDE4F2" offset="100%"></stop>
        </linearGradient>
        <linearGradient x1="0%" y1="50%" x2="148.209635%" y2="55.2897135%" id="linearGradient-47">
            <stop stop-color="#05C896" offset="0%"></stop>
            <stop stop-color="#0AA981" offset="100%"></stop>
        </linearGradient>
        <ellipse id="path-48" cx="28.5875521" cy="28.5972997" rx="28.5537892" ry="28.5972997"></ellipse>
        <filter x="-148.8%" y="-118.9%" width="397.7%" height="397.2%" filterUnits="objectBoundingBox" id="filter-50">
            <feOffset dx="0" dy="17" in="SourceAlpha" result="shadowOffsetOuter1"></feOffset>
            <feGaussianBlur stdDeviation="25.5" in="shadowOffsetOuter1" result="shadowBlurOuter1"></feGaussianBlur>
            <feColorMatrix values="0 0 0 0 0   0 0 0 0 0   0 0 0 0 0  0 0 0 0.0416666667 0" type="matrix" in="shadowBlurOuter1"></feColorMatrix>
        </filter>
        <path d="M1.3467962,2.79850872 C1.3467962,6.7931786 -1.90135892,14.6210507 2.3342504,16.6505271 C5.15798996,18.0035113 7.81839073,15.1663947 10.3154527,8.13917722 C10.100217,2.97902266 8.71620771,0.398945381 6.16342479,0.398945381 C2.3342504,0.398945381 1.3467962,-1.19616115 1.3467962,2.79850872 Z" id="path-51"></path>
        <linearGradient x1="-25.8029357%" y1="100%" x2="42.445841%" y2="30.4265738%" id="linearGradient-53">
            <stop stop-color="#DCE4F2" offset="0%"></stop>
            <stop stop-color="#C2CDE3" offset="100%"></stop>
        </linearGradient>
        <linearGradient x1="-25.8029357%" y1="100%" x2="41.2238106%" y2="31.6723227%" id="linearGradient-54">
            <stop stop-color="#EDE5EB" offset="0%"></stop>
            <stop stop-color="#DBE2EF" offset="100%"></stop>
        </linearGradient>
        <path d="M31.55093,0.127826278 C37.0970479,20.7116111 40.2311358,33.345336 40.9531937,38.0290008 C42.0362806,45.0544981 44.6867319,68.8019305 44.3125923,72.6317602 C42.5021707,74.5017662 39.2407872,73.3820979 38.6726778,73.0391086 C38.1045684,72.6961193 34.6043924,53.1576626 31.55093,45.5781595 C28.4974677,37.9986564 21.6260332,31.0228733 17.0982668,23.3969811 C17.0982668,26.7059527 15.9328331,32.7880295 13.6019657,41.6432115 C10.2031549,57.281077 7.92544224,66.3656314 6.76882772,68.8968747 C5.94560531,70.2438983 1.78981476,69.2561455 0.177895626,68.8968747 C0.177895626,65.3391974 3.65337025,47.3652924 3.65337025,41.1256131 C3.65337025,34.8859338 2.69220117,23.5778794 2.33310047,18.9421789 C1.97399977,14.3064784 1.09661956,5.31277658 2.33310047,0.127826278 C4.42271737,0.127826278 14.1619939,0.127826278 31.55093,0.127826278 Z" id="path-55"></path>
        <linearGradient x1="50.4291761%" y1="11.68811%" x2="65.0303642%" y2="78.0458471%" id="linearGradient-57">
            <stop stop-color="#C2CDE0" offset="0%"></stop>
            <stop stop-color="#ADBEDE" offset="100%"></stop>
        </linearGradient>
        <path d="M10.217029,0.216202943 C10.9663896,1.68671329 11.975739,2.73411741 13.2450772,3.3584153 C14.5144154,3.98271319 15.466258,4.44759157 16.100605,4.75305044 L15.2911602,7.93344516 C16.2969658,11.0513246 16.5667807,13.135853 16.100605,14.1870303 C15.4013414,15.7637962 13.2450772,16.8113419 11.9900755,18.2172272 C11.1534076,19.1544841 10.3483121,21.2129049 9.57478901,24.3924896 L1.3030155,24.3924896 L0.928469487,18.2172272 C-0.542223137,12.2767701 -0.029977513,7.78871117 2.46520636,4.75305044 C4.96039023,1.71738971 7.54433113,0.205107214 10.217029,0.216202943 Z" id="path-58"></path>
        <linearGradient x1="50%" y1="0%" x2="80.7999115%" y2="55.260103%" id="linearGradient-60">
            <stop stop-color="#414E65" offset="0%"></stop>
            <stop stop-color="#081E41" offset="100%"></stop>
        </linearGradient>
        <linearGradient x1="-1.11022302e-14%" y1="50%" x2="75.5130009%" y2="33.4689142%" id="linearGradient-61">
            <stop stop-color="#EDF3FD" offset="0%"></stop>
            <stop stop-color="#D6E3FA" offset="100%"></stop>
        </linearGradient>
        <linearGradient x1="50%" y1="100%" x2="50%" y2="0%" id="linearGradient-62">
            <stop stop-color="#EDF3FD" offset="0%"></stop>
            <stop stop-color="#D6E3FA" offset="100%"></stop>
        </linearGradient>
        <path d="M18.4371411,0.36534682 C22.3572699,1.41324046 25.4723032,3.32170572 27.782241,6.09074263 C31.2471477,10.244298 30.4749964,22.7403802 31.4563952,30.177631 C32.4377941,37.6148818 36.7080073,43.0209162 30.11212,47.2180387 C23.5162327,51.4151611 4.86698137,50.4620706 3.34184252,47.2180387 C2.32508328,45.0553507 1.23724765,37.327947 0.0783356177,24.0358278 C0.0783356177,12.0724377 0.772725213,5.58650691 2.1615044,4.57803546 C3.55028359,3.56956402 5.86570765,2.0908218 9.10777657,0.141808813 C9.03508264,0.438363003 9.7806967,0.73357631 11.3446188,1.02744873 C12.9085408,1.32132115 15.2727149,1.10062052 18.4371411,0.36534682 Z" id="path-63"></path>
        <linearGradient x1="44.7356789%" y1="57.7816012%" x2="67.4239091%" y2="23.7180568%" id="linearGradient-65">
            <stop stop-color="#CFDDF3" offset="0%"></stop>
            <stop stop-color="#A1B8E3" offset="100%"></stop>
        </linearGradient>
        <linearGradient x1="86.2225509%" y1="231.608002%" x2="56.9641755%" y2="-57.1406441%" id="linearGradient-66">
            <stop stop-color="#CFDDF3" offset="0%"></stop>
            <stop stop-color="#A1B8E3" offset="100%"></stop>
        </linearGradient>
        <path d="M9.80555167,27.8257325 L15.1817721,31.8389555 C21.0467353,23.2010537 24.2375533,18.290453 24.7542261,17.1071533 C25.5292353,15.3322037 24.7418287,12.3480453 24.7392419,11.354994 C24.736655,10.3619428 25.3104138,8.1728581 26.1508914,7.53238034 C26.991369,6.89190258 27.0912658,7.22257786 27.6020633,7.22392423 C30.2450439,8.19902138 34.3050093,3.84345127 35.3003091,3.47592971 C36.2956088,3.10840815 36.6321232,5.28225326 36.6497413,6.61118871 C36.6673593,7.94012417 36.0914192,11.0645147 35.0859878,12.8133155 C34.0805564,14.5621164 30.7308389,17.3431461 30.7328538,18.1166118 C30.7348687,18.8900774 25.1868727,30.5753526 23.1754427,35.3015962 C21.1640127,40.0278398 19.2637553,43.2176155 15.207932,41.8812272 C12.5040497,40.9903016 8.67924409,38.2736551 3.73351504,33.7312877 C4.69180913,31.4256706 5.63743645,29.9107388 6.57039698,29.1864923 C7.50335752,28.4622457 8.58174241,28.0086592 9.80555167,27.8257325 Z" id="path-67"></path>
        <linearGradient x1="22.1069515%" y1="11.2137508%" x2="22.1069515%" y2="79.6109734%" id="linearGradient-69">
            <stop stop-color="#D6E3FA" offset="0%"></stop>
            <stop stop-color="#E3EDFE" offset="100%"></stop>
        </linearGradient>
        <ellipse id="path-70" cx="94.3046766" cy="60.1267887" rx="28.5537892" ry="28.5972997"></ellipse>
        <filter x="-148.8%" y="-118.9%" width="397.7%" height="397.2%" filterUnits="objectBoundingBox" id="filter-72">
            <feOffset dx="0" dy="17" in="SourceAlpha" result="shadowOffsetOuter1"></feOffset>
            <feGaussianBlur stdDeviation="25.5" in="shadowOffsetOuter1" result="shadowBlurOuter1"></feGaussianBlur>
            <feColorMatrix values="0 0 0 0 0   0 0 0 0 0   0 0 0 0 0  0 0 0 0.0416666667 0" type="matrix" in="shadowBlurOuter1"></feColorMatrix>
        </filter>
        <linearGradient x1="88.3600935%" y1="13.9302899%" x2="50%" y2="69.7278507%" id="linearGradient-73">
            <stop stop-color="#F1F7FF" offset="0%"></stop>
            <stop stop-color="#A7BCDE" offset="100%"></stop>
        </linearGradient>
        <linearGradient x1="56.9881582%" y1="50%" x2="-5.61092608%" y2="90.998156%" id="linearGradient-74">
            <stop stop-color="#FFFFFF" offset="0%"></stop>
            <stop stop-color="#EAEFFF" offset="100%"></stop>
        </linearGradient>
        <linearGradient x1="75.3175233%" y1="50%" x2="19.1162365%" y2="43.2760204%" id="linearGradient-75">
            <stop stop-color="#FFFFFF" stop-opacity="0" offset="0%"></stop>
            <stop stop-color="#D8E1F0" offset="100%"></stop>
        </linearGradient>
        <path d="M0.277667924,42.3563289 C1.38646602,40.1352425 9.02504214,19.4869922 9.10223457,14.7558779 C9.17946107,10.0248105 10.5850719,0.320952395 14.6810059,0.353150895 C18.7770081,0.385349395 27.2508022,4.29314898 28.6373023,5.33847375 C30.0237683,6.38375159 31.3060961,10.904543 31.3060961,13.4036817 C31.3060961,14.6375038 31.3256497,22.0685515 31.3060961,29.6185835 C31.2872579,36.8874183 33.6357678,44.2636441 33.7636838,44.5631465 C27.292805,46.7252335 1.99334297,45.6298274 0.277667924,42.3563289 Z" id="path-76"></path>
        <linearGradient x1="15.3723617%" y1="23.1243834%" x2="25.8702546%" y2="100%" id="linearGradient-78">
            <stop stop-color="#FFFFFF" offset="0%"></stop>
            <stop stop-color="#E9F0FC" offset="100%"></stop>
        </linearGradient>
        <linearGradient x1="47.8322148%" y1="65.529462%" x2="67.4520815%" y2="105.572982%" id="linearGradient-79">
            <stop stop-color="#FFFFFF" stop-opacity="0" offset="0%"></stop>
            <stop stop-color="#ABBFD6" offset="100%"></stop>
        </linearGradient>
        <path d="M2.71419331,19.1969192 C4.95249457,20.6553151 20.1979789,24.9002772 21.8924543,24.27391 C23.5870007,23.647568 34.1604262,10.7945479 34.7536133,9.4000983 C35.3468005,8.00564866 27.8942125,0.285186714 27.0037926,1.46343833 C26.1133727,2.64174013 18.7400468,11.876667 17.9122696,11.876667 C17.0845278,11.876667 8.23668587,4.40852802 5.64717408,3.98579039 C3.0576978,3.56307785 1.14564235,6.74124897 0.653343911,8.40663603 C0.160974451,10.0720231 0.475856528,17.7384982 2.71419331,19.1969192 Z" id="path-80"></path>
        <linearGradient x1="50.7983741%" y1="8.9287466%" x2="85.3629416%" y2="59.7894059%" id="linearGradient-82">
            <stop stop-color="#C1CDE1" offset="0%"></stop>
            <stop stop-color="#90AADB" offset="100%"></stop>
        </linearGradient>
        <path d="M9.27039691,1.73628464 C10.6850181,3.45067264 10.949217,4.23234874 12.477802,5.62454866 C14.006387,7.01674858 16.1045296,7.51047294 16.7117394,7.72927254 C17.3190052,7.94807213 15.4972825,9.33527986 16.1045296,11.132615 C16.7117394,12.9299501 17.9964255,15.5758389 17.9964255,16.279117 C17.9964255,16.9823655 15.5942488,18.223057 13.3220445,19.2697916 C11.0498589,20.3165558 10.7285661,21.1975439 10.9918322,22.9727244 C11.2551169,24.7479639 11.6283912,27.0397619 13.3220445,28.0430438 C14.4511592,28.7118788 11.2560125,27.5232065 3.73664171,24.4769679 C0.544368352,17.1610799 -0.253713981,11.1990199 1.34243203,6.59078798 C3.73664171,-0.321559948 7.85577573,0.0218966293 9.27039691,1.73628464 Z" id="path-83"></path>
        <path d="M25.1623304,11.5253595 C28.4396715,10.4832712 25.5644482,6.03005402 26.7258525,6.03005402 C27.2075173,6.03005402 29.1502786,5.6642345 29.6535165,4.63026939 C30.7689148,2.33842668 28.2133403,0.295197564 21.8562665,0.771757615 C10.9940183,1.58600997 10.4196264,12.6700099 11.3376649,18.2163201 C12.2557656,23.7626303 0.224155199,40.6045299 4.01645334,47.8165347 C7.80875147,55.0285394 15.3985079,52.2666573 21.8562665,45.9706934 C28.3139941,39.6747294 26.6133864,18.3329181 24.920581,17.3155862 C23.2277445,16.2982543 21.8849893,12.567503 25.1623304,11.5253595 Z" id="path-85"></path>
        <filter x="-61.8%" y="-39.4%" width="230.4%" height="174.4%" filterUnits="objectBoundingBox" id="filter-87">
            <feGaussianBlur stdDeviation="14" in="SourceAlpha" result="shadowBlurInner1"></feGaussianBlur>
            <feOffset dx="-17" dy="-17" in="shadowBlurInner1" result="shadowOffsetInner1"></feOffset>
            <feComposite in="shadowOffsetInner1" in2="SourceAlpha" operator="arithmetic" k2="-1" k3="1" result="shadowInnerInner1"></feComposite>
            <feColorMatrix values="0 0 0 0 0.0404334217   0 0 0 0 0.104773574   0 0 0 0 0.223875135  0 0 0 0.409561821 0" type="matrix" in="shadowInnerInner1"></feColorMatrix>
        </filter>
        <linearGradient x1="12.4459525%" y1="35.5856549%" x2="65.8717076%" y2="70.6376182%" id="linearGradient-88">
            <stop stop-color="#001630" stop-opacity="0.0615942029" offset="0%"></stop>
            <stop stop-color="#081E41" offset="100%"></stop>
        </linearGradient>
    </defs>
    <g id="Mobile-UI" stroke="none" stroke-width="1" fill="none" fill-rule="evenodd">
        <g id="Walkthrough-2" transform="translate(-17.000000, -79.000000)">
            <g id="team" transform="translate(63.000000, 110.000000)">
                <g id="man" transform="translate(0.000000, 32.495614)">
                    <mask id="mask-2" fill="white">
                        <use xlink:href="#path-1"></use>
                    </mask>
                    <use id="Mask" fill-opacity="0.5" fill="#F0F5F8" xlink:href="#path-1"></use>
                    <g mask="url(#mask-2)">
                        <g transform="translate(47.846890, 48.818296)">
                            <g id="neck" stroke-width="1" fill="none" fill-rule="evenodd" transform="translate(47.049442, 43.173027)">
                                <mask id="mask-5" fill="white">
                                    <use xlink:href="#path-4"></use>
                                </mask>
                                <use id="Path-23" fill="url(#linearGradient-3)" xlink:href="#path-4"></use>
                                <path d="M7.13474648,26.3112182 C8.19469291,26.734161 9.21607437,27.1284271 10.200094,27.495141 C28.8493414,34.4451428 34.0788788,31.4988747 34.0788788,26.3112182 C34.0788788,22.6702975 31.8938811,12.3025648 27.5238858,-4.79197995 C-0.167651572,10.3177511 -6.96403135,20.6854838 7.13474648,26.3112182 Z" id="Path-9" fill="url(#linearGradient-6)" style="mix-blend-mode: multiply;" opacity="0.153292411" mask="url(#mask-5)"></path>
                            </g>
                            <path d="M41.699484,7.15311433 C39.0646682,13.6499296 36.2539345,16.936813 37.571413,25.0999689 C38.8887974,33.2630558 37.6197328,32.577399 36.8192336,37.0061917 C36.0186403,41.4348463 35.0015254,45.0888041 37.2333157,53.5895385 C39.465106,62.0904111 40.8488301,68.033161 48.0365733,68.0057375 C55.2243636,67.9783831 64.4841642,66.4692613 67.5343325,61.2319241 C68.7657575,59.117482 69.2630701,57.9536753 70.1314616,54.6399901 C70.7421634,52.3096828 71.2136459,50.708896 71.2136459,47.372899 C72.7736642,51.0537967 76.0550805,49.0893204 76.2986554,48.8972177 C78.2287176,47.3749713 79.9617368,43.8856236 80.1284329,40.5930759 C80.4625781,33.9945105 78.2145087,18.7126405 70.4072655,16.187122 C62.6000223,13.6616726 44.3343939,0.656230009 41.699484,7.15311433 Z" id="face" fill="url(#linearGradient-7)" fill-rule="evenodd"></path>
                            <g id="shirt" stroke-width="1" fill="none" fill-rule="evenodd" transform="translate(8.554444, 77.711448)">
                                <mask id="mask-12" fill="white">
                                    <use xlink:href="#path-11"></use>
                                </mask>
                                <g id="Path-26">
                                    <use fill="url(#linearGradient-8)" xlink:href="#path-11"></use>
                                    <use fill="url(#linearGradient-9)" xlink:href="#path-11"></use>
                                    <use fill="url(#linearGradient-10)" xlink:href="#path-11"></use>
                                </g>
                                <path d="M92.560387,154.966634 C76.8837118,121.680139 83.8714664,73.4946473 91.7420814,65.9348573 C99.6126963,58.3750674 117.139316,138.319302 111.399993,145.39435 C105.660671,152.469398 108.237062,188.25313 92.560387,154.966634 Z" id="Path-10" fill="url(#linearGradient-13)" style="mix-blend-mode: multiply;" mask="url(#mask-12)"></path>
                                <path d="M37.6487934,21.745777 C41.2631752,18.1622809 47.3043972,13.536991 47.3043972,13.536991 C47.3043972,13.536991 47.3043972,10.8187135 47.3043972,5.38215847 L40.1868159,11.2719232 C36.085213,20.6434898 35.2392055,24.1347744 37.6487934,21.745777 Z" id="Path-14" fill="url(#linearGradient-13)" style="mix-blend-mode: multiply;" mask="url(#mask-12)"></path>
                                <path d="M52.5711774,18.3359132 C53.8785273,19.1854362 56.4801282,19.6778849 60.37598,19.8132593 C57.0846019,8.89306254 54.483001,3.86753543 52.5711774,4.73667792 C49.7034419,6.04039167 50.6101524,17.0616287 52.5711774,18.3359132 Z" id="Path-15" fill="url(#linearGradient-13)" style="mix-blend-mode: multiply;" mask="url(#mask-12)"></path>
                            </g>
                            <path d="M69.9592214,101.102815 C66.0475907,99.1404452 65.2816942,86.6143958 61.7850396,84.8402262 C58.2883849,83.0660566 72.6416042,80.5662347 74.4324171,68.1343025 C76.2306981,68.1343025 79.4220104,76.2011654 82.5335098,80.7730162 C82.1689622,87.7520914 71.6979635,92.9948166 69.9592214,101.102815 Z" id="colar" fill="#FFFFFF" fill-rule="evenodd"></path>
                            <path d="M46.1493047,70.1189277 C46.1493047,73.2657017 44.4958547,82.0869138 50.8133458,84.0807219 C48.4029559,84.4785829 46.4399548,85.8944726 45.4240461,88.0394467 C44.066366,90.9060407 42.4644737,96.6611088 40.5302284,98.7768894 C40.5302284,93.875447 39.4153747,84.1906663 40.5302284,80.4777904 C41.6451205,76.7649446 45.2368578,72.1172085 46.1493047,70.1189277 Z" id="colar" fill="#FFFFFF" fill-rule="evenodd"></path>
                            <g id="sleeve" fill="none">
                                <use fill="url(#linearGradient-14)" fill-rule="evenodd" xlink:href="#path-16"></use>
                                <use fill="url(#linearGradient-15)" fill-rule="evenodd" xlink:href="#path-16"></use>
                                <use fill="black" fill-opacity="1" filter="url(#filter-17)" xlink:href="#path-16"></use>
                            </g>
                            <path d="M9.51201132e-14,201.305569 C9.51201132e-14,188.974662 4.89114144,135.543388 9.46249147,113.591174 C10.1202522,110.432522 11.2400962,109.730671 11.8415392,107.932567 C16.5295737,125.251963 17.9715637,200.809429 16.6305328,205.340864 C15.2894238,209.872299 7.44617622,205.340864 9.51201132e-14,201.305569 Z" id="sleeve" fill="url(#linearGradient-18)" fill-rule="evenodd"></path>
                            <path d="M42.2913574,18.6862186 C39.3460153,19.6172017 37.7500384,27.8001482 38.250191,33.9813168 C36.603221,30.4892751 34.9217724,16.3127383 40.5039448,8.67674226 C46.0861815,1.04071172 45.2367252,17.7552354 42.2913574,18.6862186 Z" id="hair" fill="#3A4860" fill-rule="evenodd"></path>
                            <path d="M44.518216,2.59003623 C34.7935199,9.21290808 39.2144266,17.9231094 49.182039,19.3920717 C59.1496044,20.8609907 60.2255781,21.2508 66.3501451,19.3920717 C67.7191897,24.0857568 63.4626738,28.560123 66.3501451,31.9983365 C68.6638484,34.7420687 69.3707663,35.7654853 69.5086211,38.8716982 C69.646429,41.977868 70.7584896,42.6049562 70.7584896,42.6049562 C70.7584896,42.6049562 70.8903221,33.9630978 73.5537439,33.6987062 C76.2172128,33.4343145 78.2731323,35.2113595 79.7501084,38.8716982 C80.1753412,39.9253791 79.6119242,37.7640079 79.7501084,35.7445896 C79.8847168,33.7771947 80.7263843,32.0011427 80.7263843,29.2340539 C80.7263843,24.2318112 78.1287846,18.4616066 75.3650534,14.9684338 C68.9623301,6.87595213 51.3987735,0.788900721 44.518216,2.59003623 Z" id="hair" fill="url(#linearGradient-19)" fill-rule="evenodd"></path>
                            <path d="M76.219668,160.250747 C80.6646854,159.870513 80.5630158,156.310845 80.7105372,157.328554 C80.857973,158.346263 91.1897738,165.021988 91.1897738,165.021988 C91.1897738,165.021988 93.0292359,182.905706 88.7929042,185.92844 C84.5565297,188.951173 79.1500783,182.421408 75.5043454,183.115009 C73.9601399,183.408827 69.9810403,183.555788 66.0194345,182.644008 C64.6901167,182.338067 60.2587864,181.118757 59.4420937,180.498482 C58.4174851,179.720227 57.8933971,178.74317 59.0633029,177.772399 C59.528408,177.386397 65.2650609,178.89248 66.6318044,179.156008 C70.5397738,179.90936 73.7680499,178.960244 73.6543185,178.715988 C73.4697992,178.319418 70.5573104,178.639486 66.6318044,177.772399 C65.2544106,177.468184 62.4053958,176.93308 61.0283442,176.538652 C57.9779578,175.665037 55.3795882,174.364872 55.1401921,174.139509 C54.4935189,173.530597 54.0288843,172.602791 55.2483631,171.705967 C55.7650515,171.326009 57.0502711,171.705967 60.7190583,172.276058 C62.3104843,172.523353 65.5257148,173.310276 66.957686,173.530597 C70.0217167,174.002046 72.3494664,172.735004 72.3344106,172.476139 C72.3193976,172.217999 70.2265528,172.823181 67.2150036,172.276058 C65.6059127,171.98369 62.515021,171.636683 60.7258163,171.326009 C55.989349,170.503511 53.4467116,168.87651 53.0826345,168.611669 C52.4146179,168.12561 52.2693635,166.444763 53.0826345,165.958877 C53.5535566,165.677492 55.8887915,166.232663 60.6679455,166.993475 C62.3992366,167.269092 65.7072401,167.782022 67.2150036,167.782022 C70.2265528,167.782022 72.1362041,167.129626 72.1362041,166.993475 C72.1362041,166.772947 66.3621256,166.157266 61.7176613,165.257851 C57.0601087,164.35588 56.6482978,163.417574 56.3311846,163.054576 C55.897902,162.558638 55.758764,160.737807 57.2621219,160.737807 C59.4594592,160.737807 60.3595578,161.011593 62.4398275,161.280268 C63.9156829,161.470885 67.4504219,161.616672 68.863445,161.616672 C71.6663085,161.616672 74.7722561,160.374532 76.219668,160.250747 Z" id="hand" fill="#FCDFDC" fill-rule="evenodd"></path>
                        </g>
                    </g>
                </g>
                <g id="bubbles">
                    <g id="person" transform="translate(0.000000, 45.523810)">
                        <mask id="mask-21" fill="white">
                            <use xlink:href="#path-20"></use>
                        </mask>
                        <g id="Mask">
                            <use fill="black" fill-opacity="1" filter="url(#filter-22)" xlink:href="#path-20"></use>
                            <use fill="#FFFFFF" fill-rule="evenodd" xlink:href="#path-20"></use>
                        </g>
                        <g mask="url(#mask-21)">
                            <g transform="translate(-19.886364, -22.761905)">
                                <polygon id="ankle" fill="#FCDFDC" points="51.9757231 181.748058 51.9757231 178.386838 56.4953512 178.386838 56.4953512 182.505542 53.4662854 182.990369"></polygon>
                                <polygon id="ankle" fill="#FCDFDC" points="78.2989475 169.179775 75.7037707 167.329857 78.9614042 163.425361 81.3533058 166.019968"></polygon>
                                <g id="leg" fill="none">
                                    <use fill="#04CC99" xlink:href="#path-24"></use>
                                    <use fill-opacity="0.639999986" fill="url(#linearGradient-23)" xlink:href="#path-24"></use>
                                </g>
                                <g id="leg" stroke-width="1" fill="none" transform="translate(44.066374, 104.730337)">
                                    <mask id="mask-26" fill="white">
                                        <use xlink:href="#path-25"></use>
                                    </mask>
                                    <use id="Mask" fill="#04CC99" xlink:href="#path-25"></use>
                                    <path d="M1.89920868,5.65305694 C5.220111,6.66288925 17.6265072,7.29241284 23.0841587,3.79179739 C26.722593,1.45805376 22.2255377,0.671035477 9.59299297,1.43074254 C2.24986856,3.57239727 -0.314726207,4.9798354 1.89920868,5.65305694 Z" id="Path-98" fill="url(#linearGradient-27)" style="mix-blend-mode: multiply;" opacity="0.5" mask="url(#mask-26)"></path>
                                    <path d="M13.8569315,17.8964821 C12.6514315,17.6074429 11.5426781,17.4946867 10.5525111,16.4547652 C9.78922094,15.6531208 9.0392562,14.347 9.0392562,12.6322605 C9.0392562,10.0061535 9.43823236,8.09716563 10.2361847,6.90529695" id="Path-3" fill="url(#linearGradient-28)" style="mix-blend-mode: multiply;" opacity="0.5" mask="url(#mask-26)"></path>
                                </g>
                                <path d="M88.2871593,170.682678 L85.2056513,173.365405 L83.4668839,171.959373 L81.2674574,176.793954 L76.291708,181.079123 C76.044807,181.291757 75.6825958,181.289365 75.4384201,181.073491 C74.712738,180.431909 74.4438923,179.640666 74.6318831,178.699761 C76.8257761,174.36885 77.58466,169.644094 78.6694004,167.311941 C80.5109036,167.11598 80.8053477,166.894208 81.7066855,166.074945 C82.3886398,165.455088 82.8643148,164.571894 83.1337106,163.425361 C83.7581172,164.197426 84.4623111,165.068146 85.2462921,166.03752 C86.0302731,167.006895 87.0438956,168.555281 88.2871593,170.682678 Z" id="shoe" fill="url(#linearGradient-29)"></path>
                                <path d="M56.6860462,189.209843 L52.3966132,189.209843 L51.9051608,187.377408 L46.9146808,189.209843 L39.581952,189.357626 C39.3204702,189.362896 39.0809109,189.209418 38.9723416,188.967067 L38.9723634,188.967057 C38.6020137,188.140357 38.4168388,187.466881 38.4168388,186.94663 C43.0700595,185.427271 48.629785,182.710453 51.0565502,181.839486 C52.6902477,182.722654 53.0772746,182.744349 54.354766,182.722654 C55.3213189,182.70624 56.2933409,182.411851 57.2708319,181.839486 C57.2708319,182.665189 57.2708319,183.5964 57.2708319,184.633121 C57.2708319,185.669841 57.0759033,187.195415 56.6860462,189.209843 Z" id="shoe" fill="url(#linearGradient-30)"></path>
                                <g id="face" stroke-width="1" fill="none" transform="translate(31.637397, 41.431782)">
                                    <mask id="mask-33" fill="white">
                                        <use xlink:href="#path-32"></use>
                                    </mask>
                                    <use id="Mask" fill="url(#linearGradient-31)" xlink:href="#path-32"></use>
                                    <path d="M12.6822544,17.9028158 C13.9589673,17.011647 15.6667943,14.0461134 15.6667943,13.8174035 C15.6667943,13.6649303 15.9660132,16.0729563 16.564451,21.0414817 C13.125178,19.5431503 11.8311124,18.4969284 12.6822544,17.9028158 Z" id="Path-95" fill="#6A87B9" style="mix-blend-mode: multiply;" opacity="0.5" mask="url(#mask-33)"></path>
                                    <path d="M5.64953512,17.4616883 C5.9781908,16.7658197 6.54126699,16.3537798 7.45397347,16.1123596" id="Path-5" stroke="#728BBB" stroke-width="1.42045455" stroke-linecap="round" mask="url(#mask-33)"></path>
                                </g>
                                <path d="M21.3797284,84.9026611 C19.566041,83.4179877 17.3210943,82.9091681 15.9118542,80.8813876 C14.5026141,78.853607 10.4092166,72.0387591 11.4736465,71.1580264 C12.5380764,70.2772937 15.2028105,67.9020867 16.2077699,67.9020867 C17.2127293,67.9020867 19.0603916,71.5041009 19.9791627,73.1428856 C20.8979338,74.7816702 22.4452426,78.2745223 22.4452426,79.7162743 C22.4452426,81.1580263 23.1934157,86.3873344 21.3797284,84.9026611 Z" id="palm" fill="#C2CDE0"></path>
                                <g id="phone" stroke-width="1" fill="none" transform="translate(10.169163, 62.147673)">
                                    <path d="M0.804826935,2.76314243 L4.7633988,0.39944003 C5.51394913,-0.0487209902 6.48549525,0.192651075 6.93904178,0.939959336 L13.2826077,11.392248 C13.6733472,12.0360692 13.468184,12.8747463 12.8243628,13.2654858 C12.8186654,13.2689436 12.8129428,13.2723595 12.8071954,13.2757334 L8.5598517,15.7690089 C7.91382678,16.1482384 7.08284958,15.9353361 6.69876578,15.2921854 L0.333123711,4.63303663 C-0.0530147033,3.98644543 0.158123999,3.14925266 0.804715202,2.76311425 C0.804738521,2.76310032 0.804761841,2.76308639 0.804785162,2.76307247 Z" id="Rectangle-18" fill="#929FB8"></path>
                                    <path d="M1.62040318,2.68954608 L5.77379539,0.344326287 C6.09451761,0.163229953 6.50108956,0.269584194 6.69205292,0.584531207 L12.94326,10.8943571 C13.1384951,11.2163493 13.0357382,11.6356449 12.7137459,11.8308801 C12.7060121,11.8355694 12.6981857,11.8401043 12.6902714,11.8444823 L8.43029798,14.2009519 C8.1081603,14.3791473 7.70273737,14.2694415 7.5144147,13.9531175 L1.36978881,3.63204177 C1.17715946,3.3084839 1.28329801,2.89003147 1.60685588,2.69740212 C1.61134142,2.69473167 1.61585748,2.69211281 1.62040318,2.68954608 Z" id="Rectangle-18-Copy" fill="url(#linearGradient-34)"></path>
                                </g>
                                <g id="arm" stroke-width="1" fill="none" transform="translate(19.208419, 69.052970)">
                                    <mask id="mask-36" fill="white">
                                        <use xlink:href="#path-35"></use>
                                    </mask>
                                    <use id="Mask" fill="#C2CDE0" xlink:href="#path-35"></use>
                                    <path d="M19.2084194,17.2053267 C20.6365543,19.0459888 21.9540607,20.6046918 23.1609389,21.8814356 C24.1930954,24.652057 23.4042676,26.7034055 24.1930954,26.4173134 C24.9819232,26.1312214 26.4936305,18.4005459 25.7377768,17.2053267 C25.4188567,16.7010235 23.1123023,14.6670408 21.3506217,14.9975944 C20.6694068,15.1254144 19.9553394,15.8613252 19.2084194,17.2053267 Z" id="Path-96" fill="#A5B2CA" style="mix-blend-mode: multiply;" opacity="0.5" mask="url(#mask-36)"></path>
                                    <path d="M13.5588843,25.3194222 C13.8039928,25.5392577 14.1653268,26.3572598 14.4620009,27.0241462" id="Path-6" stroke="#9FAEC9" stroke-width="1.42045455" stroke-linecap="round" mask="url(#mask-36)"></path>
                                </g>
                                <path d="M44.2091717,87.4670947 C40.8701379,85.1302717 36.9996955,80.83674 38.9349167,78.936644 C40.8701379,77.0365481 48.1816213,67.7520534 49.691327,65.8091411 C51.2010327,63.8662287 53.1537408,76.0465382 51.0640517,78.936644 C48.9743625,81.8267499 47.0580855,85.0712802 44.2091717,87.4670947 Z" id="sleeve" fill="url(#linearGradient-37)"></path>
                                <path d="M44.6239727,108.857796 C44.2097891,105.857739 46.7360397,96.7673359 44.423176,91.364366 C43.4270796,89.0374328 41.9152797,87.1581417 41.8149431,84.5558458 C41.6762581,80.9589575 43.2913778,76.7472244 44.2097891,74.9587791 C47.7376092,68.0889668 47.6556116,64.2708777 48.6769201,63.1834038 C50.1535056,63.1834038 54.116679,62.047138 55.5727149,59.8459069 C57.2059165,60.7739518 62.8653949,67.3854755 64.5797673,71.0660841 C66.2941397,74.7466927 65.7478368,86.072942 65.7478368,92.8549867 C65.7478368,99.6370314 66.6645145,104.098631 66.6645145,105.857739 C66.6645145,107.616846 45.226585,113.222701 44.6239727,108.857796 Z" id="shirt" fill="url(#linearGradient-38)"></path>
                                <path d="M54.3849843,109.333868 C55.3613725,105.996932 55.8495665,103.666416 55.8495665,102.34232 C55.8495665,100.356176 53.6526933,85.7861328 54.3849843,84.1603125 C54.8731784,83.0764324 56.7065411,88.0329954 59.8850723,99.0300017 C58.5328671,103.651229 57.6321372,106.498795 57.1828827,107.572701 C56.7336282,108.646607 55.8009954,109.233663 54.3849843,109.333868 Z" id="hadow" fill="url(#linearGradient-39)" style="mix-blend-mode: multiply;"></path>
                                <path d="M39.4313511,45.3595391 C34.1279826,42.4383374 32.4475806,47.7575074 31.672174,47.0815519 C29.6242995,44.4955243 30.7057387,41.5554755 31.672174,39.0992177 C33.297524,34.9682859 43.2371252,28.1519722 51.0717408,35.4354766 C56.2948178,40.2911462 56.7526844,46.8934459 52.4453406,55.2423756 C51.1301937,54.7487121 50.305751,53.8262346 49.9720126,52.4749428 C49.6382742,51.1236511 47.9253888,50.1391254 44.8333565,49.5213658 C45.6999938,48.1873456 45.6999938,47.1155473 44.8333565,46.3059708 C43.5334005,45.091606 42.9694146,45.4853735 42.5687075,45.8904786 C42.2928224,46.022877 42.139233,46.6845844 42.1079393,47.8756008 C41.0065994,46.552186 40.1144033,45.7134988 39.4313511,45.3595391 Z" id="hair" fill="url(#radialGradient-40)"></path>
                                <g id="hair" stroke-width="1" fill="none" transform="translate(50.845816, 48.337079)">
                                    <mask id="mask-42" fill="white">
                                        <use xlink:href="#path-41"></use>
                                    </mask>
                                    <use id="Mask" fill="#223762" xlink:href="#path-41"></use>
                                    <path d="M0.742524709,6.45837131 C3.4668534,5.68044711 9.42327439,5.7155834 11.1712817,9.19079314 C12.919289,12.6660029 15.8100035,28.3558376 9.37641862,29.0303232 C2.9428337,29.7048087 -1.98180398,7.23629552 0.742524709,6.45837131 Z" id="Path-2" fill="#223762" style="mix-blend-mode: multiply;" opacity="0.300000012" mask="url(#mask-42)"></path>
                                    <path d="M1.09355848,7.03174612 C1.09355848,5.49969531 1.16893773,2.86928136 3.54574531,1.58353343" id="Path-93" stroke="#38548E" stroke-width="1.42045455" stroke-linecap="round" stroke-linejoin="round" mask="url(#mask-42)"></path>
                                </g>
                                <g id="arm" stroke-width="1" fill="none" transform="translate(53.105630, 74.807384)">
                                    <mask id="mask-44" fill="white">
                                        <use xlink:href="#path-43"></use>
                                    </mask>
                                    <use id="Mask" fill="#C2CDE0" xlink:href="#path-43"></use>
                                    <path d="M1.92808511,9.01588516 C4.72387805,9.60807101 9.71788417,9.9060787 11.9011765,9.01588516 C13.3567047,8.4224228 13.1266751,7.20671853 11.2110875,5.36877234 C3.15855729,7.40539032 0.0642231482,8.6210946 1.92808511,9.01588516 Z" id="Path-94" fill="#B2BDCF" style="mix-blend-mode: multiply;" opacity="0.5" mask="url(#mask-44)"></path>
                                </g>
                                <path d="M52.231714,83.9786191 C51.0502299,80.665052 48.8500548,67.1816265 54.8526848,65.6994278 C60.8553149,64.217229 64.4047004,79.8278011 64.4047004,81.2981876 C64.4047004,82.7685741 53.4131981,87.2921861 52.231714,83.9786191 Z" id="sleeve" fill="url(#linearGradient-45)"></path>
                                <path d="M47.0264904,75.9801842 L50.1476882,76.9508552 C50.3848216,77.0246021 50.530988,77.2666007 50.4886975,77.5154432 L49.2619409,84.7338162 C49.2230995,84.9623636 49.0353111,85.1338686 48.8080371,85.1483614 L46.8720577,85.2718148 C46.7236639,85.2812775 46.579032,85.2218579 46.4786117,85.1101738 L45.3254154,83.8276282 C45.2225381,83.7132116 45.1775123,83.5567006 45.2034935,83.4038242 L46.398228,76.3738725 C46.4445605,76.1012467 46.6990993,75.918497 46.9667563,75.9656896 C46.9869446,75.9692492 47.0068948,75.9740902 47.0264904,75.9801842 Z" id="pocket" fill="url(#linearGradient-46)"></path>
                                <polygon id="Path-12" fill="url(#linearGradient-47)" points="64.4047004 154.218299 64.4047004 143.860353 59.8850723 149.039326"></polygon>
                            </g>
                        </g>
                    </g>
                    <g id="person" transform="translate(76.704545, 0.000000)">
                        <mask id="mask-49" fill="white">
                            <use xlink:href="#path-48"></use>
                        </mask>
                        <g id="Mask">
                            <use fill="black" fill-opacity="1" filter="url(#filter-50)" xlink:href="#path-48"></use>
                            <use fill="#FFFFFF" fill-rule="evenodd" xlink:href="#path-48"></use>
                        </g>
                        <g mask="url(#mask-49)" id="Group-7">
                            <g transform="translate(8.522727, 14.226190)">
                                <g>
                                    <g id="Path-7" transform="translate(0.220676, 52.531432)">
                                        <mask id="mask-52" fill="white">
                                            <use xlink:href="#path-51"></use>
                                        </mask>
                                        <use id="Mask" fill="#C2CDE0" xlink:href="#path-51"></use>
                                        <path d="M1.10298533,4.58726636 C1.4445564,5.29037906 6.09918584,9.00980825 6.86886337,9.88931644 C7.63854091,10.7688246 7.81450637,13.067676 8.25647679,12.8301671 C8.55112373,12.6718279 8.55112373,10.344889 8.25647679,5.84935058 C3.25976844,4.53921929 0.875271286,4.11852455 1.10298533,4.58726636 Z" fill="#9DACC8" style="mix-blend-mode: multiply;" opacity="0.5" mask="url(#mask-52)"></path>
                                    </g>
                                    <g id="Group-10" transform="translate(8.554637, 143.668626)" fill="url(#linearGradient-53)">
                                        <path d="M0.233983245,2.89343496 C0.233983245,4.95773117 -0.292479057,7.53718413 0.233983245,8.56236074 C0.760445547,9.58753735 3.36985317,10.1265439 4.23071228,10.1265439 C5.0915714,10.1265439 5.37950603,8.65592553 6.71643889,9.41251614 C8.05337174,10.1691068 15.6731692,10.1265439 16.1682204,7.05670139 C16.6632717,3.98685884 12.8003668,3.98685884 11.0822478,3.98685884 C9.36412872,3.98685884 7.54457816,3.13927188 4.99341186,0.938481145 C2.44224557,-1.26230959 0.233983245,0.829138758 0.233983245,2.89343496 Z" id="Path-90"></path>
                                    </g>
                                    <g id="Group-11" transform="translate(46.783367, 147.982161)" fill="url(#linearGradient-54)">
                                        <path d="M0.25902999,2.89343496 C0.25902999,4.95773117 -0.323787487,7.53718413 0.25902999,8.56236074 C0.841847466,9.58753735 3.73057921,10.1265439 4.68358902,10.1265439 C5.63659883,10.1265439 5.95535543,8.65592553 7.43540031,9.41251614 C8.91544519,10.1691068 17.3509041,10.1265439 17.8989481,7.05670139 C18.4469922,3.98685884 14.1705825,3.98685884 12.2685474,3.98685884 C10.3665122,3.98685884 8.35218778,3.13927188 5.5279318,0.938481145 C2.70367583,-1.26230959 0.25902999,0.829138758 0.25902999,2.89343496 Z" id="Path-90-Copy"></path>
                                    </g>
                                    <g id="Path-5" transform="translate(8.827050, 76.226460)">
                                        <mask id="mask-56" fill="white">
                                            <use xlink:href="#path-55"></use>
                                        </mask>
                                        <use id="Mask" fill="#01C08F" xlink:href="#path-55"></use>
                                        <path d="M12.7107441,45.248877 C12.7107441,42.2266933 14.247907,17.5319604 14.6010439,18.5453714 C14.8364686,19.2209788 15.8708683,21.3829197 17.7042432,25.0311941 C14.3752438,40.5244385 12.7107441,47.2636662 12.7107441,45.248877 Z" id="Path-10" fill="#A1B8E3" style="mix-blend-mode: multiply;" opacity="0.5" mask="url(#mask-56)"></path>
                                        <path d="M4.25819242,5.28614844 C6.20283641,6.34557342 13.8182276,10.8549783 23.6309684,9.04785041 C28.4793141,8.15497237 31.5981363,6.98644115 32.9971405,5.28614844 C32.9971405,4.44863287 31.8211713,0.925882864 31.4927785,-0.421881812 C31.1643856,-1.76964649 1.87669248,3.98872819 4.25819242,5.28614844 Z" id="Path-6" fill="url(#linearGradient-27)" style="mix-blend-mode: multiply;" opacity="0.5" mask="url(#mask-56)"></path>
                                    </g>
                                    <g id="Path-3" transform="translate(15.447338, 10.506286)">
                                        <mask id="mask-59" fill="white">
                                            <use xlink:href="#path-58"></use>
                                        </mask>
                                        <use id="Mask" fill="url(#linearGradient-57)" xlink:href="#path-58"></use>
                                        <path d="M13.0208081,17.377642 C10.9328094,17.377642 7.67562948,15.5048392 7.04872393,14.8649894 C6.42181838,14.2251397 12.2686144,21.1471573 11.7805659,22.2496032 C11.3955389,23.1193354 10.0209767,23.3853961 10.887888,23.3853961 C14.0144434,23.3853961 15.1088068,17.377642 13.0208081,17.377642 Z" fill="#758CBC" style="mix-blend-mode: multiply;" opacity="0.5" mask="url(#mask-59)"></path>
                                        <path d="M12.0524041,2.10113804 C14.1922107,4.97112083 15.3380333,7.12360792 15.4898719,8.55859931 C15.6417104,9.99359071 16.787533,8.55859931 18.9273396,4.25362513 L18.9273396,-0.0513490449 L12.0524041,2.10113804 Z" id="Path-15" fill="#728BBB" mask="url(#mask-59)"></path>
                                    </g>
                                    <path d="M16.3761854,28.4629995 C9.08296752,21.557807 3.30798901,15.6647803 8.28851707,7.45331293 C13.2690451,-0.758154479 24.8576199,-3.51855166 27.023751,6.46319816 C27.023751,9.3184184 25.9831514,11.5086825 23.9019522,13.0339906 C23.5126096,13.8365553 23.8311655,14.6635134 24.8576199,15.5148649 C25.8840743,16.3662163 25.8840743,17.1436818 24.8576199,17.8472614 C22.8306794,16.5266461 21.5525489,16.7456749 21.0232284,18.5043478 C20.2292477,21.1423572 23.1600005,22.0866363 23.1600005,22.7469357 C23.8334377,24.3646674 23.4752211,25.913432 22.0853509,27.3932296 C21.3738041,28.1064095 19.470749,28.4629995 16.3761854,28.4629995 Z" id="Path-82" fill="url(#linearGradient-60)"></path>
                                    <path d="M8.85349991,37.7779232 C3.64868059,47.0268281 0.732283497,52.6688798 0.104308624,54.7040782 C-0.523666249,56.7392766 2.39273085,58.3453649 8.85349991,59.5223431 L12.8976262,42.0709681 L8.85349991,37.7779232 Z" id="Path-86" fill="url(#linearGradient-61)"></path>
                                    <g id="Path-4" transform="translate(7.282317, 32.636549)">
                                        <mask id="mask-64" fill="white">
                                            <use xlink:href="#path-63"></use>
                                        </mask>
                                        <use id="Mask" fill="url(#linearGradient-62)" xlink:href="#path-63"></use>
                                        <path d="M23.321015,14.5608905 C25.4355064,24.5726966 27.1289428,30.5168839 28.4013242,32.3934526 C30.3098965,35.2083057 31.5508686,43.7262029 33.0785267,44.7418791 C34.6061849,45.7575553 36.8007155,34.1380866 35.7034502,30.1597757 C34.97194,27.5075684 32.9575552,22.9333401 29.6602956,16.4370907 L23.321015,14.5608905 Z" fill="url(#linearGradient-65)" opacity="0.5" mask="url(#mask-64)"></path>
                                        <path d="M10.5044441,1.17057222 C11.9160475,2.11900088 15.5941765,2.63239355 18.6858107,2.63239355 C21.7774448,2.63239355 22.744395,2.66555821 24.2236886,2.20948852 C25.7029822,1.75341884 25.129395,1.17057222 24.2236886,1.17057222 C23.3179821,1.17057222 20.5087441,0.501700558 18.9967164,0.501700558 C17.4846888,0.501700558 9.0928407,0.222143562 10.5044441,1.17057222 Z" id="Path-11" fill="url(#linearGradient-66)" opacity="0.5" mask="url(#mask-64)"></path>
                                    </g>
                                    <path d="M16.1227135,33.0017317 C16.0014377,31.4703881 15.9407999,30.4577628 15.9407999,29.9638556 C15.9407999,29.2229949 22.0312961,30.2692029 26.41419,30.6844264 C26.8897705,32.5325102 26.8055547,32.6547764 26.8055547,33.0017317 C26.8055547,33.1751634 25.710994,34.6618662 19.8220629,34.1798433 C18.3889362,34.0625385 17.1558198,33.6698346 16.1227135,33.0017317 Z" id="Path-8" fill="#E1ECFF"></path>
                                    <g id="Group-2" transform="translate(50.814281, 36.054001) rotate(-26.000000) translate(-50.814281, -36.054001) translate(27.054695, 13.128342)">
                                        <path d="M11.6308424,33.7120022 C14.8778651,33.6913787 19.3748439,32.4792617 19.3845719,30.9442166 C19.3943,29.4091715 15.7036539,28.9043828 12.4566312,28.9250063 C9.20960857,28.9456298 7.77820772,30.4890621 7.36999191,31.5591005 C7.56226813,32.4658178 8.38381978,33.7326257 11.6308424,33.7120022 Z" id="Oval" fill="#A1B8E3" transform="translate(13.377292, 31.318327) rotate(-40.000000) translate(-13.377292, -31.318327) "></path>
                                        <g id="Path-2" transform="translate(7.061640, -0.000000)">
                                            <mask id="mask-68" fill="white">
                                                <use xlink:href="#path-67"></use>
                                            </mask>
                                            <use id="Mask" fill="#C2CDE0" transform="translate(20.191825, 22.811124) rotate(12.000000) translate(-20.191825, -22.811124) " xlink:href="#path-67"></use>
                                            <path d="M10.5111182,27.0686005 C7.49720268,31.3171196 5.90733591,34.2444884 5.74151784,35.8507068 C5.57569977,37.4569252 4.61016118,36.6328514 2.84490205,33.3784855 C3.8535822,31.4182617 4.78207529,30.0890393 5.63038132,29.3908182 C6.47868736,28.6925972 8.10559964,27.9185246 10.5111182,27.0686005 Z" fill="#9FAEC9" style="mix-blend-mode: multiply;" opacity="0.5" mask="url(#mask-68)"></path>
                                            <path d="M13.3774095,30.377539 C13.6193338,30.6765009 14.1014753,31.1939746 14.273375,32.1987111" id="Path-9" stroke="#9DACC8" stroke-width="2.27272727" stroke-linecap="round" mask="url(#mask-68)"></path>
                                        </g>
                                        <path d="M8.89078844,35.3192494 C11.0357111,32.4672064 14.0281836,28.5622376 17.7776745,27.1926808 C10.7433975,18.901014 8.60067654,16.1347541 6.38366905,13.5393528 C4.16666156,10.9439516 -2.22481408,17.6669708 1.21216656,24.2800069 C4.64914719,30.8930429 7.7245771,33.9198422 8.89078844,35.3192494 Z" id="Path-85" fill="url(#linearGradient-69)"></path>
                                    </g>
                                </g>
                            </g>
                        </g>
                    </g>
                    <g id="Group-6" transform="translate(85.227273, 14.226190)">
                        <mask id="mask-71" fill="white">
                            <use xlink:href="#path-70"></use>
                        </mask>
                        <g id="Mask">
                            <use fill="black" fill-opacity="1" filter="url(#filter-72)" xlink:href="#path-70"></use>
                            <use fill="#FFFFFF" fill-rule="evenodd" xlink:href="#path-70"></use>
                        </g>
                        <g mask="url(#mask-71)">
                            <g transform="translate(71.022727, 42.678571)">
                                <g id="hand" transform="translate(54.969336, 17.466601)">
                                    <path d="M2.20002275,6.69949897 C1.99212379,6.40304271 1.79834038,2.15580308 2.35717172,1.56796736 C2.91601486,0.980139195 4.3514209,0.258591812 4.55720233,0.427629523 C4.76300341,0.596659678 5.26928153,1.51246255 4.87150028,1.71051054 C4.4737151,1.90855852 3.7145749,2.60234972 3.77148104,2.85084837 C3.82837541,3.09935458 3.94536596,3.83603415 4.24290832,4.13373694 C4.54046639,4.43143218 2.68569522,7.39202853 2.20002275,6.69949897 Z" id="finger" fill="#C1CDE1"></path>
                                    <path d="M0,11.2453647 C1.04019924,10.0270849 1.69687227,9.233747 1.9700297,8.8653509 C2.16252894,8.60572353 1.85308328,6.90061838 2.26176551,6.19989575 C2.67045834,5.49915561 2.95797853,5.27824046 3.25399352,4.87144716 C3.35053972,4.73878956 3.82160891,4.07908928 3.95082088,3.69956254 C4.29229679,2.6965976 4.39748607,2.21696513 4.47071925,1.64858508 C4.57163995,0.865152707 5.72237237,1.16014338 5.99706564,0.598606217 C6.27175891,0.0370690555 6.59948234,-0.321749162 6.93209274,0.416775636 C7.26471372,1.15528293 6.39837031,1.38059223 6.39837031,2.39950058 C6.39837031,2.46075409 7.36169271,1.05477607 7.96101,0.91445303 C8.50693294,0.91445303 8.43993846,1.61960342 8.67722074,2.59675438 C8.90863504,3.54980647 10.2135287,4.70830282 10.2135287,5.94854635 C10.2135287,6.66785505 10.2155518,7.2502884 10.2135287,7.36148977 C10.1942194,8.41951287 6.10121138,11.416052 5.20777507,12.6177758 C4.61213322,13.4189192 3.96088329,14.2494993 3.25399352,15.109516 L0,11.2453647 Z" fill="#C1CDE1"></path>
                                </g>
                                <g id="shirt" transform="translate(4.148629, 22.603836)">
                                    <path d="M17.499266,0.689995048 C19.0807416,1.09238275 22.7668165,1.68528833 23.5183018,1.67226003 C24.2698071,1.65923173 25.5262046,7.1676114 25.4475303,7.6563074 C25.368866,8.14497814 18.0020461,5.47189538 17.499266,4.83825531 C16.9964958,4.20459841 15.9178103,0.287590515 17.499266,0.689995048 Z" id="colar" fill="url(#linearGradient-73)"></path>
                                    <g transform="translate(0.000000, 3.884407)">
                                        <mask id="mask-77" fill="white">
                                            <use xlink:href="#path-76"></use>
                                        </mask>
                                        <g id="">
                                            <use fill="url(#linearGradient-74)" xlink:href="#path-76"></use>
                                            <use fill="url(#linearGradient-75)" xlink:href="#path-76"></use>
                                        </g>
                                        <path d="M30.5518058,45.5169829 C25.1955945,28.9753168 22.5174888,19.7930804 22.5174888,17.9702736 C22.5174888,16.1474667 25.4887595,15.7087392 31.4313008,16.6540908 L36.4176865,45.5169829 L30.5518058,45.5169829 Z" id="Path" fill="#DAE2F1" mask="url(#mask-77)"></path>
                                    </g>
                                    <path d="M47.1092024,6.77573458 C48.2773309,5.78016777 49.9155789,3.79227861 50.8379861,2.61275015 C51.7603819,1.43322169 56.8656518,6.80641169 55.8716205,8.15415926 C54.8776235,9.50191946 52.8733036,12.0026213 51.8991235,12.7320673 C50.9249663,13.4615008 45.9410397,7.77128877 47.1092024,6.77573458 Z" id="shirt-sleeve" fill="#DAE2F1"></path>
                                    <g id="sleeve" transform="translate(20.728538, 4.046258)">
                                        <mask id="mask-81" fill="white">
                                            <use xlink:href="#path-80"></use>
                                        </mask>
                                        <g id="">
                                            <use fill="url(#linearGradient-78)" xlink:href="#path-80"></use>
                                            <use fill="url(#linearGradient-79)" xlink:href="#path-80"></use>
                                        </g>
                                        <path d="M23.2191762,2.34682945 L37.8416331,11.086746" id="Line-7" stroke="#FFFFFF" stroke-width="3.06818182" opacity="0.430245536" stroke-linecap="square" mask="url(#mask-81)"></path>
                                    </g>
                                </g>
                                <g id="face" transform="translate(19.705988, 3.082341)">
                                    <mask id="mask-84" fill="white">
                                        <use xlink:href="#path-83"></use>
                                    </mask>
                                    <use id="" fill="url(#linearGradient-82)" xlink:href="#path-83"></use>
                                    <path d="M12.5423013,5.47862459 C14.922171,8.36693807 16.1387646,10.223711 16.1920822,11.0489434 C16.2453998,11.8741759 16.8489276,11.2552516 18.0026655,9.19217049 L18.0026655,7.33539754 L14.9850267,6.71647322 L12.5423013,5.47862459 Z" id="Path-7" fill="#6180AF" mask="url(#mask-84)"></path>
                                    <path d="M6.10365233,15.0172357 C6.75706897,15.8278598 7.87789444,17.3661247 9.27621626,18.2330545 C10.5948705,19.050592 12.9308984,19.0698817 14.3377499,19.0698817 C16.270216,19.0698817 14.9705993,20.9030695 10.4388998,24.5694452 L6.10365233,23.682777 C5.25724854,16.8557068 5.25724854,13.967193 6.10365233,15.0172357 Z" id="Path-2" fill="#617FAE" mask="url(#mask-84)"></path>
                                </g>
                                <g id="hair">
                                    <mask id="mask-86" fill="white">
                                        <use xlink:href="#path-85"></use>
                                    </mask>
                                    <g id="">
                                        <use fill="#404E64" fill-rule="evenodd" xlink:href="#path-85"></use>
                                        <use fill="black" fill-opacity="1" filter="url(#filter-87)" xlink:href="#path-85"></use>
                                    </g>
                                    <path d="M23.4554154,16.6736999 C23.4554154,18.7934053 19.3485391,45.4182382 15.6635839,47.4972208 C11.9786286,49.5762033 27.0398621,49.4815358 27.0398621,45.5102614 C27.0398621,41.5389869 23.4554154,14.5539944 23.4554154,16.6736999 Z" id="Path-3" fill="url(#linearGradient-88)" mask="url(#mask-86)"></path>
                                </g>
                            </g>
                        </g>
                    </g>
                </g>
            </g>
        </g>
    </g>
</svg>