<?xml version="1.0" encoding="UTF-8"?>
<svg width="223px" height="299px" viewBox="0 0 223 299" version="1.1" xmlns="http://www.w3.org/2000/svg" xmlns:xlink="http://www.w3.org/1999/xlink">
    <!-- Generator: Sketch 52.5 (67469) - http://www.bohemiancoding.com/sketch -->
    <title>3</title>
    <desc>Created with Sketch.</desc>
    <defs>
        <filter x="-20.0%" y="-14.4%" width="140.3%" height="129.3%" filterUnits="objectBoundingBox" id="filter-1">
            <feOffset dx="0" dy="5" in="SourceAlpha" result="shadowOffsetOuter1"></feOffset>
            <feGaussianBlur stdDeviation="7.5" in="shadowOffsetOuter1" result="shadowBlurOuter1"></feGaussianBlur>
            <feColorMatrix values="0 0 0 0 0   0 0 0 0 0   0 0 0 0 0  0 0 0 0.1 0" type="matrix" in="shadowBlurOuter1" result="shadowMatrixOuter1"></feColorMatrix>
            <feMerge>
                <feMergeNode in="shadowMatrixOuter1"></feMergeNode>
                <feMergeNode in="SourceGraphic"></feMergeNode>
            </feMerge>
        </filter>
    </defs>
    <g id="Page-1" stroke="none" stroke-width="1" fill="none" fill-rule="evenodd">
        <g id="3" filter="url(#filter-1)" transform="translate(15.000000, 10.000000)">
            <g id="list" transform="translate(19.046311, 18.984288)">
                <g id="Group-2">
                    <g id="Rectangle-18" fill="#FFFFFF">
                        <g id="path-1-link">
                            <path d="M12.3979592,0 L143.28493,0 C150.132133,-1.25781093e-15 155.682889,5.5507554 155.682889,12.3979592 L155.682889,58.1365457 C155.682889,64.9837495 150.132133,70.5345048 143.28493,70.5345048 L12.3979592,70.5345048 C5.5507554,70.5345048 8.3854062e-16,64.9837495 0,58.1365457 L1.63134812e-15,12.3979592 C7.92807497e-16,5.5507554 5.5507554,1.25781093e-15 12.3979592,0 Z" id="path-1"></path>
                        </g>
                    </g>
                    <path d="M16.5019453,16.7939297 L116.94053,16.7939297 C118.610037,16.7939297 119.963438,18.1473315 119.963438,19.816837 C119.963438,21.4863427 118.610037,22.8397445 116.94053,22.8397445 L16.5019453,22.8397445 C14.8324397,22.8397445 13.479038,21.4863427 13.479038,19.816837 C13.479038,18.1473315 14.8324397,16.7939297 16.5019453,16.7939297 Z" id="Rectangle" fill="#1B3554" opacity="0.300000012"></path>
                    <rect id="Rectangle-Copy" fill="#1B3554" opacity="0.300000012" x="13.479038" y="28.8855591" width="76.1565644" height="6.04581471" rx="1.64580511"></rect>
                    <path d="M16.5019453,47.6947603 L35.3923509,47.6947603 C37.0618566,47.6947603 38.4152582,49.0481622 38.4152582,50.7176679 C38.4152582,52.3871734 37.0618566,53.7405752 35.3923509,53.7405752 L16.5019453,53.7405752 C14.8324397,53.7405752 13.479038,52.3871734 13.479038,50.7176679 C13.479038,49.0481622 14.8324397,47.6947603 16.5019453,47.6947603 Z" id="Rectangle-Copy-2" fill="#1B3554" opacity="0.149999991"></path>
                    <ellipse id="Oval-8" fill="#BFD0DA" opacity="0.300000012" cx="128.05086" cy="42.9924602" rx="14.1529899" ry="14.1069009"></ellipse>
                </g>
                <g id="Group-2-Copy" transform="translate(0.000000, 80.610864)">
                    <g id="Rectangle-18" fill="#FFFFFF">
                        <g id="path-3-link">
                            <g id="path-3">
                                <g id="path-2-link">
                                    <path d="M12.3979592,0 L143.28493,0 C150.132133,-1.25781093e-15 155.682889,5.5507554 155.682889,12.3979592 L155.682889,58.1365457 C155.682889,64.9837495 150.132133,70.5345048 143.28493,70.5345048 L12.3979592,70.5345048 C5.5507554,70.5345048 2.1029531e-15,64.9837495 -1.77635684e-15,58.1365457 L1.4863394e-15,12.3979592 C6.47798777e-16,5.5507554 5.5507554,1.25781093e-15 12.3979592,0 Z" id="path-2"></path>
                                </g>
                            </g>
                        </g>
                    </g>
                    <path d="M16.5019453,16.7939297 L116.94053,16.7939297 C118.610037,16.7939297 119.963438,18.1473315 119.963438,19.816837 C119.963438,21.4863427 118.610037,22.8397445 116.94053,22.8397445 L16.5019453,22.8397445 C14.8324397,22.8397445 13.479038,21.4863427 13.479038,19.816837 C13.479038,18.1473315 14.8324397,16.7939297 16.5019453,16.7939297 Z" id="Rectangle" fill="#1B3554" opacity="0.300000012"></path>
                    <rect id="Rectangle-Copy" fill="#1B3554" opacity="0.300000012" x="13.479038" y="28.8855591" width="76.1565644" height="6.04581471" rx="1.64580511"></rect>
                    <path d="M16.5019453,47.6947603 L35.3923509,47.6947603 C37.0618566,47.6947603 38.4152582,49.0481622 38.4152582,50.7176679 C38.4152582,52.3871734 37.0618566,53.7405752 35.3923509,53.7405752 L16.5019453,53.7405752 C14.8324397,53.7405752 13.479038,52.3871734 13.479038,50.7176679 C13.479038,49.0481622 14.8324397,47.6947603 16.5019453,47.6947603 Z" id="Rectangle-Copy-2" fill="#1B3554" opacity="0.149999991"></path>
                    <ellipse id="Oval-8" fill="#BFD0DA" opacity="0.300000012" cx="128.05086" cy="42.9924602" rx="14.1529899" ry="14.1069009"></ellipse>
                </g>
                <g id="Group-2-Copy-2" transform="translate(0.000000, 161.221726)">
                    <g id="Rectangle-18" fill="#FFFFFF">
                        <g id="path-5-link">
                            <g id="path-5">
                                <g id="path-4-link">
                                    <path d="M12.3979592,-1.45008722e-16 L143.28493,-1.77635684e-15 C150.132133,-3.03416776e-15 155.682889,5.5507554 155.682889,12.3979592 L155.682889,58.1365457 C155.682889,64.9837495 150.132133,70.5345048 143.28493,70.5345048 L12.3979592,70.5345048 C5.5507554,70.5345048 -9.37816224e-16,64.9837495 -1.77635684e-15,58.1365457 L1.4863394e-15,12.3979592 C6.47798777e-16,5.5507554 5.5507554,-5.18545916e-16 12.3979592,-1.45008722e-16 Z" id="path-4"></path>
                                </g>
                            </g>
                        </g>
                    </g>
                    <path d="M16.5019453,16.7939297 L116.94053,16.7939297 C118.610037,16.7939297 119.963438,18.1473315 119.963438,19.816837 C119.963438,21.4863427 118.610037,22.8397445 116.94053,22.8397445 L16.5019453,22.8397445 C14.8324397,22.8397445 13.479038,21.4863427 13.479038,19.816837 C13.479038,18.1473315 14.8324397,16.7939297 16.5019453,16.7939297 Z" id="Rectangle" fill="#1B3554" opacity="0.300000012"></path>
                    <rect id="Rectangle-Copy" fill="#1B3554" opacity="0.300000012" x="13.479038" y="28.8855591" width="76.1565644" height="6.04581471" rx="1.64580511"></rect>
                    <path d="M16.5019453,47.6947603 L35.3923509,47.6947603 C37.0618566,47.6947603 38.4152582,49.0481622 38.4152582,50.7176679 C38.4152582,52.3871734 37.0618566,53.7405752 35.3923509,53.7405752 L16.5019453,53.7405752 C14.8324397,53.7405752 13.479038,52.3871734 13.479038,50.7176679 C13.479038,49.0481622 14.8324397,47.6947603 16.5019453,47.6947603 Z" id="Rectangle-Copy-2" fill="#1B3554" opacity="0.149999991"></path>
                    <ellipse id="Oval-8" fill="#BFD0DA" opacity="0.300000012" cx="128.05086" cy="42.9924602" rx="14.1529899" ry="14.1069009"></ellipse>
                </g>
            </g>
            <g id="heart" transform="translate(155.682889, 0.000000)">
                <g id="Oval-9" fill="#BFD0DA">
                    <g id="path-7-link">
                        <ellipse id="path-7" cx="19.0463108" cy="18.9842868" rx="19.0463108" ry="18.9842868"></ellipse>
                    </g>
                </g>
                <path d="M19.0458613,27.9873108 C1.27505918,18.3248585 14.1274444,6.3121009 19.0458613,14.402469 C23.9650628,6.3121009 36.8182326,18.3248585 19.0458613,27.9873108 Z" id="Shape" fill="#FFFFFF"></path>
            </g>
            <g id="messages" transform="translate(0.000000, 231.113059)">
                <g id="Oval-9" fill="#BFD0DA">
                    <g id="path-9-link">
                        <ellipse id="path-9" cx="19.0463108" cy="18.9842868" rx="19.0463108" ry="18.9842868"></ellipse>
                    </g>
                </g>
                <path d="M25.6711146,12.3810567 L12.421507,12.3810567 C11.5105966,12.3810567 10.7653061,13.1239201 10.7653061,14.0318643 L10.7653061,23.9367097 C10.7653061,24.8446537 11.5105966,25.5875172 12.421507,25.5875172 L25.6711146,25.5875172 C26.5820251,25.5875172 27.3273155,24.8446537 27.3273155,23.9367097 L27.3273155,14.0318643 C27.3273155,13.1239201 26.5820251,12.3810567 25.6711146,12.3810567 Z M25.6711146,15.6826718 L19.0463108,19.8096906 L12.421507,15.6826718 L12.421507,14.0318643 L19.0463108,18.1588832 L25.6711146,14.0318643 L25.6711146,15.6826718 Z" id="Shape" fill="#FFFFFF" fill-rule="nonzero"></path>
            </g>
            <g id="music" transform="translate(0.000000, 75.111744)">
                <g id="Oval-9" fill="#BFD0DA">
                    <g id="path-11-link">
                        <ellipse id="path-11" cx="19.0463108" cy="18.9842868" rx="19.0463108" ry="18.9842868"></ellipse>
                    </g>
                </g>
                <path d="M24.7477579,9.35487753 C24.3355147,9.06833955 23.8078974,9.00073108 23.3363303,9.17386698 L15.5830345,12.0207306 C14.9810755,12.2417529 14.576626,12.8199012 14.576626,13.4592732 L14.576626,22.1583503 C14.1342404,21.8453507 13.5665875,21.7219101 12.9441302,21.8105532 C12.2418507,21.910547 11.5471513,22.2725682 10.9880393,22.8298948 C10.4288919,23.3872213 10.065688,24.0796585 9.96536737,24.7796157 C9.85871232,25.5238768 10.0571471,26.190207 10.5241946,26.6556982 C10.9087152,27.0389665 11.4297132,27.2406923 12.0186117,27.2406923 C12.1449465,27.2406923 12.2745199,27.231399 12.4063707,27.2126346 C13.1086503,27.1126405 13.8033498,26.7506196 14.3624973,26.1932929 C14.9216091,25.6359662 15.2848486,24.943529 15.3851692,24.2435366 C15.4010411,24.1325818 15.4093686,24.0236139 15.4118596,23.9164547 C15.4121443,23.909999 15.4128205,16.3732133 15.4128205,16.3732133 L24.5700349,13.0108438 L24.5700349,18.4888693 C24.1276849,18.1759407 23.5600321,18.0524648 22.9375392,18.1410723 C22.2352597,18.2410307 21.5405601,18.6030874 20.9814127,19.1604139 C20.4222651,19.7177406 20.0590613,20.4101778 19.9587407,21.1101704 C19.8520501,21.8544313 20.0505203,22.5207615 20.5175323,22.9862527 C20.9020529,23.3695212 21.423051,23.5713179 22.0119849,23.5713179 C22.1383198,23.5713179 22.2678931,23.5620244 22.399744,23.5432247 C23.1020236,23.4432309 23.7967231,23.0812097 24.3558705,22.5238831 C24.9149825,21.9665564 25.2782219,21.2741192 25.3785426,20.5741266 C25.3943789,20.4632783 25.4061226,10.6123742 25.4061226,10.6123742 C25.4060871,10.1114825 25.1599654,9.64141549 24.7477579,9.35487753 Z" id="Shape" fill="#FFFFFF"></path>
            </g>
            <g id="people" transform="translate(155.682889, 156.001314)">
                <g id="Oval-9">
                    <g id="path-14-link" fill="#04CC99">
                        <ellipse id="path-14" cx="19.0463108" cy="18.9842868" rx="19.0463108" ry="18.9842868"></ellipse>
                    </g>
                    <path d="M19.7252743,9.30480796 C14.1460712,9.30480796 9.62323347,13.8276457 9.62323347,19.4068488 C9.62323347,24.9860519 14.1460712,29.5088896 19.7252743,29.5088896 C25.3044774,29.5088896 29.8273151,24.9860519 29.8273151,19.4068488 C29.8212835,13.830146 25.3019771,9.31083959 19.7252743,9.30480796 Z M26.1046982,24.7414848 C24.5277187,26.5983502 22.1903844,27.6721549 19.7255534,27.6721549 C17.2607225,27.6721549 14.9233882,26.5983502 13.3464086,24.7414848 C13.3054364,24.6935411 13.2885564,24.6301144 13.3004144,24.5686615 C13.3130617,24.5075107 13.3522382,24.454785 13.4077343,24.4242246 C14.5221035,23.8857762 15.6716368,23.4202772 16.8487844,23.0307846 L17.4228606,22.8228958 C17.6478851,22.6958121 17.7984912,22.4720509 17.829143,22.2192666 C17.9710795,21.7241244 17.8941147,21.1933019 17.6170585,20.7565303 C16.9024444,19.9850872 16.2040134,19.0333067 16.2040134,16.6530207 C16.1169368,15.6939975 16.4518081,14.7441676 17.1243852,14.0424755 C17.7969623,13.3407835 18.7432255,12.9540202 19.7251276,12.979482 C20.7071759,12.9537775 21.6536709,13.3404347 22.326439,14.0421564 C22.9992072,14.743878 23.33419,15.6938488 23.2470935,16.6530207 C23.2470935,19.0333067 22.5486625,19.9850872 21.8340484,20.7565303 C21.5569921,21.1933019 21.4800273,21.7241244 21.6219638,22.2192666 C21.6526156,22.4720509 21.8032218,22.6958121 22.0282463,22.8228958 L22.6031742,23.0307846 C23.7796303,23.4203119 24.9285762,23.8855246 26.0425208,24.4233897 C26.097864,24.4541185 26.1369829,24.5067669 26.1498407,24.5678266 C26.1622003,24.6294215 26.1456216,24.6931982 26.1046982,24.7414848 Z" id="Shape" fill="#FFFFFF" fill-rule="nonzero"></path>
                </g>
            </g>
        </g>
    </g>
</svg>