<?xml version="1.0" encoding="UTF-8"?>
<svg width="217px" height="240px" viewBox="0 0 217 240" version="1.1" xmlns="http://www.w3.org/2000/svg" xmlns:xlink="http://www.w3.org/1999/xlink">
    <!-- Generator: Sketch 52.5 (67469) - http://www.bohemiancoding.com/sketch -->
    <title>4</title>
    <desc>Created with Sketch.</desc>
    <defs>
        <path d="M136.581197,0 L17.0726495,0 C7.64001069,0 0,7.67142857 0,17.1428572 L0,137.142857 C0,146.614286 7.64001069,154.285714 17.0726495,154.285714 L51.2179487,154.285714 L76.8269231,180 L102.435897,154.285714 L136.581197,154.285714 C146.013835,154.285714 153.653846,146.614286 153.653846,137.142857 L153.653846,17.1428572 C153.653846,7.67142857 146.013835,0 136.581197,0 Z" id="path-1"></path>
        <filter x="-35.5%" y="-23.1%" width="170.9%" height="160.6%" filterUnits="objectBoundingBox" id="filter-2">
            <feOffset dx="0" dy="13" in="SourceAlpha" result="shadowOffsetOuter1"></feOffset>
            <feGaussianBlur stdDeviation="16" in="shadowOffsetOuter1" result="shadowBlurOuter1"></feGaussianBlur>
            <feColorMatrix values="0 0 0 0 0   0 0 0 0 0   0 0 0 0 0  0 0 0 0.1 0" type="matrix" in="shadowBlurOuter1"></feColorMatrix>
        </filter>
    </defs>
    <g id="Mobile-UI" stroke="none" stroke-width="1" fill="none" fill-rule="evenodd">
        <g id="Walkthrough-4" transform="translate(-71.000000, -131.000000)">
            <g id="4" transform="translate(103.000000, 150.000000)">
                <g id="Group">
                    <g id="Shape">
                        <use fill="black" fill-opacity="1" filter="url(#filter-2)" xlink:href="#path-1"></use>
                        <use fill="#FFFFFF" fill-rule="evenodd" xlink:href="#path-1"></use>
                    </g>
                    <g id="single-neutral-circle" transform="translate(42.500000, 44.181818)" fill="#BFD0DA" fill-rule="nonzero">
                        <path d="M35.1442308,0 C15.7346081,-1.18976773e-15 2.37699322e-15,15.7514365 0,35.1818182 C-2.37699322e-15,54.6121998 15.7346081,70.3636364 35.1442308,70.3636364 C54.5538534,70.3636364 70.2884615,54.6121998 70.2884615,35.1818182 C70.267478,15.7601442 54.5451552,0.0210060304 35.1442308,0 Z M57.0800881,53.4734318 C51.6577173,59.9940013 43.6209019,63.7647743 35.1456951,63.7647743 C26.6704883,63.7647743 18.633673,59.9940013 13.2113021,53.4734318 C13.0704208,53.3050725 13.0123797,53.0823435 13.053153,52.8665454 C13.0966403,52.6518083 13.2313466,52.4666566 13.4221675,52.3593409 C17.2538742,50.4685252 21.2064911,48.8338784 25.2540585,47.4661363 L27.2279928,46.7361136 C28.001729,46.2898466 28.5195812,45.5040866 28.624976,44.616409 C29.1130182,42.8776675 28.8483782,41.013631 27.8957332,39.4798636 C25.4385658,36.7708636 23.0370433,33.4285909 23.0370433,25.0699773 C22.7376345,21.7022709 23.889074,18.3668479 26.201699,15.9027857 C28.5143239,13.4387235 31.7680061,12.0805654 35.1442308,12.1699773 C38.5209584,12.0797131 41.7754376,13.4374989 44.0887195,15.901665 C46.4020015,18.365831 47.5538246,21.7017489 47.254347,25.0699773 C47.254347,33.4285909 44.8528245,36.7708636 42.3956571,39.4798636 C41.4430119,41.013631 41.1783721,42.8776675 41.6664143,44.616409 C41.7718091,45.5040866 42.2896613,46.2898466 43.0633975,46.7361136 L45.0402605,47.4661363 C49.0854502,48.8340003 53.0360472,50.4676415 56.8662941,52.356409 C57.0565889,52.4643163 57.1910974,52.6491962 57.2353085,52.8636137 C57.2778064,53.0799105 57.2208012,53.3038685 57.0800881,53.4734318 Z" id="Shape"></path>
                    </g>
                </g>
                <g id="location" transform="translate(117.692308, 104.727273)">
                    <path d="M26.1538462,0 C11.7706898,0 0,11.8569242 0,26.3454545 C0,40.8339849 26.1538462,75.2727273 26.1538462,75.2727273 C26.1538462,75.2727273 52.3076923,40.8339849 52.3076923,26.3454545 C52.3076923,11.8569242 40.5370025,0 26.1538462,0 Z" id="Path" fill="#04CC99"></path>
                    <path d="M21.6432378,26.4653005 C21.6432378,23.0674487 24.0715147,20.4663355 27.243589,20.4663355 C30.4156634,20.4663355 32.8439403,23.0674487 32.8439403,26.4653005 C32.8439403,29.8631522 30.4156634,32.4642654 27.243589,32.4642654 C24.0715147,32.4642654 21.6432378,29.8631522 21.6432378,26.4653005 Z M36.3879135,16.6701165 C41.4340632,22.0676212 41.4340632,31.0660686 36.3879135,36.4635754 C36.0160146,36.8619447 35.6441159,37.260314 35.2722171,37.4634029 L38.8161902,42.0641712 C39.3776834,41.6658039 39.9391764,41.0643437 40.3110753,40.6659764 C47.5886159,32.8626347 47.5886159,20.2632465 40.3110753,12.4677155 C39.7495821,11.8662572 39.3776834,11.467888 38.8161902,11.0695187 L35.2722171,15.6702889 C35.833712,15.8655672 36.2056089,16.2639365 36.3879135,16.6701165 Z M18.0992664,36.2604865 C15.4813935,33.6671838 14.1761028,30.2615215 14.1761028,26.4653005 C14.1761028,22.6690814 15.4813935,19.263419 18.0992664,16.6701165 C18.4711633,16.2639365 18.8430622,15.8655672 19.2149611,15.6702889 L15.6709878,11.0695187 C15.1094947,11.467888 14.5480016,12.0693462 14.1761028,12.4677155 C6.89856401,20.2632465 6.89856401,32.8626347 14.1761028,40.6659764 C14.7375959,41.2596239 15.1094947,41.6658039 15.6709878,42.0641712 L19.2149611,37.4634029 C18.6534679,37.0650337 18.2815692,36.6666663 18.0992664,36.2604865 Z" id="Shape" fill="#FFFFFF" fill-rule="nonzero"></path>
                </g>
            </g>
        </g>
    </g>
</svg>