<?xml version="1.0" encoding="UTF-8"?>
<svg width="202px" height="230px" viewBox="0 0 202 230" version="1.1" xmlns="http://www.w3.org/2000/svg" xmlns:xlink="http://www.w3.org/1999/xlink">
    <!-- Generator: Sketch 52.5 (67469) - http://www.bohemiancoding.com/sketch -->
    <title>Artwork</title>
    <desc>Created with Sketch.</desc>
    <defs>
        <filter x="-39.5%" y="-38.2%" width="187.3%" height="192.4%" filterUnits="objectBoundingBox" id="filter-1">
            <feOffset dx="0" dy="8" in="SourceAlpha" result="shadowOffsetOuter1"></feOffset>
            <feGaussianBlur stdDeviation="10" in="shadowOffsetOuter1" result="shadowBlurOuter1"></feGaussianBlur>
            <feColorMatrix values="0 0 0 0 0   0 0 0 0 0   0 0 0 0 0  0 0 0 0.1 0" type="matrix" in="shadowBlurOuter1" result="shadowMatrixOuter1"></feColorMatrix>
            <feMerge>
                <feMergeNode in="shadowMatrixOuter1"></feMergeNode>
                <feMergeNode in="SourceGraphic"></feMergeNode>
            </feMerge>
        </filter>
        <path d="M101.688742,18.1534992 C121.134336,25.0265307 135.066225,43.5717123 135.066225,65.3708609 L135.066225,101.662672 L135.34654,101.662672 C135.389399,107.220891 137.267906,110 140.98206,110 C147.619388,110 153.000006,115.380616 153.000009,122.017944 L153.000004,127.639073 C153.000006,134.067153 147.789019,139.278144 141.360938,139.278146 L28.6390728,139.278146 C22.2109904,139.278146 17,134.067155 17,127.639073 L17.0000177,122.16256 C17.0000177,115.445364 22.4453813,110 29.1625777,110 C31.7485315,110 33.6722638,108.300319 34.9337748,104.900957 L34.9337748,65.3708609 C34.9337748,43.5717123 48.8656637,25.0265307 68.3112583,18.1534992 L68.3112583,17.6887417 C68.3112583,8.47180418 75.7830625,1 85,1 C94.2169375,1 101.688742,8.47180418 101.688742,17.6887417 L101.688742,18.1534992 Z M84.5,169.5 C73.1781626,169.5 64,160.321837 64,149 C72.3657096,149 98.411917,149 105,149 C105,160.321837 95.8218374,169.5 84.5,169.5 Z" id="path-2"></path>
        <filter x="-32.4%" y="-18.4%" width="164.7%" height="152.2%" filterUnits="objectBoundingBox" id="filter-3">
            <feOffset dx="0" dy="13" in="SourceAlpha" result="shadowOffsetOuter1"></feOffset>
            <feGaussianBlur stdDeviation="12.5" in="shadowOffsetOuter1" result="shadowBlurOuter1"></feGaussianBlur>
            <feColorMatrix values="0 0 0 0 0.226735433   0 0 0 0 0.437054197   0 0 0 0 0.687818878  0 0 0 0.0769927536 0" type="matrix" in="shadowBlurOuter1"></feColorMatrix>
        </filter>
        <circle id="path-4" cx="17.6" cy="17.6" r="17.6"></circle>
        <filter x="-36.9%" y="-31.2%" width="173.9%" height="173.9%" filterUnits="objectBoundingBox" id="filter-5">
            <feOffset dx="0" dy="2" in="SourceAlpha" result="shadowOffsetOuter1"></feOffset>
            <feGaussianBlur stdDeviation="4" in="shadowOffsetOuter1" result="shadowBlurOuter1"></feGaussianBlur>
            <feColorMatrix values="0 0 0 0 1   0 0 0 0 0.384313725   0 0 0 0 0.37254902  0 0 0 0.4 0" type="matrix" in="shadowBlurOuter1"></feColorMatrix>
        </filter>
    </defs>
    <g id="Mobile-UI" stroke="none" stroke-width="1" fill="none" fill-rule="evenodd">
        <g id="Walkthrough-5" transform="translate(-88.000000, -148.000000)">
            <g id="Artwork" filter="url(#filter-1)" transform="translate(109.000000, 160.000000)">
                <g id="bell">
                    <use fill="black" fill-opacity="1" filter="url(#filter-3)" xlink:href="#path-2"></use>
                    <use fill="#04CC99" fill-rule="evenodd" xlink:href="#path-2"></use>
                </g>
                <g id="indicator" transform="translate(121.000000, 124.000000)">
                    <g id="Oval-2">
                        <use fill="black" fill-opacity="1" filter="url(#filter-5)" xlink:href="#path-4"></use>
                        <use fill="#FF625F" fill-rule="evenodd" xlink:href="#path-4"></use>
                    </g>
                    <path d="M18.4358095,10.6488 C18.9696789,10.6488 19.4624739,10.7250659 19.9142095,10.8776 C20.3659451,11.0301341 20.7546079,11.2471986 21.0802095,11.5288 C21.4058112,11.8104014 21.6595419,12.1506647 21.8414095,12.5496 C22.0232771,12.9485353 22.1142095,13.3914642 22.1142095,13.8784 C22.1142095,14.2773353 22.0628767,14.6337318 21.9602095,14.9476 C21.8575423,15.2614682 21.7108771,15.5371988 21.5202095,15.7748 C21.3295419,16.0124012 21.0992775,16.2133325 20.8294095,16.3776 C20.5595415,16.5418675 20.2574112,16.6738662 19.9230095,16.7736 C20.744347,16.9906678 21.3618075,17.3543974 21.7754095,17.8648 C22.1890116,18.3752026 22.3958095,19.0146628 22.3958095,19.7832 C22.3958095,20.3640029 22.2858106,20.886131 22.0658095,21.3496 C21.8458084,21.813069 21.5451448,22.2075984 21.1638095,22.5332 C20.7824743,22.8588016 20.3380787,23.1081325 19.8306095,23.2812 C19.3231403,23.4542675 18.7790124,23.5408 18.1982095,23.5408 C17.5294062,23.5408 16.9574119,23.4572008 16.4822095,23.29 C16.0070071,23.1227992 15.6051445,22.8925348 15.2766095,22.5992 C14.9480745,22.3058652 14.6782106,21.9582687 14.4670095,21.5564 C14.2558085,21.1545313 14.0768769,20.7189357 13.9302095,20.2496 L14.5990095,19.968 C14.7222101,19.9151997 14.8454089,19.8888 14.9686095,19.8888 C15.0859434,19.8888 15.1900757,19.9137331 15.2810095,19.9636 C15.3719433,20.0134669 15.440876,20.0911995 15.4878095,20.1968 C15.4995429,20.2202668 15.5112761,20.2451999 15.5230095,20.2716 C15.5347429,20.2980001 15.5464761,20.3258665 15.5582095,20.3552 C15.6403433,20.5253342 15.7400756,20.7174656 15.8574095,20.9316 C15.9747434,21.1457344 16.1331419,21.3466657 16.3326095,21.5344 C16.5320772,21.7221343 16.7799414,21.8805327 17.0762095,22.0096 C17.3724777,22.1386673 17.7406073,22.2032 18.1806095,22.2032 C18.6206117,22.2032 19.0063412,22.1313341 19.3378095,21.9876 C19.6692778,21.8438659 19.9450084,21.6576011 20.1650095,21.4288 C20.3850106,21.1999989 20.5507423,20.9448014 20.6622095,20.6632 C20.7736767,20.3815986 20.8294095,20.1029347 20.8294095,19.8272 C20.8294095,19.4869316 20.7839433,19.1760014 20.6930095,18.8944 C20.6020757,18.6127986 20.4378107,18.3693344 20.2002095,18.164 C19.9626083,17.9586656 19.6340783,17.7973339 19.2146095,17.68 C18.7951408,17.5626661 18.2568795,17.504 17.5998095,17.504 L17.5998095,16.3688 C18.1336789,16.3629333 18.5898076,16.3042672 18.9682095,16.1928 C19.3466114,16.0813328 19.656075,15.928801 19.8966095,15.7352 C20.1371441,15.541599 20.3116756,15.309868 20.4202095,15.04 C20.5287434,14.770132 20.5830095,14.470935 20.5830095,14.1424 C20.5830095,13.7786648 20.5258101,13.461868 20.4114095,13.192 C20.297009,12.922132 20.1400772,12.6992009 19.9406095,12.5232 C19.7411419,12.3471991 19.5050109,12.2152004 19.2322095,12.1272 C18.9594082,12.0391996 18.6646111,11.9952 18.3478095,11.9952 C18.0310079,11.9952 17.7376775,12.0421329 17.4678095,12.136 C17.1979415,12.2298671 16.9588772,12.3603992 16.7506095,12.5276 C16.5423418,12.6948008 16.3678102,12.8942655 16.2270095,13.126 C16.0862088,13.3577345 15.9806099,13.608532 15.9102095,13.8784 C15.863276,14.0485342 15.7928767,14.171733 15.6990095,14.248 C15.6051424,14.324267 15.4848769,14.3624 15.3382095,14.3624 C15.308876,14.3624 15.2780764,14.3609333 15.2458095,14.358 C15.2135427,14.3550667 15.1768764,14.3506667 15.1358095,14.3448 L14.3174095,14.204 C14.3995433,13.6290638 14.5579417,13.1201355 14.7926095,12.6772 C15.0272774,12.2342645 15.3250077,11.8632015 15.6858095,11.564 C16.0466113,11.2647985 16.4602072,11.0374674 16.9266095,10.882 C17.3930119,10.7265326 17.8960735,10.6488 18.4358095,10.6488 Z" id="3" stroke="#FFFFFF" fill="#FFFFFF"></path>
                </g>
                <g id="face" transform="translate(62.000000, 69.000000)"></g>
                <path d="M16.5532105,38.4444247 C14.6123323,27.6754271 23.2010417,14.9397184 33.2571291,12.2919538" id="line" stroke="#EBF0F3" stroke-width="3" stroke-linecap="round" stroke-linejoin="round"></path>
                <path d="M0.634448522,34.1458105 C-1.87797997,20.205556 9.23993454,3.71943275 22.2573409,0.291953792" id="line" stroke="#EBF0F3" stroke-width="3" stroke-linecap="round" stroke-linejoin="round"></path>
            </g>
        </g>
    </g>
</svg>