<?xml version="1.0" encoding="UTF-8"?>
<svg width="127px" height="127px" viewBox="0 0 127 127" version="1.1" xmlns="http://www.w3.org/2000/svg" xmlns:xlink="http://www.w3.org/1999/xlink">
    <!-- Generator: Sketch 53.2 (72643) - https://sketchapp.com -->
    <title>mobile/operations/barcode_alt</title>
    <desc>Created with Sketch.</desc>
    <defs>
        <path d="M42.5,0 C19.0661538,0 0,19.0645193 0,42.5 C0,65.9354807 19.0661538,85 42.5,85 C65.9338462,85 85,65.9354807 85,42.5 C85,19.0645193 65.9338462,0 42.5,0 Z" id="path-1"></path>
        <filter x="-41.2%" y="-32.9%" width="182.4%" height="182.4%" filterUnits="objectBoundingBox" id="filter-2">
            <feOffset dx="0" dy="7" in="SourceAlpha" result="shadowOffsetOuter1"></feOffset>
            <feGaussianBlur stdDeviation="10.5" in="shadowOffsetOuter1" result="shadowBlurOuter1"></feGaussianBlur>
            <feColorMatrix values="0 0 0 0 0   0 0 0 0 0   0 0 0 0 0  0 0 0 0.1 0" type="matrix" in="shadowBlurOuter1"></feColorMatrix>
        </filter>
    </defs>
    <g id="Mobile-Illustrations" stroke="none" stroke-width="1" fill="none" fill-rule="evenodd">
        <g id="Illustrations" transform="translate(-474.000000, -10952.000000)">
            <g id="Operations" transform="translate(40.000000, 56.000000)">
                <g id="mobile/operations/barcode_alt" transform="translate(455.000000, 10910.000000)">
                    <g id="barcode">
                        <g id="Shape">
                            <use fill="black" fill-opacity="1" filter="url(#filter-2)" xlink:href="#path-1"></use>
                            <use fill="#04CC99" fill-rule="evenodd" xlink:href="#path-1"></use>
                        </g>
                        <path d="M29.1833333,39.4305556 L27.625,39.4305556 C26.7643563,39.4305556 26.0666667,38.743437 26.0666667,37.8958333 L26.0666667,31.7569444 C26.0666667,30.9093408 26.7643563,30.2222222 27.625,30.2222222 L29.1833333,30.2222222 C30.0439771,30.2222222 30.7416667,30.9093408 30.7416667,31.7569444 L30.7416667,37.8958333 C30.7416667,38.302867 30.5774856,38.6932296 30.2852414,38.9810458 C29.9929972,39.2688621 29.596629,39.4305556 29.1833333,39.4305556 L29.1833333,39.4305556 Z M60.35,31.7569444 L60.35,37.8958333 C60.35,38.743437 59.6523104,39.4305556 58.7916667,39.4305556 C57.9310229,39.4305556 57.2333333,38.743437 57.2333333,37.8958333 L57.2333333,31.7569444 C57.2333333,30.9093408 57.9310229,30.2222222 58.7916667,30.2222222 C59.6523104,30.2222222 60.35,30.9093408 60.35,31.7569444 Z M54.1166667,30.2222222 C54.9773104,30.2222222 55.675,30.9093408 55.675,31.7569444 L55.675,37.8958333 C55.675,38.743437 54.9773104,39.4305556 54.1166667,39.4305556 L52.5583333,39.4305556 C51.6976896,39.4305556 51,38.743437 51,37.8958333 L51,31.7569444 C51,30.9093408 51.6976896,30.2222222 52.5583333,30.2222222 L54.1166667,30.2222222 Z M46.325,30.2222222 C47.1856437,30.2222222 47.8833333,30.9093408 47.8833333,31.7569444 L47.8833333,37.8958333 C47.8833333,38.743437 47.1856437,39.4305556 46.325,39.4305556 L45.5458333,39.4305556 C44.6851896,39.4305556 43.9875,38.743437 43.9875,37.8958333 L43.9875,31.7569444 C43.9875,30.9093408 44.6851896,30.2222222 45.5458333,30.2222222 L46.325,30.2222222 Z M42.4291667,31.7569444 L42.4291667,37.8958333 C42.4291667,38.743437 41.7314771,39.4305556 40.8708333,39.4305556 C40.0101896,39.4305556 39.3125,38.743437 39.3125,37.8958333 L39.3125,31.7569444 C39.3125,30.9093408 40.0101896,30.2222222 40.8708333,30.2222222 C41.7314771,30.2222222 42.4291667,30.9093408 42.4291667,31.7569444 Z M35.4166667,31.7569444 L35.4166667,37.8958333 C35.4166667,38.743437 34.7189771,39.4305556 33.8583333,39.4305556 C32.9976896,39.4305556 32.3,38.743437 32.3,37.8958333 L32.3,31.7569444 C32.3,30.9093408 32.9976896,30.2222222 33.8583333,30.2222222 C34.7189771,30.2222222 35.4166667,30.9093408 35.4166667,31.7569444 Z M27.625,45.5694444 L29.1833333,45.5694444 C30.0439771,45.5694444 30.7416667,46.256563 30.7416667,47.1041667 L30.7416667,53.2430556 C30.7416667,54.0906592 30.0439771,54.7777778 29.1833333,54.7777778 L27.625,54.7777778 C26.7643563,54.7777778 26.0666667,54.0906592 26.0666667,53.2430556 L26.0666667,47.1041667 C26.0666667,46.256563 26.7643563,45.5694444 27.625,45.5694444 L27.625,45.5694444 Z M32.3,53.2430556 L32.3,47.1041667 C32.3,46.256563 32.9976896,45.5694444 33.8583333,45.5694444 C34.7189771,45.5694444 35.4166667,46.256563 35.4166667,47.1041667 L35.4166667,53.2430556 C35.4166667,54.0906592 34.7189771,54.7777778 33.8583333,54.7777778 C32.9976896,54.7777778 32.3,54.0906592 32.3,53.2430556 Z M39.3125,53.2430556 L39.3125,47.1041667 C39.3125,46.256563 40.0101896,45.5694444 40.8708333,45.5694444 C41.7314771,45.5694444 42.4291667,46.256563 42.4291667,47.1041667 L42.4291667,53.2430556 C42.4291667,54.0906592 41.7314771,54.7777778 40.8708333,54.7777778 C40.0101896,54.7777778 39.3125,54.0906592 39.3125,53.2430556 Z M45.5458333,54.7777778 C44.6851896,54.7777778 43.9875,54.0906592 43.9875,53.2430556 L43.9875,47.1041667 C43.9875,46.256563 44.6851896,45.5694444 45.5458333,45.5694444 L46.325,45.5694444 C47.1856437,45.5694444 47.8833333,46.256563 47.8833333,47.1041667 L47.8833333,53.2430556 C47.8833333,54.0906592 47.1856437,54.7777778 46.325,54.7777778 L45.5458333,54.7777778 Z M52.5583333,54.7777778 C51.6976896,54.7777778 51,54.0906592 51,53.2430556 L51,47.1041667 C51,46.256563 51.6976896,45.5694444 52.5583333,45.5694444 L54.1166667,45.5694444 C54.9773104,45.5694444 55.675,46.256563 55.675,47.1041667 L55.675,53.2430556 C55.675,54.0906592 54.9773104,54.7777778 54.1166667,54.7777778 L52.5583333,54.7777778 Z M57.2333333,47.1041667 C57.2333333,46.256563 57.9310229,45.5694444 58.7916667,45.5694444 C59.6523104,45.5694444 60.35,46.256563 60.35,47.1041667 L60.35,53.2430556 C60.35,54.0906592 59.6523104,54.7777778 58.7916667,54.7777778 C57.9310229,54.7777778 57.2333333,54.0906592 57.2333333,53.2430556 L57.2333333,47.1041667 Z" id="Shape" fill="#FFFFFF" fill-rule="nonzero"></path>
                        <path d="M65.025,44.0347222 L21.3916667,44.0347222 C20.5310229,44.0347222 19.8333333,43.3476037 19.8333333,42.5 C19.8333333,41.6523963 20.5310229,40.9652778 21.3916667,40.9652778 L65.025,40.9652778 C65.8856437,40.9652778 66.5833333,41.6523963 66.5833333,42.5 C66.5833333,43.3476037 65.8856437,44.0347222 65.025,44.0347222 Z" id="Path" fill="#FFFFFF" fill-rule="nonzero"></path>
                        <path d="M65.025,60.9166667 L60.35,60.9166667 C59.4893563,60.9166667 58.7916667,60.2295481 58.7916667,59.3819444 C58.7916667,58.5343408 59.4893563,57.8472222 60.35,57.8472222 L63.4666667,57.8472222 L63.4666667,54.7777778 C63.4666667,53.9301741 64.1643563,53.2430556 65.025,53.2430556 C65.8856437,53.2430556 66.5833333,53.9301741 66.5833333,54.7777778 L66.5833333,59.3819444 C66.5833333,60.2295481 65.8856437,60.9166667 65.025,60.9166667 Z M65.025,31.7569444 C64.1643563,31.7569444 63.4666667,31.0698259 63.4666667,30.2222222 L63.4666667,27.1527778 L60.35,27.1527778 C59.4893563,27.1527778 58.7916667,26.4656592 58.7916667,25.6180556 C58.7916667,24.7704519 59.4893563,24.0833333 60.35,24.0833333 L65.025,24.0833333 C65.8856437,24.0833333 66.5833333,24.7704519 66.5833333,25.6180556 L66.5833333,30.2222222 C66.5833333,31.0698259 65.8856437,31.7569444 65.025,31.7569444 Z M27.625,25.6180556 C27.625,26.4656592 26.9273104,27.1527778 26.0666667,27.1527778 L22.95,27.1527778 L22.95,30.2222222 C22.95,31.0698259 22.2523104,31.7569444 21.3916667,31.7569444 C20.5310229,31.7569444 19.8333333,31.0698259 19.8333333,30.2222222 L19.8333333,25.6180556 C19.8333333,24.7704519 20.5310229,24.0833333 21.3916667,24.0833333 L26.0666667,24.0833333 C26.9273104,24.0833333 27.625,24.7704519 27.625,25.6180556 Z M27.625,59.3819444 C27.625,60.2295481 26.9273104,60.9166667 26.0666667,60.9166667 L21.3916667,60.9166667 C20.5310229,60.9166667 19.8333333,60.2295481 19.8333333,59.3819444 L19.8333333,54.7777778 C19.8333333,53.9301741 20.5310229,53.2430556 21.3916667,53.2430556 C22.2523104,53.2430556 22.95,53.9301741 22.95,54.7777778 L22.95,57.8472222 L26.0666667,57.8472222 C26.9273104,57.8472222 27.625,58.5343408 27.625,59.3819444 Z" id="Combined-Shape" fill-opacity="0.57" fill="#FFFFFF" fill-rule="nonzero"></path>
                    </g>
                </g>
            </g>
        </g>
    </g>
</svg>