<?xml version="1.0" encoding="UTF-8"?>
<svg width="99px" height="91px" viewBox="0 0 99 91" version="1.1" xmlns="http://www.w3.org/2000/svg" xmlns:xlink="http://www.w3.org/1999/xlink">
    <!-- Generator: Sketch 55.1 (78136) - https://sketchapp.com -->
    <title>leaderboard</title>
    <desc>Created with Sketch.</desc>
    <defs>
        <linearGradient x1="50%" y1="4.07986111%" x2="134.071905%" y2="124.319328%" id="linearGradient-1">
            <stop stop-color="#FAD961" offset="0%"></stop>
            <stop stop-color="#F76B1C" offset="100%"></stop>
        </linearGradient>
        <ellipse id="path-2" cx="11.912228" cy="11.4939377" rx="11.912228" ry="11.4939377"></ellipse>
        <ellipse id="path-4" cx="11.912228" cy="11.4939377" rx="11.912228" ry="11.4939377"></ellipse>
        <ellipse id="path-6" cx="11.912228" cy="11.4939377" rx="11.912228" ry="11.4939377"></ellipse>
        <ellipse id="path-8" cx="11.912228" cy="11.4939377" rx="11.912228" ry="11.4939377"></ellipse>
        <ellipse id="path-10" cx="11.912228" cy="11.4939377" rx="11.912228" ry="11.4939377"></ellipse>
        <ellipse id="path-12" cx="11.912228" cy="11.4939377" rx="11.912228" ry="11.4939377"></ellipse>
        <ellipse id="path-14" cx="11.912228" cy="11.4939377" rx="11.912228" ry="11.4939377"></ellipse>
        <ellipse id="path-16" cx="11.912228" cy="11.4939377" rx="11.912228" ry="11.4939377"></ellipse>
        <linearGradient x1="50%" y1="39.875%" x2="134.071905%" y2="66.3867797%" id="linearGradient-18">
            <stop stop-color="#FAD961" offset="0%"></stop>
            <stop stop-color="#F76B1C" offset="100%"></stop>
        </linearGradient>
    </defs>
    <g id="Mobile-Illustrations" stroke="none" stroke-width="1" fill="none" fill-rule="evenodd">
        <g id="Illustrations" transform="translate(-705.000000, -11772.000000)">
            <g id="Boost" transform="translate(41.000000, 44.000000)">
                <g id="leaderboard" transform="translate(664.000000, 11728.000000)">
                    <g id="Group" transform="translate(0.000000, 45.000000)">
                        <polygon id="Shape" fill="#DEE1E6" points="99 45.9806948 69.8027344 45.9806948 64.0019531 34.3856535 69.8027344 22.9806948 99 22.9806948"></polygon>
                        <polygon id="Shape" fill="#DEE1E6" points="29.1972656 45.9806948 0 45.9806948 0 11.5757361 29.1972656 11.5757361 34.9980469 28.6831742"></polygon>
                        <polygon id="Shape" fill="#04CC99" points="29.1972656 0.170777471 29.1972656 45.9806948 69.8027344 45.9806948 69.8027344 0.170777471"></polygon>
                    </g>
                    <g id="person" transform="translate(38.000000, 12.000000)">
                        <g id="user" transform="translate(0.000000, 0.136234)">
                            <g id="Oval-6" fill="#04CC99">
                                <ellipse id="path-10" cx="11.912228" cy="11.4939377" rx="11.912228" ry="11.4939377"></ellipse>
                            </g>
                            <g id="Rectangle-2-Clipped">
                                <mask id="mask-3" fill="white">
                                    <use xlink:href="#path-2"></use>
                                </mask>
                                <g id="path-10"></g>
                                <path d="M11.9773222,12.6872974 L11.9773222,12.6872974 C15.4285704,12.6872974 18.2263599,15.4030119 18.2263599,18.7530155 L18.2263599,26.1282955 L5.72828452,26.1282955 L5.72828452,18.7530155 C5.72828452,15.4030119 8.526074,12.6872974 11.9773222,12.6872974 Z" id="Rectangle-2" fill="#FFFFFF" opacity="0.699999988" mask="url(#mask-3)"></path>
                            </g>
                            <g id="Oval-Clipped">
                                <mask id="mask-5" fill="white">
                                    <use xlink:href="#path-4"></use>
                                </mask>
                                <g id="path-10"></g>
                                <ellipse id="Oval" fill="#FFFFFF" mask="url(#mask-5)" cx="11.912228" cy="10.2377697" rx="4.7518724" ry="4.58501339"></ellipse>
                            </g>
                        </g>
                    </g>
                    <g id="person" transform="translate(74.000000, 23.000000)">
                        <g id="user" transform="translate(0.000000, 0.136234)">
                            <g id="Oval-6" fill="#DEE1E6">
                                <ellipse id="path-10" cx="11.912228" cy="11.4939377" rx="11.912228" ry="11.4939377"></ellipse>
                            </g>
                            <g id="Rectangle-2-Clipped">
                                <mask id="mask-7" fill="white">
                                    <use xlink:href="#path-6"></use>
                                </mask>
                                <g id="path-10"></g>
                                <path d="M11.9773222,12.6872974 L11.9773222,12.6872974 C15.4285704,12.6872974 18.2263599,15.4030119 18.2263599,18.7530155 L18.2263599,26.1282955 L5.72828452,26.1282955 L5.72828452,18.7530155 C5.72828452,15.4030119 8.526074,12.6872974 11.9773222,12.6872974 Z" id="Rectangle-2" fill="#FFFFFF" opacity="0.699999988" mask="url(#mask-7)"></path>
                            </g>
                            <g id="Oval-Clipped">
                                <mask id="mask-9" fill="white">
                                    <use xlink:href="#path-8"></use>
                                </mask>
                                <g id="path-10"></g>
                                <ellipse id="Oval" fill="#FFFFFF" mask="url(#mask-9)" cx="11.912228" cy="10.2377697" rx="4.7518724" ry="4.58501339"></ellipse>
                            </g>
                            <g id="Oval-Clipped">
                                <mask id="mask-11" fill="white">
                                    <use xlink:href="#path-10"></use>
                                </mask>
                                <g id="path-10"></g>
                                <ellipse id="Oval" fill="#FFFFFF" mask="url(#mask-11)" cx="11.912228" cy="10.2377697" rx="4.7518724" ry="4.58501339"></ellipse>
                            </g>
                        </g>
                    </g>
                    <g id="person" transform="translate(2.000000, 23.000000)">
                        <g id="user" transform="translate(0.000000, 0.136234)">
                            <g id="Oval-6" fill="#DEE1E6">
                                <ellipse id="path-10" cx="11.912228" cy="11.4939377" rx="11.912228" ry="11.4939377"></ellipse>
                            </g>
                            <g id="Rectangle-2-Clipped">
                                <mask id="mask-13" fill="white">
                                    <use xlink:href="#path-12"></use>
                                </mask>
                                <g id="path-10"></g>
                                <path d="M11.9773222,12.6872974 L11.9773222,12.6872974 C15.4285704,12.6872974 18.2263599,15.4030119 18.2263599,18.7530155 L18.2263599,26.1282955 L5.72828452,26.1282955 L5.72828452,18.7530155 C5.72828452,15.4030119 8.526074,12.6872974 11.9773222,12.6872974 Z" id="Rectangle-2" fill="#FFFFFF" opacity="0.699999988" mask="url(#mask-13)"></path>
                            </g>
                            <g id="Oval-Clipped">
                                <mask id="mask-15" fill="white">
                                    <use xlink:href="#path-14"></use>
                                </mask>
                                <g id="path-10"></g>
                                <ellipse id="Oval" fill="#FFFFFF" mask="url(#mask-15)" cx="11.912228" cy="10.2377697" rx="4.7518724" ry="4.58501339"></ellipse>
                            </g>
                            <g id="Oval-Clipped">
                                <mask id="mask-17" fill="white">
                                    <use xlink:href="#path-16"></use>
                                </mask>
                                <g id="path-10"></g>
                                <ellipse id="Oval" fill="#FFFFFF" mask="url(#mask-17)" cx="11.912228" cy="10.2377697" rx="4.7518724" ry="4.58501339"></ellipse>
                            </g>
                        </g>
                    </g>
                    <g id="Group-2" transform="translate(40.000000, 0.000000)" fill="#04CC99">
                        <path d="M13.8733286,2.66547016 C13.8517629,2.60778467 13.7968051,2.56612293 13.7314122,2.55811106 L11.2123964,2.25045512 L10.0381079,0.0814807527 C9.97967176,-0.0271602508 9.78523243,-0.0271602508 9.72679627,0.0814807527 L8.55250776,2.25045512 L6.03349196,2.55811106 C5.9680991,2.56612293 5.91279345,2.60778467 5.89157557,2.66547016 C5.87035769,2.72315565 5.88635804,2.78693016 5.93331569,2.83019428 L7.78066349,4.53223667 L7.27734729,6.85151378 C7.26447745,6.91176307 7.28952149,6.97297379 7.34239231,7.01046935 C7.39526314,7.04764444 7.46691698,7.05373345 7.52570098,7.02649311 L9.882626,5.94072399 L12.2395511,7.02649311 C12.2642473,7.03770973 12.2906827,7.04347826 12.3174659,7.04347826 C12.3546842,7.04347826 12.3922503,7.03226164 12.4232075,7.01046935 C12.4757305,6.97329427 12.5011224,6.91176307 12.4882525,6.85151378 L11.9849364,4.53223667 L13.8322842,2.83019428 C13.8781983,2.78725064 13.8941987,2.72347612 13.8733286,2.66547016 Z" id="Shape"></path>
                        <path d="M3.91714495,6.81099593 C3.90657351,6.7821532 3.87963341,6.76132235 3.84757809,6.75731641 L2.61276642,6.60348841 L2.0371348,5.51900125 C2.00848962,5.46468073 1.91317622,5.46468073 1.88453104,5.51900125 L1.30889942,6.60348841 L0.0740877486,6.75731641 C0.0420324334,6.76132235 0.0149218209,6.7821532 0.0045208941,6.81099593 C-0.00588003269,6.8398387 0.00196328914,6.87172594 0.0249817337,6.89335803 L0.930544392,7.7443792 L0.683820769,8.90401774 C0.677512008,8.93414238 0.689788514,8.96474774 0.715705576,8.98349553 C0.741622639,9.00208307 0.776747082,9.00512761 0.805562765,8.9915074 L1.96091817,8.44862287 L3.11627358,8.9915074 C3.12837958,8.99711573 3.14133811,9 3.15446715,9 C3.1727114,9 3.19112615,8.99439167 3.20630127,8.98349553 C3.23204783,8.96490798 3.24449484,8.93414238 3.23818609,8.90401774 L2.99146246,7.7443792 L3.89702512,6.89335803 C3.91953204,6.87188618 3.92737537,6.83999894 3.91714495,6.81099593 Z" id="Shape-Copy"></path>
                        <path d="M19.9955763,6.81099593 C19.9850049,6.7821532 19.9580648,6.76132235 19.9260095,6.75731641 L18.6911978,6.60348841 L18.1155662,5.51900125 C18.086921,5.46468073 17.9916076,5.46468073 17.9629624,5.51900125 L17.3873308,6.60348841 L16.1525191,6.75731641 C16.1204638,6.76132235 16.0933532,6.7821532 16.0829523,6.81099593 C16.0725513,6.8398387 16.0803947,6.87172594 16.1034131,6.89335803 L17.0089758,7.7443792 L16.7622522,8.90401774 C16.7559434,8.93414238 16.7682199,8.96474774 16.7941369,8.98349553 C16.820054,9.00208307 16.8551785,9.00512761 16.8839941,8.9915074 L18.0393495,8.44862287 L19.1947049,8.9915074 C19.2068109,8.99711573 19.2197695,9 19.2328985,9 C19.2511428,9 19.2695575,8.99439167 19.2847327,8.98349553 C19.3104792,8.96490798 19.3229262,8.93414238 19.3166175,8.90401774 L19.0698938,7.7443792 L19.9754565,6.89335803 C19.9979634,6.87188618 20.0058067,6.83999894 19.9955763,6.81099593 Z" id="Shape-Copy-2"></path>
                    </g>
                </g>
            </g>
        </g>
    </g>
</svg>