<?xml version="1.0" encoding="UTF-8"?>
<svg width="70px" height="70px" viewBox="0 0 70 70" version="1.1" xmlns="http://www.w3.org/2000/svg" xmlns:xlink="http://www.w3.org/1999/xlink">
    <!-- Generator: Sketch 55.1 (78136) - https://sketchapp.com -->
    <title>questions</title>
    <desc>Created with Sketch.</desc>
    <g id="Mobile-Illustrations" stroke="none" stroke-width="1" fill="none" fill-rule="evenodd">
        <g id="Illustrations" transform="translate(-684.000000, -11632.000000)">
            <g id="Boost" transform="translate(41.000000, 44.000000)">
                <g id="questions" transform="translate(643.000000, 11588.000000)">
                    <path d="M5.49091569,37.8336425 C-1.31172496,26.7791698 2.13074788,12.2997385 13.1815407,5.49326251 C24.2323334,-1.31321346 38.7071252,2.13022486 45.5115583,13.1846976 C47.8529082,16.9875256 49.0614272,21.3797747 48.9975961,25.8458048 C48.5779369,38.8427193 37.8595352,49.1247663 24.8616842,48.9988559 L3.17479461,48.9988559 L5.45741469,45.1204541 C6.81689501,42.8839913 6.82875138,40.0816896 5.49091569,37.8336425 Z" id="Shape" fill="#FFFFFF"></path>
                    <path d="M65.4928301,57.7809776 C72.3324557,46.6705158 68.8627872,32.1235858 57.7431776,25.2895869 C54.9286393,23.560406 51.7832075,22.4385654 48.5076927,22 C48.6731395,23.1573138 48.7508011,24.3229416 48.7440057,25.4920337 C48.3218596,38.5510284 37.5399391,48.8821879 24.465061,48.7556761 L22,48.7556761 C23.9280868,60.4870578 34.1107653,69.073794 46.0087933,68.9995219 L67.822677,68.9995219 L65.5265296,65.1025947 C64.1606572,62.8554494 64.1472049,60.0399013 65.4928301,57.7809776 Z" id="Shape" fill="#F46885"></path>
                    <g id="Group" fill="#00D095">
                        <path d="M66.2941014,63.6388867 C65.2737694,61.9494533 65.2737694,59.8355079 66.2941014,58.1460741 C73.5179101,46.4013867 69.8543946,31.0232617 58.1098439,23.7994531 C55.5132813,22.2014844 52.645332,21.0929687 49.6492773,20.5287305 C48.6839061,15.2955469 46.070664,10.5068359 42.1923633,6.86328126 C37.0674609,1.95972656 30.0848242,-0.507089846 23.0174219,0.0888671874 C9.27048827,1.16580078 -0.999414061,13.1817383 0.0775195313,26.9286719 C0.388828125,30.9118359 1.65210937,34.7616992 3.76099609,38.1556055 C4.78132813,39.8450391 4.78132813,41.9589846 3.76099609,43.648418 L1.44730469,47.5100392 C0.97794922,48.3006834 1.23921875,49.3226561 2.02986328,49.7903712 C2.28621094,49.9418554 2.57919922,50.0233399 2.87875,50.0233399 L20.5888867,50.0233399 C23.2021289,61.7096486 33.5818164,70.012168 45.5561914,69.9971492 L67.1279493,69.9971492 C68.0466993,69.9971492 68.7925,69.2514647 68.7925,68.332578 C68.7925,68.034668 68.7126561,67.7400392 68.5595313,67.4836914 L66.2941014,63.6388867 Z M5.79003907,46.6945119 L6.58902346,45.346328 C8.25015626,42.5982813 8.25015626,39.1561133 6.58902346,36.4080664 C0.325527344,26.2296289 3.49972656,12.9020117 13.6763867,6.63865234 C23.8530469,0.375292969 37.1823047,3.54771485 43.4458007,13.7260156 C45.599668,17.2247851 46.7114647,21.2644141 46.6532227,25.3724023 C46.2553712,37.3500586 36.3666406,46.819336 24.3824219,46.6945119 L5.79003907,46.6945119 Z" id="Shape" fill-rule="nonzero"></path>
                        <path d="M26.8625,21.044707 C26.8625,22.7092578 25.2978906,23.7744336 21.2864258,23.940957 L21.1200391,24.1073437 L21.8524414,29.2672461 L25.1814063,29.2672461 L25.5309961,27.3198242 C28.926543,26.7205859 31.6729492,25.0561719 31.6729492,20.978125 C31.6729492,16.7503711 28.5604101,14.3201953 23.9663867,14.3201953 C20.9852344,14.2485547 18.129043,15.5119727 16.1765625,17.7656445 L19.1060351,20.978125 C20.322832,19.6116211 22.0538281,18.8142773 23.883125,18.7810547 C25.7805078,18.7810547 26.8625,19.6132617 26.8625,21.044707 Z" id="Shape"></path>
                        <rect id="Rectangle-path" x="20.8036719" y="31.7906641" width="5.15990234" height="5.09332033"></rect>
                    </g>
                </g>
            </g>
        </g>
    </g>
</svg>