<?xml version="1.0" encoding="UTF-8"?>
<svg width="87px" height="80px" viewBox="0 0 87 80" version="1.1" xmlns="http://www.w3.org/2000/svg" xmlns:xlink="http://www.w3.org/1999/xlink">
    <!-- Generator: Sketch 55.1 (78136) - https://sketchapp.com -->
    <title>score</title>
    <desc>Created with Sketch.</desc>
    <g id="Page-1" stroke="none" stroke-width="1" fill="none" fill-rule="evenodd">
        <g id="Health-Score" transform="translate(-938.000000, -611.000000)" fill-rule="nonzero">
            <g id="score" transform="translate(938.000000, 611.000000)">
                <path d="M59.1304348,69.8521739 L48.4695652,69.6521739 L48.5478261,65.4434783 L48.7043478,56.2521739 L48.7043478,53.8956522 L37.0434783,53.6782609 L36.8086957,67.2 L36.7652174,69.4434783 L26.1130435,69.2434783 C25.2190188,69.2457765 24.3626539,69.6037301 23.7329328,70.2383455 C23.1032116,70.8729608 22.7518985,71.7320713 22.7565217,72.626087 L22.7043478,75.2347826 C22.6551573,77.085054 24.0986318,78.6330159 25.9478261,78.7130435 L58.9217391,79.3130435 C60.7763215,79.2987463 62.2735483,77.7937619 62.2782609,75.9391304 L62.2782609,74.6434783 L62.2782609,73.3565217 C62.3483722,71.5296933 60.9542922,69.9777202 59.1304348,69.8521739 Z" id="Path" fill="#00CC99"></path>
                <path d="M17.5217391,38.5652174 C7.95652174,38.3913043 0.234782609,30.7391304 0.4,21.5391304 L0.530434783,13.9130435 C0.525813658,12.6838201 1.00969337,11.5031077 1.87562408,10.630654 C2.74155479,9.75820022 3.91860263,9.26547338 5.14782609,9.26086957 L18.026087,9.56521739 L17.9652174,13.0434783 L5.08695652,12.8086957 C4.4168839,12.8076751 3.86305575,13.3309472 3.82608696,14 L3.69565217,21.6 C3.56521739,28.9217391 9.7826087,34.9826087 17.6086957,35.1304348 L17.5217391,38.5652174 Z" id="Path" fill="#00CC99"></path>
                <path d="M81.4173913,10.6869565 L70.5130435,10.4869565 L70.6173913,4.66956522 C70.6763566,2.7678522 69.1963927,1.1716608 67.2956522,1.08695652 L20.4695652,0.217391304 C18.5655756,0.241193029 17.0346338,1.79151375 17.0347826,3.69565217 L16.5217391,33.6869565 C16.4169011,38.6122225 17.5818232,43.4815368 19.9043478,47.826087 C24.3787472,56.3938679 33.1461679,61.8626881 42.8086957,62.1130435 C56.0347826,62.3565217 67.1565217,52.5478261 69.6,39.5043478 C78.6956522,39.1130435 86.0434783,32 86.2,23.1478261 L86.3217391,16.026087 C86.3806347,14.6673944 85.896742,13.3410618 84.9767442,12.3395039 C84.0567464,11.337946 82.7761878,10.7434043 81.4173913,10.6869565 Z M82.9043478,23.0521739 C82.7826087,29.9043478 77.1391304,35.4521739 70.0347826,36.0173913 C70.0347826,35.573913 70.0347826,35.1478261 70.0869565,34.6695652 L70.4347826,13.9130435 L81.3391304,14.1130435 C82.2964476,14.1507526 83.0429701,14.9555972 83.0086957,15.9130435 L82.9043478,23.0521739 Z" id="Shape" fill="#00AA80"></path>
                <path d="M57.1478261,20.0869565 C55.5043478,28.3391304 53.4956522,38.5043478 45.7217391,44.5217391 C37.9478261,50.5391304 27.826087,49.7565217 19.9043478,47.826087 C17.5851301,43.4802819 16.420418,38.611845 16.5217391,33.6869565 L17.0521739,3.68695652 C17.0520251,1.7828181 18.5829669,0.232497377 20.4869565,0.208695652 L58.8608696,0.913043478 C59.5217391,8.10434783 57.9826087,15.8434783 57.1478261,20.0869565 Z" id="Path" fill="#00CC99"></path>
                <path d="M40.5391304,7.31304348 L23.6173913,7 C22.9003819,6.98102159 22.3332298,6.38667717 22.3478261,5.66956522 L22.3478261,4.85217391 C22.3501114,4.50702099 22.4900216,4.17704666 22.7365234,3.93544231 C22.9830251,3.69383796 23.3157403,3.5605768 23.6608696,3.56521739 L40.5826087,3.86956522 C40.9324145,3.87639178 41.2650301,4.02254326 41.5066473,4.27558835 C41.7482646,4.52863344 41.8789,4.86764343 41.8695652,5.2173913 L41.8695652,6.03478261 C41.8505954,6.75314774 41.2576796,7.32281199 40.5391304,7.31304348 Z" id="Path" fill="#00AA80"></path>
                <path d="M47.1304348,7.43478261 L45.0608696,7.39130435 C44.3521129,7.37704813 43.7864033,6.79583964 43.7912727,6.08695652 L43.7912727,5.2173913 C43.7958862,4.87144692 43.9377221,4.54149524 44.185603,4.30013749 C44.4334839,4.05877975 44.7670999,3.92579145 45.1130435,3.93043478 L47.1913043,3.93043478 C47.907621,3.9586628 48.4708581,4.55276213 48.4608696,5.26956522 L48.4608696,6.08695652 C48.4728847,6.44493582 48.3371607,6.79210402 48.0855385,7.0470154 C47.8339163,7.30192677 47.4885399,7.4421478 47.1304348,7.43478261 Z" id="Path" fill="#00AA80"></path>
            </g>
        </g>
    </g>
</svg>