<?xml version="1.0" encoding="UTF-8"?>
<svg width="121px" height="162px" viewBox="0 0 121 162" version="1.1" xmlns="http://www.w3.org/2000/svg" xmlns:xlink="http://www.w3.org/1999/xlink">
    <!-- Generator: Sketch 55.1 (78136) - https://sketchapp.com -->
    <title>to-do</title>
    <desc>Created with Sketch.</desc>
    <defs>
        <filter x="-22.1%" y="-15.8%" width="144.2%" height="131.5%" filterUnits="objectBoundingBox" id="filter-1">
            <feOffset dx="0" dy="3" in="SourceAlpha" result="shadowOffsetOuter1"></feOffset>
            <feGaussianBlur stdDeviation="4.5" in="shadowOffsetOuter1" result="shadowBlurOuter1"></feGaussianBlur>
            <feColorMatrix values="0 0 0 0 0   0 0 0 0 0   0 0 0 0 0  0 0 0 0.1 0" type="matrix" in="shadowBlurOuter1" result="shadowMatrixOuter1"></feColorMatrix>
            <feMerge>
                <feMergeNode in="shadowMatrixOuter1"></feMergeNode>
                <feMergeNode in="SourceGraphic"></feMergeNode>
            </feMerge>
        </filter>
    </defs>
    <g id="Mobile-Illustrations" stroke="none" stroke-width="1" fill="none" fill-rule="evenodd">
        <g id="Illustrations" transform="translate(-905.000000, -11740.000000)">
            <g id="Boost" transform="translate(41.000000, 44.000000)">
                <g id="to-do" filter="url(#filter-1)" transform="translate(873.000000, 11701.000000)">
                    <g id="3" transform="translate(0.445319, 107.054347)">
                        <rect id="path-1" fill="#FFFFFF" x="0" y="0" width="102.109362" height="37.6280987" rx="8.1"></rect>
                        <rect id="Rectangle" fill="#1B3554" opacity="0.300000012" x="35.5380117" y="7.7892562" width="57.1921034" height="3.9444916" rx="1.9722458"></rect>
                        <rect id="Rectangle-Copy" fill="#1B3554" opacity="0.300000012" x="35.5380117" y="14.9793388" width="42.1215791" height="3.9444916" rx="1.9722458"></rect>
                        <rect id="Rectangle-Copy-2" fill="#1B3554" opacity="0.149999991" x="35.5380117" y="25.7644628" width="16.3551792" height="3.9444916" rx="1.9722458"></rect>
                        <ellipse id="Oval-8" fill="#BAC2CB" cx="18.317757" cy="13.9972021" rx="9.28266924" ry="9.2038137"></ellipse>
                        <path d="M16.829017,17.4123214 C17.0056574,17.5880334 17.2365096,17.6756648 17.4678137,17.6756648 C17.6991177,17.6756648 17.92997,17.5880334 18.1066103,17.4123214 L22.6242671,12.9184074 C22.9770962,12.5674328 22.9770962,11.9985032 22.6242671,11.6475285 C22.2714382,11.2965538 21.6995028,11.2965538 21.3466738,11.6475285 L17.4678137,15.5055537 L15.3960163,13.4450941 C15.0431873,13.0941194 14.4712519,13.0941194 14.1184229,13.4450941 C13.7655939,13.7960688 13.7655939,14.3649983 14.1184229,14.715973 L16.829017,17.4123214 Z" id="Shape" fill="#FFFFFF"></path>
                    </g>
                    <g id="2" transform="translate(0.445319, 63.315735)">
                        <rect id="path-3" fill="#FFFFFF" x="0" y="0" width="102.109362" height="37.6280987" rx="8.1"></rect>
                        <rect id="Rectangle" fill="#1B3554" opacity="0.300000012" x="35.5380117" y="7.7892562" width="57.1921034" height="3.9444916" rx="1.9722458"></rect>
                        <rect id="Rectangle-Copy" fill="#1B3554" opacity="0.300000012" x="35.5380117" y="14.9793388" width="42.1215791" height="3.9444916" rx="1.9722458"></rect>
                        <rect id="Rectangle-Copy-2" fill="#1B3554" opacity="0.149999991" x="35.5380117" y="25.7644628" width="16.3551792" height="3.9444916" rx="1.9722458"></rect>
                        <ellipse id="Oval-8" fill="#BAC2CB" cx="18.317757" cy="13.9972021" rx="9.28266924" ry="9.2038137"></ellipse>
                        <path d="M16.829017,17.4123214 C17.0056574,17.5880334 17.2365096,17.6756648 17.4678137,17.6756648 C17.6991177,17.6756648 17.92997,17.5880334 18.1066103,17.4123214 L22.6242671,12.9184074 C22.9770962,12.5674328 22.9770962,11.9985032 22.6242671,11.6475285 C22.2714382,11.2965538 21.6995028,11.2965538 21.3466738,11.6475285 L17.4678137,15.5055537 L15.3960163,13.4450941 C15.0431873,13.0941194 14.4712519,13.0941194 14.1184229,13.4450941 C13.7655939,13.7960688 13.7655939,14.3649983 14.1184229,14.715973 L16.829017,17.4123214 Z" id="Shape" fill="#FFFFFF"></path>
                    </g>
                    <g id="1" transform="translate(0.445319, 0.401445)">
                        <path d="M8.73391813,0.649905303 L93.9777831,12.6855861 C98.46873,13.3692198 102.109362,16.4911508 102.109362,19.6537535 L102.109362,40.7795999 C102.109362,43.9422026 98.46873,47.0595577 93.9777831,47.7375714 L9.33625731,56.675205 C4.84531027,57.2457666 0,53.4961412 0,47.5659004 L0,9.75004842 C0,3.81980758 4.24297109,0.0742728844 8.73391813,0.649905303 Z" id="path-5" fill="#FFFFFF"></path>
                        <path d="M37.5206775,17.8965993 L90.7474495,21.5781081 C91.8424455,21.6576496 92.7301152,22.4020356 92.7301152,23.2406022 C92.7301152,24.0791686 91.8424455,24.7172774 90.7474495,24.6659475 L37.5206775,22.2899702 C36.4256814,22.2435416 35.5380117,21.2121581 35.5380117,19.9862213 C35.5380117,18.7602845 36.4256814,17.8246667 37.5206775,17.8965993 Z" id="Rectangle" fill="#1B3554" opacity="0.300000012"></path>
                        <path d="M37.5206775,25.9049064 L75.676925,26.8251699 C76.771921,26.8525451 77.6595906,27.6405515 77.6595906,28.5851824 C77.6595906,29.5298135 76.771921,30.2956576 75.676925,30.2957428 L37.5206775,30.2982773 C36.4256814,30.2983377 35.5380117,29.304568 35.5380117,28.0786312 C35.5380117,26.8526944 36.4256814,25.8794628 37.5206775,25.9049064 Z" id="Rectangle-Copy" fill="#1B3554" opacity="0.300000012"></path>
                        <path d="M37.5206775,37.9173671 L49.910525,37.4095852 C51.0055212,37.3641211 51.8931909,38.2346146 51.8931909,39.3539731 C51.8931909,40.4733317 51.0055212,41.4389369 49.910525,41.5105771 L37.5206775,42.310738 C36.4256814,42.3805319 35.5380117,41.4431828 35.5380117,40.2172461 C35.5380117,38.9913092 36.4256814,37.961657 37.5206775,37.9173671 Z" id="Rectangle-Copy-2" fill="#1B3554" opacity="0.149999991"></path>
                        <path d="M19.6174343,35.5457762 C25.4619029,35.4233064 30.1997809,30.4833502 30.1997809,24.5134296 C30.1997809,18.543509 25.4619029,13.3724661 19.6174343,12.9679897 C13.7729657,12.5683821 9.03508772,17.5121804 9.03508772,24.0058646 C9.03508772,30.4995489 13.7729657,35.6667497 19.6174343,35.5457762 Z" id="Oval-8" fill="#00D095"></path>
                        <path d="M17.9202541,28.433219 C18.1216261,28.6514918 18.3848003,28.7612066 18.6484895,28.7628224 C18.9121786,28.7644033 19.1753528,28.6583275 19.3767248,28.4439109 L24.526904,23.0779413 C24.929133,22.6684639 24.929133,21.9854398 24.526904,21.549682 C24.124675,21.1125475 23.4726623,21.0881293 23.0704333,21.4976469 L18.6484895,26.0908386 L16.2866173,23.4911708 C15.8843883,23.0436813 15.2323756,23.0253332 14.8301466,23.4526522 C14.4279176,23.881341 14.4279176,24.5934552 14.8301466,25.0409152 L17.9202541,28.433219 Z" id="Shape" fill="#FFFFFF"></path>
                    </g>
                </g>
            </g>
        </g>
    </g>
</svg>